<svg width="43" height="56" viewBox="0 0 43 56" fill="none" xmlns="http://www.w3.org/2000/svg">
<rect x="21" y="41" width="2" height="15" rx="1" fill="#151515"/>
<circle cx="21.5" cy="21.5" r="20.5" fill="#151515" stroke="#151515" stroke-width="2"/>
<path d="M19.7091 25.1181C19.9636 20.4726 19.9636 15.7635 19.7091 11.1181C16.6545 10.9272 12.4545 10.8635 9.46361 11.1181C9.20907 19.4544 9.20907 25.5635 9.46361 32.9454C15.8273 33.1363 27.0273 33.1363 34.0909 32.9454C34.3454 30.0817 34.3454 27.4726 34.0909 24.609L19.7091 25.1181Z" fill="#CD0008"/>
<path d="M28.0455 9.59082C28.0455 9.59082 26.2636 10.9272 24.4818 12.709C22.7 14.4908 21.3636 16.2726 21.3636 16.2726C21.3636 16.2726 22.6364 18.0545 24.4818 19.8363C26.2636 21.6181 28.0455 22.9545 28.0455 22.9545C28.0455 22.9545 29.8273 21.6181 31.6091 19.8363C33.4546 18.0545 34.7273 16.2726 34.7273 16.2726C34.7273 16.2726 33.4546 14.4908 31.6091 12.709C29.8273 10.9272 28.0455 9.59082 28.0455 9.59082Z" fill="#CD0008"/>
</svg>
