<svg width="28" height="41" viewBox="0 0 28 41" fill="none" xmlns="http://www.w3.org/2000/svg">
<rect x="13" y="26" width="2" height="15" rx="1" fill="#151515"/>
<circle cx="14" cy="14" r="13" fill="#C91100" stroke="#151515" stroke-width="2"/>
<path d="M12.6909 15.782C12.8364 13.1274 12.8364 10.4365 12.6909 7.78197C10.9455 7.67288 8.54548 7.63652 6.83639 7.78197C6.69093 12.5456 6.69093 16.0365 6.83639 20.2547C10.4727 20.3638 16.8727 20.3638 20.9091 20.2547C21.0546 18.6183 21.0546 17.1274 20.9091 15.4911L12.6909 15.782Z" fill="white"/>
<path d="M17.4545 6.90918C17.4545 6.90918 16.4364 7.67282 15.4182 8.691C14.4 9.70918 13.6364 10.7274 13.6364 10.7274C13.6364 10.7274 14.3636 11.7455 15.4182 12.7637C16.4364 13.7819 17.4545 14.5455 17.4545 14.5455C17.4545 14.5455 18.4727 13.7819 19.4909 12.7637C20.5454 11.7455 21.2727 10.7274 21.2727 10.7274C21.2727 10.7274 20.5454 9.70918 19.4909 8.691C18.4727 7.67282 17.4545 6.90918 17.4545 6.90918Z" fill="white"/>
</svg>
