<svg width="126" height="125" viewBox="0 0 126 125" fill="none" xmlns="http://www.w3.org/2000/svg">
<g id="Group 575">
<path id="Vector" d="M94.3563 32.1872H94.3412C78.9225 17.047 63.4925 6 63.4925 6C63.4925 6 48.0624 17.047 32.6474 32.1872C17.2325 47.3465 6 62.5019 6 62.5019C6 62.5019 17.2325 77.6573 32.6625 92.8128C48.0775 107.968 63.5075 119 63.5075 119C63.5075 119 78.9225 107.953 94.3525 92.8128C109.768 77.6573 121 62.5019 121 62.5019C121 62.5019 109.768 47.3465 94.3525 32.191L94.3563 32.1872Z" fill="#C91100"/>
<path id="Vector_2" d="M96.7701 28.9527C79.9016 12.2297 62.9669 0 62.9669 0C62.9669 0 46.0652 12.2297 29.1636 28.9527C12.2951 45.7432 0 62.5 0 62.5C0 62.5 12.2951 79.2568 29.1967 96.0473C46.0984 112.804 63 125 63 125C63 125 79.9016 112.77 96.8033 96.0473C113.705 79.2905 126 62.5 126 62.5C126 62.5 113.705 45.7432 96.8033 28.9527M78.6091 78.1081C70.7549 85.9122 62.9006 91.5878 62.9006 91.5878C62.9006 91.5878 55.0463 85.9122 47.192 78.1081C44.4745 75.4054 41.989 72.6689 39.9342 70.304H85.9001C83.8453 72.6689 81.3598 75.4054 78.6423 78.1081M38.2441 64.3919C38.8737 60.5068 40.3982 56.9257 42.5855 53.8851C42.5523 53.8514 42.5523 53.8176 42.5523 53.8176C42.5523 53.8176 46.5292 48.2432 52.0305 42.6689C57.2667 37.3649 62.4697 33.4459 62.9669 33.0743C64.0274 34.9324 66.3472 39.2905 67.2088 44.1892C68.0374 48.9865 65.9164 52.3649 65.9164 52.3649C65.9164 52.3649 72.3456 47.4324 76.0242 44.7973C80.4319 49.5608 83.4808 53.7838 83.4808 53.7838C85.7675 56.9257 87.3251 60.3716 87.9216 64.3581H38.1447L38.2441 64.3919Z" fill="white"/>
</g>
</svg>
