<svg width="124" height="125" viewBox="0 0 124 125" fill="none" xmlns="http://www.w3.org/2000/svg">
<ellipse cx="61.667" cy="62.9166" rx="42.5" ry="42.0833" fill="white"/>
<path d="M59.0402 74.304C56.0012 74.304 55.3921 74.9745 55.3921 75.6852V75.7254C55.3921 76.4496 56.0012 77.167 59.0402 77.167C62.0792 77.167 62.6281 76.4965 62.6281 75.7456V75.7053C62.6281 75.0013 62.0859 74.304 59.0402 74.304Z" fill="#C91100"/>
<path d="M80.2869 52.0235L78.7875 55.3759H81.8197L80.2869 52.0235Z" fill="#C91100"/>
<path d="M48.6512 55.3759H51.6901L50.1573 52.0235L48.6512 55.3759Z" fill="#C91100"/>
<path d="M82.3467 69.5096C78.6517 69.5096 77.7547 71.3601 77.7547 72.8285V73.0833C77.7547 74.5718 78.7186 76.5229 82.3467 76.5229C85.9747 76.5229 86.9386 74.5919 86.9386 73.1034V72.8285C86.9386 71.3601 85.9546 69.5096 82.3467 69.5096Z" fill="#C91100"/>
<path d="M99.2353 67.5991C99.0161 67.5849 98.7962 67.6159 98.5894 67.6901C98.3826 67.7644 98.1932 67.8804 98.0329 68.0309C97.8726 68.1814 97.7449 68.3632 97.6575 68.5652C97.5702 68.7671 97.5251 68.9848 97.5251 69.2049C97.5251 69.425 97.5702 69.6427 97.6575 69.8446C97.7449 70.0466 97.8726 70.2284 98.0329 70.3789C98.1932 70.5294 98.3826 70.6454 98.5894 70.7197C98.7962 70.7939 99.0161 70.8249 99.2353 70.8107C99.4546 70.8249 99.6743 70.7939 99.8812 70.7197C100.088 70.6454 100.277 70.5294 100.438 70.3789C100.598 70.2284 100.726 70.0466 100.813 69.8446C100.9 69.6427 100.945 69.425 100.945 69.2049C100.945 68.9848 100.9 68.7671 100.813 68.5652C100.726 68.3632 100.598 68.1814 100.438 68.0309C100.277 67.8804 100.088 67.7644 99.8812 67.6901C99.6743 67.6159 99.4546 67.5849 99.2353 67.5991Z" fill="#C91100"/>
<path d="M94.7441 28.9787C84.4013 18.565 73.3502 8.88221 61.67 0C38.1947 17.727 17.4203 38.7822 0 62.5034C17.418 86.2245 38.1928 107.278 61.67 125C73.3511 116.121 84.4024 106.441 94.7441 96.028C105.035 85.5276 114.588 74.3259 123.333 62.5034C114.588 50.6808 105.035 39.4791 94.7441 28.9787ZM89.5095 48.9996H94.3759V56.3751H101.833V59.9153H89.5229L89.5095 48.9996ZM77.0256 48.9996H83.7596L89.2618 59.8884H83.8599L83.1906 58.3798H77.454L76.7846 59.8884H71.858L77.0256 48.9996ZM59.3807 48.9996H64.2471V56.3751H71.7174V59.9153H59.3941L59.3807 48.9996ZM25.5502 48.9996H30.4233V52.7142H36.5883V48.9996H41.4748V59.8884H36.5883V55.8655H30.4233V59.8884H25.5502V48.9996ZM47.1578 75.6987C47.1578 78.1795 45.558 81.2436 36.267 81.2436H35.2161C25.8448 81.2436 24.7269 77.2676 24.7269 75.2092V75.0148H31.9562C32.0031 75.3567 32.1704 76.9324 35.6914 76.9324C39.0383 76.9324 39.4666 76.2619 39.4666 75.6517C39.4666 75.0818 39.0717 74.6996 37.8133 74.6996H32.9V70.8108H37.7463C38.9044 70.8108 39.2591 70.4688 39.2591 70.0196C39.2591 69.4899 39.0316 68.9803 35.6311 68.9803C32.2306 68.9803 32.0633 70.1939 32.0231 70.4688H24.8675V70.2542C24.8675 68.4909 25.7711 64.8568 35.1023 64.8568H36.0528C45.6785 64.8568 46.5353 67.1298 46.5353 68.9401V69.0205C46.5353 70.556 45.0493 71.4477 43.4963 71.7025C45.2769 71.9975 47.1712 73.0837 47.1712 75.5646L47.1578 75.6987ZM46.6491 59.8884H41.7224L46.8901 48.9996H53.6441L59.1464 59.8884H53.7445L53.0751 58.3798H47.3386L46.6491 59.8884ZM69.977 75.5914C69.977 78.099 68.7587 81.2638 59.2669 81.2638H58.303C48.8179 81.2638 47.6665 76.2686 47.6665 73.2916V72.782C47.6665 69.8989 48.8179 64.8367 58.3766 64.8367H59.3205C67.6476 64.8367 69.2407 67.9008 69.2407 69.9391V70.0196H62.1252C61.9779 69.8117 61.496 68.8999 59.0594 68.8999C55.7125 68.8999 54.9293 70.8108 54.9293 72.0177V72.1719C55.3511 71.8702 56.9375 70.7035 61.3888 70.7035H61.6432C68.1429 70.7035 69.9502 72.715 69.9502 75.3969L69.977 75.5914ZM94.2688 73.3385C94.2688 76.3356 92.8631 81.2436 82.8893 81.2436H81.9254C71.8847 81.2436 70.546 76.3356 70.546 73.3385V72.7015C70.546 69.6843 71.9316 64.8367 81.9254 64.8367H82.8893C92.8966 64.8367 94.2688 69.6843 94.2688 72.7015V73.3385ZM99.2624 73.5263C96.6987 73.5263 94.7307 71.783 94.7307 69.215C94.7307 66.647 96.6987 64.9037 99.2624 64.9037C101.826 64.9037 103.774 66.647 103.774 69.215C103.774 71.783 101.766 73.5263 99.2624 73.5263Z" fill="#C91100"/>
</svg>
