<svg width="71" height="30" viewBox="0 0 71 30" fill="none" xmlns="http://www.w3.org/2000/svg">
<g clip-path="url(#clip0_255_1181)">
<path d="M24.4325 3.135C21.92 1.1775 18.77 0 15.335 0C7.145 0 0.5 6.645 0.5 14.835C0.5 23.025 7.145 29.67 15.335 29.67C19.085 29.67 22.505 28.2675 25.115 25.9725H14.375L14.345 22.815C20.8175 17.19 24.785 13.3875 24.785 9.705C24.785 8.34 24.2675 6.615 21.92 6.615C20.0675 6.615 18.275 7.6875 18.605 12.18H14.8325C13.8875 6.975 16.715 2.85 22.115 2.85C22.955 2.85 23.7275 2.9475 24.4325 3.135ZM30.17 14.835C30.17 13.0125 29.825 11.2725 29.225 9.6525C29.0675 14.97 23.66 19.08 20.495 21.8025H28.43C29.54 19.725 30.17 17.355 30.17 14.8275V14.835Z" fill="white"/>
<path d="M54.1925 24.6825H50.6525V3.68254H54.1925V24.675V24.6825ZM54.1925 24.6825H50.6525V3.68254H54.1925V24.675V24.6825ZM70.04 19.1625C70.19 10.9425 60.77 13.6725 60.86 9.08254C60.89 7.46254 61.94 6.41254 63.65 6.41254C65.48 6.41254 66.56 7.49254 66.53 10.3125H69.98C70.07 7.76254 69.47 3.41254 63.77 3.41254C60.23 3.41254 57.32 5.15254 57.26 9.02254C57.11 16.9125 66.59 14.3325 66.44 19.1025C66.38 21.0525 64.97 21.9225 63.38 21.9225C61.52 21.9225 60.02 20.8425 60.32 17.6025H56.84C56.45 21.8925 58.34 24.9525 63.35 24.9525C67.58 24.9525 69.98 22.6125 70.04 19.1625ZM43.9325 10.2525H47.4425C47.5625 7.58254 46.6625 3.35254 40.8725 3.35254C36.6125 3.35254 33.5225 5.90254 33.5225 11.2125C33.5225 11.9325 33.5525 15.6525 33.5525 17.9625C33.5525 23.7225 37.5425 24.9825 40.9025 24.9825C42.9125 24.9825 45.8225 24.5325 47.1725 23.0625V13.8825H40.5725V17.2125H43.5125V21.2625C41.2925 22.0125 37.2425 22.3125 37.2425 17.2125V11.2125C37.2425 7.64254 38.8925 6.41254 40.7225 6.41254C42.5525 6.41254 43.9325 7.37254 43.9325 10.2525Z" fill="white"/>
</g>
<defs>
<clipPath id="clip0_255_1181">
<rect width="69.54" height="29.67" fill="white" transform="translate(0.5)"/>
</clipPath>
</defs>
</svg>
