<svg width="460" height="161" viewBox="0 0 460 161" fill="none" xmlns="http://www.w3.org/2000/svg">
<path d="M149.54 116.611C149.54 123.05 144.32 128.269 137.881 128.269C131.443 128.269 126.223 133.489 126.223 139.927V143.087C126.223 151.27 119.589 157.904 111.406 157.904H97.7703C89.5869 157.904 82.9529 151.27 82.9529 143.087C82.9529 134.903 76.319 128.269 68.1357 128.269H21.5215C9.63551 128.269 0 118.634 0 106.748C0 102.194 1.44454 97.7573 4.12581 94.0764L64.7545 10.8436C68.3005 5.97552 73.9602 3.09615 79.9828 3.09615C95.2617 3.09615 104.186 20.3271 95.3707 32.8064L64.5631 76.4179C59.4803 83.6131 64.6259 93.5481 73.4354 93.5481C79.4347 93.5481 84.2981 88.6847 84.2981 82.6853V80.3894C84.2981 73.1221 90.1895 67.2308 97.4568 67.2308H113.064C120.332 67.2308 126.223 73.1221 126.223 80.3894V81.8898C126.223 88.3285 131.443 93.5481 137.881 93.5481C144.32 93.5481 149.54 98.7677 149.54 105.206V116.611Z" fill="#FFF"/><!--dark theme #181818-->
<path d="M227.828 161C214.376 161 202.419 157.83 191.957 151.49C181.494 145.151 173.273 135.936 167.295 123.846C161.466 111.609 158.551 97.1603 158.551 80.5C158.551 63.8397 161.466 49.4647 167.295 37.375C173.273 25.1378 181.494 15.8494 191.957 9.50962C202.419 3.16987 214.376 0 227.828 0C241.13 0 253.013 3.16987 263.475 9.50962C273.938 15.8494 282.084 25.1378 287.913 37.375C293.892 49.4647 296.881 63.8397 296.881 80.5C296.881 97.1603 293.892 111.609 287.913 123.846C282.084 135.936 273.938 145.151 263.475 151.49C253.013 157.83 241.13 161 227.828 161ZM227.828 125.173C235.301 125.173 241.205 121.635 245.54 114.558C250.024 107.333 252.266 95.9808 252.266 80.5C252.266 65.0192 250.024 53.7404 245.54 46.6635C241.205 39.4391 235.301 35.8269 227.828 35.8269C220.205 35.8269 214.152 39.4391 209.668 46.6635C205.334 53.7404 203.166 65.0192 203.166 80.5C203.166 95.9808 205.334 107.333 209.668 114.558C214.152 121.635 220.205 125.173 227.828 125.173Z" fill="#FFF"/><!--dark theme #181818-->
<path d="M460 116.611C460 123.05 454.78 128.269 448.342 128.269C441.903 128.269 436.684 133.489 436.684 139.927V143.087C436.684 151.27 430.05 157.904 421.866 157.904H408.231C400.047 157.904 393.413 151.27 393.413 143.087C393.413 134.903 386.78 128.269 378.596 128.269H331.982C320.096 128.269 310.461 118.634 310.461 106.748C310.461 102.194 311.905 97.7573 314.586 94.0764L375.215 10.8436C378.761 5.97552 384.421 3.09615 390.443 3.09615C405.722 3.09615 414.647 20.3271 405.831 32.8064L375.024 76.4179C369.941 83.6131 375.086 93.5481 383.896 93.5481C389.895 93.5481 394.759 88.6847 394.759 82.6853V80.3894C394.759 73.1221 400.65 67.2308 407.917 67.2308H423.525C430.792 67.2308 436.684 73.1221 436.684 80.3894V81.8898C436.684 88.3285 441.903 93.5481 448.342 93.5481C454.78 93.5481 460 98.7677 460 105.206V116.611Z" fill="#FFF"/><!--dark theme #181818-->
</svg>
