<!-- <svg width="16" height="31" viewBox="0 0 16 31" fill="none" xmlns="http://www.w3.org/2000/svg">
<path d="M2.09907 0C1.29563 0.308094 0.806919 1.03751 0.286317 1.70453C-0.124063 2.22983 -0.0748444 3.1025 0.318207 3.65014C0.41431 3.77889 0.516591 3.9018 0.624604 4.01831C3.88824 7.64612 7.15373 11.2719 10.4211 14.8956C10.5895 15.082 10.5951 15.1736 10.4211 15.3646C7.13339 19.0063 3.84942 22.6521 0.569149 26.302C-0.0193882 26.9559 -0.178133 27.7223 0.222543 28.4062C0.60041 29.0528 1.09638 29.6039 1.67829 30.0237C2.20166 30.4035 2.85189 30.3103 3.33575 29.8697C3.42471 29.7883 3.50985 29.7019 3.59085 29.6109L15.4309 16.4561C16.0347 15.7852 16.1622 15.0149 15.7934 14.2948C15.7001 14.1273 15.587 13.9745 15.4572 13.8403C11.4828 9.42433 7.51143 5.0096 3.54303 0.596161C3.29486 0.319646 2.99816 0.150196 2.68483 0H2.09907Z"/>
</svg> -->

<svg xmlns="http://www.w3.org/2000/svg" width="20" height="20" viewBox="0 0 20 20" fill="none">
<path d="M7.5 3.75L13.75 10L7.5 16.25" stroke="#232323" stroke-width="1.5" stroke-linecap="round" stroke-linejoin="round"/>
</svg>