<!-- <svg width="16" height="31" viewBox="0 0 16 31" fill="none" xmlns="http://www.w3.org/2000/svg">
<path d="M13.901 0C14.7044 0.308094 15.1931 1.03751 15.7137 1.70453C16.1241 2.22983 16.0749 3.1025 15.6818 3.65014C15.5857 3.77889 15.4835 3.9018 15.3754 4.01831C12.1118 7.64612 8.84632 11.2719 5.57898 14.8956C5.41053 15.082 5.40499 15.1736 5.57898 15.3646C8.86665 19.0063 12.1506 22.6521 15.4309 26.302C16.0194 26.9559 16.1782 27.7223 15.7775 28.4062C15.3996 29.0528 14.9037 29.6039 14.3218 30.0237C13.7984 30.4035 13.1482 30.3103 12.6643 29.8697C12.5753 29.7883 12.4902 29.7019 12.4092 29.6109L0.56915 16.4561C-0.0346367 15.7852 -0.162188 15.0149 0.2066 14.2948C0.299934 14.1273 0.413006 13.9745 0.542808 13.8403C4.51722 9.42433 8.48862 5.0096 12.457 0.596161C12.7052 0.319646 13.0019 0.150196 13.3152 0H13.901Z"/>
</svg> -->


<svg xmlns="http://www.w3.org/2000/svg" width="20" height="20" viewBox="0 0 20 20" fill="none">
<path d="M12.5 3.75L6.25 10L12.5 16.25" stroke="#232323" stroke-width="1.5" stroke-linecap="round" stroke-linejoin="round"/>
</svg>