<svg width="25" height="25" viewBox="0 0 25 25" fill="none" xmlns="http://www.w3.org/2000/svg">
<g clipPath="url(#clip0_558_2551)">
<path fill-rule="evenodd" clip-rule="evenodd" d="M12.5 1.5625C9.59919 1.5625 6.8172 2.71484 4.76602 4.76602C2.71484 6.8172 1.5625 9.59919 1.5625 12.5C1.5625 15.4008 2.71484 18.1828 4.76602 20.234C6.8172 22.2852 9.59919 23.4375 12.5 23.4375C15.4008 23.4375 18.1828 22.2852 20.234 20.234C22.2852 18.1828 23.4375 15.4008 23.4375 12.5C23.4375 9.59919 22.2852 6.8172 20.234 4.76602C18.1828 2.71484 15.4008 1.5625 12.5 1.5625V1.5625ZM12.5 25C9.18479 25 6.00537 23.683 3.66116 21.3388C1.31696 18.9946 -6.91305e-07 15.8152 -5.46392e-07 12.5C-4.0148e-07 9.18479 1.31696 6.00537 3.66116 3.66116C6.00537 1.31696 9.18479 -6.91305e-07 12.5 -5.46392e-07C15.8152 -4.0148e-07 18.9946 1.31696 21.3388 3.66117C23.683 6.00537 25 9.18479 25 12.5C25 15.8152 23.683 18.9946 21.3388 21.3388C18.9946 23.683 15.8152 25 12.5 25V25ZM17.9687 13.2812C18.1759 13.2812 18.3747 13.1989 18.5212 13.0524C18.6677 12.9059 18.75 12.7072 18.75 12.5C18.75 12.2928 18.6677 12.0941 18.5212 11.9476C18.3747 11.8011 18.1759 11.7187 17.9687 11.7187L8.91719 11.7187L12.2719 8.36562C12.4186 8.21893 12.501 8.01996 12.501 7.8125C12.501 7.60504 12.4186 7.40607 12.2719 7.25937C12.1252 7.11268 11.9262 7.03026 11.7187 7.03026C11.5113 7.03026 11.3123 7.11268 11.1656 7.25937L6.47812 11.9469C6.40537 12.0194 6.34765 12.1057 6.30826 12.2006C6.26888 12.2955 6.2486 12.3972 6.2486 12.5C6.2486 12.6028 6.26888 12.7045 6.30826 12.7994C6.34765 12.8943 6.40537 12.9806 6.47812 13.0531L11.1656 17.7406C11.3123 17.8873 11.5113 17.9697 11.7187 17.9697C11.9262 17.9697 12.1252 17.8873 12.2719 17.7406C12.4186 17.5939 12.501 17.395 12.501 17.1875C12.501 16.98 12.4186 16.7811 12.2719 16.6344L8.91719 13.2812L17.9687 13.2812Z" fill="#3E4B31"/>
</g>
<defs>
<clipPath id="clip0_558_2551">
<rect width="25" height="25" fill="white" transform="translate(25) rotate(90)"/>
</clipPath>
</defs>
</svg>
