<svg width="27" height="27" viewBox="0 0 27 27" fill="none" xmlns="http://www.w3.org/2000/svg">
<g clipPath="url(#clip0_558_2545)">
<path d="M13.5227 26.0001C10.2075 26.0061 7.0257 24.6949 4.67727 22.3549C2.32884 20.015 1.00614 16.8379 1.00015 13.5227C0.994164 10.2075 2.30538 7.02572 4.64535 4.67729C6.98532 2.32886 10.1624 1.00616 13.4776 1.00017C16.7928 0.994185 19.9746 2.3054 22.323 4.64537C24.6714 6.98534 25.9941 10.1624 26.0001 13.4776C26.0061 16.7928 24.6949 19.9746 22.3549 22.323C20.0149 24.6714 16.8379 25.9941 13.5227 26.0001V26.0001ZM18.9703 14.2715C19.1775 14.2712 19.376 14.1885 19.5223 14.0417C19.6685 13.8949 19.7505 13.6961 19.7501 13.4889C19.7497 13.2817 19.6671 13.0831 19.5203 12.9369C19.3735 12.7906 19.1747 12.7087 18.9675 12.709L9.91591 12.7254L13.2645 9.36619C13.411 9.21923 13.493 9.02012 13.4927 8.81266C13.4923 8.60519 13.4095 8.40638 13.2625 8.25995C13.1156 8.11351 12.9165 8.03146 12.709 8.03183C12.5015 8.03221 12.3027 8.11498 12.1563 8.26194L7.47727 12.9579C7.40464 13.0306 7.34708 13.1169 7.30786 13.2119C7.26865 13.3069 7.24856 13.4087 7.24874 13.5114C7.24893 13.6142 7.26939 13.7159 7.30894 13.8108C7.3485 13.9056 7.40638 13.9917 7.47926 14.0641L12.1752 18.7432C12.3222 18.8896 12.5213 18.9717 12.7288 18.9713C12.9362 18.9709 13.135 18.8881 13.2815 18.7412C13.4279 18.5942 13.51 18.3951 13.5096 18.1876C13.5092 17.9802 13.4264 17.7814 13.2795 17.6349L9.91873 14.2879L18.9703 14.2715Z" fill="#3E4B31"/>
</g>
<defs>
<clipPath id="clip0_558_2545">
<rect width="25" height="25" fill="white" transform="translate(25.9775 0.9776) rotate(89.8965)"/>
</clipPath>
</defs>
</svg>
