<svg width="25" height="25" viewBox="0 0 25 25" fill="none" xmlns="http://www.w3.org/2000/svg">
<g clipPath="url(#clip0_558_2545)">
<path d="M12.5 0.000122219C15.8152 0.000122259 18.9946 1.31708 21.3388 3.66129C23.683 6.00549 25 9.18492 25 12.5001C25 15.8153 23.683 18.9948 21.3388 21.339C18.9946 23.6832 15.8152 25.0001 12.5 25.0001C9.18479 25.0001 6.00537 23.6832 3.66117 21.339C1.31696 18.9948 1.09528e-07 15.8153 1.49061e-07 12.5001C1.88594e-07 9.18492 1.31696 6.00549 3.66117 3.66129C6.00537 1.31708 9.18479 0.00012218 12.5 0.000122219ZM7.03125 11.7189C6.82405 11.7189 6.62534 11.8012 6.47882 11.9477C6.33231 12.0942 6.25 12.2929 6.25 12.5001C6.25 12.7073 6.33231 12.906 6.47882 13.0525C6.62534 13.1991 6.82405 13.2814 7.03125 13.2814L16.0828 13.2814L12.7281 16.6345C12.5814 16.7812 12.499 16.9802 12.499 17.1876C12.499 17.3951 12.5814 17.594 12.7281 17.7407C12.8748 17.8874 13.0738 17.9699 13.2813 17.9699C13.4887 17.9699 13.6877 17.8874 13.8344 17.7407L18.5219 13.0532C18.5946 12.9807 18.6524 12.8945 18.6917 12.7996C18.7311 12.7046 18.7514 12.6029 18.7514 12.5001C18.7514 12.3974 18.7311 12.2956 18.6917 12.2007C18.6524 12.1058 18.5946 12.0196 18.5219 11.947L13.8344 7.2595C13.6877 7.1128 13.4887 7.03039 13.2813 7.03039C13.0738 7.03039 12.8748 7.1128 12.7281 7.2595C12.5814 7.40619 12.499 7.60516 12.499 7.81262C12.499 8.02008 12.5814 8.21905 12.7281 8.36575L16.0828 11.7189L7.03125 11.7189Z" fill="#3E4B31"/>
</g>
<defs>
<clipPath id="clip0_558_2545">
<rect width="25" height="25" fill="white" transform="translate(0 25.0001) rotate(-90)"/>
</clipPath>
</defs>
</svg>
