<svg width="27" height="27" viewBox="0 0 27 27" fill="none" xmlns="http://www.w3.org/2000/svg">
<g clipPath="url(#clip0_558_2551)">
<path fill-rule="evenodd" clip-rule="evenodd" d="M13.5189 24.4375C16.4197 24.4325 19.1997 23.2754 21.2474 21.2206C23.295 19.1659 24.4425 16.3819 24.4375 13.4811C24.4325 10.5803 23.2753 7.80031 21.2206 5.75269C19.1659 3.70506 16.3819 2.55754 13.4811 2.56256C10.5803 2.56758 7.80027 3.72474 5.75265 5.77947C3.70502 7.83419 2.5575 10.6182 2.56252 13.519C2.56755 16.4198 3.7247 19.1998 5.77943 21.2474C7.83416 23.295 10.6181 24.4426 13.5189 24.4375V24.4375ZM13.4784 1.00006C16.7936 0.994324 19.9753 2.30578 22.3235 4.64592C24.6718 6.98606 25.9942 10.1632 26 13.4784C26.0057 16.7936 24.6943 19.9753 22.3541 22.3236C20.014 24.6718 16.8369 25.9943 13.5216 26C10.2064 26.0058 7.02475 24.6943 4.67649 22.3542C2.32823 20.014 1.00577 16.8369 1.00003 13.5217C0.994286 10.2065 2.30574 7.02479 4.64588 4.67653C6.98603 2.32827 10.1632 1.0058 13.4784 1.00006V1.00006ZM8.02991 12.7283C7.82271 12.7286 7.62414 12.8113 7.47788 12.958C7.33162 13.1048 7.24966 13.3037 7.25002 13.5109C7.25038 13.7181 7.33303 13.9166 7.4798 14.0629C7.62656 14.2092 7.82542 14.2911 8.03262 14.2908L17.0842 14.2751L13.7353 17.634C13.5888 17.781 13.5068 17.9801 13.5071 18.1875C13.5075 18.395 13.5903 18.5938 13.7372 18.7403C13.8842 18.8867 14.0833 18.9688 14.2907 18.9684C14.4982 18.9681 14.697 18.8853 14.8435 18.7384L19.5228 14.0427C19.5955 13.97 19.653 13.8837 19.6923 13.7888C19.7315 13.6938 19.7516 13.592 19.7514 13.4892C19.7512 13.3865 19.7308 13.2847 19.6912 13.1899C19.6517 13.0951 19.5938 13.0089 19.5209 12.9365L14.8253 8.25712C14.6784 8.11067 14.4792 8.0286 14.2718 8.02896C14.0643 8.02932 13.8655 8.11208 13.7191 8.25903C13.5726 8.40598 13.4905 8.60509 13.4909 8.81255C13.4913 9.02002 13.574 9.21884 13.721 9.36528L17.0815 12.7126L8.02991 12.7283Z" fill="#3E4B31"/>
</g>
<defs>
<clipPath id="clip0_558_2551">
<rect width="25" height="25" fill="white" transform="translate(1.02167 26.0217) rotate(-90.0992)"/>
</clipPath>
</defs>
</svg>
