<svg width="70" height="71" viewBox="0 0 70 71" fill="none" xmlns="http://www.w3.org/2000/svg">
<path d="M53.7747 16.3166C44.3881 6.87699 35.0005 0 35.0005 0C35.0005 0 25.6129 6.87699 16.2263 16.3166C6.83872 25.7553 0 35.1959 0 35.1959C0 35.1959 6.83872 44.6365 16.2263 54.0752C25.6129 63.5148 35.0005 70.3918 35.0005 70.3918C35.0005 70.3918 44.3881 63.5148 53.7747 54.0752C63.1613 44.6365 70 35.1959 70 35.1959C70 35.1959 63.1613 25.7553 53.7747 16.3166ZM35.9977 36.4694C35.9977 36.4694 33.9829 36.7866 31.2952 36.9193V48.5205H26.8587V36.9212C24.138 36.7895 22.0892 36.4655 22.0892 36.4655C22.0892 36.4655 21.5823 33.2256 21.5804 29.4763C21.5794 25.728 22.0853 22.4871 22.0853 22.4871C22.0853 22.4871 23.1495 22.3436 24.5642 22.209V27.6865H26.9354V22.0411C27.6704 22.004 28.2288 21.9796 29.0395 21.9796C29.8503 21.9796 30.5611 22.004 31.2952 22.0421V27.6865H33.6663V22.2119C35.0811 22.3475 35.9928 22.491 35.9928 22.491C35.9928 22.491 36.5007 25.7309 36.5016 29.4802C36.5036 33.2295 35.9977 36.4694 35.9977 36.4694ZM44.1104 35.1598C44.057 35.2125 44.0045 35.2642 43.9511 35.3169V48.4941H39.5146V21.9338C39.5146 21.9338 39.6215 21.9972 39.6399 22.0108C39.906 22.2099 42.0237 23.7928 44.1541 25.9553C46.431 28.2672 48.0876 30.5771 48.0876 30.5771C48.0876 30.5771 46.4087 32.8704 44.1104 35.1598Z" fill="white"/>
</svg>
