<svg width="70" height="69" viewBox="0 0 70 69" fill="none" xmlns="http://www.w3.org/2000/svg">
<path d="M53.7612 15.9819C44.3898 6.75081 34.9816 0 34.9816 0C34.9816 0 25.5918 6.75081 16.202 15.9819C6.83062 25.2503 0 34.5 0 34.5C0 34.5 6.83062 43.7497 16.2204 53.0181C25.6102 62.2678 35 69 35 69C35 69 44.3898 62.2492 53.7796 53.0181C63.1694 43.7684 70 34.5 70 34.5C70 34.5 63.1694 25.2503 53.7796 15.9819M43.6717 43.1157C39.3083 47.4235 34.9448 50.5565 34.9448 50.5565C34.9448 50.5565 30.5813 47.4235 26.2178 43.1157C24.708 41.6238 23.3272 40.1132 22.1857 38.8078H47.7223C46.5807 40.1132 45.1999 41.6238 43.6902 43.1157M21.2467 35.5443C21.5965 33.3997 22.4435 31.423 23.6586 29.7446C23.6402 29.7259 23.6402 29.7073 23.6402 29.7073C23.6402 29.7073 25.8496 26.6303 28.9058 23.5532C31.8148 20.6254 34.7054 18.4622 34.9816 18.257C35.5708 19.2827 36.8596 21.6884 37.3382 24.3924C37.7985 27.0405 36.6202 28.9054 36.6202 28.9054C36.6202 28.9054 40.192 26.1827 42.2357 24.7281C44.6844 27.3576 46.3782 29.6886 46.3782 29.6886C47.6486 31.423 48.5139 33.3251 48.8453 35.5257H21.1915L21.2467 35.5443Z" fill="white"/>
</svg>
