<svg width="66" height="50" viewBox="0 0 66 50" fill="none" xmlns="http://www.w3.org/2000/svg">
<path d="M36.5 31C36.5 40.665 28.665 48.5 19 48.5C9.33502 48.5 1.5 40.665 1.5 31C1.5 21.335 9.33502 13.5 19 13.5C28.665 13.5 36.5 21.335 36.5 31Z" stroke="#c91100" stroke-width="3"/>
<path d="M64.5 14C64.5 20.9036 58.9036 26.5 52 26.5C45.0964 26.5 39.5 20.9036 39.5 14C39.5 7.09644 45.0964 1.5 52 1.5C58.9036 1.5 64.5 7.09644 64.5 14Z" stroke="#c91100" stroke-width="3"/>
<path d="M17.7861 39.4971C18.4564 40.1676 19.5434 40.1677 20.2139 39.4971L27.4972 32.2138C28.1676 31.5434 28.1676 30.4565 27.4972 29.7861L20.2139 22.5028C19.5436 21.8324 18.4566 21.8324 17.7861 22.5028L10.5028 29.7861C9.83239 30.4565 9.83239 31.5434 10.5028 32.2138L17.7861 39.4971ZM18.9999 26.1446L23.8555 31L18.9999 35.8555L14.1444 31L18.9999 26.1446Z" fill="#c91100"/>
<path d="M51.1908 19.6648C51.6376 20.1117 52.3623 20.1118 52.8092 19.6648L57.6648 14.8092C58.1117 14.3623 58.1117 13.6377 57.6648 13.1907L52.8092 8.33521C52.3624 7.88826 51.6377 7.88826 51.1908 8.33521L46.3352 13.1907C45.8883 13.6377 45.8883 14.3623 46.3352 14.8092L51.1908 19.6648ZM52 10.7631L55.237 14L52 17.237L48.7629 14L52 10.7631Z" fill="#c91100"/>
</svg>
