<svg viewBox="0 0 24 25" fill="none" xmlns="http://www.w3.org/2000/svg">
<path d="M12.0036 0.507812C9.63097 0.507812 7.31161 1.21138 5.33883 2.52955C3.36606 3.84772 1.82846 5.72128 0.920492 7.91331C0.0125221 10.1053 -0.225044 12.5174 0.237835 14.8444C0.700714 17.1715 1.84325 19.309 3.52096 20.9867C5.19867 22.6645 7.3362 23.807 9.66325 24.2699C11.9903 24.7327 14.4024 24.4952 16.5944 23.5872C18.7864 22.6792 20.66 21.1416 21.9782 19.1689C23.2963 17.1961 23.9999 14.8767 23.9999 12.5041C23.9959 9.32369 22.7308 6.27468 20.4819 4.02579C18.233 1.77691 15.184 0.511751 12.0036 0.507812V0.507812ZM12.0036 22.0892C10.1079 22.0892 8.25467 21.527 6.6784 20.4738C5.10214 19.4206 3.87359 17.9236 3.14812 16.1722C2.42264 14.4207 2.23282 12.4935 2.60267 10.6341C2.97251 8.7748 3.88541 7.06689 5.22591 5.72639C6.56641 4.38589 8.27432 3.47299 10.1336 3.10315C11.993 2.73331 13.9202 2.92312 15.6717 3.6486C17.4231 4.37407 18.9201 5.60262 19.9733 7.17889C21.0266 8.75515 21.5887 10.6083 21.5887 12.5041C21.5848 15.045 20.5737 17.4807 18.777 19.2774C16.9803 21.0741 14.5445 22.0853 12.0036 22.0892Z"/>
<path d="M12.8223 7.19036C12.6044 6.97509 12.3101 6.85471 12.0037 6.85547C11.8532 6.85527 11.704 6.88474 11.5648 6.9422C11.4257 6.99966 11.2992 7.08398 11.1926 7.19036L6.69026 11.6555C6.4762 11.8727 6.3562 12.1654 6.3562 12.4704C6.3562 12.7753 6.4762 13.068 6.69026 13.2852L11.1926 17.7876C11.2989 17.8943 11.4254 17.9788 11.5646 18.0363C11.7038 18.0938 11.8531 18.1231 12.0037 18.1224C12.31 18.1224 12.6039 18.0022 12.8223 17.7876L17.2875 13.2852C17.5015 13.068 17.6215 12.7753 17.6215 12.4704C17.6215 12.1654 17.5015 11.8727 17.2875 11.6555L12.8223 7.19036ZM14.8689 12.5038L12.0037 15.369L9.13863 12.5038L12.0037 9.63873L14.8689 12.5038Z"/>
</svg>
