<svg width="18" height="18" viewBox="0 0 18 18" fill="none" xmlns="http://www.w3.org/2000/svg">
<path d="M16.5 9C16.5 13.1421 13.1421 16.5 9 16.5C4.85786 16.5 1.5 13.1421 1.5 9C1.5 4.85786 4.85786 1.5 9 1.5C13.1421 1.5 16.5 4.85786 16.5 9Z" stroke="currentColor" stroke-width="3"/>
<path d="M8.43407 12.9651C8.74688 13.278 9.25414 13.2781 9.56701 12.9651L12.9659 9.56626C13.2788 9.2534 13.2788 8.74619 12.9659 8.43333L9.56701 5.03445C9.2542 4.72159 8.74693 4.72159 8.43407 5.03445L5.03518 8.43333C4.72232 8.74619 4.72232 9.2534 5.03518 9.56626L8.43407 12.9651ZM9.00051 6.73394L11.2664 8.99982L9.00051 11.2657L6.73457 8.99982L9.00051 6.73394Z" fill="currentColor"/>
</svg>
