<svg width="56" height="56" viewBox="0 0 56 56" fill="none" xmlns="http://www.w3.org/2000/svg">
<path d="M48.7435 30.3333V32.6666H46.7135C44.9868 32.6666 43.5868 34.0666 43.5868 35.8166V36.5166C43.5868 38.2666 42.1868 39.6666 40.4368 39.6666C38.7102 39.6666 37.3102 38.2666 37.3102 36.5166V35.8166C37.3102 34.0666 35.8868 32.6666 34.1602 32.6666C32.4335 32.6666 31.0335 34.0666 31.0335 35.8166V36.5166C31.0335 38.2666 29.6102 39.6666 27.8835 39.6666C26.1568 39.6666 24.7335 38.2666 24.7335 36.5166V35.8166C24.7335 34.0666 23.3335 32.6666 21.6068 32.6666C19.8802 32.6666 18.4568 34.0666 18.4568 35.8166V36.5166C18.4568 38.2666 17.0568 39.6666 15.3302 39.6666C13.5802 39.6666 12.1802 38.2666 12.1802 36.5166V35.7699C12.1802 34.0433 10.8035 32.6433 9.10017 32.6199H7.25684V30.3333C7.25684 27.1133 9.6835 24.3833 12.9735 23.5899C13.6268 23.4266 14.3035 23.3333 15.0268 23.3333H40.9735C41.6968 23.3333 42.3735 23.4266 43.0268 23.5899C46.3168 24.3833 48.7435 27.1133 48.7435 30.3333Z" fill="#FA7305"/>
<path opacity="0.4" d="M43.0265 16.7301V23.5901C42.3731 23.4267 41.6965 23.3334 40.9731 23.3334H15.0265C14.3031 23.3334 13.6265 23.4267 12.9731 23.5901V16.7301C12.9731 13.9301 15.4931 11.6667 18.6198 11.6667H37.3798C40.5065 11.6667 43.0265 13.9301 43.0265 16.7301Z" fill="#FA7305"/>
<path d="M20.4165 8.28327V11.6899H18.6198C18.0132 11.6899 17.4532 11.7599 16.9165 11.8999V8.28327C16.9165 7.4666 17.7098 6.7666 18.6665 6.7666C19.6232 6.7666 20.4165 7.4666 20.4165 8.28327Z" fill="#FA7305"/>
<path d="M39.0835 7.77002V11.9C38.5468 11.7367 37.9868 11.6667 37.3802 11.6667H35.5835V7.77002C35.5835 6.81335 36.3768 6.02002 37.3335 6.02002C38.2902 6.02002 39.0835 6.81335 39.0835 7.77002Z" fill="#FA7305"/>
<path d="M29.75 6.58008V11.6667H26.25V6.58008C26.25 5.53008 27.0433 4.66675 28 4.66675C28.9567 4.66675 29.75 5.53008 29.75 6.58008Z" fill="#FA7305"/>
<path opacity="0.4" d="M49.5832 47.8335H48.7432V32.6668H46.7132C44.9865 32.6668 43.5865 34.0668 43.5865 35.8168V36.5168C43.5865 38.2668 42.1865 39.6668 40.4365 39.6668C38.7098 39.6668 37.3098 38.2668 37.3098 36.5168V35.8168C37.3098 34.0668 35.8865 32.6668 34.1598 32.6668C32.4332 32.6668 31.0332 34.0668 31.0332 35.8168V36.5168C31.0332 38.2668 29.6098 39.6668 27.8832 39.6668C26.1565 39.6668 24.7332 38.2668 24.7332 36.5168V35.8168C24.7332 34.0668 23.3332 32.6668 21.6065 32.6668C19.8798 32.6668 18.4565 34.0668 18.4565 35.8168V36.5168C18.4565 38.2668 17.0565 39.6668 15.3298 39.6668C13.5798 39.6668 12.1798 38.2668 12.1798 36.5168V35.7701C12.1798 34.0435 10.8032 32.6435 9.09984 32.6201H7.2565V47.8335H6.4165C5.45984 47.8335 4.6665 48.6268 4.6665 49.5835C4.6665 50.5401 5.45984 51.3335 6.4165 51.3335H7.2565H48.7432H49.5832C50.5398 51.3335 51.3332 50.5401 51.3332 49.5835C51.3332 48.6268 50.5398 47.8335 49.5832 47.8335Z" fill="#FA7305"/>
</svg>
