<svg width="56" height="56" viewBox="0 0 56 56" fill="none" xmlns="http://www.w3.org/2000/svg">
<path opacity="0.4" d="M51.7534 31.8734C51.4034 28.0234 50.3767 23.9167 42.8867 23.9167H13.1134C5.62337 23.9167 4.62004 28.0234 4.2467 31.8734L2.94004 46.0834C2.7767 47.8567 3.36004 49.6301 4.57337 50.9601C5.81004 52.3134 7.56004 53.0834 9.4267 53.0834H13.8134C17.5934 53.0834 18.3167 50.9134 18.7834 49.4901L19.25 48.0901C19.7867 46.4801 19.9267 46.0834 22.0267 46.0834H33.9734C36.0734 46.0834 36.1434 46.3167 36.75 48.0901L37.2167 49.4901C37.6834 50.9134 38.4067 53.0834 42.1867 53.0834H46.5734C48.4167 53.0834 50.19 52.3134 51.4267 50.9601C52.64 49.6301 53.2234 47.8567 53.06 46.0834L51.7534 31.8734Z" fill="#FA7305"/>
<path d="M49 16.9166H46.6667C46.6433 16.9166 46.6433 16.9166 46.62 16.9166L45.7333 12.6933C44.8933 8.60994 43.1433 4.85327 36.19 4.85327H29.75H26.25H19.81C12.8567 4.85327 11.1067 8.60994 10.2667 12.6933L9.38 16.9166C9.35667 16.9166 9.35667 16.9166 9.33333 16.9166H7C6.04333 16.9166 5.25 17.7099 5.25 18.6666C5.25 19.6233 6.04333 20.4166 7 20.4166H8.65667L7.67667 25.0833C8.93667 24.3599 10.6867 23.9166 13.1133 23.9166H42.8867C45.3133 23.9166 47.0633 24.3599 48.3233 25.0833L47.3433 20.4166H49C49.9567 20.4166 50.75 19.6233 50.75 18.6666C50.75 17.7099 49.9567 16.9166 49 16.9166Z" fill="#FA7305"/>
<path d="M21 36.75H14C13.0433 36.75 12.25 35.9567 12.25 35C12.25 34.0433 13.0433 33.25 14 33.25H21C21.9567 33.25 22.75 34.0433 22.75 35C22.75 35.9567 21.9567 36.75 21 36.75Z" fill="#FA7305"/>
<path d="M42 36.75H35C34.0433 36.75 33.25 35.9567 33.25 35C33.25 34.0433 34.0433 33.25 35 33.25H42C42.9567 33.25 43.75 34.0433 43.75 35C43.75 35.9567 42.9567 36.75 42 36.75Z" fill="#FA7305"/>
</svg>
