<svg width="56" height="56" viewBox="0 0 56 56" fill="none" xmlns="http://www.w3.org/2000/svg">
<path opacity="0.4" d="M44.3334 23.9867V40.67C44.2634 47.32 42.4434 49 35.5134 49H13.4868C6.44015 49 4.66675 47.25 4.66675 40.2967V23.9867C4.66675 17.6867 6.13675 15.6567 11.6667 15.33C12.2267 15.3067 12.8335 15.2833 13.4868 15.2833H35.5134C42.56 15.2833 44.3334 17.0333 44.3334 23.9867Z" fill="#FA7305"/>
<path d="M51.3334 15.7033V32.0133C51.3334 38.3133 49.8634 40.3433 44.3334 40.67V23.9867C44.3334 17.0333 42.56 15.2833 35.5133 15.2833H13.4868C12.8335 15.2833 12.2267 15.3067 11.6667 15.33C11.7367 8.68 13.5568 7 20.4868 7H42.5134C49.56 7 51.3334 8.75 51.3334 15.7033Z" fill="#FA7305"/>
<path d="M16.24 43.3067H12.2266C11.2699 43.3067 10.4766 42.5133 10.4766 41.5567C10.4766 40.6 11.2699 39.8067 12.2266 39.8067H16.24C17.1966 39.8067 17.99 40.6 17.99 41.5567C17.99 42.5133 17.22 43.3067 16.24 43.3067Z" fill="#FA7305"/>
<path d="M29.2833 43.3067H21.2566C20.2999 43.3067 19.5066 42.5133 19.5066 41.5567C19.5066 40.6 20.2999 39.8067 21.2566 39.8067H29.2833C30.2399 39.8067 31.0333 40.6 31.0333 41.5567C31.0333 42.5133 30.2633 43.3067 29.2833 43.3067Z" fill="#FA7305"/>
<path d="M44.3334 27.6733H4.66675V31.1733H44.3334V27.6733Z" fill="#FA7305"/>
</svg>
