<!-- <svg width="30" height="27" viewBox="0 0 30 27" fill="none" xmlns="http://www.w3.org/2000/svg">
<g clipPath="url(#clip0_114_645)">
<path fill-rule="evenodd" clip-rule="evenodd" d="M4.99879 10.5H10.502H19.502H25.0052L23.1239 22.7281C23.0112 23.4598 22.3817 24 21.6413 24H8.36258C7.62223 24 6.9926 23.4598 6.88003 22.7281L4.99879 10.5ZM21.002 6V7.5H25.0052H28.502C29.3304 7.5 30.002 8.17158 30.002 9C30.002 9.82842 29.3304 10.5 28.502 10.5H28.0058C28.0055 10.6502 27.9939 10.8026 27.9702 10.9562L26.0889 23.1843C25.7513 25.3795 23.8623 27 21.6413 27H8.36258C6.14152 27 4.25264 25.3795 3.91492 23.1843L2.03368 10.9562C2.01004 10.8026 1.99844 10.6502 1.99814 10.5H1.50196C0.673526 10.5 0.00195312 9.82842 0.00195312 9C0.00195312 8.17158 0.673526 7.5 1.50196 7.5H4.99879H9.00196V6C9.00196 2.68629 11.6882 0 15.002 0C18.3156 0 21.002 2.68629 21.002 6ZM12.002 6V7.5H18.002V6C18.002 4.34314 16.6587 3 15.002 3C13.3451 3 12.002 4.34314 12.002 6ZM15.002 21C14.1735 21 13.502 20.3284 13.502 19.5V15C13.502 14.1716 14.1735 13.5 15.002 13.5C15.8304 13.5 16.502 14.1716 16.502 15V19.5C16.502 20.3284 15.8304 21 15.002 21ZM9.00196 19.5C9.00196 20.3284 9.67352 21 10.502 21C11.3304 21 12.002 20.3284 12.002 19.5V15C12.002 14.1716 11.3304 13.5 10.502 13.5C9.67352 13.5 9.00196 14.1716 9.00196 15V19.5ZM18.002 19.5C18.002 20.3284 18.6735 21 19.502 21C20.3304 21 21.002 20.3284 21.002 19.5V15C21.002 14.1716 20.3304 13.5 19.502 13.5C18.6735 13.5 18.002 14.1716 18.002 15V19.5Z" fill="#232323"/>
</g>
<defs>
<clipPath id="clip0_114_645">
<rect width="30" height="27" fill="white"/>
</clipPath>
</defs>
</svg> -->



<svg xmlns="http://www.w3.org/2000/svg" width="20" height="20" viewBox="0 0 20 20" fill="none">
<path d="M7.34162 1.66675L4.32495 4.69175" stroke="white" stroke-width="1.5" stroke-miterlimit="10" stroke-linecap="round" stroke-linejoin="round"/>
<path d="M12.6584 1.66675L15.6751 4.69175" stroke="white" stroke-width="1.5" stroke-miterlimit="10" stroke-linecap="round" stroke-linejoin="round"/>
<path d="M1.66675 6.54167C1.66675 5 2.49175 4.875 3.51675 4.875H16.4834C17.5084 4.875 18.3334 5 18.3334 6.54167C18.3334 8.33333 17.5084 8.20833 16.4834 8.20833H3.51675C2.49175 8.20833 1.66675 8.33333 1.66675 6.54167Z" stroke="white" stroke-width="1.5"/>
<path d="M8.1333 11.6667V14.6251" stroke="white" stroke-width="1.5" stroke-linecap="round"/>
<path d="M11.9666 11.6667V14.6251" stroke="white" stroke-width="1.5" stroke-linecap="round"/>
<path d="M2.91675 8.33325L4.09175 15.5333C4.35841 17.1499 5.00008 18.3333 7.38341 18.3333H12.4084C15.0001 18.3333 15.3834 17.1999 15.6834 15.6333L17.0834 8.33325" stroke="white" stroke-width="1.5" stroke-linecap="round"/>
</svg>