<svg width="24" height="22" fill="none" xmlns="http://www.w3.org/2000/svg"><path fill-rule="evenodd" clip-rule="evenodd" d="M4 8.556h16.004L18.5 18.519a1.207 1.207 0 01-1.186 1.037H6.69c-.592 0-1.096-.44-1.186-1.037L4 8.556zm12.802-3.667V6.11h6c.663 0 1.2.547 1.2 1.222 0 .675-.537 1.223-1.2 1.223h-.397c0 .122-.01.246-.028.371l-1.505 9.964C20.602 20.68 19.09 22 17.313 22H6.69c-1.776 0-3.288-1.32-3.558-3.11L1.627 8.928a2.52 2.52 0 01-.028-.371h-.397c-.663 0-1.2-.548-1.2-1.223s.537-1.222 1.2-1.222h6V4.89c0-2.7 2.149-4.889 4.8-4.889 2.65 0 4.8 2.189 4.8 4.889zm-7.2 0V6.11h4.8V4.89c0-1.35-1.075-2.445-2.4-2.445s-2.4 1.095-2.4 2.445zm2.4 12.222c-.663 0-1.2-.547-1.2-1.222v-3.667c0-.675.537-1.222 1.2-1.222.663 0 1.2.547 1.2 1.222v3.667c0 .675-.537 1.222-1.2 1.222zm-4.8-1.222c0 .675.537 1.222 1.2 1.222.663 0 1.2-.547 1.2-1.222v-3.667c0-.675-.537-1.222-1.2-1.222-.663 0-1.2.547-1.2 1.222v3.667zm7.2 0c0 .675.537 1.222 1.2 1.222.663 0 1.2-.547 1.2-1.222v-3.667c0-.675-.537-1.222-1.2-1.222-.663 0-1.2.547-1.2 1.222v3.667z" fill="currentColor"/></svg>
