<svg width="55" height="64" viewBox="0 0 55 64" fill="none" xmlns="http://www.w3.org/2000/svg">
<g clipPath="url(#clip0_332_5836)">
<path fill-rule="evenodd" clip-rule="evenodd" d="M10.0515 35.2778H19.4069H34.7069H44.0624L40.8642 56.5638C40.6727 57.8375 39.6024 58.7778 38.3438 58.7778H15.77C14.5113 58.7778 13.441 57.8375 13.2496 56.5638L10.0515 35.2778ZM37.2569 27.4444V30.0556H44.0624H50.0069C51.4153 30.0556 52.5569 31.2246 52.5569 32.6667C52.5569 34.1087 51.4153 35.2778 50.0069 35.2778H49.1634C49.1629 35.5392 49.1432 35.8044 49.103 36.0718L45.9048 57.3579C45.3307 61.1792 42.1195 64 38.3438 64H15.77C11.9941 64 8.78306 61.1792 8.20892 57.3579L5.01082 36.0718C4.97063 35.8044 4.95092 35.5392 4.95041 35.2778H4.10689C2.69856 35.2778 1.55688 34.1087 1.55688 32.6667C1.55688 31.2246 2.69856 30.0556 4.10689 30.0556H10.0515H16.8569V27.4444C16.8569 21.6761 21.4236 17 27.0569 17C32.6901 17 37.2569 21.6761 37.2569 27.4444ZM21.9569 27.4444V30.0556H32.1569V27.4444C32.1569 24.5603 29.8734 22.2222 27.0569 22.2222C24.2402 22.2222 21.9569 24.5603 21.9569 27.4444ZM27.0569 53.5556C25.6486 53.5556 24.5069 52.3866 24.5069 50.9444V43.1111C24.5069 41.669 25.6486 40.5 27.0569 40.5C28.4653 40.5 29.6069 41.669 29.6069 43.1111V50.9444C29.6069 52.3866 28.4653 53.5556 27.0569 53.5556ZM16.8569 50.9444C16.8569 52.3866 17.9986 53.5556 19.4069 53.5556C20.8152 53.5556 21.9569 52.3866 21.9569 50.9444V43.1111C21.9569 41.669 20.8152 40.5 19.4069 40.5C17.9986 40.5 16.8569 41.669 16.8569 43.1111V50.9444ZM32.1569 50.9444C32.1569 52.3866 33.2986 53.5556 34.7069 53.5556C36.1153 53.5556 37.2569 52.3866 37.2569 50.9444V43.1111C37.2569 41.669 36.1153 40.5 34.7069 40.5C33.2986 40.5 32.1569 41.669 32.1569 43.1111V50.9444Z" fill="#C91100" stroke="white"/>
<rect x="16" y="63" width="30" height="28" fill="#C4C4C4"/>
</g>
<rect x="51.5073" y="7.80078" width="4.30646" height="12.9194" rx="2.15323" transform="rotate(45 51.5073 7.80078)" fill="#C91100"/>
<rect x="25.5527" width="4" height="12" rx="2" fill="#C91100"/>
<rect y="11.7227" width="4.30646" height="12.9194" rx="2.15323" transform="rotate(-45 0 11.7227)" fill="#C91100"/>
<defs>
<clipPath id="clip0_332_5836">
<rect width="51" height="47" fill="white" transform="translate(1.55273 17)"/>
</clipPath>
</defs>
</svg>
