<svg width="42" height="42" viewBox="0 0 42 42" fill="none" xmlns="http://www.w3.org/2000/svg">
<g clipPath="url(#clip0_202_370)">
<path d="M13.5364 38.2266C17.1522 38.2266 20.7394 37.1787 23.7531 35.1962C28.4843 32.0826 31.2529 32.0217 33.5478 31.6827C38.3662 31.0889 41.9999 26.8124 41.9999 21.7354V21.53C39.9584 24.3636 36.8156 26.3843 33.0899 26.798L33.0886 26.7823C31.8409 27.0415 28.1668 26.8848 22.4012 30.6794C19.7922 32.3953 16.6667 33.3025 13.5194 33.3025C7.79295 33.3025 2.84289 30.3304 0 25.8149V27.4218C0 34.5845 6.34395 38.2266 13.5364 38.2266Z" fill="#FFF"/>
<path d="M9.84373 16.0781C9.84373 17.4348 10.9483 18.5391 12.3047 18.5391C13.6614 18.5391 14.7656 17.4348 14.7656 16.0781C14.7656 14.7214 13.6614 13.6172 12.3047 13.6172C10.9483 13.6172 9.84373 14.7214 9.84373 16.0781Z" fill="#FFF"/>
<path d="M4.18102 7.5357L7.76283 14.1879C8.50559 12.4095 10.2603 11.1563 12.3047 11.1563C12.6212 11.1563 12.9289 11.1925 13.2291 11.2498L9.53643 4.3916C7.54109 5.00716 5.7082 6.07132 4.18102 7.5357Z" fill="#FFF"/>
<path d="M30.4572 24.6596L19.0475 3.77344H13.5351C13.0333 3.77344 12.5357 3.80228 12.0435 3.85643L24.4231 26.695C26.918 25.4649 29.0246 24.9131 30.4572 24.6596Z" fill="#FFF"/>
<path d="M41.9387 12.966C41.409 8.02656 37.0518 4.15379 31.8838 3.83496L40.3571 19.5721C41.5635 17.6646 42.1976 15.3773 41.9387 12.966Z" fill="#FFF"/>
<path d="M0.302806 20.207C1.54673 26.1809 6.97328 31.0152 13.9193 30.8127L2.46926 9.5481C0.318507 12.6143 -0.482578 16.4397 0.302806 20.207Z" fill="#FFF"/>
<path d="M38.6684 21.6277L29.0553 3.77344H21.9247L33.0592 24.3008C35.2384 24.0053 37.1598 23.0347 38.6684 21.6277Z" fill="#FFF"/>
<path d="M21.048 28.6231C21.4697 28.3456 21.8635 28.1222 22.2663 27.881L16.8468 17.968C16.1044 19.7464 14.3493 21 12.3047 21C11.9884 21 11.6804 20.9638 11.3805 20.9067L16.5305 30.471C18.0981 30.1163 19.6875 29.5181 21.048 28.6231Z" fill="#FFF"/>
</g>
<defs>
<clipPath id="clip0_202_370">
<rect width="42" height="42" fill="white"/>
</clipPath>
</defs>
</svg>
