<svg width="42" height="42" viewBox="0 0 42 42" fill="none" xmlns="http://www.w3.org/2000/svg">
<g clipPath="url(#clip0_202_390)">
<path d="M16.2103 15.4542C15.8889 15.8934 15.7337 16.4156 15.7616 16.9645C15.7983 17.6899 16.1853 18.3715 16.7968 18.7878C17.8849 19.5287 18.8781 20.3237 19.7695 21.1654H19.7397V26.3137H22.2006V21.1654H19.7695V9.65244H22.2305V21.1654C23.1218 20.3237 24.1151 19.5286 25.2032 18.7878C25.3344 18.6984 25.4547 18.5961 25.564 18.4845C25.6711 18.326 25.7878 18.1737 25.9143 18.0285C26.105 17.7063 26.2194 17.3415 26.2385 16.9645C26.2664 16.4156 26.1112 15.8933 25.7898 15.4542C25.0293 14.4149 25.0346 12.9964 25.8033 11.9245C26.0901 11.5246 26.2417 11.0516 26.2417 10.557C26.2417 10.2422 26.1788 9.93864 26.0638 9.65924C26.0232 9.58172 25.9857 9.50232 25.9501 9.42193C25.7272 9.0171 25.3859 8.67938 24.9548 8.45995C23.8938 7.91985 23.2623 6.80054 23.3458 5.6083C23.3497 5.5526 23.3517 5.49616 23.3517 5.44029C23.3517 4.14354 22.2967 3.08862 21 3.08862C19.7032 3.08862 18.6483 4.14354 18.6483 5.44029C18.6483 5.49616 18.6503 5.5526 18.6542 5.60813C18.7378 6.80045 18.1062 7.91985 17.0452 8.45995C16.2515 8.86403 15.7584 9.66753 15.7584 10.557C15.7584 11.0516 15.91 11.5246 16.1968 11.9245C16.9654 12.9964 16.9708 14.4148 16.2103 15.4542Z" fill="white"/>
<path d="M28.2854 8.59009C28.416 8.80895 28.5987 8.99368 28.8225 9.12863C29.1823 9.34568 29.6062 9.40925 30.0161 9.30795C30.426 9.20656 30.7712 8.9525 30.9883 8.59272C31.4376 7.84787 31.1971 6.87638 30.4522 6.42709C30.2042 6.27747 29.9257 6.20068 29.6423 6.20068C29.5146 6.20068 29.386 6.21627 29.2587 6.24777C28.8488 6.34916 28.5035 6.60321 28.2864 6.963C28.0694 7.32279 28.0058 7.74664 28.1072 8.15647C28.1235 8.22259 28.1453 8.28625 28.1694 8.34875C28.2103 8.42808 28.2489 8.50855 28.2854 8.59009Z" fill="white"/>
<path d="M25.8007 5.78034C25.7907 5.92283 25.8431 6.06163 25.9364 6.16277C26.0069 6.00207 26.0872 5.84457 26.1792 5.69191C26.7358 4.76923 27.6195 4.11823 28.6675 3.85893C29.7157 3.59954 30.8007 3.76328 31.7233 4.31986C33.6301 5.47002 34.2457 7.95704 33.0954 9.86386C32.3379 11.1197 31.0002 11.8154 29.6307 11.8155C29.2769 11.8155 28.9211 11.769 28.5725 11.6739C28.4296 12.2762 28.1704 12.8464 27.803 13.3586C27.6558 13.564 27.6448 13.822 27.7756 14.0009C28.2998 14.7171 28.6135 15.5695 28.6858 16.452C28.7251 16.4448 28.7643 16.4372 28.804 16.431C29.0229 16.3971 29.1975 16.2068 29.2386 15.9576C29.4028 14.9612 29.8679 14.0562 30.5837 13.3405C31.8214 12.1028 33.6032 11.6403 35.2781 12.1077C35.4391 11.8976 35.5901 11.679 35.7272 11.4516C37.7528 8.09354 36.6689 3.71365 33.3108 1.68805C30.5839 0.0428317 27.1194 0.440355 24.8331 2.53445C25.4472 3.34254 25.8126 4.34939 25.8126 5.44032C25.8126 5.55328 25.8086 5.66771 25.8007 5.78034Z" fill="white"/>
<path d="M34.7167 14.5077C33.8696 14.2321 32.9529 14.4517 32.3239 15.0806C31.9741 15.4304 31.7469 15.872 31.6669 16.3577C31.4524 17.6591 30.4533 18.6659 29.1805 18.863C28.6728 18.9416 28.2188 19.1791 27.8594 19.5484C27.7563 19.6993 27.6447 19.8444 27.5249 19.9833C27.2365 20.4718 27.1293 21.0621 27.2381 21.6349C27.4836 22.9277 27.6241 24.193 27.6594 25.4177L35.7998 17.2773L37.5399 19.0175L30.2437 26.3137H35.7391C35.844 26.101 35.9176 25.8731 35.9542 25.6367C36.1513 24.3639 37.1582 23.3648 38.4595 23.1504C38.9452 23.0703 39.3868 22.8432 39.7366 22.4934C40.3655 21.8644 40.5851 20.9475 40.3095 20.1006C39.9412 18.9686 40.286 17.7304 41.1882 16.9464C41.2304 16.9098 41.2716 16.8714 41.3109 16.8321C42.228 15.9149 42.228 14.4229 41.3111 13.506C40.3943 12.5893 38.9024 12.589 37.9854 13.506C37.946 13.5454 37.9073 13.5869 37.8706 13.6292C37.0868 14.531 35.8489 14.876 34.7167 14.5077Z" fill="white"/>
<path d="M15.562 26.3137C15.6791 25.7988 15.7393 25.2711 15.7393 24.7361C15.7393 20.8145 12.5487 17.624 8.62706 17.624C4.70539 17.624 1.51495 20.8145 1.51495 24.7361C1.51495 25.2711 1.57508 25.7988 1.69222 26.3137H4.90965C4.7031 25.8288 4.58858 25.2956 4.58858 24.7361C4.58858 22.5093 6.40024 20.6977 8.62706 20.6977C10.8539 20.6977 12.6656 22.5093 12.6656 24.7361C12.6656 25.2956 12.5511 25.8288 12.3446 26.3137H15.562Z" fill="white"/>
<path d="M0 28.7744H42V32.2761H0V28.7744Z" fill="white"/>
<path d="M0.811547 7.57722C1.71389 8.36135 2.05875 9.59945 1.69035 10.7316C1.4148 11.5785 1.6344 12.4953 2.26334 13.1243C2.61312 13.4741 3.05461 13.7013 3.54032 13.7813C4.59409 13.955 5.45468 14.6433 5.84859 15.5746C6.7283 15.3073 7.66099 15.163 8.62691 15.163C9.12271 15.163 9.60973 15.2009 10.0854 15.2739L4.46013 9.64834L6.20026 7.90821L13.5618 15.2698C13.7174 14.818 13.94 14.3893 14.2244 14.0007C14.3552 13.8218 14.3442 13.5638 14.197 13.3585C13.6086 12.5379 13.2975 11.5691 13.2975 10.5568C13.2975 10.2505 13.3267 9.94948 13.3819 9.65622C13.2029 9.5796 13.0145 9.52398 12.8196 9.49379C11.5468 9.29675 10.5477 8.2899 10.3332 6.98848C10.2532 6.50285 10.026 6.0612 9.67625 5.71142C9.04732 5.08248 8.13062 4.86297 7.28348 5.13851C6.15154 5.50683 4.91319 5.16181 4.1293 4.25979C4.0928 4.21779 4.05408 4.1762 4.01438 4.13658C3.09768 3.22004 1.60577 3.22004 0.688746 4.13691C-0.228117 5.05385 -0.228117 6.54575 0.688746 7.4627C0.728449 7.5024 0.769793 7.54088 0.811547 7.57722Z" fill="white"/>
<path d="M6.69056 41.3296H35.3095C38.9658 41.3296 41.9446 38.3811 41.9976 34.7373H0.00247192C0.0554641 38.3811 3.03426 41.3296 6.69056 41.3296Z" fill="white"/>
<path d="M7.04953 24.7362C7.04953 25.6061 7.75721 26.3138 8.62707 26.3138C9.49693 26.3138 10.2047 25.6061 10.2047 24.7362C10.2047 23.8664 9.49701 23.1587 8.62707 23.1587C7.75713 23.1587 7.04953 23.8663 7.04953 24.7362Z" fill="white"/>
</g>
<defs>
<clipPath id="clip0_202_390">
<rect width="42" height="42" fill="white"/>
</clipPath>
</defs>
</svg>
