<svg width="42" height="42" viewBox="0 0 42 42" fill="none" xmlns="http://www.w3.org/2000/svg">
<g clipPath="url(#clip0_202_379)">
<path d="M27.1154 31.3909H27.1146C26.3288 31.3909 25.5839 31.2088 24.9211 30.8848H0V31.6993C0 36.2291 3.68566 39.9148 8.21543 39.9148H33.7846C38.3143 39.9148 42 36.2291 42 31.6993V30.8848H29.3081C28.6453 31.2088 27.9013 31.3909 27.1154 31.3909Z" fill="white"/>
<path d="M14.8354 26.1721C13.7566 27.2393 12.408 28.0244 10.92 28.4239H18.7515C17.2627 28.0244 15.9141 27.2393 14.8354 26.1721Z" fill="white"/>
<path d="M32.1251 22.3567V26.0809C34.8856 26.541 37.9312 25.1788 39.1281 22.3567H32.1251Z" fill="white"/>
<path d="M22.1041 26.1621V22.3567H15.175C16.2816 25.0607 19.2343 26.6697 22.1041 26.1621Z" fill="white"/>
<path d="M13.3317 24.1917C13.0033 23.618 12.7529 22.9919 12.5729 22.3567H2.84566C3.79067 24.6445 6.04652 26.2589 8.67152 26.2589C10.4877 26.2589 12.1652 25.4698 13.3317 24.1917Z" fill="white"/>
<path d="M39.6285 17.1348H2.37152C2.37152 17.1348 2.37152 19.9386 2.37234 19.9591H24.5651V26.3797C24.5651 27.7681 25.7241 28.9309 27.1154 28.93C28.5069 28.93 29.6641 27.7662 29.6641 26.3797V19.8959H39.6285V17.1348Z" fill="white"/>
<path d="M41.7613 12.2128C41.283 9.78876 40.1002 7.55997 38.3127 5.77251C35.9346 3.39442 32.7739 2.08521 29.4115 2.08521H12.5885C6.48867 2.08521 1.38879 6.44517 0.241172 12.2128C0.0828516 13.0085 0 13.8321 0 14.6737H42C42 13.8378 41.9188 13.015 41.7613 12.2128ZM12.1357 10.8396H9.67477V8.37864H12.1357V10.8396ZM22.2305 8.38028H19.7695V5.91935H22.2305V8.38028ZM32.3252 10.8396H29.8643V8.37864H32.3252V10.8396Z" fill="white"/>
<path d="M39.6285 25.9768C38.4809 27.1663 36.9994 28.0325 35.3374 28.4238H39.6285V25.9768Z" fill="white"/>
<path d="M2.37152 26.04V28.4239H6.41156C4.85133 28.008 3.4609 27.1696 2.37152 26.04Z" fill="white"/>
</g>
<defs>
<clipPath id="clip0_202_379">
<rect width="42" height="42" fill="white"/>
</clipPath>
</defs>
</svg>
