<svg width="305" height="228" viewBox="0 0 305 228" fill="none" xmlns="http://www.w3.org/2000/svg">
<mask id="path-1-inside-1_332_8217" fill="white">
<path d="M227.843 197.418L227.796 198.067C227.184 206.202 223.518 213.805 217.534 219.354C211.549 224.902 203.688 227.985 195.525 227.985C187.362 227.985 179.501 224.902 173.516 219.354C167.532 213.805 163.866 206.202 163.254 198.067L163.203 197.418H162.553L83.6435 197.451C83.2703 197.451 82.9015 197.37 82.5627 197.213C82.2239 197.057 81.9231 196.829 81.681 196.545L79.2934 193.743L78.1673 192.412L78.0598 194.149C77.7982 198.352 76.7702 201.583 75.8964 203.218C75.6409 203.724 75.2857 204.173 74.8521 204.538C74.4184 204.903 73.9154 205.177 73.3733 205.343C72.905 205.473 72.415 205.508 71.9331 205.443C71.4512 205.379 70.9874 205.218 70.5697 204.969L64.2524 201.233L64.0515 202.167C63.0165 207.207 60.7936 211.928 57.5673 215.937C54.341 219.947 50.2044 223.129 45.5008 225.221C40.7972 227.313 35.6623 228.253 30.5222 227.964C25.3821 227.675 20.3852 226.165 15.9461 223.559C11.5071 220.953 7.75388 217.327 4.99811 212.981C2.24234 208.635 0.563416 203.695 0.100769 198.57C-0.361877 193.446 0.40509 188.285 2.33795 183.517C4.27081 178.748 7.31384 174.509 11.2145 171.151L11.9574 170.511L6.35037 167.2C5.88425 166.928 5.48389 166.556 5.17783 166.111C4.87177 165.666 4.66748 165.16 4.57947 164.627C4.48859 164.056 4.52524 163.472 4.6868 162.916C4.84836 162.361 5.13083 161.848 5.51398 161.414C13.3592 152.369 25.933 148.222 40.0067 150.03L41.9037 150.272L40.6141 148.871L39.6796 147.872C39.3267 147.492 39.0976 147.014 39.0225 146.502C38.9474 145.989 39.0299 145.465 39.259 145L60.0332 102.319L50.4171 104.252C49.7943 104.358 49.1563 104.333 48.5438 104.179C47.9312 104.024 47.3575 103.745 46.8591 103.357C46.3607 102.969 45.9485 102.482 45.6488 101.926C45.3492 101.37 45.1685 100.758 45.1184 100.129L42.2915 73.4458C42.2216 72.7801 42.4159 72.1135 42.8327 71.5895C43.2496 71.0655 43.8556 70.726 44.5203 70.644C56.2858 69.0703 76.8403 72.6193 86.0218 77.756L86.2461 77.8821L86.4984 77.8307C90.5121 77.0509 94.7548 76.2057 98.647 75.3044C98.9973 75.2387 99.3289 75.0972 99.6187 74.8899C99.9084 74.6826 100.149 74.4145 100.324 74.1043C101.619 71.4799 102.843 68.9676 104.062 66.4459L104.1 66.3759C106.366 61.7061 108.716 56.9243 111.482 51.4327C113.132 48.1639 115.221 44.4281 118.024 41.5328L118.818 40.7156L117.734 40.3748C113.522 39.0706 109.839 36.4502 107.228 32.8988C104.616 29.3474 103.214 25.0524 103.226 20.6451V19.8046L95.1333 19.2862C94.7958 19.2641 94.466 19.1758 94.1626 19.0264C93.8593 18.8769 93.5884 18.6692 93.3654 18.4151C93.1423 18.161 92.9716 17.8655 92.8628 17.5454C92.7541 17.2254 92.7095 16.887 92.7316 16.5497C92.7537 16.2125 92.842 15.8828 92.9916 15.5797C93.1411 15.2765 93.349 15.0058 93.6032 14.7829C93.8575 14.56 94.1532 14.3893 94.4734 14.2807C94.7937 14.172 95.1322 14.1274 95.4697 14.1495L104.072 14.7145L104.24 14.2009C105.233 11.1749 106.912 8.41915 109.146 6.14882C111.381 3.87848 114.11 2.15498 117.121 1.11287C120.132 0.070753 123.343 -0.26177 126.504 0.141257C129.664 0.544284 132.689 1.67195 135.342 3.43623C137.995 5.20051 140.203 7.55364 141.796 10.3119C143.388 13.0702 144.321 16.159 144.522 19.3372C144.723 22.5153 144.186 25.6968 142.953 28.6333C141.72 31.5698 139.825 34.1818 137.415 36.2654L136.574 36.9985L137.602 37.4375C142.139 39.3801 145.891 43.4801 150.148 51.1385C156.007 61.6688 163.82 81.6272 166.576 103.229C167.296 110.08 166.675 115.586 164.707 119.574L164.212 120.582H179.622L179.407 119.714C179.246 119.082 179.163 118.432 179.16 117.78V60.2912C179.16 58.1858 179.996 56.1665 181.486 54.6778C182.976 53.189 184.996 52.3526 187.103 52.3526H244.655C246.761 52.3526 248.782 53.189 250.271 54.6778C251.761 56.1665 252.598 58.1858 252.598 60.2912V91.9193H267.083C267.439 91.889 267.797 91.9328 268.135 92.0481C268.473 92.1634 268.783 92.3476 269.047 92.589C269.31 92.8305 269.52 93.1239 269.663 93.4508C269.807 93.7776 269.881 94.1307 269.881 94.4877C269.881 94.8447 269.807 95.1978 269.663 95.5246C269.52 95.8514 269.31 96.1449 269.047 96.3863C268.783 96.6278 268.473 96.812 268.135 96.9273C267.797 97.0425 267.439 97.0864 267.083 97.056H252.598V104.677H302.426C303.07 104.732 303.669 105.026 304.106 105.502C304.543 105.978 304.786 106.6 304.786 107.245C304.786 107.891 304.543 108.513 304.106 108.989C303.669 109.464 303.07 109.759 302.426 109.814H252.607V117.752C252.607 119.858 251.77 121.877 250.281 123.366C248.791 124.854 246.771 125.691 244.664 125.691H218.787L218.815 126.419C218.838 126.926 218.803 127.433 218.713 127.932L216.853 137.851C216.241 141.12 213.554 143.483 210.461 143.483H208.125L210.779 153.116L211.115 153.242C217.741 155.717 223.731 160.046 228.871 166.112L229.076 166.36H273.811C274.167 166.329 274.525 166.373 274.863 166.488C275.202 166.604 275.512 166.788 275.775 167.029C276.038 167.271 276.248 167.564 276.392 167.891C276.536 168.218 276.61 168.571 276.61 168.928C276.61 169.285 276.536 169.638 276.392 169.965C276.248 170.292 276.038 170.585 275.775 170.827C275.512 171.068 275.202 171.252 274.863 171.368C274.525 171.483 274.167 171.527 273.811 171.496H232.926L233.599 172.566C234.834 174.554 235.951 176.612 236.945 178.73L237.136 179.131H294.23C294.874 179.186 295.474 179.481 295.911 179.956C296.348 180.432 296.59 181.054 296.59 181.7C296.59 182.345 296.348 182.968 295.911 183.443C295.474 183.919 294.874 184.213 294.23 184.268H239.281L239.589 185.202C240.355 187.453 240.968 189.752 241.426 192.085C241.553 192.731 241.535 193.397 241.373 194.035C241.211 194.673 240.91 195.267 240.491 195.774C240.068 196.288 239.535 196.702 238.933 196.985C238.33 197.268 237.672 197.415 237.006 197.413L227.843 197.418ZM168.427 198.203C169.066 204.943 172.198 211.204 177.209 215.76C182.221 220.316 188.752 222.841 195.527 222.841C202.302 222.841 208.834 220.316 213.846 215.76C218.857 211.204 221.989 204.943 222.628 198.203L222.698 197.437H210.779L210.685 198.03C210.122 201.651 208.282 204.952 205.497 207.336C202.712 209.72 199.166 211.03 195.499 211.03C191.832 211.03 188.286 209.72 185.502 207.336C182.717 204.952 180.877 201.651 180.314 198.03L180.22 197.437H168.329L168.427 198.203ZM205.615 197.423H185.435L185.678 198.305C186.262 200.468 187.544 202.379 189.324 203.741C191.104 205.103 193.283 205.842 195.525 205.842C197.767 205.842 199.947 205.103 201.727 203.741C203.507 202.379 204.788 200.468 205.372 198.305L205.615 197.423ZM5.16354 195.644C5.21481 202.543 7.88699 209.165 12.6392 214.169C17.3914 219.174 23.8687 222.187 30.7599 222.599C37.6512 223.011 44.4416 220.791 49.7567 216.388C55.0719 211.985 58.5147 205.728 59.3884 198.884L59.4444 198.417L47.165 191.231L47.4594 192.753C48.0209 195.654 47.733 198.655 46.6302 201.397C45.5274 204.138 43.6566 206.503 41.2421 208.209C38.8277 209.914 35.9722 210.886 33.0183 211.01C30.0644 211.134 27.1375 210.403 24.5889 208.905C22.0403 207.408 19.9782 205.207 18.6501 202.567C17.3219 199.927 16.784 196.961 17.101 194.023C17.418 191.085 18.5764 188.301 20.4372 186.005C22.298 183.709 24.7822 181.999 27.5917 181.079L29.0682 180.612L16.7795 173.388L16.4057 173.654C12.9091 176.154 10.0628 179.456 8.10519 183.282C6.14761 187.108 5.13571 191.347 5.15417 195.644H5.16354ZM42.5952 195.644C42.5952 193.624 41.9961 191.651 40.8735 189.972C39.751 188.293 38.1555 186.985 36.2888 186.212C34.4221 185.44 32.3682 185.238 30.3867 185.632C28.4052 186.026 26.5852 186.999 25.1569 188.427C23.7286 189.855 22.7562 191.674 22.3626 193.655C21.969 195.635 22.1719 197.688 22.9457 199.553C23.7195 201.418 25.0294 203.012 26.7098 204.134C28.3901 205.255 30.3654 205.853 32.3857 205.852C35.0883 205.841 37.6765 204.76 39.5844 202.848C41.4923 200.935 42.5648 198.345 42.5672 195.644H42.5952ZM11.1117 162.997L10.4388 163.637L71.8407 199.734L72.0836 198.856C73.0509 195.396 73.5415 189.657 71.7426 184.847L71.7005 184.735L71.6211 184.642C63.7572 175.349 55.4587 165.575 47.9873 157.09L47.7817 156.852H47.5622C27.6151 151.01 16.1534 158.188 11.1023 162.997H11.1117ZM74.8077 78.8581C66.4906 76.4812 55.8933 75.1223 48.4359 75.4445L47.6883 75.4772L50.1881 99.036L62.804 96.505C63.3945 96.3971 64.0034 96.4538 64.5639 96.6688C65.1244 96.8837 65.6149 97.2487 65.9816 97.7237C66.3483 98.1987 66.5772 98.7655 66.6431 99.3618C66.7089 99.9582 66.6093 100.561 66.3551 101.105L66.3271 101.17L44.6652 145.668L44.9829 146.023C55.099 157.132 68.4811 172.967 78.2561 184.534L78.8822 185.277C80.9708 187.747 82.9099 190.04 84.6341 192.071L84.8443 192.319H85.1667L152.484 192.291L152.437 191.544C151.423 176.376 155.147 165.024 163.502 157.805C172.478 150.053 187.192 147.653 203.868 151.23L204.994 151.473L202.807 143.483H140.321L140.821 144.491C143.382 149.698 148.765 162.839 143.349 172.281C139.976 178.165 133.271 181.153 123.416 181.153H116.72C116.602 181.163 116.483 181.163 116.365 181.153H96.7687C83.0921 181.153 71.7566 165.874 67.827 156.24C63.6777 146.074 71.3734 118.187 78.5224 101.964L78.9102 101.077L77.9477 100.983C73.6489 100.558 69.752 96.7805 68.6914 91.966C68.161 89.7887 68.3597 87.4976 69.2568 85.4438C70.1539 83.39 71.7 81.6868 73.6583 80.5952C73.8743 80.4693 74.1071 80.375 74.3498 80.315L77.3683 79.6006L74.8077 78.8581ZM125.659 133.027L125.972 131.981L124.888 132.135C121.79 132.569 118.262 133.069 115.622 133.625C115.199 133.708 114.822 133.945 114.563 134.29C114.304 134.635 114.182 135.063 114.221 135.493C114.576 140.382 114.875 145.038 115.155 149.539C115.459 154.274 115.777 159.173 116.118 163.628V163.833L116.239 163.997C118.262 166.579 119.664 171.151 119.692 175.307V175.998H123.43C131.299 175.998 136.513 173.887 138.892 169.717C143.162 162.269 138.139 149.815 134.883 144.272C134.812 144.146 134.756 144.02 134.696 143.894L134.513 143.483H127.785C127.124 143.482 126.488 143.228 126.009 142.773C125.53 142.317 125.244 141.696 125.21 141.036L125.159 140.102C125.019 137.996 124.879 135.581 125.654 133.004L125.659 133.027ZM99.4273 109.874C103.633 108.632 110.314 107.241 117.407 105.77C122.019 104.812 126.752 103.832 131.28 102.8L131.953 102.646L131.808 101.969C130.439 95.7298 126.533 85.6665 123.603 78.9468L123.024 77.6159L122.341 78.8954C121.547 80.3851 120.86 81.8327 120.127 83.3644L120.099 83.4251C118.885 86.1021 117.51 88.7032 115.982 91.2142C115.426 92.0907 114.699 92.846 113.844 93.435C112.989 94.0239 112.023 94.4344 111.006 94.6418C103.801 96.0894 93.6754 98.0647 85.6574 99.6244L85.321 99.6898L85.1667 99.998C77.5692 114.969 68.9203 145.257 72.6163 154.312C74.6704 159.092 77.5135 163.493 81.0269 167.331L81.5876 167.947L82.1717 167.186C82.2464 167.088 82.3165 166.99 82.4006 166.897C84.1528 164.903 87.1292 163.628 91.2784 163.058L91.9606 162.969L91.8812 162.283C90.9981 154.877 90.0122 146.326 89.4094 139.037C89.3393 138.21 89.2646 137.379 89.1898 136.548L89.1524 136.184C88.2086 126.074 87.0451 113.526 99.4227 109.851L99.4273 109.874ZM86.2882 170.296C86.0634 170.55 85.9031 170.855 85.8209 171.183L85.6994 171.65L86.0779 171.931C89.7412 174.653 93.3484 176.031 96.7967 176.031H114.608V175.312C114.548 173.089 113.884 169.811 112.739 167.84L112.534 167.48H112.118C109.478 167.55 106.927 167.606 104.586 167.662H104.184C100.357 167.756 97.0584 167.831 94.9417 167.905C88.8254 168.111 86.8489 169.628 86.2835 170.273L86.2882 170.296ZM138.686 15.9707C137.738 12.9915 135.912 10.3678 133.448 8.44295C130.983 6.51812 127.994 5.38192 124.872 5.18308C121.751 4.98424 118.642 5.73205 115.953 7.32859C113.263 8.92513 111.119 11.296 109.8 14.1308L109.37 15.0648L138.994 16.956L138.686 15.9707ZM139.251 22.8866L139.359 22.1348L108.347 20.1548V20.916C108.406 24.82 109.934 28.5585 112.628 31.386C115.323 34.2134 118.985 35.9218 122.883 36.1705C126.782 36.4192 130.632 35.1899 133.664 32.7277C136.696 30.2655 138.688 26.7515 139.242 22.8866H139.251ZM158.913 89.6405C155.895 76.5886 150.942 63.1351 145.662 53.6461C138.892 41.4675 133.803 40.1646 126.776 42.0232C122.201 43.228 119.188 47.5942 116.062 53.7769C113.258 59.3152 110.828 64.3118 108.679 68.7201C107.445 71.2464 106.212 73.7681 104.918 76.3924C104.407 77.39 103.682 78.2617 102.793 78.9442C101.904 79.6267 100.874 80.1029 99.7778 80.3384C95.1052 81.4218 89.9655 82.4164 85.4518 83.2896C81.8539 83.9854 78.471 84.6392 76.1067 85.1949L75.9805 85.2276L75.8731 85.2976C74.976 85.8746 74.2854 86.7214 73.9008 87.7159C73.5161 88.7104 73.4574 89.8013 73.7331 90.8313C74.2704 93.2409 76.0693 95.3142 78.0178 95.7625L78.1626 95.7952L80.6063 95.3282C89.4281 93.6144 101.516 91.2609 109.987 89.5611C110.321 89.4939 110.637 89.3595 110.916 89.166C111.196 88.9725 111.433 88.724 111.613 88.4357C113.042 86.1004 114.326 83.6801 115.459 81.1883C116.865 78.0637 118.494 75.044 120.332 72.1523C120.675 71.6396 121.146 71.2257 121.698 70.952C122.251 70.6782 122.866 70.5543 123.482 70.5926C124.097 70.6357 124.69 70.8418 125.199 71.1898C125.708 71.5378 126.115 72.0151 126.379 72.5726C129.707 79.7185 132.614 87.0532 135.083 94.5391L135.27 95.1321L135.882 95.0154C138.303 94.5484 140.943 93.988 143.732 93.395C148.209 92.461 153.278 91.3823 158.348 90.4857L159.077 90.3596L158.913 89.6405ZM161.474 103.832C161.152 101.301 160.745 98.6951 160.264 96.1034L160.133 95.4216L159.451 95.543C154.353 96.435 149.059 97.5557 144.802 98.4523C142.172 99.008 139.663 99.5357 137.378 99.9886L136.672 100.129L136.831 100.829C137.004 101.623 137.144 102.352 137.242 102.996C137.383 103.97 137.155 104.961 136.601 105.775C136.048 106.589 135.21 107.167 134.252 107.395C129.112 108.6 123.701 109.73 118.482 110.804C111.473 112.256 104.876 113.606 100.895 114.806C92.5681 117.281 93.3624 125.817 94.2782 135.703C94.367 136.669 94.4557 137.641 94.5352 138.607C95.152 146.004 96.194 155.031 97.035 162.063L97.1098 162.699H97.7499C99.6189 162.647 101.922 162.591 104.441 162.535L110.156 162.395H110.889L110.838 161.662C110.562 157.884 110.296 153.812 110.043 149.875V149.609C109.758 145.196 109.464 140.629 109.109 135.871C108.986 134.198 109.477 132.537 110.49 131.199C111.503 129.861 112.968 128.937 114.613 128.6C118.258 127.862 123.444 127.153 128.93 126.401C137.294 125.252 146.746 123.954 153.839 122.198C158.171 121.082 162.969 118.033 161.469 103.832H161.474ZM219.965 57.4893H211.802V66.4272H219.965V57.4893ZM244.655 120.596C245.398 120.596 246.111 120.301 246.637 119.776C247.163 119.25 247.458 118.537 247.458 117.794V109.856H231.74C231.384 109.886 231.025 109.842 230.687 109.727C230.349 109.612 230.039 109.428 229.776 109.186C229.513 108.945 229.303 108.651 229.159 108.324C229.015 107.998 228.941 107.644 228.941 107.287C228.941 106.93 229.015 106.577 229.159 106.251C229.303 105.924 229.513 105.63 229.776 105.389C230.039 105.147 230.349 104.963 230.687 104.848C231.025 104.733 231.384 104.689 231.74 104.719H247.453V97.07H219.441C218.798 97.0151 218.198 96.7208 217.761 96.2452C217.324 95.7696 217.082 95.1474 217.082 94.5017C217.082 93.856 217.324 93.2338 217.761 92.7582C218.198 92.2826 218.798 91.9882 219.441 91.9333H247.453V60.2912C247.453 59.5481 247.158 58.8354 246.632 58.31C246.106 57.7845 245.393 57.4893 244.65 57.4893H225.114V69.0049C225.113 69.6878 224.84 70.3422 224.357 70.8246C223.873 71.307 223.218 71.5779 222.535 71.5779H209.223C208.539 71.5779 207.884 71.307 207.4 70.8246C206.917 70.3422 206.645 69.6878 206.643 69.0049V57.4893H187.108C186.364 57.4893 185.651 57.7845 185.125 58.31C184.599 58.8354 184.304 59.5481 184.304 60.2912V117.794C184.304 118.537 184.599 119.25 185.125 119.776C185.651 120.301 186.364 120.596 187.108 120.596H244.655ZM210.466 138.341C211.068 138.341 211.638 137.729 211.793 136.917L213.638 127.05C213.698 126.731 213.645 126.4 213.489 126.116L213.283 125.77H159.773C159.601 125.769 159.429 125.752 159.259 125.719L159.016 125.668L158.797 125.784C157.612 126.4 156.357 126.871 155.059 127.185C148.424 128.82 139.868 130.066 132.369 131.103L131.864 131.173L131.775 131.677C131.723 131.979 131.617 132.268 131.462 132.532C130.554 134.087 130.114 135.87 130.196 137.669V138.365L210.466 138.341ZM236.01 191.408C235.462 189.133 234.753 186.9 233.889 184.726L233.716 184.282H211.891C211.535 184.312 211.176 184.269 210.838 184.153C210.5 184.038 210.19 183.854 209.927 183.612C209.664 183.371 209.454 183.077 209.31 182.751C209.166 182.424 209.092 182.071 209.092 181.714C209.092 181.357 209.166 181.004 209.31 180.677C209.454 180.35 209.664 180.057 209.927 179.815C210.19 179.574 210.5 179.389 210.838 179.274C211.176 179.159 211.535 179.115 211.891 179.145H231.338L230.768 178.109C229.565 175.918 228.215 173.812 226.726 171.805L226.516 171.524H197.948C197.592 171.555 197.234 171.511 196.896 171.396C196.557 171.28 196.247 171.096 195.984 170.855C195.721 170.613 195.511 170.32 195.367 169.993C195.223 169.666 195.149 169.313 195.149 168.956C195.149 168.599 195.223 168.246 195.367 167.919C195.511 167.592 195.721 167.299 195.984 167.057C196.247 166.816 196.557 166.632 196.896 166.516C197.234 166.401 197.592 166.357 197.948 166.388H222.067L220.722 165.164C216.598 161.339 211.606 158.571 206.176 157.1C189.598 152.78 175.267 154.466 166.861 161.732C159.722 167.901 156.605 177.973 157.596 191.67L157.643 192.319H236.207L236.01 191.408Z"/>
</mask>
<path d="M227.843 197.418L227.796 198.067C227.184 206.202 223.518 213.805 217.534 219.354C211.549 224.902 203.688 227.985 195.525 227.985C187.362 227.985 179.501 224.902 173.516 219.354C167.532 213.805 163.866 206.202 163.254 198.067L163.203 197.418H162.553L83.6435 197.451C83.2703 197.451 82.9015 197.37 82.5627 197.213C82.2239 197.057 81.9231 196.829 81.681 196.545L79.2934 193.743L78.1673 192.412L78.0598 194.149C77.7982 198.352 76.7702 201.583 75.8964 203.218C75.6409 203.724 75.2857 204.173 74.8521 204.538C74.4184 204.903 73.9154 205.177 73.3733 205.343C72.905 205.473 72.415 205.508 71.9331 205.443C71.4512 205.379 70.9874 205.218 70.5697 204.969L64.2524 201.233L64.0515 202.167C63.0165 207.207 60.7936 211.928 57.5673 215.937C54.341 219.947 50.2044 223.129 45.5008 225.221C40.7972 227.313 35.6623 228.253 30.5222 227.964C25.3821 227.675 20.3852 226.165 15.9461 223.559C11.5071 220.953 7.75388 217.327 4.99811 212.981C2.24234 208.635 0.563416 203.695 0.100769 198.57C-0.361877 193.446 0.40509 188.285 2.33795 183.517C4.27081 178.748 7.31384 174.509 11.2145 171.151L11.9574 170.511L6.35037 167.2C5.88425 166.928 5.48389 166.556 5.17783 166.111C4.87177 165.666 4.66748 165.16 4.57947 164.627C4.48859 164.056 4.52524 163.472 4.6868 162.916C4.84836 162.361 5.13083 161.848 5.51398 161.414C13.3592 152.369 25.933 148.222 40.0067 150.03L41.9037 150.272L40.6141 148.871L39.6796 147.872C39.3267 147.492 39.0976 147.014 39.0225 146.502C38.9474 145.989 39.0299 145.465 39.259 145L60.0332 102.319L50.4171 104.252C49.7943 104.358 49.1563 104.333 48.5438 104.179C47.9312 104.024 47.3575 103.745 46.8591 103.357C46.3607 102.969 45.9485 102.482 45.6488 101.926C45.3492 101.37 45.1685 100.758 45.1184 100.129L42.2915 73.4458C42.2216 72.7801 42.4159 72.1135 42.8327 71.5895C43.2496 71.0655 43.8556 70.726 44.5203 70.644C56.2858 69.0703 76.8403 72.6193 86.0218 77.756L86.2461 77.8821L86.4984 77.8307C90.5121 77.0509 94.7548 76.2057 98.647 75.3044C98.9973 75.2387 99.3289 75.0972 99.6187 74.8899C99.9084 74.6826 100.149 74.4145 100.324 74.1043C101.619 71.4799 102.843 68.9676 104.062 66.4459L104.1 66.3759C106.366 61.7061 108.716 56.9243 111.482 51.4327C113.132 48.1639 115.221 44.4281 118.024 41.5328L118.818 40.7156L117.734 40.3748C113.522 39.0706 109.839 36.4502 107.228 32.8988C104.616 29.3474 103.214 25.0524 103.226 20.6451V19.8046L95.1333 19.2862C94.7958 19.2641 94.466 19.1758 94.1626 19.0264C93.8593 18.8769 93.5884 18.6692 93.3654 18.4151C93.1423 18.161 92.9716 17.8655 92.8628 17.5454C92.7541 17.2254 92.7095 16.887 92.7316 16.5497C92.7537 16.2125 92.842 15.8828 92.9916 15.5797C93.1411 15.2765 93.349 15.0058 93.6032 14.7829C93.8575 14.56 94.1532 14.3893 94.4734 14.2807C94.7937 14.172 95.1322 14.1274 95.4697 14.1495L104.072 14.7145L104.24 14.2009C105.233 11.1749 106.912 8.41915 109.146 6.14882C111.381 3.87848 114.11 2.15498 117.121 1.11287C120.132 0.070753 123.343 -0.26177 126.504 0.141257C129.664 0.544284 132.689 1.67195 135.342 3.43623C137.995 5.20051 140.203 7.55364 141.796 10.3119C143.388 13.0702 144.321 16.159 144.522 19.3372C144.723 22.5153 144.186 25.6968 142.953 28.6333C141.72 31.5698 139.825 34.1818 137.415 36.2654L136.574 36.9985L137.602 37.4375C142.139 39.3801 145.891 43.4801 150.148 51.1385C156.007 61.6688 163.82 81.6272 166.576 103.229C167.296 110.08 166.675 115.586 164.707 119.574L164.212 120.582H179.622L179.407 119.714C179.246 119.082 179.163 118.432 179.16 117.78V60.2912C179.16 58.1858 179.996 56.1665 181.486 54.6778C182.976 53.189 184.996 52.3526 187.103 52.3526H244.655C246.761 52.3526 248.782 53.189 250.271 54.6778C251.761 56.1665 252.598 58.1858 252.598 60.2912V91.9193H267.083C267.439 91.889 267.797 91.9328 268.135 92.0481C268.473 92.1634 268.783 92.3476 269.047 92.589C269.31 92.8305 269.52 93.1239 269.663 93.4508C269.807 93.7776 269.881 94.1307 269.881 94.4877C269.881 94.8447 269.807 95.1978 269.663 95.5246C269.52 95.8514 269.31 96.1449 269.047 96.3863C268.783 96.6278 268.473 96.812 268.135 96.9273C267.797 97.0425 267.439 97.0864 267.083 97.056H252.598V104.677H302.426C303.07 104.732 303.669 105.026 304.106 105.502C304.543 105.978 304.786 106.6 304.786 107.245C304.786 107.891 304.543 108.513 304.106 108.989C303.669 109.464 303.07 109.759 302.426 109.814H252.607V117.752C252.607 119.858 251.77 121.877 250.281 123.366C248.791 124.854 246.771 125.691 244.664 125.691H218.787L218.815 126.419C218.838 126.926 218.803 127.433 218.713 127.932L216.853 137.851C216.241 141.12 213.554 143.483 210.461 143.483H208.125L210.779 153.116L211.115 153.242C217.741 155.717 223.731 160.046 228.871 166.112L229.076 166.36H273.811C274.167 166.329 274.525 166.373 274.863 166.488C275.202 166.604 275.512 166.788 275.775 167.029C276.038 167.271 276.248 167.564 276.392 167.891C276.536 168.218 276.61 168.571 276.61 168.928C276.61 169.285 276.536 169.638 276.392 169.965C276.248 170.292 276.038 170.585 275.775 170.827C275.512 171.068 275.202 171.252 274.863 171.368C274.525 171.483 274.167 171.527 273.811 171.496H232.926L233.599 172.566C234.834 174.554 235.951 176.612 236.945 178.73L237.136 179.131H294.23C294.874 179.186 295.474 179.481 295.911 179.956C296.348 180.432 296.59 181.054 296.59 181.7C296.59 182.345 296.348 182.968 295.911 183.443C295.474 183.919 294.874 184.213 294.23 184.268H239.281L239.589 185.202C240.355 187.453 240.968 189.752 241.426 192.085C241.553 192.731 241.535 193.397 241.373 194.035C241.211 194.673 240.91 195.267 240.491 195.774C240.068 196.288 239.535 196.702 238.933 196.985C238.33 197.268 237.672 197.415 237.006 197.413L227.843 197.418ZM168.427 198.203C169.066 204.943 172.198 211.204 177.209 215.76C182.221 220.316 188.752 222.841 195.527 222.841C202.302 222.841 208.834 220.316 213.846 215.76C218.857 211.204 221.989 204.943 222.628 198.203L222.698 197.437H210.779L210.685 198.03C210.122 201.651 208.282 204.952 205.497 207.336C202.712 209.72 199.166 211.03 195.499 211.03C191.832 211.03 188.286 209.72 185.502 207.336C182.717 204.952 180.877 201.651 180.314 198.03L180.22 197.437H168.329L168.427 198.203ZM205.615 197.423H185.435L185.678 198.305C186.262 200.468 187.544 202.379 189.324 203.741C191.104 205.103 193.283 205.842 195.525 205.842C197.767 205.842 199.947 205.103 201.727 203.741C203.507 202.379 204.788 200.468 205.372 198.305L205.615 197.423ZM5.16354 195.644C5.21481 202.543 7.88699 209.165 12.6392 214.169C17.3914 219.174 23.8687 222.187 30.7599 222.599C37.6512 223.011 44.4416 220.791 49.7567 216.388C55.0719 211.985 58.5147 205.728 59.3884 198.884L59.4444 198.417L47.165 191.231L47.4594 192.753C48.0209 195.654 47.733 198.655 46.6302 201.397C45.5274 204.138 43.6566 206.503 41.2421 208.209C38.8277 209.914 35.9722 210.886 33.0183 211.01C30.0644 211.134 27.1375 210.403 24.5889 208.905C22.0403 207.408 19.9782 205.207 18.6501 202.567C17.3219 199.927 16.784 196.961 17.101 194.023C17.418 191.085 18.5764 188.301 20.4372 186.005C22.298 183.709 24.7822 181.999 27.5917 181.079L29.0682 180.612L16.7795 173.388L16.4057 173.654C12.9091 176.154 10.0628 179.456 8.10519 183.282C6.14761 187.108 5.13571 191.347 5.15417 195.644H5.16354ZM42.5952 195.644C42.5952 193.624 41.9961 191.651 40.8735 189.972C39.751 188.293 38.1555 186.985 36.2888 186.212C34.4221 185.44 32.3682 185.238 30.3867 185.632C28.4052 186.026 26.5852 186.999 25.1569 188.427C23.7286 189.855 22.7562 191.674 22.3626 193.655C21.969 195.635 22.1719 197.688 22.9457 199.553C23.7195 201.418 25.0294 203.012 26.7098 204.134C28.3901 205.255 30.3654 205.853 32.3857 205.852C35.0883 205.841 37.6765 204.76 39.5844 202.848C41.4923 200.935 42.5648 198.345 42.5672 195.644H42.5952ZM11.1117 162.997L10.4388 163.637L71.8407 199.734L72.0836 198.856C73.0509 195.396 73.5415 189.657 71.7426 184.847L71.7005 184.735L71.6211 184.642C63.7572 175.349 55.4587 165.575 47.9873 157.09L47.7817 156.852H47.5622C27.6151 151.01 16.1534 158.188 11.1023 162.997H11.1117ZM74.8077 78.8581C66.4906 76.4812 55.8933 75.1223 48.4359 75.4445L47.6883 75.4772L50.1881 99.036L62.804 96.505C63.3945 96.3971 64.0034 96.4538 64.5639 96.6688C65.1244 96.8837 65.6149 97.2487 65.9816 97.7237C66.3483 98.1987 66.5772 98.7655 66.6431 99.3618C66.7089 99.9582 66.6093 100.561 66.3551 101.105L66.3271 101.17L44.6652 145.668L44.9829 146.023C55.099 157.132 68.4811 172.967 78.2561 184.534L78.8822 185.277C80.9708 187.747 82.9099 190.04 84.6341 192.071L84.8443 192.319H85.1667L152.484 192.291L152.437 191.544C151.423 176.376 155.147 165.024 163.502 157.805C172.478 150.053 187.192 147.653 203.868 151.23L204.994 151.473L202.807 143.483H140.321L140.821 144.491C143.382 149.698 148.765 162.839 143.349 172.281C139.976 178.165 133.271 181.153 123.416 181.153H116.72C116.602 181.163 116.483 181.163 116.365 181.153H96.7687C83.0921 181.153 71.7566 165.874 67.827 156.24C63.6777 146.074 71.3734 118.187 78.5224 101.964L78.9102 101.077L77.9477 100.983C73.6489 100.558 69.752 96.7805 68.6914 91.966C68.161 89.7887 68.3597 87.4976 69.2568 85.4438C70.1539 83.39 71.7 81.6868 73.6583 80.5952C73.8743 80.4693 74.1071 80.375 74.3498 80.315L77.3683 79.6006L74.8077 78.8581ZM125.659 133.027L125.972 131.981L124.888 132.135C121.79 132.569 118.262 133.069 115.622 133.625C115.199 133.708 114.822 133.945 114.563 134.29C114.304 134.635 114.182 135.063 114.221 135.493C114.576 140.382 114.875 145.038 115.155 149.539C115.459 154.274 115.777 159.173 116.118 163.628V163.833L116.239 163.997C118.262 166.579 119.664 171.151 119.692 175.307V175.998H123.43C131.299 175.998 136.513 173.887 138.892 169.717C143.162 162.269 138.139 149.815 134.883 144.272C134.812 144.146 134.756 144.02 134.696 143.894L134.513 143.483H127.785C127.124 143.482 126.488 143.228 126.009 142.773C125.53 142.317 125.244 141.696 125.21 141.036L125.159 140.102C125.019 137.996 124.879 135.581 125.654 133.004L125.659 133.027ZM99.4273 109.874C103.633 108.632 110.314 107.241 117.407 105.77C122.019 104.812 126.752 103.832 131.28 102.8L131.953 102.646L131.808 101.969C130.439 95.7298 126.533 85.6665 123.603 78.9468L123.024 77.6159L122.341 78.8954C121.547 80.3851 120.86 81.8327 120.127 83.3644L120.099 83.4251C118.885 86.1021 117.51 88.7032 115.982 91.2142C115.426 92.0907 114.699 92.846 113.844 93.435C112.989 94.0239 112.023 94.4344 111.006 94.6418C103.801 96.0894 93.6754 98.0647 85.6574 99.6244L85.321 99.6898L85.1667 99.998C77.5692 114.969 68.9203 145.257 72.6163 154.312C74.6704 159.092 77.5135 163.493 81.0269 167.331L81.5876 167.947L82.1717 167.186C82.2464 167.088 82.3165 166.99 82.4006 166.897C84.1528 164.903 87.1292 163.628 91.2784 163.058L91.9606 162.969L91.8812 162.283C90.9981 154.877 90.0122 146.326 89.4094 139.037C89.3393 138.21 89.2646 137.379 89.1898 136.548L89.1524 136.184C88.2086 126.074 87.0451 113.526 99.4227 109.851L99.4273 109.874ZM86.2882 170.296C86.0634 170.55 85.9031 170.855 85.8209 171.183L85.6994 171.65L86.0779 171.931C89.7412 174.653 93.3484 176.031 96.7967 176.031H114.608V175.312C114.548 173.089 113.884 169.811 112.739 167.84L112.534 167.48H112.118C109.478 167.55 106.927 167.606 104.586 167.662H104.184C100.357 167.756 97.0584 167.831 94.9417 167.905C88.8254 168.111 86.8489 169.628 86.2835 170.273L86.2882 170.296ZM138.686 15.9707C137.738 12.9915 135.912 10.3678 133.448 8.44295C130.983 6.51812 127.994 5.38192 124.872 5.18308C121.751 4.98424 118.642 5.73205 115.953 7.32859C113.263 8.92513 111.119 11.296 109.8 14.1308L109.37 15.0648L138.994 16.956L138.686 15.9707ZM139.251 22.8866L139.359 22.1348L108.347 20.1548V20.916C108.406 24.82 109.934 28.5585 112.628 31.386C115.323 34.2134 118.985 35.9218 122.883 36.1705C126.782 36.4192 130.632 35.1899 133.664 32.7277C136.696 30.2655 138.688 26.7515 139.242 22.8866H139.251ZM158.913 89.6405C155.895 76.5886 150.942 63.1351 145.662 53.6461C138.892 41.4675 133.803 40.1646 126.776 42.0232C122.201 43.228 119.188 47.5942 116.062 53.7769C113.258 59.3152 110.828 64.3118 108.679 68.7201C107.445 71.2464 106.212 73.7681 104.918 76.3924C104.407 77.39 103.682 78.2617 102.793 78.9442C101.904 79.6267 100.874 80.1029 99.7778 80.3384C95.1052 81.4218 89.9655 82.4164 85.4518 83.2896C81.8539 83.9854 78.471 84.6392 76.1067 85.1949L75.9805 85.2276L75.8731 85.2976C74.976 85.8746 74.2854 86.7214 73.9008 87.7159C73.5161 88.7104 73.4574 89.8013 73.7331 90.8313C74.2704 93.2409 76.0693 95.3142 78.0178 95.7625L78.1626 95.7952L80.6063 95.3282C89.4281 93.6144 101.516 91.2609 109.987 89.5611C110.321 89.4939 110.637 89.3595 110.916 89.166C111.196 88.9725 111.433 88.724 111.613 88.4357C113.042 86.1004 114.326 83.6801 115.459 81.1883C116.865 78.0637 118.494 75.044 120.332 72.1523C120.675 71.6396 121.146 71.2257 121.698 70.952C122.251 70.6782 122.866 70.5543 123.482 70.5926C124.097 70.6357 124.69 70.8418 125.199 71.1898C125.708 71.5378 126.115 72.0151 126.379 72.5726C129.707 79.7185 132.614 87.0532 135.083 94.5391L135.27 95.1321L135.882 95.0154C138.303 94.5484 140.943 93.988 143.732 93.395C148.209 92.461 153.278 91.3823 158.348 90.4857L159.077 90.3596L158.913 89.6405ZM161.474 103.832C161.152 101.301 160.745 98.6951 160.264 96.1034L160.133 95.4216L159.451 95.543C154.353 96.435 149.059 97.5557 144.802 98.4523C142.172 99.008 139.663 99.5357 137.378 99.9886L136.672 100.129L136.831 100.829C137.004 101.623 137.144 102.352 137.242 102.996C137.383 103.97 137.155 104.961 136.601 105.775C136.048 106.589 135.21 107.167 134.252 107.395C129.112 108.6 123.701 109.73 118.482 110.804C111.473 112.256 104.876 113.606 100.895 114.806C92.5681 117.281 93.3624 125.817 94.2782 135.703C94.367 136.669 94.4557 137.641 94.5352 138.607C95.152 146.004 96.194 155.031 97.035 162.063L97.1098 162.699H97.7499C99.6189 162.647 101.922 162.591 104.441 162.535L110.156 162.395H110.889L110.838 161.662C110.562 157.884 110.296 153.812 110.043 149.875V149.609C109.758 145.196 109.464 140.629 109.109 135.871C108.986 134.198 109.477 132.537 110.49 131.199C111.503 129.861 112.968 128.937 114.613 128.6C118.258 127.862 123.444 127.153 128.93 126.401C137.294 125.252 146.746 123.954 153.839 122.198C158.171 121.082 162.969 118.033 161.469 103.832H161.474ZM219.965 57.4893H211.802V66.4272H219.965V57.4893ZM244.655 120.596C245.398 120.596 246.111 120.301 246.637 119.776C247.163 119.25 247.458 118.537 247.458 117.794V109.856H231.74C231.384 109.886 231.025 109.842 230.687 109.727C230.349 109.612 230.039 109.428 229.776 109.186C229.513 108.945 229.303 108.651 229.159 108.324C229.015 107.998 228.941 107.644 228.941 107.287C228.941 106.93 229.015 106.577 229.159 106.251C229.303 105.924 229.513 105.63 229.776 105.389C230.039 105.147 230.349 104.963 230.687 104.848C231.025 104.733 231.384 104.689 231.74 104.719H247.453V97.07H219.441C218.798 97.0151 218.198 96.7208 217.761 96.2452C217.324 95.7696 217.082 95.1474 217.082 94.5017C217.082 93.856 217.324 93.2338 217.761 92.7582C218.198 92.2826 218.798 91.9882 219.441 91.9333H247.453V60.2912C247.453 59.5481 247.158 58.8354 246.632 58.31C246.106 57.7845 245.393 57.4893 244.65 57.4893H225.114V69.0049C225.113 69.6878 224.84 70.3422 224.357 70.8246C223.873 71.307 223.218 71.5779 222.535 71.5779H209.223C208.539 71.5779 207.884 71.307 207.4 70.8246C206.917 70.3422 206.645 69.6878 206.643 69.0049V57.4893H187.108C186.364 57.4893 185.651 57.7845 185.125 58.31C184.599 58.8354 184.304 59.5481 184.304 60.2912V117.794C184.304 118.537 184.599 119.25 185.125 119.776C185.651 120.301 186.364 120.596 187.108 120.596H244.655ZM210.466 138.341C211.068 138.341 211.638 137.729 211.793 136.917L213.638 127.05C213.698 126.731 213.645 126.4 213.489 126.116L213.283 125.77H159.773C159.601 125.769 159.429 125.752 159.259 125.719L159.016 125.668L158.797 125.784C157.612 126.4 156.357 126.871 155.059 127.185C148.424 128.82 139.868 130.066 132.369 131.103L131.864 131.173L131.775 131.677C131.723 131.979 131.617 132.268 131.462 132.532C130.554 134.087 130.114 135.87 130.196 137.669V138.365L210.466 138.341ZM236.01 191.408C235.462 189.133 234.753 186.9 233.889 184.726L233.716 184.282H211.891C211.535 184.312 211.176 184.269 210.838 184.153C210.5 184.038 210.19 183.854 209.927 183.612C209.664 183.371 209.454 183.077 209.31 182.751C209.166 182.424 209.092 182.071 209.092 181.714C209.092 181.357 209.166 181.004 209.31 180.677C209.454 180.35 209.664 180.057 209.927 179.815C210.19 179.574 210.5 179.389 210.838 179.274C211.176 179.159 211.535 179.115 211.891 179.145H231.338L230.768 178.109C229.565 175.918 228.215 173.812 226.726 171.805L226.516 171.524H197.948C197.592 171.555 197.234 171.511 196.896 171.396C196.557 171.28 196.247 171.096 195.984 170.855C195.721 170.613 195.511 170.32 195.367 169.993C195.223 169.666 195.149 169.313 195.149 168.956C195.149 168.599 195.223 168.246 195.367 167.919C195.511 167.592 195.721 167.299 195.984 167.057C196.247 166.816 196.557 166.632 196.896 166.516C197.234 166.401 197.592 166.357 197.948 166.388H222.067L220.722 165.164C216.598 161.339 211.606 158.571 206.176 157.1C189.598 152.78 175.267 154.466 166.861 161.732C159.722 167.901 156.605 177.973 157.596 191.67L157.643 192.319H236.207L236.01 191.408Z" fill="url(#paint0_linear_332_8217)" stroke="white" mask="url(#path-1-inside-1_332_8217)"/>
<defs>
<linearGradient id="paint0_linear_332_8217" x1="80.4095" y1="38.7696" x2="272.413" y2="228.243" gradientUnits="userSpaceOnUse">
<stop stop-color="#fa7305"/>
<stop offset="1" stop-color="#fa7305"/>
</linearGradient>
</defs>
</svg>
