<svg width="18" height="18" viewBox="0 0 18 18" fill="none" xmlns="http://www.w3.org/2000/svg">
<g clipPath="url(#clip0_4187_22967)">
<path d="M17.9859 8.3662C17.9525 7.2837 17.6692 6.26278 17.2306 5.2841C16.6885 4.07177 15.8811 2.99664 14.8681 2.13803C13.5208 0.986318 11.9707 0.281287 10.2134 0.042253C10.0299 0.0173033 9.84242 0.0309859 9.65892 0H9.5889C9.56516 0.0253521 9.53418 0.0156934 9.50561 0.0181079C9.47703 0.0205224 9.46094 0.0181079 9.43841 0.0181079C9.39495 0.0112669 9.34746 0.0338028 9.30762 0H8.67544C8.6352 0.0338028 8.58853 0.0112669 8.54507 0.0181079C8.52253 0.0181079 8.5 0.0181079 8.47746 0.0181079C8.45493 0.0181079 8.41791 0.0253521 8.39457 0H8.28914C8.03602 0.037827 7.77889 0.0293757 7.52457 0.0736413C5.38055 0.44735 3.59227 1.45339 2.15971 3.09175C1.05068 4.36579 0.365384 5.84386 0.0768593 7.50905C0.0342044 7.75573 0.0410453 8.00724 0 8.25392V8.39437C0.0253515 8.41771 0.0156938 8.44869 0.0181082 8.47726C0.0205227 8.50583 0.0181082 8.52233 0.0181082 8.54447C0.0112674 8.58793 0.033802 8.63541 0 8.67525V9.30744C0.033802 9.34768 0.0112674 9.39477 0.0181082 9.43823V9.50543C0.0156938 9.534 0.0253515 9.56499 0 9.58873V9.72917C0.0426549 10.099 0.0603607 10.4712 0.141244 10.837C0.581073 12.8286 1.56576 14.4966 3.10375 15.8358C3.96631 16.5881 4.96724 17.1651 6.05056 17.5344C6.80507 17.7936 7.5797 17.9702 8.38451 17.9871C9.0863 18.002 9.78769 18.0254 10.4822 17.9042C12.6206 17.5308 14.4029 16.5247 15.829 14.8861C16.8829 13.6765 17.5521 12.2765 17.8668 10.7062C18.0213 9.9328 18.01 9.1501 17.9859 8.3662ZM8.98489 16.0165C5.11819 16.0121 1.95689 12.8414 1.96816 8.97626C1.97943 5.11107 5.13951 1.96217 8.99817 1.96781C12.8649 1.97183 16.0262 5.14326 16.0165 9.01006C16.0069 12.8769 12.8444 16.0209 8.98489 16.0165Z" fill="#6A893E"/>
<path d="M8.25088 7.26425C8.25088 6.58014 8.24646 5.89604 8.2529 5.21193C8.25455 5.05282 8.30719 4.89843 8.40309 4.77145C8.49899 4.64448 8.63309 4.55161 8.78568 4.5065C8.93793 4.46117 9.10051 4.46423 9.25094 4.51527C9.40138 4.5663 9.53226 4.66279 9.6255 4.79141C9.7414 4.94996 9.76916 5.12984 9.76876 5.32179C9.76635 6.49161 9.76876 7.66184 9.76514 8.83206C9.76228 8.88613 9.77144 8.94016 9.79197 8.99026C9.81249 9.04036 9.84387 9.08528 9.88385 9.1218C10.7023 9.93307 11.518 10.7473 12.3309 11.5645C12.6713 11.9061 12.6995 12.3347 12.4114 12.6618C12.2856 12.8028 12.1116 12.8915 11.9236 12.9105C11.7356 12.9294 11.5474 12.8771 11.3961 12.7641C11.3362 12.7175 11.2797 12.6666 11.2271 12.6119C10.337 11.723 9.45046 10.8309 8.55671 9.94595C8.34827 9.73951 8.24525 9.50731 8.24887 9.21315C8.25611 8.56405 8.25129 7.91455 8.25129 7.26506L8.25088 7.26425Z" fill="#6A893E"/>
</g>
<defs>
<clipPath id="clip0_4187_22967">
<rect width="18" height="18" fill="white"/>
</clipPath>
</defs>
</svg>
