<svg width="24" height="24" viewBox="0 0 24 24" fill="none" xmlns="http://www.w3.org/2000/svg">
<g clipPath="url(#clip0_332_3919)">
<path d="M11.9882 0.001131C5.33442 0.0345391 -0.0284668 5.42211 0.000175231 12.0437C0.0288173 18.6313 5.44694 24.0284 12.0026 24.0004C13.5853 23.9988 15.1522 23.6844 16.613 23.0755C18.0739 22.4665 19.4001 21.575 20.5152 20.4521C21.6304 19.3292 22.5127 17.997 23.1113 16.5322C23.71 15.0673 24.0132 13.4986 24.0036 11.9162C23.9777 5.35871 18.5432 -0.0322771 11.9882 0.001131ZM12.0421 21.8187C6.55307 21.7989 2.15378 17.4088 2.18584 11.9756C2.21789 6.54231 6.62876 2.16652 12.051 2.18971C17.4841 2.21289 21.8377 6.62958 21.8166 12.0969C21.7954 17.4204 17.3573 21.8344 12.0421 21.8187Z" fill="#E6DCD0"/>
<path d="M15.3065 16.3477C15.141 16.3499 14.9768 16.3173 14.8248 16.2519C14.6727 16.1864 14.5362 16.0897 14.4241 15.9679C13.6739 15.2125 12.9149 14.4646 12.1695 13.7044C12.0331 13.568 11.9649 13.568 11.8333 13.7044C11.0695 14.4821 10.2987 15.2534 9.52082 16.0184C8.89683 16.6286 7.91004 16.3845 7.67954 15.5684C7.5602 15.1389 7.68363 14.7659 8.00142 14.4509C8.76316 13.6941 9.51672 12.9298 10.2832 12.1778C10.4237 12.0414 10.4305 11.9664 10.2832 11.8246C9.51036 11.0669 8.74453 10.3024 7.98574 9.53106C7.36039 8.89221 7.63931 7.88724 8.49107 7.6827C8.90842 7.58315 9.25963 7.72088 9.55765 8.0195C10.3037 8.76948 11.0579 9.50719 11.7944 10.2654C11.9649 10.4406 12.0502 10.4126 12.2036 10.2558C12.949 9.4956 13.7039 8.74494 14.4602 7.99428C14.7678 7.68815 15.136 7.57565 15.5595 7.70042C15.7508 7.75023 15.9239 7.85374 16.0583 7.99871C16.1926 8.14369 16.2827 8.32408 16.3179 8.51858C16.4072 8.92766 16.2715 9.26856 15.9769 9.56174C15.2165 10.3199 14.4623 11.0835 13.6951 11.8349C13.5587 11.9712 13.5655 12.0394 13.6991 12.1703C14.472 12.9289 15.2376 13.6937 15.996 14.4646C16.624 15.1061 16.354 16.1009 15.5022 16.3163C15.4376 16.3301 15.3722 16.3406 15.3065 16.3477Z" fill="#E6DCD0"/>
</g>
<defs>
<clipPath id="clip0_332_3919">
<rect width="24" height="24" fill="white"/>
</clipPath>
</defs>
</svg>
