<svg width="56" height="56" viewBox="0 0 56 56" fill="none" xmlns="http://www.w3.org/2000/svg">
<path d="M6.32332 39.7133L10.3833 31.5933C11.5033 29.33 11.5033 26.6933 10.3833 24.43L6.32332 16.2867C2.84666 9.33333 10.3367 1.98333 17.22 5.62333L20.8133 7.53666C21.3267 7.79333 21.7233 8.21333 21.9333 8.72666L35.21 38.2433C35.7467 39.4567 35.2567 40.88 34.09 41.4867L17.1967 50.3767C10.3367 54.0167 2.84666 46.6667 6.32332 39.7133Z" fill="#FA7305"/>
<path opacity="0.4" d="M38.0566 36.4L29.3533 17.08C28.3733 14.91 30.7066 12.7167 32.8066 13.8367L46.27 20.93C51.9866 23.94 51.9866 32.1067 46.27 35.1167L41.51 37.6133C40.2266 38.2667 38.6633 37.73 38.0566 36.4Z" fill="#FA7305"/>
</svg>
