<svg xmlns="http://www.w3.org/2000/svg" width="36" height="36" viewBox="0 0 36 36" fill="none">
    <g clip-path="url(#clip0_212_1443)">
        <path d="M22.4746 26.6934C23.0571 26.6934 23.5293 26.2212 23.5293 25.6387C23.5293 25.0562 23.0571 24.584 22.4746 24.584C21.8921 24.584 21.4199 25.0562 21.4199 25.6387C21.4199 26.2212 21.8921 26.6934 22.4746 26.6934Z" fill="#C91100"/>
        <path d="M13.5254 17.744C14.1079 17.744 14.5801 17.2718 14.5801 16.6893C14.5801 16.1068 14.1079 15.6346 13.5254 15.6346C12.9429 15.6346 12.4707 16.1068 12.4707 16.6893C12.4707 17.2718 12.9429 17.744 13.5254 17.744Z" fill="#C91100"/>
        <path d="M31.4103 11.585L30.9137 10.8058L30.076 11.1955C29.824 11.3126 28.7555 11.68 28.1329 11.336C27.7875 11.1451 27.5676 10.694 27.4792 9.99516C27.0097 6.28485 24.4079 5.14614 24.2975 5.09945L23.6815 4.8395L21.9715 6.37112C21.5191 6.77647 20.9765 6.93931 20.443 6.82998C19.8193 6.70208 19.2723 6.22248 18.9423 5.51422C18.232 3.98957 17.7316 2.48361 17.455 1.0382L17.258 0.00854492L16.2272 0.199303C16.1509 0.213435 14.3371 0.560146 12.4173 1.86768C10.6327 3.08324 8.40108 5.38857 7.9046 9.46845C7.79709 10.3518 7.36643 11.126 6.7526 11.5396C6.45244 11.7417 5.9696 11.9491 5.37581 11.7886L4.58726 11.5756L4.18366 12.2858C2.8267 14.6739 2.10938 17.3805 2.10938 20.1128C2.10938 24.3573 3.76228 28.3478 6.76357 31.3492C9.765 34.3505 13.7554 36.0034 18 36.0034C22.2446 36.0034 26.235 34.3505 29.2364 31.3492C32.2377 28.3478 33.8906 24.3573 33.8906 20.1128C33.8906 17.0806 33.033 14.1319 31.4103 11.585ZM16.6894 16.6928C16.6894 18.4374 15.27 19.8568 13.5253 19.8568C11.7806 19.8568 10.3612 18.4374 10.3612 16.6928C10.3612 14.9481 11.7806 13.5287 13.5253 13.5287C15.27 13.5287 16.6894 14.9481 16.6894 16.6928ZM23.8383 13.8377L25.3298 15.3292L12.1617 28.4973L10.6702 27.0057L23.8383 13.8377ZM22.4747 22.4781C24.2194 22.4781 25.6388 23.8975 25.6388 25.6421C25.6388 27.3868 24.2194 28.8062 22.4747 28.8062C20.73 28.8062 19.3106 27.3868 19.3106 25.6421C19.3106 23.8975 20.73 22.4781 22.4747 22.4781Z" fill="#C91100"/>
        <path d="M4.21875 4.21875H6.32812V6.32812H4.21875V4.21875Z" fill="#C91100"/>
        <path d="M23.3438 0H25.4531V2.10938H23.3438V0Z" fill="#C91100"/>
        <path d="M27.5625 2.10938H29.6719V4.21875H27.5625V2.10938Z" fill="#C91100"/>
    </g>
    <defs>
        <clipPath id="clip0_212_1443">
            <rect width="36" height="36" fill="white"/>
        </clipPath>
    </defs>
</svg>
