<svg width="60" height="48" viewBox="0 0 60 48" fill="none" xmlns="http://www.w3.org/2000/svg">
<g clipPath="url(#clip0_332_1894)">
<path d="M59.8997 12.9526C59.4808 15.5065 58.074 17.3018 55.7669 18.3717C55.3996 18.5424 55.3058 18.7226 55.3074 19.105C55.3178 27.6928 55.3178 36.2796 55.3074 44.8652C55.3074 46.2354 54.4805 47.2358 53.2488 47.3939C52.9246 47.4318 52.5961 47.4008 52.2843 47.303C51.9726 47.2051 51.6845 47.0426 51.4385 46.8257C51.1925 46.6088 50.994 46.3423 50.8557 46.0434C50.7174 45.7444 50.6424 45.4196 50.6354 45.0897C50.6119 43.9644 50.6354 42.8392 50.6354 41.714C50.6354 34.2335 50.639 26.753 50.6463 19.2726C50.6463 18.7842 50.5385 18.5503 50.0633 18.3243C47.4483 17.0395 46.0228 14.8981 45.9634 11.9491C45.9008 8.7883 45.943 5.62754 45.9509 2.46678C45.9509 1.07288 46.9684 0.0329871 48.2955 0.0314068C49.6225 0.0298264 50.6401 1.06814 50.6401 2.45888C50.651 5.59909 50.6401 8.73773 50.6401 11.8764C50.6522 12.4565 50.8743 13.012 51.2644 13.4377C51.6545 13.8633 52.1855 14.1295 52.7567 14.1858C53.3279 14.2421 53.8997 14.0846 54.3638 13.7431C54.8278 13.4017 55.1519 12.9 55.2746 12.3331C55.3161 12.0804 55.3318 11.8241 55.3215 11.5682C55.3215 8.58759 55.3215 5.60647 55.3215 2.62481C55.3215 1.24988 56.0639 0.281109 57.2722 0.0582754C58.446 -0.159817 59.473 0.532388 59.9388 1.83462C59.9569 1.8685 59.9807 1.89897 60.0091 1.92471V12.3552C59.8575 12.5291 60.0138 12.763 59.8997 12.9526Z" fill="#9B3D30"/>
<path d="M0 12.3398C0.168812 12.52 0.146926 12.7318 0.104723 12.9483C0.0714073 12.9352 0.035636 12.9298 0 12.9325V12.3398Z" fill="#4D4D4D"/>
<path d="M59.8972 12.9532C59.863 12.8511 59.8545 12.742 59.8725 12.6357C59.8905 12.5295 59.9345 12.4295 60.0003 12.3447V12.9374C59.9663 12.945 59.9319 12.9502 59.8972 12.9532Z" fill="#5A5A5A"/>
<path d="M14.0598 7.04814C14.0489 3.47648 11.4292 0.568576 7.82473 0.0596929C4.57667 -0.400198 1.24265 1.84553 0.289173 5.13114C0.198515 5.44722 0.201633 5.78384 0.0078125 6.06357V12.3393C0.148489 12.5242 -0.00312212 12.7596 0.112545 12.9477C0.515817 15.4842 1.92101 17.2622 4.18902 18.34C4.59855 18.5359 4.70485 18.7288 4.70485 19.157C4.69234 27.2486 4.68921 35.3407 4.69546 43.4333C4.69546 44.0054 4.67826 44.5791 4.69546 45.1496C4.71092 45.5103 4.80808 45.8625 4.97945 46.1792C5.15082 46.4959 5.39183 46.7686 5.6839 46.9763C5.97597 47.1839 6.3113 47.321 6.66404 47.377C7.01679 47.4329 7.37753 47.4062 7.71845 47.2989C8.77508 46.9718 9.3753 46.0741 9.3753 44.8019C9.3753 36.2562 9.3753 27.7106 9.3753 19.1649C9.3753 18.7398 9.47377 18.5328 9.88486 18.3447C12.1857 17.2637 13.6175 15.4526 13.9692 12.8956C14.2302 10.9628 14.0598 8.99992 14.0598 7.04814ZM9.37061 11.8557C9.39229 12.1788 9.34827 12.503 9.24122 12.8083C9.13417 13.1136 8.96639 13.3935 8.74822 13.6306C8.53005 13.8678 8.26611 14.0573 7.97271 14.1873C7.67932 14.3173 7.3627 14.3852 7.04235 14.3867C6.72201 14.3882 6.40474 14.3234 6.11016 14.1961C5.81557 14.0688 5.54991 13.8819 5.32956 13.6468C5.1092 13.4117 4.93885 13.1334 4.82898 12.8292C4.71912 12.5249 4.67208 12.2011 4.69078 11.8778C4.67411 10.2974 4.67411 8.71703 4.69078 7.13664C4.66969 6.81343 4.71433 6.48927 4.82196 6.18418C4.92959 5.87909 5.09792 5.59954 5.31656 5.36278C5.53521 5.12602 5.79953 4.93708 6.0932 4.80761C6.38686 4.67815 6.70367 4.6109 7.02403 4.61004C7.3444 4.60917 7.66154 4.6747 7.95589 4.80258C8.25023 4.93046 8.51555 5.11797 8.73544 5.35354C8.95533 5.58912 9.12513 5.86775 9.23437 6.17226C9.34361 6.47676 9.38999 6.80068 9.37061 7.124C9.38624 7.9142 9.37061 8.70439 9.37061 9.49458C9.37061 10.2848 9.3878 11.075 9.37061 11.8557Z" fill="#9B3D30"/>
<path d="M30.0169 14.2363C26.7695 14.2326 23.594 15.203 20.8922 17.0247C18.1905 18.8464 16.084 21.4376 14.8393 24.4702C13.5946 27.5029 13.2678 30.8407 13.9 34.0613C14.5323 37.2818 16.0954 40.2404 18.3913 42.5624C20.6873 44.8844 23.6129 46.4656 26.798 47.1058C29.9831 47.7461 33.2845 47.4165 36.2843 46.1589C39.2841 44.9014 41.8475 42.7723 43.65 40.0411C45.4525 37.31 46.4132 34.0995 46.4104 30.8161C46.4005 26.4228 44.6703 22.2122 41.5982 19.1052C38.5261 15.9982 34.3621 14.2476 30.0169 14.2363ZM29.9685 42.6832C27.6506 42.6773 25.3865 41.9768 23.4623 40.6702C21.5381 39.3636 20.0402 37.5096 19.1578 35.3426C18.2755 33.1755 18.0483 30.7926 18.505 28.495C18.9617 26.1974 20.0818 24.0882 21.7237 22.4341C23.3656 20.7799 25.4557 19.655 27.7297 19.2016C30.0038 18.7481 32.3597 18.9863 34.4999 19.8863C36.64 20.7862 38.4683 22.3074 39.7536 24.2576C41.039 26.2078 41.7237 28.4995 41.7212 30.843C41.7142 33.9884 40.4723 37.0024 38.2686 39.2225C36.0648 41.4427 33.0795 42.6874 29.9685 42.6832Z" fill="#9B3D30"/>
<path d="M32.3423 33.2008C31.5608 33.2008 30.7793 33.2134 29.9977 33.2008C29.689 33.204 29.3827 33.1448 29.0968 33.0268C28.8109 32.9088 28.5512 32.7343 28.3329 32.5135C28.1145 32.2928 27.9419 32.0302 27.8252 31.7411C27.7085 31.4521 27.65 31.1424 27.6531 30.8302C27.6365 29.2498 27.6365 27.6694 27.6531 26.0891C27.6312 25.7649 27.6754 25.4396 27.783 25.1334C27.8906 24.8272 28.0594 24.5467 28.2787 24.3092C28.4981 24.0717 28.7634 23.8824 29.0582 23.7529C29.3529 23.6234 29.6709 23.5566 29.9923 23.5566C30.3136 23.5566 30.6316 23.6234 30.9264 23.7529C31.2212 23.8824 31.4865 24.0717 31.7058 24.3092C31.9252 24.5467 32.0939 24.8272 32.2015 25.1334C32.3091 25.4396 32.3533 25.7649 32.3314 26.0891C32.3455 26.7607 32.3486 27.4308 32.3314 28.1025C32.3314 28.3838 32.4049 28.4754 32.6893 28.466C33.3521 28.4454 34.0148 28.4502 34.6791 28.466C34.9979 28.4473 35.3171 28.4947 35.6171 28.6052C35.9171 28.7157 36.1916 28.887 36.4238 29.1086C36.656 29.3302 36.841 29.5974 36.9674 29.8939C37.0938 30.1903 37.159 30.5098 37.159 30.8326C37.159 31.1554 37.0938 31.4748 36.9674 31.7713C36.841 32.0677 36.656 32.3349 36.4238 32.5565C36.1916 32.7781 35.9171 32.9494 35.6171 33.0599C35.3171 33.1704 34.9979 33.2178 34.6791 33.1992C33.9054 33.2087 33.1239 33.2008 32.3423 33.2008Z" fill="#9B3D30"/>
</g>
<defs>
<clipPath id="clip0_332_1894">
<rect width="60" height="47.4194" fill="white"/>
</clipPath>
</defs>
</svg>
