<svg viewBox="0 0 25 26" fill="none" xmlns="http://www.w3.org/2000/svg">
<g clipPath="url(#clip0_4851_17775)">
<path d="M0.876296 1.82694H5.25569H6.48678C6.85369 1.82694 7.13475 1.61423 7.25748 1.24629C7.30489 1.11158 7.32326 0.965229 7.31094 0.820201C7.29863 0.675172 7.25602 0.535949 7.18689 0.414873C7.10607 0.282408 6.9987 0.175332 6.87427 0.103093C6.74984 0.0308538 6.61218 -0.00432582 6.47342 0.000658382C4.63506 0.000658382 2.77062 0.000658382 0.862943 0.000658382C0.743659 -0.00428385 0.624728 0.018638 0.513055 0.0680927C0.401383 0.117547 0.299194 0.192549 0.212425 0.288743C0.14269 0.372228 0.0880437 0.471388 0.0517656 0.580272C0.0154875 0.689156 -0.00167485 0.805519 0.00130829 0.922379C0.00575954 1.46198 0.357408 1.82619 0.876296 1.82694Z" fill="#C91100"/>
<path d="M0.847162 5.40871C1.28338 5.40871 1.71961 5.40871 2.15646 5.40871H3.82886C4.07898 5.40871 4.32889 5.40871 4.57858 5.40871C5.05359 5.40871 5.40524 5.02808 5.40905 4.50863C5.412 4.39053 5.39472 4.27293 5.35824 4.16281C5.32176 4.05269 5.26682 3.95228 5.19667 3.86753C5.11443 3.77397 5.01714 3.70057 4.91047 3.65162C4.80381 3.60267 4.6899 3.57915 4.5754 3.58243C3.41935 3.58243 2.19843 3.58243 0.843983 3.58243C0.72879 3.57864 0.614095 3.60162 0.506493 3.65003C0.398891 3.69845 0.300505 3.77135 0.216993 3.86455C0.147227 3.94795 0.0922519 4.04676 0.0552493 4.15527C0.0182467 4.26378 -4.77555e-05 4.37983 0.00142514 4.49669C0.00269692 5.03181 0.35053 5.40647 0.847162 5.40871Z" fill="#C91100"/>
<path d="M0.781071 8.98952C0.881542 8.98952 0.982013 8.98952 1.08248 8.98952H1.32094H1.5594C1.63889 8.98952 1.71965 8.98952 1.79977 8.98952C1.97273 8.98952 2.15142 8.98952 2.32756 8.98952C2.78032 8.98056 3.12306 8.58948 3.12497 8.08048C3.12688 7.57148 2.78604 7.17145 2.33265 7.16548C1.78832 7.15801 1.28279 7.15876 0.78743 7.16548C0.576287 7.16577 0.373791 7.26395 0.224029 7.43864C0.151763 7.524 0.0948285 7.62552 0.0565988 7.73718C0.0183691 7.84884 -0.000378364 7.96837 0.00146688 8.08869C0.00381494 8.32921 0.0870883 8.55888 0.233129 8.72763C0.379171 8.89638 0.576134 8.99052 0.781071 8.98952Z" fill="#C91100"/>
<path d="M24.4858 17.668C24.2918 17.1724 23.9497 16.95 23.4683 17.0067C23.4 17.012 23.3313 17.012 23.263 17.0067C23.1889 17.0008 23.1145 17.0008 23.0404 17.0067C22.9998 17.0183 22.957 17.011 22.9208 16.9866C22.8933 16.9439 22.8804 16.8906 22.8846 16.8373C22.8499 16.1356 22.7649 15.4385 22.6302 14.7536C22.215 12.5392 21.4825 10.7353 20.3913 9.23965C18.9567 7.27381 17.0846 6.08266 14.672 5.59904C14.5493 5.57441 14.5385 5.54306 14.5417 5.40872C14.55 5.04078 14.5493 4.7012 14.5417 4.36983C14.5169 3.70936 14.2866 3.08251 13.8943 2.60808C13.502 2.13365 12.9751 1.8446 12.4134 1.79572C11.8464 1.74892 11.2846 1.94998 10.8364 2.36019C10.3882 2.7704 10.0851 3.36075 9.98552 4.01756C9.94485 4.34964 9.93186 4.68559 9.94673 5.02063C9.94673 5.13706 9.95054 5.25274 9.94991 5.36917C9.94991 5.54679 9.93528 5.58709 9.78648 5.6162C8.62026 5.82921 7.49564 6.2841 6.46522 6.9596C4.36232 8.37166 2.94873 10.5084 2.14433 13.499C1.85186 14.5788 1.67166 15.6962 1.60763 16.8269C1.60255 16.9194 1.59046 16.9717 1.56757 16.994C1.52869 17.0187 1.48346 17.0259 1.44039 17.0142C1.30204 17.0014 1.16316 16.9987 1.02452 17.006L0.863639 17.0097C0.316135 17.0097 0.00136831 17.3784 0.000732422 18.0135C0.000732422 19.1415 0.000732422 20.2697 0.000732422 21.3982C0.000732422 22.0542 0.311684 22.4169 0.874449 22.4176H0.99654C1.64261 22.4176 2.31093 22.4176 2.96781 22.4176C3.08608 22.4176 3.09499 22.4176 3.10007 22.5453C3.13152 23.4719 3.46648 24.3486 4.03512 24.9925C4.60376 25.6364 5.36221 25.9978 6.15236 26.0015H6.15554C6.94564 26.0005 7.70481 25.6409 8.27418 24.998C8.84355 24.3551 9.17901 23.4786 9.21036 22.552C9.21545 22.4191 9.22244 22.4124 9.33309 22.4117C11.2891 22.4176 13.2502 22.4176 15.1604 22.4117C15.2679 22.4117 15.2768 22.4191 15.2819 22.5535C15.3125 23.4802 15.6481 24.3569 16.2182 24.9992C16.7883 25.6414 17.5484 25.9991 18.3386 25.9971H18.3431C19.9544 25.9971 21.3222 24.4559 21.3915 22.5677C21.3972 22.4184 21.4081 22.4094 21.5244 22.4109C21.7877 22.4154 22.0548 22.4109 22.3129 22.4109C22.6945 22.4109 23.0868 22.405 23.4728 22.4221C23.9764 22.4453 24.2995 22.2333 24.4858 21.7564L24.4915 21.7415V17.6829L24.4858 17.668ZM6.15554 24.1708C5.77989 24.1643 5.41928 23.9966 5.14184 23.6993C4.86439 23.402 4.68934 22.9957 4.64974 22.5572C4.64338 22.4721 4.65419 22.4445 4.66119 22.4356C4.66818 22.4266 4.72478 22.4139 4.75784 22.4139H4.77629C5.11331 22.4221 5.45669 22.4206 5.78799 22.4191C6.04235 22.4191 6.30179 22.4191 6.55869 22.4191C6.87664 22.4191 7.20921 22.4191 7.53479 22.4139C7.55831 22.4139 7.63081 22.4139 7.64925 22.4356C7.65624 22.4438 7.66705 22.4714 7.66069 22.5572C7.62463 22.9972 7.45072 23.4058 7.17265 23.7039C6.89458 24.002 6.53214 24.1684 6.15554 24.1708ZM22.9431 20.4705C22.9431 20.5414 22.9361 20.5667 22.9285 20.5757C22.9208 20.5847 22.8973 20.5951 22.8369 20.5936C22.381 20.5876 21.9174 20.5884 21.4697 20.5936H18.3685C12.9227 20.5936 7.29187 20.5936 1.75389 20.5996C1.65723 20.5996 1.60318 20.5869 1.57902 20.557C1.55485 20.5272 1.54722 20.4667 1.55167 20.3637C1.56884 19.9518 1.56948 19.5107 1.55167 19.0151C1.55167 18.9345 1.55485 18.8853 1.57139 18.8658C1.58792 18.8464 1.63052 18.8367 1.70556 18.8367C4.63067 18.842 7.60664 18.842 10.4809 18.8412H14.1462C16.9695 18.8412 19.8876 18.8412 22.7581 18.8352C22.8439 18.8352 22.8916 18.8457 22.9119 18.8703C22.9323 18.895 22.9393 18.9494 22.9355 19.0435C22.924 19.5189 22.931 19.9898 22.9399 20.4705H22.9431ZM21.3158 16.9858C21.2723 17.0109 21.2235 17.0204 21.1753 17.0134C18.736 17.0082 16.2567 17.009 13.8581 17.009H10.4936C8.14779 17.009 5.7244 17.009 3.33599 17.0157C3.27876 17.0157 3.20118 17.0157 3.17765 16.9821C3.15412 16.9485 3.15921 16.8619 3.16493 16.797C3.38813 14.3005 4.02593 12.2981 5.11394 10.6771C6.2204 9.02694 7.7548 7.95894 9.67902 7.49995C10.5429 7.29057 11.4225 7.18381 12.3046 7.18126C13.4033 7.1783 14.4968 7.35899 15.5521 7.71788C18.041 8.56869 19.7751 10.5159 20.7028 13.5049C21.0315 14.577 21.2416 15.6942 21.3279 16.8291C21.3343 16.9134 21.3298 16.9657 21.3158 16.9858ZM12.9946 5.30498C12.9946 5.36618 12.9869 5.37961 12.9863 5.37961C12.9857 5.37961 12.9704 5.39081 12.9093 5.38782C12.7504 5.38036 12.5914 5.38185 12.4331 5.38335H12.2423C12.1787 5.38335 12.1113 5.38335 12.0458 5.38335C11.8919 5.38335 11.7323 5.37887 11.5752 5.38932C11.5187 5.38932 11.5072 5.38185 11.5059 5.38036C11.5047 5.37887 11.4958 5.36469 11.4977 5.29752C11.5015 5.16019 11.4977 5.02063 11.4977 4.88629C11.4977 4.75195 11.4977 4.60268 11.4977 4.46162C11.504 4.23718 11.584 4.02429 11.7208 3.86731C11.8576 3.71033 12.0408 3.62139 12.2321 3.61901H12.2391C12.43 3.61678 12.6142 3.70118 12.7533 3.85457C12.8924 4.00797 12.9757 4.2185 12.9857 4.44222C12.9914 4.59149 12.9901 4.74075 12.9888 4.8848C12.9876 5.02884 12.9895 5.16243 12.9946 5.30498ZM16.8328 22.5565C16.8328 22.5274 16.8252 22.4505 16.8404 22.4311C16.8455 22.4251 16.8621 22.4124 16.9206 22.4124H16.9345C17.2703 22.4229 17.6124 22.4206 17.9424 22.4191C18.2032 22.4191 18.4639 22.4191 18.7246 22.4191C19.0502 22.4191 19.3865 22.4191 19.7172 22.4139C19.7407 22.4139 19.8126 22.4139 19.831 22.4356C19.838 22.4438 19.8488 22.4721 19.8425 22.558C19.8063 22.9979 19.6322 23.4065 19.354 23.7044C19.0758 24.0024 18.7133 24.1686 18.3367 24.1708C17.5685 24.17 16.8939 23.4476 16.8328 22.5565Z" fill="#C91100"/>
</g>
<defs>
<clipPath id="clip0_4851_17775">
<rect width="24.4914" height="26" fill="white"/>
</clipPath>
</defs>
</svg>
