<svg width="24" height="24" fill="none" xmlns="http://www.w3.org/2000/svg"><g clipPath="url(#clip0_2548_2351)" fill="currentColor"><path d="M12 0C5.378-.005.021 5.343-.002 11.983-.026 18.6 5.36 23.993 11.996 23.999c6.623 0 11.979-5.344 12.002-11.983C24.023 5.394 18.641.004 12 0zm-.033 21.607c-5.32-.052-9.612-4.366-9.574-9.632.036-5.313 4.353-9.608 9.625-9.585 5.319.027 9.651 4.384 9.59 9.645-.06 5.33-4.384 9.622-9.638 9.572h-.003z"/><path d="M7.264 11.655a1.263 1.263 0 01.976.401c.482.486.975.963 1.447 1.457.15.154.226.16.382 0 1.89-1.902 3.785-3.8 5.686-5.693.503-.502 1.17-.56 1.67-.15a1.2 1.2 0 01.157 1.707c-.134.156-.286.3-.432.443l-6.287 6.284c-.664.663-1.311.662-1.975 0-.796-.797-1.599-1.585-2.384-2.39-.67-.688-.393-1.764.506-2.02a1.66 1.66 0 01.254-.039z"/></g><defs><clipPath id="clip0_2548_2351"><path fill="#fff" d="M0 0h24v23.999H0z"/></clipPath></defs></svg>
