<svg xmlns="http://www.w3.org/2000/svg" width="36" height="36" viewBox="0 0 36 36" fill="none">
    <g clip-path="url(#clip0_214_495)">
        <path d="M4.54945 24.5275C2.8095 24.5275 1.21759 25.1729 0 26.2366V5.14286C0 2.30258 2.30258 0 5.14286 0H36V5.36044H16.8132V19.167H36V24.5275H4.54945Z" fill="#C91100"/><!--dark theme #FFF-->
        <path d="M19.1868 16.7933H36V7.73401H19.1868V16.7933ZM22.9252 12.2637C22.9252 11.1713 23.8108 10.2857 24.9033 10.2857C25.9957 10.2857 26.8813 11.1713 26.8813 12.2637C26.8813 13.3561 25.9957 14.2417 24.9033 14.2417C23.8108 14.2417 22.9252 13.3561 22.9252 12.2637Z" fill="#C91100"/><!--dark theme #FFF-->
        <path d="M4.54945 26.9011H32.8352V30.2638H5.14286V32.6374H32.8352V36H3.75824C2.03689 36 0 33.9631 0 31.4506C0 28.938 2.03689 26.9011 4.54945 26.9011Z" fill="#C91100"/><!--dark theme #FFF-->
    </g>
    <defs>
        <clipPath id="clip0_214_495">
            <rect width="36" height="36" fill="#C91100"/><!--dark theme #FFF-->
        </clipPath>
    </defs>
</svg>
