<svg width="24" height="24" viewBox="0 0 24 24" fill="none" xmlns="http://www.w3.org/2000/svg">
<g clipPath="url(#clip0_332_5023)">
<path d="M12.0004 2.84272e-06C5.37775 -0.00450082 0.0213958 5.34284 -0.0018731 11.9827C-0.0258926 18.6009 5.36049 23.9925 11.9959 23.9993C18.6185 23.9993 23.9749 18.6549 23.9981 12.0158C24.0229 5.39388 18.641 0.00375589 12.0004 2.84272e-06ZM11.9674 21.6071C6.64628 21.5553 2.35504 17.2408 2.39257 11.9745C2.42935 6.66166 6.74611 2.36668 12.0176 2.38994C17.3365 2.41697 21.669 6.77426 21.6089 12.0353C21.5474 17.3654 17.2239 21.6574 11.9696 21.6071H11.9674Z" fill="#C91100"/>
<path d="M15.3065 16.3477C15.141 16.3499 14.9768 16.3173 14.8248 16.2519C14.6727 16.1864 14.5362 16.0897 14.424 15.9679C13.6739 15.2125 12.9149 14.4646 12.1695 13.7044C12.0331 13.568 11.9649 13.568 11.8333 13.7044C11.0695 14.4821 10.2987 15.2534 9.52079 16.0184C8.8968 16.6286 7.91001 16.3845 7.67951 15.5684C7.56017 15.1389 7.6836 14.7659 8.00139 14.4509C8.76313 13.6941 9.51669 12.9298 10.2832 12.1778C10.4237 12.0414 10.4305 11.9664 10.2832 11.8246C9.51033 11.0669 8.7445 10.3024 7.98571 9.53106C7.36036 8.89221 7.63928 7.88724 8.49104 7.6827C8.90839 7.58315 9.2596 7.72088 9.55761 8.0195C10.3037 8.76948 11.0579 9.50719 11.7944 10.2654C11.9649 10.4406 12.0502 10.4126 12.2036 10.2558C12.949 9.4956 13.7039 8.74494 14.4602 7.99428C14.7677 7.68815 15.136 7.57565 15.5595 7.70042C15.7508 7.75023 15.9239 7.85374 16.0582 7.99871C16.1926 8.14369 16.2827 8.32408 16.3178 8.51858C16.4072 8.92766 16.2714 9.26856 15.9768 9.56174C15.2165 10.3199 14.4622 11.0835 13.695 11.8349C13.5586 11.9712 13.5655 12.0394 13.6991 12.1703C14.472 12.9289 15.2376 13.6937 15.9959 14.4646C16.624 15.1061 16.354 16.1009 15.5022 16.3163C15.4375 16.3301 15.3722 16.3406 15.3065 16.3477Z" fill="#C91100"/>
</g>
<defs>
<clipPath id="clip0_332_5023">
<rect width="24" height="23.9993" fill="white"/>
</clipPath>
</defs>
</svg>
