<svg width="172" height="41" viewBox="0 0 172 41" fill="none" xmlns="http://www.w3.org/2000/svg">
<g clipPath="url(#clip0_710_312)">
<path d="M0.343542 2.96525C5.43941 2.10989 12.482 2.10989 17.5779 2.96525V17.4493H18.6658L25.7656 2.96525C30.8615 2.10989 37.8469 2.10989 42.9427 2.96525C43.4008 15.2253 43.4008 27.4854 42.9427 39.7455C37.2743 40.6009 31.6631 40.6009 25.7656 39.7455V25.3755H24.6205L17.5779 39.7455C11.9095 40.6009 6.24101 40.6009 0.343542 39.7455C-0.114514 27.4854 -0.114514 15.1683 0.343542 2.96525Z" fill="#9B3D30"/>
<path d="M47.3515 2.96539C57.1424 1.59682 72.8881 1.59682 82.7363 2.96539C83.1944 7.75538 83.1944 12.5454 82.7363 17.3353L73.6897 17.0502V40.2018C68.5938 41.0572 61.494 41.0572 56.3981 40.2018V16.9932L47.3515 17.2783C46.9507 12.5454 46.9507 7.69835 47.3515 2.96539Z" fill="#9B3D30"/>
<path d="M87.2024 2.62296C92.2983 1.76761 99.3982 1.76761 104.494 2.62296C104.952 10.4352 104.952 18.7607 104.494 26.5729L128.828 25.4894C129.286 30.2794 129.286 35.0694 128.828 39.8594C116.976 41.399 97.9095 41.5131 87.2024 39.8594C86.7444 27.3712 86.7444 14.9971 87.2024 2.62296Z" fill="#9B3D30"/>
<path d="M133.638 2.96516C145.146 1.25445 160.205 1.25445 171.656 2.96516C172.114 7.18491 172.114 11.4047 171.656 15.6244L150.929 14.1988V18.0764L163.984 17.6773C164.442 20.1863 164.442 22.6953 163.984 25.2044L150.929 24.8052V28.5118L171.656 27.0862C172.114 31.3059 172.114 35.5257 171.656 39.7454C159.117 41.4561 146.177 41.4561 133.638 39.7454C133.18 27.4853 133.18 15.1682 133.638 2.96516Z" fill="#9B3D30"/>
<path d="M107.242 11.2907C107.242 11.2907 109.361 14.1419 112.395 17.1641C115.43 20.1864 118.579 22.4673 118.579 22.4673L118.636 22.5243C118.636 22.5243 121.499 20.4145 124.534 17.3922C127.569 14.37 129.859 11.2337 129.859 11.2337L129.916 11.1766C129.916 11.1766 127.798 8.32545 124.763 5.3032C121.728 2.28095 118.579 0 118.579 0L118.522 0C118.522 0 115.659 2.10987 112.624 5.13213C109.59 8.15438 107.3 11.2907 107.242 11.2907Z" fill="#9B3D30"/>
</g>
<defs>
<clipPath id="clip0_710_312">
<rect width="172" height="41" fill="white"/>
</clipPath>
</defs>
</svg>
