<svg xmlns="http://www.w3.org/2000/svg" width="56" height="56" viewBox="0 0 62 62" fill="none">
<g clipPath="url(#clip0_2_2005)">
<path d="M44.5263 17.4426C37.7579 10.6639 30.9793 5.72461 30.9793 5.72461C30.9793 5.72461 24.2109 10.6639 17.4323 17.4426C10.6639 24.2213 5.72461 30.9999 5.72461 30.9999C5.72461 30.9999 10.6639 37.7786 17.4323 44.5573C24.2006 51.3359 30.9793 56.2753 30.9793 56.2753C30.9793 56.2753 37.7476 51.3359 44.5263 44.5573C51.2946 37.7786 56.234 30.9999 56.234 30.9999C56.234 30.9999 51.305 24.2213 44.5263 17.4426Z" fill="white"/>
<path d="M47.6057 14.3737C39.2873 6.05533 30.9793 0 30.9793 0C30.9793 0 22.6713 6.05533 14.3633 14.3737C6.05534 22.6817 0 31 0 31C0 31 6.05534 39.3183 14.3633 47.6263C22.6713 55.9447 30.9793 62 30.9793 62C30.9793 62 39.2873 55.9447 47.5953 47.6263C55.9034 39.308 61.9587 31 61.9587 31C61.9587 31 55.9034 22.6817 47.5953 14.3737M38.6467 38.7293C34.7613 42.625 30.8657 45.4563 30.8657 45.4563V41.4987C25.606 41.4987 21.018 40.7857 21.018 40.7857C21.018 40.7857 20.305 36.2287 20.305 30.9483C20.305 25.6783 21.0283 21.111 21.0283 21.111C21.0283 21.111 25.5853 20.398 30.8657 20.3877V16.43C30.8657 16.43 34.751 19.2613 38.6467 23.157C42.532 27.0527 45.3737 30.938 45.3737 30.938C45.3737 30.938 42.5423 34.8337 38.657 38.719" fill="#FA7305"/>
</g>
<defs>
<clipPath id="clip0_2_2005">
<rect width="61.969" height="62" fill="white"/>
</clipPath>
</defs>
</svg>