<?xml version="1.0" encoding="UTF-8"?>
<!DOCTYPE svg PUBLIC "-//W3C//DTD SVG 1.1//EN" "http://www.w3.org/Graphics/SVG/1.1/DTD/svg11.dtd">
<!-- Creator: CorelDRAW 2020 (64-Bit) -->
<svg xmlns="http://www.w3.org/2000/svg" xml:space="preserve" width="12.6937mm" height="12.6999mm" version="1.1" style="shape-rendering:geometricPrecision; text-rendering:geometricPrecision; image-rendering:optimizeQuality; fill-rule:evenodd; clip-rule:evenodd"
viewBox="0 0 24.49 24.5"
 xmlns:xlink="http://www.w3.org/1999/xlink"
 xmlns:xodm="http://www.corel.com/coreldraw/odm/2003">
 <defs>
  <style type="text/css">
   <![CDATA[
    .fil0 {fill:#FA7305;fill-rule:nonzero}
   ]]>
  </style>
 </defs>
 <g id="Слой_x0020_1">
  <metadata id="CorelCorpID_0Corel-Layer"/>
  <g>
   <path class="fil0" d="M18.81 5.68c-2.06,-2.04 -4.25,-3.94 -6.57,-5.68 -4.65,3.47 -8.78,7.59 -12.24,12.25 3.46,4.66 7.59,8.78 12.24,12.25 2.32,-1.74 4.51,-3.64 6.57,-5.68 2.04,-2.06 3.94,-4.25 5.68,-6.57 -1.74,-2.32 -3.63,-4.51 -5.68,-6.57zm-6.22 7.01c0,0 -0.7,0.11 -1.64,0.16l0 4.04 -1.55 0 0 -4.04c-0.95,-0.05 -1.67,-0.16 -1.67,-0.16 -0.11,-0.81 -0.17,-1.62 -0.17,-2.43 0,-0.81 0.06,-1.63 0.17,-2.43 0,0 0.37,-0.05 0.87,-0.1l0 1.91 0.83 0 0 -1.96c0.26,-0.01 0.45,-0.02 0.74,-0.02 0.28,0 0.53,0 0.79,0.02l0 1.96 0.83 0 0 -1.91c0.5,0.05 0.81,0.1 0.81,0.1 0.24,1.61 0.24,3.25 0,4.87zm2.84 -0.46l-0.05 0.05 0 4.59 -1.55 0 0 -9.24 0.04 0.03c0.56,0.42 1.08,0.88 1.58,1.37 0.49,0.5 0.95,1.04 1.37,1.61 -0.43,0.56 -0.89,1.1 -1.39,1.59l0.01 -0.01zm0 0l0 0 0 0z"/>
  </g>
 </g>
</svg>
