<svg width="18" height="19" viewBox="0 0 18 19" fill="none" xmlns="http://www.w3.org/2000/svg">
<path d="M17.9967 5.45585C17.9967 4.89358 17.6509 4.52136 17.1412 4.51123C16.8984 4.50674 16.6556 4.50561 16.4133 4.51123C16.3006 4.51461 16.2765 4.48593 16.297 4.35717C16.3851 3.7949 16.4138 3.22363 16.3011 2.66192C15.8539 0.435329 13.7568 -0.543024 11.947 0.300383C11.1033 0.693973 10.4753 1.3985 9.89798 2.15981C9.57336 2.59993 9.27364 3.06148 9.00051 3.54188C8.95441 3.46541 8.91958 3.40918 8.88628 3.35239C8.50414 2.70409 8.08768 2.08335 7.58977 1.53232C6.8301 0.692849 5.99052 0.0535462 4.84923 0.00631543C3.5686 -0.0465381 2.35815 0.759759 1.86639 2.06086C1.58362 2.80924 1.59336 3.57899 1.704 4.35773C1.72244 4.48706 1.69939 4.51461 1.58772 4.5118C1.33877 4.50449 1.0893 4.50336 0.840348 4.5118C0.35166 4.52641 0.00691539 4.89695 0.00486639 5.43448C-0.00162213 6.91663 -0.00162213 8.39896 0.00486639 9.88149C0.00486639 10.4291 0.35371 10.7986 0.853667 10.8115C1.05143 10.8227 1.2496 10.8227 1.44736 10.8115C1.60616 10.798 1.64612 10.848 1.64561 11.0257C1.63895 13.028 1.64099 15.0296 1.64151 17.0319C1.64151 17.6363 1.97191 18.0018 2.52361 18.0024C6.84154 18.0024 11.1595 18.0024 15.4774 18.0024C16.0286 18.0024 16.359 17.6358 16.3595 17.0319C16.3595 16.1697 16.3595 15.3057 16.3595 14.4398C16.3595 13.295 16.3631 12.1497 16.3559 11.0049C16.3559 10.8452 16.3913 10.8014 16.5337 10.812C16.7309 10.8267 16.9296 10.8182 17.1279 10.8149C17.6499 10.8064 17.9946 10.4359 17.9987 9.86293C18.0021 8.39316 18.0014 6.92413 17.9967 5.45585ZM3.32067 3.06395C3.44873 2.34199 3.86775 1.93772 4.52446 1.83538C5.08794 1.74767 5.54896 1.95177 5.97054 2.33131C6.6334 2.93069 7.12874 3.68076 7.60975 4.50786C6.79015 4.50786 6.00589 4.50786 5.22266 4.50786C4.75087 4.50786 4.27858 4.5028 3.81601 4.37741C3.38624 4.26046 3.27252 4.09628 3.27969 3.60879C3.27874 3.42621 3.29245 3.24389 3.32067 3.06395ZM1.81516 9.01447C1.6748 9.01447 1.63485 8.98298 1.6369 8.82217C1.64561 8.04286 1.64356 7.26355 1.6369 6.48424C1.6369 6.35155 1.66149 6.30882 1.79057 6.30938C3.86553 6.31388 5.94049 6.31388 8.01545 6.30938C8.14403 6.30938 8.18911 6.33693 8.18757 6.49043C8.18006 7.26974 8.18006 8.04923 8.18757 8.82892C8.18757 8.97623 8.15376 9.01503 8.01904 9.0139C6.98019 9.01053 5.9393 9.01053 4.89891 9.01053C3.87083 9.01053 2.84274 9.00716 1.81516 9.01447ZM7.98881 16.2115C6.48177 16.2048 4.97473 16.2048 3.46768 16.2115C3.32118 16.2115 3.27354 16.1772 3.27559 16.0063C3.2843 15.1629 3.27969 14.3195 3.27969 13.4761C3.27969 12.6473 3.28327 11.8185 3.2761 10.9903C3.2761 10.8402 3.31247 10.8064 3.44515 10.807C4.96517 10.8126 6.48484 10.8126 8.00418 10.807C8.16349 10.807 8.18911 10.8632 8.18859 11.0206C8.18415 12.6782 8.18415 14.3356 8.18859 15.9928C8.19013 16.1711 8.14659 16.2132 7.98881 16.2127V16.2115ZM12.1498 2.22729C12.6329 1.81739 13.162 1.72968 13.7378 1.89555C14.3136 2.06142 14.666 2.57027 14.7111 3.29392C14.7198 3.44067 14.7213 3.58855 14.7188 3.73586C14.7126 4.06704 14.6122 4.2211 14.3295 4.33018C14.0196 4.44088 13.6954 4.49576 13.3695 4.49268C12.4065 4.5073 11.4429 4.50561 10.4799 4.50955C10.4522 4.50583 10.4248 4.49982 10.3979 4.49155C10.9025 3.63803 11.426 2.84185 12.1498 2.22729ZM14.5328 16.2121C13.0193 16.2065 11.5059 16.2065 9.99274 16.2121C9.85034 16.2121 9.81089 16.1744 9.81141 16.0147C9.81687 14.3437 9.81687 12.6722 9.81141 11.0004C9.81141 10.8317 9.86263 10.8092 9.99684 10.8098C11.5169 10.8143 13.0365 10.8143 14.5559 10.8098C14.6891 10.8098 14.7259 10.8435 14.7249 10.9931C14.7177 11.8286 14.7213 12.6647 14.7213 13.5003C14.7213 14.3358 14.7167 15.1719 14.7254 16.0074C14.7265 16.1778 14.6788 16.2127 14.5328 16.2121ZM16.1966 9.01503C14.1281 9.00941 12.0595 9.00941 9.99069 9.01503C9.84982 9.01503 9.80884 8.98185 9.81089 8.82048C9.81943 8.0483 9.81943 7.27592 9.81089 6.50336C9.81089 6.34143 9.85033 6.30825 9.9912 6.30938C11.0254 6.31669 12.0597 6.31331 13.0939 6.31331C14.1281 6.31331 15.1629 6.31331 16.1971 6.30938C16.3324 6.30938 16.3641 6.34649 16.3631 6.49324C16.3559 7.27255 16.3559 8.05186 16.3631 8.83117C16.3641 8.97792 16.3313 9.01447 16.1966 9.01447V9.01503Z" fill="#6A893E"/>
</svg>
