<svg viewBox="0 0 62 62" fill="none" xmlns="http://www.w3.org/2000/svg">
<ellipse cx="30.5867" cy="31.2066" rx="21.08" ry="20.8733" fill="white"/>
<path d="M29.2839 36.8548C27.7766 36.8548 27.4745 37.1873 27.4745 37.5399V37.5598C27.4745 37.919 27.7766 38.2748 29.2839 38.2748C30.7913 38.2748 31.0635 37.9423 31.0635 37.5698V37.5498C31.0635 37.2006 30.7946 36.8548 29.2839 36.8548Z" fill="#FA7305"/>
<path d="M39.8223 25.8036L39.0786 27.4665H40.5826L39.8223 25.8036Z" fill="#FA7305"/>
<path d="M24.131 27.4665H25.6383L24.878 25.8036L24.131 27.4665Z" fill="#FA7305"/>
<path d="M40.8439 34.4767C39.0112 34.4767 38.5663 35.3946 38.5663 36.1229V36.2493C38.5663 36.9876 39.0444 37.9554 40.8439 37.9554C42.6435 37.9554 43.1216 36.9976 43.1216 36.2593V36.1229C43.1216 35.3946 42.6335 34.4767 40.8439 34.4767Z" fill="#FA7305"/>
<path d="M49.2207 33.5291C49.112 33.5221 49.0029 33.5375 48.9003 33.5743C48.7978 33.6111 48.7038 33.6687 48.6243 33.7433C48.5448 33.818 48.4815 33.9082 48.4381 34.0083C48.3948 34.1085 48.3725 34.2165 48.3725 34.3256C48.3725 34.4348 48.3948 34.5428 48.4381 34.6429C48.4815 34.7431 48.5448 34.8333 48.6243 34.9079C48.7038 34.9826 48.7978 35.0401 48.9003 35.077C49.0029 35.1138 49.112 35.1292 49.2207 35.1221C49.3295 35.1292 49.4385 35.1138 49.541 35.077C49.6436 35.0401 49.7376 34.9826 49.8171 34.9079C49.8966 34.8333 49.9599 34.7431 50.0033 34.6429C50.0466 34.5428 50.0689 34.4348 50.0689 34.3256C50.0689 34.2165 50.0466 34.1085 50.0033 34.0083C49.9599 33.9082 49.8966 33.818 49.8171 33.7433C49.7376 33.6687 49.6436 33.6111 49.541 33.5743C49.4385 33.5375 49.3295 33.5221 49.2207 33.5291Z" fill="#FA7305"/>
<path d="M46.9931 14.3734C41.8631 9.20824 36.3817 4.40557 30.5883 0C18.9446 8.7926 8.64046 19.236 0 31.0017C8.63934 42.7674 18.9436 53.2098 30.5883 62C36.3821 57.5962 41.8636 52.7946 46.9931 47.6299C52.0973 42.4217 56.8354 36.8656 61.1733 31.0017C56.8354 25.1377 52.0973 19.5817 46.9931 14.3734ZM44.3967 24.3038H46.8105V27.962H50.5091V29.718H44.4034L44.3967 24.3038ZM38.2047 24.3038H41.5447L44.2739 29.7047H41.5945L41.2625 28.9564H38.4172L38.0852 29.7047H35.6415L38.2047 24.3038ZM29.4528 24.3038H31.8666V27.962H35.5718V29.718H29.4595L29.4528 24.3038ZM12.6729 24.3038H15.09V26.1462H18.1478V24.3038H20.5715V29.7047H18.1478V27.7093H15.09V29.7047H12.6729V24.3038ZM23.3903 37.5465C23.3903 38.777 22.5968 40.2968 17.9884 40.2968H17.4672C12.819 40.2968 12.2645 38.3247 12.2645 37.3038V37.2073H15.8503C15.8735 37.3769 15.9565 38.1585 17.7029 38.1585C19.363 38.1585 19.5755 37.8259 19.5755 37.5233C19.5755 37.2406 19.3796 37.051 18.7554 37.051H16.3184V35.1221H18.7222C19.2966 35.1221 19.4725 34.9525 19.4725 34.7297C19.4725 34.467 19.3596 34.2142 17.673 34.2142C15.9864 34.2142 15.9034 34.8162 15.8835 34.9525H12.3343V34.8461C12.3343 33.9715 12.7825 32.169 17.4107 32.169H17.8822C22.6565 32.169 23.0815 33.2964 23.0815 34.1943V34.2342C23.0815 34.9958 22.3444 35.4381 21.5742 35.5644C22.4573 35.7108 23.3969 36.2495 23.3969 37.48L23.3903 37.5465ZM23.138 29.7047H20.6943L23.2575 24.3038H26.6075L29.3366 29.7047H26.6573L26.3253 28.9564H23.4799L23.138 29.7047ZM34.7086 37.4933C34.7086 38.7371 34.1043 40.3068 29.3964 40.3068H28.9183C24.2137 40.3068 23.6426 37.8292 23.6426 36.3526V36.0999C23.6426 34.6699 24.2137 32.159 28.9548 32.159H29.423C33.5532 32.159 34.3434 33.6788 34.3434 34.6898V34.7297H30.8141C30.741 34.6266 30.502 34.1743 29.2935 34.1743C27.6334 34.1743 27.245 35.1221 27.245 35.7208V35.7972C27.4541 35.6476 28.241 35.0689 30.4489 35.0689H30.575C33.7989 35.0689 34.6953 36.0666 34.6953 37.3969L34.7086 37.4933ZM46.7573 36.3759C46.7573 37.8625 46.0601 40.2968 41.1131 40.2968H40.635C35.6548 40.2968 34.9908 37.8625 34.9908 36.3759V36.06C34.9908 34.5634 35.6781 32.159 40.635 32.159H41.1131C46.0767 32.159 46.7573 34.5634 46.7573 36.06V36.3759ZM49.2341 36.469C47.9625 36.469 46.9864 35.6044 46.9864 34.3306C46.9864 33.0569 47.9625 32.1922 49.2341 32.1922C50.5058 32.1922 51.4719 33.0569 51.4719 34.3306C51.4719 35.6044 50.4759 36.469 49.2341 36.469Z" fill="#FA7305"/>
</svg>
