<svg viewBox="0 0 56 56" fill="none" xmlns="http://www.w3.org/2000/svg">
<g clipPath="url(#clip0_4579_16702)">
<path d="M55.2658 34.3693C58.7839 19.3108 49.4286 4.25157 34.3701 0.733494C19.3116 -2.78458 4.25236 6.57077 0.734291 21.6292C-2.78378 36.6877 6.57156 51.747 21.63 55.2651C36.6885 58.7831 51.7478 49.4278 55.2658 34.3693Z" fill="#8DBF4C"/>
<path d="M17.5149 50.4185C17.4387 50.4182 17.3635 50.4017 17.2942 50.3701C13.0766 48.349 9.51636 45.1766 7.02432 41.219C4.53227 37.2613 3.20996 32.6798 3.20996 28.0029C3.20996 23.3261 4.53227 18.7445 7.02432 14.7869C9.51636 10.8293 13.0766 7.65687 17.2942 5.63576C17.3548 5.60583 17.4208 5.58836 17.4883 5.58438C17.5558 5.58039 17.6234 5.58997 17.6871 5.61255C17.7508 5.63513 17.8094 5.67025 17.8593 5.71584C17.9092 5.76142 17.9495 5.81655 17.9778 5.87797C18.0321 5.99847 18.0401 6.13474 18.0004 6.2608C17.9607 6.38687 17.876 6.49392 17.7625 6.56155C13.719 8.4986 10.3056 11.5395 7.91635 15.3334C5.52708 19.1273 4.25929 23.5194 4.25929 28.0029C4.25929 32.4864 5.52708 36.8786 7.91635 40.6725C10.3056 44.4663 13.719 47.5072 17.7625 49.4443C17.8509 49.5057 17.9189 49.5923 17.9577 49.6928C17.9964 49.7933 18.0041 49.9031 17.9798 50.0081C17.9554 50.113 17.9002 50.2082 17.8211 50.2814C17.7421 50.3546 17.6429 50.4023 17.5364 50.4185H17.5149Z" fill="white"/>
<path d="M38.4857 50.4183C38.3796 50.4012 38.281 50.3528 38.2027 50.2793C38.1243 50.2058 38.0698 50.1105 38.0461 50.0057C38.0223 49.9009 38.0305 49.7914 38.0695 49.6913C38.1085 49.5912 38.1766 49.5051 38.265 49.444C42.3085 47.507 45.7218 44.466 48.1111 40.6722C50.5004 36.8783 51.7682 32.4862 51.7682 28.0026C51.7682 23.5191 50.5004 19.127 48.1111 15.3331C45.7218 11.5392 42.3085 8.49832 38.265 6.56127C38.1811 6.54977 38.1011 6.51864 38.0315 6.47039C37.9618 6.42215 37.9046 6.35816 37.8644 6.28363C37.8242 6.2091 37.8021 6.12612 37.8 6.04146C37.7979 5.95679 37.8157 5.87282 37.8522 5.79637C37.8886 5.71992 37.9426 5.65315 38.0097 5.60149C38.0768 5.54982 38.1552 5.51473 38.2384 5.49905C38.3217 5.48337 38.4074 5.48755 38.4887 5.51126C38.57 5.53497 38.6446 5.57752 38.7064 5.63547C42.924 7.65659 46.4842 10.829 48.9762 14.7866C51.4683 18.7442 52.7906 23.3258 52.7906 28.0026C52.7906 32.6795 51.4683 37.2611 48.9762 41.2187C46.4842 45.1763 42.924 48.3487 38.7064 50.3698C38.637 50.4014 38.5618 50.4179 38.4857 50.4183Z" fill="white"/>
<path d="M18.8062 11.1259C19.5697 12.5649 20.0916 14.1197 20.351 15.7279C20.4903 16.4965 20.5802 17.2732 20.6202 18.0532C20.6777 18.9334 20.6453 19.8171 20.5233 20.6907C20.3806 21.6491 20.1408 22.5905 19.8074 23.5003C19.4641 24.5043 19.0129 25.468 18.4618 26.3746C17.8532 27.382 16.9624 28.1886 15.8997 28.6945C15.3566 28.9357 14.7713 29.0674 14.1773 29.082C13.6329 29.0938 13.0895 29.0304 12.5625 28.8937L12.2503 28.8075C12.1427 28.8075 12.0027 28.7322 11.8843 28.6945C11.6483 28.6129 11.4166 28.5195 11.1899 28.4146C10.7394 28.2076 10.325 27.9295 9.96272 27.5911C9.62071 27.2543 9.345 26.8563 9.14996 26.4177C8.96451 26.0258 8.84624 25.6054 8.80009 25.1743C8.73672 24.4796 8.80056 23.7792 8.98848 23.1074C9.12442 22.6149 9.30457 22.1357 9.52673 21.6757C9.70436 21.2989 9.86583 21.0136 9.97887 20.8198L10.1565 20.5292C10.1816 20.4963 10.2173 20.4731 10.2576 20.4638C10.2979 20.4544 10.3402 20.4594 10.3772 20.4779C10.4142 20.4964 10.4436 20.5273 10.4603 20.5651C10.477 20.603 10.48 20.6455 10.4687 20.6853L10.3556 20.9867C10.2857 21.1859 10.1942 21.4819 10.0973 21.8694C9.98665 22.3223 9.91107 22.7829 9.87122 23.2474C9.81188 23.8145 9.85934 24.3878 10.0112 24.9375C10.1453 25.5198 10.4905 26.0318 10.98 26.3746C11.2546 26.546 11.5517 26.6782 11.8628 26.7675C12.0274 26.8143 12.1945 26.852 12.3633 26.8806C12.4548 26.8806 12.5194 26.9129 12.6217 26.9236L12.9446 26.9613C13.6002 27.0514 14.2668 26.9146 14.8339 26.5738C15.3894 26.1866 15.8227 25.6488 16.0827 25.0236C16.399 24.2868 16.6022 23.5065 16.6855 22.7091C16.7986 21.8963 16.8308 21.0943 16.9116 20.2654C17.0569 18.6507 17.2937 17.1274 17.4929 15.7764C17.5898 15.1036 17.7028 14.4792 17.7997 13.9248C17.8966 13.3704 18.0096 12.8483 18.1011 12.4661C18.1926 12.084 18.2734 11.7287 18.338 11.508C18.4025 11.2873 18.4348 11.1636 18.4348 11.1636C18.4427 11.1397 18.4553 11.1177 18.4718 11.0987C18.4883 11.0798 18.5084 11.0644 18.531 11.0533C18.5536 11.0423 18.5781 11.0359 18.6032 11.0345C18.6283 11.0331 18.6534 11.0367 18.6771 11.0451C18.7031 11.0485 18.7282 11.0575 18.7505 11.0714C18.7727 11.0854 18.7918 11.1039 18.8062 11.1259Z" fill="white"/>
<path d="M21.9604 17.7625L22.0465 17.6872C22.1288 17.6232 22.2172 17.5673 22.3103 17.5203C22.4413 17.4457 22.5803 17.3861 22.7247 17.3427C22.8996 17.2879 23.0802 17.2535 23.263 17.2404C23.4831 17.2251 23.7042 17.2414 23.9197 17.2889C24.1634 17.3314 24.397 17.4191 24.6086 17.5472C24.8335 17.6918 25.032 17.8738 25.1953 18.0855L25.4429 18.4138C25.5183 18.5376 25.5936 18.6507 25.669 18.7637C25.9484 19.2037 26.1403 19.6935 26.2341 20.2062C26.2664 20.443 26.2826 20.6691 26.2987 20.8844C26.3149 21.0997 26.2987 21.2935 26.2611 21.4711C26.2359 21.754 26.1818 22.0336 26.0996 22.3054L26.0135 22.6068C26.0047 22.6355 25.9854 22.6598 25.9594 22.6748C25.9334 22.6898 25.9027 22.6943 25.8735 22.6876C25.8551 22.6817 25.8385 22.6712 25.8253 22.657C25.8121 22.6429 25.8028 22.6256 25.7982 22.6068C25.7982 22.6068 25.7712 22.4992 25.7174 22.3108C25.7174 22.2193 25.6636 22.1062 25.6259 21.9771C25.5931 21.8364 25.5462 21.6993 25.486 21.568C25.4314 21.414 25.3686 21.263 25.2976 21.1159C25.2168 20.9705 25.1307 20.8144 25.0392 20.6583C24.9477 20.5022 24.8239 20.3731 24.7109 20.2385C24.5972 20.1113 24.471 19.9959 24.3341 19.894C24.2675 19.8425 24.1974 19.7957 24.1242 19.7541L23.8874 19.6572C23.7389 19.6107 23.5948 19.5513 23.4568 19.4796C23.3236 19.4083 23.2005 19.3196 23.0907 19.2158L22.757 18.8983C22.5417 18.6776 22.3426 18.4515 22.2188 18.2739C22.138 18.1824 22.0842 18.1124 22.0411 18.0532C22.0192 18.0219 21.9939 17.993 21.9658 17.9671C21.9401 17.9392 21.9258 17.9027 21.9258 17.8648C21.9258 17.8269 21.9401 17.7904 21.9658 17.7625H21.9604Z" fill="white"/>
<path d="M20.6961 27.8438C21.0892 27.9075 21.4884 27.9255 21.8856 27.8976C22.2833 27.8721 22.6778 27.8109 23.0644 27.7146C23.4482 27.616 23.8227 27.4845 24.184 27.3217C24.543 27.1625 24.887 26.9716 25.212 26.7511C25.5391 26.5334 25.8487 26.2905 26.1378 26.0245C26.4274 25.7592 26.6973 25.4732 26.9452 25.1687C27.1986 24.867 27.4341 24.5507 27.6503 24.2213C27.8549 23.8822 28.0702 23.5539 28.2478 23.1987C28.4254 22.8434 28.5923 22.4828 28.7861 22.1222C28.9798 21.7615 29.0821 21.3847 29.2167 21.008C29.3512 20.6312 29.4804 20.2544 29.5773 19.8669C29.6742 19.4793 29.7926 19.0972 29.8787 18.7042C29.9648 18.3113 30.0617 17.9238 30.1317 17.5255C30.2017 17.1272 30.2878 16.7396 30.3416 16.3359C30.3954 15.9322 30.4654 15.5393 30.5085 15.141L30.643 13.9353L32.4839 14.226C32.4085 14.7642 32.3493 15.3025 32.2955 15.8407C32.2416 16.379 32.1986 16.9172 32.1663 17.4932C32.1017 18.5966 32.0802 19.6946 32.1232 20.7765C32.1555 21.8343 32.2871 22.8867 32.5162 23.9199C32.62 24.3913 32.7659 24.8525 32.9521 25.2979C33.1169 25.6639 33.3508 25.9948 33.6411 26.2721C33.8625 26.4807 34.1461 26.6111 34.4485 26.6435C34.5255 26.649 34.6029 26.649 34.6799 26.6435H34.8037H35.0137C35.2603 26.6369 35.5065 26.6171 35.7511 26.5843C36.1931 26.5403 36.6285 26.4445 37.0483 26.299C37.4328 26.1549 37.7952 25.9574 38.1248 25.7123C38.5177 25.4486 39.0075 25.061 39.6319 24.7004C40.2597 24.3474 40.939 24.0949 41.645 23.9522C42.9109 23.7265 44.205 23.7065 45.4773 23.893L44.1371 25.9707C44.0671 25.82 43.9325 25.5831 43.8141 25.3894C43.6957 25.1956 43.5611 24.9857 43.4212 24.7919C43.1484 24.4013 42.848 24.0308 42.5223 23.6831C42.3608 23.5144 42.194 23.353 42.0217 23.1987C41.8495 23.048 41.6719 22.9026 41.4835 22.7681C41.2951 22.6335 41.1067 22.5205 40.9129 22.4074C40.7164 22.3028 40.5132 22.2111 40.3047 22.1329C40.2026 22.0932 40.0983 22.0591 39.9925 22.0307C39.8876 21.9937 39.7795 21.9666 39.6696 21.9499C39.45 21.902 39.2267 21.8732 39.0021 21.8638H38.6523L38.3078 21.9015C38.0684 21.9288 37.831 21.972 37.5973 22.0307C37.3556 22.0942 37.1182 22.1733 36.8868 22.2675C36.6446 22.3536 36.4185 22.472 36.1817 22.5797C35.9448 22.6873 35.7242 22.8327 35.4873 22.9564L34.8037 23.3871C34.7729 23.4047 34.7369 23.4112 34.7018 23.4056C34.6666 23.4 34.6345 23.3826 34.6106 23.3562C34.5868 23.3298 34.5726 23.2961 34.5706 23.2606C34.5685 23.2251 34.5786 23.19 34.5992 23.161C34.7714 22.9457 34.9509 22.7304 35.1375 22.5151C35.3257 22.3053 35.5251 22.1059 35.7349 21.9176C35.9443 21.7226 36.1674 21.5427 36.4024 21.3794C36.6366 21.2042 36.883 21.0459 37.1398 20.9057C37.4063 20.7596 37.6834 20.6336 37.9687 20.5289L38.41 20.389L38.8676 20.2921C39.1856 20.2356 39.508 20.2068 39.831 20.206C39.9922 20.1926 40.1543 20.1926 40.3155 20.206C40.4747 20.2124 40.6332 20.2322 40.7891 20.2652C41.1068 20.3181 41.4199 20.3955 41.7257 20.4966C42.0247 20.6001 42.3177 20.7205 42.603 20.8573C42.8816 20.9997 43.1529 21.1559 43.4158 21.3255C43.6742 21.4924 43.9541 21.6754 44.164 21.8638C44.638 22.2501 45.0758 22.6789 45.4719 23.1448C45.6765 23.3655 45.8702 23.597 46.0586 23.8392C46.2537 24.0901 46.4334 24.3525 46.5969 24.625C46.7246 24.8316 46.7947 25.0686 46.7999 25.3114C46.8052 25.5542 46.7454 25.794 46.6268 26.0059C46.5082 26.2179 46.3351 26.3942 46.1254 26.5167C45.9158 26.6392 45.6771 26.7034 45.4343 26.7027H45.2674C44.7291 26.7027 44.1909 26.7027 43.7226 26.7458C43.2546 26.7823 42.7902 26.8561 42.3339 26.9664C41.9354 27.0765 41.5534 27.2394 41.1982 27.4509C40.8376 27.6554 40.4393 27.9891 39.8956 28.3498C39.305 28.7527 38.6573 29.0648 37.9741 29.2756C37.3101 29.4667 36.6247 29.5734 35.9341 29.5931C35.6165 29.5931 35.229 29.5931 34.9706 29.5931H34.7607H34.61H34.4593C34.2525 29.5744 34.0473 29.5402 33.8456 29.4909C33.0186 29.3008 32.2682 28.8656 31.6926 28.2421C31.1998 27.6945 30.8177 27.0566 30.5677 26.3636C30.3279 25.7563 30.1476 25.1272 30.0294 24.4851C29.8362 23.2932 29.7533 22.0859 29.7818 20.8788C29.7818 19.6946 29.8895 18.532 30.0187 17.3801C30.0886 16.7988 30.164 16.2283 30.2609 15.6577C30.3578 15.0872 30.4546 14.522 30.5784 13.9299V13.8653C30.6018 13.7452 30.6485 13.6308 30.7161 13.5287C30.7836 13.4266 30.8706 13.3388 30.972 13.2703C31.0735 13.2019 31.1875 13.154 31.3074 13.1296C31.4273 13.1052 31.5509 13.1046 31.6711 13.1279C31.7913 13.1512 31.9057 13.198 32.0077 13.2655C32.1098 13.3331 32.1976 13.4201 32.2661 13.5215C32.3346 13.623 32.3824 13.7369 32.4068 13.8569C32.4313 13.9768 32.4318 14.1004 32.4085 14.2206L32.1824 15.4639C32.1125 15.8838 32.0102 16.2929 31.9241 16.7073C31.838 17.1218 31.7249 17.5308 31.6173 17.9399C31.5096 18.349 31.3912 18.7527 31.2674 19.1618C31.1436 19.5708 30.9929 19.9638 30.8476 20.3621C30.7022 20.7604 30.53 21.1533 30.3739 21.5516C30.2178 21.9499 30.0079 22.3213 29.8356 22.7035C29.6634 23.0856 29.432 23.457 29.1951 23.8177C28.9583 24.1783 28.7107 24.5282 28.4577 24.8942C28.1918 25.2338 27.9079 25.559 27.6073 25.8684C27.3068 26.1795 26.9849 26.4691 26.6438 26.735C26.3036 27.0021 25.9437 27.2432 25.5673 27.4563C24.4388 28.0976 23.1562 28.4177 21.8587 28.3821C21.4317 28.3709 21.0074 28.3113 20.5938 28.2044C20.5546 28.1959 20.5203 28.1721 20.4986 28.1382C20.4769 28.1044 20.4695 28.0634 20.4781 28.0241C20.4867 27.9849 20.5105 27.9506 20.5443 27.9289C20.5781 27.9072 20.6192 27.8998 20.6584 27.9084L20.6961 27.8438Z" fill="white"/>
<path d="M17.0192 41.0634C17.0216 41.083 17.0195 41.1029 17.0129 41.1216C17.0064 41.1403 16.9957 41.1572 16.9816 41.1711C16.9423 41.1763 16.9024 41.1763 16.8632 41.1711C16.6963 41.1711 16.4595 41.1711 16.1527 41.1711C15.8981 41.1861 15.6429 41.1861 15.3883 41.1711C15.313 41.1711 15.2753 41.1334 15.2753 41.058C15.2753 40.8373 15.2753 40.5198 15.3022 40.073C15.3291 39.6263 15.3345 39.3087 15.3345 39.088C15.3345 38.9804 15.3345 38.9212 15.243 38.905C14.9105 38.8696 14.576 38.857 14.2419 38.8673C13.9041 38.8574 13.566 38.87 13.2299 38.905C13.1707 38.905 13.1384 38.9804 13.1384 39.088C13.1384 39.3033 13.1384 39.6263 13.1384 40.0569C13.1384 40.4875 13.1384 40.8104 13.1384 41.0257C13.1416 41.0598 13.1317 41.0938 13.1107 41.1208C13.0897 41.1477 13.0592 41.1657 13.0254 41.1711C12.7672 41.1855 12.5085 41.1855 12.2503 41.1711C12.0119 41.1843 11.7729 41.1843 11.5344 41.1711C11.4537 41.1711 11.416 41.1118 11.416 41.0419C11.416 40.7405 11.416 40.2937 11.4591 39.6909C11.5021 39.088 11.5021 38.6143 11.5021 38.3345C11.5021 38.0546 11.5021 37.5325 11.4591 36.8919C11.416 36.2514 11.4214 35.767 11.4214 35.4494C11.4214 35.3902 11.4483 35.3579 11.5075 35.3579H11.8951H12.2826H12.6809H13.0792C13.1277 35.3579 13.1492 35.3579 13.1492 35.4333C13.1492 35.6378 13.1492 35.9715 13.1061 36.3644C13.0631 36.7574 13.0577 37.0857 13.0577 37.2902C13.0577 37.3871 13.0846 37.4463 13.1384 37.4625C13.4962 37.497 13.8558 37.5078 14.2149 37.4948C14.558 37.5053 14.9013 37.4945 15.243 37.4625C15.3076 37.4625 15.3399 37.3871 15.3399 37.2902C15.3399 37.0911 15.3399 36.795 15.313 36.3914C15.2861 35.9877 15.2861 35.6862 15.2861 35.4871C15.2861 35.401 15.3184 35.3579 15.3883 35.3579H15.7543H16.1257H16.4918H16.8632C16.9439 35.3579 16.9816 35.3902 16.9816 35.4548C16.9816 35.7724 16.9816 36.2514 16.9439 36.8919C16.9062 37.5325 16.9008 38.0169 16.9008 38.3345C16.9008 38.652 16.9008 39.088 16.9493 39.6909C16.9977 40.2937 17.0192 40.762 17.0192 41.0634Z" fill="white"/>
<path d="M24.9431 41.0851C24.9431 41.1389 24.9054 41.1712 24.8354 41.1928C24.5801 41.224 24.3227 41.2348 24.0657 41.2251C23.8123 41.2324 23.5586 41.2216 23.3068 41.1928C23.2611 41.1841 23.2193 41.1612 23.1874 41.1274C23.1555 41.0935 23.1351 41.0505 23.1291 41.0044C23.0968 40.7805 23.0219 40.5649 22.9085 40.3692C22.5373 40.3494 22.1654 40.3494 21.7943 40.3692C21.5458 40.3393 21.2946 40.3393 21.0461 40.3692C20.9643 40.5041 20.9111 40.6543 20.89 40.8106C20.8362 41.0421 20.7716 41.1659 20.7016 41.1874C20.3869 41.2189 20.0704 41.2297 19.7543 41.2197C19.3344 41.2197 19.1191 41.1766 19.1191 41.1013C19.1191 41.0259 19.4313 40.1432 20.0557 38.4531C20.7339 36.623 21.1017 35.6165 21.1591 35.4335C21.1914 35.3258 21.2291 35.272 21.2775 35.272H21.622C21.7386 35.2779 21.8553 35.2779 21.9719 35.272H22.3002H22.6232C22.677 35.272 22.7254 35.315 22.7685 35.4065C22.9031 35.6972 23.3068 36.693 23.9527 38.3885C24.5986 40.084 24.9431 41.0151 24.9431 41.0851ZM22.0042 37.3173C21.945 37.4411 21.8481 37.7049 21.7081 38.1086C21.6124 38.3546 21.5386 38.6085 21.4875 38.8675C21.4875 38.916 21.5682 38.9429 21.7351 38.9536H22.1549C22.3379 38.9536 22.4402 38.9321 22.4617 38.889C22.4649 38.8694 22.4649 38.8494 22.4617 38.8298C22.4224 38.5733 22.3593 38.3211 22.2733 38.0763C22.2017 37.8155 22.1118 37.5601 22.0042 37.312V37.3173Z" fill="white"/>
<path d="M30.8688 41.2624H29.9376H29.0118H27.7738H27.2356C27.2032 41.2597 27.1731 41.2449 27.1511 41.2209C27.1292 41.197 27.117 41.1656 27.1172 41.1332C27.1172 40.8317 27.1172 40.3796 27.1172 39.7822C27.1172 39.1847 27.1172 38.7056 27.1172 38.4258C27.1172 38.1459 27.1172 37.6291 27.0849 36.9886C27.0526 36.3481 27.058 35.869 27.058 35.5461C27.058 35.4869 27.0956 35.4546 27.1818 35.4546H27.5531H27.9192H28.3229H28.7319C28.7696 35.4546 28.7911 35.4815 28.7858 35.5299V35.5246C28.7481 36.0628 28.7158 36.8271 28.6727 37.866V38.9425C28.6727 39.2977 28.6727 39.5561 28.6727 39.7176C28.6727 39.7499 28.6727 39.7875 28.6727 39.8198C28.6751 39.8356 28.6829 39.85 28.6946 39.8608C28.7063 39.8716 28.7214 39.878 28.7373 39.879H28.845C29.0926 39.879 29.464 39.879 29.9591 39.8414C30.4543 39.8037 30.8688 39.8306 31.1164 39.8306C31.1917 39.8306 31.2294 39.8629 31.2294 39.9221C31.2345 40.332 31.1984 40.7413 31.1218 41.1439C31.1218 41.2193 31.0787 41.2624 31.0357 41.2731C30.9798 41.2759 30.9238 41.2723 30.8688 41.2624Z" fill="white"/>
<path d="M38.862 41.0851C38.862 41.1389 38.8243 41.1712 38.7543 41.1928C38.499 41.224 38.2416 41.2348 37.9846 41.2251C37.7312 41.2324 37.4776 41.2216 37.2257 41.1928C37.18 41.1841 37.1382 41.1612 37.1063 41.1274C37.0744 41.0935 37.054 41.0505 37.048 41.0044C37.0157 40.7805 36.9408 40.5649 36.8274 40.3692C36.4562 40.3494 36.0843 40.3494 35.7132 40.3692C35.4718 40.341 35.2279 40.341 34.9865 40.3692C34.9047 40.5041 34.8515 40.6543 34.8304 40.8106C34.7766 41.0421 34.712 41.1659 34.642 41.1874C34.3273 41.2189 34.0109 41.2297 33.6947 41.2197C33.2749 41.2197 33.0596 41.1766 33.0596 41.1013C33.0596 41.0259 33.3718 40.1432 33.9961 38.4531C34.6743 36.623 35.0421 35.6165 35.0996 35.4335C35.1319 35.3258 35.1695 35.272 35.218 35.272H35.5625C35.679 35.2779 35.7958 35.2779 35.9123 35.272H36.2407H36.5636C36.6174 35.272 36.6659 35.315 36.7089 35.4065C36.8489 35.6972 37.2436 36.6912 37.8931 38.3885C38.5426 40.0858 38.8655 40.9846 38.862 41.0851ZM35.9231 37.3173C35.8639 37.4411 35.767 37.7049 35.627 38.1086C35.5313 38.3546 35.4575 38.6085 35.4064 38.8675C35.4064 38.916 35.4871 38.9429 35.654 38.9536H36.063C36.246 38.9536 36.3483 38.9321 36.3698 38.889C36.3731 38.8694 36.3731 38.8494 36.3698 38.8298C36.3306 38.5733 36.2675 38.3211 36.1814 38.0763C36.1134 37.8158 36.027 37.5603 35.9231 37.312V37.3173Z" fill="white"/>
<path d="M44.788 41.2624H43.8569H42.9311H41.6931H41.1548C41.0741 41.2624 41.031 41.2031 41.031 41.1332C41.031 40.8317 41.031 40.3796 41.031 39.7822C41.031 39.1847 41.031 38.7056 41.031 38.4258C41.031 38.1459 41.031 37.6291 40.9987 36.9886C40.9664 36.3481 40.9987 35.869 40.9987 35.5461C40.9987 35.4869 41.0364 35.4546 41.1225 35.4546H41.4939H41.8599H42.2636H42.6727C42.7104 35.4546 42.7319 35.4815 42.7265 35.5299V35.5246C42.6942 36.0449 42.6566 36.8253 42.6135 37.866V38.9425C42.6135 39.2977 42.6135 39.5561 42.6135 39.7176V39.8306C42.6159 39.8463 42.6236 39.8608 42.6354 39.8716C42.6471 39.8823 42.6622 39.8888 42.6781 39.8898H42.7857C43.0333 39.8898 43.4047 39.8898 43.9053 39.8521C44.4059 39.8145 44.788 39.8306 45.0356 39.8306C45.111 39.8306 45.1487 39.8629 45.1487 39.9221C45.1537 40.332 45.1177 40.7413 45.041 41.1439C45.041 41.2193 44.998 41.2624 44.9549 41.2731C44.899 41.2759 44.8431 41.2723 44.788 41.2624Z" fill="white"/>
</g>
<defs>
<clipPath id="clip0_4579_16702">
<rect width="56" height="56" fill="white"/>
</clipPath>
</defs>
</svg>
