<svg width="24" height="25" viewBox="0 0 24 25" fill="none" xmlns="http://www.w3.org/2000/svg">
<g clipPath="url(#clip0_4567_11055)">
<path d="M23.9963 11.5757C23.9353 11.3932 23.8951 11.2043 23.8763 11.0126C23.8595 10.8919 23.8421 10.7668 23.8141 10.6436C23.8 10.5817 23.7899 10.519 23.7836 10.4559C23.776 10.3247 23.7406 10.1967 23.6797 10.0805C23.6873 9.9983 23.6767 9.9154 23.6486 9.8378C23.6356 9.79701 23.6263 9.75514 23.6206 9.71268C23.5794 9.50024 23.5182 9.29223 23.4378 9.09148L23.3886 8.95635C23.3219 8.67366 23.2146 8.40224 23.0702 8.1506C23.0382 8.00201 22.9803 7.86031 22.8991 7.73208C22.873 7.68516 22.8462 7.63762 22.8226 7.58945C22.793 7.49514 22.7478 7.40652 22.6889 7.32733C22.6538 7.27704 22.6226 7.22413 22.5956 7.16905C22.5444 7.03569 22.4728 6.91116 22.3835 6.79996C22.3586 6.76492 22.3337 6.73052 22.3101 6.69549C22.269 6.57901 22.2042 6.47246 22.1197 6.38269C22.0893 6.34641 22.0575 6.30825 22.0302 6.26946C21.9895 6.15956 21.9229 6.06123 21.8361 5.98294C21.8075 5.95292 21.7783 5.92039 21.7521 5.89036C21.7071 5.7822 21.6397 5.68494 21.5543 5.60509L21.5089 5.55692C21.4226 5.42719 21.3204 5.30887 21.2048 5.20472L21.1824 5.18282C21.1325 5.08706 21.0585 5.00616 20.9678 4.94823C20.911 4.91004 20.8604 4.86318 20.8179 4.80935C20.7016 4.64264 20.5577 4.49727 20.3924 4.37957C20.2806 4.25443 20.1541 4.1435 20.0155 4.04926C19.9245 3.95111 19.8197 3.86682 19.7045 3.79903C19.6398 3.72512 19.5612 3.66493 19.4731 3.62199C19.4489 3.60822 19.4246 3.59446 19.4016 3.57945C19.3476 3.50965 19.2755 3.45619 19.1932 3.42493C19.1677 3.41242 19.1435 3.40115 19.1204 3.38739C19.0421 3.30226 18.9458 3.23579 18.8387 3.19284C18.7167 3.09173 18.5796 3.01065 18.4325 2.95261C18.3321 2.86978 18.2174 2.80618 18.0941 2.76493C17.9817 2.68082 17.8553 2.61729 17.7209 2.57726C17.6331 2.5172 17.5366 2.47119 17.4348 2.44088C17.3894 2.42524 17.3421 2.40835 17.3036 2.39146C17.1415 2.29829 16.9673 2.22839 16.7861 2.18377C16.6699 2.11986 16.5436 2.07648 16.4129 2.05552C16.3111 2.00058 16.1994 1.96655 16.0844 1.95543C15.9835 1.8988 15.8703 1.86767 15.7548 1.86472C15.6802 1.82738 15.5995 1.80406 15.5166 1.7959L15.4724 1.7884C15.4481 1.78277 15.4239 1.77588 15.4002 1.769C15.3003 1.73451 15.1949 1.71861 15.0892 1.72208L14.7664 1.65014L14.3478 1.59572C14.3092 1.59071 14.2707 1.58383 14.2296 1.57632C14.1137 1.55046 13.9948 1.54099 13.8763 1.54817L13.6026 1.53941C13.3356 1.48952 13.062 1.48698 12.794 1.53191C12.7756 1.52506 12.7553 1.52506 12.7368 1.53191H12.6168C12.4215 1.52065 12.2256 1.53771 12.0352 1.58258H11.9637C11.858 1.5736 11.7517 1.58878 11.6527 1.62699H11.5986C11.5091 1.62137 11.4195 1.63724 11.3373 1.67329C11.2414 1.6682 11.1456 1.68621 11.058 1.72584C10.9144 1.73106 10.7729 1.76199 10.64 1.81717C10.5577 1.81362 10.4759 1.83219 10.4031 1.87097C10.2897 1.88263 10.1793 1.91462 10.0771 1.96544C9.93058 1.98409 9.78869 2.02969 9.65852 2.09994C9.56965 2.10412 9.48361 2.13268 9.40972 2.18251L9.37116 2.19378C9.25175 2.22013 9.13772 2.26689 9.03403 2.33203L8.97556 2.3508C8.87693 2.37758 8.78311 2.4198 8.69753 2.47591L8.67265 2.48405C8.64469 2.49145 8.61742 2.50129 8.59116 2.51345C6.04655 3.71958 4.19236 5.64138 3.08084 8.2288C2.89039 8.6895 2.72734 9.16119 2.59256 9.64137L1.9407 8.65419C1.71803 8.31763 1.41511 8.14684 1.03382 8.14684C0.564831 8.14684 0.229571 8.39332 0.00875985 8.89317L0.00378418 9.5469L0.013736 9.56254L0.646313 10.5297L0.69483 10.6048C1.22913 11.4224 1.78147 12.2682 2.32821 13.0977C2.51481 13.3805 2.76361 13.5607 3.04663 13.6182C3.1896 13.644 3.33625 13.6406 3.47791 13.6084C3.61957 13.5761 3.75337 13.5157 3.8714 13.4305C4.92881 12.7236 6.0254 11.9792 7.13692 11.2185C7.25578 11.1393 7.35783 11.0373 7.43716 10.9182C7.5165 10.7991 7.57153 10.6653 7.59907 10.5247C7.62429 10.3873 7.62211 10.2463 7.59263 10.1098C7.56316 9.97329 7.50699 9.84404 7.4274 9.72957C7.09587 9.24349 6.46578 9.12713 5.96071 9.45869C5.6721 9.64637 5.38163 9.84656 5.10048 10.0386C4.94871 10.1418 4.79756 10.2451 4.64517 10.3477C4.62714 10.3602 4.60785 10.3714 4.58733 10.3833C4.95202 9.00373 5.64374 7.73362 6.60324 6.68172C7.14687 6.07928 7.80495 5.54253 8.67389 4.99264C8.77587 4.95955 8.87081 4.90756 8.95379 4.83937L9.28221 4.67172L9.64919 4.50906L9.97201 4.37519L10.5318 4.18752L10.8515 4.09618L10.9075 4.08742C11.0028 4.07767 11.0959 4.05231 11.1831 4.01235C11.3418 4.00479 11.4985 3.97381 11.6483 3.92039L12.1496 3.85783L12.5583 3.82342L12.9788 3.81592H13.3047L13.7121 3.82718C13.8435 3.86569 13.9806 3.88052 14.117 3.87097H14.1338L14.5381 3.93353C14.5981 3.96266 14.6646 3.97539 14.731 3.97044H14.7745C14.9084 4.02263 15.0493 4.05427 15.1925 4.06427C15.2965 4.11265 15.408 4.1429 15.5221 4.15373C15.6223 4.20639 15.731 4.2405 15.8431 4.25445C15.929 4.30351 16.023 4.33657 16.1205 4.35204L16.5416 4.5197L16.9571 4.71864L17.326 4.90631L17.6992 5.12276L18.068 5.36862L18.4412 5.63574L18.7578 5.89223L19.0446 6.14747L19.3139 6.40334L19.6 6.70737L19.9645 7.13652L20.38 7.69955L20.7028 8.21503L20.974 8.72551C21.0062 8.85651 21.0589 8.98152 21.1301 9.09586C21.1544 9.13965 21.1818 9.18907 21.2029 9.23161L21.494 10.0217L21.7235 10.9157C21.8449 11.6491 21.8961 12.3926 21.8765 13.1359C21.8325 13.713 21.7479 14.2862 21.6234 14.8512L21.2664 15.9773L20.8994 16.773L20.5691 17.3573L20.2089 17.8941L19.8849 18.312L19.4215 18.8243L18.9027 19.3279L18.5295 19.6407L18.1657 19.9097L17.7956 20.165C17.7061 20.1965 17.6242 20.2469 17.5555 20.3126L17.1935 20.5103L16.7313 20.7411L16.2673 20.9326L15.8468 21.0896L15.4817 21.2022L15.1147 21.296L15.0575 21.3041H15.0507C14.9434 21.3125 14.8382 21.3389 14.7397 21.3823C14.6411 21.379 14.5426 21.3917 14.4479 21.4199L14.3708 21.438L14.0542 21.4824H14.0063C13.903 21.4716 13.7986 21.4844 13.7009 21.52L13.3993 21.5312H13.026L12.5701 21.5219C12.4491 21.486 12.3226 21.4733 12.1969 21.4843L11.8691 21.4399L11.4592 21.3773C11.3234 21.3231 11.1792 21.293 11.0332 21.2885C10.9888 21.2772 10.9455 21.2619 10.9038 21.2428C10.8308 21.2063 10.7513 21.185 10.6699 21.1803C10.5958 21.1397 10.5144 21.1144 10.4304 21.1058L10.0224 20.9651L9.69709 20.8356L9.28034 20.6479L8.90714 20.4565L8.5893 20.2763C8.47528 20.1791 8.34869 20.0979 8.21299 20.0348L7.83978 19.764L7.47342 19.4756C6.85713 18.9215 6.30238 18.3019 5.81889 17.6276C5.50789 17.2022 4.86536 17.1171 4.41068 17.4399C3.94107 17.7752 3.81293 18.3971 4.11958 18.8556C4.90292 20.0411 5.92178 21.0507 7.11204 21.8209C7.22619 21.9201 7.35451 22.0015 7.49271 22.0624C7.61922 22.1622 7.75991 22.2423 7.91007 22.3001C8.01905 22.388 8.14417 22.4535 8.2783 22.4928C8.36285 22.56 8.46123 22.6074 8.56628 22.6316C8.69675 22.7175 8.84054 22.781 8.99173 22.8193C9.10591 22.891 9.23254 22.9402 9.36494 22.9644C9.49363 23.0368 9.63412 23.0856 9.77981 23.1083C9.86853 23.1602 9.96792 23.1908 10.0703 23.1978C10.1846 23.2543 10.3085 23.2885 10.4354 23.2985C10.5582 23.3524 10.6897 23.3831 10.8235 23.3892L10.8546 23.4005C10.9787 23.4556 11.1135 23.4817 11.249 23.4768C11.3652 23.5168 11.4877 23.5348 11.6104 23.53C11.7093 23.5686 11.8156 23.5842 11.9214 23.5756H11.991C12.1149 23.616 12.2458 23.6301 12.3754 23.6169H12.4215L12.72 23.6251C12.7919 23.6569 12.8722 23.6637 12.9483 23.6445C13.0423 23.6546 13.1368 23.6598 13.2313 23.6601C13.3522 23.661 13.4729 23.6493 13.5914 23.6251L13.913 23.6138C14.0281 23.6272 14.1447 23.6148 14.2545 23.5775H14.2999C14.3954 23.5856 14.4915 23.572 14.5811 23.5375C14.7212 23.539 14.8606 23.5179 14.9941 23.4749C15.1243 23.4716 15.2529 23.4454 15.3741 23.3974C15.521 23.3907 15.6653 23.3563 15.7996 23.296C15.9297 23.2888 16.0569 23.254 16.1728 23.194C16.3689 23.1603 16.5592 23.0988 16.7382 23.0114C16.8685 22.9886 16.9935 22.9412 17.1064 22.8719L17.1754 22.8493H17.1835C17.32 22.812 17.4507 22.7555 17.5717 22.6817C17.6483 22.6711 17.7199 22.6368 17.7763 22.5835C17.8084 22.5636 17.8435 22.549 17.8802 22.5403C17.9474 22.5259 18.0093 22.4927 18.0587 22.4446C18.1035 22.4208 18.1532 22.3995 18.1974 22.382C18.299 22.345 18.3937 22.2913 18.4779 22.2231C18.5327 22.1896 18.5892 22.159 18.6471 22.1312C18.7597 22.0824 18.8633 22.0149 18.9537 21.9316C19.1039 21.8623 19.2422 21.7697 19.3636 21.657L19.4445 21.6044C19.582 21.5229 19.7095 21.4254 19.8245 21.3142L19.8955 21.2654C19.9983 21.2056 20.087 21.1241 20.1555 21.0264C20.2839 20.9562 20.397 20.8609 20.4882 20.7461C20.6291 20.6399 20.7558 20.5159 20.8652 20.377L20.8788 20.3651C20.9985 20.2741 21.1006 20.1617 21.1799 20.0336C21.2193 19.9853 21.2619 19.9397 21.3074 19.8972C21.3861 19.8289 21.4529 19.7479 21.5052 19.6576L21.7919 19.2823C21.8392 19.2141 21.8946 19.1484 21.9487 19.0833C22.0606 18.9605 22.1547 18.8224 22.228 18.6729C22.384 18.4655 22.519 18.243 22.631 18.0086C22.6702 17.9266 22.7162 17.8465 22.761 17.769C22.8438 17.6366 22.9118 17.4954 22.9638 17.3479L23.1143 16.9726L23.3134 16.4659C23.5846 15.8447 23.7264 15.1847 23.8489 14.5622C23.8725 14.4409 23.885 14.3176 23.8962 14.1975C23.9071 14.0082 23.9413 13.8209 23.9982 13.6401L24.0019 11.5963L23.9963 11.5757Z" />
<path d="M14.0511 7.50536C14.0614 7.34494 14.0163 7.18586 13.9236 7.05494C13.8496 6.85999 13.7017 6.70251 13.5124 6.61703C13.4731 6.6011 13.4347 6.58293 13.3974 6.5626C13.3013 6.49913 13.1874 6.46862 13.0727 6.47565H13.0416C12.9328 6.45364 12.8198 6.46884 12.7206 6.51881C12.5737 6.54074 12.4376 6.60961 12.3325 6.71525C12.2101 6.80186 12.1105 6.91722 12.0424 7.05131C11.9743 7.1854 11.9398 7.33417 11.9419 7.48471C11.9375 8.39869 11.9419 9.32769 11.9419 10.2292V10.3117V11.2201C11.9419 11.3531 11.9419 11.486 11.9419 11.6186C11.9419 11.9539 11.9381 12.2998 11.9419 12.642C11.9408 12.8165 11.996 12.9866 12.0992 13.1269C12.1874 13.2771 12.3036 13.4088 12.4413 13.5147L12.7343 13.8069L13.5429 14.6427L13.8738 14.9686L14.1942 15.3008L14.5176 15.6211C14.5812 15.7159 14.6618 15.7979 14.7552 15.8632C14.8485 15.9868 14.9576 16.0975 15.0799 16.1922C15.1785 16.3332 15.3073 16.4502 15.4568 16.5344C15.5915 16.6348 15.7551 16.6884 15.9227 16.6871C15.9503 16.6873 15.978 16.6859 16.0054 16.6827C16.103 16.695 16.2021 16.6874 16.2967 16.6606C16.3914 16.6337 16.4797 16.5881 16.5565 16.5263C16.8675 16.308 17.0479 16.0133 17.0647 15.6968C17.0827 15.3677 16.9241 15.0387 16.6206 14.7715L16.2536 14.3993C16.1397 14.2497 16.0081 14.1147 15.8618 13.9971C15.7542 13.8561 15.6287 13.7299 15.4885 13.6217C15.4127 13.5076 15.3168 13.4084 15.2055 13.3289L15.1688 13.2989C15.1398 13.2325 15.0888 13.1784 15.0245 13.1456C14.9877 13.1267 14.9564 13.0985 14.9337 13.0637C14.8321 12.9172 14.708 12.7877 14.5661 12.6802C14.4873 12.569 14.3909 12.4715 14.2806 12.3918C14.1046 12.2473 14.0349 12.0615 14.0548 11.79C14.0651 11.605 14.0651 11.4195 14.0548 11.2345C14.0517 11.1544 14.0492 11.0743 14.048 10.9955V10.1366C14.0511 9.27451 14.0542 8.38243 14.0511 7.50536Z" />
</g>
<defs>
<clipPath id="clip0_4567_11055">
<rect width="24" height="24" fill="white" transform="translate(0 0.5)"/>
</clipPath>
</defs>
</svg>
