<svg width="22" height="22" fill="none" xmlns="http://www.w3.org/2000/svg"><path d="M0 10.689a.176.176 0 0 1 0 .234v-.234ZM0 11.118a.177.177 0 0 1 0 .234v-.234ZM0 10.336c.065.023.03.074.032.115-.009.021-.02.021-.032.003v-.118ZM0 11.47c.047.04.06.079 0 .118v-.118Z" fill="currentColor"/><path d="M0 10.454a.161.161 0 0 1 .032-.003c.008.034.008.066-.032.081v-.078Z" fill="currentColor"/><path d="M20 10.376v-.156c-.038-.204-.02-.413-.049-.616a9.856 9.856 0 0 0-1.25-3.631 10.139 10.139 0 0 0-6.535-4.79c-.456-.104-.92-.143-1.386-.181H9.14a.08.08 0 0 1-.051.02c-.938.022-1.824.265-2.692.597A9.912 9.912 0 0 0 2.35 4.494 10.03 10.03 0 0 0 .17 8.891c-.092.413-.122.834-.17 1.25v.196c.032.032.017.073.02.11.005.037.007.062-.02.086v.156a.296.296 0 0 1 0 .234v.196a.296.296 0 0 1 0 .234v.117a.088.088 0 0 1 0 .118v.234c.04.19.024.387.048.578a9.694 9.694 0 0 0 .971 3.117 10.118 10.118 0 0 0 6.908 5.323c.401.088.808.11 1.213.16h1.64c.217-.042.438-.023.655-.052a9.84 9.84 0 0 0 3.263-1.064 10.089 10.089 0 0 0 5.132-6.773c.09-.412.122-.83.169-1.25v-1.485ZM9.99 18.5c-4.144-.007-7.502-3.379-7.49-7.518.013-4.14 3.378-7.489 7.51-7.483 4.143.008 7.502 3.38 7.49 7.52-.013 4.138-3.377 7.489-7.51 7.481Z" fill="currentColor"/><path d="M11.25 11.037c-.004-.726-.542-1.282-1.24-1.286-.708-.005-1.257.55-1.258 1.284a646.887 646.887 0 0 0 0 3.67c0 .739.54 1.294 1.25 1.294s1.247-.556 1.25-1.293v-1.815c-.002-.618-.002-1.236-.002-1.854ZM9.981 8.5a1.25 1.25 0 1 0 .037-2.502A1.25 1.25 0 0 0 9.981 8.5Z" fill="currentColor"/></svg>
