<svg width="25" height="24" viewBox="0 0 25 24" fill="none" xmlns="http://www.w3.org/2000/svg">
<g clipPath="url(#clip0_4483_16346)">
<path d="M12.0097 1.19319C12.0097 1.50217 11.9969 1.81266 12.0142 2.12089C12.0254 2.32989 11.9736 2.3998 11.748 2.40807C9.4175 2.48701 7.37865 3.31022 5.66383 4.87468C3.29571 7.03456 2.14547 9.72972 2.46949 12.9383C2.77622 15.9695 4.3046 18.3226 6.82233 20.0134C8.67323 21.2576 10.7384 21.7891 12.9584 21.5433C15.7896 21.2298 18.0457 19.8683 19.7425 17.5941C20.9072 16.0504 21.5565 14.1793 21.5987 12.2459C21.6047 12.0309 21.6686 11.9881 21.8701 11.9926C22.4978 12.0061 23.1263 12.0091 23.7533 11.9926C23.9788 11.9858 24.0082 12.0565 24.0021 12.258C23.9134 15.238 22.8354 17.8212 20.8446 20.0134C18.8539 22.2056 16.3888 23.5317 13.4508 23.9031C10.5128 24.2745 7.80868 23.5889 5.37515 21.9214C2.75217 20.1247 1.01479 17.6791 0.311118 14.5614C-0.446682 11.198 0.208123 8.08631 2.1575 5.2626C3.81669 2.85689 6.0713 1.24656 8.88298 0.433131C9.82932 0.161916 10.8073 0.0168213 11.7916 0.00160685C11.9924 -0.00215208 12.0172 0.0685162 12.0127 0.236916C12.0014 0.554922 12.0097 0.874431 12.0097 1.19319Z" fill="#9B3D30"/>
</g>
<defs>
<clipPath id="clip0_4483_16346">
<rect width="24" height="23.9985" fill="white" transform="translate(0.00390625 0.00146484)"/>
</clipPath>
</defs>
</svg>
