<svg width="68" height="68" viewBox="0 0 68 68" fill="none" xmlns="http://www.w3.org/2000/svg">
<g clipPath="url(#clip0_15_724)">
<path d="M48.8352 19.1307C41.4119 11.696 33.9772 6.27869 33.9772 6.27869C33.9772 6.27869 26.5539 11.696 19.1192 19.1307C11.6959 26.5654 6.27856 34 6.27856 34C6.27856 34 11.6959 41.4347 19.1192 48.8694C26.5426 56.304 33.9772 61.7214 33.9772 61.7214C33.9772 61.7214 41.4006 56.304 48.8352 48.8694C56.2586 41.4347 61.6759 34 61.6759 34C61.6759 34 56.2699 26.5654 48.8352 19.1307Z" fill="white"/>
<path d="M52.2127 15.7647C43.0893 6.64133 33.9773 0 33.9773 0C33.9773 0 24.8653 6.64133 15.7533 15.7647C6.64133 24.8767 0 34 0 34C0 34 6.64133 43.1233 15.7533 52.2353C24.8653 61.3587 33.9773 68 33.9773 68C33.9773 68 43.0893 61.3587 52.2013 52.2353C61.3133 43.112 67.9547 34 67.9547 34C67.9547 34 61.3133 24.8767 52.2013 15.7647M42.3867 42.4773C38.1253 46.75 33.8527 49.8553 33.8527 49.8553V45.5147C28.084 45.5147 23.052 44.7327 23.052 44.7327C23.052 44.7327 22.27 39.7347 22.27 33.9433C22.27 28.1633 23.0633 23.154 23.0633 23.154C23.0633 23.154 28.0613 22.372 33.8527 22.3607V18.02C33.8527 18.02 38.114 21.1253 42.3867 25.398C46.648 29.6707 49.7647 33.932 49.7647 33.932C49.7647 33.932 46.6593 38.2047 42.398 42.466" fill="#3598DB"/>
</g>
<defs>
<clipPath id="clip0_15_724">
<rect width="67.966" height="68" fill="white"/>
</clipPath>
</defs>
</svg>
