<svg width="68" height="68" viewBox="0 0 68 68" fill="none" xmlns="http://www.w3.org/2000/svg">
<g clipPath="url(#clip0_15_718)">
<path d="M48.8352 19.1307C41.4119 11.696 33.9772 6.27869 33.9772 6.27869C33.9772 6.27869 26.5539 11.696 19.1192 19.1307C11.6959 26.5654 6.27856 34 6.27856 34C6.27856 34 11.6959 41.4347 19.1192 48.8694C26.5426 56.304 33.9772 61.7214 33.9772 61.7214C33.9772 61.7214 41.4006 56.304 48.8352 48.8694C56.2586 41.4347 61.6759 34 61.6759 34C61.6759 34 56.2699 26.5654 48.8352 19.1307Z" fill="white"/>
<path d="M52.2127 15.7647C43.0893 6.64133 33.9773 0 33.9773 0C33.9773 0 24.8653 6.64133 15.7533 15.7647C6.64133 24.8767 0 34 0 34C0 34 6.64133 43.1233 15.7533 52.2353C24.8653 61.3587 33.9773 68 33.9773 68C33.9773 68 43.0893 61.3587 52.2013 52.2353C61.3133 43.112 67.9547 34 67.9547 34C67.9547 34 61.3133 24.8767 52.2013 15.7647M45.2653 39.7573C45.0387 43.3387 44.642 45.9113 44.642 45.9113C44.642 45.9113 39.6893 46.6933 33.9547 46.682C28.22 46.682 23.2673 45.9 23.2673 45.9C23.2673 45.9 22.8707 43.3613 22.644 39.814C19.3913 38.8507 16.966 35.904 16.83 32.334C16.66 27.846 20.1507 24.072 24.6387 23.902C25.3527 23.8793 26.044 23.936 26.7013 24.0833C27.9933 21.5333 30.5887 19.7427 33.6487 19.618C36.9127 19.4933 39.7913 21.3067 41.1853 24.0267C41.6613 23.9247 42.1487 23.8567 42.6473 23.834C47.1353 23.664 50.9093 27.1547 51.0793 31.6427C51.2267 35.428 48.756 38.7147 45.2767 39.746" fill="#3AAA35"/>
</g>
<defs>
<clipPath id="clip0_15_718">
<rect width="67.966" height="68" fill="white"/>
</clipPath>
</defs>
</svg>
