<svg xmlns="http://www.w3.org/2000/svg" width="56" height="56" viewBox="0 0 62 62" fill="none">
<g clipPath="url(#clip0_50_372)">
<path d="M44.5263 17.4426C37.7579 10.6639 30.9793 5.72461 30.9793 5.72461C30.9793 5.72461 24.2109 10.6639 17.4323 17.4426C10.6639 24.2213 5.72461 30.9999 5.72461 30.9999C5.72461 30.9999 10.6639 37.7786 17.4323 44.5573C24.2006 51.3359 30.9793 56.2753 30.9793 56.2753C30.9793 56.2753 37.7476 51.3359 44.5263 44.5573C51.2946 37.7786 56.234 30.9999 56.234 30.9999C56.234 30.9999 51.305 24.2213 44.5263 17.4426Z" fill="white"/>
<path d="M47.6057 14.3737C39.2873 6.05533 30.9793 0 30.9793 0C30.9793 0 22.6713 6.05533 14.3633 14.3737C6.05534 22.6817 0 31 0 31C0 31 6.05534 39.3183 14.3633 47.6263C22.6713 55.9447 30.9793 62 30.9793 62C30.9793 62 39.2873 55.9447 47.5953 47.6263C55.9034 39.308 61.9587 31 61.9587 31C61.9587 31 55.9034 22.6817 47.5953 14.3737M41.2713 36.2493C41.0647 39.5147 40.703 41.8603 40.703 41.8603C40.703 41.8603 36.1873 42.5733 30.9587 42.563C25.73 42.563 21.2143 41.85 21.2143 41.85C21.2143 41.85 20.8527 39.5353 20.646 36.301C17.6803 35.4227 15.469 32.736 15.345 29.481C15.19 25.389 18.3727 21.948 22.4647 21.793C23.1157 21.7723 23.746 21.824 24.3453 21.9583C25.5233 19.6333 27.8897 18.0007 30.6797 17.887C33.6557 17.7733 36.2803 19.4267 37.5513 21.9067C37.9853 21.8137 38.4297 21.7517 38.8843 21.731C42.9763 21.576 46.4173 24.7587 46.5723 28.8507C46.7067 32.302 44.454 35.2987 41.2817 36.239" fill="#3AAA35"/>
</g>
<defs>
<clipPath id="clip0_50_372">
<rect width="61.969" height="62" fill="white"/>
</clipPath>
</defs>
</svg>