<svg width="70" height="68" viewBox="0 0 70 68" fill="none" xmlns="http://www.w3.org/2000/svg">
<g clipPath="url(#clip0_15_730)">
<path d="M34.9273 53.7406C45.8297 53.7406 54.6679 44.9024 54.6679 34C54.6679 23.0976 45.8297 14.2594 34.9273 14.2594C24.0248 14.2594 15.1866 23.0976 15.1866 34C15.1866 44.9024 24.0248 53.7406 34.9273 53.7406Z" fill="white"/>
<path d="M53.6582 15.7636C44.303 6.65576 34.9273 0 34.9273 0C34.9273 0 25.5515 6.65576 16.1964 15.7636C6.82061 24.8715 0 34 0 34C0 34 6.82061 43.1285 16.1964 52.2364C25.5515 61.3648 34.9273 68 34.9273 68C34.9273 68 44.2824 61.3442 53.6582 52.2364C63.0133 43.1079 69.8546 34 69.8546 34C69.8546 34 63.0339 24.8715 53.6582 15.7636ZM43.5612 42.4897C39.1927 46.7345 34.8449 49.8255 34.8449 49.8255C34.8449 49.8255 30.4764 46.7345 26.1285 42.4897C24.6242 41.0267 23.2436 39.543 22.0897 38.2448H47.5794C46.4255 39.543 45.0655 41.0267 43.5406 42.4897M21.1418 35.0303C21.4921 32.9285 22.337 30.9709 23.5527 29.3018V29.2812C23.5527 29.2812 25.7576 26.2521 28.8073 23.223C31.7127 20.3382 34.5976 18.1952 34.8655 17.9891C35.463 18.9988 36.7406 21.3891 37.2145 24.0473C37.6679 26.6642 36.4933 28.4982 36.4933 28.4982C36.4933 28.4982 40.0582 25.8194 42.0982 24.377C44.5503 26.9733 46.2194 29.2812 46.2194 29.2812C47.4764 30.9915 48.3418 32.8667 48.6921 35.0303H21.1418Z" fill="#C91100"/>
</g>
<defs>
<clipPath id="clip0_15_730">
<rect width="69.8752" height="68" fill="white"/>
</clipPath>
</defs>
</svg>
