<svg width="23" height="17" fill="none" xmlns="http://www.w3.org/2000/svg"><g clipPath="url(#clip0_2548_2339)" fill="currentColor"><path d="M0 1.304a.225.225 0 00.04-.007.639.639 0 010 .64L.018 1.93h-.021L0 1.304zM.038 8.747h-.02L0 8.74v-.484l.016-.017.02.009a.409.409 0 01.002.5zM.037 15.704l-.02.004L0 15.696v-.484l.016-.017.02.01a.407.407 0 01.001.498zM13.664 6.954h7.814c.775 0 1.354.489 1.493 1.245.169.935-.45 1.772-1.364 1.84-.06.005-.12.005-.18.005H5.893c-.763 0-1.305-.403-1.505-1.113a1.649 1.649 0 01.187-1.298 1.48 1.48 0 01.456-.462c.182-.116.385-.187.596-.208.104-.01.209-.01.314-.01h7.724zM12.938 3.09H5.865c-.726 0-1.269-.4-1.464-1.067A1.643 1.643 0 014.556.707C4.672.514 4.827.35 5.01.23c.183-.12.388-.195.6-.218.09-.01.18-.014.269-.013h14.146c.742 0 1.286.41 1.483 1.11a1.645 1.645 0 01-.148 1.229c-.103.182-.24.34-.402.462a1.38 1.38 0 01-.541.25c-.148.027-.297.04-.447.037-2.344.002-4.688.003-7.03.001zM10.412 16.994h-4.56c-.735 0-1.279-.423-1.473-1.124a1.651 1.651 0 01.194-1.289c.118-.186.273-.343.453-.458.18-.115.383-.186.592-.208.081-.007.164-.009.246-.009h9.138c.692 0 1.239.385 1.441 1.003.347 1.064-.343 2.08-1.427 2.085-1.535.005-3.07 0-4.604 0z"/><path d="M.038 8.748V8.25c.06-.379.248-.72.53-.959.28-.238.633-.356.99-.33.687.052 1.38.773 1.333 1.61-.038.693-.583 1.406-1.197 1.47-.826.087-1.517-.454-1.656-1.293zM.037 15.702v-.5c.052-.36.223-.689.48-.926.259-.237.588-.367.927-.366.737.012 1.291.52 1.42 1.234.172.953-.4 1.702-1.12 1.829-.891.157-1.57-.445-1.707-1.271zM.041 1.937v-.641C.158.526.811-.046 1.513.007c.775.06 1.319.69 1.373 1.525.042.626-.509 1.434-1.272 1.549C.83 3.199.127 2.523.04 1.937z"/></g><defs><clipPath id="clip0_2548_2339"><path fill="currentColor" d="M0 0h23v17H0z"/></clipPath></defs></svg>
