<!-- <svg width="160" height="43" viewBox="0 0 160 43" fill="none" xmlns="http://www.w3.org/2000/svg"> -->



<!--<svg width="239" height="48" viewBox="0 0 239 48" fill="none" xmlns="http://www.w3.org/2000/svg">
<path d="M36.8558 11.1273C32.829 7.12515 28.5295 3.40714 23.9882 0C14.8695 6.79376 6.78865 14.8791 0 24.0016C6.78753 33.1241 14.8685 41.2085 23.9882 47.9998C28.5299 44.5945 32.8295 40.8775 36.8558 36.8759C40.8559 32.8468 44.5717 28.5451 47.9763 24.0016C44.5717 19.4581 40.8559 15.1563 36.8558 11.1273ZM24.6735 24.8684C24.6735 24.8684 23.2927 25.0834 21.4516 25.1741V33.0862H18.4111V25.1775C16.5465 25.0868 15.1421 24.865 15.1421 24.865C14.9192 23.2868 14.807 21.6949 14.8061 20.101C14.8081 18.506 14.9204 16.9131 15.1421 15.3336C15.1421 15.3336 15.8712 15.2362 16.8387 15.1455V18.8781H18.4648V15.0312C18.9688 15.0044 19.3518 14.9876 19.9061 14.9876C20.4605 14.9876 20.951 14.9876 21.455 15.0312V18.8781H23.0777V15.1455C24.0486 15.2395 24.6735 15.337 24.6735 15.337C25.1372 18.4972 25.1372 21.7082 24.6735 24.8684ZM30.2305 23.9747L30.1229 24.0822V33.0694H27.0824V14.9741L27.1698 15.0245C28.2617 15.847 29.2945 16.7451 30.2607 17.7123C31.2287 18.6991 32.1268 19.7521 32.9484 20.8637C32.1126 21.9672 31.2011 23.0112 30.2204 23.9882" fill="#FA7305"/>
<path d="M89.63 1.75712C89.929 10.2773 89.929 18.831 89.63 27.3512C85.6651 27.6049 81.6881 27.6049 77.7233 27.3512V17.3595H76.9673L72.0823 27.3512C68.1008 27.6083 64.1068 27.6083 60.1252 27.3512C59.8228 18.831 59.8228 10.2773 60.1252 1.75712C64.1068 1.5001 68.1008 1.5001 72.0823 1.75712V11.8362H72.8349L77.7266 1.75712C81.6914 1.50177 85.6685 1.50177 89.6333 1.75712M92.7007 1.75712C92.3984 5.04155 92.3984 8.3468 92.7007 11.6312L98.9934 11.5472V27.3378C102.987 27.5798 106.991 27.5798 110.984 27.3378V11.5472L117.233 11.638C117.536 8.35128 117.536 5.04379 117.233 1.75712C110.406 1.52866 99.5041 1.50178 92.7075 1.75712M132.291 18.1692C132.594 12.7027 132.594 7.22363 132.291 1.75712C128.298 1.51523 124.294 1.51523 120.301 1.75712C119.965 11.5472 119.965 18.6832 120.301 27.3512C127.783 27.5931 140.879 27.5931 149.15 27.3512C149.453 24.1184 149.453 20.8644 149.15 17.6316L132.291 18.1692ZM164.46 19.5567V16.9261L173.505 16.9429C173.799 15.3497 173.791 13.7153 173.481 12.1251L164.46 12.2427V9.55494L178.826 9.92451C179.122 7.21082 179.115 4.47268 178.806 1.76048C170.776 1.45811 160.442 1.54546 152.47 1.76048C152.167 10.2806 152.167 18.8344 152.47 27.3545C161.342 27.6334 170.064 27.6233 178.806 27.3545C179.115 24.5749 179.122 21.77 178.826 18.9889L164.46 19.5567ZM142.031 0C139.061 2.21147 136.43 4.84403 134.22 7.81463C136.426 10.7905 139.054 13.4287 142.021 15.6461C144.991 13.4346 147.622 10.802 149.832 7.83142C147.622 4.86082 144.991 2.22827 142.021 0.0168046" fill="#FA7305"/>
<path d="M155.177 35.7845C155.177 32.7608 153.027 30.1738 144.426 30.1738C139.165 30.1738 135.11 30.4359 135.11 30.4359C134.905 34.5011 134.905 42.0638 135.09 47.6543C137.864 47.8374 140.647 47.8374 143.422 47.6543V42.2788H144.876L146.126 47.6543C149.14 47.8374 152.163 47.8374 155.177 47.6543C155.177 47.6543 154.902 42.2788 150.406 41.029V40.6225C154.3 39.8733 155.177 38.0993 155.177 35.7845ZM144.507 39.0367H143.442V34.8136C143.794 34.7534 144.15 34.7209 144.507 34.7161C146.123 34.7161 147.282 35.4452 147.282 36.8764C147.282 38.3076 146.123 39.0367 144.507 39.0367Z" fill="#FA7305"/>
<path d="M168.098 30.1738C160.787 30.1738 157.223 33.9064 157.223 39.1442C157.223 44.2644 160.787 47.9566 168.098 47.9566C175.409 47.9566 179.034 44.261 179.034 39.1442C179.034 33.9064 175.449 30.1738 168.098 30.1738ZM168.158 41.4053C166.378 41.4053 165.209 40.6896 165.209 39.1173C165.209 37.545 166.378 36.8294 168.158 36.8294C169.858 36.8294 171.048 37.5685 171.048 39.1173C171.048 40.6661 169.858 41.4053 168.158 41.4053Z" fill="#FA7305"/>
<path d="M83.6055 30.4284C83.4005 36.1634 83.4005 41.9152 83.6055 47.6468C86.3894 47.8115 89.1805 47.8115 91.9644 47.6468C92.1693 41.9152 92.1693 36.1634 91.9644 30.4284C89.1804 30.267 86.3895 30.267 83.6055 30.4284Z" fill="#FA7305"/>
<path d="M115.93 30.4284C115.725 32.6389 115.725 34.8635 115.93 37.0739L120.193 37.0168V47.6468C122.899 47.8115 125.612 47.8115 128.317 47.6468V37.0235L132.554 37.084C132.76 34.8703 132.761 32.6423 132.557 30.4284C127.931 30.2773 120.543 30.2571 115.94 30.4284" fill="#FA7305"/>
<path d="M102.511 38.2035C101.765 35.9693 105.8 34.4675 113.097 37.0914C113.343 34.9954 113.343 32.8779 113.097 30.7819C110.223 30.4304 107.332 30.2274 104.436 30.1738C96.6113 30.1738 94.3569 32.1896 94.3569 35.5997C94.3569 40.4175 98.4121 40.7434 105.558 39.89C106.146 42.2418 102.659 43.2497 94.9281 41.1197C94.6895 43.1895 94.6963 45.2803 94.9482 47.3485C95.0725 47.3485 99.7828 47.9566 103.613 47.9566C111.434 47.9566 113.729 45.8871 113.729 42.4904C113.729 37.6323 109.633 37.3703 102.508 38.2035" fill="#FA7305"/>
<path d="M77.0881 39.322V39.0163C79.5574 38.2839 80.5821 37.1348 80.5821 35.0888C80.5821 32.1256 77.4408 30.2576 70.5736 30.2576C62.9539 30.2576 60.0477 30.5196 60.0477 30.5196C59.8428 36.2311 59.8428 41.9795 60.0477 47.6977C60.0477 47.6977 62.9539 48.0001 70.5736 48.0001C77.4408 48.0001 81.2541 46.6226 81.2541 43.1151C81.2541 41.2908 79.9472 39.5673 77.0881 39.322ZM70.1806 43.4007C69.4632 43.3998 68.7468 43.3471 68.0371 43.2428V40.5785H69.9555C71.2993 40.5785 72.2031 41.0892 72.2031 42.1341C72.2031 43.0042 71.4908 43.4007 70.1873 43.4007M69.9823 37.6119H68.0505V34.9477C68.7536 34.844 69.4632 34.7912 70.1738 34.7898C71.5177 34.7898 72.2165 35.1258 72.2165 36.0799C72.2165 37.1248 71.2993 37.6119 69.9891 37.6119" fill="#FA7305"/>
<path d="M213.527 28.5326C212.36 28.5326 212.126 28.7901 212.126 29.063V29.0785C212.126 29.3565 212.36 29.632 213.527 29.632C214.694 29.632 214.905 29.3745 214.905 29.0862V29.0707C214.905 28.8004 214.697 28.5326 213.527 28.5326Z" fill="#FA7305"/>
<path d="M221.686 19.9769L221.11 21.2643H222.275L221.686 19.9769Z" fill="#FA7305"/>
<path d="M209.538 21.2643H210.705L210.116 19.9769L209.538 21.2643Z" fill="#FA7305"/>
<path d="M222.477 26.6916C221.058 26.6916 220.714 27.4022 220.714 27.966V28.0639C220.714 28.6355 221.084 29.3847 222.477 29.3847C223.87 29.3847 224.24 28.6432 224.24 28.0716V27.966C224.24 27.4022 223.862 26.6916 222.477 26.6916Z" fill="#FA7305"/>
<path d="M228.962 25.9579C228.878 25.9525 228.794 25.9644 228.714 25.9929C228.635 26.0214 228.562 26.066 228.5 26.1238C228.439 26.1816 228.39 26.2514 228.356 26.3289C228.323 26.4065 228.305 26.4901 228.305 26.5746C228.305 26.6591 228.323 26.7427 228.356 26.8202C228.39 26.8978 228.439 26.9676 228.5 27.0254C228.562 27.0832 228.635 27.1277 228.714 27.1562C228.794 27.1848 228.878 27.1967 228.962 27.1912C229.046 27.1967 229.131 27.1848 229.21 27.1562C229.29 27.1277 229.362 27.0832 229.424 27.0254C229.485 26.9676 229.534 26.8978 229.568 26.8202C229.602 26.7427 229.619 26.6591 229.619 26.5746C229.619 26.4901 229.602 26.4065 229.568 26.3289C229.534 26.2514 229.485 26.1816 229.424 26.1238C229.362 26.066 229.29 26.0214 229.21 25.9929C229.131 25.9644 229.046 25.9525 228.962 25.9579Z" fill="#FA7305"/>
<path d="M227.238 11.1278C223.266 7.12893 219.022 3.41075 214.537 0C205.523 6.80715 197.545 14.8923 190.856 24.0012C197.544 33.1101 205.522 41.1945 214.537 47.9998C219.023 44.5904 223.266 40.8731 227.238 36.8746C231.189 32.8425 234.857 28.541 238.216 24.0012C234.857 19.4614 231.189 15.1599 227.238 11.1278ZM225.227 18.8158H227.096V21.6479H229.96V23.0074H225.233L225.227 18.8158ZM220.434 18.8158H223.02L225.132 22.9971H223.058L222.801 22.4178H220.598L220.341 22.9971H218.449L220.434 18.8158ZM213.658 18.8158H215.527V21.6479H218.395V23.0074H213.663L213.658 18.8158ZM200.667 18.8158H202.538V20.2422H204.906V18.8158H206.782V22.9971H204.906V21.4523H202.538V22.9971H200.667V18.8158ZM208.964 29.0682C208.964 30.0208 208.35 31.1974 204.782 31.1974H204.379C200.78 31.1974 200.351 29.6707 200.351 28.8802V28.8056H203.127C203.145 28.9369 203.209 29.5419 204.561 29.5419C205.847 29.5419 206.011 29.2845 206.011 29.0502C206.011 28.8313 205.859 28.6845 205.376 28.6845H203.49V27.1912H205.35C205.795 27.1912 205.931 27.0599 205.931 26.8874C205.931 26.684 205.844 26.4883 204.538 26.4883C203.232 26.4883 203.168 26.9544 203.153 27.0599H200.405V26.9775C200.405 26.3004 200.752 24.9049 204.335 24.9049H204.7C208.396 24.9049 208.725 25.7777 208.725 26.4729V26.5038C208.725 27.0934 208.155 27.4358 207.558 27.5337C208.242 27.647 208.97 28.0641 208.97 29.0167L208.964 29.0682ZM208.769 22.9971H206.877L208.862 18.8158H211.455L213.568 22.9971H211.494L211.237 22.4178H209.034L208.769 22.9971ZM217.727 29.027C217.727 29.9899 217.259 31.2052 213.614 31.2052H213.244C209.602 31.2052 209.16 29.287 209.16 28.1439V27.9482C209.16 26.8411 209.602 24.8972 213.272 24.8972H213.635C216.833 24.8972 217.444 26.0738 217.444 26.8565V26.8874H214.712C214.655 26.8076 214.47 26.4575 213.535 26.4575C212.249 26.4575 211.949 27.1912 211.949 27.6547V27.7139C212.111 27.598 212.72 27.15 214.429 27.15H214.527C217.023 27.15 217.717 27.9224 217.717 28.9523L217.727 29.027ZM227.055 28.1619C227.055 29.3128 226.515 31.1974 222.685 31.1974H222.315C218.46 31.1974 217.946 29.3128 217.946 28.1619V27.9173C217.946 26.7587 218.478 24.8972 222.315 24.8972H222.685C226.528 24.8972 227.055 26.7587 227.055 27.9173V28.1619ZM228.973 28.234C227.988 28.234 227.232 27.5646 227.232 26.5785C227.232 25.5924 227.988 24.9229 228.973 24.9229C229.957 24.9229 230.705 25.5924 230.705 26.5785C230.705 27.5646 229.934 28.234 228.973 28.234Z" fill="#FA7305"/>
</svg>-->

<svg xmlns="http://www.w3.org/2000/svg" width="242" height="46" viewBox="0 0 242 46" fill="none">
    <path d="M230.035 12.4214H230.03C224.726 7.36755 219.418 3.67999 219.418 3.67999C219.418 3.67999 214.11 7.36755 208.807 12.4214C203.504 17.4817 199.641 22.5406 199.641 22.5406C199.641 22.5406 203.504 27.5996 208.812 32.6586C214.115 37.7175 219.423 41.4 219.423 41.4C219.423 41.4 224.726 37.7124 230.034 32.6586C235.337 27.5996 239.201 22.5406 239.201 22.5406C239.201 22.5406 235.337 17.4817 230.034 12.4227L230.035 12.4214Z" fill="white"/>
    <path d="M34.9961 12.4214H34.991C29.6869 7.36755 24.379 3.67999 24.379 3.67999C24.379 3.67999 19.071 7.36755 13.7683 12.4214C8.46553 17.4817 4.60156 22.5406 4.60156 22.5406C4.60156 22.5406 8.46553 27.5996 13.7735 32.6586C19.0762 37.7175 24.3842 41.4 24.3842 41.4C24.3842 41.4 29.6869 37.7124 34.9948 32.6586C40.2976 27.5996 44.1616 22.5406 44.1616 22.5406C44.1616 22.5406 40.2976 17.4817 34.9948 12.4227L34.9961 12.4214Z" fill="white"/>
    <path d="M35.3165 10.6621C29.1529 4.49237 22.9862 0 22.9862 0C22.9862 0 16.8196 4.49237 10.656 10.6621C4.49237 16.8318 0 22.9985 0 22.9985C0 22.9985 4.49237 29.1682 10.656 35.3348C16.8196 41.5046 22.9862 45.9969 22.9862 45.9969C22.9862 45.9969 29.1529 41.5046 35.3165 35.3348C41.4801 29.1682 45.9724 22.9985 45.9724 22.9985C45.9724 22.9985 41.4801 16.8287 35.3165 10.6621ZM28.6714 28.7481C25.8043 31.6183 22.9372 33.7066 22.9372 33.7066C22.9372 33.7066 20.07 31.6152 17.2029 28.7481C16.2063 27.7515 15.3047 26.7549 14.5534 25.8809H31.327C30.5727 26.7579 29.6711 27.7546 28.6776 28.7481M13.934 23.7007C14.1609 22.2748 14.719 20.9593 15.5224 19.8308C15.5132 19.8185 15.5071 19.8093 15.5071 19.8093C15.5071 19.8093 16.9667 17.761 18.9691 15.7095C20.8734 13.7623 22.7777 12.3149 22.9617 12.1769C23.3573 12.8607 24.1975 14.4676 24.5072 16.2706C24.8108 18.04 24.0319 19.2788 24.0319 19.2788C24.0319 19.2788 26.3777 17.4635 27.727 16.4945C29.3369 18.2516 30.4469 19.8093 30.4469 19.8093C31.2779 20.9654 31.8452 22.2319 32.066 23.7007H13.934Z" fill="#C91100"/>
    <path d="M89.1777 1.87668C89.4996 10.9871 89.4996 20.1283 89.1777 29.2387C85.0257 29.4994 80.8859 29.5178 76.4518 29.2387V18.5582H75.6454L70.417 29.2387C66.2466 29.5178 62.0701 29.5055 57.636 29.2387C57.314 20.1283 57.314 10.9871 57.636 1.87668C61.4354 1.61603 66.6606 1.59149 70.417 1.87668V12.6522H71.2235L76.4518 1.87668C80.2021 1.59763 85.3293 1.60989 89.1777 1.87668ZM92.4588 1.87668C92.1368 5.43071 92.1245 8.88048 92.4465 12.4345L99.1713 12.3425V29.2357C103.102 29.5055 108.374 29.4841 111.989 29.2357V12.3425L118.671 12.4406C118.993 8.88661 118.996 5.43071 118.671 1.87668C111.373 1.63136 99.7202 1.60376 92.4557 1.87668M134.77 19.423C135.092 13.609 135.092 7.69376 134.77 1.87668C130.98 1.65589 125.73 1.5823 121.952 1.87668C121.609 12.3425 121.584 19.9719 121.952 29.2387C129.949 29.4963 143.948 29.4994 152.791 29.2387C153.113 25.6847 153.126 22.4005 152.801 18.8465L134.77 19.423ZM169.154 20.9041V18.0952L178.823 18.1136C179.145 16.24 179.12 14.8356 178.798 12.9619L169.154 13.0877V10.2113L184.511 10.6069C184.833 7.47297 184.811 5.0106 184.486 1.87668C175.906 1.5547 164.858 1.64669 156.333 1.87668C156.011 10.9871 156.011 20.1283 156.333 29.2387C165.818 29.5362 175.14 29.5239 184.486 29.2387C184.808 26.1048 184.833 23.4278 184.511 20.2939L169.154 20.9041ZM145.184 0C145.184 0 142.945 1.63136 140.703 3.87294C138.465 6.11453 136.834 8.35305 136.834 8.35305C136.834 8.35305 138.465 10.5946 140.703 12.8332C142.942 15.0747 145.184 16.7061 145.184 16.7061C145.184 16.7061 147.422 15.0747 149.664 12.8332C151.902 10.5916 153.534 8.35305 153.534 8.35305C153.534 8.35305 151.902 6.11146 149.664 3.87294C147.425 1.63136 145.184 0 145.184 0Z" fill="#C91100"/>
    <path d="M69.5795 35.7611C69.4599 37.0674 69.4569 38.3369 69.5765 39.6432L72.0511 39.6095V45.8221C73.4954 45.9202 75.4334 45.9141 76.7642 45.8221V39.6095L79.2205 39.6463C79.3401 38.34 79.3401 37.0674 79.2205 35.7611C76.5373 35.6721 72.2504 35.6599 69.5795 35.7611Z" fill="#C91100"/>
    <path d="M135.019 35.7611L134.397 40.0818H133.599V35.7611C131.965 35.6538 130.373 35.663 128.751 35.7611C128.635 39.171 128.635 42.4123 128.751 45.8222C130.398 45.9295 132.002 45.9295 133.599 45.8222V41.9247H134.397L135.007 45.8222C136.439 45.9234 138.935 45.9234 140.382 45.8222C140.018 44.016 139.429 42.4491 138.589 40.879C139.426 39.2753 140.039 37.601 140.404 35.7611C138.96 35.6568 136.451 35.6599 135.016 35.7611" fill="#C91100"/>
    <path d="M112.713 35.7611L112.09 40.0818H111.293V35.7611C109.658 35.6538 108.067 35.663 106.445 35.7611C106.328 39.171 106.328 42.4123 106.445 45.8222C108.092 45.9295 109.695 45.9295 111.293 45.8222V41.9247H112.09L112.7 45.8222C114.132 45.9234 116.629 45.9234 118.076 45.8222C117.711 44.016 117.122 42.4491 116.282 40.879C117.119 39.2753 117.732 37.601 118.097 35.7611C116.653 35.6568 114.145 35.6599 112.71 35.7611" fill="#C91100"/>
    <path d="M67.7709 39.9438C67.8875 38.5148 67.8875 37.3894 67.7709 35.9604C67.7709 35.9604 66.0476 35.6047 63.6435 35.6047C59.3014 35.6047 57.4492 38.2327 57.4492 40.7963C57.4492 43.3598 59.3014 45.997 63.6435 45.997C66.0506 45.997 67.7709 45.6413 67.7709 45.6413C67.8875 44.2154 67.8875 43.1329 67.7709 41.7039C65.3423 42.0934 62.1685 42.3387 62.1685 40.8177C62.1685 39.2968 65.3423 39.5543 67.7709 39.9438Z" fill="#C91100"/>
    <path d="M99.917 35.7611L98.0526 40.4068H97.7582V35.7611C96.1636 35.6568 94.6212 35.6599 93.0757 35.7611C92.9592 39.0882 92.9592 42.495 93.0757 45.8221C94.4525 45.9233 96.3783 45.9356 97.7582 45.8221L99.6226 41.2102H99.917V45.8221C101.294 45.9295 103.21 45.9295 104.599 45.8221C104.716 42.495 104.716 39.0882 104.599 35.7611C102.99 35.6507 101.45 35.6538 99.917 35.7611Z" fill="#C91100"/>
    <path d="M91.2657 38.9717C91.3853 37.8187 91.3761 36.9141 91.2565 35.7611C88.1011 35.6415 84.0381 35.6752 80.9041 35.7611C80.7846 39.1097 80.7846 42.4736 80.9041 45.8222C84.3907 45.9325 87.819 45.9264 91.2565 45.8222C91.3761 44.6692 91.3853 43.6848 91.2657 42.5318L85.6173 42.7557V41.7223L89.1713 41.7284C89.2909 41.0385 89.2817 40.5233 89.1621 39.8334L85.6142 39.8794V38.8214L91.2627 38.9655L91.2657 38.9717Z" fill="#C91100"/>
    <path d="M179.062 42.7557V41.7223L182.616 41.7284C182.735 41.0384 182.726 40.5233 182.607 39.8333L179.059 39.8793V38.8214L184.707 38.9655C184.827 37.8125 184.818 36.9079 184.698 35.7549C181.543 35.6353 177.479 35.6691 174.346 35.7549C174.226 39.1035 174.226 42.4674 174.346 45.816C177.832 45.9264 181.26 45.9203 184.698 45.816C184.818 44.663 184.827 43.6787 184.707 42.5257L179.059 42.7495L179.062 42.7557Z" fill="#C91100"/>
    <path d="M144.027 35.7611C142.901 38.984 141.88 42.3632 140.994 45.8222C142.717 45.9203 144.968 45.9387 146.508 45.8222L146.63 44.1172H148.387L148.516 45.8222C150.016 45.9479 152.276 45.9326 154.027 45.8222C153.137 42.3601 152.132 38.984 151.003 35.7611C149.212 35.6538 145.824 35.663 144.024 35.7611M146.762 42.2405L146.998 38.9962H147.992L148.24 42.2405H146.762Z" fill="#C91100"/>
    <path d="M119.816 40.0572C119.736 40.9741 119.736 41.0324 119.816 41.9523C122.03 42.0535 124.268 42.0535 126.482 41.9523C126.562 41.0354 126.562 40.9772 126.482 40.0572C124.268 39.956 122.03 39.956 119.816 40.0572Z" fill="#C91100"/>
    <path d="M169.233 35.6078C167.936 35.6078 166.666 35.9727 165.881 37.8156H165.734C165.734 37.8156 165.697 36.1659 165.679 35.6078C164.284 35.5066 162.879 35.5096 161.499 35.6078C161.484 36.1505 161.444 37.8156 161.444 37.8156H161.297C160.515 35.9727 159.245 35.6078 157.948 35.6078C156.881 35.6078 154.4 36.2211 154.4 40.8453C154.4 45.4695 156.881 46 157.948 46C159.245 46 160.515 45.6106 161.297 43.7676H161.444C161.444 43.7676 161.487 45.2917 161.502 45.8222C162.891 45.9295 164.293 45.9295 165.682 45.8222C165.697 45.2917 165.737 43.7676 165.737 43.7676H165.884C166.666 45.6106 167.939 46 169.236 46C170.303 46 172.784 45.3837 172.784 40.8453C172.784 36.3069 170.303 35.6078 169.236 35.6078M159.914 42.5962C158.969 42.5962 158.402 41.9277 158.402 40.8116C158.402 39.171 159.457 38.9962 159.914 38.9962C160.861 38.9962 161.426 39.6739 161.426 40.8116C161.426 41.9277 160.861 42.5962 159.914 42.5962ZM167.273 42.5962C166.329 42.5962 165.762 41.9277 165.762 40.8116C165.762 39.6954 166.326 38.9962 167.273 38.9962C167.727 38.9962 168.785 39.1741 168.785 40.8116C168.785 41.9277 168.221 42.5962 167.273 42.5962Z" fill="#C91100"/>
    <path d="M98.8336 34.5744C99.8333 34.5744 100.839 34.4916 101.541 34.3106C101.578 33.7035 101.572 33.2037 101.523 32.4064C100.609 32.6026 99.7106 32.6824 98.8336 32.6824C97.9596 32.6824 97.0581 32.6026 96.1443 32.4064C96.0952 33.2037 96.0922 33.7035 96.1259 34.3106C96.825 34.4916 97.8308 34.5774 98.8336 34.5744Z" fill="#C91100"/>
    <path d="M217.963 27.3375C216.847 27.3375 216.623 27.5859 216.623 27.8435V27.8588C216.623 28.1225 216.847 28.3893 217.963 28.3893C219.079 28.3893 219.279 28.1317 219.279 27.868V27.8527C219.279 27.5951 219.079 27.3375 217.963 27.3375Z" fill="#C91100"/>
    <path d="M225.757 19.1716L225.205 20.3982H226.318L225.757 19.1716Z" fill="#C91100"/>
    <path d="M214.141 20.3982H215.257L214.693 19.1716L214.141 20.3982Z" fill="#C91100"/>
    <path d="M226.507 25.5774C225.151 25.5774 224.82 26.2551 224.82 26.7917V26.8837C224.82 27.4296 225.176 28.144 226.507 28.144C227.838 28.144 228.193 27.4357 228.193 26.8899V26.7887C228.193 26.252 227.832 25.5743 226.507 25.5743" fill="#C91100"/>
    <path d="M232.708 24.8783C232.353 24.8783 232.107 25.1205 232.107 25.4701C232.107 25.8197 232.353 26.0528 232.708 26.0528C233.064 26.0528 233.3 25.8105 233.3 25.4701C233.3 25.1297 233.061 24.8783 232.708 24.8783Z" fill="#C91100"/>
    <path d="M231.069 10.7235C224.997 4.58135 218.926 0.104309 218.926 0.104309C218.926 0.104309 212.854 4.57828 206.783 10.7235C200.711 16.8656 196.289 23.0108 196.289 23.0108C196.289 23.0108 200.714 29.1529 206.783 35.2981C212.854 41.4402 218.926 45.9173 218.926 45.9173C218.926 45.9173 224.997 41.4433 231.069 35.2981C237.14 29.156 241.562 23.0108 241.562 23.0108C241.562 23.0108 237.14 16.8687 231.069 10.7235ZM229.146 18.0615H230.934V20.7539H233.672V22.051H229.146V18.0615ZM224.562 18.0615H227.033L229.054 22.051H227.07L226.822 21.499H224.715L224.47 22.051H222.661L224.559 18.0615H224.562ZM218.085 18.0615H219.873V20.7539H222.612V22.051H218.085V18.0615ZM205.669 18.0615H207.457V19.423H209.723V18.0615H211.517V22.051H209.723V20.5852H207.457V22.051H205.669V18.0615ZM213.599 27.8435C213.599 28.7543 213.014 29.8766 209.604 29.8766H209.217C205.768 29.8766 205.366 28.42 205.366 27.6718V27.6013H208.015C208.031 27.727 208.092 28.3035 209.386 28.3035C210.609 28.3035 210.772 28.0551 210.772 27.8374V27.8282C210.772 27.6166 210.625 27.4786 210.165 27.4786H208.362V26.0527H210.14C210.563 26.0527 210.695 25.927 210.695 25.7645V25.7553C210.695 25.5621 210.609 25.375 209.364 25.375C208.119 25.375 208.055 25.8197 208.04 25.9209H205.415V25.8442C205.415 25.1972 205.746 23.8663 209.171 23.8663H209.518C213.053 23.8663 213.369 24.7004 213.369 25.3628V25.3934C213.369 25.9546 212.823 26.2796 212.253 26.3747C212.906 26.4851 213.599 26.8807 213.599 27.7914V27.8466V27.8435ZM213.412 22.051H211.603L213.501 18.0615H215.973L217.994 22.051H216.009L215.761 21.499H213.654L213.409 22.051H213.412ZM221.962 27.8037C221.962 28.7236 221.514 29.8827 218.043 29.8827H217.687C214.206 29.8827 213.783 28.0521 213.783 26.9635V26.7764C213.783 25.7185 214.206 23.8633 217.711 23.8633H218.058C221.115 23.8633 221.701 24.9856 221.701 25.7307V25.7614H219.091C219.036 25.6847 218.861 25.3474 217.966 25.3474C216.727 25.3474 216.448 26.0497 216.448 26.4912V26.5464C216.601 26.436 217.181 26.0098 218.818 26.0098H218.91C221.296 26.0098 221.958 26.7427 221.958 27.7301V27.8006L221.962 27.8037ZM230.879 26.9788C230.879 28.0766 230.364 29.8766 226.69 29.8766H226.334C222.655 29.8766 222.145 28.0766 222.145 26.9788V26.7457C222.145 25.6388 222.655 23.8633 226.334 23.8633H226.69C230.364 23.8633 230.879 25.6388 230.879 26.7457V26.9788ZM232.713 27.0493C231.774 27.0493 231.05 26.4115 231.05 25.4701C231.05 24.5287 231.774 23.8909 232.713 23.8909C233.651 23.8909 234.368 24.5287 234.368 25.4701C234.368 26.4115 233.645 27.0493 232.713 27.0493Z" fill="#C91100"/>
</svg>
