<svg width="21" height="17" viewBox="0 0 21 17" fill="none" xmlns="http://www.w3.org/2000/svg">
<path d="M20.4287 8.57159C20.3352 8.86687 20.1404 9.08012 19.9301 9.29337C19.0886 10.171 18.2549 11.0568 17.4057 11.9426C17.0239 12.3445 16.5253 12.3938 16.1357 12.0903C15.6682 11.7212 15.6371 11.0486 16.0656 10.5811C16.3928 10.2202 16.7356 9.87572 17.0707 9.52303C17.1174 9.47382 17.1797 9.44101 17.2031 9.34259C17.1252 9.34259 17.0551 9.34259 16.9849 9.34259C13.51 9.34259 10.0351 9.34259 6.56016 9.34259C6.13943 9.34259 5.79662 9.20315 5.60183 8.79305C5.29797 8.17789 5.71091 7.4315 6.36538 7.38229C6.45888 7.37409 6.55237 7.37409 6.64587 7.37409C10.1598 7.37409 13.6736 7.37409 17.1875 7.37409C17.2187 7.30027 17.1486 7.27566 17.1174 7.24285C16.7668 6.86556 16.4006 6.50467 16.0578 6.11917C15.528 5.52862 15.7695 4.62639 16.5019 4.45415C16.8525 4.37213 17.1486 4.49516 17.3901 4.75762C17.694 5.0775 17.9978 5.39739 18.2939 5.70906C18.8393 6.28321 19.3769 6.85736 19.9223 7.4233C20.1248 7.63655 20.3196 7.84981 20.4209 8.14508C20.4287 8.28452 20.4287 8.42395 20.4287 8.57159Z" fill="currentColor"/>
<path d="M0.000208855 8.0073C0.0938778 5.47358 1.27254 3.19643 3.67671 1.66497C7.13465 -0.531988 11.6386 0.470276 13.9413 3.91004C14.2613 4.38311 14.1832 4.96042 13.7461 5.28114C13.3168 5.60186 12.7548 5.50565 12.4269 5.03258C11.7478 4.04635 10.8814 3.3167 9.7886 2.85967C7.42346 1.85741 4.58218 2.66724 3.04445 4.776C2.13898 6.01079 1.72528 7.40594 1.897 8.92938C2.1702 11.3108 3.40351 13.0026 5.58912 13.8926C8.07915 14.9109 10.8814 13.9648 12.3801 11.7598C12.7001 11.2947 13.1138 11.1424 13.551 11.3108C14.113 11.5353 14.3159 12.2168 13.9803 12.746C13.6212 13.3073 13.1919 13.8044 12.7001 14.2454C11.5293 15.2958 10.1789 15.9372 8.64116 16.1457C7.2049 16.3381 5.81548 16.1296 4.49631 15.5122C2.96639 14.7906 1.78772 13.6681 0.960313 12.1607C0.320243 10.982 0.00801468 9.70714 0.000208855 8.0073Z" fill="currentColor"/>
</svg>
