<svg width="89" height="21" viewBox="0 0 89 21" fill="none" xmlns="http://www.w3.org/2000/svg">
<g clipPath="url(#clip0_49_1009)">
<path d="M0.175961 1.51901C2.78604 1.0809 6.39323 1.0809 9.00331 1.51901V8.93765H9.56052L13.197 1.51901C15.8071 1.0809 19.385 1.0809 21.9951 1.51901C22.2297 7.79857 22.2297 14.0781 21.9951 20.3577C19.0917 20.7958 16.2177 20.7958 13.197 20.3577V12.9975H12.6105L9.00331 20.3577C6.09997 20.7958 3.19662 20.7958 0.175961 20.3577C-0.0586535 14.0781 -0.0586535 7.76936 0.175961 1.51901Z" fill="white"/>
<path d="M24.2533 1.51889C29.2682 0.817921 37.3331 0.817921 42.3773 1.51889C42.6119 3.9723 42.6119 6.42571 42.3773 8.87912L37.7436 8.73308V20.5912C35.1336 21.0293 31.497 21.0293 28.887 20.5912V8.70387L24.2533 8.84991C24.048 6.42571 24.048 3.94309 24.2533 1.51889Z" fill="white"/>
<path d="M44.665 1.34372C47.2751 0.90561 50.9116 0.90561 53.5217 1.34372C53.7563 5.34511 53.7563 9.60936 53.5217 13.6108L65.9855 13.0558C66.2201 15.5092 66.2201 17.9626 65.9855 20.416C59.9149 21.2046 50.1491 21.2631 44.665 20.416C44.4304 14.0197 44.4304 7.68169 44.665 1.34372Z" fill="white"/>
<path d="M68.4487 1.51898C74.3433 0.642762 82.0563 0.642762 87.9216 1.51898C88.1562 3.68031 88.1562 5.84165 87.9216 8.00299L77.3053 7.2728V9.2589L83.9918 9.05445C84.2265 10.3396 84.2265 11.6247 83.9918 12.9098L77.3053 12.7053V14.6038L87.9216 13.8736C88.1562 16.035 88.1562 18.1963 87.9216 20.3576C81.4991 21.2339 74.8712 21.2339 68.4487 20.3576C68.2141 14.0781 68.2141 7.76933 68.4487 1.51898Z" fill="white"/>
<path d="M54.9292 5.78303C54.9292 5.78303 56.0143 7.24339 57.5686 8.79138C59.1229 10.3394 60.7359 11.5076 60.7359 11.5076L60.7652 11.5369C60.7652 11.5369 62.2316 10.4562 63.7859 8.90821C65.3402 7.36022 66.5133 5.75382 66.5133 5.75382L66.5426 5.72462C66.5426 5.72462 65.4575 4.26426 63.9032 2.71627C62.3489 1.16829 60.7359 0 60.7359 0L60.7066 0C60.7066 0 59.2402 1.08067 57.6859 2.62865C56.1316 4.17663 54.9585 5.78303 54.9292 5.78303Z" fill="white"/>
</g>
<defs>
<clipPath id="clip0_49_1009">
<rect width="88.0976" height="21" fill="white"/>
</clipPath>
</defs>
</svg>
