<svg width="172" height="41" viewBox="0 0 172 41" fill="none" xmlns="http://www.w3.org/2000/svg">
<g clipPath="url(#clip0_114_261)">
<path d="M0.343542 2.96525C5.43941 2.10989 12.482 2.10989 17.5779 2.96525V17.4493H18.6658L25.7656 2.96525C30.8615 2.10989 37.8469 2.10989 42.9427 2.96525C43.4008 15.2253 43.4008 27.4854 42.9427 39.7455C37.2743 40.6009 31.6631 40.6009 25.7656 39.7455V25.3755H24.6205L17.5779 39.7455C11.9095 40.6009 6.24101 40.6009 0.343542 39.7455C-0.114514 27.4854 -0.114514 15.1683 0.343542 2.96525Z" fill="#9B3D30"/>
<path d="M47.3515 2.96527C57.1424 1.5967 72.8881 1.5967 82.7363 2.96527C83.1944 7.75525 83.1944 12.5452 82.7363 17.3352L73.6897 17.0501V40.2017C68.5938 41.0571 61.494 41.0571 56.3981 40.2017V16.9931L47.3515 17.2782C46.9507 12.5452 46.9507 7.69823 47.3515 2.96527Z" fill="#9B3D30"/>
<path d="M87.2024 2.62305C92.2983 1.7677 99.3982 1.7677 104.494 2.62305C104.952 10.4353 104.952 18.7607 104.494 26.573L128.828 25.4895C129.286 30.2795 129.286 35.0695 128.828 39.8595C116.976 41.3991 97.9095 41.5132 87.2024 39.8595C86.7444 27.3713 86.7444 14.9972 87.2024 2.62305Z" fill="#9B3D30"/>
<path d="M133.638 2.96525C145.146 1.25454 160.205 1.25454 171.656 2.96525C172.114 7.185 172.114 11.4048 171.656 15.6245L150.929 14.1989V18.0765L163.984 17.6774C164.442 20.1864 164.442 22.6954 163.984 25.2045L150.929 24.8053V28.5118L171.656 27.0863C172.114 31.306 172.114 35.5258 171.656 39.7455C159.117 41.4562 146.177 41.4562 133.638 39.7455C133.18 27.4854 133.18 15.1683 133.638 2.96525Z" fill="#9B3D30"/>
<path d="M107.242 11.2907C107.242 11.2907 109.361 14.1419 112.395 17.1641C115.43 20.1864 118.579 22.4673 118.579 22.4673L118.636 22.5243C118.636 22.5243 121.499 20.4145 124.534 17.3922C127.569 14.37 129.859 11.2337 129.859 11.2337L129.916 11.1766C129.916 11.1766 127.798 8.32545 124.763 5.3032C121.728 2.28095 118.579 0 118.579 0L118.522 0C118.522 0 115.659 2.10987 112.624 5.13213C109.59 8.15438 107.3 11.2907 107.242 11.2907Z" fill="#9B3D30"/>
</g>
<defs>
<clipPath id="clip0_114_261">
<rect width="172" height="41" fill="white"/>
</clipPath>
</defs>
</svg>
