<svg width="161" height="41" viewBox="0 0 161 41" fill="none" xmlns="http://www.w3.org/2000/svg">
<g clipPath="url(#clip0_5559_20044)">
<path d="M30.7107 9.77233C27.3564 6.43677 23.7743 3.33852 19.9901 0.5C12.3916 6.16086 5.65763 12.8977 0 20.4986C5.65657 28.1012 12.3907 34.8391 19.9901 40.5C23.7734 37.6605 27.3555 34.5623 30.7107 31.2277C34.0441 27.87 37.1404 24.285 39.9774 20.4986C37.14 16.7134 34.0436 13.1294 30.7107 9.77233ZM24.9318 25.4968C23.3713 27.0484 21.705 28.4898 19.9448 29.8105C18.1847 28.4898 16.5183 27.0484 14.9579 25.4968C14.0924 24.6312 13.306 23.7657 12.6526 23.0019H27.2371C26.5809 23.7657 25.7973 24.6312 24.9318 25.4968ZM12.1123 21.1067C12.3063 19.8935 12.7798 18.7421 13.4955 17.7435V17.7237C15.325 15.2103 17.5087 12.9751 19.9788 11.0877C20.6231 12.191 21.0773 13.3949 21.3224 14.6489C21.4892 15.5426 21.3433 16.4665 20.9094 17.2654C20.9094 17.2654 22.9489 15.687 24.1228 14.8441C24.9631 15.76 25.7525 16.7213 26.4875 17.7237C27.229 18.7227 27.7146 19.8881 27.9018 21.1181L12.1123 21.1067Z" fill="#C91100"/>
<path d="M77.5475 2.13213C77.8303 10.0524 77.8303 18.0037 77.5475 25.9239C73.8627 26.1602 70.1666 26.1602 66.4818 25.9239V16.6375H65.7774L61.2346 25.9239C57.5338 26.1616 53.8216 26.1616 50.1208 25.9239C49.838 18.0037 49.838 10.0552 50.1208 2.13213C53.8217 1.89594 57.5338 1.89594 61.2346 2.13213V11.5035H61.9333L66.479 2.13213C70.1637 1.89455 73.8599 1.89455 77.5446 2.13213H77.5475ZM80.3988 2.13213C80.1173 5.18626 80.1173 8.25981 80.3988 11.3139L86.2484 11.2347V25.9239C89.9599 26.1503 93.6818 26.1503 97.3933 25.9239V11.2347L103.203 11.3196C103.485 8.26358 103.485 5.18815 103.203 2.13213C96.8587 1.91998 86.7265 1.89735 80.4101 2.13213H80.3988ZM117.202 17.3899C117.482 12.3078 117.482 7.2142 117.202 2.13213C113.491 1.90867 109.769 1.90867 106.057 2.13213C105.76 11.2347 105.738 17.8679 106.057 25.9239C113.013 26.1502 125.185 26.1502 132.873 25.9239C133.155 22.9189 133.155 19.8942 132.873 16.8892L117.202 17.3899ZM147.096 18.6798V16.2358L155.502 16.2528C155.776 14.7711 155.769 13.251 155.48 11.7722L147.096 11.8825V9.38197L160.45 9.72707C160.725 7.20346 160.718 4.6571 160.43 2.13496C152.968 1.8521 143.362 1.93413 135.951 2.13496C135.668 10.0552 135.668 18.0065 135.951 25.9268C144.196 26.187 152.303 26.1757 160.43 25.9268C160.718 23.3431 160.724 20.7359 160.45 18.1508L147.096 18.6798ZM126.248 0.502823C123.489 2.55976 121.043 5.00664 118.987 7.76681C120.018 9.14203 121.143 10.4444 122.353 11.6647C123.571 12.8763 124.873 14.0011 126.248 15.0308C129.007 12.9753 131.449 10.5271 133.498 7.76398C132.469 6.38899 131.345 5.08748 130.135 3.86893C128.916 2.65765 127.614 1.53199 126.24 0.5" fill="#C91100"/>
<path d="M60.4992 31.5954C60.3974 32.7189 60.3974 33.8493 60.4992 34.9728L62.649 34.9417V40.3445C64.014 40.4279 65.3828 40.4279 66.7477 40.3445V34.9417L68.8862 34.9728C68.988 33.8493 68.988 32.7189 68.8862 31.5954C66.5525 31.519 62.8244 31.5106 60.5021 31.5954" fill="#C91100"/>
<path d="M117.409 31.5954L116.869 35.3688H116.176V31.5954C114.771 31.5063 113.363 31.5063 111.958 31.5954C111.856 34.5598 111.856 37.38 111.958 40.3444C113.362 40.4406 114.772 40.4406 116.176 40.3444V36.95H116.869L117.398 40.3444C118.955 40.435 120.516 40.435 122.073 40.3444C121.77 38.8428 121.245 37.3947 120.515 36.0477C121.253 34.6473 121.784 33.1477 122.093 31.5954C120.533 31.5063 118.969 31.5063 117.409 31.5954Z" fill="#C91100"/>
<path d="M98.013 31.5954L97.4728 35.3688H96.7769V31.5954C95.3734 31.5063 93.9657 31.5063 92.5622 31.5954C92.4604 34.5598 92.4604 37.38 92.5622 40.3444C93.9655 40.4406 95.3737 40.4406 96.7769 40.3444V36.9501H97.4728L98.0017 40.3444C99.558 40.435 101.118 40.435 102.675 40.3444C102.374 38.8421 101.848 37.3937 101.116 36.0477C101.855 34.6474 102.387 33.1478 102.697 31.5954C101.137 31.5063 99.5732 31.5063 98.013 31.5954Z" fill="#C91100"/>
<path d="M58.9292 35.2331C59.0311 34.0813 59.0311 32.9227 58.9292 31.7708C57.7437 31.5585 56.5412 31.4553 55.3368 31.4625C51.5634 31.4625 49.9624 33.7481 49.9624 35.9884C49.9624 38.2287 51.5747 40.5142 55.3368 40.5142C56.5413 40.5216 57.7439 40.4174 58.9292 40.2031C59.0311 39.0644 59.0311 37.919 58.9292 36.7804C56.8162 37.1198 54.0555 37.332 54.0555 36.011C54.0555 34.69 56.8162 34.9106 58.9292 35.2473" fill="#C91100"/>
<path d="M86.8849 31.5954L85.2669 35.6517H85.0095V31.5954C83.6532 31.5063 82.2925 31.5063 80.9362 31.5954C80.8344 34.4891 80.8344 37.4536 80.9362 40.3444C82.2923 40.4392 83.6534 40.4392 85.0095 40.3444L86.6303 36.3334H86.8849V40.3444C88.241 40.4378 89.602 40.4378 90.9582 40.3444C91.0628 37.4536 91.0628 34.4891 90.9582 31.5954C89.602 31.5021 88.241 31.5021 86.8849 31.5954Z" fill="#C91100"/>
<path d="M79.3578 34.3874C79.4611 33.4596 79.4611 32.5232 79.3578 31.5955C76.614 31.4937 73.081 31.5219 70.3542 31.5955C70.2524 34.509 70.2524 37.431 70.3542 40.3445C73.3865 40.4407 76.3679 40.435 79.3578 40.3445C79.4611 39.3941 79.4611 38.4352 79.3578 37.4847L74.4473 37.6799V36.7832H77.539C77.6436 36.2395 77.6436 35.6807 77.539 35.137L74.4558 35.1766V34.2573L79.3578 34.3874Z" fill="#C91100"/>
<path d="M155.709 37.6798V36.7831H158.801C158.904 36.2392 158.904 35.6808 158.801 35.1369L155.717 35.1765V34.2571L160.628 34.3844C160.731 33.4567 160.731 32.5203 160.628 31.5926C157.884 31.4907 154.351 31.519 151.624 31.5926C151.522 34.5061 151.522 37.4281 151.624 40.3416C154.657 40.4378 157.638 40.4321 160.628 40.3416C160.731 39.3911 160.731 38.4323 160.628 37.4818L155.709 37.6798Z" fill="#C91100"/>
<path d="M125.236 31.5953C124.257 34.3985 123.372 37.3347 122.6 40.3444C124.195 40.4392 125.796 40.4392 127.391 40.3444L127.499 38.8621H129.029L129.142 40.3444C130.738 40.4477 132.338 40.4477 133.934 40.3444C133.162 37.3347 132.285 34.4042 131.306 31.5953C129.75 31.5048 126.803 31.5105 125.236 31.5953ZM127.62 37.23L127.824 34.4014H128.673L128.891 37.23H127.62Z" fill="#C91100"/>
<path d="M104.188 35.332C104.12 35.8787 104.12 36.4317 104.188 36.9783C106.114 37.066 108.06 37.066 109.986 36.9783C110.054 36.4317 110.054 35.8787 109.986 35.332C108.06 35.2415 106.114 35.2415 104.188 35.332Z" fill="#C91100"/>
<path d="M147.163 31.4625C146.032 31.4625 144.929 31.7793 144.247 33.3831H144.12C144.12 33.3831 144.089 31.9462 144.075 31.4625C142.865 31.3748 141.65 31.3748 140.44 31.4625C140.44 31.9349 140.392 33.3831 140.392 33.3831H140.264C139.583 31.7793 138.479 31.4625 137.351 31.4625C136.426 31.4625 134.268 31.9943 134.268 36.0166C134.268 39.9767 136.426 40.5 137.351 40.5C138.482 40.5 139.583 40.1606 140.264 38.5568H140.392C140.392 38.5568 140.428 39.8834 140.44 40.3445C141.65 40.4378 142.865 40.4378 144.075 40.3445C144.075 39.8834 144.123 38.5568 144.123 38.5568H144.247C144.926 40.1606 146.032 40.5 147.161 40.5C148.088 40.5 150.244 39.9626 150.244 36.0166C150.244 31.9943 148.088 31.4625 147.161 31.4625H147.163ZM139.054 37.5413C138.231 37.5413 137.741 36.9755 137.741 35.9883C137.741 34.574 138.66 34.4099 139.054 34.4099C139.877 34.4099 140.369 34.9983 140.369 35.9883C140.369 36.9784 139.877 37.5413 139.054 37.5413ZM145.455 37.5413C144.632 37.5413 144.142 36.9755 144.142 35.9883C144.142 35.0011 144.632 34.4099 145.455 34.4099C145.851 34.4099 146.767 34.5627 146.767 35.9883C146.767 36.9614 146.278 37.5413 145.455 37.5413Z" fill="#C91100"/>
<path d="M85.9487 30.56C86.7396 30.5744 87.5294 30.4965 88.3022 30.3281C88.3312 29.7767 88.3256 29.224 88.2852 28.6733C86.7431 28.9939 85.1515 28.9939 83.6094 28.6733C83.5685 29.224 83.5637 29.7768 83.5953 30.3281C84.368 30.497 85.1579 30.5748 85.9487 30.56Z" fill="#C91100"/>
</g>
<defs>
<clipPath id="clip0_5559_20044">
<rect width="160.693" height="40" fill="white" transform="translate(0 0.5)"/>
</clipPath>
</defs>
</svg>
