<svg width="89" height="88" viewBox="0 0 89 88" fill="none" xmlns="http://www.w3.org/2000/svg">
<path d="M66.4328 22.6619H66.4222C55.5664 12.0022 44.7027 4.22438 44.7027 4.22438C44.7027 4.22438 33.839 12.0022 22.9859 22.6619C12.1327 33.3349 4.22437 44.0053 4.22437 44.0053C4.22437 44.0053 12.1327 54.6757 22.9965 65.3461C33.8496 76.0165 44.7133 83.7836 44.7133 83.7836C44.7133 83.7836 55.5664 76.0057 66.4302 65.3461C77.2833 54.6757 85.1917 44.0053 85.1917 44.0053C85.1917 44.0053 77.2833 33.3349 66.4302 22.6645L66.4328 22.6619Z" fill="white"/>
<path d="M68.1323 20.3845C56.2558 8.6105 44.3327 0 44.3327 0C44.3327 0 32.4328 8.6105 20.533 20.3845C8.65654 32.2061 0 44.004 0 44.004C0 44.004 8.65654 55.8018 20.5564 67.6234C32.4562 79.4212 44.356 88.0079 44.356 88.0079C44.356 88.0079 56.2558 79.3974 68.1556 67.6234C80.0555 55.8256 88.712 44.004 88.712 44.004C88.712 44.004 80.0555 32.2061 68.1556 20.3845M55.3458 54.9931C49.8159 60.4876 44.286 64.4837 44.286 64.4837C44.286 64.4837 38.7561 60.4876 33.2262 54.9931C31.3129 53.0902 29.5629 51.1635 28.1162 49.4985H60.4791C59.0324 51.1635 57.2825 53.0902 55.3692 54.9931M26.9263 45.336C27.3696 42.6006 28.4429 40.0793 29.9829 37.9386C29.9596 37.9148 29.9596 37.891 29.9596 37.891C29.9596 37.891 32.7595 33.9663 36.6328 30.0416C40.3194 26.3072 43.9827 23.5481 44.3327 23.2864C45.0793 24.5946 46.7126 27.663 47.3193 31.112C47.9026 34.4896 46.4093 36.8682 46.4093 36.8682C46.4093 36.8682 50.9359 33.3954 53.5259 31.5401C56.6292 34.894 58.7758 37.8672 58.7758 37.8672C60.3858 40.0793 61.4824 42.5055 61.9024 45.3122H26.8563L26.9263 45.336Z" fill="#C91100"/>
</svg>
