<svg width="89" height="89" viewBox="0 0 89 89" fill="none" xmlns="http://www.w3.org/2000/svg">
<ellipse cx="44.75" cy="45.147" rx="30.4966" ry="30.1976" fill="white"/>
<path d="M68.4866 20.6289C56.6192 8.69448 44.7506 0 44.7506 0C44.7506 0 32.882 8.69448 21.0147 20.6289C9.14609 32.562 0.5 44.4977 0.5 44.4977C0.5 44.4977 9.14609 56.4333 21.0147 68.3664C32.882 80.3008 44.7506 88.9953 44.7506 88.9953C44.7506 88.9953 56.6192 80.3008 68.4866 68.3664C80.3539 56.4333 89 44.4977 89 44.4977C89 44.4977 80.3539 32.562 68.4866 20.6289ZM46.0114 46.1077C46.0114 46.1077 43.4641 46.5087 40.066 46.6765V61.3438H34.4571V46.679C31.0173 46.5124 28.427 46.1028 28.427 46.1028C28.427 46.1028 27.7862 42.0066 27.7837 37.2664C27.7825 32.5275 28.4221 28.4301 28.4221 28.4301C28.4221 28.4301 29.7676 28.2487 31.5562 28.0785V35.0037H34.554V27.8662C35.4833 27.8194 36.1892 27.7885 37.2143 27.7885C38.2393 27.7885 39.138 27.8194 40.066 27.8675V35.0037H43.0639V28.0822C44.8525 28.2537 46.0052 28.435 46.0052 28.435C46.0052 28.435 46.6473 32.5312 46.6485 37.2714C46.651 42.0116 46.0114 46.1077 46.0114 46.1077ZM56.2681 44.452C56.2006 44.5186 56.1343 44.584 56.0668 44.6506V61.3104H50.4578V27.7305C50.4578 27.7305 50.5928 27.8107 50.6162 27.828C50.9525 28.0797 53.63 30.0809 56.3233 32.815C59.2021 35.7378 61.2964 38.6582 61.2964 38.6582C61.2964 38.6582 59.1739 41.5576 56.2681 44.452Z" fill="#C91100"/>
</svg>
