<svg width="89" height="90" viewBox="0 0 89 90" fill="none" xmlns="http://www.w3.org/2000/svg">
<ellipse cx="44.75" cy="45.147" rx="30.4966" ry="30.1976" fill="white"/>
<path d="M42.8653 53.3181C40.6847 53.3181 40.2476 53.7993 40.2476 54.3093V54.3381C40.2476 54.8577 40.6847 55.3725 42.8653 55.3725C45.046 55.3725 45.4399 54.8914 45.4399 54.3526V54.3237C45.4399 53.8185 45.0508 53.3181 42.8653 53.3181Z" fill="#C91100"/>
<path d="M58.1113 37.3304L57.0353 39.736H59.2112L58.1113 37.3304Z" fill="#C91100"/>
<path d="M35.4105 39.736H37.5912L36.4912 37.3304L35.4105 39.736Z" fill="#C91100"/>
<path d="M59.5893 49.8778C56.9379 49.8778 56.2943 51.2057 56.2943 52.2594V52.4422C56.2943 53.5103 56.9859 54.9104 59.5893 54.9104C62.1927 54.9104 62.8844 53.5247 62.8844 52.4566V52.2594C62.8844 51.2057 62.1783 49.8778 59.5893 49.8778Z" fill="#C91100"/>
<path d="M71.708 48.5069C71.5507 48.4967 71.393 48.519 71.2446 48.5723C71.0962 48.6256 70.9603 48.7088 70.8453 48.8168C70.7302 48.9248 70.6386 49.0553 70.5759 49.2001C70.5132 49.345 70.4809 49.5013 70.4809 49.6592C70.4809 49.8171 70.5132 49.9733 70.5759 50.1182C70.6386 50.2631 70.7302 50.3936 70.8453 50.5016C70.9603 50.6096 71.0962 50.6928 71.2446 50.7461C71.393 50.7994 71.5507 50.8217 71.708 50.8115C71.8654 50.8217 72.0231 50.7994 72.1715 50.7461C72.3199 50.6928 72.4558 50.6096 72.5708 50.5016C72.6858 50.3936 72.7775 50.2631 72.8402 50.1182C72.9028 49.9733 72.9352 49.8171 72.9352 49.6592C72.9352 49.5013 72.9028 49.345 72.8402 49.2001C72.7775 49.0553 72.6858 48.9248 72.5708 48.8168C72.4558 48.7088 72.3199 48.6256 72.1715 48.5723C72.0231 48.519 71.8654 48.4967 71.708 48.5069Z" fill="#C91100"/>
<path d="M68.4853 20.7942C61.0637 13.3216 53.1337 6.37358 44.7524 0C27.9073 12.7203 13.0002 27.8288 0.5 44.8504C12.9986 61.8719 27.9059 76.979 44.7524 89.696C53.1344 83.3249 61.0644 76.3784 68.4853 68.9066C75.8697 61.3718 82.7243 53.3339 89 44.8504C82.7243 36.3669 75.8697 28.329 68.4853 20.7942ZM64.7291 35.1606H68.2211V40.4529H73.5719V42.9933H64.7387L64.7291 35.1606ZM55.7711 35.1606H60.6031L64.5514 42.974H60.6752L60.1949 41.8915H56.0785L55.5981 42.974H52.0629L55.7711 35.1606ZM43.1097 35.1606H46.6016V40.4529H51.9621V42.9933H43.1193L43.1097 35.1606ZM18.834 35.1606H22.3308V37.826H26.7546V35.1606H30.261V42.974H26.7546V40.0873H22.3308V42.974H18.834V35.1606ZM34.3389 54.3189C34.3389 56.0991 33.191 58.2978 26.524 58.2978H25.7699C19.0454 58.2978 18.2432 55.4447 18.2432 53.9677V53.8282H23.4307C23.4644 54.0735 23.5845 55.2042 26.111 55.2042C28.5126 55.2042 28.82 54.7231 28.82 54.2852C28.82 53.8763 28.5366 53.602 27.6336 53.602H24.108V50.8115H27.5855C28.4165 50.8115 28.6711 50.5661 28.6711 50.2438C28.6711 49.8637 28.5078 49.498 26.0677 49.498C23.6277 49.498 23.5076 50.3689 23.4788 50.5661H18.3441V50.4122C18.3441 49.1468 18.9925 46.5391 25.6883 46.5391H26.3703C33.2774 46.5391 33.8922 48.1701 33.8922 49.4692V49.5269C33.8922 50.6287 32.8259 51.2686 31.7115 51.4514C32.9892 51.6631 34.3485 52.4425 34.3485 54.2227L34.3389 54.3189ZM33.9739 42.974H30.4387L34.1468 35.1606H38.9933L42.9416 42.974H39.0653L38.585 41.8915H34.4686L33.9739 42.974ZM50.7132 54.2419C50.7132 56.0413 49.839 58.3122 43.028 58.3122H42.3364C35.5301 58.3122 34.704 54.7279 34.704 52.5917V52.226C34.704 50.1572 35.5301 46.5247 42.3892 46.5247H43.0665C49.0417 46.5247 50.1849 48.7234 50.1849 50.1861V50.2438H45.079C44.9734 50.0946 44.6275 49.4403 42.8791 49.4403C40.4775 49.4403 39.9155 50.8115 39.9155 51.6775V51.7882C40.2181 51.5717 41.3565 50.7345 44.5506 50.7345H44.7332C49.3971 50.7345 50.694 52.1779 50.694 54.1024L50.7132 54.2419ZM68.1442 52.6254C68.1442 54.776 67.1356 58.2978 59.9787 58.2978H59.287C52.0821 58.2978 51.1215 54.776 51.1215 52.6254V52.1683C51.1215 50.0032 52.1158 46.5247 59.287 46.5247H59.9787C67.1596 46.5247 68.1442 50.0032 68.1442 52.1683V52.6254ZM71.7275 52.7601C69.8878 52.7601 68.4757 51.5091 68.4757 49.6664C68.4757 47.8237 69.8878 46.5728 71.7275 46.5728C73.5671 46.5728 74.9649 47.8237 74.9649 49.6664C74.9649 51.5091 73.5239 52.7601 71.7275 52.7601Z" fill="#C91100"/>
</svg>
