<svg width="305" height="208" viewBox="0 0 305 208" fill="none" xmlns="http://www.w3.org/2000/svg">
<g clipPath="url(#clip0_3573_12379)">
<path d="M39.7472 112.525C39.9195 112.572 40.0973 112.595 40.2758 112.595C40.7558 112.595 41.2221 112.434 41.6012 112.139C41.9804 111.844 42.251 111.43 42.3704 110.964C43.1702 107.815 44.3003 104.759 45.7417 101.849L52.574 88.1409C52.6994 87.8856 52.7732 87.6079 52.7909 87.3239C52.8086 87.0398 52.7699 86.7551 52.6772 86.4861C52.5844 86.2172 52.4394 85.9693 52.2504 85.757C52.0615 85.5447 51.8325 85.3721 51.5766 85.2492C51.0607 84.9973 50.4663 84.9613 49.9239 85.1489C49.3815 85.3365 48.9356 85.7325 48.6841 86.2498L41.8518 99.9677C40.2636 103.16 39.0229 106.515 38.1513 109.973C38.081 110.249 38.066 110.536 38.1071 110.818C38.1482 111.1 38.2446 111.37 38.3907 111.614C38.5454 111.849 38.745 112.05 38.9779 112.206C39.2107 112.363 39.4723 112.471 39.7472 112.525Z" fill="#fa7305"/>
<path d="M76.821 139.16V129.995C76.821 129.422 76.594 128.872 76.19 128.467C75.786 128.062 75.238 127.834 74.6666 127.834H71.3951V119.359C71.3951 118.786 71.1681 118.236 70.7641 117.831C70.36 117.425 69.812 117.198 69.2407 117.198H23.1002L16.4873 110.574C16.2897 110.371 16.0539 110.211 15.7935 110.101C15.5332 109.991 15.2537 109.934 14.9712 109.934H7.58037C7.00898 109.934 6.46099 110.161 6.05696 110.567C5.65293 110.972 5.42595 111.522 5.42595 112.095V127.834H2.15442C1.58303 127.834 1.03505 128.062 0.631015 128.467C0.226983 128.872 0 129.422 0 129.995V139.16C0 139.734 0.226983 140.283 0.631015 140.689C1.03505 141.094 1.58303 141.322 2.15442 141.322H6.81235L11.0115 205.979C11.0517 206.522 11.295 207.03 11.6926 207.401C12.0902 207.772 12.6129 207.979 13.1559 207.98H63.8147C64.3578 207.979 64.8804 207.772 65.278 207.401C65.6757 207.03 65.9189 206.522 65.9592 205.979L70.0186 141.322H74.6666C75.238 141.322 75.786 141.094 76.19 140.689C76.594 140.283 76.821 139.734 76.821 139.16ZM62.6278 190.32L61.79 203.678H15.1807L14.3129 190.32H62.6278ZM64.5628 159.472L62.8971 185.997H14.0237L12.3081 159.472H64.5628ZM65.6998 141.322L64.8321 155.15H12.0288L11.1312 141.322H65.6998ZM9.73479 127.834V114.256H14.0735L20.6864 120.88C20.884 121.082 21.1199 121.243 21.3802 121.353C21.6405 121.463 21.92 121.52 22.2025 121.52H67.1162V127.834H9.73479ZM72.5122 132.156V136.999H4.27892V132.156H72.5122Z" fill="#fa7305"/>
<path d="M291.535 149.226V117.008H222.454L217.058 128.734C216.727 129.555 216.167 130.262 215.445 130.772C214.723 131.281 213.87 131.571 212.988 131.606H193.968C193.086 131.571 192.233 131.281 191.511 130.772C190.789 130.262 190.229 129.555 189.898 128.734L186.657 121.73H211.672V117.038H155.278C154.447 110.661 152.38 104.508 149.194 98.9272L136.656 76.9145C138.267 75.2059 139.163 72.9425 139.16 70.5909V61.0754C139.157 58.6222 138.188 56.2695 136.463 54.5302C134.739 52.7908 132.399 51.8059 129.953 51.79H53.0226C50.5686 51.7927 48.2158 52.7718 46.4805 54.5126C44.7453 56.2534 43.7692 58.6136 43.7666 61.0754V70.5709C43.7692 73.0318 44.7456 75.391 46.4812 77.1301C48.2167 78.8693 50.5695 79.8462 53.0226 79.8462H130.951L120.109 98.8572C115.838 106.353 113.59 114.837 113.586 123.471V203.638H73.2802C72.7088 203.638 72.1608 203.865 71.7568 204.271C71.3527 204.676 71.1257 205.226 71.1257 205.799C71.1257 206.372 71.3527 206.922 71.7568 207.327C72.1608 207.732 72.7088 207.96 73.2802 207.96H153.562C154.134 207.96 154.682 207.732 155.086 207.327C155.49 206.922 155.717 206.372 155.717 205.799V186.088H305V149.226H291.535ZM287.386 121.7V149.226H155.727V123.511C155.727 122.911 155.727 122.301 155.677 121.7H181.989L186.218 130.906C186.859 132.456 187.932 133.788 189.308 134.743C190.684 135.698 192.305 136.234 193.978 136.289H212.998C214.67 136.236 216.29 135.7 217.665 134.745C219.04 133.79 220.111 132.457 220.748 130.906L224.987 121.7H287.386ZM230.493 160.943C230.162 161.764 229.602 162.471 228.88 162.98C228.158 163.49 227.305 163.779 226.424 163.815H207.403C206.521 163.781 205.667 163.491 204.945 162.982C204.223 162.472 203.663 161.764 203.333 160.943L200.092 153.939H233.685L230.493 160.943ZM155.687 153.939H195.384L199.613 163.134C200.254 164.686 201.326 166.019 202.702 166.976C204.078 167.932 205.7 168.471 207.373 168.527H226.394C228.066 168.473 229.687 167.935 231.062 166.978C232.436 166.021 233.507 164.686 234.144 163.134L238.383 153.939H300.821V181.485H155.717L155.687 153.939ZM145.962 203.698H123.271L134.631 192.301L145.962 203.698ZM129.953 56.1125C131.276 56.1125 132.545 56.6396 133.48 57.5778C134.415 58.5161 134.94 59.7886 134.94 61.1154V70.6109C134.787 71.8186 134.2 72.9289 133.29 73.7336C132.379 74.5383 131.207 74.9822 129.993 74.9822C128.78 74.9822 127.608 74.5383 126.697 73.7336C125.786 72.9289 125.199 71.8186 125.046 70.6109V61.0754C125.056 59.7692 125.575 58.5189 126.492 57.5916C127.409 56.6642 128.651 56.1334 129.953 56.1125ZM120.707 61.1154V70.6109C120.701 72.3661 121.199 74.086 122.144 75.5638H53.0226C51.7086 75.5638 50.4476 75.0436 49.5137 74.1162C48.5799 73.1887 48.0487 71.9291 48.0355 70.6109V61.0754C48.0355 59.7486 48.561 58.476 49.4962 57.5378C50.4315 56.5996 51.7 56.0725 53.0226 56.0725H122.094C121.14 57.5646 120.641 59.3032 120.657 61.0754L120.707 61.1154ZM132.537 85.8597V188.329L117.865 202.997V123.511C117.881 115.626 119.943 107.881 123.849 101.038L132.537 85.8597ZM151.488 153.959V181.485H151.228L151.488 183.666V202.997L136.865 188.329V85.8197L145.533 101.038C149.442 107.88 151.505 115.626 151.518 123.511V152.588L151.338 153.919L151.488 153.959Z" fill="#fa7305"/>
<path d="M155.707 15.1289L155.278 42.8249L177.51 42.7949L177.5 38.0721L160.055 38.0922L160.425 15.209L155.707 15.1289Z" fill="#fa7305"/>
<path d="M118.314 41.5137L123.012 41.2536V40.7533V40.4631C123.01 33.3954 125.097 26.4859 129.01 20.6085C132.923 14.7311 138.486 10.1498 144.994 7.44424C151.503 4.73863 158.665 4.0302 165.575 5.40856C172.486 6.78691 178.833 10.1901 183.815 15.1877C188.797 20.1854 192.189 26.5529 193.563 33.4849C194.937 40.4169 194.231 47.6019 191.534 54.1312C188.837 60.6606 184.27 66.2408 178.411 70.1662C172.552 74.0916 165.665 76.1857 158.619 76.1837H158.121V80.9164H158.619C166.598 80.9204 174.399 78.5504 181.035 74.1062C187.671 69.662 192.844 63.3433 195.9 55.9493C198.955 48.5554 199.756 40.4184 198.201 32.5677C196.647 24.717 192.806 17.5052 187.164 11.8447C181.523 6.18424 174.335 2.32928 166.51 0.767501C158.684 -0.794279 150.573 0.00728832 143.201 3.07081C135.83 6.13433 129.53 11.3222 125.098 17.9781C120.666 24.634 118.302 32.4589 118.304 40.4631C118.304 40.6532 118.304 40.8233 118.304 41.0134L118.314 41.5137Z" fill="#fa7305"/>
<path d="M297.639 32.999H245.065V37.1014H297.639V32.999Z" fill="#fa7305"/>
<path d="M286.448 13.6177H224.888V17.72H286.448V13.6177Z" fill="#fa7305"/>
<path d="M276.185 51.2295H212.769V55.3319H276.185V51.2295Z" fill="#fa7305"/>
</g>
<defs>
<clipPath id="clip0_3573_12379">
<rect width="305" height="208" fill="white"/>
</clipPath>
</defs>
</svg>
