<svg width="220" height="228" viewBox="0 0 220 228" fill="none" xmlns="http://www.w3.org/2000/svg">
<g clipPath="url(#clip0_332_8315)">
<path d="M159.367 10.923L159.367 10.923V10.9329V11.155V11.3771V11.5993V11.8214V12.0435V12.2657V12.4878V12.7099V12.932V13.1542V13.3763V13.5984V13.8206V14.0427V14.2648V14.487V14.7091V14.9312V15.1533V15.3755V15.5976V15.8197V16.0419V16.264V16.4861V16.7082V16.9304V17.1525V17.3746V17.5968V17.8189V18.041V18.2631V18.4853V18.7074V18.9295V19.1517V19.3738V19.5959V19.818V20.0402V20.2623V20.4844V20.7066V20.9287V21.1508V21.3729V21.5951V21.8172V22.0393V22.2615V22.4836V22.7057V22.9278V23.15V23.3721V23.5942V23.8164V24.0385V24.2606V24.4827V24.7049V24.927V25.1491V25.3712V25.5934V25.8155V26.0376V26.2598V26.4819V26.704V26.9261V27.1483V27.3704V27.5925V27.8146V28.0368V28.2589V28.481V28.7032V28.9253V29.1474V29.3695V29.5917V29.8138V30.0359V30.258V30.4802V30.7023V30.9244V31.1466V31.3687V31.5908V31.8129V32.0351V32.2572V32.4793V32.7014V32.9236V33.1457V33.3678V33.5899V33.8121V34.0342V34.2563V34.4785V34.7006V34.9227V35.1448V35.367V35.5891V35.8112V36.0333V36.2555V36.4776V36.6997V36.9218V37.144V37.3661V37.5882V37.8103V38.0325V38.2546V38.4767V38.6988V38.921V39.1431V39.3652V39.5873V39.8095V40.0316V40.2537V40.4758V40.698V40.9201V41.1422V41.3643V41.5865V41.8086V42.0307V42.2528V42.475V42.6971V42.9192V43.1413V43.3635V43.5856V43.8077V44.0298V44.252V44.4741V44.6962V44.9183V45.1405V45.3626V45.5847V45.8068V46.029V46.2511V46.4732V46.6953V46.9175V47.1396V47.3617V47.5838V47.806V48.0281V48.2502V48.4723V48.6945V48.9166V49.1387V49.3608V49.583V49.8051V50.0272V50.2493V50.4715V50.6936V50.9157V51.1378V51.3599V51.5821V51.8042V52.0263V52.2484V52.4706V52.6927V52.9148V53.1369V53.3591V53.5812V53.8033V54.0254V54.2475V54.4697V54.6918V54.9139V55.136V55.3582V55.5803V55.8024V56.0245V56.2467V56.4688V56.6909V56.913V57.1351V57.3573V57.5794V57.8015V58.0236V58.2458V58.4679V58.69V58.9121V59.1343V59.3564V59.5785V59.8006V60.0227V60.2449V60.467V60.6891V60.9112V61.1334V61.3555V61.5776V61.7997V62.0218V62.244V62.4661V62.6882V62.9103V63.1324V63.3546V63.5767V63.7988V64.0209V64.2431V64.4652V64.6873V64.9094V65.1315V65.3537V65.5758V65.7979V66.02V66.2421V66.4643V66.6864V66.9085V67.1306V67.3528V67.5749V67.797V68.0191V68.2412V68.4634V68.6855V68.9076V69.1297V69.3518V69.574V69.7961V70.0182V70.2403V70.4624V70.6846V70.9067V71.1288V71.3509V71.5731V71.7952V72.0173V72.2394V72.4615V72.6837V72.9058V73.1279V73.35V73.5721V73.7943V74.0164V74.2385V74.4606V74.6827V74.9049V75.127V75.3491V75.5712V75.7933V76.0155V76.2376V76.4597V76.6818V76.9039V77.1261V77.3482V77.5703V77.7924V78.0145V78.2366V78.4588V78.6809V78.903V79.1251V79.3473V79.5694V79.7915V80.0136V80.2357V80.4578V80.68V80.9021V81.1242V81.3463V81.5684V81.7906V82.0127V82.2348V82.4569V82.679V82.9012V83.1233V83.3454V83.5675V83.7896V84.0117V84.2339V84.456V84.6781V84.9002V85.1223V85.3445V85.5666V85.7887V86.0108V86.2329V86.455V86.6772V86.8993V87.1214V87.3435V87.5656V87.7878V88.0099V88.232V88.4541V88.6762V88.8983V89.1205V89.3426V89.5647V89.7868V90.0089V90.2311V90.4532V90.6753V90.8974V91.1195V91.3416V91.5638V91.7859V92.008V92.2301V92.4522V92.6743V92.8965V93.1186V93.3407V93.5628V93.7849V94.007V94.2292V94.4513V94.6734V94.8955V95.1176V95.3398V95.5619V95.784V96.0061V96.2282V96.4503V96.6725V96.8946V97.1167V97.3388V97.5609V97.783V98.0051V98.2273V98.4494V98.6715V98.8936V99.1157V99.3379V99.56V99.7821V100.004V100.226V100.448V100.671V100.893V101.115V101.337V101.559V101.781V102.003V102.225V102.447V102.67V102.892V103.114V103.336V103.558V103.78V104.002V104.224V104.447V104.669V104.891V105.113V105.335V105.557V105.779V106.001V106.223V106.446V106.668V106.89V107.112V107.334V107.556V107.778V108V108.222V108.445V108.667V108.889V109.111V109.333V109.555V109.777V109.999V110.222V110.444V110.666V110.888V111.11V111.332V111.554V111.776V111.998V112.221V112.443V112.665V112.887V113.109V113.331V113.553V113.775V113.997V114.22V114.442V114.664V114.886V115.108V115.33V115.552V115.774V115.996V116.219V116.441V116.663V116.885V117.107V117.329V117.551V117.773V117.995V118.218V118.44V118.662V118.884V119.106V119.328V119.55V119.772V119.995V120.217V120.439V120.661V120.883V121.105V121.327V121.549V121.771V121.994V122.216V122.438V122.66V122.882V123.104V123.326V123.548V123.77V123.993V124.215V124.437V124.659V127.283V127.752L159.83 127.678C160.513 127.569 161.175 127.455 161.824 127.342C163.165 127.111 164.45 126.888 165.752 126.745L165.753 126.745C177.836 125.404 189.969 128.787 199.771 136.234C209.572 143.682 216.335 154.656 218.727 167.005L219.157 169.263L219.58 171.484V176.298C219.378 177.084 219.037 177.648 218.589 178.001C218.138 178.357 217.534 178.534 216.743 178.462L216.732 178.461L216.722 178.46C215.978 178.431 215.263 178.141 214.695 177.635C214.127 177.129 213.739 176.437 213.597 175.669L213.595 175.657L213.592 175.644C213.41 174.917 213.319 174.17 213.25 173.401C213.227 173.155 213.207 172.905 213.187 172.653C213.145 172.126 213.102 171.59 213.037 171.064L213.037 171.064C210.62 151.455 194.779 134.644 174.549 132.966C164.689 132.151 155.577 134.926 147.366 140.491C136.722 147.706 130.337 157.944 128.817 171.035C127.235 184.657 130.684 196.821 139.933 206.991C146.341 214.039 154.086 218.644 163.342 220.171C178.192 222.62 191.072 218.365 201.742 207.289C206.293 202.567 209.307 196.932 211.267 190.647L211.267 190.646C211.314 190.495 211.359 190.345 211.405 190.195C211.641 189.421 211.871 188.667 212.16 187.936C212.661 186.679 213.315 185.865 214.061 185.443C214.796 185.027 215.677 184.959 216.712 185.307C217.598 185.605 218.224 186.193 218.557 187.002C218.894 187.819 218.945 188.895 218.604 190.171L218.604 190.174C217.592 194.092 216.137 197.873 214.271 201.438C207.101 214.702 196.256 222.942 182.13 226.763L182.13 226.763C181.172 227.024 180.188 227.096 179.161 227.172L179.143 227.173C178.14 227.247 177.094 227.326 176.066 227.609H175.424C175.369 227.564 175.309 227.526 175.245 227.494C175.116 227.43 174.974 227.397 174.83 227.397C174.686 227.397 174.544 227.43 174.415 227.494C174.351 227.526 174.291 227.564 174.236 227.609H172.761C172.325 227.428 171.859 227.335 171.388 227.335C170.917 227.335 170.451 227.428 170.015 227.609H165.834C164.633 227.371 163.421 227.221 162.225 227.073C162.082 227.055 161.939 227.037 161.796 227.019C160.442 226.85 159.107 226.67 157.79 226.355L157.79 226.355C156.828 226.125 155.936 226.453 155.147 226.798C155.007 226.859 154.871 226.92 154.737 226.98C154.085 227.274 153.493 227.54 152.87 227.609H7.1604C4.62088 226.952 2.96571 226.033 1.93086 224.656C0.887178 223.267 0.423438 221.344 0.423438 218.568V218.16V217.752V217.343V216.935V216.526V216.118V215.71V215.301V214.893V214.484V214.076V213.667V213.259V212.851V212.442V212.034V211.625V211.217V210.808V210.4V209.992V209.583V209.175V208.766V208.358V207.949V207.541V207.133V206.724V206.316V205.907V205.499V205.09V204.682V204.274V203.865V203.457V203.048V202.64V202.231V201.823V201.415V201.006V200.598V200.189V199.781V199.372V198.964V198.556V198.147V197.739V197.33V196.922V196.513V196.105V195.697V195.288V194.88V194.471V194.063V193.654V193.246V192.838V192.429V192.021V191.612V191.204V190.795V190.387V189.979V189.57V189.162V188.753V188.345V187.936V187.528V187.12V186.711V186.303V185.894V185.486V185.077V184.669V184.261V183.852V183.444V183.035V182.627V182.218V181.81V181.402V180.993V180.585V180.176V179.768V179.359V178.951V178.543V178.134V177.726V177.317V176.909V176.5V176.092V175.684V175.275V174.867V174.458V174.05V173.642V173.233V172.825V172.416V172.008V171.599V171.191V170.783V170.374V169.966V169.557V169.149V168.74V168.332V167.924V167.515V167.107V166.698V166.29V165.881V165.473V165.065V164.656V164.248V163.839V163.431V163.022V162.614V162.206V161.797V161.389V160.98V160.572V160.163V159.755V159.347V158.938V158.53V158.121V157.713V157.304V156.896V156.488V156.079V155.671V155.262V154.854V154.445V154.037V153.629V153.22V152.812V152.403V151.995V151.586V151.178V150.77V150.361V149.953V149.544V149.136V148.727V148.319V147.911V147.502V147.094V146.685V146.277V145.868V145.46V145.052V144.643V144.235V143.826V143.418V143.009V142.601V142.193V141.784V141.376V140.967V140.559V140.15V139.742V139.334V138.925V138.517V138.108V137.7V137.291V136.883V136.475V136.066V135.658V135.249V134.841V134.432V134.024V133.616V133.207V132.799V132.39V131.982V131.574V131.165V130.757V130.348V129.94V129.531V129.123V128.715V128.306V127.898V127.489V127.081V126.672V126.264V125.856V125.447V125.039V124.63V124.222V123.813V123.405V122.997V122.588V122.18V121.771V121.363V120.954V120.546V120.138V119.729V119.321V118.912V118.504V118.095V117.687V117.279V116.87V116.462V116.053V115.645V115.236V114.828V114.42V114.011V113.603V113.194V112.786V112.377V111.969V111.561V111.152V110.744V110.335V109.927V109.518V109.11V108.702V108.293V107.885V107.476V107.068V106.659V106.251V105.843V105.434V105.026V104.617V104.209V103.8V103.392V102.984V102.575V102.167V101.758V101.35V100.941V100.533V100.125V99.7162V99.3078V98.8993V98.4909V98.0825V97.674V97.2656V96.8572V96.4488V96.0403V95.6319V95.2235V94.8151V94.4066V93.9982V93.5898V93.1814V92.7729V92.3645V91.9561V91.5476V91.1392V90.7308V90.3224V89.9139V89.5055V89.0971V88.6887V88.2802V87.8718V87.4634V87.0549V86.6465V86.2381V85.8297V85.4212V85.0128V84.6044V84.196V83.7875V83.3791V82.9707V82.5622V82.1538V81.7454V81.337V80.9285V80.5201V80.1117V79.7033V79.2948V78.8864V78.478V78.0695V77.6611V77.2527V76.8443V76.4358V76.0274V75.619V75.2106V74.8021V74.3937V73.9853V73.5768V73.1684V72.76V72.3516V71.9431V71.5347V71.1263V70.7179V70.3094V69.901V69.4926V69.0841V68.6757V68.2673V67.8589V67.4504V67.042V66.6336V66.2252V65.8167V65.4083V64.9999V64.5914V64.183V63.7746V63.3662V62.9577V62.5493V62.1409V61.7325V61.324V60.9156V60.5072V60.0987V59.6903V59.2819V58.8735V58.465V58.0566V57.6482V57.2398V56.8313V56.4229V56.0145V55.606V55.1976V54.7892V54.3808V53.9723V53.5639V53.1555V52.7471V52.3386V51.9302V51.5218V51.1133V50.7049V50.2965V49.8881V49.4796V49.0712V48.6628V48.2544V47.8459V47.4375V47.0291V46.6207V46.2122V45.8038V45.3954V44.9869V44.5785V44.1701V43.7617V43.3532V42.9448V42.5364V42.128V41.7195V41.3111V40.9027V40.4942V40.0858V39.6774V39.269V38.8605V38.4521V38.0437V37.6353V37.2268V36.8184V36.41V36.0015V35.5931V35.1847V34.7763V34.3678V33.9594V33.551V33.1426V32.7341V32.3257V31.9173V31.5088V31.1004V30.692V30.2836V29.8751V29.4667V29.0583V28.6499V28.2414V27.833V27.4246V27.0161V26.6077V26.1993V25.7909V25.3824V24.974V24.5656V24.1572V23.7487V23.3403V22.9319V22.5234V22.115V21.7066V21.2982V20.8897V20.4813V20.0729V19.6645V19.256V18.8476V18.4392V18.0307V17.6223V17.2139V16.8055V16.397V15.9886V15.5802V15.1718V14.7633V14.3549V13.9465V13.538V13.1296V12.7212V12.3128V11.9043V11.4959V11.0875V10.6791V10.2706V9.86221V9.45378C0.423438 6.5485 1.01626 4.12598 3.12616 2.17366L3.12693 2.17295C4.06073 1.30435 5.11802 1.01121 6.291 0.685992C6.58408 0.604733 6.88438 0.521471 7.19179 0.42673H80.7849C80.8891 0.6453 81.0578 0.786983 81.2146 0.887241C81.2806 0.92942 81.3644 0.975796 81.4299 1.01207C81.4581 1.02769 81.4829 1.04144 81.5015 1.05217C81.5824 1.09896 81.6292 1.13291 81.6597 1.16444L81.6698 1.17495L81.6807 1.1847C82.1077 1.56659 82.4112 2.07832 82.5469 2.6501C82.6825 3.22195 82.643 3.82338 82.4342 4.3704L82.4287 4.38479L82.4244 4.39957C82.2671 4.93104 81.9547 5.39628 81.5329 5.73213L81.7821 6.04505L81.5329 5.73213C81.1113 6.06782 80.6011 6.258 80.0732 6.27854L80.0646 6.27887L80.0561 6.27958C79.2139 6.34868 78.3701 6.34074 77.5052 6.3326C77.2216 6.32993 76.9356 6.32724 76.6468 6.32724H10.6764C9.83236 6.32724 9.13046 6.36821 8.55757 6.49466C7.97899 6.62237 7.50484 6.8431 7.14555 7.22141C6.78806 7.59782 6.58205 8.0906 6.46271 8.69032C6.34402 9.2868 6.30524 10.0199 6.30524 10.9062V217.014C6.30524 217.934 6.34177 218.691 6.45907 219.304C6.57696 219.919 6.78265 220.423 7.14691 220.806C7.51304 221.19 7.99888 221.41 8.59362 221.536C9.18281 221.661 9.90921 221.699 10.7883 221.699H146.502H147.829L146.723 220.966C142.571 218.213 139.069 215.531 135.964 212.325L135.964 212.325C112.23 187.833 120.333 144.321 151.167 130.822C152.071 130.427 152.744 129.976 153.178 129.311C153.61 128.646 153.767 127.824 153.765 126.77C153.687 88.2601 153.669 49.7504 153.709 11.2407V11.2403C153.709 10.246 153.675 9.43668 153.559 8.78828C153.442 8.13735 153.235 7.60837 152.858 7.2104C152.478 6.81009 151.969 6.58842 151.343 6.46373C150.722 6.3401 149.95 6.30497 149.006 6.30497H95.2766H95.2741H95.2716H95.2691H95.2665H95.264H95.2615H95.259H95.2564H95.2539H95.2514H95.2489H95.2464H95.2438H95.2413H95.2388H95.2363H95.2338H95.2312H95.2287H95.2262H95.2237H95.2211H95.2186H95.2161H95.2136H95.2111H95.2085H95.206H95.2035H95.201H95.1985H95.1959H95.1934H95.1909H95.1884H95.1859H95.1833H95.1808H95.1783H95.1758H95.1732H95.1707H95.1682H95.1657H95.1632H95.1606H95.1581H95.1556H95.1531H95.1506H95.148H95.1455H95.143H95.1405H95.138H95.1354H95.1329H95.1304H95.1279H95.1254H95.1228H95.1203H95.1178H95.1153H95.1127H95.1102H95.1077H95.1052H95.1027H95.1001H95.0976H95.0951H95.0926H95.0901H95.0875H95.085H95.0825H95.08H95.0775H95.0749H95.0724H95.0699H95.0674H95.0648H95.0623H95.0598H95.0573H95.0548H95.0522H95.0497H95.0472H95.0447H95.0422H95.0396H95.0371H95.0346H95.0321H95.0296H95.027H95.0245H95.022H95.0195H95.0169H95.0144H95.0119H95.0094H95.0069H95.0043H95.0018H94.9993H94.9968H94.9943H94.9917H94.9892H94.9867H94.9842H94.9817H94.9791H94.9766H94.9741H94.9716H94.969H94.9665H94.964H94.9615H94.959H94.9564H94.9539H94.9514H94.9489H94.9464H94.9438H94.9413H94.9388H94.9363H94.9338H94.9312H94.9287H94.9262H94.9237H94.9212H94.9186H94.9161H94.9136H94.9111H94.9085H94.906H94.9035H94.901H94.8985H94.8959H94.8934H94.8909H94.8884H94.8859H94.8833H94.8808H94.8783H94.8758H94.8733H94.8707H94.8682H94.8657H94.8632H94.8606H94.8581H94.8556H94.8531H94.8506H94.848H94.8455H94.843H94.8405H94.838H94.8354H94.8329H94.8304H94.8279H94.8253H94.8228H94.8203H94.8178H94.8153H94.8127H94.8102H94.8077H94.8052H94.8027H94.8001H94.7976H94.7951H94.7926H94.7901H94.7875H94.785H94.7825H94.78H94.7775H94.7749H94.7724H94.7699H94.7674H94.7648H94.7623H94.7598H94.7573H94.7548H94.7522H94.7497H94.7472H94.7447H94.7422H94.7396H94.7371H94.7346H94.7321H94.7296H94.727H94.7245H94.722H94.7195H94.7169H94.7144H94.7119H94.7094H94.7069H94.7043H94.7018H94.6993H94.6968H94.6943H94.6917H94.6892H94.6867H94.6842H94.6817H94.6791H94.6766H94.6741H94.6716H94.6691H94.6665H94.664H94.6615H94.659H94.6564H94.6539H94.6514H94.6489H94.6464H94.6438H94.6413H94.6388H94.6363H94.6338H94.6312H94.6287H94.6262H94.6237H94.6211H94.6186H94.6161H94.6136H94.6111H94.6085H94.606H94.6035H94.601H94.5985H94.5959H94.5934H94.5909H94.5884H94.5859H94.5833H94.5808H94.5783H94.5758H94.5732H94.5707H94.5682H94.5657H94.5632H94.5606H94.5581H94.5556H94.5531H94.5506H94.548H94.5455H94.543H94.5405H94.538H94.5354H94.5329H94.5304H94.5279H94.5254H94.5228H94.5203H94.5178H94.5153H94.5127H94.5102H94.5077H94.5052H94.5027H94.5001H94.4976H94.4951H94.4926H94.4901H94.4875H94.485H94.4825H94.48H94.4775H94.4749H94.4724H94.4699H94.4674H94.4648H94.4623H94.4598H94.4573H94.4548H94.4522H94.4497H94.4472H94.4447H94.4422H94.4396H94.4371H94.4346H94.4321H94.4296H94.427H94.4245H94.422H94.4195H94.4169H94.4144H94.4119H94.4094H94.4069H94.4043H94.4018H94.3993H94.3968H94.3943H94.3917H94.3892H94.3867H94.3842H94.3817H94.3791H94.3766H94.3741H94.3716H94.369H94.3665H94.364H94.3615H94.359H94.3564H94.3539H94.3514H94.3489H94.3464H94.3438H94.3413H94.3388H94.3363H94.3338H94.3312H94.3287H94.3262H94.3237H94.3212H94.3186H94.3161H94.3136H94.3111H94.3085H94.306H94.3035H94.301H94.2985H94.2959H94.2934H94.2909H94.2884H94.2859H94.2833H94.2808H94.2783H94.2758H94.2732H94.2707H94.2682H94.2657H94.2632H94.2606H94.2581H94.2556H94.2531H94.2506H94.248H94.2455H94.243H94.2405H94.238H94.2354H94.2329H94.2304H94.2279H94.2253H94.2228H94.2203H94.2178H94.2153H94.2127H94.2102H94.2077H94.2052H94.2027H94.2001H94.1976H94.1951H94.1926H94.1901H94.1875H94.185H94.1825H94.18H94.1775H94.1749H94.1724H94.1699H94.1674H94.1648H94.1623H94.1598H94.1573H94.1548H94.1522H94.1497H94.1472H94.1447H94.1422H94.1396H94.1371H94.1346H94.1321H94.1296H94.127H94.1245H94.122H94.1195H94.117H94.1144H94.1119H94.1094H94.1069H94.1043H94.1018H94.0993H94.0968H94.0943H94.0917H94.0892H94.0867H94.0842H94.0816H94.0791H94.0766H94.0741H94.0716H94.069H94.0665H94.064H94.0615H94.059H94.0564H94.0539H94.0514H94.0489H94.0464H94.0438H94.0413H94.0388H94.0363H94.0338H94.0312H94.0287H94.0262H94.0237H94.0211H94.0186H94.0161H94.0136H94.0111H94.0085H94.006H94.0035H94.001H93.9985H93.9959H93.9934H93.9909H93.9884H93.9859H93.972L93.9582 6.30592C93.0553 6.3684 92.2552 6.29135 91.6144 5.98994C90.9913 5.69682 90.4826 5.17487 90.1791 4.26207C89.8796 3.3615 90.0017 2.64727 90.3515 2.03286C90.696 1.42778 91.2738 0.898527 91.963 0.4H152.821C155.976 1.85329 158.486 3.79734 159.148 7.46079C159.322 8.60556 159.396 9.76447 159.367 10.923Z" fill="#fa7305" stroke="white" stroke-width="0.8"/>
<mask id="path-4-inside-1_332_8315" fill="white">
<path d="M170.109 228C170.466 227.674 170.925 227.494 171.4 227.494C171.876 227.494 172.335 227.674 172.691 228H170.109Z"/>
</mask>
<path d="M170.109 228C170.466 227.674 170.925 227.494 171.4 227.494C171.876 227.494 172.335 227.674 172.691 228H170.109Z" fill="#fa7305"/>
<path d="M170.109 228L169.569 227.41L168.05 228.8H170.109V228ZM171.4 227.494V228.294V227.494ZM172.691 228V228.8H174.75L173.231 227.41L172.691 228ZM170.649 228.59C170.861 228.397 171.128 228.294 171.4 228.294V226.694C170.721 226.694 170.07 226.951 169.569 227.41L170.649 228.59ZM171.4 228.294C171.672 228.294 171.939 228.397 172.151 228.59L173.231 227.41C172.73 226.951 172.079 226.694 171.4 226.694V228.294ZM172.691 227.2H170.109V228.8H172.691V227.2Z" fill="white" mask="url(#path-4-inside-1_332_8315)"/>
<mask id="path-6-inside-2_332_8315" fill="white">
<path d="M174.41 228C174.698 227.403 174.982 227.327 175.271 228H174.41Z"/>
</mask>
<path d="M174.41 228C174.698 227.403 174.982 227.327 175.271 228H174.41Z" fill="#9A9A9A"/>
<path d="M174.41 228L173.69 227.652L173.135 228.8H174.41V228ZM175.271 228V228.8H176.484L176.006 227.685L175.271 228ZM175.131 228.348C175.157 228.293 175.18 228.252 175.198 228.223C175.216 228.193 175.225 228.183 175.223 228.185C175.222 228.187 175.199 228.214 175.149 228.244C175.096 228.276 175.009 228.314 174.893 228.322C174.633 228.339 174.486 228.195 174.465 228.173C174.449 228.155 174.478 228.182 174.535 228.315L176.006 227.685C175.919 227.481 175.804 227.266 175.645 227.092C175.481 226.913 175.191 226.699 174.788 226.726C174.413 226.75 174.161 226.972 174.028 227.122C173.886 227.281 173.777 227.472 173.69 227.652L175.131 228.348ZM175.271 227.2H174.41V228.8H175.271V227.2Z" fill="white" mask="url(#path-6-inside-2_332_8315)"/>
<path d="M21.7652 155.503H21.7543L21.7434 155.503C21.0527 155.541 20.3601 155.518 19.6731 155.435C18.9521 155.306 18.4037 155.024 18.0192 154.611C17.6335 154.196 17.3819 153.615 17.3148 152.834C17.2474 152.05 17.3905 151.417 17.6976 150.931C18.0017 150.45 18.4893 150.077 19.1804 149.849C19.9674 149.645 20.7791 149.563 21.5891 149.606L21.5997 149.606H21.6103H21.7853H21.9603H22.1353H22.3103H22.4853H22.6603H22.8353H23.0104H23.1854H23.3604H23.5354H23.7104H23.8854H24.0604H24.2354H24.4104H24.5854H24.7604H24.9354H25.1105H25.2855H25.4605H25.6355H25.8105H25.9855H26.1605H26.3355H26.5105H26.6855H26.8605H27.0356H27.2106H27.3856H27.5606H27.7356H27.9106H28.0856H28.2606H28.4356H28.6106H28.7857H28.9607H29.1357H29.3107H29.4857H29.6607H29.8357H30.0107H30.1857H30.3608H30.5358H30.7108H30.8858H31.0608H31.2358H31.4108H31.5858H31.7608H31.9359H32.1109H32.2859H32.4609H32.6359H32.8109H32.9859H33.1609H33.336H33.511H33.686H33.861H34.036H34.211H34.386H34.561H34.7361H34.9111H35.0861H35.2611H35.4361H35.6111H35.7861H35.9611H36.1362H36.3112H36.4862H36.6612H36.8362H37.0112H37.1862H37.3612H37.5363H37.7113H37.8863H38.0613H38.2363H38.4113H38.5863H38.7614H38.9364H39.1114H39.2864H39.4614H39.6364H39.8114H39.9865H40.1615H40.3365H40.5115H40.6865H40.8615H41.0366H41.2116H41.3866H41.5616H41.7366H41.9116H42.0866H42.2617H42.4367H42.6117H42.7867H42.9617H43.1367H43.3118H43.4868H43.6618H43.8368H44.0118H44.1868H44.3618H44.5369H44.7119H44.8869H45.0619H45.2369H45.4119H45.587H45.762H45.937H46.112H46.287H46.462H46.6371H46.8121H46.9871H47.1621H47.3371H47.5122H47.6872H47.8622H48.0372H48.2122H48.3872H48.5623H48.7373H48.9123H49.0873H49.2623H49.4373H49.6124H49.7874H49.9624H50.1374H50.3124H50.4875H50.6625H50.8375H51.0125H51.1875H51.3626H51.5376H51.7126H51.8876H52.0626H52.2376H52.4127H52.5877H52.7627H52.9377H53.1127H53.2878H53.4628H53.6378H53.8128H53.9878H54.1629H54.3379H54.5129H54.6879H54.8629H55.038H55.213H55.388H55.563H55.738H55.9131H56.0881H56.2631H56.4381H56.6132H56.7882H56.9632H57.1382H57.3132H57.4883H57.6633H57.8383H58.0133H58.1883H58.3634H58.5384H58.7134H58.8884H59.0634H59.2385H59.4135H59.5885H59.7635H59.9386H60.1136H60.2886H60.4636H60.6386H60.8137H60.9887H61.1637H61.3387H61.5138H61.6888H61.8638H62.0388H62.2139H62.3889H62.5639H62.7389H62.9139H63.089H63.264H63.439H63.614H63.7891H63.9641H64.1391H64.3141H64.4892H64.6642H64.8392H65.0142H65.1893H65.3643H65.5393H65.7143H65.8894H66.0644H66.2394H66.4144H66.5895H66.7645H66.9395H67.1145H67.2896H67.4646H67.6396H67.8146H67.9897H68.1647H68.3397H68.5147H68.6898H68.8648H69.0398H69.2148H69.3899H69.5649H69.7399H69.9149H70.09H70.265H70.44H70.615H70.7901H70.9651H71.1401H71.3151H71.4902H71.6652H71.8402H72.0152H72.1903H72.3653H72.5403H72.7154H72.8904H73.0654H73.2404H73.4155H73.5905H73.7655H73.9405H74.1156H74.2906H74.4656H74.6407H74.8157H74.9907H75.1657H75.3408H75.5158H75.6908H75.8658H76.0409H76.2159H76.3909H76.566H76.741H76.916H77.091H77.2661H77.4411H77.6161H77.7912H77.9662H78.1412H78.3162H78.4913H78.6663H78.8413H79.0164H79.1914H79.3664H79.5415H79.7165H79.8915H80.0665H80.2416H80.4166H80.5916H80.7667H80.9417H81.1167H81.2918H81.4668H81.6418H81.8168H81.9919H82.1669H82.3419H82.517H82.692H82.867H83.0421H83.2171H83.3921H83.5672H83.7422H83.9172H84.0922H84.2673H84.4423H84.6173H84.7924H84.9674H85.1424H85.3175H85.4925H85.6675H85.8426H86.0176H86.1926H86.3677H86.5427H86.7177H86.8928H87.0678H87.2428H87.4178H87.5929H87.7679H87.9429H88.118H88.293H88.468H88.6431H88.8181H88.9931H89.1682H89.3432H89.5182H89.6933H89.8683H90.0433H90.2184H90.3934H90.5684H90.7435H90.9185H91.0935H91.2686H91.4436H91.6186H91.7937H91.9687H92.1438H92.3188H92.4938H92.6689H92.8439H93.0189H93.194H93.369H93.544H93.7191H93.8941H94.0691H94.2442H94.4192H94.5942H94.7693H94.9443H95.1193H95.2944H95.4694H95.6444H95.8195H95.9945H96.1696H96.3446H96.5196H96.6947H96.8697H97.0447H97.2198H97.3948H97.5698H97.7449H97.9199H98.0949H98.27H98.445H98.6201H98.7951H98.9701H99.1452H99.3202H99.4952H99.6703H99.8453H100.02H100.195H100.37H100.545H100.721H100.896H101.071H101.246H101.421H101.596H101.771H101.946H102.121H102.296H102.471H102.646H102.821H102.996H103.171H103.346H103.521H103.696H103.871H104.046H104.221H104.396H104.571H104.746H104.921H105.096H105.271H105.447H105.622H105.797H105.972H106.147H106.322H106.497H106.672H106.847H107.022H107.197H107.372H107.547H107.722H107.897H108.072H108.247H108.422H108.597H108.772H108.947H109.122H109.297H109.472H109.647H109.823H109.998H110.173H110.348H110.523H110.698H110.873H111.048H111.223H111.234L111.244 149.606C112.059 149.562 112.875 149.642 113.667 149.844L113.67 149.844C114.277 149.994 114.812 150.375 115.166 150.917L115.501 150.698L115.166 150.917C115.52 151.459 115.666 152.121 115.573 152.772L115.571 152.785L115.57 152.798C115.511 153.58 115.263 154.158 114.88 154.574C114.498 154.99 113.95 155.279 113.23 155.428C112.547 155.519 111.857 155.545 111.169 155.503L111.157 155.503H111.145H66.4639H21.7652Z" fill="#fa7305" stroke="white" stroke-width="0.8"/>
<path d="M63.6782 176.388H63.6781H63.5962H63.5143H63.4325H63.3506H63.2687H63.1869H63.105H63.0231H62.9413H62.8594H62.7775H62.6957H62.6138H62.5319H62.4501H62.3682H62.2864H62.2045H62.1226H62.0408H61.9589H61.877H61.7952H61.7133H61.6314H61.5496H61.4677H61.3858H61.304H61.2221H61.1403H61.0584H60.9765H60.8947H60.8128H60.7309H60.6491H60.5672H60.4854H60.4035H60.3216H60.2398H60.1579H60.076H59.9942H59.9123H59.8305H59.7486H59.6667H59.5849H59.503H59.4211H59.3393H59.2574H59.1756H59.0937H59.0118H58.93H58.8481H58.7663H58.6844H58.6025H58.5207H58.4388H58.3569H58.2751H58.1932H58.1114H58.0295H57.9476H57.8658H57.7839H57.7021H57.6202H57.5383H57.4565H57.3746H57.2928H57.2109H57.129H57.0472H56.9653H56.8835H56.8016H56.7197H56.6379H56.556H56.4742H56.3923H56.3104H56.2286H56.1467H56.0649H55.983H55.9011H55.8193H55.7374H55.6556H55.5737H55.4919H55.41H55.3281H55.2463H55.1644H55.0826H55.0007H54.9188H54.837H54.7551H54.6733H54.5914H54.5096H54.4277H54.3458H54.264H54.1821H54.1003H54.0184H53.9366H53.8547H53.7728H53.691H53.6091H53.5273H53.4454H53.3636H53.2817H53.1998H53.118H53.0361H52.9543H52.8724H52.7906H52.7087H52.6268H52.545H52.4631H52.3813H52.2994H52.2176H52.1357H52.0538H51.972H51.8901H51.8083H51.7264H51.6446H51.5627H51.4809H51.399H51.3172H51.2353H51.1534H51.0716H50.9897H50.9079H50.826H50.7442H50.6623H50.5805H50.4986H50.4167H50.3349H50.253H50.1712H50.0893H50.0075H49.9256H49.8438H49.7619H49.6801H49.5982H49.5163H49.4345H49.3526H49.2708H49.1889H49.1071H49.0252H48.9434H48.8615H48.7797H48.6978H48.616H48.5341H48.4523H48.3704H48.2885H48.2067H48.1248H48.043H47.9611H47.8793H47.7974H47.7156H47.6337H47.5519H47.47H47.3882H47.3063H47.2245H47.1426H47.0608H46.9789H46.8971H46.8152H46.7334H46.6515H46.5696H46.4878H46.4059H46.3241H46.2422H46.1604H46.0785H45.9967H45.9148H45.833H45.7511H45.6693H45.5874H45.5056H45.4237H45.3419H45.26H45.1782H45.0963H45.0145H44.9326H44.8508H44.7689H44.6871H44.6052H44.5234H44.4415H44.3597H44.2778H44.196H44.1141H44.0323H43.9504H43.8686H43.7867H43.7049H43.623H43.5412H43.4593H43.3775H43.2956H43.2138H43.1319H43.0501H42.9682H42.8864H42.8045H42.7227H42.6409H42.559H42.4772H42.3953H42.3135H42.2316H42.1498H42.0679H41.9861H41.9042H41.8224H41.7405H41.6587H41.5768H41.495H41.4131H41.3313H41.2494H41.1676H41.0857H41.0039H40.922H40.8402H40.7584H40.6765H40.5947H40.5128H40.431H40.3491H40.2673H40.1854H40.1036H40.0217H39.9399H39.858H39.7762H39.6944H39.6125H39.5307H39.4488H39.367H39.2851H39.2033H39.1214H39.0396H38.9577H38.8759H38.794H38.7122H38.6304H38.5485H38.4667H38.3848H38.303H38.2211H38.1393H38.0574H37.9756H37.8938H37.8119H37.7301H37.6482H37.5664H37.4845H37.4027H37.3208H37.239H37.1572H37.0753H36.9935H36.9116H36.8298H36.7479H36.6661H36.5842H36.5024H36.4206H36.3387H36.2569H36.175H36.0932H36.0113H35.9295H35.8477H35.7658H35.684H35.6021H35.5203H35.4384H35.3566H35.2748H35.1929H35.1111H35.0292H34.9474H34.8655H34.7837H34.7019H34.62H34.5382H34.4563H34.3745H34.2927H34.2108H34.129H34.0471H33.9653H33.8834H33.8016H33.7198H33.6379H33.5561H33.4742H33.3924H33.3106H33.2287H33.1469H33.065H32.9832H32.9014H32.8195H32.7377H32.6558H32.574H32.4922H32.4103H32.3285H32.2466H32.1648H32.083H32.0011H31.9193H31.8374H31.7556H31.6738H31.5919H31.5101H31.4282H31.3464H31.2646H31.1827H31.1009H31.019H30.9372H30.8554H30.7735H30.6917H30.6098H30.528H30.4462H30.3643H30.2825H30.2007H30.1188H30.037H29.9551H29.8733H29.7915H29.7096H29.6278H29.5459H29.4641H29.3823H29.3004H29.2186H29.1368H29.0549H28.9731H28.8912H28.8094H28.7276H28.6457H28.5639H28.4821H28.4002H28.3184H28.2366H28.1547H28.0729H27.991H27.9092H27.8274H27.7455H27.6637H27.5819H27.5H27.4182H27.3363H27.2545H27.1727H27.0908H27.009H26.9272H26.8453H26.7635H26.6817H26.5998H26.518H26.4362H26.3543H26.2725H26.1907H26.1088H26.027H25.9451H25.8633H25.7815H25.6996H25.6178H25.536H25.4541H25.3723H25.2905H25.2086H25.1268H25.045H24.9631H24.8813H24.7995H24.7176H24.6358H24.554H24.4721H24.3903H24.3085H24.2266H24.1448H24.063H23.9811H23.8993H23.8175H23.7356H23.6538H23.572H23.4901H23.4083H23.3265H23.2446H23.1628H23.081H22.9991H22.9173H22.8355H22.7536H22.6718H22.59H22.5081H22.4263H22.3445H22.2626H22.1808H22.099H22.0171H21.9353H21.8535H21.7716H21.7576L21.7436 176.389C20.9962 176.442 20.2455 176.403 19.507 176.273C18.755 176.079 18.2007 175.731 17.839 175.256C17.4758 174.78 17.2779 174.138 17.3095 173.306C17.3412 172.476 17.5873 171.862 17.9841 171.427C18.381 170.992 18.9632 170.697 19.7368 170.569C20.3521 170.496 20.9722 170.476 21.5907 170.51L21.6016 170.51H21.6125H105.855H105.865L105.875 170.51C106.494 170.479 107.114 170.502 107.728 170.577C108.51 170.715 109.092 171.037 109.483 171.494C109.877 171.952 110.108 172.579 110.128 173.377C110.148 174.17 109.94 174.809 109.563 175.291C109.188 175.77 108.621 176.123 107.867 176.303C107.191 176.415 106.504 176.45 105.82 176.407L105.808 176.406L105.795 176.406L63.6782 176.388Z" fill="#fa7305" stroke="white" stroke-width="0.8"/>
<path d="M83.2074 191.351H83.2173L83.2272 191.35C83.9875 191.313 84.7496 191.349 85.5034 191.458V191.458L85.507 191.459C86.0914 191.538 86.6324 191.83 87.032 192.287C87.4318 192.744 87.6634 193.336 87.6823 193.957L87.683 193.981L87.6866 194.004C87.779 194.619 87.6628 195.246 87.3593 195.78C87.0558 196.314 86.5851 196.719 86.0297 196.93L86.0161 196.935L86.0029 196.941C85.2917 197.273 84.503 197.271 83.616 197.269C83.552 197.269 83.4875 197.269 83.4225 197.269H21.5783C21.5118 197.269 21.446 197.269 21.3807 197.269C20.4999 197.271 19.7256 197.273 18.993 196.943L18.9824 196.939L18.9716 196.935C18.4162 196.723 17.9457 196.317 17.643 195.782C17.34 195.248 17.2248 194.619 17.3184 194.005L17.3221 193.981L17.3228 193.956C17.3408 193.336 17.571 192.745 17.9694 192.288C18.3675 191.832 18.907 191.539 19.4902 191.459L19.4902 191.459L19.4943 191.458C20.2471 191.346 21.0086 191.31 21.7681 191.35L21.7786 191.351H21.7891H52.7112H83.2074Z" fill="#fa7305" stroke="white" stroke-width="0.8"/>
<path d="M98.5693 191.378L98.5697 191.378C104.067 191.342 109.563 191.342 115.06 191.378V191.378H115.063C116.168 191.378 117.016 191.674 117.59 192.157C118.159 192.636 118.497 193.327 118.536 194.197C118.568 195.124 118.258 195.867 117.69 196.388C117.116 196.915 116.239 197.251 115.082 197.274C113.254 197.297 111.437 197.288 109.616 197.279C108.651 197.274 107.685 197.27 106.716 197.27C105.807 197.27 104.9 197.274 103.994 197.278C102.189 197.287 100.388 197.296 98.5827 197.27C97.4077 197.246 96.5452 196.923 95.987 196.407C95.4352 195.898 95.1339 195.158 95.1593 194.196C95.1848 193.272 95.4952 192.59 96.0338 192.131C96.5804 191.665 97.4147 191.384 98.5693 191.378Z" fill="#fa7305" stroke="white" stroke-width="0.8"/>
<path d="M187.28 197.646L187.28 197.646C185.83 197.555 184.877 196.72 184.034 195.86L184.031 195.858C183.279 195.079 182.528 194.3 181.777 193.522C179.339 190.994 176.904 188.47 174.451 185.96L174.451 185.96C173.114 184.591 171.999 183.985 170.951 183.979C169.903 183.973 168.793 184.566 167.464 185.921C165.695 187.725 163.945 189.54 162.194 191.355C160.76 192.842 159.326 194.33 157.878 195.815L157.878 195.815C156.866 196.851 155.84 197.485 154.834 197.635C153.804 197.789 152.86 197.428 152.066 196.617C151.266 195.802 150.912 194.791 151.045 193.699C151.176 192.621 151.777 191.503 152.802 190.43L152.803 190.43C154.649 188.502 156.506 186.583 158.361 184.664C159.598 183.386 160.834 182.108 162.067 180.828C163.543 179.286 164.19 178.095 164.182 176.965C164.174 175.832 163.508 174.631 162.006 173.069L162.006 173.069C158.874 169.802 155.737 166.551 152.594 163.314L152.593 163.313C151.642 162.329 150.771 161.16 151.03 159.475C151.109 158.812 151.367 158.184 151.777 157.665C152.187 157.143 152.734 156.752 153.354 156.537C154.997 155.939 156.402 156.621 157.49 157.73L157.49 157.73C158.08 158.33 158.672 158.93 159.265 159.53C161.438 161.727 163.62 163.934 165.677 166.243M187.28 197.646L165.38 166.51M187.28 197.646L187.294 197.646L187.28 197.646ZM165.677 166.243C165.678 166.244 165.678 166.244 165.678 166.244L165.38 166.51M165.677 166.243C165.677 166.243 165.677 166.243 165.677 166.243L165.38 166.51M165.677 166.243C166.803 167.498 167.752 168.421 168.608 169.031C169.462 169.638 170.197 169.914 170.905 169.918C171.612 169.921 172.353 169.653 173.218 169.048C174.086 168.44 175.051 167.513 176.2 166.242M165.38 166.51C169.906 171.554 171.876 171.62 176.497 166.51M176.2 166.242C176.2 166.242 176.2 166.243 176.2 166.243L176.497 166.51M176.2 166.242C178.846 163.306 181.637 160.519 184.438 157.761L176.497 166.51M176.2 166.242C176.2 166.242 176.2 166.242 176.201 166.242L176.497 166.51M189.407 163.154L189.407 163.154C187.528 165.141 185.623 167.11 183.721 169.077C182.327 170.518 180.934 171.958 179.553 173.403L179.553 173.403C178.268 174.746 177.686 175.884 177.677 176.965C177.667 178.045 178.226 179.18 179.494 180.518C181.115 182.227 182.752 183.909 184.391 185.593C185.596 186.83 186.802 188.069 188.002 189.32C188.768 190.112 189.493 190.949 190.174 191.807C191.236 193.058 191.108 194.518 190.452 195.761C190.452 195.762 190.451 195.762 190.451 195.762L190.097 195.576L189.407 163.154ZM189.407 163.154C191.109 161.354 191.363 159.071 189.923 157.458C189.217 156.668 188.307 156.266 187.322 156.318M189.407 163.154L187.322 156.318M187.322 156.318C186.346 156.37 185.348 156.863 184.439 157.761L187.322 156.318ZM184.196 176.617L183.907 176.897L184.189 177.184C185.21 178.225 186.213 179.235 187.2 180.229C189.518 182.562 191.745 184.803 193.896 187.124C196.758 190.221 197.388 194.38 195.766 197.94L195.765 197.942C194.991 199.664 193.745 201.108 192.185 202.095C190.625 203.083 188.82 203.57 186.995 203.498C184.341 203.374 182.123 202.197 180.236 200.243L180.235 200.243C179.537 199.521 178.836 198.807 178.136 198.094C176.335 196.261 174.543 194.435 172.838 192.517L172.838 192.516C172.542 192.184 172.26 191.9 171.981 191.694C171.699 191.486 171.396 191.338 171.06 191.311C170.377 191.256 169.77 191.708 169.121 192.436L169.12 192.438C166.574 195.327 163.858 198.072 161.103 200.765C158.309 203.495 154.989 204.32 151.394 202.979L151.394 202.979C148.048 201.735 146.08 199.096 145.51 195.408L145.51 195.408L145.508 195.395C145.227 193.886 145.313 192.327 145.757 190.861C146.202 189.394 146.992 188.066 148.053 186.996L148.053 186.996L148.058 186.992C148.678 186.346 149.298 185.699 149.917 185.051C152.014 182.859 154.112 180.667 156.264 178.534C156.733 178.07 157.13 177.602 157.173 177.053C157.219 176.476 156.871 175.966 156.321 175.436C154.449 173.619 152.648 171.729 150.841 169.832C150.084 169.038 149.326 168.242 148.562 167.45C146.422 165.191 145.321 162.645 145.234 160.17C145.146 157.698 146.069 155.263 148.041 153.213L148.041 153.213C151.789 149.31 157.581 149.493 161.802 153.812L161.802 153.812C162.304 154.325 162.807 154.835 163.31 155.345C165.318 157.381 167.318 159.41 169.196 161.54C169.806 162.234 170.391 162.657 171.052 162.598C171.375 162.57 171.665 162.429 171.934 162.233C172.201 162.039 172.468 161.775 172.745 161.468C175.017 158.968 177.389 156.562 179.765 154.153C179.947 153.968 180.128 153.784 180.31 153.6L180.311 153.599C184.29 149.552 189.93 149.333 193.594 152.944C197.548 156.841 197.633 162.643 193.688 167.073L193.687 167.074C192.357 168.582 190.901 170.044 189.513 171.439C189.339 171.613 189.167 171.786 188.996 171.958C187.966 172.995 186.917 174.001 185.826 175.047C185.293 175.558 184.751 176.079 184.196 176.617Z" fill="#fa7305" stroke="white" stroke-width="0.8"/>
<path d="M140.045 98.3204L140.045 98.3184C139.533 85.2599 134.859 72.7463 126.757 62.7306L126.755 62.7281C115.863 49.0454 101.826 41.3993 84.7036 40.0006C84.0695 39.9496 83.5378 39.8027 83.1967 39.3999C82.8601 39.0023 82.7929 38.4521 82.8173 37.8266L82.8175 37.8198C82.9372 35.6854 82.9372 33.5457 82.8177 31.4114C82.7624 30.5915 82.8846 29.9654 83.356 29.5885C83.5813 29.4084 83.8512 29.3161 84.1297 29.2663C84.4068 29.2167 84.7194 29.2046 85.0498 29.2046H85.0599V29.2047C88.0669 29.2804 91.0684 29.298 94.0672 29.1649C95.8628 29.0846 97.0801 27.6992 96.9479 26.2095L96.9479 26.2092C96.8679 25.2978 96.5726 24.6284 96.1133 24.1694C95.6542 23.7105 94.9911 23.4217 94.0992 23.3473L94.0968 23.3471C93.6172 23.3043 93.1295 23.2997 92.6265 23.2997H92.5774H92.5282H92.4791H92.43H92.3808H92.3317H92.2825H92.2334H92.1842H92.1351H92.086H92.0368H91.9877H91.9385H91.8894H91.8402H91.7911H91.742H91.6928H91.6437H91.5945H91.5454H91.4963H91.4471H91.398H91.3488H91.2997H91.2505H91.2014H91.1523H91.1031H91.054H91.0048H90.9557H90.9065H90.8574H90.8083H90.7591H90.71H90.6608H90.6117H90.5626H90.5134H90.4643H90.4151H90.366H90.3169H90.2677H90.2186H90.1694H90.1203H90.0712H90.022H89.9729H89.9237H89.8746H89.8254H89.7763H89.7272H89.678H89.6289H89.5797H89.5306H89.4815H89.4323H89.3832H89.334H89.2849H89.2358H89.1866H89.1375H89.0883H89.0392H88.9901H88.9409H88.8918H88.8426H88.7935H88.7444H88.6952H88.6461H88.5969H88.5478H88.4987H88.4495H88.4004H88.3512H88.3021H88.253H88.2038H88.1547H88.1055H88.0564H88.0073H87.9581H87.909H87.8598H87.8107H87.7616H87.7124H87.6633H87.6141H87.565H87.5159H87.4667H87.4176H87.3684H87.3193H87.2702H87.221H87.1719H87.1227H87.0736H87.0245H86.9753H86.9262H86.8771H86.8279H86.7788H86.7296H86.6805H86.6314H86.5822H86.5331H86.4839H86.4348H86.3857H86.3365H86.2874H86.2383H86.1891H86.14H86.0908H86.0417H85.9926H85.9434H85.8943H85.8451H85.796H85.7469H85.6977H85.6486H85.5995H85.5503H85.5012H85.452H85.4029H85.3538H85.3046H85.2555H85.2064H85.1572H85.1081H85.0589H85.0098H84.9607H84.9115H84.8624H84.8133H84.7641H84.715H84.6658H84.6167H84.5676H84.5184H84.4693H84.4202H84.371H84.3219H84.2727H84.2236H84.1745H84.1253H84.0762H84.0271H83.9779H83.9288H83.8796H83.8305H83.7814H83.7322H83.6831H83.634H83.5848H83.5357H83.4866H83.4374H83.3883H83.3391H83.29H83.2409H83.1917H83.1426H83.0935H83.0443H82.9952H82.9461H82.8969H82.8478H82.7986H82.7495H82.7004H82.6512H82.6021H82.553H82.5038H82.4547H82.4056H82.3564H82.3073H82.2582H82.209H82.1599H82.1107H82.0616H82.0125H81.9633H81.9142H81.8651H81.8159H81.7668H81.7177H81.6685H81.6194H81.5703H81.5211H81.472H81.4229H81.3737H81.3246H81.2754H81.2263H81.1772H81.128H81.0789H81.0298H80.9806H80.9315H80.8824H80.8332H80.7841H80.735H80.6858H80.6367H80.5876H80.5384H80.4893H80.4402H80.391H80.3419H80.2927H80.2436H80.1945H80.1453H80.0962H80.0471H79.9979H79.9488H79.8997H79.8505H79.8014H79.7523H79.7031H79.654H79.6049H79.5557H79.5066H79.4575H79.4083H79.3592H79.3101H79.2609H79.2118H79.1627H79.1135H79.0644H79.0153H78.9661H78.917H78.8679H78.8187H78.7696H78.7205H78.6713H78.6222H78.5731H78.5239H78.4748H78.4257H78.3765H78.3274H78.2783H78.2291H78.18H78.1309H78.0817H78.0326H77.9835H77.9343H77.8852H77.8361H77.7869H77.7378H77.6887H77.6395H77.5904H77.5413H77.4921H77.443H77.3939H77.3447H77.2956H77.2465H77.1973H77.1482H77.0991H77.0499H77.0008H76.9517H76.9026H76.8534H76.8043H76.7552H76.706H76.6569H76.6078H76.5586H76.5095H76.4604H76.4112H76.3621H76.313H76.2638H76.2147H76.1656H76.1164H76.0673H76.0182H75.9691H75.9199H75.8708H75.8217H75.7725H75.7234H75.6743H75.6251H75.576H75.5269H75.4777H75.4286H75.3795H75.3303H75.2812H75.2321H75.1829H75.1338H75.0847H75.0356H74.9864H74.9373H74.8882H74.839H74.7899H74.7408H74.6916H74.6425H74.5934H74.5443H74.4951H74.446H74.3969H74.3477H74.2986H74.2495H74.2003H74.1512H74.1021H74.0529H74.0038H73.9547H73.9056H73.8564H73.8073H73.7582H73.709H73.6599H73.6108H73.5616H73.5125H73.4634H73.4143H73.3651H73.316H73.2669H73.2177H73.1686H73.1195H73.0703H73.0212H72.9721H72.923H72.8738H72.8247H72.7756H72.7264H72.6773H72.6282H72.5791H72.5299H72.4808H72.4317H72.3825H72.3334H72.2843H72.2351H72.186H72.1369H72.0878H72.0386H71.9895H71.9404H71.8912H71.8421H71.793H71.7439H71.6947H71.6456H71.5965H71.5473H71.4982H71.4491H71.4H71.3508H71.3017H71.2526H71.2034H71.1543H71.1052H71.0561H71.0069H70.9578H70.9087H70.8596H70.8104H70.7613H70.7122H70.663H70.6139H70.5648H70.5157H70.4665H70.4174H70.3683H70.3191H70.27H70.2209H70.1718H70.1226H70.0735H70.0244H69.9753H69.9261H69.877H69.8279H69.7787H69.7296H69.6805H69.6314H69.5822H69.5331H69.484H69.4348H69.3857H69.3366H69.2875H69.2383H69.1892H69.1401H69.091H69.0418H68.9927H68.9436H68.8945H68.8453H68.7962H68.7471H68.6979H68.6488H68.5997H68.5506H68.5014H68.4523H68.4032H68.3541H68.3049H68.2558H68.2067H68.1576H68.1084H68.0593H68.0102H67.961H67.9119H67.8628H67.8137H67.7645H67.7154H67.6663H67.6172H67.568H67.5189H67.4698H67.464V23.2996C66.7038 23.2887 65.9442 23.3535 65.1958 23.493C64.558 23.6184 64.0946 23.9146 63.7661 24.3227C63.4327 24.7368 63.2211 25.2882 63.1335 25.9422L63.1329 25.9467C63.0524 26.4988 63.139 27.0626 63.3797 27.5604C63.6204 28.0581 64.0026 28.4641 64.4717 28.7248L64.4818 28.7305L64.4916 28.7367C65.2031 29.188 66.0363 29.2224 66.9793 29.2224C67.9153 29.2224 68.8495 29.2284 69.7825 29.2344C71.6433 29.2462 73.4995 29.2581 75.3562 29.2225C75.9178 29.209 76.4444 29.2716 76.8017 29.6192C77.1632 29.9708 77.241 30.5043 77.2189 31.116L77.2188 31.1173C77.1289 33.4056 77.1289 35.7028 77.2188 37.9867C77.2188 37.9867 77.2188 37.9868 77.2188 37.9868L76.8191 38.0025C76.8665 39.1965 76.3889 39.5306 75.3477 39.5841L140.045 98.3204ZM140.045 98.3204C140.229 102.466 140.23 106.614 140.23 110.763C140.191 111.329 140.29 111.897 140.518 112.415C140.748 112.935 141.101 113.388 141.547 113.732C145.117 116.668 146.325 121.041 144.888 125.375L144.888 125.377C143.492 129.635 139.886 132.292 135.213 132.292H135.104H134.996H134.888H134.779H134.671H134.563H134.454H134.346H134.238H134.129H134.021H133.913H133.804H133.696H133.587H133.479H133.371H133.262H133.154H133.046H132.937H132.829H132.721H132.612H132.504H132.396H132.287H132.179H132.071H131.962H131.854H131.745H131.637H131.529H131.42H131.312H131.204H131.095H130.987H130.879H130.77H130.662H130.554H130.445H130.337H130.229H130.12H130.012H129.903H129.795H129.687H129.578H129.47H129.362H129.253H129.145H129.037H128.928H128.82H128.712H128.603H128.495H128.387H128.278H128.17H128.061H127.953H127.845H127.736H127.628H127.52H127.411H127.303H127.195H127.086H126.978H126.87H126.761H126.653H126.545H126.436H126.328H126.219H126.111H126.003H125.894H125.786H125.678H125.569H125.461H125.353H125.244H125.136H125.028H124.919H124.811H124.703H124.594H124.486H124.377H124.269H124.161H124.052H123.944H123.836H123.727H123.619H123.511H123.402H123.294H123.186H123.077H122.969H122.861H122.752H122.644H122.535H122.427H122.319H122.21H122.102H121.994H121.885H121.777H121.669H121.56H121.452H121.344H121.235H121.127H121.019H120.91H120.802H120.693H120.585H120.477H120.368H120.26H120.152H120.043H119.935H119.827H119.718H119.61H119.502H119.393H119.285H119.177H119.068H118.96H118.852H118.743H118.635H118.526H118.418H118.31H118.201H118.093H117.985H117.876H117.768H117.66H117.551H117.443H117.335H117.226H117.118H117.01H116.901H116.793H116.684H116.576H116.468H116.359H116.251H116.143H116.034H115.926H115.818H115.709H115.601H115.493H115.384H115.276H115.168H115.059H114.951H114.842H114.734H114.626H114.517H114.409H114.301H114.192H114.084H113.976H113.867H113.759H113.651H113.542H113.434H113.326H113.217H113.109H113H112.892H112.784H112.675H112.567H112.459H112.35H112.242H112.134H112.025H111.917H111.809H111.7H111.592H111.484H111.375H111.267H111.158H111.05H110.942H110.833H110.725H110.617H110.508H110.4H110.292H110.183H110.075H109.967H109.858H109.75H109.642H109.533H109.425H109.316H109.208H109.1H108.991H108.883H108.775H108.666H108.558H108.45H108.341H108.233H108.125H108.016H107.908H107.8H107.691H107.583H107.474H107.366H107.258H107.149H107.041H106.933H106.824H106.716H106.608H106.499H106.391H106.283H106.174H106.066H105.958H105.849H105.741H105.632H105.524H105.416H105.307H105.199H105.091H104.982H104.874H104.766H104.657H104.549H104.441H104.332H104.224H104.116H104.007H103.899H103.79H103.682H103.574H103.465H103.357H103.249H103.14H103.032H102.924H102.815H102.707H102.599H102.49H102.382H102.274H102.165H102.057H101.949H101.84H101.732H101.623H101.515H101.407H101.298H101.19H101.082H100.973H100.865H100.757H100.648H100.54H100.432H100.323H100.215H100.107H99.9982H99.8898H99.7815H99.6731H99.5648H99.4564H99.348H99.2397H99.1313H99.023H98.9146H98.8063H98.6979H98.5896H98.4812H98.3729H98.2645H98.1562H98.0478H97.9395H97.8311H97.7228H97.6144H97.5061H97.3977H97.2893H97.181H97.0726H96.9643H96.8559H96.7476H96.6392H96.5309H96.4225H96.3142H96.2058H96.0975H95.9891H95.8808H95.7724H95.6641H95.5557H95.4473H95.339H95.2307H95.1223H95.0139H94.9056H94.7972H94.6889H94.5805H94.4722H94.3638H94.2555H94.1471H94.0388H93.9304H93.8221H93.7137H93.6054H93.497H93.3887H93.2803H93.172H93.0636H92.9552H92.8469H92.7385H92.6302H92.5218H92.4135H92.3051H92.1968H92.0884H91.9801H91.8717H91.7634H91.655H91.5467H91.4383H91.33H91.2216H91.1133H91.0049H90.8965H90.7882H90.6798H90.5715H90.4631H90.3548H90.2464H90.1381H90.0297H89.9214H89.813H89.7047H89.5963H89.488H89.3796H89.2713H89.1629H89.0546H88.9462H88.8379H88.7295H88.6211H88.5128H88.4044H88.2961H88.1877H88.0794H87.971H87.8627H87.7543H87.646H87.5376H87.4293H87.3209H87.2126H87.1042H86.9959H86.8875H86.7792H86.6708H86.5624H86.4541H86.3457H86.2374H86.129H86.0207H85.9123H85.804H85.6956H85.5873H85.4789H85.3706H85.2622H85.1539H85.0455H84.9372H84.8288H84.7205H84.6121H84.5037H84.3954H84.287H84.1787H84.0703H83.962H83.8536H83.7453H83.6369H83.5286H83.4202H83.3119H83.2035H83.0952H82.9868H82.8785H82.7701H82.6618H82.5534H82.4451H82.3367H82.2283H82.12H82.0116H81.9033H81.7949H81.6866H81.5782H81.4699H81.3615H81.2532H81.1448H81.0365H80.9281H80.8198H80.7114H80.6031H80.4947H80.3864H80.278H80.1696H80.0613H79.9529H79.8446H79.7367C72.3167 132.283 64.8985 132.288 57.481 132.292C46.5513 132.3 35.6229 132.307 24.6914 132.27C17.3526 132.244 12.5667 124.954 15.2158 117.935L15.2165 117.933C15.8316 116.275 16.7085 114.804 18.0727 113.909L18.073 113.909C18.79 113.438 19.2197 112.893 19.4602 112.256C19.6948 111.634 19.7377 110.953 19.7377 110.234L19.7376 110.23C19.7347 109.884 19.7315 109.538 19.7283 109.193C19.6626 102.037 19.5974 94.9331 21.2712 87.9712C24.8955 72.9021 32.5531 60.6082 44.6931 51.4015C45.553 50.7498 46.4184 50.4992 47.1706 50.5652C47.9176 50.6307 48.5916 51.011 49.0823 51.6983C49.5837 52.4006 49.7604 53.1349 49.6317 53.8479C49.5019 54.5661 49.0527 55.3135 48.2065 56.0137C44.3889 59.168 40.6866 62.4698 37.5866 66.4755L37.5862 66.476C29.4059 77.082 25.5036 89.2109 25.4559 102.721V102.722C25.4559 103.496 25.4627 104.266 25.4694 105.035C25.4828 106.564 25.4961 108.086 25.4561 109.612C25.4406 110.159 25.5096 110.677 25.8316 111.028C26.1702 111.398 26.6744 111.468 27.2289 111.403L140.045 98.3204ZM134.215 108.389L134.615 108.392C134.615 108.391 134.615 108.391 134.615 108.391C134.675 99.3778 134.428 90.3715 131.055 81.7795C124.533 65.1579 112.988 54.0309 96.5545 48.4409C84.4011 44.3059 72.2878 44.7702 60.3219 49.3773C60.1261 49.4525 59.9255 49.5141 59.7121 49.5795C59.652 49.598 59.5909 49.6167 59.5286 49.6362L59.5272 49.6366C58.5373 49.9498 57.701 49.9218 57.0542 49.6429C56.4133 49.3665 55.9092 48.8227 55.6141 48.0025C55.3203 47.1859 55.3615 46.3972 55.685 45.7281C56.0093 45.0576 56.6339 44.4735 57.5666 44.1037L57.5666 44.1037L57.5711 44.1018C61.7976 42.3658 66.2044 41.1441 70.7027 40.4611L131.698 111.062C133.84 111.062 134.215 110.456 134.215 108.389ZM134.215 108.389C134.275 99.3764 134.025 90.4394 130.682 81.9256C124.203 65.4105 112.745 54.3707 96.4256 48.8196M134.215 108.389L96.4256 48.8196M96.4256 48.8196C84.3657 44.7164 72.3488 45.1753 60.4653 49.7507C60.2554 49.8314 60.0374 49.8982 59.822 49.9643C59.7637 49.9821 59.7056 50 59.6478 50.018L96.4256 48.8196ZM20.4405 120.669L20.4394 120.673C20.0063 122.324 20.2923 123.785 21.2405 124.83C22.1789 125.865 23.7025 126.422 25.6064 126.422H25.7122H25.818H25.9238H26.0295H26.1353H26.2411H26.3469H26.4527H26.5584H26.6642H26.77H26.8758H26.9816H27.0874H27.1931H27.2989H27.4047H27.5105H27.6163H27.7221H27.8279H27.9336H28.0394H28.1452H28.251H28.3568H28.4626H28.5684H28.6741H28.7799H28.8857H28.9915H29.0973H29.2031H29.3089H29.4147H29.5204H29.6262H29.732H29.8378H29.9436H30.0494H30.1552H30.261H30.3668H30.4726H30.5783H30.6841H30.7899H30.8957H31.0015H31.1073H31.2131H31.3189H31.4247H31.5305H31.6363H31.742H31.8478H31.9536H32.0594H32.1652H32.271H32.3768H32.4826H32.5884H32.6942H32.8H32.9058H33.0116H33.1174H33.2232H33.329H33.4348H33.5405H33.6463H33.7521H33.8579H33.9637H34.0695H34.1753H34.2811H34.3869H34.4927H34.5985H34.7043H34.8101H34.9159H35.0217H35.1275H35.2333H35.3391H35.4449H35.5507H35.6565H35.7623H35.8681H35.9739H36.0797H36.1855H36.2913H36.3971H36.5029H36.6087H36.7145H36.8203H36.9261H37.0319H37.1377H37.2435H37.3493H37.4551H37.5609H37.6667H37.7725H37.8783H37.9842H38.09H38.1958H38.3016H38.4074H38.5132H38.619H38.7248H38.8306H38.9364H39.0422H39.148H39.2538H39.3596H39.4654H39.5712H39.677H39.7829H39.8887H39.9945H40.1003H40.2061H40.3119H40.4177H40.5235H40.6293H40.7351H40.8409H40.9467H41.0526H41.1584H41.2642H41.37H41.4758H41.5816H41.6874H41.7932H41.899H42.0049H42.1107H42.2165H42.3223H42.4281H42.5339H42.6397H42.7455H42.8514H42.9572H43.063H43.1688H43.2746H43.3804H43.4862H43.592H43.6979H43.8037H43.9095H44.0153H44.1211H44.2269H44.3328H44.4386H44.5444H44.6502H44.756H44.8618H44.9677H45.0735H45.1793H45.2851H45.3909H45.4967H45.6026H45.7084H45.8142H45.92H46.0258H46.1317H46.2375H46.3433H46.4491H46.5549H46.6608H46.7666H46.8724H46.9782H47.084H47.1899H47.2957H47.4015H47.5073H47.6131H47.719H47.8248H47.9306H48.0364H48.1423H48.2481H48.3539H48.4597H48.5656H48.6714H48.7772H48.883H48.9888H49.0947H49.2005H49.3063H49.4122H49.518H49.6238H49.7296H49.8355H49.9413H50.0471H50.1529H50.2588H50.3646H50.4704H50.5762H50.6821H50.7879H50.8937H50.9996H51.1054H51.2112H51.317H51.4229H51.5287H51.6345H51.7404H51.8462H51.952H52.0578H52.1637H52.2695H52.3753H52.4812H52.587H52.6928H52.7987H52.9045H53.0103H53.1162H53.222H53.3278H53.4337H53.5395H53.6453H53.7512H53.857H53.9628H54.0687H54.1745H54.2803H54.3862H54.492H54.5978H54.7037H54.8095H54.9153H55.0212H55.127H55.2328H55.3387H55.4445H55.5504H55.6562H55.762H55.8679H55.9737H56.0795H56.1854H56.2912H56.3971H56.5029H56.6087H56.7146H56.8204H56.9263H57.0321H57.1379H57.2438H57.3496H57.4555H57.5613H57.6671H57.773H57.8788H57.9847H58.0905H58.1963H58.3022H58.408H58.5139H58.6197H58.7256H58.8314H58.9372H59.0431H59.1489H59.2548H59.3606H59.4665H59.5723H59.6781H59.784H59.8898H59.9957H60.1015H60.2074H60.3132H60.4191H60.5249H60.6308H60.7366H60.8424H60.9483H61.0541H61.16H61.2658H61.3717H61.4775H61.5834H61.6892H61.7951H61.9009H62.0068H62.1126H62.2185H62.3243H62.4302H62.536H62.6419H62.7477H62.8536H62.9594H63.0653H63.1711H63.277H63.3828H63.4887H63.5945H63.7004H63.8062H63.9121H64.0179H64.1238H64.2296H64.3355H64.4414H64.5472H64.6531H64.7589H64.8648H64.9706H65.0765H65.1823H65.2882H65.394H65.4999H65.6058H65.7116H65.8175H65.9233H66.0292H66.135H66.2409H66.3467H66.4526H66.5585H66.6643H66.7702H66.876H66.9819H67.0877H67.1936H67.2995H67.4053H67.5112H67.617H67.7229H67.8288H67.9346H68.0405H68.1463H68.2522H68.3581H68.4639H68.5698H68.6756H68.7815H68.8874H68.9932H69.0991H69.205H69.3108H69.4167H69.5225H69.6284H69.7343H69.8401H69.946H70.0519H70.1577H70.2636H70.3695H70.4753H70.5812H70.687H70.7929H70.8988H71.0046H71.1105H71.2164H71.3222H71.4281H71.534H71.6398H71.7457H71.8516H71.9574H72.0633H72.1692H72.275H72.3809H72.4868H72.5926H72.6985H72.8044H72.9103H73.0161H73.122H73.2279H73.3337H73.4396H73.5455H73.6513H73.7572H73.8631H73.969H74.0748H74.1807H74.2866H74.3924H74.4983H74.6042H74.7101H74.8159H74.9218H75.0277H75.1336H75.2394H75.3453H75.4512H75.557H75.6629H75.7688H75.8747H75.9805H76.0864H76.1923H76.2982H76.404H76.5099H76.6158H76.7217H76.8275H76.9334H77.0393H77.1452H77.2511H77.3569H77.4628H77.5687H77.6746H77.7804H77.8863H77.9922H78.0981H78.204H78.3098H78.4157H78.5216H78.6275H78.7334H78.8392H78.9451H79.051H79.1569H79.2628H79.3686H79.4745H79.5804H79.6863H79.7922H133.548C135.585 126.422 137.184 126.083 138.26 125.32C139.369 124.535 139.865 123.347 139.777 121.822C139.712 120.6 139.394 119.447 138.427 118.614C137.471 117.792 135.957 117.349 133.66 117.349H133.659C97.8913 117.379 62.125 117.394 26.36 117.394C25.4784 117.389 24.5975 117.447 23.7235 117.567L23.7201 117.567C22.851 117.694 22.14 118.038 21.5877 118.581C21.039 119.12 20.669 119.834 20.4405 120.669Z" fill="#fa7305" stroke="white" stroke-width="0.8"/>
</g>
<rect x="0.5" y="0.5" width="219" height="227" stroke="white"/>
<defs>
<clipPath id="clip0_332_8315">
<rect width="220" height="228" fill="white"/>
</clipPath>
</defs>
</svg>
