<svg width="26" height="29" viewBox="0 0 26 29" fill="none" xmlns="http://www.w3.org/2000/svg">
<g>
<path d="M21.937 18.0103C21.8833 17.9589 21.8031 17.9394 21.6676 17.9448C21.2221 17.9686 20.7755 17.9686 20.33 17.9448C20.1742 17.9347 20.0761 17.9557 20.0138 18.0142C19.936 18.0843 19.9243 18.2004 19.9251 18.3523C19.9313 19.8465 19.9321 21.3665 19.9329 22.8358C19.9329 24.094 19.9328 25.3951 19.9375 26.6751C19.9375 26.7927 19.9227 26.8581 19.8877 26.8932C19.8526 26.9283 19.788 26.9415 19.6728 26.9392C18.8622 26.922 18.0665 26.9228 17.3073 26.9392C17.1788 26.9392 17.108 26.9267 17.0683 26.8878C17.0286 26.8488 17.0114 26.7763 17.0114 26.6462C17.0177 25.1356 17.0184 23.6001 17.0184 22.1152C17.0184 20.8417 17.0203 19.5692 17.0239 18.2977C17.0239 18.17 17.0114 18.0726 16.946 18.0118C16.8806 17.9511 16.8129 17.9417 16.6829 17.9487C16.2344 17.969 15.7641 17.9698 15.286 17.9487C15.1513 17.9433 15.0703 17.962 15.0174 18.0134C14.9644 18.0648 14.9395 18.1458 14.9395 18.2915C14.9395 19.6159 14.9442 20.9676 14.9442 22.2733C14.9442 23.6959 14.9442 25.1668 14.9512 26.6135C14.9512 26.7452 14.9418 26.8363 14.8936 26.8854C14.8453 26.9345 14.7729 26.9446 14.6366 26.9446C12.6067 26.9322 10.5426 26.9337 8.54617 26.9345H6.73274C6.39093 26.9345 6.21963 26.9345 6.14332 26.8566C6.06702 26.7787 6.06546 26.6073 6.06546 26.2645V24.542C6.06546 22.4922 6.06546 20.3732 6.07091 18.2892C6.07091 18.1458 6.04833 18.0625 5.99305 18.0103C5.93776 17.9581 5.85834 17.9386 5.72364 17.9448C5.25646 17.9643 4.78928 17.9635 4.32211 17.9448C4.18974 17.9394 4.1072 17.9596 4.05504 18.0103C4.00287 18.0609 3.97717 18.1443 3.97717 18.2907C3.9834 20.4776 3.98262 22.701 3.98262 24.8513V26.7008C3.98262 27.9177 4.43267 28.5495 5.58349 28.9531L5.59361 28.9663C5.59738 28.973 5.60181 28.9792 5.60684 28.985L5.61853 28.999H20.3019L20.312 28.992L20.3354 28.9725C20.3433 28.9638 20.3528 28.9567 20.3634 28.9515C21.3266 28.7225 21.9043 28.0579 21.9892 27.0817C22.0048 26.9064 22.0032 26.7273 22.0024 26.5543C22.0024 26.5052 22.0024 26.4561 22.0024 26.4078V24.3394C22.0024 22.3567 22.0024 20.3054 22.0079 18.2884C22.0149 18.1458 21.9916 18.0625 21.937 18.0103Z" fill="#fa7305"/>
<path d="M25.993 6.58931V5.13323C25.993 3.56185 25.993 1.93905 26 0.339629C26 0.199397 25.9782 0.118374 25.9221 0.0669556C25.8661 0.0155371 25.7898 -0.00238121 25.6488 0.00385133C25.1934 0.0274327 24.737 0.0274327 24.2816 0.00385133C24.1414 -0.00471841 24.0542 0.0155375 23.9974 0.068514C23.9405 0.121491 23.9195 0.236013 23.9195 0.380141C23.9257 4.26067 23.925 8.20665 23.9242 12.0225V13.8144C23.9242 14.6098 23.5668 14.9643 22.7648 14.9643H3.24066C2.42309 14.9643 2.07271 14.6137 2.07271 13.7957V2.57789C2.07271 2.37066 2.07271 2.16421 2.07271 1.95464C2.07271 1.4015 2.07271 0.829663 2.07738 0.267955C2.08231 0.231608 2.07981 0.19464 2.07004 0.159288C2.06027 0.123936 2.04343 0.0909339 2.02054 0.0622814C1.99125 0.0390074 1.95741 0.0221312 1.9212 0.0127385C1.88499 0.00334585 1.84722 0.00164527 1.81031 0.0077469C1.40387 0.0178748 0.867392 0.0272236 0.324687 0.0077469C0.197771 0.00229343 0.122244 0.0209905 0.0716326 0.0692927C0.00856359 0.13006 0 0.233676 0 0.335734C0.00622904 4.61515 0.00545022 8.96546 0.00467159 13.1732V13.8861C0.000786524 14.1616 0.0305969 14.4366 0.0934365 14.7049C0.443041 16.1181 1.62967 17.0327 3.11686 17.035C4.50048 17.035 5.89734 17.035 7.28408 17.035H14.8306C17.4732 17.035 20.1156 17.035 22.7578 17.035H22.8216C23.0163 17.041 23.2111 17.0306 23.404 17.0039C24.9481 16.7468 25.9883 15.5088 25.9922 13.9227C25.9961 12.2087 25.9922 10.4605 25.9922 8.77225C25.9932 8.04305 25.9935 7.3154 25.993 6.58931Z" fill="#fa7305"/>
<path d="M5.04458 8.01193C5.07311 8.03548 5.10607 8.05306 5.14151 8.06364C5.17695 8.07421 5.21416 8.07756 5.25091 8.07348H5.26883C5.68695 8.06491 6.11286 8.06647 6.52475 8.06803C6.85334 8.06803 7.18165 8.06803 7.50972 8.06803C7.93018 8.06803 8.36621 8.06803 8.7929 8.0727C8.83031 8.07764 8.86833 8.07502 8.90471 8.06498C8.94109 8.05495 8.97509 8.0377 9.00469 8.01427C9.02828 7.98478 9.04557 7.95076 9.05548 7.91431C9.06539 7.87785 9.06772 7.83975 9.0623 7.80237C9.0514 7.28896 9.05218 6.7701 9.0623 6.25825C9.06756 6.22099 9.06516 6.18305 9.05526 6.14675C9.04535 6.11044 9.02814 6.07654 9.00469 6.04712C8.97577 6.02305 8.94237 6.00494 8.90642 5.99384C8.87047 5.98274 8.83268 5.97887 8.79523 5.98246C7.67167 5.98947 6.50918 5.98947 5.24079 5.98246C5.20528 5.97808 5.16924 5.98093 5.13486 5.99084C5.10047 6.00075 5.06844 6.01751 5.04069 6.04011C5.01861 6.06766 5.00233 6.0994 4.99283 6.1334C4.98333 6.16741 4.9808 6.20299 4.9854 6.238C4.99475 6.81217 4.99475 7.31701 4.9854 7.78133C4.97858 7.82177 4.98033 7.8632 4.99052 7.90292C5.00072 7.94264 5.01913 7.97978 5.04458 8.01193Z" fill="#fa7305"/>
<path d="M16.9946 8.01344C17.0219 8.03626 17.0536 8.05322 17.0878 8.06327C17.122 8.07332 17.1578 8.07625 17.1931 8.07187H17.2071C17.6346 8.06486 18.0691 8.06642 18.4888 8.0672H18.984H19.4621C19.8887 8.0672 20.331 8.0672 20.7655 8.0672C20.8007 8.07244 20.8367 8.07037 20.8711 8.06112C20.9055 8.05187 20.9377 8.03565 20.9656 8.01344C20.9858 7.98966 21.0009 7.96195 21.0099 7.93205C21.0188 7.90214 21.0215 7.8707 21.0178 7.83971C21.0115 7.35357 21.0115 6.83471 21.0178 6.20757C21.0211 6.17713 21.0183 6.14632 21.0095 6.11699C21.0007 6.08767 20.986 6.06044 20.9664 6.03695C20.9424 6.01697 20.9147 6.00199 20.8849 5.99289C20.8551 5.9838 20.8237 5.98076 20.7927 5.98397C19.4745 5.98787 18.2925 5.98787 17.1799 5.98397C17.1477 5.98028 17.115 5.98321 17.0839 5.99259C17.0529 6.00196 17.0241 6.01759 16.9993 6.03851C16.9781 6.06457 16.9626 6.09465 16.9535 6.12693C16.9444 6.15921 16.9419 6.19301 16.9463 6.22626C16.9549 6.85653 16.9549 7.34189 16.9463 7.7992C16.9394 7.83632 16.9402 7.87445 16.9485 7.91128C16.9568 7.9481 16.9725 7.98286 16.9946 8.01344Z" fill="#fa7305"/>
<path d="M15.0308 6.22321C15.035 6.1908 15.0326 6.15788 15.0238 6.12641C15.0149 6.09495 14.9998 6.0656 14.9794 6.04013C14.9535 6.01889 14.9236 6.00317 14.8915 5.99393C14.8593 5.98468 14.8257 5.98211 14.7925 5.98637C13.4112 5.9926 12.2729 5.99182 11.2108 5.98637C11.143 5.97967 11.0752 5.99949 11.0216 6.04169C10.9995 6.07084 10.9834 6.10412 10.9743 6.13957C10.9652 6.17502 10.9633 6.21193 10.9687 6.24814C10.9764 6.83634 10.9764 7.35052 10.9687 7.8203C10.9636 7.85514 10.9659 7.89064 10.9753 7.92456C10.9847 7.95849 11.001 7.9901 11.0232 8.0174C11.0489 8.03879 11.0788 8.05472 11.1109 8.06423C11.143 8.07374 11.1768 8.07662 11.21 8.07272H11.2217C11.6515 8.06648 12.0883 8.06726 12.5111 8.06882H13.4821C13.9056 8.06882 14.3432 8.06882 14.7738 8.07272C14.8467 8.08209 14.9203 8.0622 14.9786 8.0174C15.0001 7.99065 15.016 7.9598 15.0252 7.92671C15.0345 7.89363 15.0369 7.85902 15.0323 7.82497C15.0237 7.34195 15.0237 6.81842 15.0308 6.22321Z" fill="#fa7305"/>
<path d="M5.04316 4.01095C5.10528 4.06056 5.18451 4.08353 5.26351 4.07483H5.29076C5.70188 4.06626 6.12078 4.06782 6.52567 4.06938C6.84906 4.06938 7.17245 4.06938 7.49584 4.06938C7.91786 4.06938 8.35233 4.06938 8.78525 4.06938C8.86481 4.08072 8.94564 4.06029 9.01027 4.01251C9.0325 3.98458 9.04885 3.95245 9.05835 3.91804C9.06785 3.88364 9.0703 3.84766 9.06555 3.81229C9.0531 3.33861 9.05232 2.83923 9.06555 2.24013C9.07022 2.20633 9.06786 2.17193 9.05861 2.13908C9.04937 2.10624 9.03344 2.07566 9.01183 2.04926C8.95349 2.00452 8.88009 1.98413 8.80705 1.99239C7.41798 1.99862 6.28897 1.99862 5.25339 1.99239C5.21636 1.98773 5.17877 1.99065 5.1429 2.00096C5.10703 2.01127 5.07363 2.02876 5.04472 2.05237C4.99827 2.11319 4.97783 2.18996 4.98788 2.26584C4.99644 2.7177 5.00267 3.25136 4.98788 3.77957C4.98035 3.81986 4.98139 3.86128 4.99091 3.90114C5.00044 3.94101 5.01824 3.97842 5.04316 4.01095Z" fill="#fa7305"/>
<path d="M16.993 4.01675C17.0203 4.03953 17.0521 4.05647 17.0862 4.06652C17.1203 4.07656 17.1562 4.07951 17.1915 4.07518H17.2063C17.6268 4.06817 18.0542 4.06973 18.4685 4.07051H18.9535H19.4207C19.8661 4.07051 20.3123 4.07051 20.7576 4.07051C20.7936 4.07596 20.8302 4.07407 20.8654 4.06497C20.9006 4.05587 20.9336 4.03973 20.9624 4.01753C20.982 3.99436 20.9966 3.96739 21.0053 3.93829C21.0141 3.9092 21.0167 3.87862 21.013 3.84848C21.0037 3.28054 21.0076 2.70481 21.013 2.21711C21.0166 2.18678 21.014 2.15605 21.0054 2.12673C20.9969 2.09742 20.9825 2.07013 20.9632 2.0465C20.9137 2.00714 20.8509 1.98869 20.788 1.99508C19.7275 1.99508 18.4685 2.00131 17.1759 1.99508C17.1431 1.99154 17.1098 1.99461 17.0781 2.00411C17.0464 2.0136 17.0169 2.02934 16.9914 2.05039C16.946 2.11136 16.9267 2.18786 16.9377 2.26308C16.9439 2.75545 16.9486 3.27976 16.9377 3.80641C16.9319 3.84339 16.9339 3.88116 16.9434 3.91735C16.9529 3.95355 16.9698 3.98739 16.993 4.01675Z" fill="#fa7305"/>
<path d="M9.00638 10.0395C8.94512 9.99277 8.86791 9.97205 8.79148 9.98188C8.36323 9.98889 7.92798 9.98734 7.50674 9.98656H7.01465H6.53657C6.10988 9.98656 5.6684 9.98656 5.2347 9.98656C5.19906 9.98099 5.16265 9.98275 5.12771 9.99172C5.09277 10.0007 5.06003 10.0167 5.03147 10.0388C5.01183 10.0621 4.9972 10.0892 4.9885 10.1184C4.97979 10.1476 4.97719 10.1783 4.98086 10.2086C4.99099 10.7867 4.98709 11.3577 4.98086 11.8407C4.97726 11.8709 4.97989 11.9015 4.98859 11.9305C4.9973 11.9596 5.0119 11.9866 5.03147 12.0098C5.05686 12.0298 5.08599 12.0445 5.11715 12.0531C5.14831 12.0616 5.18086 12.0639 5.2129 12.0597C6.50153 12.055 7.68349 12.055 8.82496 12.0597C8.8574 12.064 8.89038 12.0614 8.92177 12.0521C8.95315 12.0429 8.98225 12.0271 9.00716 12.0059C9.02784 11.9804 9.04308 11.9509 9.05192 11.9193C9.06076 11.8877 9.06301 11.8546 9.05855 11.822C9.04921 11.1894 9.04921 10.7041 9.05855 10.2491C9.06467 10.2125 9.0632 10.1749 9.05422 10.1389C9.04525 10.1028 9.02896 10.069 9.00638 10.0395Z" fill="#fa7305"/>
<path d="M16.9919 12.0014C17.0192 12.024 17.0508 12.0408 17.0848 12.0507C17.1188 12.0606 17.1545 12.0634 17.1896 12.0591H17.2052C17.6257 12.0513 18.0539 12.0528 18.4682 12.0536C18.7947 12.0536 19.1212 12.0536 19.4477 12.0536C19.8775 12.0536 20.3221 12.0536 20.7589 12.0575C20.7938 12.0662 20.8303 12.0657 20.865 12.0562C20.8997 12.0467 20.9314 12.0285 20.957 12.0032C20.9826 11.978 21.0013 11.9466 21.0114 11.912C21.0214 11.8775 21.0224 11.8409 21.0143 11.8059C21.0049 11.2605 21.0057 10.7339 21.0143 10.2329C21.0191 10.1984 21.0168 10.1632 21.0076 10.1296C20.9983 10.096 20.9823 10.0646 20.9606 10.0374C20.9328 10.0145 20.9007 9.99762 20.8661 9.98783C20.8315 9.97804 20.7953 9.97555 20.7597 9.98052C19.4928 9.98675 18.3303 9.98675 17.2052 9.98052C17.1289 9.97176 17.0521 9.99298 16.9911 10.0397C16.9684 10.0687 16.9517 10.1021 16.9422 10.1377C16.9327 10.1733 16.9306 10.2105 16.9358 10.247C16.9483 10.758 16.9483 11.2769 16.9358 11.7903C16.9302 11.8274 16.9323 11.8654 16.9419 11.9017C16.9516 11.938 16.9686 11.9719 16.9919 12.0014Z" fill="#fa7305"/>
<path d="M11.0204 4.01841C11.0478 4.0405 11.0794 4.05685 11.1132 4.06648C11.1471 4.07612 11.1825 4.07885 11.2174 4.0745H11.2377C11.6581 4.06749 12.0864 4.06905 12.5006 4.06983H13.4661C13.9006 4.06983 14.3499 4.06983 14.7898 4.06983C14.8236 4.07467 14.8581 4.07261 14.8912 4.06377C14.9242 4.05493 14.9552 4.03951 14.9821 4.01841C15.002 3.99374 15.0167 3.96526 15.0253 3.93473C15.0339 3.90419 15.0361 3.87223 15.0319 3.84078C15.0226 3.29544 15.0226 2.75476 15.0319 2.2398C15.0364 2.20594 15.0341 2.17151 15.025 2.13858C15.0159 2.10565 15.0003 2.07489 14.979 2.04815C14.9214 2.00373 14.8487 1.98385 14.7765 1.99284C13.6133 1.99829 12.4181 1.99829 11.2244 1.99284C11.1518 1.98419 11.0787 2.00401 11.0204 2.04815C10.9992 2.07475 10.9836 2.10537 10.9745 2.13818C10.9654 2.17098 10.963 2.20528 10.9675 2.23902C10.9799 2.81787 10.9792 3.32972 10.9675 3.80962C10.9613 3.84619 10.9628 3.88366 10.9719 3.91961C10.981 3.95556 10.9976 3.98921 11.0204 4.01841Z" fill="#fa7305"/>
<path d="M14.9781 10.0336C14.9497 10.0114 14.9171 9.9952 14.8824 9.98583C14.8476 9.97646 14.8113 9.97416 14.7756 9.97907C14.3458 9.9853 13.9075 9.98453 13.4847 9.98297H12.5168C12.0933 9.98297 11.6549 9.98297 11.2243 9.97907C11.1883 9.97364 11.1516 9.9756 11.1164 9.98485C11.0812 9.99409 11.0482 10.0104 11.0195 10.0328C10.9982 10.0592 10.9824 10.0897 10.9733 10.1224C10.9642 10.1551 10.9619 10.1893 10.9666 10.2229C10.9767 10.7176 10.9775 11.2419 10.9666 11.8239C10.9622 11.8556 10.9643 11.8878 10.9729 11.9187C10.9815 11.9495 10.9963 11.9782 11.0164 12.0031C11.043 12.0247 11.0736 12.0409 11.1065 12.0505C11.1394 12.0601 11.1739 12.0631 11.208 12.0592C12.597 12.0529 13.7346 12.0537 14.7896 12.0592H14.7943C14.8271 12.0629 14.8603 12.06 14.8919 12.0504C14.9235 12.0409 14.9528 12.0251 14.9781 12.0039C15.0002 11.975 15.0163 11.942 15.0254 11.9068C15.0345 11.8716 15.0364 11.8349 15.031 11.799C15.0217 11.196 15.0217 10.6966 15.031 10.2268C15.0359 10.1927 15.0337 10.1579 15.0246 10.1247C15.0155 10.0915 14.9997 10.0605 14.9781 10.0336Z" fill="#fa7305"/>
</g>
</svg>
