<svg width="29" height="26" viewBox="0 0 29 26" fill="none" xmlns="http://www.w3.org/2000/svg">
<path d="M28.9978 9.70648C28.9559 8.8497 28.3591 8.18225 27.5323 8.15082C26.4962 8.11134 25.4573 8.12962 24.4197 8.12889C20.9745 8.12889 17.5291 8.12889 14.0834 8.12889C9.98718 8.12889 5.89073 8.12889 1.79404 8.12889C1.29727 8.12889 0.843797 8.2327 0.470511 8.59895C0.232062 8.83362 0.131998 9.14577 0 9.44111V24.6666C0.318641 25.7018 1.04534 26.0351 2.04385 25.9971C3.07145 25.9584 4.10189 25.9891 5.12949 25.9891H27.1612C27.3874 25.998 27.6137 25.9751 27.8339 25.9211C28.5791 25.7076 28.9999 25.0884 28.9999 24.2053C28.9999 19.4404 28.9999 14.6754 28.9999 9.91045C28.9999 9.84246 29.0006 9.77447 28.9978 9.70648ZM26.0342 10.072C26.184 10.0815 26.3344 10.072 26.4849 10.072C27.1122 10.072 27.1122 10.072 27.1122 10.7124V11.0319C27.1122 11.4091 27.0952 11.4244 26.729 11.3016C26.2379 11.1364 25.9569 10.7862 25.866 10.2606C25.8376 10.0998 25.8902 10.0647 26.0342 10.0742V10.072ZM2.03604 10.072C2.25249 10.0771 2.46894 10.072 2.68539 10.072C2.88338 10.072 3.08138 10.0822 3.27796 10.072C3.42983 10.0618 3.47028 10.1122 3.45467 10.265C3.38796 10.9368 2.64565 11.4997 1.99914 11.3711C1.89127 11.3499 1.88843 11.2929 1.88843 11.211C1.88843 10.882 1.89269 10.553 1.88843 10.2226C1.88488 10.1078 1.92888 10.072 2.03604 10.0749V10.072ZM3.22828 24.035C3.04072 24.0218 2.85255 24.0204 2.66481 24.0306C2.46752 24.0306 2.27023 24.0255 2.07294 24.0306C1.95017 24.035 1.88133 24.0123 1.88559 23.8595C1.89553 23.5401 1.89056 23.2206 1.88559 22.9011C1.88559 22.8046 1.89481 22.7484 2.01546 22.7323C2.33103 22.6942 2.64927 22.7759 2.91055 22.9621C3.17183 23.1484 3.35821 23.4264 3.4348 23.744C3.4788 23.9275 3.48731 24.0701 3.22828 24.0372V24.035ZM26.9476 24.035C26.7411 24.0284 26.5345 24.035 26.3273 24.035C26.1301 24.0262 25.9325 24.0277 25.7354 24.0394C25.5225 24.062 25.5289 23.9465 25.5531 23.7989C25.6609 23.1351 26.3401 22.6387 26.9909 22.7388C27.0916 22.7549 27.1136 22.7944 27.1129 22.8851C27.1129 23.214 27.1072 23.543 27.1129 23.8727C27.1172 24.0028 27.0654 24.0386 26.9476 24.035ZM27.1165 20.488C27.1165 20.7219 27.0675 20.7957 26.8269 20.8008C25.2387 20.8352 24.0329 21.847 23.7044 23.3961C23.6923 23.4524 23.6831 23.5101 23.676 23.5679C23.6213 24.0335 23.6213 24.0335 23.1537 24.0335H5.6589C5.50348 24.0335 5.36297 24.0774 5.33742 23.8142C5.16284 22.0334 3.93724 20.8506 2.21488 20.806C1.93101 20.7987 1.88346 20.7131 1.88488 20.4404C1.89576 18.1654 1.89576 15.8907 1.88488 13.6161C1.88488 13.4005 1.92107 13.3237 2.15668 13.3171C3.93086 13.2689 5.17633 12.0853 5.33671 10.3001C5.358 10.0684 5.46303 10.0742 5.62626 10.0742C8.63667 10.0771 11.6471 10.0771 14.6575 10.0742C17.658 10.0742 20.6589 10.0727 23.6604 10.0698C23.8676 10.0698 23.9577 10.0844 23.9762 10.3483C24.0347 11.1101 24.3552 11.8253 24.88 12.3654C25.4048 12.9054 26.0995 13.2349 26.839 13.2945C27.0576 13.3113 27.1179 13.3763 27.1172 13.6022C27.1082 15.8987 27.108 18.1944 27.1165 20.488Z" fill="#fa7305"/>
<path d="M3.15377 5.79227C3.32598 5.84408 3.50544 5.86558 3.6846 5.85587C10.8948 5.85587 18.1053 5.85587 25.316 5.85587C25.4479 5.85738 25.5796 5.84784 25.7099 5.82736C25.9073 5.79398 26.0885 5.69429 26.2252 5.54382C26.3619 5.39336 26.4464 5.20056 26.4657 4.99543C26.5303 4.34919 26.1009 3.89887 25.4012 3.89887C21.7686 3.89887 18.1354 3.89887 14.5014 3.89887H3.68531C3.51568 3.88954 3.34568 3.90755 3.18145 3.95223C2.99426 4.01469 2.83072 4.13589 2.71373 4.29886C2.59675 4.46183 2.53217 4.6584 2.52904 4.86107C2.52591 5.06373 2.58439 5.26232 2.69629 5.42904C2.80818 5.59576 2.9679 5.72226 3.15306 5.79081L3.15377 5.79227Z" fill="#fa7305"/>
<path d="M6.47261 1.95996H22.5296C22.6806 1.96476 22.8315 1.94653 22.9774 1.90586C23.1672 1.84382 23.3332 1.72151 23.4515 1.55642C23.5697 1.39133 23.6343 1.19193 23.6359 0.986755C23.6374 0.781581 23.576 0.581155 23.4602 0.414159C23.3445 0.247163 23.1805 0.12216 22.9916 0.0570421C22.8173 0.0116907 22.6375 -0.00678643 22.4579 0.0022136C19.8052 0.0022136 17.1527 0.0022136 14.5004 0.0022136C11.8576 0.0022136 9.21454 0.0022136 6.57125 0.0022136C6.42891 -0.000654521 6.28657 0.00765446 6.14545 0.0270689C5.93356 0.0592968 5.73936 0.167097 5.59671 0.331682C5.45406 0.496267 5.37199 0.707199 5.36482 0.927717C5.34282 1.55861 5.77075 1.95996 6.47261 1.95996Z" fill="#fa7305"/>
<path d="M14.598 11.666C11.765 11.6302 9.36629 13.8993 9.30526 16.9237C9.29249 17.6265 9.41423 18.3251 9.66353 18.9794C9.91283 19.6338 10.2848 20.2312 10.7582 20.7375C11.2317 21.2437 11.7972 21.649 12.4227 21.9301C13.0482 22.2112 13.7212 22.3627 14.4035 22.3758C15.0858 22.389 15.7639 22.2636 16.3992 22.0068C17.0344 21.75 17.6143 21.3668 18.1058 20.8791C18.5972 20.3914 18.9907 19.8088 19.2636 19.1645C19.5364 18.5202 19.6835 17.8268 19.6962 17.124C19.7559 14.2327 17.5573 11.7545 14.598 11.666ZM14.4717 20.4269C13.8185 20.4206 13.1818 20.2152 12.6419 19.8364C12.102 19.4577 11.6832 18.9226 11.4383 18.2988C11.1934 17.675 11.1335 16.9904 11.2661 16.3316C11.3986 15.6727 11.7178 15.0691 12.1831 14.5969C12.6485 14.1248 13.2393 13.8053 13.8808 13.6788C14.5224 13.5522 15.1859 13.6244 15.7877 13.8861C16.3894 14.1478 16.9024 14.5873 17.2618 15.1492C17.6213 15.711 17.811 16.37 17.8071 17.0428C17.8053 17.4911 17.7174 17.9345 17.5485 18.3476C17.3796 18.7607 17.133 19.1353 16.823 19.4499C16.513 19.7644 16.1456 20.0126 15.7421 20.1803C15.3385 20.348 14.9068 20.4318 14.4717 20.4269Z" fill="#fa7305"/>
</svg>
