<svg width="30" height="21" viewBox="0 0 30 21" fill="none" xmlns="http://www.w3.org/2000/svg">
<g>
<path d="M29.9998 3.04793C29.9687 3.00586 29.948 2.95736 29.9394 2.90623C29.9308 2.85509 29.9346 2.80272 29.9503 2.75322C29.9575 2.75137 29.9651 2.75137 29.9723 2.75322C29.9731 2.73847 29.9731 2.72369 29.9723 2.70893C29.9727 2.31734 29.8574 1.93387 29.64 1.60415C28.9674 0.552054 27.9845 0.00920635 26.718 0.00767936C18.9229 4.4381e-05 11.1278 4.4381e-05 3.3327 0.00767936C2.89262 0.00925621 2.45633 0.0868115 2.04417 0.236729C1.44947 0.449758 0.935533 0.833583 0.570656 1.33721C0.205778 1.84084 0.00722823 2.44043 0.00138051 3.05632C-0.00176225 8.02415 -0.00176225 12.992 0.00138051 17.9598C-0.0122421 18.5034 0.143595 19.0384 0.448438 19.4944C1.1477 20.5168 2.13924 21.0046 3.3932 21.0046H23.8211C24.7868 21.0046 25.7524 21.01 26.7188 21.0046C27.7496 20.997 28.6217 20.6282 29.2998 19.8663C29.6973 19.4188 29.9739 18.9142 29.9707 18.3003C29.9849 18.1873 29.9385 18.0713 30.0006 17.9606L29.9998 3.04793ZM2.16517 4.98645C2.18953 4.43826 2.16517 3.88777 2.17381 3.33806C2.18088 2.58296 2.5918 2.18441 3.37042 2.18441H26.659C27.4385 2.18441 27.8494 2.58296 27.8564 3.33806C27.8612 3.89694 27.8447 4.45658 27.8635 5.01775C27.8714 5.26054 27.7849 5.30941 27.5492 5.30864C23.3657 5.30203 19.1819 5.30025 14.9978 5.3033C10.8337 5.3033 6.66953 5.30508 2.50537 5.30864C2.24924 5.30712 2.1526 5.25978 2.16517 4.98645ZM27.8572 17.5842C27.8572 18.4362 27.4644 18.8187 26.6001 18.8187H3.42227C2.56901 18.8187 2.17145 18.437 2.17067 17.604C2.17067 15.6899 2.17538 13.7751 2.16438 11.861C2.16438 11.609 2.21781 11.5311 2.49437 11.5311C6.67843 11.5408 10.8622 11.5431 15.0458 11.538C19.2104 11.538 23.3746 11.536 27.5382 11.5319C27.792 11.5319 27.8627 11.5854 27.8612 11.8411C27.8509 13.7522 27.8572 15.6663 27.8572 17.5811V17.5842ZM27.8635 7.71671C27.8407 8.20841 27.8439 8.70239 27.8635 9.19485C27.8722 9.4239 27.7936 9.47276 27.5697 9.47276C23.3851 9.46563 19.2008 9.46411 15.0167 9.46818C10.8426 9.46818 6.66822 9.46971 2.49359 9.47276C2.24924 9.47276 2.15181 9.43688 2.16517 9.16736C2.1911 8.65658 2.1856 8.14351 2.16517 7.63273C2.15653 7.40903 2.23352 7.3594 2.44487 7.37314C2.72615 7.3907 3.00978 7.37772 3.29263 7.37772C11.369 7.37772 19.4448 7.37518 27.5202 7.37009C27.814 7.36932 27.8753 7.44796 27.8627 7.71366L27.8635 7.71671Z" fill="#fa7305"/>
<path d="M30 18.2349L29.9772 18.2478H29.9505C29.9347 18.1983 29.931 18.146 29.9396 18.0948C29.9481 18.0437 29.9688 17.9952 30 17.9531V18.2349Z" fill="#545454"/>
<path d="M22.5279 13.6226C23.2099 13.6226 23.8911 13.6226 24.5707 13.6226C25.2385 13.6271 25.7154 14.0616 25.717 14.6571C25.717 15.2389 25.255 15.6871 24.6013 15.6924C23.1997 15.7041 21.7975 15.7041 20.3947 15.6924C19.745 15.6863 19.283 15.2267 19.2948 14.6456C19.3066 14.0646 19.774 13.6332 20.4238 13.6226H22.5271H22.5279Z" fill="#fa7305"/>
</g>
</svg>
