<svg width="20" height="20" viewBox="0 0 20 20" fill="none" xmlns="http://www.w3.org/2000/svg">
<g clipPath="url(#clip0_49_980)">
<path d="M18.953 13.6508L16.9408 12.0023C15.63 10.9284 13.5951 11.03 12.3992 12.2258L12.3193 12.3057C12.1188 12.5062 11.7921 12.5046 11.5944 12.3069L7.70677 8.41924C7.5105 8.22298 7.50662 7.90731 7.69574 7.70688C7.69919 7.70324 7.70269 7.69964 7.70624 7.69605L7.69555 7.70673C7.6991 7.70319 7.70264 7.69959 7.70619 7.69605C8.89546 6.49537 9.00926 4.45109 7.96748 3.13398L6.33551 1.07077C5.28653 -0.25545 3.46342 -0.357894 2.26768 0.837847L1.96792 1.13761C-0.155955 3.26148 -0.656437 7.08948 0.936673 9.63463C0.936673 9.63463 1.87448 11.8095 5.03933 14.9744C8.20418 18.1392 10.3791 19.077 10.3791 19.077C12.948 20.6313 16.7509 20.171 18.8743 18.0476L19.1598 17.7621C20.3565 16.5654 20.263 14.724 18.953 13.6508ZM17.7142 16.3165L17.4287 16.6019C15.9709 18.0597 13.2015 18.3952 11.4374 17.3279L11.3173 17.2552L11.1885 17.1997C11.0304 17.1315 10.634 16.9166 10.0348 16.5147C8.97055 15.8008 7.77543 14.8193 6.48491 13.5288C5.19439 12.2383 4.21283 11.0432 3.49903 9.9789C3.09711 9.37967 2.88216 8.98331 2.81402 8.82519L2.7523 8.68206L2.6696 8.54996C1.597 6.83639 1.94281 4.05401 3.41354 2.58328L3.71331 2.28352C4.0457 1.95112 4.44311 1.97374 4.73214 2.33915L6.36411 4.40236C6.76651 4.91108 6.71443 5.79676 6.25002 6.26121C5.26209 7.26068 5.26698 8.8708 6.26119 9.86496L10.1489 13.7526C11.1455 14.7492 12.7666 14.7498 13.765 13.7514L13.8449 13.6715C14.2982 13.2183 15.1478 13.1763 15.6453 13.5839L17.6574 15.2324C18.0331 15.5401 18.0551 15.9756 17.7142 16.3165Z" fill="white"/>
</g>
<defs>
<clipPath id="clip0_49_980">
<rect width="20" height="20" fill="white"/>
</clipPath>
</defs>
</svg>
