<svg viewBox="0 0 30 30" fill="none" xmlns="http://www.w3.org/2000/svg">
<path fill-rule="evenodd" clip-rule="evenodd" d="M5.81008 5.60086L5.81099 5.60197L5.81008 5.60086ZM5.86822 5.68976L8.57802 9.84743C8.25057 10.1468 7.8934 10.4433 7.509 10.7624C7.17863 11.0367 6.82814 11.3277 6.45912 11.6515C5.54451 12.4541 5.36785 13.7448 5.95978 14.7494C9.08989 20.0615 13.3591 22.4785 15.2694 23.3464C16.4202 23.8692 17.6707 23.4567 18.3667 22.6023L20.2419 20.3005C20.2419 20.3005 20.2435 20.2993 20.2463 20.2988C20.2492 20.2983 20.2543 20.2988 20.2543 20.2988C20.2543 20.2988 20.2584 20.2997 20.2623 20.3021C21.355 20.9524 22.8794 21.836 24.2797 22.5842C24.0282 24.0484 23.4505 24.9012 22.8135 25.4226C22.1447 25.9702 21.2797 26.2584 20.315 26.3624C18.3888 26.5701 16.4333 26.0066 15.9995 25.8693C15.521 25.6334 12.8973 24.3016 10.0942 22.1435C7.20372 19.9181 4.30539 16.9523 3.19691 13.5508C2.38681 11.0649 2.69227 9.31561 3.329 8.10897C3.94453 6.94248 4.9406 6.15076 5.86822 5.68976ZM4.88795 3.22906C6.16496 2.64502 7.48543 3.25397 8.1005 4.19767L10.9353 8.5472C11.5085 9.42653 11.5477 10.712 10.616 11.5925C10.2167 11.9699 9.66119 12.4338 9.14423 12.8654C8.86046 13.1023 8.58832 13.3295 8.36002 13.5275C11.054 18.0508 14.6555 20.1436 16.2937 20.9088L18.1172 18.6707C18.978 17.6139 20.511 17.3668 21.6783 18.0616C22.7582 18.7042 24.2512 19.5692 25.6041 20.2916C26.5063 20.7732 27.1518 21.7775 26.9689 22.9112C26.6404 24.9476 25.7825 26.4308 24.5601 27.4316C23.3579 28.4156 21.9259 28.8331 20.6142 28.9746C18.0339 29.2528 15.5661 28.4994 15.1154 28.3538C15.0013 28.317 14.9067 28.2781 14.8049 28.2283C14.3211 27.9913 11.4699 26.5577 8.4107 24.2024C5.38324 21.8716 1.96898 18.4999 0.614441 14.3434C-0.380552 11.2901 -0.086217 8.81443 0.918158 6.91107C1.90492 5.04108 3.50291 3.86253 4.88795 3.22906Z" fill="#232323"/>
<path fill-rule="evenodd" clip-rule="evenodd" d="M18.0051 2.12458C17.3157 1.8105 16.5003 2.11075 16.1838 2.79522C15.8675 3.47968 16.1698 4.28917 16.8594 4.60324C20.0492 6.05633 23.7001 8.78822 25.3685 12.558C25.6736 13.2476 26.4841 13.5609 27.1786 13.2579C27.873 12.9551 28.1888 12.1506 27.8836 11.4611C25.8458 6.85627 21.5382 3.73405 18.0051 2.12458ZM16.9881 6.9622C16.3097 6.62541 15.4845 6.89843 15.1453 7.57202C14.8061 8.24559 15.081 9.06467 15.7596 9.40145C17.0504 10.0421 17.9437 10.6459 18.6649 11.3618C19.3861 12.0778 19.9943 12.9647 20.6397 14.246C20.979 14.9195 21.804 15.1925 22.4826 14.8557C23.1611 14.519 23.4362 13.6999 23.0968 13.0263C22.3686 11.5805 21.6032 10.4219 20.6075 9.43345C19.6117 8.44496 18.4447 7.68511 16.9881 6.9622Z" fill="#232323"/>
</svg>
