<svg width="123" height="41" viewBox="0 0 123 41" fill="none" xmlns="http://www.w3.org/2000/svg">
<path d="M115.414 1.68824C117.632 1.68824 119.122 2.11029 120.007 2.96647C120.879 3.82265 121.303 5.30588 121.303 7.48853V33.5356C121.303 35.7182 120.879 37.1894 120.007 38.0335C119.134 38.8897 117.632 39.2997 115.414 39.2997H7.50118C5.29566 39.2997 3.80512 38.8897 2.95685 38.0456C2.10857 37.2015 1.69655 35.7303 1.69655 33.5356V7.50059C1.69655 4.99235 1.97527 3.61765 2.61754 2.89412C3.33251 2.07412 4.89576 1.68824 7.5133 1.68824H115.414ZM115.414 0H7.5133C1.0664 0 0 2.21882 0 7.50059V33.5597C0 38.8294 2.20552 41 7.50118 41H115.414C120.722 41 123 38.8174 123 33.5476V7.50059C123 2.21882 120.722 0 115.414 0Z" fill="white"/>
<path d="M60.8093 23.5027C58.5553 23.5027 56.7618 25.1909 56.7618 27.5303C56.7618 29.7733 58.5432 31.558 60.8093 31.558C63.0754 31.558 64.8568 29.8698 64.8568 27.5303C64.8447 25.0945 63.0633 23.5027 60.8093 23.5027ZM60.8093 29.8698C59.5854 29.8698 58.5553 28.8448 58.5553 27.4339C58.5553 26.035 59.5854 24.998 60.8093 24.998C62.0333 24.998 63.0633 25.9386 63.0633 27.4339C63.0633 28.8327 62.0211 29.8698 60.8093 29.8698ZM52.06 23.5027C49.806 23.5027 48.0125 25.1909 48.0125 27.5303C48.0125 29.7733 49.7938 31.558 52.06 31.558C54.3261 31.558 56.1074 29.8698 56.1074 27.5303C56.1074 25.0945 54.3139 23.5027 52.06 23.5027ZM52.06 29.8698C50.836 29.8698 49.806 28.8448 49.806 27.4339C49.806 26.035 50.836 24.998 52.06 24.998C53.2839 24.998 54.3139 25.9386 54.3139 27.4339C54.3139 28.8327 53.2839 29.8698 52.06 29.8698ZM41.6262 24.7206V26.4089H45.6737C45.5767 27.3495 45.201 28.0971 44.7284 28.5553C44.1589 29.1221 43.2258 29.7733 41.6262 29.7733C39.0935 29.7733 37.203 27.8077 37.203 25.2874C37.203 22.7671 39.1783 20.8015 41.6262 20.8015C42.9471 20.8015 43.9771 21.3683 44.7284 22.0195L45.9524 20.8015C44.9223 19.8609 43.6014 19.1133 41.7231 19.1133C38.3421 19.1133 35.4216 21.923 35.4216 25.2874C35.4216 28.6518 38.33 31.4615 41.7231 31.4615C43.6014 31.4615 44.9223 30.8947 46.0493 29.6889C47.1763 28.5674 47.552 26.9756 47.552 25.7577C47.552 25.3839 47.552 25.01 47.455 24.7327L41.6262 24.7206ZM84.3066 26.023C83.9309 25.0824 82.9857 23.5027 80.9256 23.5027C78.8534 23.5027 77.1689 25.0945 77.1689 27.5303C77.1689 29.7733 78.8655 31.558 81.1195 31.558C82.9008 31.558 84.0278 30.4365 84.4156 29.7853L83.0947 28.8448C82.6221 29.4959 82.0647 29.9662 81.1195 29.9662C80.1742 29.9662 79.6168 29.5924 79.1442 28.7483L84.5004 26.5053L84.3066 26.023ZM78.8534 27.3374C78.8534 25.8421 80.0773 24.998 80.9256 24.998C81.58 24.998 82.2465 25.3718 82.4282 25.8421L78.8534 27.3374ZM74.4302 31.1721H76.2237V19.475H74.4423V31.1721H74.4302ZM71.6188 24.3468C71.1462 23.8765 70.3948 23.4062 69.4617 23.4062C67.4865 23.4062 65.6081 25.1789 65.6081 27.4339C65.6081 29.6889 67.3895 31.365 69.4617 31.365C70.407 31.365 71.1583 30.8948 71.5339 30.4245H71.6309V30.9912C71.6309 32.4865 70.7826 33.3306 69.4738 33.3306C68.4438 33.3306 67.6925 32.583 67.4986 31.9318L65.9959 32.583C66.4685 33.608 67.5955 34.9224 69.5708 34.9224C71.643 34.9224 73.3274 33.7045 73.3274 30.8103V23.6956H71.6309L71.6188 24.3468ZM69.5466 29.8698C68.3226 29.8698 67.2926 28.8448 67.2926 27.4339C67.2926 26.035 68.3226 24.998 69.5466 24.998C70.7705 24.998 71.7036 26.023 71.7036 27.4339C71.7036 28.8327 70.7705 29.8698 69.5466 29.8698ZM92.4864 19.475H88.2571V31.1721H90.0385V26.7706H92.4864C94.4616 26.7706 96.34 25.3718 96.34 23.1168C96.34 20.8618 94.4616 19.475 92.4864 19.475ZM92.5833 25.0945H90.0385V21.0668H92.5833C93.9042 21.0668 94.6555 22.1883 94.6555 23.0324C94.5465 24.0695 93.7951 25.0945 92.5833 25.0945ZM103.393 23.4062C102.072 23.4062 100.763 23.973 100.29 25.1789L101.89 25.83C102.266 25.1789 102.835 24.9859 103.49 24.9859C104.435 24.9859 105.271 25.5527 105.368 26.4812V26.5777C105.089 26.3848 104.338 26.1074 103.587 26.1074C101.89 26.1074 100.206 27.048 100.206 28.7242C100.206 30.3159 101.611 31.3409 103.114 31.3409C104.338 31.3409 104.895 30.7742 105.368 30.2195H105.465V31.16H107.162V26.6742C106.956 24.6242 105.368 23.4062 103.393 23.4062ZM103.199 29.8698C102.629 29.8698 101.793 29.5924 101.793 28.8448C101.793 27.9042 102.823 27.6268 103.671 27.6268C104.423 27.6268 104.798 27.8198 105.271 28.0006C105.077 29.11 104.144 29.8698 103.199 29.8698ZM113.075 23.6956L111.1 28.7483H111.003L108.931 23.6956H107.052L110.155 30.8103L108.373 34.7295H110.155L114.954 23.6956H113.075ZM97.2731 31.1721H99.0544V19.475H97.2731V31.1721Z" fill="white"/>
<path d="M40.4265 14.2538C39.9418 14.8085 39.3723 15.0738 38.6815 15.0738C38.0635 15.0738 37.5424 14.8688 37.1183 14.4468C36.6941 14.0368 36.4881 13.4821 36.4881 12.8188C36.4881 12.1435 36.7063 11.6009 37.1183 11.1909C37.5424 10.7809 38.0635 10.5638 38.6815 10.5638C39.348 10.5638 39.857 10.7929 40.2448 11.2753L40.3296 11.3838L41.0446 10.6965L40.9597 10.6121C40.3781 9.93677 39.6025 9.59912 38.6694 9.59912C37.7605 9.59912 36.985 9.91265 36.3669 10.5277C35.7489 11.1427 35.4338 11.9144 35.4338 12.8309C35.4338 13.7474 35.7489 14.5191 36.3669 15.1341C36.985 15.7491 37.7605 16.0626 38.6694 16.0626C39.1663 16.0626 39.6389 15.9662 40.063 15.7612C40.4871 15.5682 40.8507 15.2909 41.1294 14.9532L41.2021 14.8688L40.4993 14.1694L40.4265 14.2538Z" fill="white"/>
<path d="M48.8124 9.76807L46.5827 15.6528L44.3408 12.4572L46.5342 9.93689V9.76807H45.3224L42.7776 12.626V9.76807H41.8081V15.9181H42.7776V14.1213L43.5895 13.2169L45.5163 15.9181H46.4615H46.6433H47.5764L48.1581 14.3504H50.4969L51.0785 15.9181H52.1934L49.8546 9.76807H48.8124ZM50.1454 13.3857H48.5095L49.3335 11.1307L50.1454 13.3857Z" fill="white"/>
<path d="M55.6228 12.1316C55.3804 12.4813 54.9441 12.6622 54.4352 12.6622C54.0837 12.6622 53.7929 12.5657 53.6111 12.3848C53.4172 12.2039 53.3203 11.9387 53.3203 11.5889V9.76807H52.3508V11.7337C52.3508 12.3125 52.5326 12.7707 52.9204 13.1204C53.3082 13.4581 53.7808 13.6269 54.3503 13.6269C54.8714 13.6269 55.3077 13.4822 55.6591 13.1807L55.6349 13.3737V15.9181H56.7255V9.76807H55.6349V12.1316H55.6228Z" fill="white"/>
<path d="M58.4099 14.1092V13.3375V9.76807H57.4404V15.9181H58.4341L61.3183 11.3357V12.0954V15.9181H62.2877V9.76807H61.1728L58.4099 14.1092Z" fill="white"/>
<path d="M66.6989 12.7104C66.8807 12.6019 67.0261 12.4572 67.1352 12.2884C67.2927 12.0472 67.3775 11.7819 67.3775 11.4684C67.3775 10.9739 67.1957 10.5639 66.8201 10.2384C66.4565 9.91277 66.0203 9.76807 65.5234 9.76807H63.2573V15.9181H65.6567C66.1778 15.9181 66.6262 15.7492 67.014 15.4116C67.4018 15.0739 67.5956 14.6278 67.5956 14.1092C67.5956 13.7595 67.4866 13.4581 67.2806 13.1928C67.123 12.9878 66.9291 12.8189 66.6989 12.7104ZM66.1415 12.0472C65.9839 12.216 65.79 12.3004 65.5355 12.3004H64.2268V10.7328H65.5719C65.8143 10.7328 66.0082 10.7931 66.1536 10.9619C66.299 11.1307 66.3717 11.2995 66.3717 11.5045C66.3717 11.6975 66.299 11.8784 66.1415 12.0472ZM66.3111 14.6881C66.1536 14.8689 65.9476 14.9534 65.681 14.9534H64.2268V13.2651H65.6567C65.9354 13.2651 66.1415 13.3375 66.3111 13.5184C66.4808 13.6992 66.5656 13.8801 66.5656 14.0972C66.5535 14.3142 66.4808 14.4951 66.3111 14.6881Z" fill="white"/>
<path d="M69.9951 9.76807L67.6562 15.9181H68.7711L69.3528 14.3504H71.6916L72.2733 15.9181H73.3882L71.0494 9.76807H69.9951ZM71.3402 13.3857H69.7042L70.5283 11.1307L71.3402 13.3857Z" fill="white"/>
<path d="M74.7574 14.1092L74.7695 13.3375V9.76807H73.8V15.9181H74.7695L77.6779 11.3357V12.0954V15.9181H78.6473V9.76807H77.5082L74.7574 14.1092Z" fill="white"/>
<path d="M76.1874 9.52666C76.5025 9.52666 76.757 9.41814 76.9872 9.18902C77.2175 8.9599 77.3144 8.68255 77.3144 8.35696V8.2002H76.4662V8.35696C76.4662 8.45343 76.454 8.53784 76.3934 8.6102C76.3329 8.68255 76.2723 8.70667 76.1753 8.70667C76.0662 8.70667 76.0057 8.67049 75.9451 8.6102C75.8845 8.53784 75.8602 8.45343 75.8602 8.35696V8.2002H75.012V8.35696C75.012 8.68255 75.121 8.9599 75.3634 9.18902C75.6058 9.41814 75.8724 9.52666 76.1874 9.52666Z" fill="white"/>
<path d="M79.1321 10.7328H80.8286V15.9181H81.9193V10.7328H83.4946V9.76807H79.1321V10.7328Z" fill="white"/>
<path d="M84.1006 15.9181H87.8572V14.9534H85.1912V13.2651H87.6149V12.3004H85.1912V10.7328H87.8572V9.76807H84.1006V15.9181Z" fill="white"/>
<path d="M94.5343 13.1807C94.3768 12.9757 94.1829 12.8189 93.9648 12.7104C94.1465 12.6019 94.292 12.4572 94.401 12.2884C94.5586 12.0472 94.6434 11.7819 94.6434 11.4684C94.6434 10.9739 94.4616 10.5639 94.086 10.2384C93.7224 9.91277 93.2861 9.76807 92.7893 9.76807H90.5232V15.9181H92.9105C93.4316 15.9181 93.8799 15.7492 94.2677 15.4116C94.6555 15.0739 94.8494 14.6278 94.8494 14.1092C94.8373 13.7595 94.7282 13.446 94.5343 13.1807ZM93.3952 12.0472C93.2377 12.216 93.0438 12.3004 92.7893 12.3004H91.4927V10.7328H92.8257C93.068 10.7328 93.2619 10.7931 93.4073 10.9619C93.5527 11.1307 93.6255 11.2995 93.6255 11.5045C93.6255 11.6975 93.5527 11.8784 93.3952 12.0472ZM93.5649 14.6881C93.4073 14.8689 93.2013 14.9534 92.9347 14.9534H91.4927V13.2651H92.9105C93.1892 13.2651 93.3952 13.3375 93.5649 13.5184C93.7345 13.6992 93.8193 13.8801 93.8193 14.0972C93.8072 14.3142 93.7345 14.4951 93.5649 14.6881Z" fill="white"/>
<path fill-rule="evenodd" clip-rule="evenodd" d="M26.2603 16.8945L11.5366 8.46533L23.1701 19.9695L26.2603 16.8945Z" fill="white"/>
<path fill-rule="evenodd" clip-rule="evenodd" d="M10.1793 8.5498C10.1187 8.64628 10.0581 8.76686 10.0581 8.89951V32.7519C10.0581 32.8242 10.0945 32.8966 10.1187 32.9689L22.4308 20.693L10.1793 8.5498Z" fill="white"/>
<path fill-rule="evenodd" clip-rule="evenodd" d="M23.1701 21.3926L11.1003 33.4273C11.1367 33.4152 11.1731 33.4032 11.2094 33.379L26.4663 24.6485L23.1701 21.3926Z" fill="white"/>
<path fill-rule="evenodd" clip-rule="evenodd" d="M32.0406 20.1987L27.169 17.4131L23.885 20.681L27.3629 24.1299L32.0406 21.4528C32.5253 21.1754 32.5253 20.476 32.0406 20.1987Z" fill="white"/>
</svg>
