<svg width="95" height="95" viewBox="0 0 95 95" fill="none" xmlns="http://www.w3.org/2000/svg">
<g clipPath="url(#clip0_114_654)">
<path d="M88.5163 94.9999C87.7727 94.6515 86.9361 94.4192 86.2622 93.9547C84.5425 92.7933 83.8686 91.0513 83.8686 89.0072C83.8686 80.2273 83.8686 71.4473 83.8686 62.6674C83.8686 62.2957 83.8686 61.9241 83.8686 61.4131C83.5432 61.4131 83.2644 61.4131 82.9623 61.4131C80.6151 61.4131 78.268 61.4131 75.9209 61.4131C73.8527 61.4131 72.7372 60.3214 72.7372 58.2774C72.7372 49.4046 72.6907 40.5317 72.7372 31.6588C72.7837 19.929 77.8033 10.6148 86.7967 3.32143C87.7727 2.5317 88.8184 1.78842 89.8409 1.04514C92.188 -0.627227 93.4894 -0.371726 94.9767 2.04392C94.9767 31.473 94.9767 60.9021 94.9767 90.3544C94.7675 90.8654 94.6049 91.3997 94.3725 91.8874C93.5591 93.6063 92.0718 94.4657 90.3289 94.9999C89.748 94.9999 89.1438 94.9999 88.5163 94.9999Z" fill="#EBE1D5" fill-opacity="0.85"/>
<path d="M12.9904 94.9998C12.5257 94.8372 12.0609 94.6978 11.6193 94.4888C9.45814 93.4436 8.36592 91.6783 8.36592 89.3091C8.34268 74.6294 8.36592 59.9497 8.36592 45.27C8.36592 45.1306 8.38916 44.968 8.38916 44.7822C12.0609 44.7822 15.7094 44.7822 19.4973 44.7822C19.4973 45.1306 19.4973 45.479 19.4973 45.8275C19.4973 59.88 19.4973 73.9326 19.4973 88.0084C19.4973 92.2125 18.6607 93.4668 14.8495 94.9998C14.2221 94.9998 13.6179 94.9998 12.9904 94.9998Z" fill="#EBE1D5" fill-opacity="0.85"/>
<path d="M67.1833 45.7347C67.1833 49.8459 67.1368 53.9571 67.2065 58.0684C67.2297 59.253 67.5783 60.4376 67.741 61.6222C67.7875 61.9241 67.7875 62.319 67.6248 62.5281C61.8383 69.7518 54.3322 73.2823 45.06 72.3997C36.2989 71.5403 29.7921 67.0109 25.4232 59.3924C25.2141 59.0207 25.0746 58.5329 25.0746 58.0916C25.0514 53.5158 25.0746 48.94 25.0514 44.3642C25.0514 43.8068 25.2141 43.5048 25.7253 43.2261C30.7914 40.462 33.2547 36.1185 33.4173 30.4046C33.4406 29.3594 33.4638 28.2909 33.4173 27.2457C33.3941 26.7114 33.6033 26.4327 34.0448 26.154C39.5756 22.786 45.548 21.6246 51.9154 22.7628C57.8877 23.8312 62.8144 26.7579 66.7417 31.3801C66.9973 31.6821 67.16 32.1931 67.16 32.6112C67.1833 36.9547 67.1833 41.3447 67.1833 45.7347Z" fill="#EBE1D5" fill-opacity="0.85"/>
<path d="M16.7083 22.2283C18.6139 22.2283 20.4033 22.2283 22.2856 22.2283C22.2856 21.8566 22.2856 21.5314 22.2856 21.183C22.2856 15.2833 22.2856 9.38352 22.2856 3.48376C22.2856 3.13535 22.2624 2.81017 22.3089 2.46176C22.4948 1.04489 23.7032 -0.000343757 25.1207 0.0228836C26.4918 0.046111 27.6538 1.11457 27.8164 2.48499C27.8397 2.74049 27.8397 2.97276 27.8397 3.22826C27.8397 12.2173 27.8629 21.2063 27.8397 30.2185C27.8397 33.8187 26.3292 36.6525 23.0525 38.2552C21.8441 38.8358 20.4033 39.0913 19.0322 39.1378C15.6626 39.2539 12.293 39.1843 8.92334 39.1843C3.71786 39.1843 0.0461403 35.5376 0.0229016 30.3346C-0.000337173 21.2759 0.0229016 12.2173 0.0229016 3.15858C-0.000337173 1.25394 1.1616 -0.000343757 2.83479 0.0228836C4.43826 0.046111 5.57696 1.27716 5.57696 3.11213C5.57696 9.12802 5.57696 15.1671 5.57696 21.183C5.57696 21.5082 5.57696 21.8566 5.57696 22.2283C7.4593 22.2283 9.22544 22.2283 11.1543 22.2283C11.1543 21.9031 11.1543 21.5779 11.1543 21.2527C11.1543 15.1904 11.1543 9.12802 11.1543 3.0889C11.1543 0.835842 13.1063 -0.581028 15.0119 0.255157C16.2203 0.789387 16.7316 1.78816 16.7083 3.0889C16.7083 8.29183 16.7083 13.4715 16.7083 18.6745C16.7083 19.8126 16.7083 20.9972 16.7083 22.2283Z" fill="#EBE1D5" fill-opacity="0.85"/>
<path d="M25.0514 68.5206C26.1669 69.5193 27.1196 70.4252 28.1654 71.2382C34.161 76.023 41.0164 78.3225 48.6387 78.0438C57.6786 77.6954 65.2079 73.9558 71.1106 67.0805C71.6916 66.4069 72.0866 66.1281 72.9929 66.4998C73.8295 66.8482 74.8055 66.8714 75.7119 66.9411C76.5252 67.0108 77.3618 66.9643 78.2914 66.9643C78.2914 69.1012 78.1287 71.1685 78.3378 73.2125C78.5238 75.21 77.7336 76.5108 76.3161 77.8115C69.3677 84.199 61.2574 88.1477 51.8689 89.1465C42.4804 90.1452 33.6962 88.1012 25.5859 83.2235C25.3303 83.0609 25.0514 82.666 25.0514 82.3873C25.0514 77.858 25.0514 73.2822 25.0514 68.5206Z" fill="#EBE1D5" fill-opacity="0.85"/>
<path d="M71.3894 12.9841C70.1345 16.7934 68.9261 20.4865 67.7409 24.11C57.3067 15.934 45.85 14.4706 33.4638 19.9059C33.4405 19.6736 33.4173 19.4413 33.4173 19.209C33.4173 15.7249 33.4173 12.2176 33.394 8.73348C33.394 8.17603 33.5567 7.94375 34.0912 7.78116C46.1754 3.94865 57.725 5.13324 68.7866 11.335C69.7162 11.8692 70.5993 12.4963 71.3894 12.9841Z" fill="#EBE1D5" fill-opacity="0.85"/>
</g>
<defs>
<clipPath id="clip0_114_654">
<rect width="95" height="95" fill="white"/>
</clipPath>
</defs>
</svg>
