<svg width="24" height="25" viewBox="0 0 24 25" fill="none" xmlns="http://www.w3.org/2000/svg">
<path fill-rule="evenodd" clip-rule="evenodd" d="M12 24.5C5.37258 24.5 0 19.1275 0 12.5C0 5.8726 5.37258 0.5 12 0.5C18.6274 0.5 24 5.8726 24 12.5C24 19.1275 18.6274 24.5 12 24.5ZM12 2.9C6.69806 2.9 2.4 7.19809 2.4 12.5C2.4 15.2471 3.55386 17.7248 5.40337 19.4746C6.37717 17.4766 8.42781 16.1 10.8 16.1H13.8C16.0104 16.1 17.9106 17.4281 18.7463 19.33C20.5081 17.5895 21.6 15.1723 21.6 12.5C21.6 7.19809 17.302 2.9 12 2.9ZM16.7305 20.8555C16.4357 19.5085 15.2356 18.5 13.8 18.5H10.8C9.22286 18.5 7.8826 19.5142 7.39579 20.9259C8.76271 21.6745 10.3316 22.1 12 22.1C13.72 22.1 15.3343 21.6477 16.7305 20.8555ZM12 14.9C9.34903 14.9 7.2 12.751 7.2 10.1C7.2 7.44905 9.34903 5.30001 12 5.30001C14.6509 5.30001 16.8 7.44905 16.8 10.1C16.8 12.751 14.6509 14.9 12 14.9ZM12 7.70001C10.6745 7.70001 9.59999 8.77453 9.59999 10.1C9.59999 11.4255 10.6745 12.5 12 12.5C13.3254 12.5 14.4 11.4255 14.4 10.1C14.4 8.77453 13.3254 7.70001 12 7.70001Z"/>
</svg>
