<svg width="56" height="56" viewBox="0 0 56 56" fill="none" xmlns="http://www.w3.org/2000/svg">
<path opacity="0.4" d="M20.9998 4.66675C14.8865 4.66675 9.9165 9.63675 9.9165 15.7501C9.9165 21.7467 14.6065 26.6001 20.7198 26.8101C20.9065 26.7867 21.0932 26.7867 21.2332 26.8101C21.2798 26.8101 21.3032 26.8101 21.3498 26.8101C21.3732 26.8101 21.3732 26.8101 21.3965 26.8101C27.3698 26.6001 32.0598 21.7467 32.0832 15.7501C32.0832 9.63675 27.1132 4.66675 20.9998 4.66675Z" fill="#FA7305"/>
<path d="M32.8532 33.0167C26.3432 28.6767 15.7266 28.6767 9.16991 33.0167C6.20658 35.0001 4.57324 37.6834 4.57324 40.5534C4.57324 43.4234 6.20658 46.0834 9.14658 48.0434C12.4132 50.2367 16.7066 51.3334 20.9999 51.3334C25.2932 51.3334 29.5866 50.2367 32.8532 48.0434C35.7932 46.0601 37.4266 43.4001 37.4266 40.5067C37.4032 37.6367 35.7932 34.9767 32.8532 33.0167Z" fill="#FA7305"/>
<path opacity="0.4" d="M46.6433 17.1267C47.0167 21.6534 43.7967 25.6201 39.34 26.1567C39.3167 26.1567 39.3167 26.1567 39.2933 26.1567H39.2233C39.0833 26.1567 38.9433 26.1567 38.8267 26.2034C36.5633 26.3201 34.4867 25.5967 32.9233 24.2667C35.3267 22.1201 36.7033 18.9001 36.4233 15.4001C36.26 13.5101 35.6067 11.7834 34.6267 10.3134C35.5133 9.87007 36.54 9.59007 37.59 9.49674C42.1633 9.10007 46.2467 12.5067 46.6433 17.1267Z" fill="#FA7305"/>
<path d="M51.3102 38.71C51.1236 40.9734 49.6769 42.9334 47.2502 44.2634C44.9169 45.5467 41.9769 46.1534 39.0602 46.0834C40.7402 44.5667 41.7202 42.6767 41.9069 40.67C42.1402 37.7767 40.7636 35 38.0102 32.7834C36.4469 31.5467 34.6269 30.5667 32.6436 29.8434C37.8002 28.35 44.2869 29.3534 48.2769 32.5734C50.4236 34.3 51.5202 36.47 51.3102 38.71Z" fill="#FA7305"/>
</svg>
