<svg width="25" height="24" viewBox="0 0 25 24" fill="none" xmlns="http://www.w3.org/2000/svg">
<path d="M11.9882 0.000154442C5.33436 0.0335626 -0.0285279 5.42114 0.000114196 12.0428C0.0287563 18.6303 5.44688 24.0274 12.0025 23.9995C13.5853 23.9978 15.1521 23.6835 16.613 23.0745C18.0739 22.4656 19.4 21.574 20.5152 20.4511C21.6304 19.3282 22.5126 17.996 23.1113 16.5312C23.7099 15.0663 24.0131 13.4976 24.0035 11.9153C23.9776 5.35773 18.5431 -0.0332537 11.9882 0.000154442ZM12.0421 21.8177C6.55301 21.7979 2.15372 17.4078 2.18578 11.9746C2.21783 6.54133 6.6287 2.16555 12.0509 2.18873C17.484 2.21191 21.8376 6.6286 21.8165 12.0959C21.7954 17.4194 17.3572 21.8334 12.0421 21.8177Z" fill="#E5DCD0"/>
<path d="M16.5707 6.66784L16.4888 6.5859C15.9964 6.09388 15.5046 5.60089 15.0133 5.10693C14.9886 5.07606 14.9578 5.05063 14.9228 5.03223C14.8878 5.01383 14.8494 5.00285 14.8099 5C14.7717 5.00257 14.7344 5.01328 14.7006 5.03142C14.6669 5.04956 14.6373 5.07471 14.6141 5.10518C14.3328 5.40098 14.0661 5.66713 13.8005 5.91876C13.722 5.99315 13.6883 6.05417 13.6872 6.1239C13.6903 6.16506 13.7019 6.20512 13.7212 6.24161C13.7405 6.2781 13.7671 6.31024 13.7993 6.33601C14.1817 6.71375 14.5502 7.08857 14.9436 7.48781L15.1638 7.71096H12.9852C11.224 7.71096 9.46277 7.71096 7.70157 7.71096C6.72411 7.71096 6.0285 8.37345 6.01106 9.31952C6.00351 9.71992 6.00467 10.1232 6.00583 10.5137C6.00583 10.7991 6.00583 11.0949 6.00583 11.3854C6.00127 11.4228 6.00483 11.4608 6.01626 11.4967C6.02769 11.5326 6.04673 11.5656 6.07208 11.5935C6.10016 11.6178 6.13301 11.636 6.16854 11.6469C6.20407 11.6579 6.24148 11.6612 6.27838 11.6568C6.72992 11.6475 7.09603 11.6481 7.43192 11.6568C7.54117 11.6568 7.60917 11.6394 7.65914 11.5906C7.68645 11.5589 7.70677 11.5218 7.71879 11.4818C7.7308 11.4417 7.73424 11.3996 7.72888 11.3581C7.72481 11.0809 7.72539 10.7968 7.72597 10.5207C7.72597 10.1947 7.72597 9.85765 7.72074 9.52582C7.7176 9.49428 7.71996 9.46242 7.72772 9.43168C7.76087 9.42189 7.79548 9.41796 7.82999 9.42006C9.87731 9.42529 12.0618 9.42471 13.657 9.42413H15.1906L14.9581 9.65658C14.5653 10.0494 14.1939 10.4202 13.8144 10.7938C13.7563 10.852 13.6942 10.9205 13.6982 11.0094C13.7013 11.0486 13.7128 11.0866 13.7317 11.1209C13.7506 11.1553 13.7767 11.1852 13.8081 11.2088C14.0527 11.436 14.3119 11.694 14.6216 12.0223C14.6451 12.0527 14.6748 12.0778 14.7086 12.0959C14.7425 12.1141 14.7798 12.1248 14.8181 12.1275C14.8571 12.1245 14.8951 12.1134 14.9296 12.0949C14.9641 12.0764 14.9944 12.0509 15.0185 12.02C15.5294 11.5057 16.0611 10.974 16.5295 10.5044L16.6143 10.4196C17.0161 10.0182 17.4174 9.61609 17.8184 9.21318C18.231 8.79825 18.231 8.32231 17.8184 7.90738C17.4058 7.49246 16.9868 7.08276 16.5707 6.66784Z" fill="#E5DCD0"/>
<path d="M18.0448 12.9737L18.039 12.9679C17.9879 12.9208 17.9228 12.9028 17.8066 12.9045C17.4225 12.9156 17.0511 12.9156 16.7024 12.9045C16.6606 12.8985 16.618 12.9014 16.5774 12.9131C16.5368 12.9249 16.4992 12.9451 16.4671 12.9725C16.4389 13.0054 16.4179 13.0437 16.4054 13.0852C16.3929 13.1266 16.3891 13.1702 16.3944 13.2131C16.3979 13.4938 16.3973 13.7739 16.3973 14.0447C16.3973 14.3713 16.3973 14.7089 16.4026 15.0454C16.4036 15.0736 16.4021 15.1018 16.3979 15.1297C16.3674 15.1385 16.3354 15.1414 16.3038 15.1384C14.6726 15.1349 13.0129 15.1343 11.4084 15.1337H10.6064H8.93334L10.3164 13.7547C10.3237 13.747 10.3314 13.7399 10.3397 13.7332C10.3678 13.713 10.3912 13.687 10.4084 13.6569C10.4255 13.6268 10.436 13.5934 10.439 13.5589C10.4376 13.5237 10.4285 13.4893 10.4126 13.4579C10.3967 13.4265 10.3742 13.3989 10.3466 13.377C10.1142 13.1567 9.88639 12.9249 9.66556 12.7006L9.39359 12.4257L9.31165 12.3438L9.22913 12.4257C8.95019 12.7046 8.67144 12.9826 8.39289 13.2596L8.38185 13.2706C7.68449 13.968 6.95983 14.6886 6.25376 15.4034C5.90043 15.7619 5.91728 16.2594 6.29676 16.6412C6.72292 17.0673 7.14908 17.4945 7.57524 17.9226L7.59616 17.9435C8.09187 18.4392 8.605 18.9518 9.11174 19.4637C9.13611 19.4934 9.16633 19.5178 9.20052 19.5353C9.23472 19.5528 9.27215 19.563 9.31049 19.5654C9.38894 19.5654 9.44764 19.5207 9.51098 19.4544C9.75912 19.1958 10.0032 18.9436 10.2606 18.7071C10.3525 18.6228 10.4141 18.5461 10.4146 18.4456C10.4146 18.3596 10.3722 18.2817 10.2699 18.1858C9.9044 17.8418 9.54817 17.4885 9.17102 17.1131L8.90893 16.8527H11.3595C13.0437 16.8527 14.7276 16.8527 16.4113 16.8527C17.4405 16.8527 18.1088 16.1867 18.1134 15.1587C18.1134 14.91 18.1134 14.6619 18.1134 14.4091V14.4021C18.1134 14.0325 18.1134 13.6135 18.1181 13.2125C18.1186 13.0963 18.0971 13.026 18.0448 12.9737Z" fill="#E5DCD0"/>
</svg>
