<svg width="56" height="56" viewBox="0 0 56 56" fill="none" xmlns="http://www.w3.org/2000/svg">
<path opacity="0.4" d="M20.7199 10.7333C18.8532 2.66001 6.69656 2.63667 4.8299 10.7333C3.73323 15.47 6.74323 19.4833 9.35656 21.98C11.2699 23.7767 14.2799 23.7767 16.1932 21.98C18.8066 19.4833 21.7932 15.47 20.7199 10.7333ZM12.8566 14.4667C11.5732 14.4667 10.5232 13.4167 10.5232 12.1333C10.5232 10.85 11.5499 9.8 12.8332 9.8H12.8566C14.1632 9.8 15.1899 10.85 15.1899 12.1333C15.1899 13.4167 14.1632 14.4667 12.8566 14.4667Z" fill="#FA7305"/>
<path d="M15.1901 12.1333C15.1901 13.4167 14.1634 14.4667 12.8568 14.4667C11.5734 14.4667 10.5234 13.4167 10.5234 12.1333C10.5234 10.85 11.5501 9.8 12.8334 9.8H12.8568C14.1634 9.8 15.1901 10.85 15.1901 12.1333Z" fill="#FA7305"/>
<path opacity="0.4" d="M51.1233 38.7333C49.2567 30.66 37.0533 30.6367 35.1633 38.7333C34.0667 43.47 37.0767 47.4833 39.7133 49.98C41.6267 51.7767 44.66 51.7767 46.5733 49.98C49.21 47.4833 52.22 43.47 51.1233 38.7333ZM43.2367 42.4667C41.9533 42.4667 40.9033 41.4167 40.9033 40.1333C40.9033 38.85 41.93 37.8 43.2133 37.8H43.2367C44.52 37.8 45.57 38.85 45.57 40.1333C45.57 41.4167 44.52 42.4667 43.2367 42.4667Z" fill="#FA7305"/>
<path d="M45.57 40.1333C45.57 41.4167 44.52 42.4667 43.2367 42.4667C41.9533 42.4667 40.9033 41.4167 40.9033 40.1333C40.9033 38.85 41.93 37.8 43.2133 37.8H43.2367C44.52 37.8 45.57 38.85 45.57 40.1333Z" fill="#FA7305"/>
<path d="M27.9999 46.0833H21.7466C19.0399 46.0833 16.6833 44.45 15.7499 41.93C14.7933 39.41 15.4933 36.6333 17.5233 34.8367L36.1666 18.5267C37.2866 17.5467 37.3099 16.2167 36.9833 15.3067C36.6333 14.3967 35.7466 13.4167 34.2533 13.4167H27.9999C27.0433 13.4167 26.2499 12.6233 26.2499 11.6667C26.2499 10.71 27.0433 9.91667 27.9999 9.91667H34.2533C36.9599 9.91667 39.3166 11.55 40.2499 14.07C41.2066 16.59 40.5066 19.3667 38.4766 21.1633L19.8333 37.4733C18.7133 38.4533 18.6899 39.7833 19.0166 40.6933C19.3666 41.6033 20.2533 42.5833 21.7466 42.5833H27.9999C28.9566 42.5833 29.7499 43.3767 29.7499 44.3333C29.7499 45.29 28.9566 46.0833 27.9999 46.0833Z" fill="#FA7305"/>
</svg>
