<svg width="64" height="50" viewBox="0 0 64 50" fill="none" xmlns="http://www.w3.org/2000/svg">
<g clipPath="url(#clip0_332_695)">
<path d="M61.6858 35.2651C61.2624 35.3138 61.2757 35.0386 61.2624 34.7617C61.2147 33.6517 61.0691 32.5482 60.8272 31.4642C58.2864 20.1651 51.5619 12.64 40.6537 8.88887C40.0869 8.69253 39.3199 8.72106 38.9748 8.34181C38.6297 7.96256 38.9098 7.18057 38.8548 6.57814C38.603 3.76901 37.2309 1.7016 34.655 0.602454C32.0791 -0.496696 29.6283 -0.0687816 27.4859 1.75698C25.652 3.32096 24.9851 5.40179 25.1235 7.76958C25.1535 8.25959 24.9984 8.44082 24.5349 8.57339C15.8953 10.9462 9.59821 16.2137 5.57018 24.2333C3.93695 27.5174 2.9695 31.0958 2.72421 34.76C2.70421 35.0369 2.72421 35.3171 2.3024 35.2634C1.19036 35.1359 0.453439 35.6628 -0.0117188 36.6445V38.6582C0.134998 39.2456 0.0866544 39.8597 0.245041 40.4487C1.62551 45.5233 6.50716 49.2839 11.7389 49.2839C25.1518 49.2839 38.5647 49.3242 51.9759 49.2638C56.4424 49.2436 59.9086 47.1628 62.3727 43.4173C63.2949 41.9902 63.85 40.3548 63.9883 38.6582V36.6395C63.5348 35.6662 62.7946 35.1393 61.6858 35.2651ZM31.639 3.82439C32.4207 3.73602 33.2067 3.94716 33.8407 4.41579C34.4746 4.88441 34.91 5.57614 35.0602 6.35327C35.1068 6.57478 35.0985 6.80971 35.1252 7.03626C35.1919 7.56989 35.0868 7.9139 34.5367 7.70749C32.8102 7.53421 31.0706 7.53815 29.3449 7.71924C28.9548 7.75952 28.8647 7.65548 28.8647 7.26448C28.8581 5.41355 29.9634 4.02241 31.639 3.82439ZM6.49048 34.6056C7.044 29.4035 8.93131 24.7636 12.2524 20.7479C16.4122 15.7137 21.7206 12.574 28.1562 11.6728C37.3076 10.3924 45.0702 13.2871 51.2656 20.1975C54.8202 24.1629 56.8042 28.8934 57.4611 34.1895C57.5945 35.2634 57.6028 35.2618 56.5408 35.2618H31.9891C23.6996 35.2618 15.4113 35.2662 7.12404 35.2752C6.58386 35.2752 6.4288 35.1779 6.49048 34.6056ZM53.2213 45.1977C52.8314 45.2623 52.4376 45.3005 52.0426 45.3118C38.6047 45.3118 25.1679 45.3118 11.7323 45.3118C8.1227 45.3118 4.97164 42.7763 4.02799 39.2707C4.01756 39.2002 4.0131 39.1289 4.01465 39.0576H59.9719C59.235 42.1772 56.3707 44.7665 53.2213 45.1977Z" fill="#9B3D30"/>
<g clipPath="url(#clip1_332_695)">
<path d="M34.9611 17.9668C34.9611 16.8106 36.2066 16.0504 37.2112 16.6356C39.8507 18.1828 42.4723 19.7619 45.0888 21.3474C45.2663 21.4497 45.4208 21.5871 45.5429 21.7513C45.6649 21.9154 45.7519 22.1028 45.7985 22.3018C45.8451 22.5008 45.8503 22.7072 45.8137 22.9083C45.7772 23.1093 45.6997 23.3008 45.586 23.4708C45.126 24.1965 44.247 24.3843 43.4487 23.909C40.8741 22.3759 38.3024 20.8428 35.7338 19.3096C35.4931 19.1789 35.2935 18.9842 35.1571 18.7471C35.0207 18.5101 34.9528 18.24 34.9611 17.9668Z" fill="#9B3D30"/>
<path d="M28.9238 18.1335C28.9154 18.3835 28.8435 18.6273 28.7149 18.842C28.5862 19.0567 28.405 19.2354 28.1883 19.3613C25.6256 20.9047 23.0527 22.4493 20.4733 23.9722C20.1248 24.1694 19.7126 24.2225 19.3253 24.1201C18.9379 24.0177 18.6063 23.7679 18.4015 23.4245C18.1968 23.081 18.1352 22.6712 18.23 22.283C18.3249 21.8948 18.5686 21.5591 18.9088 21.348C21.4715 19.7983 24.0342 18.2536 26.6199 16.7371C27.6527 16.1302 28.9238 16.8776 28.9238 18.1335Z" fill="#9B3D30"/>
<path d="M22.7741 27.2192C22.781 26.6136 22.9675 26.0235 23.3103 25.5235C23.6531 25.0235 24.1367 24.6359 24.7002 24.4096C25.2636 24.1833 25.8817 24.1284 26.4764 24.252C27.071 24.3755 27.6157 24.6719 28.0416 25.1037C28.4676 25.5355 28.7557 26.0834 28.8697 26.6784C28.9837 27.2733 28.9185 27.8885 28.6822 28.4465C28.4459 29.0045 28.0491 29.4802 27.542 29.8136C27.0349 30.1471 26.4401 30.3233 25.8327 30.32C25.4273 30.3179 25.0264 30.2358 24.6529 30.0786C24.2795 29.9213 23.9409 29.692 23.6566 29.4039C23.3724 29.1157 23.1481 28.7743 22.9966 28.3994C22.8452 28.0245 22.7696 27.6234 22.7741 27.2192Z" fill="#9B3D30"/>
<path d="M41.2246 27.2411C41.2272 27.8471 41.0495 28.4402 40.7142 28.9457C40.3788 29.4511 39.9008 29.8461 39.3404 30.0808C38.7801 30.3154 38.1625 30.3793 37.5658 30.2643C36.9691 30.1493 36.4199 29.8605 35.9876 29.4345C35.5554 29.0085 35.2594 28.4644 35.1371 27.8707C35.0148 27.2771 35.0717 26.6607 35.3005 26.0993C35.5294 25.5379 35.9199 25.0566 36.4229 24.7164C36.9258 24.3762 37.5186 24.1921 38.1264 24.1876C38.5311 24.1846 38.9324 24.2612 39.3073 24.4131C39.6822 24.5651 40.0234 24.7893 40.3113 25.073C40.5991 25.3567 40.8279 25.6942 40.9847 26.0663C41.1414 26.4383 41.223 26.8375 41.2246 27.2411Z" fill="#9B3D30"/>
</g>
</g>
<defs>
<clipPath id="clip0_332_695">
<rect width="64" height="49.2973" fill="white"/>
</clipPath>
<clipPath id="clip1_332_695">
<rect width="27.6757" height="27.6757" fill="white" transform="translate(18.1621 16.4326)"/>
</clipPath>
</defs>
</svg>
