<svg width="11" height="9" viewBox="0 0 11 9" fill="none" xmlns="http://www.w3.org/2000/svg">
<path d="M9.29013 0.263027C9.48022 0.0924547 9.73317 -0.00184437 9.99562 2.73393e-05C10.2581 0.00189905 10.5095 0.0997954 10.6968 0.273059C10.8841 0.446322 10.9927 0.681401 10.9996 0.928691C11.0066 1.17598 10.9113 1.41614 10.734 1.59849L5.34993 7.94513C5.25735 8.03911 5.14561 8.11454 5.02139 8.1669C4.89718 8.21925 4.76304 8.24746 4.62699 8.24984C4.49095 8.25221 4.35579 8.2287 4.22961 8.18072C4.10342 8.13273 3.9888 8.06126 3.89259 7.97056L0.32211 4.60519C0.222678 4.51786 0.142926 4.41255 0.0876123 4.29554C0.0322983 4.17853 0.00255507 4.05222 0.0001575 3.92414C-0.00224007 3.79605 0.0227572 3.66883 0.0736574 3.55005C0.124558 3.43127 0.200318 3.32338 0.29642 3.2328C0.392522 3.14222 0.506995 3.07081 0.633012 3.02283C0.759029 2.97485 0.894007 2.95129 1.02989 2.95355C1.16578 2.95581 1.29979 2.98385 1.42394 3.03598C1.54808 3.08812 1.65981 3.16329 1.75246 3.25701L4.57808 5.91904L9.2645 0.291008C9.27293 0.281216 9.28194 0.271874 9.29148 0.263027H9.29013Z" fill="#362E28"/>
</svg>
