<svg viewBox="0 0 51 50" fill="none" xmlns="http://www.w3.org/2000/svg">
<g clipPath="url(#clip0_332_8071)">
<path d="M25.5006 5.92253e-06C11.4275 -0.00937699 0.0452219 11.1313 -0.00422449 24.9648C-0.055266 38.753 11.3908 49.9859 25.491 50C39.5641 50 50.9463 38.8656 50.9958 25.0336C51.0484 11.2376 39.6119 0.00782502 25.5006 5.92253e-06ZM25.4304 45.0161C14.1231 44.9082 5.00422 35.9194 5.08398 24.9476C5.16213 13.8789 14.3352 4.93073 25.5372 4.97921C36.8397 5.0355 46.0464 14.1135 45.9188 25.0743C45.788 36.179 36.6005 45.1209 25.4352 45.0161H25.4304Z" fill="#6A893E"/>
<path d="M15.4354 24.2814C15.822 24.2654 16.2076 24.3318 16.5656 24.476C16.9235 24.6201 17.2454 24.8386 17.509 25.1164C18.5346 26.1282 19.5825 27.1213 20.5858 28.1502C20.9048 28.4724 21.0643 28.4849 21.3961 28.1502C25.4124 24.1886 29.4399 20.2352 33.4786 16.2903C34.5488 15.2441 35.9668 15.1236 37.0291 15.9775C37.2918 16.1878 37.509 16.4474 37.6681 16.7409C37.8273 17.0345 37.9251 17.3562 37.956 17.6873C37.9869 18.0184 37.9502 18.3522 37.848 18.6692C37.7458 18.9862 37.5802 19.2801 37.3609 19.5336C37.077 19.8589 36.7532 20.1591 36.4438 20.4563L23.0836 33.5485C21.672 34.931 20.2971 34.9294 18.8871 33.5485C17.1963 31.8893 15.4896 30.2473 13.8212 28.5693C12.3984 27.1369 12.9854 24.8944 14.8963 24.3627C15.0736 24.322 15.2538 24.2948 15.4354 24.2814Z" fill="#6A893E"/>
</g>
<defs>
<clipPath id="clip0_332_8071">
<rect width="51" height="50" fill="white"/>
</clipPath>
</defs>
</svg>
