<svg width="266" height="66" viewBox="0 0 266 66" fill="none" xmlns="http://www.w3.org/2000/svg">
<rect width="266" height="66" rx="14" fill="#29A9EB"/>
<path d="M68.7291 37V25.8H73.7531C75.0491 25.8 76.0251 26.136 76.6811 26.792C77.1771 27.288 77.4331 27.912 77.4331 28.648V28.68C77.4331 30.04 76.6651 30.744 75.8331 31.176C77.1611 31.64 78.0571 32.36 78.0571 33.896V33.928C78.0571 35.928 76.4091 37 73.9131 37H68.7291ZM75.4651 29V28.968C75.4651 28.072 74.7771 27.544 73.4971 27.544H70.6651V30.52H73.3531C74.6331 30.52 75.4651 30.024 75.4651 29ZM76.0891 33.72V33.688C76.0891 32.728 75.3371 32.184 73.7851 32.184H70.6651V35.256H73.9291C75.2731 35.256 76.0891 34.744 76.0891 33.72ZM82.4839 37.176C80.8999 37.176 79.4759 36.28 79.4759 34.568V34.536C79.4759 32.696 80.9159 31.816 82.9799 31.816C83.9399 31.816 84.5959 31.96 85.2519 32.168V31.96C85.2519 30.744 84.5159 30.12 83.1559 30.12C82.1959 30.12 81.5079 30.328 80.7399 30.648L80.2119 29.128C81.1559 28.728 82.0679 28.44 83.4119 28.44C84.6759 28.44 85.6039 28.76 86.2119 29.384C86.8359 30.008 87.1239 30.888 87.1239 31.992V37H85.2359V35.944C84.6599 36.632 83.7799 37.176 82.4839 37.176ZM83.0279 35.768C84.3079 35.768 85.2839 35.048 85.2839 33.96V33.384C84.7879 33.192 84.1319 33.048 83.3639 33.048C82.0999 33.048 81.3799 33.56 81.3799 34.456V34.488C81.3799 35.304 82.0839 35.768 83.0279 35.768ZM91.3786 28.552V31.896H92.3386L95.0266 28.552H97.4106L93.8586 32.68L97.5226 37H95.1866L92.3706 33.576H91.3786V37H89.4266V28.552H91.3786ZM101.187 37.176C99.6031 37.176 98.1791 36.28 98.1791 34.568V34.536C98.1791 32.696 99.6191 31.816 101.683 31.816C102.643 31.816 103.299 31.96 103.955 32.168V31.96C103.955 30.744 103.219 30.12 101.859 30.12C100.899 30.12 100.211 30.328 99.4431 30.648L98.9151 29.128C99.8591 28.728 100.771 28.44 102.115 28.44C103.379 28.44 104.307 28.76 104.915 29.384C105.539 30.008 105.827 30.888 105.827 31.992V37H103.939V35.944C103.363 36.632 102.483 37.176 101.187 37.176ZM101.731 35.768C103.011 35.768 103.987 35.048 103.987 33.96V33.384C103.491 33.192 102.835 33.048 102.067 33.048C100.803 33.048 100.083 33.56 100.083 34.456V34.488C100.083 35.304 100.787 35.768 101.731 35.768ZM108.13 37V28.552H110.082V31.864H113.986V28.552H115.922V37H113.986V33.64H110.082V37H108.13ZM122.237 37.192C119.725 37.192 117.869 35.224 117.869 32.824V32.792C117.869 30.392 119.725 28.376 122.269 28.376C123.853 28.376 124.829 28.968 125.645 29.832L124.429 31.128C123.837 30.504 123.213 30.072 122.253 30.072C120.845 30.072 119.805 31.288 119.805 32.76V32.792C119.805 34.296 120.845 35.496 122.333 35.496C123.245 35.496 123.901 35.08 124.525 34.456L125.693 35.608C124.861 36.552 123.885 37.192 122.237 37.192ZM127.458 37V28.552H129.394V33.96L133.426 28.552H135.266V37H133.33V31.464L129.218 37H127.458ZM137.661 37V28.552H139.597V33.96L143.629 28.552H145.469V37H143.533V31.464L139.421 37H137.661ZM152.661 37V28.552H156.965C158.757 28.552 159.893 29.336 159.893 30.728V30.744C159.893 31.752 159.349 32.296 158.565 32.616C159.589 32.936 160.245 33.496 160.245 34.632V34.648C160.245 36.216 158.901 37 156.981 37H152.661ZM154.565 32.056H156.581C157.541 32.056 157.989 31.624 157.989 30.984V30.968C157.989 30.392 157.525 29.944 156.629 29.96H154.565V32.056ZM154.565 33.416V35.592H156.869C157.829 35.592 158.357 35.208 158.357 34.52V34.504C158.357 33.848 157.829 33.4 156.789 33.416H154.565ZM169.965 37V27.624H166.397V25.8H175.501V27.624H171.933V37H169.965ZM179.393 37.192C176.961 37.192 175.057 35.416 175.057 32.808V32.776C175.057 30.344 176.769 28.376 179.185 28.376C181.873 28.376 183.233 30.488 183.233 32.92C183.233 33.096 183.217 33.272 183.201 33.464H176.993C177.201 34.856 178.161 35.608 179.425 35.608C180.385 35.608 181.025 35.256 181.713 34.6L182.849 35.608C182.033 36.568 180.945 37.192 179.393 37.192ZM176.977 32.184H181.313C181.185 30.952 180.449 29.96 179.169 29.96C177.969 29.96 177.153 30.856 176.977 32.184ZM185.273 37V25.32H187.225V37H185.273ZM193.627 37.192C191.195 37.192 189.291 35.416 189.291 32.808V32.776C189.291 30.344 191.003 28.376 193.419 28.376C196.107 28.376 197.467 30.488 197.467 32.92C197.467 33.096 197.451 33.272 197.435 33.464H191.227C191.435 34.856 192.395 35.608 193.659 35.608C194.619 35.608 195.259 35.256 195.947 34.6L197.083 35.608C196.267 36.568 195.179 37.192 193.627 37.192ZM191.211 32.184H195.547C195.419 30.952 194.683 29.96 193.403 29.96C192.203 29.96 191.387 30.856 191.211 32.184ZM203.171 39.592C201.763 39.592 200.499 39.256 199.395 38.584L200.115 37.128C201.027 37.688 201.971 38.008 203.123 38.008C204.851 38.008 205.795 37.144 205.795 35.432V34.792C205.091 35.688 204.211 36.328 202.819 36.328C200.819 36.328 198.979 34.856 198.979 32.376V32.344C198.979 29.848 200.835 28.376 202.819 28.376C204.243 28.376 205.123 29.032 205.779 29.816V28.552H207.715V35.272C207.715 36.68 207.363 37.736 206.643 38.456C205.875 39.224 204.707 39.592 203.171 39.592ZM203.331 34.68C204.675 34.68 205.811 33.736 205.811 32.36V32.328C205.811 30.968 204.675 30.024 203.331 30.024C201.987 30.024 200.931 30.936 200.931 32.328V32.36C200.931 33.736 202.003 34.68 203.331 34.68ZM210.13 37V28.552H212.082V30.456C212.61 29.176 213.586 28.328 215.074 28.392V30.44H214.962C213.25 30.44 212.082 31.544 212.082 33.784V37H210.13ZM218.781 37.176C217.197 37.176 215.773 36.28 215.773 34.568V34.536C215.773 32.696 217.213 31.816 219.277 31.816C220.237 31.816 220.893 31.96 221.549 32.168V31.96C221.549 30.744 220.813 30.12 219.453 30.12C218.493 30.12 217.805 30.328 217.037 30.648L216.509 29.128C217.453 28.728 218.365 28.44 219.709 28.44C220.973 28.44 221.901 28.76 222.509 29.384C223.133 30.008 223.421 30.888 223.421 31.992V37H221.533V35.944C220.957 36.632 220.077 37.176 218.781 37.176ZM219.325 35.768C220.605 35.768 221.581 35.048 221.581 33.96V33.384C221.085 33.192 220.429 33.048 219.661 33.048C218.397 33.048 217.677 33.56 217.677 34.456V34.488C217.677 35.304 218.381 35.768 219.325 35.768ZM225.723 37V28.552H227.675V29.832C228.219 29.08 228.955 28.376 230.251 28.376C231.467 28.376 232.331 28.968 232.779 29.864C233.467 28.968 234.347 28.376 235.627 28.376C237.483 28.376 238.587 29.544 238.587 31.608V37H236.651V32.2C236.651 30.856 236.027 30.136 234.939 30.136C233.867 30.136 233.131 30.872 233.131 32.232V37H231.195V32.184C231.195 30.856 230.571 30.136 229.483 30.136C228.395 30.136 227.675 30.936 227.675 32.232V37H225.723Z" fill="white"/>
<g clipPath="url(#clip0_852_1004)">
<path fill-rule="evenodd" clip-rule="evenodd" d="M43 33C43 38.5228 38.5228 43 33 43C27.4772 43 23 38.5228 23 33C23 27.4772 27.4772 23 33 23C38.5228 23 43 27.4772 43 33ZM33.3583 30.3824C32.3856 30.787 30.4417 31.6243 27.5265 32.8944C27.0531 33.0827 26.8051 33.2668 26.7826 33.4469C26.7444 33.7513 27.1255 33.8711 27.6445 34.0343C27.7151 34.0565 27.7882 34.0795 27.8632 34.1038C28.3738 34.2698 29.0606 34.464 29.4177 34.4717C29.7415 34.4787 30.103 34.3452 30.5021 34.0711C33.2259 32.2325 34.6319 31.3032 34.7202 31.2831C34.7824 31.269 34.8687 31.2512 34.9272 31.3032C34.9857 31.3552 34.9799 31.4536 34.9737 31.48C34.936 31.641 33.44 33.0317 32.6659 33.7515C32.4245 33.9759 32.2533 34.135 32.2183 34.1714C32.1399 34.2528 32.06 34.3298 31.9832 34.4038C31.5089 34.8611 31.1532 35.204 32.0029 35.764C32.4113 36.0331 32.738 36.2556 33.064 36.4776C33.4201 36.7201 33.7752 36.9619 34.2346 37.2631C34.3516 37.3398 34.4634 37.4195 34.5723 37.4971C34.9866 37.7925 35.3589 38.0578 35.8187 38.0155C36.0859 37.9909 36.362 37.7397 36.5021 36.9903C36.8334 35.2193 37.4846 31.382 37.6351 29.8008C37.6483 29.6623 37.6317 29.485 37.6184 29.4071C37.6051 29.3293 37.5772 29.2184 37.4761 29.1363C37.3562 29.0391 37.1713 29.0186 37.0885 29.0201C36.7124 29.0267 36.1354 29.2274 33.3583 30.3824Z" fill="white"/>
</g>
<defs>
<clipPath id="clip0_852_1004">
<rect width="20" height="20" fill="white" transform="translate(23 23)"/>
</clipPath>
</defs>
</svg>
