<svg width="50" height="50" viewBox="0 0 50 50" fill="none" xmlns="http://www.w3.org/2000/svg">
<g clipPath="url(#clip0_332_8383)">
<path d="M24.9754 0.00227488C11.1132 0.0718752 -0.059433 11.296 0.000237908 25.091C0.0599089 38.8151 11.3477 50.0591 25.0052 50.0009C28.3026 49.9974 31.5669 49.3425 34.6104 48.0739C37.6539 46.8052 40.4166 44.9478 42.74 42.6084C45.0633 40.269 46.9013 37.4937 48.1485 34.4419C49.3957 31.3901 50.0274 28.1221 50.0073 24.8254C49.9534 11.1639 38.6315 -0.0673254 24.9754 0.00227488ZM25.0876 45.4555C13.6521 45.4143 4.48692 36.2683 4.5537 24.949C4.62047 13.6297 13.8098 4.51351 25.1061 4.56181C36.4251 4.6101 45.4951 13.8115 45.451 25.2018C45.407 36.2924 36.1608 45.4882 25.0876 45.4555Z" fill="#9B3D30"/>
<path d="M31.8905 34.0583C31.5456 34.063 31.2037 33.995 30.8869 33.8587C30.5701 33.7224 30.2856 33.5208 30.052 33.2672C28.4892 31.6933 26.9079 30.1351 25.3551 28.5514C25.0709 28.2673 24.9289 28.2673 24.6546 28.5514C23.0634 30.1716 21.4575 31.7786 19.8369 33.3723C18.537 34.6435 16.4811 34.135 16.0009 32.4348C15.7523 31.5399 16.0095 30.763 16.6715 30.1067C18.2585 28.5301 19.8284 26.9378 21.4253 25.3711C21.718 25.087 21.7322 24.9307 21.4253 24.6353C19.8151 23.0567 18.2197 21.464 16.6388 19.857C15.336 18.5261 15.9171 16.4324 17.6916 16.0063C18.5611 15.7989 19.2928 16.0858 19.9137 16.708C21.4679 18.2704 23.0393 19.8073 24.5737 21.3868C24.9288 21.7518 25.1064 21.6936 25.4261 21.3669C26.979 19.7832 28.5517 18.2193 30.1273 16.6554C30.7681 16.0176 31.5353 15.7833 32.4175 16.0432C32.8161 16.147 33.1767 16.3626 33.4566 16.6646C33.7366 16.9667 33.9242 17.3425 33.9974 17.7477C34.1835 18.5999 33.9008 19.3102 33.287 19.9209C31.7029 21.5004 30.1316 23.0913 28.5332 24.6566C28.2491 24.9407 28.2633 25.0827 28.5418 25.3554C30.152 26.9359 31.747 28.5291 33.3268 30.1351C34.6353 31.4718 34.0727 33.5441 32.2982 33.993C32.1635 34.0217 32.0274 34.0435 31.8905 34.0583Z" fill="#9B3D30"/>
</g>
<defs>
<clipPath id="clip0_332_8383">
<rect width="50" height="50" fill="white"/>
</clipPath>
</defs>
</svg>
