<svg width="20" height="20" viewBox="0 0 20 20" fill="none" xmlns="http://www.w3.org/2000/svg">
<path d="M0 20C0.214958 19.214 0.419482 18.4677 0.62317 17.721C0.869016 16.8203 1.11778 15.92 1.35612 15.0171C1.37941 14.92 1.3682 14.8177 1.32439 14.7279C0.364385 12.9848 -0.0530091 11.1157 0.113949 9.14063C0.353116 6.3132 1.59612 3.99081 3.7912 2.19059C5.01206 1.18518 6.4645 0.500279 8.0169 0.197945C12.655 -0.724498 17.1161 1.64881 19.0274 5.82193C19.7407 7.38173 20.0112 9.02209 19.8784 10.7246C19.5449 15.0067 16.3781 18.6514 12.185 19.5864C9.8213 20.1131 7.56027 19.8038 5.40192 18.7098C5.30563 18.6653 5.19723 18.6541 5.09388 18.6781C3.47982 19.0955 1.86742 19.5179 0.255028 19.9399C0.183236 19.9574 0.111027 19.9733 0 20ZM2.39418 17.6325C2.48934 17.6096 2.56113 17.5933 2.63251 17.5745C3.50904 17.3454 4.38557 17.1208 5.26209 16.8821C5.43907 16.8341 5.57305 16.8612 5.72749 16.9526C7.6379 18.0846 9.68105 18.4197 11.8494 17.9318C16.4825 16.8883 19.2878 12.0048 17.8599 7.47857C16.5589 3.35554 12.4421 0.967204 8.20723 1.88547C4.71447 2.64471 1.94715 5.70339 1.77268 9.5622C1.70047 11.1575 2.05066 12.6685 2.88545 14.0333C3.14966 14.4653 3.19599 14.8264 3.04114 15.2964C2.79195 16.0552 2.6108 16.837 2.39418 17.6325Z" fill="#232323"/>
<path d="M4.93958 7.68235C4.95418 6.85424 5.27766 6.17305 5.86243 5.60498C5.9474 5.51767 6.04923 5.44856 6.16174 5.40185C6.27425 5.35514 6.39509 5.3318 6.51691 5.33326C6.6559 5.33326 6.79614 5.35413 6.9343 5.34035C7.22648 5.31155 7.39343 5.45513 7.4957 5.70348C7.77034 6.3613 8.05417 7.01577 8.30961 7.6811C8.35595 7.80173 8.32881 7.99457 8.25953 8.10684C8.07149 8.39748 7.86574 8.67627 7.64345 8.94163C7.51072 9.10609 7.49987 9.25218 7.60714 9.43249C8.41563 10.7899 9.53967 11.777 11.0135 12.3593C11.213 12.4382 11.3758 12.4068 11.5123 12.234C11.7577 11.9243 12.0132 11.623 12.2527 11.3078C12.3905 11.1254 12.5516 11.0574 12.7561 11.1517C13.4657 11.4857 14.1702 11.8196 14.8702 12.1698C14.9437 12.2065 15.0117 12.3309 15.0146 12.4173C15.043 13.154 14.8289 13.7709 14.1723 14.2004C13.3551 14.7347 12.4969 14.7814 11.5845 14.5251C9.24416 13.8681 7.50613 12.4048 6.11078 10.4731C5.65165 9.83444 5.22841 9.17663 5.04977 8.39693C4.99384 8.16444 4.97464 7.92152 4.93958 7.68235Z" fill="#232323"/>
</svg>
