<svg width="40" height="34" viewBox="0 0 40 34" fill="none" xmlns="http://www.w3.org/2000/svg">
<g clipPath="url(#clip0_4785_16698)">
<path d="M39.9998 17.5226V16.5469C39.9227 16.1346 39.8956 15.7184 39.6621 15.3351C39.3111 14.7148 38.7686 14.2142 38.1091 13.9021C37.8068 13.762 37.6994 13.5478 37.6922 13.2486C37.6409 12.1614 37.459 11.0835 37.1501 10.0363C36.0755 6.27769 33.6678 3.58078 30.0384 1.89659C27.2137 0.585665 24.1795 0.128346 21.0745 0.0172672C19.7248 -0.0250762 18.3737 0.0197196 17.0303 0.151358C14.4068 0.397532 11.8875 0.97494 9.53288 2.15277C6.70299 3.57778 4.65066 5.67526 3.44679 8.52727C2.81967 10.0269 2.45787 11.6165 2.37633 13.2306C2.36278 13.4868 2.32525 13.7189 2.03445 13.849C-0.143999 14.8267 -0.48171 17.3775 0.585623 18.9236C0.74614 19.1568 0.745098 19.3469 0.585623 19.5721C0.261557 20.0283 0.0714534 20.56 0.0352796 21.1112C-0.114814 22.7713 0.683601 24.0032 1.9938 24.5916C2.25959 24.7107 2.37111 24.8918 2.41072 25.166C2.58352 26.3958 3.00033 27.5824 3.63857 28.6615C5.70653 32.0719 8.81472 33.8812 12.8985 33.9572C17.393 34.0423 21.8906 33.9772 26.3872 33.9762C26.9974 33.9892 27.6079 33.9672 28.2154 33.9102C31.612 33.5099 34.2445 31.9348 36.113 29.1849C36.9434 27.9518 37.4774 26.5568 37.6765 25.101C37.7057 24.9008 37.7807 24.7537 37.9788 24.6597C39.0993 24.1333 39.8247 23.3137 40.003 22.0959V21.0451C39.9725 20.4751 39.7688 19.9262 39.4172 19.466C39.3613 19.4048 39.3304 19.3262 39.3304 19.2448C39.3304 19.1635 39.3613 19.0848 39.4172 19.0237C39.7538 18.5855 39.9557 18.0655 39.9998 17.5226ZM4.81222 13.2446C5.07385 10.2885 6.10157 7.67467 8.46867 5.66726C10.1645 4.22924 12.1804 3.39165 14.3651 2.94333C18.5739 2.07972 22.7745 2.09873 26.926 3.26055C29.4036 3.95404 31.5331 5.19192 33.0882 7.22836C34.2765 8.78446 34.8935 10.5547 35.1624 12.45C35.201 12.7212 35.1968 13.0004 35.2542 13.2686C35.3209 13.5848 35.1833 13.6239 34.8967 13.6239C29.931 13.6159 24.9658 13.6139 20.0009 13.6179C15.0624 13.6179 10.1235 13.6205 5.18433 13.6259C4.85913 13.6269 4.78408 13.5648 4.81222 13.2446ZM35.1812 25.138C34.6361 27.7819 33.0788 29.6812 30.5783 30.866C29.4622 31.3819 28.2365 31.6416 26.998 31.6246C22.359 31.6246 17.7189 31.6246 13.0778 31.6246C8.90853 31.6176 5.56374 28.8866 4.84349 24.8828C5.3042 24.8828 5.7451 24.8678 6.18496 24.8878C6.53995 24.9081 6.87289 25.0599 7.11366 25.3111C7.31379 25.5113 7.51912 25.7004 7.70778 25.9115C9.20142 27.5377 12.1814 27.5787 13.6907 25.8435C13.7949 25.7184 13.919 25.6033 14.0326 25.4842C14.8393 24.6426 15.8889 24.6457 16.6988 25.4983C17.22 26.0436 17.7411 26.576 18.4812 26.8572C19.2318 27.1497 20.0563 27.2203 20.8489 27.0598C21.6415 26.8993 22.3662 26.5152 22.9298 25.9566C23.0541 25.8464 23.1691 25.7269 23.2738 25.5993C24.0034 24.5986 25.4355 24.6537 26.1641 25.5863C26.7019 26.2738 27.3972 26.8032 28.3071 26.9963C29.8477 27.3245 31.2194 27.0604 32.3336 25.9135C32.3627 25.8884 32.3896 25.861 32.4138 25.8315C33.0392 24.8708 34.0128 24.7978 35.052 24.8688C35.3209 24.8848 35.2052 25.0279 35.1812 25.138ZM37.6557 21.5965C37.629 21.8723 37.4973 22.129 37.2857 22.3174C37.0741 22.5057 36.7976 22.6125 36.5091 22.6172C35.7555 22.6312 35.0009 22.6392 34.2483 22.6172C32.9131 22.5782 31.8176 23.0375 30.9567 24.0182C30.84 24.1523 30.7138 24.2794 30.5877 24.4045C30.4333 24.556 30.249 24.6765 30.0457 24.7591C29.8424 24.8417 29.624 24.8847 29.4032 24.8856C29.1824 24.8866 28.9636 24.8454 28.7596 24.7645C28.5555 24.6836 28.3702 24.5647 28.2144 24.4145C27.9673 24.1743 27.7411 23.9141 27.492 23.679C26.7467 22.9878 25.751 22.6014 24.7148 22.6014C23.6785 22.6014 22.6828 22.9878 21.9375 23.679C21.7155 23.8891 21.5091 24.1143 21.2954 24.3324C20.5783 25.0649 19.5037 25.0709 18.7939 24.3434C18.624 24.1713 18.4614 23.9922 18.2894 23.8221C16.6394 22.1829 14.0847 22.1849 12.4326 23.8221C12.27 23.9842 12.1147 24.1523 11.9542 24.3164C11.2246 25.0619 10.0989 25.117 9.42135 24.3364C8.2748 23.0085 6.84996 22.4611 5.08948 22.6092C4.65066 22.6462 4.20664 22.6162 3.76469 22.6152C2.9496 22.6152 2.40968 22.1579 2.41698 21.4784C2.42427 20.7989 2.95585 20.3646 3.74802 20.3646H20.0332C25.4387 20.3646 30.8441 20.3646 36.2496 20.3646C36.4178 20.357 36.5864 20.3681 36.752 20.3976C37.028 20.4591 37.2715 20.6143 37.4375 20.8347C37.6036 21.055 37.6811 21.3256 37.6557 21.5965ZM37.6557 17.1333C37.6174 17.3952 37.4859 17.6362 37.2836 17.8155C37.0812 17.9948 36.8205 18.1014 36.5456 18.117C36.4414 18.123 36.3371 18.117 36.2329 18.117C25.4345 18.117 14.6361 18.117 3.83766 18.117C3.64345 18.1313 3.44812 18.1154 3.25917 18.07C2.98707 18.0002 2.75045 17.8383 2.59301 17.6141C2.43557 17.3899 2.36795 17.1186 2.40263 16.8502C2.43732 16.5819 2.57196 16.3347 2.7817 16.1542C2.99144 15.9738 3.26211 15.8723 3.54372 15.8685C3.92 15.8544 4.29732 15.8685 4.6736 15.8685H36.2558C36.4501 15.8551 36.6453 15.8734 36.8333 15.9225C37.095 16.0016 37.3199 16.1658 37.4694 16.3867C37.6189 16.6076 37.6836 16.8716 37.6525 17.1333H37.6557Z" fill="#b92b1a"/>
<path d="M22.37 9.11646C22.6022 9.11745 22.8295 9.05214 23.023 8.92884C23.2165 8.80554 23.3675 8.62981 23.4568 8.42396C23.546 8.21811 23.5695 7.99143 23.5243 7.77272C23.4791 7.55401 23.3672 7.35314 23.2029 7.19562C23.0385 7.03809 22.8291 6.93102 22.6012 6.88801C22.3733 6.845 22.1372 6.86798 21.923 6.95404C21.7087 7.0401 21.526 7.18535 21.3979 7.37135C21.2698 7.55735 21.2022 7.77571 21.2036 7.99867C21.2082 8.2941 21.3326 8.57616 21.5504 8.7849C21.7683 8.99364 22.0623 9.11259 22.37 9.11646Z" fill="#b92b1a"/>
<path d="M13.0144 11.366C13.2451 11.366 13.4705 11.3006 13.6626 11.178C13.8547 11.0555 14.0048 10.8812 14.0942 10.6771C14.1836 10.4729 14.2082 10.248 14.165 10.0305C14.1218 9.81299 14.0126 9.61257 13.8513 9.45435C13.6899 9.29613 13.4835 9.18715 13.2579 9.14108C13.0323 9.095 12.7976 9.11388 12.5831 9.19534C12.3687 9.2768 12.184 9.41722 12.0523 9.59901C11.9207 9.78079 11.8478 9.99585 11.8429 10.2172C11.8411 10.3666 11.87 10.5148 11.9279 10.6533C11.9858 10.7919 12.0717 10.9182 12.1805 11.0249C12.2893 11.1316 12.419 11.2167 12.5621 11.2752C12.7052 11.3337 12.8589 11.3646 13.0144 11.366Z" fill="#b92b1a"/>
<path d="M27.0481 11.366C27.2803 11.3674 27.5077 11.3025 27.7015 11.1795C27.8952 11.0566 28.0465 10.8811 28.1361 10.6754C28.2258 10.4697 28.2497 10.2431 28.2049 10.0243C28.1601 9.80549 28.0486 9.60442 27.8845 9.44661C27.7204 9.28881 27.5112 9.18138 27.2834 9.13797C27.0556 9.09457 26.8195 9.11715 26.6051 9.20284C26.3907 9.28853 26.2077 9.43347 26.0792 9.61925C25.9508 9.80503 25.8828 10.0233 25.8838 10.2462C25.8881 10.5416 26.0121 10.8237 26.2294 11.0328C26.4468 11.2418 26.7404 11.3614 27.0481 11.366Z" fill="#b92b1a"/>
</g>
<defs>
<clipPath id="clip0_4785_16698">
<rect width="40" height="34" fill="white"/>
</clipPath>
</defs>
</svg>
