<svg width="48" height="58" viewBox="0 0 48 58" fill="none" xmlns="http://www.w3.org/2000/svg">
<g clipPath="url(#clip0_560_3464)">
<g filter="url(#filter0_d_560_3464)">
<path d="M45.3139 24.5385C45.3139 36.2708 36.0436 45.7308 24.5465 45.7308C13.0949 45.7308 3.77905 36.2708 3.77905 24.5385C3.77905 12.8526 13.0949 3.34616 24.5465 3.34616C36.0436 3.34616 45.3139 12.8526 45.3139 24.5385Z" fill="#8B8F90"/>
<path d="M44.8594 24.5385C44.8594 35.9925 35.7708 45.2671 24.5464 45.2671C13.322 45.2671 4.2334 35.9925 4.2334 24.5385C4.2334 13.0844 13.322 3.80991 24.5464 3.80991C35.7708 3.80991 44.8594 13.0844 44.8594 24.5385Z" fill="url(#paint0_linear_560_3464)"/>
<path d="M39.4519 24.5385C39.4519 32.9319 32.7718 39.7487 24.5467 39.7487C16.3215 39.7487 9.64136 32.9319 9.64136 24.5385C9.64136 16.145 16.3215 9.32822 24.5467 9.32822C32.7718 9.32822 39.4519 16.145 39.4519 24.5385Z" fill="url(#paint1_linear_560_3464)"/>
<path d="M41.1333 19.994C42.542 19.5302 43.0874 18.6955 43.1328 17.8144C40.4517 9.97746 33.1808 4.36636 24.5921 4.36636C13.7312 4.36636 4.96069 13.3627 4.96069 24.3994C4.96069 27.7846 5.77867 31.0306 7.27829 33.813C9.23233 34.9723 14.0493 31.5871 21.5019 27.3672C29.6817 22.7763 38.5431 20.8287 41.1333 19.994Z" fill="white"/>
<path d="M39.4519 24.3066C39.4519 32.7001 32.7718 39.5169 24.5467 39.5169C16.3215 39.5169 9.64136 32.7001 9.64136 24.3066C9.64136 15.9132 16.3215 9.09641 24.5467 9.09641C32.7718 9.09641 39.4519 15.9132 39.4519 24.3066Z" fill="url(#paint2_linear_560_3464)"/>
<path d="M37.8613 24.5385C37.8613 32.0509 31.9082 38.1257 24.5465 38.1257C17.1847 38.1257 11.2317 32.0509 11.2317 24.5385C11.2317 17.0261 17.1847 10.9513 24.5465 10.9513C31.9082 10.9977 37.8613 17.0725 37.8613 24.5385Z" fill="url(#paint3_linear_560_3464)"/>
<path d="M35.3164 21.5706C36.2252 21.246 36.5888 20.7359 36.5888 20.1794C34.862 15.0784 30.0904 11.415 24.501 11.415C17.4119 11.415 11.686 17.258 11.686 24.4457C11.686 26.6716 12.2314 28.7584 13.1857 30.5669C14.4581 31.3089 17.5936 29.083 22.5015 26.347C27.8183 23.4255 33.635 22.1271 35.3164 21.5706Z" fill="white"/>
<path d="M42.3603 27.7845C41.9513 26.6716 41.4969 24.9094 38.9975 24.6775C36.0437 24.3993 29.9543 25.7441 26.637 26.7643C20.5022 28.712 14.4128 32.1899 12.2316 34.0912C10.9137 35.2041 10.6865 36.9199 11.5954 38.2647C12.5042 39.6095 14.4128 39.3777 15.4126 40.8152C16.4123 42.2528 18.1392 42.6701 20.2295 42.6701C22.3199 42.6701 22.638 42.8556 24.7738 43.5976C26.9097 44.3396 30.5905 43.1802 31.7266 42.4847C32.8172 41.7891 34.7259 41.3717 36.7708 40.0269C38.7703 38.6821 37.9977 36.0388 39.4065 35.2969C40.8152 34.6013 41.7241 33.6738 42.0422 31.7262C42.2239 29.7322 43.2237 30.2423 42.3603 27.7845Z" fill="url(#paint4_radial_560_3464)"/>
<path d="M11.9135 33.0247C14.0948 31.1234 20.1841 27.6454 26.3189 25.6978C29.6363 24.6312 35.6802 23.3328 38.6794 23.611C41.2242 23.8429 41.6332 25.605 42.0422 26.718C42.951 29.1757 41.9513 28.6656 41.6332 30.6133C41.3151 32.5609 40.4062 33.4884 38.9975 34.184C37.5888 34.8796 38.4068 37.5692 36.3618 38.914C34.3623 40.2588 32.4537 40.6762 31.3176 41.3717C30.227 42.0673 26.5007 43.2267 24.3649 42.4847C22.2745 41.7891 21.9564 41.5572 19.8206 41.5572C17.7302 41.5572 16.0034 41.1399 15.0036 39.7023C14.0039 38.2648 12.0953 38.4503 11.1864 37.1518C10.3684 35.8534 10.5957 34.1376 11.9135 33.0247Z" fill="url(#paint5_linear_560_3464)"/>
<path d="M27.2734 26.3006C28.2277 26.2542 28.9093 25.234 29.7273 25.6977C30.5453 26.1615 31.1815 24.6312 31.9994 24.9094C32.8174 25.1876 33.2718 25.4659 33.6354 24.7703C33.9989 24.1211 35.5894 23.7965 35.1804 24.5384C34.7715 25.2804 36.0439 25.1413 37.1345 24.4921C38.1797 23.8428 38.725 24.1211 39.3612 24.6312C39.9974 25.0949 41.088 24.8167 40.9517 25.8369C40.8154 26.8571 40.2246 26.8571 40.7699 27.4599C41.3152 28.0628 41.1789 28.712 40.5427 28.8511C39.9065 28.9902 39.134 29.6394 39.9065 29.8713C40.679 30.1031 40.1792 31.7726 39.6339 31.3088C39.0431 30.8451 38.4069 31.5871 38.4978 32.1435C38.6341 32.7 38.2706 32.8855 37.498 33.442C36.7255 34.0448 36.5437 34.5086 36.8618 35.065C37.1345 35.6215 37.0436 36.5026 36.4528 36.6417C35.8621 36.7808 35.0896 37.2445 35.6803 37.5228C36.2711 37.801 35.4985 38.7285 34.4079 38.4039C33.2718 38.1256 33.6808 38.1256 32.4539 39.0067C31.2269 39.8878 31.3178 38.5893 30.6816 39.1922C30.0454 39.795 30.0454 40.8616 29.0911 40.4443C28.1368 40.0269 27.7278 40.0733 27.137 40.3051C26.5463 40.537 25.592 41.7427 24.8649 41.1398C24.0924 40.537 26.001 40.2588 25.1375 39.6559C24.3196 39.0531 24.0015 39.4241 23.7288 40.0269C23.4562 40.6297 22.5927 40.3051 22.1383 40.0269C21.6839 39.7487 21.184 39.795 20.5932 40.2124C20.0025 40.6297 19.7753 40.2124 19.3208 39.795C18.8664 39.3777 17.8667 40.537 17.3214 39.9342C16.776 39.3313 15.8672 39.6559 16.1398 38.4502C16.4125 37.2445 16.0944 36.8736 15.4127 37.059C14.7765 37.2445 14.1403 37.801 13.4133 37.1054C12.6862 36.4562 14.004 35.8534 13.3678 35.3433C12.7316 34.8795 12.5498 36.549 12.0045 35.7142C11.4592 34.8795 12.1863 33.2101 13.0043 33.3956C13.8222 33.5811 14.7765 33.1637 14.5948 32.4218C14.413 31.6798 15.3673 30.9842 16.2307 30.9379C17.0941 30.8915 17.4122 30.1031 18.2757 30.0568C19.1391 30.0104 19.5026 30.0568 20.1388 29.2221C20.775 28.3874 21.5021 28.0164 21.7293 28.5729C21.9565 29.1293 22.5927 28.4337 22.9563 27.7845C23.3198 27.1353 24.5013 27.0426 25.1375 27.1817C25.8646 27.2744 26.3645 26.347 27.2734 26.3006Z" fill="url(#paint6_radial_560_3464)"/>
<path d="M31.1359 29.2221C32.3628 28.712 32.0447 28.2946 33.7261 28.3874C35.4075 28.4801 34.6804 27.4599 35.4075 26.4861C36.1346 25.5123 34.5895 25.5123 33.6352 26.0687C32.6809 26.6252 31.6358 25.7905 30.7269 26.5788C29.2727 27.8309 30.4997 27.7382 28.9546 28.4801C27.4096 29.2221 29.9544 29.6858 31.1359 29.2221ZM38.9975 25.4195C37.9523 25.4195 37.0435 25.8369 37.3616 26.9962C37.6797 28.1555 37.5433 28.712 35.9983 28.8975C34.4532 29.083 33.817 29.3148 33.1808 30.4741C32.5446 31.6335 32.7718 32.4682 34.3169 31.7262C35.862 30.9842 36.8163 29.8249 37.3161 30.4741C37.816 31.1234 38.8612 30.5669 38.7703 29.5003C38.6794 28.4337 38.6794 27.7845 39.4974 27.0889C40.3154 26.3934 40.6335 25.4195 38.9975 25.4195ZM22.0473 31.5407C24.0013 30.7988 23.5923 32.7928 25.4555 33.1174C27.3187 33.442 27.1369 31.8653 29.3636 32.4682C31.5449 33.0246 31.4085 30.6596 29.8635 30.7988C28.3184 30.9842 25.9554 30.6133 27.046 30.0568C28.0912 29.5003 26.8642 28.9902 25.3646 28.4801C23.8196 27.97 23.3197 30.5205 22.1836 30.1959C21.2748 29.964 21.0475 29.8713 19.9115 30.8451C18.7299 31.8653 20.1387 32.2827 22.0473 31.5407ZM24.0013 34.5086C24.9102 33.5811 23.456 33.0246 22.3654 33.5811C21.3202 34.1376 20.9112 32.7464 19.2753 33.5811C17.6393 34.4158 18.7299 32.6073 17.094 32.0972C15.4581 31.5871 15.867 34.0448 15.0036 34.184C13.6858 34.3695 14.1857 36.178 15.4126 35.7606C16.6396 35.3433 17.1849 35.3433 17.0486 36.9199C16.8668 38.4966 18.73 36.5026 20.2296 35.3433C21.6383 34.184 23.1379 35.3896 24.0013 34.5086ZM28.4093 34.0912C26.3644 34.7404 27.0915 34.7404 26.228 35.9925C25.3192 37.2446 22.9107 37.9865 23.0016 36.4098C23.0925 34.8332 20.4113 36.8736 19.7751 37.9865C19.1389 39.0531 19.5479 38.9603 20.4113 38.7285C21.3202 38.4966 22.0927 39.6559 23.0925 38.914C24.0468 38.172 26.0917 38.2648 27.1369 36.9199C28.1821 35.5751 29.7272 35.8534 30.4542 35.0187C31.1359 34.184 30.4088 33.442 28.4093 34.0912ZM33.408 33.7666C32.272 34.0912 32.8627 34.6013 32.0902 35.3433C31.3631 36.0852 31.1359 36.8272 29.1818 37.1518C27.2278 37.4764 27.864 38.6357 29.3636 38.6357C30.8178 38.6357 31.6358 37.7083 32.1356 36.8272C32.6355 35.8997 33.7716 36.178 35.044 35.0187C36.3164 33.8594 34.7713 33.3493 33.408 33.7666Z" fill="url(#paint7_radial_560_3464)"/>
<path opacity="0.66" d="M37.4977 19.6693C37.4977 18.6955 37.1341 17.6753 36.3616 16.887C37.3613 15.7277 36.9978 13.6409 35.5436 12.2033C34.9529 11.6005 34.2258 11.1831 33.5441 10.9976C33.4533 10.5339 33.226 10.0702 32.9079 9.69921C32.8625 9.65284 32.7716 9.56009 32.7262 9.51372C32.6807 9.42097 32.6353 9.3746 32.5444 9.28185C31.9991 8.63264 31.1811 8.26166 30.3631 8.21528C29.9087 7.75156 29.3179 7.42695 28.6817 7.14871C28.5 7.65881 28.3182 8.16891 28.1364 8.72538C28.0455 8.58627 28.0001 8.44715 27.9546 8.40077L27.9092 8.3544C27.0912 7.05597 25.0463 6.87048 23.2286 7.89067C22.2288 8.49352 21.5017 9.32823 21.1836 10.2093C21.0928 10.1166 21.0473 10.0238 20.9564 9.93107C18.9115 11.6469 18.6388 14.7538 20.3202 16.7942C20.911 17.5362 21.6835 18.0463 22.5015 18.3245C22.5015 18.3245 22.5015 18.3245 22.5469 18.3709C23.3649 19.1592 24.3647 19.5302 25.319 19.4838C24.91 21.2924 25.4553 23.0082 26.6822 23.611C26.7731 23.6574 26.864 23.7038 26.9549 23.7501C27.0458 23.7965 27.8638 24.0284 27.9546 24.0747C29.2725 24.5385 30.7721 23.7501 31.6355 22.3589C31.9991 22.6836 32.4535 22.9618 32.9079 23.1473C35.3619 24.1675 38.1339 22.9154 39.1336 20.4113C38.6792 20.1331 38.1339 19.9012 37.4977 19.6693Z" fill="url(#paint8_radial_560_3464)"/>
<path d="M38.952 19.4374C37.9523 21.9416 35.1803 23.1473 32.7264 22.1734C30.2724 21.1532 29.0909 18.3245 30.0452 15.8204C32.4537 16.7942 36.2709 18.3245 38.952 19.4374Z" fill="#E6301B"/>
<path d="M38.7251 19.3447C37.7708 21.7561 35.1351 22.9154 32.772 21.9415C30.409 20.9677 29.2729 18.2781 30.2272 15.8667C32.5448 16.8406 36.1803 18.3245 38.7251 19.3447Z" fill="#EE6F4B"/>
<path d="M37.8161 19.0665C37.089 20.9677 34.9532 21.8952 33.09 21.1532C31.2269 20.4113 30.318 18.2318 31.0451 16.3305C32.9083 17.0261 35.7712 18.2318 37.8161 19.0665Z" fill="#E52913"/>
<path d="M34.2713 19.6693C34.2259 19.9012 34.3622 20.133 34.5894 20.1794C34.8166 20.2258 35.0438 20.0867 35.0893 19.8548C35.1347 19.6229 34.9984 19.1128 34.8166 19.0665C34.7712 19.0665 34.3622 19.4375 34.2713 19.6693ZM32.908 18.9737C32.7717 19.2056 32.8626 19.4375 33.0444 19.5766C33.2261 19.7157 33.4988 19.6229 33.6351 19.3911C33.7714 19.1592 33.726 18.6491 33.6351 18.5564C33.4533 18.51 32.9989 18.7419 32.908 18.9737ZM31.8174 18.1854C31.9083 18.4173 32.1809 18.4636 32.4082 18.3709C32.6354 18.2781 32.8626 17.768 32.8171 17.6753C32.7263 17.5362 32.2264 17.4898 31.9992 17.6289C31.8174 17.7217 31.7265 17.9999 31.8174 18.1854ZM35.8618 19.7621C35.9527 19.9939 36.1799 20.133 36.4071 20.0403C36.6344 19.9476 36.7252 19.7157 36.6798 19.4838C36.5889 19.252 36.2254 18.9274 36.0436 18.9737C35.9073 19.0201 35.7709 19.5302 35.8618 19.7621Z" fill="#E86A0A"/>
<path d="M32.9536 19.1129C32.9082 19.1592 32.9082 19.2056 32.9082 19.252C32.9082 19.2984 32.9536 19.3911 32.9991 19.3911C33.0445 19.4375 33.09 19.4375 33.1809 19.3911C33.2263 19.3911 33.2717 19.3447 33.3172 19.2984C33.3626 19.252 33.3626 19.0201 33.3626 18.8346V18.7883C33.2263 18.881 32.9991 19.0201 32.9536 19.1129ZM34.4078 19.8085C34.4078 19.8548 34.4078 19.8548 34.4078 19.9012C34.4078 19.994 34.4987 20.0867 34.5896 20.0867C34.635 20.0867 34.6805 20.0867 34.7259 20.0403C34.7714 19.994 34.8168 19.9476 34.8168 19.9012C34.8168 19.9012 34.8168 19.8548 34.8168 19.7621C34.8168 19.623 34.7714 19.4839 34.7259 19.4375C34.5896 19.4839 34.4078 19.6693 34.4078 19.8085ZM31.9085 18.0927V18.1391C31.9539 18.2318 32.0902 18.2782 32.2266 18.2318C32.3174 18.1854 32.4538 17.9536 32.4992 17.8144C32.3629 17.7681 32.1357 17.7681 31.9993 17.8144C31.9085 17.9072 31.863 17.9999 31.9085 18.0927ZM35.9529 19.7621C35.9529 19.8085 35.9983 19.8548 36.0892 19.9012C36.1346 19.9476 36.1801 19.9476 36.271 19.9012C36.3619 19.8548 36.4073 19.7621 36.4073 19.6693V19.623C36.3619 19.4839 36.1801 19.3447 36.0892 19.252C35.9529 19.3911 35.9074 19.623 35.9529 19.7621C35.9529 19.7621 35.9074 19.7621 35.9529 19.7621Z" fill="#FAB515"/>
<path d="M33.1355 17.3043C33.2264 17.4898 33.3627 17.7217 33.2264 17.9999C33.09 18.2781 33.4081 18.1854 33.7262 18.3709C34.0443 18.5564 34.1352 18.7882 34.1807 19.0201C34.2261 19.2056 34.4079 18.881 34.8169 18.9274C35.2259 18.9274 35.4531 19.3911 35.544 19.2056C35.6348 19.0201 35.9075 18.7419 36.2256 18.7419C36.5891 18.7419 36.271 18.5564 35.9529 18.4173C35.6348 18.2781 33.6353 17.4898 33.4536 17.3971C33.2264 17.2579 33.0446 17.1652 33.1355 17.3043Z" fill="#F6A984"/>
<path d="M26.8187 16.4696C24.7738 18.1854 21.7746 17.9072 20.0932 15.8204C18.4118 13.7337 18.6844 10.6731 20.7294 8.95728C22.3653 10.9977 25.001 14.2438 26.8187 16.4696Z" fill="#E6301B"/>
<path d="M26.6824 16.2841C24.7283 17.9072 21.8654 17.6753 20.2295 15.6813C18.639 13.6872 18.8662 10.7658 20.8202 9.09634C22.4107 11.0904 24.9101 14.151 26.6824 16.2841Z" fill="#EE6F4B"/>
<path d="M26.0008 15.5885C24.4557 16.887 22.1381 16.7015 20.8657 15.1248C19.5933 13.5481 19.7751 11.1831 21.3202 9.8847C22.638 11.4614 24.6375 13.9191 26.0008 15.5885Z" fill="#E52913"/>
<path d="M22.638 14.4292C22.4563 14.6147 22.5017 14.893 22.6835 15.0321C22.8653 15.1712 23.1379 15.1712 23.2742 14.9857C23.456 14.8002 23.5015 14.2901 23.4106 14.1974C23.3197 14.151 22.7744 14.2437 22.638 14.4292ZM21.7292 13.1308C21.502 13.2699 21.4565 13.5018 21.5474 13.7336C21.6837 13.9191 21.911 14.0119 22.1382 13.8728C22.3654 13.7336 22.5472 13.2235 22.5017 13.1308C22.4563 12.9917 21.911 12.9917 21.7292 13.1308ZM21.1384 11.9715C21.1384 12.2033 21.3202 12.3888 21.5474 12.3888C21.7746 12.3888 22.2291 12.0642 22.2291 11.9715C22.2291 11.8324 21.7746 11.5541 21.5474 11.5541C21.3656 11.5078 21.1384 11.6932 21.1384 11.9715ZM23.9559 15.3103C23.9105 15.5422 24.0468 15.774 24.274 15.8204C24.5012 15.8668 24.7284 15.6813 24.7739 15.4494C24.8193 15.2176 24.6375 14.7075 24.4558 14.7075C24.3649 14.6611 24.0013 15.0321 23.9559 15.3103Z" fill="#E86A0A"/>
<path d="M21.7289 13.3163C21.6834 13.3627 21.638 13.409 21.638 13.4554C21.5925 13.5018 21.638 13.5945 21.638 13.6409C21.6834 13.6873 21.7289 13.7336 21.7743 13.7336C21.8198 13.7336 21.9106 13.7336 21.9561 13.6873C22.0015 13.6409 22.1379 13.5018 22.1833 13.3163V13.2699C22.047 13.2235 21.8198 13.2699 21.7289 13.3163ZM22.6377 14.5683C22.6377 14.6147 22.5923 14.6147 22.5923 14.6611C22.5468 14.7538 22.5923 14.8466 22.6377 14.893C22.6832 14.9393 22.7286 14.9393 22.7741 14.9393C22.8195 14.9393 22.9104 14.893 22.9558 14.8466C22.9558 14.8466 23.0013 14.8002 23.0467 14.7075C23.0922 14.5683 23.0922 14.4292 23.0922 14.3829C22.9558 14.4292 22.7286 14.522 22.6377 14.5683ZM21.229 11.8787V11.9251C21.229 12.0642 21.3199 12.157 21.4562 12.157C21.5471 12.157 21.7743 12.0178 21.9106 11.9251C21.8198 11.8324 21.5925 11.6932 21.4562 11.6932C21.3653 11.7396 21.2744 11.786 21.229 11.8787ZM24.0465 15.3103C24.0465 15.3567 24.0465 15.4494 24.0919 15.4958C24.1374 15.5422 24.1828 15.5885 24.2282 15.5885C24.3191 15.5885 24.41 15.5422 24.4555 15.4494V15.4031C24.4555 15.2639 24.41 15.0321 24.3191 14.9393C24.2282 14.9857 24.0919 15.1712 24.0465 15.3103Z" fill="#FAB515"/>
<path d="M22.7289 11.786C22.7289 11.9715 22.7289 12.2497 22.5017 12.4352C22.2745 12.6207 22.5926 12.6671 22.7743 12.9917C22.9561 13.2699 22.9107 13.5481 22.8652 13.7336C22.8198 13.9191 23.1379 13.7336 23.5014 13.9655C23.865 14.1974 23.8195 14.6611 24.0013 14.5683C24.1831 14.4756 24.5012 14.3365 24.8193 14.4756C25.1374 14.6147 24.9556 14.3365 24.7284 14.0582C24.5012 13.78 23.1379 12.1106 23.0016 11.9251C22.8198 11.786 22.7289 11.6469 22.7289 11.786Z" fill="#F6A984"/>
<path d="M28.3639 6.1749C30.8633 7.05598 32.1811 9.88471 31.2723 12.4352C30.4088 14.9857 27.6368 16.3305 25.1375 15.4031C26.0463 12.8526 27.4096 8.91088 28.3639 6.1749Z" fill="#E6301B"/>
<path d="M28.3186 6.40677C30.6816 7.28785 31.954 9.93109 31.0906 12.3425C30.2272 14.7538 27.637 16.0523 25.2739 15.1712C26.0919 12.7598 27.4097 9.00364 28.3186 6.40677Z" fill="#EE6F4B"/>
<path d="M28.0911 7.33426C29.9997 8.02985 30.9994 10.163 30.3178 12.0643C29.6362 14.0119 27.5458 15.0321 25.6826 14.3365C26.3188 12.4353 27.364 9.42103 28.0911 7.33426Z" fill="#E52913"/>
<path d="M28.8184 10.9049C29.0456 10.9513 29.2728 10.8122 29.3183 10.5803C29.3637 10.3485 29.182 10.1166 28.9547 10.0702C28.7275 10.0238 28.2277 10.2093 28.2277 10.3485C28.2277 10.4412 28.5912 10.8586 28.8184 10.9049ZM28.1822 12.3425C28.4094 12.4816 28.6366 12.3889 28.773 12.2034C28.8639 12.0179 28.8184 11.7396 28.5912 11.6005C28.364 11.4614 27.8641 11.5541 27.7732 11.6469C27.6823 11.786 27.955 12.2497 28.1822 12.3425ZM27.4551 13.4554C27.6369 13.3163 27.7278 13.0844 27.5915 12.8526C27.4551 12.6207 27.0007 12.3889 26.9098 12.4816C26.7735 12.5743 26.7735 13.0844 26.8644 13.3163C27.0007 13.5018 27.2734 13.5482 27.4551 13.4554ZM28.8639 9.28188C29.0911 9.18914 29.2274 8.95727 29.1365 8.72541C29.0456 8.49355 28.8184 8.4008 28.5912 8.49355C28.364 8.58629 28.0459 9.00365 28.0913 9.14277C28.0913 9.23551 28.6366 9.37463 28.8639 9.28188Z" fill="#E86A0A"/>
<path d="M28.3185 12.2498C28.364 12.2961 28.4094 12.2961 28.4549 12.2961C28.5003 12.2961 28.5912 12.2498 28.5912 12.2034C28.6366 12.157 28.6366 12.1106 28.5912 12.0179C28.5912 11.9715 28.5458 11.9251 28.4549 11.8788C28.4094 11.8324 28.1822 11.8324 28.0004 11.8788H27.955C28.0913 12.0179 28.2277 12.2034 28.3185 12.2498ZM28.9093 10.7658C28.9547 10.7658 28.9547 10.7658 29.0002 10.7658C29.0911 10.7658 29.182 10.6731 29.182 10.5803C29.182 10.534 29.182 10.4876 29.1365 10.4412C29.0911 10.3948 29.0456 10.3485 29.0002 10.3485C29.0002 10.3485 28.9547 10.3485 28.8639 10.3485C28.7275 10.3485 28.5912 10.4412 28.5458 10.4412C28.6366 10.5803 28.8184 10.7658 28.9093 10.7658ZM27.3642 13.4091C27.3642 13.4091 27.4097 13.4091 27.4097 13.3627C27.5006 13.3163 27.546 13.1772 27.5006 13.0381C27.4551 12.9453 27.2279 12.8062 27.0916 12.7599C27.0461 12.899 27.0916 13.1308 27.137 13.27C27.1825 13.3627 27.2733 13.4091 27.3642 13.4091ZM28.8639 9.18916C28.9093 9.14279 28.9547 9.14279 29.0002 9.05004C29.0456 9.00367 29.0456 8.9573 29.0002 8.86455C28.9547 8.77181 28.8639 8.72543 28.773 8.72543H28.7275C28.6366 8.77181 28.4549 8.9573 28.4094 9.09641C28.5003 9.18916 28.6821 9.23553 28.8639 9.18916C28.8639 9.18916 28.8184 9.23553 28.8639 9.18916Z" fill="#FAB515"/>
<path d="M26.5461 12.157C26.6825 12.0642 26.9551 11.9251 27.2278 12.0642C27.5004 12.2034 27.4095 11.8787 27.5459 11.5541C27.6822 11.2295 27.9549 11.1368 28.1366 11.0904C28.3184 11.044 28.0003 10.8585 28.0003 10.4412C28.0003 10.0238 28.4547 9.79198 28.273 9.69923C28.0912 9.60649 27.8185 9.37462 27.7731 9.00364C27.7731 8.63266 27.5913 8.95727 27.455 9.28188C27.3641 9.60649 26.637 11.6933 26.5461 11.8787C26.5007 12.0642 26.4098 12.2497 26.5461 12.157Z" fill="#F6A984"/>
<path d="M31.9537 13.6409C33.4988 12.2961 33.7715 10.0702 32.5899 8.67902C31.4084 7.28784 29.2272 7.28784 27.6821 8.63264C26.137 9.97745 25.8644 12.2033 27.0459 13.5945C28.2274 14.9857 30.4087 14.9857 31.9537 13.6409ZM28.3183 9.37461C29.4089 8.40078 30.954 8.44715 31.772 9.42098C32.5899 10.3948 32.4082 11.9715 31.3175 12.9453C30.2269 13.9191 28.6818 13.8728 27.8639 12.8989C27.0005 11.8787 27.2277 10.3021 28.3183 9.37461Z" fill="#BFCB7F"/>
<path d="M31.5902 13.2236C33.1353 11.8788 33.4079 9.65287 32.2264 8.26169C31.0449 6.87051 28.8636 6.87051 27.3186 8.21532C25.7735 9.56012 25.5009 11.786 26.6824 13.1772C27.8639 14.5684 30.0906 14.6147 31.5902 13.2236ZM27.9548 8.95728C29.0454 7.98345 30.5905 8.02982 31.4084 9.00365C32.2264 9.97748 32.0446 11.5541 30.954 12.528C29.8634 13.5018 28.3183 13.4554 27.5003 12.4816C26.6824 11.4614 26.8641 9.9311 27.9548 8.95728Z" fill="#EBF1E2"/>
<path d="M21.5473 12.2961C21.5018 12.2034 21.0474 11.4614 21.002 11.3687C20.3658 9.88474 21.6382 8.63268 23.365 7.65885C25.0918 6.68503 26.7278 6.17493 27.6366 7.42699C27.7275 7.51974 28.1365 8.30807 28.182 8.40082C28.9999 9.88474 28.182 11.9715 26.3642 13.0381C24.5465 14.1047 22.3653 13.78 21.5473 12.2961Z" fill="#1B642D"/>
<path d="M21.0475 11.3686C20.2749 9.97746 21.1384 7.98343 22.9561 6.91686C24.7738 5.85029 26.9096 6.12853 27.6821 7.51971C28.4547 8.91089 27.5913 10.9049 25.7735 11.9715C23.9558 12.9917 21.82 12.7598 21.0475 11.3686Z" fill="#3FAB35"/>
<path d="M21.2746 11.2295C20.5475 9.9311 21.3655 8.07619 23.0468 7.05599C24.7737 6.03579 26.7277 6.31403 27.4548 7.61246C28.1819 8.9109 27.3639 10.7658 25.6825 11.786C23.9557 12.7598 22.0017 12.528 21.2746 11.2295Z" fill="#9EC75B"/>
<path d="M21.32 11.3222C20.5929 10.0238 21.4109 8.1689 23.0923 7.1487C24.8191 6.1285 26.7731 6.40674 27.5002 7.70518C28.2273 9.00361 27.4093 10.8585 25.728 11.8787C24.0466 12.8989 22.0471 12.6671 21.32 11.3222Z" fill="#B7D05A"/>
<path d="M24.2739 10.673C24.5011 10.6267 24.7283 10.5339 24.9101 10.4412C25.6826 9.97745 26.0462 9.14274 25.7281 8.58627C25.6826 8.5399 25.6372 8.49353 25.6372 8.44715C25.2282 8.77176 24.592 9.23549 24.5466 9.42098C24.4557 9.60647 24.3193 10.2093 24.2739 10.673ZM25.3191 8.16892C24.9101 7.98343 24.3193 8.0298 23.7286 8.35441C23.4559 8.49353 23.2741 8.67902 23.0924 8.91088C23.6377 9.00362 24.0467 9.05 24.3193 8.86451C24.5466 8.72539 25.001 8.44715 25.3191 8.16892ZM23.9558 10.7194C24.0921 10.4875 24.1376 9.8847 24.1376 9.5601C24.1376 9.23549 23.4105 9.18912 23.0015 9.18912C22.8197 9.5601 22.7743 9.93108 22.956 10.2557C23.0924 10.5339 23.5014 10.7194 23.9558 10.7194Z" fill="#CCDA64"/>
<path d="M29.7723 11.2758C29.8178 11.2295 30.4085 10.5339 30.454 10.4875C31.6809 9.4673 33.1805 10.3484 34.5893 11.7859C35.998 13.1771 36.8614 14.661 35.9526 15.9595C35.9071 16.0522 35.2709 16.6551 35.18 16.7478C33.9985 17.9535 31.8173 17.7216 30.3176 16.2377C28.9089 14.7074 28.6362 12.4815 29.7723 11.2758Z" fill="#1B642D"/>
<path d="M30.5449 10.5339C31.6356 9.3746 33.7714 9.69921 35.271 11.1831C36.7706 12.7134 37.0887 14.8466 35.9981 16.0059C34.9075 17.1652 32.7716 16.8406 31.272 15.3567C29.7724 13.8264 29.4089 11.6469 30.5449 10.5339Z" fill="#3FAB35"/>
<path d="M30.6811 10.7194C31.7263 9.65283 33.6803 9.93107 35.0891 11.3686C36.4978 12.7598 36.8159 14.8002 35.7707 15.8668C34.7255 16.9333 32.7715 16.6551 31.3627 15.2176C29.9994 13.78 29.6813 11.786 30.6811 10.7194Z" fill="#9EC75B"/>
<path d="M30.6359 10.8121C31.681 9.74557 33.6351 10.0238 35.0438 11.4614C36.4526 12.8525 36.7707 14.8929 35.7255 15.9595C34.6803 17.0261 32.7262 16.7478 31.3175 15.3103C29.9088 13.8727 29.5907 11.8787 30.6359 10.8121Z" fill="#B7D05A"/>
<path d="M32.0445 13.5017C32.1354 13.6872 32.2717 13.9191 32.4535 14.0582C33.0897 14.7074 33.9985 14.8465 34.4529 14.3828C34.4984 14.3364 34.5438 14.2901 34.5893 14.2437C34.1803 13.9191 33.5895 13.4554 33.3623 13.409C33.1351 13.409 32.4989 13.409 32.0445 13.5017ZM34.6802 13.8727C34.7256 13.409 34.5438 12.8525 34.0894 12.3888C33.8622 12.1569 33.635 12.0178 33.4078 11.9251C33.4986 12.4815 33.4986 12.8989 33.7713 13.1308C33.9531 13.2699 34.3621 13.5945 34.6802 13.8727ZM31.9081 13.1771C32.1808 13.2235 32.7261 13.1308 33.0442 13.038C33.3623 12.9453 33.1805 12.2033 33.0897 11.8323C32.6807 11.7396 32.3171 11.8323 32.0899 12.0642C31.8627 12.3424 31.8173 12.7598 31.9081 13.1771Z" fill="#CCDA64"/>
<path d="M27.7275 23.0546C27.6366 23.0082 26.7732 22.7763 26.7277 22.73C25.2735 22.0344 25.4099 20.2258 26.0461 18.2782C26.6823 16.3305 27.5911 14.8466 29.1362 15.1248C29.2271 15.1248 30.0905 15.4494 30.1814 15.4958C31.8173 16.0523 32.5899 18.1854 31.9082 20.2722C31.2266 22.359 29.3634 23.611 27.7275 23.0546Z" fill="#1B642D"/>
<path d="M26.7278 22.7299C25.2282 22.2198 24.5011 20.1331 25.1827 18.0463C25.8644 15.9595 27.6367 14.6611 29.1363 15.1712C30.6359 15.6813 31.363 17.7681 30.6814 19.8548C30.0451 21.988 28.2729 23.24 26.7278 22.7299Z" fill="#3FAB35"/>
<path d="M26.8188 22.4981C25.4101 22.0344 24.7739 20.0404 25.4101 18.0927C26.0463 16.145 27.6823 14.9394 29.1364 15.4031C30.5452 15.8668 31.1814 17.8608 30.5452 19.8085C29.909 21.7561 28.2276 22.9618 26.8188 22.4981Z" fill="#9EC75B"/>
<path d="M26.9551 22.5445C25.5463 22.0807 24.9101 20.0867 25.5463 18.1391C26.1825 16.1914 27.8185 14.9857 29.2727 15.4494C30.6814 15.9132 31.3176 17.9072 30.6814 19.8548C30.0452 21.8025 28.3638 23.0082 26.9551 22.5445Z" fill="#B7D05A"/>
<path d="M28.7273 19.9476C28.8636 19.7621 28.9545 19.5303 29.0454 19.2984C29.318 18.4173 29.0454 17.5362 28.4546 17.3044C28.4092 17.3044 28.3183 17.258 28.2728 17.258C28.182 17.7681 28.0002 18.5564 28.0911 18.7883C28.1365 19.0202 28.4546 19.5766 28.7273 19.9476ZM27.8639 17.3507C27.4094 17.4899 27.0004 17.9536 26.8187 18.5564C26.7278 18.8347 26.6823 19.1593 26.7278 19.3911C27.1822 19.0665 27.5458 18.8347 27.6366 18.5101C27.6366 18.3246 27.773 17.7681 27.8639 17.3507ZM28.5001 20.2259C28.4092 19.9476 28.0911 19.4839 27.8639 19.2057C27.6366 18.9738 27.0459 19.4375 26.7278 19.7157C26.8187 20.1331 27.0459 20.4577 27.4094 20.5505C27.773 20.6896 28.182 20.5505 28.5001 20.2259Z" fill="#CCDA64"/>
<path d="M27.1367 12.1106C25.6371 10.673 23.4558 10.6267 22.2288 11.9715C21.0019 13.3163 21.1836 15.5422 22.6833 16.9797C24.1829 18.4173 26.3641 18.4636 27.5911 17.1188C28.8181 15.774 28.5908 13.5481 27.1367 12.1106ZM23.3195 16.2841C22.2743 15.2639 22.1379 13.6873 23.0014 12.7598C23.8648 11.8324 25.4098 11.8787 26.455 12.8526C27.5002 13.8728 27.6365 15.4494 26.7731 16.3769C25.9097 17.3043 24.3646 17.258 23.3195 16.2841Z" fill="#BFCB7F"/>
<path d="M26.7731 12.528C25.2735 11.0904 23.0923 11.044 21.8653 12.3888C20.6383 13.7336 20.8201 15.9595 22.3197 17.3971C23.8194 18.8346 26.0006 18.881 27.2276 17.5362C28.4545 16.1914 28.2273 13.9191 26.7731 12.528ZM22.9559 16.6551C21.9107 15.6349 21.7744 14.0582 22.6378 13.1308C23.5013 12.2033 25.0463 12.2497 26.0915 13.2235C27.1367 14.2437 27.273 15.8204 26.4096 16.7479C25.5462 17.7217 24.0011 17.6753 22.9559 16.6551Z" fill="#EBF1E2"/>
<path d="M35.9526 15.774C34.453 14.3365 32.2717 14.2901 31.0447 15.6349C29.8178 16.9797 29.9996 19.2056 31.4992 20.6432C32.9988 22.0807 35.1801 22.1271 36.407 20.7823C37.634 19.4375 37.4068 17.2116 35.9526 15.774ZM32.1354 19.9476C31.0902 18.9274 30.9539 17.3507 31.8173 16.4233C32.6807 15.4958 34.2258 15.5422 35.2709 16.516C36.3161 17.5362 36.4525 19.1129 35.589 20.0403C34.7256 20.9678 33.1806 20.9214 32.1354 19.9476Z" fill="#BFCB7F"/>
<path d="M35.5891 16.1914C34.0894 14.7539 31.9082 14.7075 30.6812 16.0523C29.4543 17.3971 29.636 19.623 31.1357 21.0606C32.6353 22.4981 34.8165 22.5445 36.0435 21.1997C37.2705 19.8085 37.0432 17.5826 35.5891 16.1914ZM31.7719 20.3186C30.7267 19.2984 30.5903 17.7217 31.4538 16.7943C32.3172 15.8668 33.8622 15.9132 34.9074 16.887C35.9526 17.9072 36.0889 19.4839 35.2255 20.4113C34.3621 21.3852 32.817 21.3388 31.7719 20.3186Z" fill="#EBF1E2"/>
<path opacity="0.66" d="M25.2281 21.4315C25.0463 21.1532 24.5464 20.7359 24.2283 20.3185C23.8648 19.9012 23.9102 19.9939 23.7739 20.0403C23.4104 20.1794 23.0923 20.2722 22.7742 20.4113L22.6833 19.9939C22.0016 19.623 21.3654 19.252 20.7747 18.9274C21.5472 18.4636 21.8653 18.2781 21.8653 18.2781L22.6833 17.5826L21.5018 15.2639H20.2748C19.9113 15.5422 19.5477 15.8668 19.1842 16.0986C18.5934 13.6409 18.4116 11.5077 18.4116 11.5077C18.4116 11.5077 17.2756 11.1831 15.6396 11.5077C15.8214 13.2235 15.9577 14.6147 16.094 15.6813C15.6851 15.3567 15.4578 15.1712 15.4578 15.1712C15.4578 15.1712 15.4124 15.2175 15.3215 15.3103C15.0034 13.5018 14.8216 12.8989 14.8216 12.8989L14.4127 11.9251L11.9133 12.3888L11.5043 13.6409C11.8224 14.4292 12.0951 15.3103 12.3677 16.0986C12.0496 16.4696 11.7315 16.7942 11.4134 17.0725C10.3228 16.4232 9.5957 15.9595 9.5957 15.9595C9.5957 15.9595 8.64139 16.6551 7.86886 18.139C8.36873 18.4636 8.82316 18.7882 9.27759 19.0665C8.50506 19.7157 7.73253 20.3649 6.86912 21.0141C6.86912 21.0141 7.05089 22.4981 7.5962 23.1009C7.73253 23.2864 8.32329 23.2864 8.82316 23.2864C8.82316 23.2864 8.82316 23.2864 8.82316 23.3328C8.73228 23.5183 8.68684 23.6574 8.64139 23.7965C7.14177 24.1211 6.27836 24.1675 6.27836 24.1675C6.27836 24.1675 6.23291 25.1413 6.6419 26.4397C6.68734 26.5788 6.77823 26.718 6.86912 26.7643C7.5962 26.718 8.27785 26.6716 8.95949 26.6252C9.5957 31.4016 10.3682 32.0972 10.3682 32.0972C10.3228 32.4682 11.5043 32.4682 12.0496 32.5609C12.6404 32.6537 12.5495 32.6073 12.7767 32.3754C13.0039 32.1436 13.4583 31.6798 13.8219 31.3089C14.1854 30.9379 14.14 30.9843 14.0946 30.8451C13.8673 30.335 13.6856 29.8249 13.5492 29.3612C13.9128 29.5931 14.4581 29.8713 15.1852 30.1032C15.3215 30.1495 15.5033 30.1495 15.5942 30.1032C15.6851 29.9641 15.7759 29.8249 15.8668 29.6858C15.9577 29.7322 16.0486 29.7786 16.094 29.8249C16.0032 29.9641 15.9577 30.0568 15.9577 30.0568C15.9577 30.0568 16.6394 31.0306 18.139 31.7726C19.1842 30.0568 19.9567 28.7584 20.5475 27.7382C22.5469 28.1555 23.9102 28.2483 23.9102 28.2483L24.3647 25.9296L23.683 24.9558C23.1377 24.9094 22.6378 24.8631 22.138 24.8167V24.7703C24.4556 24.353 24.8645 23.8892 24.8645 23.8892C25.2281 23.9356 25.2735 22.7763 25.4099 22.1734C25.5007 21.617 25.4099 21.7097 25.2281 21.4315Z" fill="url(#paint9_radial_560_3464)"/>
<path d="M12.2313 13.038L10.7771 12.0178L11.1406 10.8121L13.64 10.3948L14.049 11.3686L12.2313 13.038Z" fill="#FFD10C"/>
<path d="M12.7311 19.3911C12.7311 19.3911 12.1404 15.4031 10.7771 12.0179C12.9584 11.3686 14.049 11.3223 14.049 11.3223C14.049 11.3223 14.5489 13.1308 15.5032 19.252C13.8672 19.6693 12.7311 19.3911 12.7311 19.3911Z" fill="#F2A402"/>
<path d="M22.3197 19.1593C22.3197 19.1593 22.9105 18.4637 23.0468 18.4637C23.1831 18.4637 23.1377 18.3709 23.5012 18.7419C23.8648 19.1593 24.3192 19.5766 24.501 19.8549C24.6828 20.1331 24.7737 20.0403 24.6373 20.5968C24.501 21.1533 24.501 22.359 24.092 22.3126C23.7285 22.2662 22.5469 21.7098 22.2288 21.246C21.9562 20.8751 22.3197 19.1593 22.3197 19.1593Z" fill="#FCC239"/>
<path d="M21.0019 20.6895C21.0019 20.6895 22.2743 20.9214 22.5924 21.1533C22.956 21.3851 24.092 22.359 24.092 22.359C24.092 22.359 23.1832 23.4255 15.9123 23.8429C15.5033 23.611 14.549 23.1937 14.4127 22.8691C14.2764 22.4517 21.0019 20.6895 21.0019 20.6895Z" fill="#C26416"/>
<path d="M14.7764 20.6432C17.5938 20.1331 19.9114 19.6694 23.047 18.4637C22.7289 19.9012 22.5925 21.1533 22.5925 21.1533C22.5925 21.1533 18.5936 22.5445 14.4583 22.8227C14.2765 22.0808 14.7764 20.6432 14.7764 20.6432Z" fill="#DF9912"/>
<path d="M18.957 15.403L19.5023 13.6872H20.7293L21.9108 16.0059L21.0928 16.6551L18.957 15.403Z" fill="#FFD10C"/>
<path d="M13.1404 17.7217C13.1404 17.7217 16.6849 15.9595 19.457 13.6409C20.7294 15.5885 21.0475 16.6551 21.0475 16.6551C21.0475 16.6551 19.5024 17.6753 14.0492 20.3649C13.2313 18.9274 13.1404 17.7217 13.1404 17.7217Z" fill="#F2A402"/>
<path d="M18.9115 23.3791L18.457 21.6633L19.5022 20.9677L21.6835 22.3125L21.3654 23.3327L18.9115 23.3791Z" fill="#FFD10C"/>
<path d="M15.1853 28.5265C15.1853 28.5265 17.3211 25.1413 18.4572 21.6633C20.5476 22.6372 21.3655 23.3327 21.3655 23.3327C21.3655 23.3327 20.593 25.0485 17.3666 30.2423C15.8669 29.4539 15.1853 28.5265 15.1853 28.5265Z" fill="#F2A402"/>
<path d="M22.047 24.0284L22.9104 23.4255L23.592 24.3994L23.0922 26.718C23.0922 26.718 21.7743 26.3934 21.229 25.8833C21.4108 25.1877 22.047 24.0284 22.047 24.0284Z" fill="#F1B30F"/>
<path d="M21.0472 24.9558L22.2742 26.1615L23.1376 26.7643C23.1376 26.7643 18.7296 26.4861 13.9127 24.5848C13.7763 24.3529 13.8672 23.7037 14.1853 23.6573C14.5034 23.5182 21.0472 24.9558 21.0472 24.9558Z" fill="#AD5417"/>
<path d="M22.9103 23.4255L22.2741 26.1151C22.2741 26.1151 19.3658 25.5123 13.8672 24.1211C14.0035 22.7763 14.4125 21.8952 14.4125 21.8952C14.4125 21.8952 17.639 22.9154 22.9103 23.4255Z" fill="#E59914"/>
<path d="M20.911 18.6028L21.9107 18.3709L22.1834 19.5302L20.8655 21.4779C20.8655 21.4779 19.8203 20.6432 19.4568 19.994C19.8658 19.4375 20.911 18.6028 20.911 18.6028Z" fill="#F1B30F"/>
<path d="M19.6386 19.0665L20.3202 20.6432L20.911 21.5243C20.911 21.5243 16.9575 19.5303 13.2766 15.8668C13.2311 15.635 13.5492 15.0321 13.8673 15.0785C14.14 15.1712 19.6386 19.0665 19.6386 19.0665Z" fill="#AD5417"/>
<path d="M21.9562 18.4173L20.3202 20.6432C20.3202 20.6432 17.8663 18.9274 13.322 15.4958C13.9582 14.3365 14.6853 13.6409 14.6853 13.6409C14.6853 13.6409 17.2756 15.8668 21.9562 18.4173Z" fill="#E59914"/>
<path d="M13.7766 18.2318L15.5034 17.8144L16.1396 18.9274L14.7764 21.1069L13.7766 20.7823V18.2318Z" fill="#E59004"/>
<path d="M8.82302 14.3828C8.82302 14.3828 12.0949 16.6087 15.5031 17.8608C14.5034 19.9476 13.8218 20.7823 13.8218 20.7823C13.8218 20.7823 12.1404 19.9476 7.09619 16.5624C7.86872 15.0321 8.82302 14.3828 8.82302 14.3828Z" fill="#F2B60E"/>
<path d="M17.821 16.3305L19.2297 17.397L18.7753 18.6027L16.2305 18.9273L15.9124 17.9535L17.821 16.3305Z" fill="#E59004"/>
<path d="M17.6392 9.93106C17.6392 9.93106 18.0482 13.9191 19.2297 17.3971C17.003 17.9535 15.9124 17.9072 15.9124 17.9072C15.9124 17.9072 15.5034 16.0523 14.8672 9.93106C16.5031 9.65283 17.6392 9.93106 17.6392 9.93106Z" fill="#F2B60E"/>
<path d="M16.0486 20.3649L15.6396 19.3911L16.7303 18.881L18.8661 19.8548C18.8661 19.8548 18.2753 21.0605 17.6846 21.5243C17.0484 21.2924 16.0486 20.3649 16.0486 20.3649Z" fill="#F1B30F"/>
<path d="M16.7302 21.5706L18.139 20.5968L18.8661 19.8548C18.8661 19.8548 17.6845 24.1675 14.8671 28.5729C14.6399 28.6656 14.0037 28.4337 14.0037 28.1091C14.0037 27.8309 16.7302 21.5706 16.7302 21.5706Z" fill="#AD5417"/>
<path d="M15.6398 19.3911L18.0937 20.5968C18.0937 20.5968 16.9122 23.3792 14.4129 28.5729C13.1859 28.1556 12.3679 27.5527 12.3679 27.5527C12.3679 27.5527 14.0948 24.5385 15.6398 19.3911Z" fill="#E59914"/>
<path d="M15.5034 25.8833L17.1848 25.4196L17.8665 26.4862L16.5486 28.712L15.5489 28.3874L15.5034 25.8833Z" fill="#FFD10C"/>
<path d="M10.459 22.0807C10.459 22.0807 13.7763 24.2602 17.1845 25.4195C16.2302 27.5527 15.5486 28.3874 15.5486 28.3874C15.5486 28.3874 13.8672 27.5991 8.77759 24.2602C9.55012 22.7763 10.459 22.0807 10.459 22.0807Z" fill="#F2A402"/>
<path d="M12.6856 28.5729C12.6856 28.5729 13.3673 29.1757 13.4127 29.2685C13.4127 29.3612 13.5036 29.3612 13.14 29.7322C12.7765 30.1032 12.3221 30.5669 12.0949 30.7988C11.8676 31.0306 11.9131 31.077 11.3678 30.9843C10.777 30.8915 9.64094 30.8915 9.68638 30.5205C9.73182 30.1496 10.2317 28.8975 10.6407 28.5729C11.0042 28.2483 12.6856 28.5729 12.6856 28.5729Z" fill="#FCC239"/>
<path d="M11.1405 27.2739C11.1405 27.2739 10.9588 28.5723 10.7316 28.9433C10.5043 29.3143 9.59549 30.52 9.59549 30.52C9.59549 30.52 8.5503 29.5925 7.86865 22.2193C8.09587 21.8019 8.45941 20.8281 8.77751 20.6426C9.23194 20.5035 11.1405 27.2739 11.1405 27.2739Z" fill="#C26416"/>
<path d="M10.9588 20.9214C11.5496 23.7965 12.0949 26.1151 13.3673 29.3148C11.9131 29.0366 10.7316 28.9439 10.7316 28.9439C10.7316 28.9439 9.23198 24.9094 8.823 20.6895C9.59553 20.4577 10.9588 20.9214 10.9588 20.9214Z" fill="#DF9912"/>
<path d="M15.9579 20.5968C15.9579 20.5968 16.7759 20.2722 16.9122 20.3186C17.0031 20.365 17.0485 20.2722 17.1848 20.7823C17.3212 21.2924 17.5484 21.8953 17.5938 22.2199C17.6393 22.5445 17.7302 22.4981 17.3666 22.9618C17.0031 23.4256 16.4578 24.4458 16.1397 24.2603C15.8216 24.0748 15.0036 23.0082 14.9581 22.4517C14.8218 21.8953 15.9579 20.5968 15.9579 20.5968Z" fill="#FCC239"/>
<path d="M14.0948 21.2924C14.0948 21.2924 15.14 22.0807 15.3217 22.4517C15.5035 22.8227 16.1397 24.2138 16.1397 24.2138C16.1397 24.2138 14.8673 24.7239 8.18718 21.7561C7.91452 21.3387 7.27832 20.5968 7.27832 20.1794C7.32376 19.7621 14.0948 21.2924 14.0948 21.2924Z" fill="#C26416"/>
<path d="M8.50507 18.4173C11.2316 19.252 13.5492 19.9012 16.8666 20.2722C15.9123 21.4315 15.2761 22.4517 15.2761 22.4517C15.2761 22.4517 11.0953 21.8488 7.23267 20.1794C7.45988 19.4375 8.50507 18.4173 8.50507 18.4173Z" fill="#DF9912"/>
<path d="M12.1404 14.5683C12.1404 14.5683 12.3676 13.6872 12.4585 13.5945C12.5494 13.5017 12.5039 13.4554 13.0038 13.6409C13.5037 13.8264 14.0944 14.0118 14.4125 14.151C14.7306 14.2901 14.7306 14.1973 14.867 14.7538C15.0033 15.3103 15.5032 16.3768 15.1851 16.516C14.8215 16.6551 13.5037 16.7015 13.0492 16.4696C12.5494 16.2377 12.1404 14.5683 12.1404 14.5683Z" fill="#FCC239"/>
<path d="M11.6409 16.5159C11.6409 16.5159 12.8678 16.0986 13.2768 16.1913C13.6858 16.2377 15.14 16.5623 15.14 16.5623C15.14 16.5623 14.7764 17.9071 8.55075 21.7097C8.05088 21.7097 7.05113 21.8024 6.77848 21.5242C6.46038 21.246 11.6409 16.5159 11.6409 16.5159Z" fill="#C26416"/>
<path d="M6.05127 19.4374C8.32342 17.6289 10.1411 16.145 12.4133 13.5945C12.7768 15.032 13.2313 16.1914 13.2313 16.1914C13.2313 16.1914 10.3229 19.2983 6.77836 21.5242C6.27848 20.9214 6.05127 19.4374 6.05127 19.4374Z" fill="#DF9912"/>
<path d="M13.4128 21.4315L13.9581 20.5504L15.0033 21.1533L15.4578 23.4719C15.4578 23.4719 14.1399 23.7038 13.4128 23.4719C13.231 22.8227 13.4128 21.4315 13.4128 21.4315Z" fill="#F1B30F"/>
<path d="M12.8222 22.6836L14.4127 23.2864L15.4579 23.4719C15.4579 23.4719 11.3226 25.0022 6.1421 25.1877C5.91489 25.0486 5.73311 24.3994 6.00577 24.2139C6.23299 24.0284 12.8222 22.6836 12.8222 22.6836Z" fill="#AD5417"/>
<path d="M13.9583 20.5504L14.4127 23.2864C14.4127 23.2864 11.5043 23.8892 5.91485 24.8631C5.50586 23.5646 5.55131 22.5908 5.55131 22.5908C5.55131 22.5908 8.91409 22.2198 13.9583 20.5504Z" fill="#E59914"/>
</g>
</g>
<defs>
<filter id="filter0_d_560_3464" x="-0.220947" y="0.346161" width="53.5349" height="54.3846" filterUnits="userSpaceOnUse" color-interpolation-filters="sRGB">
<feFlood flood-opacity="0" result="BackgroundImageFix"/>
<feColorMatrix in="SourceAlpha" type="matrix" values="0 0 0 0 0 0 0 0 0 0 0 0 0 0 0 0 0 0 127 0" result="hardAlpha"/>
<feOffset dx="2" dy="3"/>
<feGaussianBlur stdDeviation="3"/>
<feComposite in2="hardAlpha" operator="out"/>
<feColorMatrix type="matrix" values="0 0 0 0 0 0 0 0 0 0 0 0 0 0 0 0 0 0 0.1 0"/>
<feBlend mode="normal" in2="BackgroundImageFix" result="effect1_dropShadow_560_3464"/>
<feBlend mode="normal" in="SourceGraphic" in2="effect1_dropShadow_560_3464" result="shape"/>
</filter>
<linearGradient id="paint0_linear_560_3464" x1="5.32517" y1="-5.94449" x2="26.4126" y2="26.1674" gradientUnits="userSpaceOnUse">
<stop stop-color="#DCD7D2"/>
<stop offset="0.8583" stop-color="#F6F4F2"/>
<stop offset="1" stop-color="#FBFAF8"/>
</linearGradient>
<linearGradient id="paint1_linear_560_3464" x1="18.418" y1="13.6163" x2="28.3027" y2="30.5268" gradientUnits="userSpaceOnUse">
<stop stop-color="#DBCFC2"/>
<stop offset="0.5424" stop-color="#EDE7E1"/>
<stop offset="1" stop-color="white"/>
</linearGradient>
<linearGradient id="paint2_linear_560_3464" x1="18.418" y1="13.3907" x2="28.3027" y2="30.3011" gradientUnits="userSpaceOnUse">
<stop stop-color="#D6CFC7"/>
<stop offset="0.5965" stop-color="#EDEAE7"/>
<stop offset="1" stop-color="white"/>
</linearGradient>
<linearGradient id="paint3_linear_560_3464" x1="1.43527" y1="0.954815" x2="31.9011" y2="30.8098" gradientUnits="userSpaceOnUse">
<stop stop-color="#DCD7D2"/>
<stop offset="0.8583" stop-color="#F6F4F2"/>
<stop offset="1" stop-color="#FBFAF8"/>
</linearGradient>
<radialGradient id="paint4_radial_560_3464" cx="0" cy="0" r="1" gradientUnits="userSpaceOnUse" gradientTransform="translate(24.7947 23.4549) scale(21.4627 21.9018)">
<stop offset="0.7776" stop-color="#7A6850"/>
<stop offset="0.8842" stop-color="#A89A89"/>
<stop offset="1" stop-color="#DCD7D2"/>
</radialGradient>
<linearGradient id="paint5_linear_560_3464" x1="28.7265" y1="39.8487" x2="24.3769" y2="24.4386" gradientUnits="userSpaceOnUse">
<stop stop-color="#C24417"/>
<stop offset="0.2659" stop-color="#C84B19"/>
<stop offset="0.6689" stop-color="#DB611E"/>
<stop offset="1" stop-color="#EF7825"/>
</linearGradient>
<radialGradient id="paint6_radial_560_3464" cx="0" cy="0" r="1" gradientUnits="userSpaceOnUse" gradientTransform="translate(25.8388 28.1272) scale(16.0144 16.3421)">
<stop stop-color="#F59F17"/>
<stop offset="0.2774" stop-color="#F4991B"/>
<stop offset="0.6979" stop-color="#F18821"/>
<stop offset="1" stop-color="#EF7825"/>
</radialGradient>
<radialGradient id="paint7_radial_560_3464" cx="0" cy="0" r="1" gradientUnits="userSpaceOnUse" gradientTransform="translate(22.796 17.4539) scale(23.3879 23.8664)">
<stop offset="0.4483" stop-color="#F9B147"/>
<stop offset="0.6319" stop-color="#F8AB3E"/>
<stop offset="0.9101" stop-color="#F59A27"/>
<stop offset="1" stop-color="#F3941D"/>
</radialGradient>
<radialGradient id="paint8_radial_560_3464" cx="0" cy="0" r="1" gradientUnits="userSpaceOnUse" gradientTransform="translate(29.3602 16.2528) scale(9.19941 9.38761)">
<stop stop-color="#401011"/>
<stop offset="0.5368" stop-color="#441010"/>
<stop offset="0.6542" stop-color="#5F1E1A"/>
<stop offset="0.9154" stop-color="#AB452D"/>
<stop offset="1" stop-color="#C75631"/>
</radialGradient>
<radialGradient id="paint9_radial_560_3464" cx="0" cy="0" r="1" gradientUnits="userSpaceOnUse" gradientTransform="translate(14.2179 21.8312) scale(11.0476 11.2736)">
<stop stop-color="#401011"/>
<stop offset="0.5368" stop-color="#441010"/>
<stop offset="0.6542" stop-color="#5F1E1A"/>
<stop offset="0.9154" stop-color="#AB452D"/>
<stop offset="1" stop-color="#C75631"/>
</radialGradient>
<clipPath id="clip0_560_3464">
<rect width="47" height="58" fill="white" transform="translate(0.5)"/>
</clipPath>
</defs>
</svg>
