<svg width="34" height="38" viewBox="0 0 34 38" fill="none" xmlns="http://www.w3.org/2000/svg">
<g clipPath="url(#clip0_4785_16708)">
<path d="M33.9258 21.0173C33.8855 19.8572 33.8169 18.6981 33.7319 17.541C33.623 16.0562 33.4781 14.5625 33.2603 13.0867C32.8704 10.4359 32.3541 7.80886 31.3553 5.28278C30.8793 4.07815 30.2999 2.91805 29.4351 1.9005C28.5703 0.882938 27.5497 0.0979943 26.0586 0.00197973H24.2669C23.9401 0.0742381 23.5992 0.0603804 23.2866 0.192029C22.0678 0.698828 21.2999 1.54514 20.9917 2.72899C20.7543 3.64064 20.9677 4.52456 21.2531 5.39463C21.5799 6.37854 22.0003 7.32977 22.424 8.282C22.9239 9.40943 23.3193 10.5646 23.4707 11.7781C23.5938 12.768 23.4772 13.7152 22.7148 14.4962C22.1157 15.1099 21.3097 15.4158 20.4602 15.6217C18.6924 16.0513 16.8975 16.1017 15.0883 15.8968C14.2364 15.8127 13.4025 15.6167 12.6126 15.3148C11.5049 14.8734 10.7741 14.1567 10.5769 13.0382C10.468 12.4037 10.5453 11.7821 10.6608 11.1575C10.8939 9.90336 11.4112 8.73436 11.921 7.56041C12.4089 6.43298 12.9198 5.30951 13.0908 4.09596C13.2672 2.85074 12.8871 1.76489 11.8927 0.884918C11.3063 0.343376 10.5138 0.0266809 9.67834 0H7.96396C6.85082 0.0346444 5.98056 0.548372 5.22249 1.22245C4.61993 1.77771 4.11515 2.41406 3.72595 3.10909C2.48972 5.21745 1.83621 7.49706 1.33954 9.81922C0.90245 11.9082 0.595537 14.0179 0.42027 16.1384C0.26016 17.9468 0.105496 19.7552 0.107674 21.5716C0.107674 21.6835 0.107675 21.7943 0.0978721 21.9052C-0.0241166 23.6087 -0.074221 25.3152 0.198075 27.0088C0.703457 30.1466 2.33397 32.7093 5.07763 34.6702C7.2353 36.2133 9.70775 37.12 12.3675 37.6585C13.3108 37.8495 14.266 37.906 15.219 38H18.724C19.1597 37.9268 19.6106 37.9515 20.0517 37.901C22.4621 37.6515 24.7943 36.9706 26.9136 35.8976C28.775 34.9552 30.3816 33.7407 31.6113 32.1362C33.2603 29.9833 33.9846 27.5829 34.0075 24.9806C34.0075 23.6592 33.9672 22.3387 33.9258 21.0173ZM31.3346 26.4347C30.8467 29.6942 28.9798 32.1124 25.8887 33.7595C23.6232 34.9661 21.1453 35.5412 18.5432 35.7115C15.6885 35.9015 12.9089 35.5878 10.2306 34.6593C7.55225 33.7308 5.35319 32.256 3.92745 29.9377C3.24235 28.8262 2.86767 27.6225 2.67488 26.3644C2.63349 26.0942 2.72063 26.0398 3.00164 26.0427C4.23677 26.0576 5.473 26.0487 6.70487 26.0487C7.93674 26.0487 9.17623 26.0487 10.4081 26.0487C10.5606 26.0487 10.7261 26.0002 10.8002 26.209C11.2969 27.6057 12.3599 28.6183 13.5602 29.5299C14.4128 30.1649 15.3304 30.7241 16.3006 31.1998C16.5142 31.3202 16.7605 31.384 17.0118 31.384C17.2631 31.384 17.5095 31.3202 17.7231 31.1998C19.5627 30.2624 21.2564 29.1706 22.4828 27.5691C22.7928 27.1769 23.0324 26.7426 23.1929 26.2823C23.2594 26.0843 23.365 26.0457 23.5676 26.0467C26.0662 26.0516 28.5648 26.0586 31.0623 26.0417C31.4795 26.0368 31.3618 26.2506 31.3346 26.4347ZM13.0951 24.4392C13.3402 23.6404 14.1331 23.0851 14.889 23.0821C15.4685 23.0752 15.8562 23.1811 16.196 23.4008C16.7406 23.7522 17.2558 23.7512 17.8124 23.4147C18.6304 22.9198 19.5845 22.9762 20.2968 23.5285C20.983 24.0611 21.1899 24.9143 20.8174 25.719C20.4602 26.4901 19.8372 27.0702 19.1597 27.6126C18.5564 28.0908 17.9076 28.5195 17.2209 28.8935C17.1 28.9608 17.0031 29.0113 16.8572 28.9261C15.6591 28.2402 14.5132 27.4938 13.6637 26.4396C13.1866 25.8487 12.8598 25.2073 13.0951 24.4392ZM31.0264 23.8324C29.7912 23.8116 28.555 23.8235 27.3231 23.8235C26.0913 23.8235 24.8507 23.8185 23.6199 23.8235C23.3825 23.8235 23.2779 23.77 23.1908 23.5523C22.99 23.035 22.6757 22.5603 22.267 22.1567C21.8583 21.7531 21.3637 21.4292 20.8131 21.2046C20.2625 20.98 19.6675 20.8593 19.064 20.8499C18.4606 20.8405 17.8614 20.9426 17.3026 21.1499C17.2123 21.1872 17.1143 21.2069 17.0151 21.2077C16.9159 21.2086 16.8176 21.1906 16.7265 21.1549C16.1688 20.9485 15.571 20.8469 14.9689 20.8562C14.3669 20.8655 13.7732 20.9855 13.2236 21.209C12.674 21.4324 12.1799 21.7548 11.7711 22.1565C11.3622 22.5582 11.0472 23.031 10.8449 23.5463C10.749 23.7849 10.627 23.8294 10.383 23.8284C7.91059 23.8205 5.43923 23.8176 2.96678 23.8284C2.6324 23.8284 2.57577 23.7374 2.58121 23.4592C2.64547 20.0077 2.81866 16.563 3.3273 13.1401C3.72921 10.4339 4.26074 7.75145 5.43161 5.2125C5.78199 4.42356 6.26518 3.68891 6.86388 3.03485C7.54463 2.3093 8.41488 2.12321 9.39733 2.24298C9.72445 2.28686 10.0231 2.43659 10.2385 2.66465C10.4538 2.8927 10.5713 3.18374 10.5693 3.48424C10.5693 4.12467 10.3515 4.72451 10.1216 5.31743C9.55526 6.75072 8.8364 8.13649 8.41489 9.62126C8.0108 11.0446 7.74831 12.4819 8.16982 13.9389C8.7264 15.8681 10.2001 17.0075 12.1835 17.6598C14.132 18.3022 16.1601 18.4002 18.2067 18.2923C19.6629 18.216 21.0875 17.9953 22.4327 17.445C25.0467 16.3759 26.3385 14.2666 26.027 11.6702C25.8015 9.77765 25.0707 8.03355 24.3083 6.29044C23.9717 5.52232 23.6428 4.75421 23.4859 3.93363C23.2932 2.89034 23.8933 2.26476 25.0555 2.21526C26.0793 2.17171 26.7916 2.59338 27.3787 3.2833C28.3339 4.40479 28.8654 5.71138 29.3142 7.0447C30.0766 9.29461 30.4883 11.6069 30.7987 13.9389C31.2191 17.0975 31.3673 20.2739 31.4403 23.4483C31.4479 23.7641 31.3629 23.8374 31.0264 23.8324Z" fill="#b92b1a"/>
</g>
<defs>
<clipPath id="clip0_4785_16708">
<rect width="34" height="38" fill="white"/>
</clipPath>
</defs>
</svg>
