<svg width="56" height="57" viewBox="0 0 56 57" fill="none" xmlns="http://www.w3.org/2000/svg">
<g filter="url(#filter0_d_560_3370)">
<path d="M3.77344 18.0883C5.56124 24.8796 9.09098 31.2606 14.4085 36.5934L14.5002 36.6845C19.8178 41.9717 26.2813 45.5268 33.1116 47.2588C35.5412 47.8969 36.4122 47.669 37.2373 45.1166C40.0794 36.3655 44.5718 21.5979 46.4972 14.5331C48.3308 7.78746 48.1933 6.28335 46.7722 4.87041C46.7264 4.82483 46.543 4.64251 46.4972 4.59693C45.0302 3.13841 43.5175 3.00167 36.733 4.82483C29.6277 6.69356 14.7753 11.2059 5.9738 14.0318C3.40671 14.8522 3.17751 15.6726 3.77344 18.0883Z" fill="url(#paint0_radial_560_3370)"/>
<path d="M11.4747 16.174C12.8958 21.5979 15.7379 26.7939 20.0469 31.0327C20.0469 31.0327 20.0928 31.0783 20.1386 31.1239C24.4477 35.4083 29.6277 38.2342 35.0827 39.6472C37.0539 40.1485 37.7415 39.9662 38.3833 37.9152C40.6295 30.8048 44.2968 18.9543 45.8095 13.2569C47.2764 7.83305 47.1847 6.60242 46.0387 5.46295C45.9929 5.41737 45.8554 5.28063 45.8095 5.23505C44.6635 4.09558 43.4258 3.95884 37.9707 5.46295C32.2865 7.01263 20.322 10.6134 13.2166 12.8923C11.1538 13.5304 10.9704 14.2141 11.4747 16.174Z" fill="url(#paint1_linear_560_3370)"/>
<path d="M13.6293 27.3864C12.3457 26.2469 10.7871 25.5177 11.0622 23.7857C11.3372 22.0081 10.2371 20.1849 9.36608 19.1366C8.4951 18.0883 7.94501 16.7209 8.81599 16.1284C9.68697 15.5359 10.5121 14.0318 9.22856 14.2597C7.2574 14.6699 3.59013 15.8549 4.32358 16.4475C5.05704 17.0856 6.70731 17.9516 6.56979 19.4101C6.43226 20.9142 7.30324 22.7829 8.4951 23.5578C9.68697 24.3326 10.3746 25.6544 10.5579 26.9762C10.7413 28.298 12.1165 29.3463 13.8585 29.7109C15.6004 30.1211 14.9128 28.4803 13.6293 27.3864ZM15.4171 31.4885C13.5834 31.2606 14.6836 32.2178 15.1879 33.2205C15.6921 34.2232 16.7923 35.6818 19.0385 35.3171C21.2847 34.9525 17.2966 31.7164 15.4171 31.4885ZM32.3324 41.4247C30.3612 41.0601 27.8858 41.1968 28.2525 40.3308C28.6193 39.4648 26.7856 38.3709 24.6769 38.2342C23.3017 38.143 20.3679 38.9635 22.7058 39.6927C25.0437 40.422 28.2525 40.5587 27.1523 41.288C26.0522 42.0172 28.39 43.3846 30.5904 43.2479C32.8366 43.1567 34.3494 41.7893 32.3324 41.4247Z" fill="white"/>
<path d="M37.3748 9.20041C38.1082 9.92967 39.5293 11.6161 39.3918 13.2569C39.2543 14.8978 38.2916 17.2679 36.5038 17.5414C34.716 17.8148 30.4987 17.5414 30.5903 13.3025C32.6532 10.8868 37.3748 9.20041 37.3748 9.20041Z" fill="url(#paint2_radial_560_3370)"/>
<path d="M32.9741 17.9972C34.166 18.3162 35.6787 18.4985 36.3205 20.4128C36.9164 22.3272 36.8706 24.6061 34.5785 25.9279C32.2407 27.2953 27.9316 25.6088 27.6566 22.7374C27.4274 19.8203 32.9741 17.9972 32.9741 17.9972Z" fill="url(#paint3_radial_560_3370)"/>
<path d="M24.5395 24.5605C24.9521 24.4238 27.4275 22.6462 28.3443 26.0191C29.2611 29.3919 27.9776 31.443 26.3732 32.0355C24.7687 32.628 20.5514 31.5341 19.497 28.3436C18.4427 25.1531 24.5395 24.5605 24.5395 24.5605Z" fill="url(#paint4_radial_560_3370)"/>
<path d="M34.7162 30.2123C35.8164 30.1667 37.5125 29.8476 38.6127 31.8531C39.7128 33.8586 38.2459 36.6845 36.779 37.5505C35.3121 38.4165 31.9199 38.3253 30.8656 37.0947C29.8112 35.8641 34.7162 30.2123 34.7162 30.2123Z" fill="url(#paint5_radial_560_3370)"/>
<path d="M25.1813 11.297C26.419 10.8868 28.1609 9.3827 28.8944 11.9807C29.6278 14.5787 30.0404 18.0427 27.3358 19.2733C24.6312 20.504 20.9639 16.3107 21.1931 15.1712C21.4223 14.0318 25.1813 11.297 25.1813 11.297Z" fill="url(#paint6_radial_560_3370)"/>
<path d="M16.7007 16.1284C17.7092 15.9461 20.2305 16.1284 20.7806 17.8604C21.3307 19.5924 20.9181 22.9652 19.0386 23.968C17.1591 24.9251 14.4545 23.102 13.7669 20.2761C13.0335 17.4502 16.7007 16.1284 16.7007 16.1284Z" fill="url(#paint7_radial_560_3370)"/>
<path d="M43.6551 7.51398C44.6178 8.06092 46.4973 8.9725 46.1305 11.0691C45.6263 14.2141 43.8385 15.2624 40.813 10.7045C42.7841 8.24324 43.6551 7.51398 43.6551 7.51398Z" fill="url(#paint8_radial_560_3370)"/>
<path d="M39.3461 12.5732C39.3461 14.5331 37.4666 16.2195 34.9454 16.2195C32.4241 16.2195 30.3154 14.5331 30.3154 12.5732C30.3154 10.6133 32.3324 6.92142 34.8537 6.92142C37.3291 6.92142 39.3461 10.6133 39.3461 12.5732Z" fill="url(#paint9_radial_560_3370)"/>
<path d="M37.0083 11.1147C36.9166 10.5677 36.7333 10.5221 36.3665 10.4766C35.9998 10.431 35.9998 9.83845 36.1373 9.33708C36.2749 8.79013 35.8165 8.24319 35.2664 8.28877C34.7163 8.37992 34.9913 8.6534 34.8538 9.10919C34.7163 9.61056 34.212 9.33708 33.8911 9.01803C33.7536 8.88129 33.2494 9.01803 33.1577 9.33708C33.066 9.61056 33.2494 9.70171 33.2952 9.92961C33.3411 10.3854 33.1118 10.5677 32.791 10.5221C32.4242 10.4766 32.1492 11.2058 32.4242 12.0262C32.5618 12.3909 33.3869 12.5276 33.3411 11.6616C33.3411 11.297 33.5703 10.9779 33.7995 10.9323C34.0287 10.8868 34.3037 11.0691 34.3496 11.4793C34.4412 12.0262 34.5788 12.4365 34.9913 12.3909C35.5414 12.3453 35.4039 12.0262 35.6331 11.7528C35.8623 11.4793 36.1832 11.7072 36.5499 12.0262C36.8708 12.2997 37.1 11.616 37.0083 11.1147ZM35.1747 11.1147C34.5329 11.1147 34.6704 10.2942 34.9455 9.97519C35.083 9.79287 35.2205 9.74729 35.5414 10.0663C35.8165 10.3398 35.8165 11.1147 35.1747 11.1147Z" fill="url(#paint10_radial_560_3370)"/>
<path d="M36.5498 12.8011C36.1831 13.1202 35.4038 12.8923 35.633 13.3025C35.8164 13.7127 36.3206 13.7583 36.6415 13.348C36.9166 12.9378 36.779 12.5732 36.5498 12.8011Z" fill="url(#paint11_radial_560_3370)"/>
<path d="M34.212 12.3453C33.7994 12.5732 33.2035 12.3453 33.4327 12.7555C33.6161 13.1657 34.212 13.0745 34.4412 12.8011C34.7162 12.3453 34.487 12.163 34.212 12.3453Z" fill="url(#paint12_radial_560_3370)"/>
<path d="M45.4888 12.0718C43.9302 13.3936 41.5923 12.4365 40.2629 10.1575C38.9335 7.87858 39.8503 5.41732 41.5006 4.91595C43.4718 4.27784 44.5261 4.50574 45.7638 5.37174C47.0932 6.23774 46.6806 11.0691 45.4888 12.0718Z" fill="url(#paint13_radial_560_3370)"/>
<path d="M28.6191 27.2041C28.6191 29.2551 26.6021 31.0327 23.9892 31.0327C21.3763 31.0327 19.0842 29.2551 19.0842 27.2041C19.0842 25.153 21.2388 21.2788 23.8517 21.2788C26.4646 21.2788 28.6191 25.1986 28.6191 27.2041Z" fill="url(#paint14_radial_560_3370)"/>
<path d="M26.0979 25.7C26.0062 25.153 25.777 25.0618 25.4103 25.0163C25.0435 24.9707 25.0435 24.3326 25.1811 23.7856C25.3186 23.2387 24.8602 22.6006 24.3101 22.6917C23.76 22.7829 24.035 23.0564 23.8517 23.5577C23.6683 24.1047 23.1641 23.7856 22.8432 23.4666C22.7057 23.3298 22.2014 23.4666 22.0639 23.7856C21.9722 24.0591 22.2014 24.1958 22.2014 24.4237C22.2473 24.8795 22.018 25.1074 21.6513 25.0618C21.2388 25.0163 20.9637 25.7911 21.2846 26.6571C21.4221 27.0673 22.2931 27.2041 22.2473 26.2469C22.2473 25.8367 22.4765 25.5176 22.7515 25.4721C23.0265 25.4265 23.3016 25.6544 23.3474 26.0646C23.4391 26.6571 23.5766 27.0673 23.9892 27.0217C24.5393 26.9762 24.4018 26.6115 24.6768 26.3381C24.906 26.0646 25.2727 26.2925 25.6395 26.6115C26.0062 26.9762 26.2354 26.2469 26.0979 25.7ZM24.1726 25.7C23.485 25.7 23.6225 24.834 23.9434 24.4693C24.1267 24.287 24.2643 24.2414 24.5393 24.5605C24.8602 24.8795 24.906 25.7 24.1726 25.7Z" fill="url(#paint15_radial_560_3370)"/>
<path d="M25.6393 27.4775C25.2267 27.7965 24.4474 27.5686 24.6766 27.9789C24.9058 28.3891 25.4101 28.4346 25.731 28.0244C26.0518 27.6142 25.9143 27.2496 25.6393 27.4775Z" fill="url(#paint16_radial_560_3370)"/>
<path d="M23.1643 26.9761C22.7517 27.204 22.1099 26.9761 22.3391 27.3863C22.5683 27.7966 23.1643 27.751 23.3935 27.4319C23.7144 27.0217 23.4852 26.8394 23.1643 26.9761Z" fill="url(#paint17_radial_560_3370)"/>
<path d="M34.1762 38.3227C32.2051 38.824 29.9589 37.3199 29.3171 34.7675C28.7212 32.2151 29.9589 29.6171 31.93 29.1157C33.9012 28.6144 38.2561 29.7538 38.852 32.3062C39.4938 34.8587 36.1932 37.8213 34.1762 38.3227Z" fill="url(#paint18_radial_560_3370)"/>
<path d="M35.541 33.4484C35.7702 32.947 35.6785 32.7647 35.4035 32.4912C35.1285 32.2178 35.4952 31.762 35.9077 31.3518C36.3662 30.9871 36.3203 30.2123 35.8161 29.9388C35.3118 29.6654 35.3577 30.0756 34.9451 30.3946C34.4867 30.7137 34.2575 30.1667 34.1658 29.7109C34.12 29.483 33.6615 29.3007 33.3407 29.5286C33.1115 29.7109 33.2031 29.9388 33.0656 30.1211C32.8364 30.5314 32.5155 30.5769 32.2405 30.349C31.9654 30.0756 31.2778 30.5314 31.0028 31.3974C30.8653 31.8076 31.507 32.4001 32.0113 31.6252C32.2405 31.3062 32.6072 31.1695 32.8364 31.2606C33.0656 31.3518 33.2031 31.7164 32.9739 32.081C32.6989 32.5824 32.6072 33.0382 32.9281 33.2661C33.4323 33.5396 33.4782 33.1749 33.8449 33.0838C34.2116 32.9926 34.3492 33.4028 34.4408 33.8586C34.7159 34.4511 35.3118 33.9498 35.541 33.4484ZM33.9366 32.3545C33.3865 31.9443 33.9824 31.3062 34.4408 31.215C34.67 31.1695 34.8534 31.1695 34.8992 31.6252C34.9909 32.081 34.5325 32.7647 33.9366 32.3545Z" fill="url(#paint19_radial_560_3370)"/>
<path d="M34.1203 34.6334C33.6161 34.679 33.066 34.0409 33.0202 34.4967C32.9285 34.9525 33.341 35.2715 33.8453 35.1348C34.3495 34.998 34.4412 34.6334 34.1203 34.6334Z" fill="url(#paint20_radial_560_3370)"/>
<path d="M32.3784 32.8558C31.92 32.8103 31.5074 32.2633 31.4616 32.7191C31.3699 33.1749 31.92 33.494 32.2867 33.3572C32.7909 33.1749 32.6993 32.8558 32.3784 32.8558Z" fill="url(#paint21_radial_560_3370)"/>
<path d="M35.2662 18.544C36.6414 19.7291 36.6873 22.1448 35.1287 23.8768C33.5701 25.6543 31.0489 26.1101 29.6736 24.9251C28.2984 23.74 26.9232 20.0026 28.4359 18.2706C29.9945 16.493 33.891 17.359 35.2662 18.544Z" fill="url(#paint22_radial_560_3370)"/>
<path d="M28.115 16.8577C27.0148 18.3618 24.6311 18.6353 22.6599 17.2223C20.7346 15.855 20.0012 13.3481 21.1013 11.844C22.2015 10.3399 25.823 8.6079 27.7483 9.97527C29.6736 11.3882 29.1693 15.3536 28.115 16.8577Z" fill="url(#paint23_radial_560_3370)"/>
<path d="M27.198 13.576C27.2439 13.0746 27.1064 12.9379 26.7855 12.8011C26.4646 12.6644 26.648 12.1174 26.923 11.6617C27.198 11.2059 26.923 10.5678 26.4188 10.4766C25.9145 10.3854 26.0979 10.7045 25.777 11.1147C25.5019 11.5249 25.1352 11.1147 24.9518 10.7501C24.8602 10.5678 24.4018 10.5678 24.1725 10.8412C24.035 11.0691 24.1725 11.2059 24.1267 11.4338C24.035 11.844 23.76 11.9807 23.4849 11.844C23.164 11.7072 22.7056 12.2998 22.7515 13.1202C22.7515 13.4848 23.4849 13.8494 23.7141 13.029C23.8058 12.6644 24.0809 12.4365 24.3559 12.4821C24.5851 12.4821 24.7685 12.7555 24.7226 13.1658C24.631 13.6671 24.6768 14.0773 25.0435 14.1685C25.5478 14.2597 25.5019 13.9406 25.777 13.7583C26.052 13.576 26.2812 13.895 26.5104 14.2597C26.7855 14.6243 27.1522 14.0773 27.198 13.576ZM25.5478 13.0746C24.9518 12.8923 25.3186 12.163 25.6395 11.9351C25.8228 11.7984 25.9603 11.7984 26.1437 12.163C26.3271 12.5277 26.1437 13.2569 25.5478 13.0746Z" fill="url(#paint24_radial_560_3370)"/>
<path d="M26.327 14.9889C25.9144 15.1712 25.2726 14.761 25.3185 15.1712C25.4102 15.5814 25.8227 15.7637 26.2353 15.4902C26.6479 15.2168 26.602 14.8521 26.327 14.9889Z" fill="url(#paint25_radial_560_3370)"/>
<path d="M24.3102 13.9406C23.8976 14.0317 23.3934 13.6671 23.485 14.0773C23.5767 14.4875 24.1268 14.5787 24.4019 14.3964C24.7686 14.0773 24.6311 13.8494 24.3102 13.9406Z" fill="url(#paint26_radial_560_3370)"/>
<path d="M30.9115 22.3271C31.049 21.9169 31.1865 21.5523 31.5074 21.6435C31.8283 21.7346 31.8742 22.0537 32.3326 21.8258C32.6535 21.6435 32.5618 21.2333 32.3784 20.7775C32.1951 20.4128 32.3326 20.1394 32.5618 20.0482C32.791 19.957 33.1119 20.0938 33.2952 20.4128C33.7536 21.1421 34.3037 20.5951 34.2121 20.2305C34.0287 19.4101 33.4328 18.9999 33.1577 19.2278C32.9285 19.4101 32.6076 19.3645 32.4243 18.9999C32.3326 18.8176 32.4243 18.5897 32.2409 18.4529C31.9658 18.225 31.5074 18.4074 31.4616 18.5897C31.3699 18.9999 31.1407 19.5013 30.7281 19.1366C30.3614 18.8176 30.4073 18.4529 29.9488 18.6808C29.4904 18.8631 29.3988 19.5924 29.8113 19.957C30.1781 20.3217 30.4989 20.7775 30.2239 21.0054C29.9947 21.2333 29.8572 21.37 30.0405 21.8714C30.2239 22.2816 30.774 22.7374 30.9115 22.3271ZM30.6823 20.1849C30.774 19.7747 30.9115 19.7747 31.0949 19.8203C31.5074 19.957 32.0117 20.5496 31.5074 20.8686C31.0032 21.2333 30.6365 20.5951 30.6823 20.1849Z" fill="url(#paint27_radial_560_3370)"/>
<path d="M31.2779 22.9652C31.7363 23.0108 32.2405 22.4639 32.2864 22.8741C32.3322 23.2843 31.9655 23.5578 31.5071 23.421C31.0487 23.2387 30.957 22.9197 31.2779 22.9652Z" fill="url(#paint28_radial_560_3370)"/>
<path d="M32.9281 21.3699C33.3407 21.3699 33.7533 20.8686 33.7533 21.2788C33.7991 21.689 33.2949 21.9625 32.974 21.8257C32.5614 21.6434 32.6073 21.4155 32.9281 21.3699Z" fill="url(#paint29_radial_560_3370)"/>
<path d="M38.5209 29.8021C36.8706 28.9361 35.3579 26.6116 35.9538 24.834C36.5956 23.0108 39.071 22.2816 40.9046 22.4639C41.0421 22.4639 42.6007 22.236 41.363 26.5204C40.1253 30.896 38.9793 30.03 38.5209 29.8021Z" fill="url(#paint30_radial_560_3370)"/>
<path d="M39.5294 27.2497C39.5294 26.885 39.5294 26.5204 39.8503 26.4748C40.1712 26.4292 40.3545 26.6571 40.6754 26.3381C40.9046 26.0646 40.7213 25.7456 40.3545 25.4721C39.346 24.7428 40.1253 23.8768 39.4377 23.6033C39.1627 23.5122 38.7501 23.8312 38.796 23.968C38.8418 24.3326 38.796 24.7884 38.3376 24.6972C37.8791 24.5605 37.8333 24.287 37.4666 24.6061C37.0998 24.9251 37.2832 25.5177 37.7416 25.7C38.2 25.8367 38.6126 26.1102 38.4751 26.3837C38.3376 26.6571 38.2917 26.7939 38.6126 27.1129C38.9335 27.432 39.5753 27.6143 39.5294 27.2497ZM38.6584 25.5632C38.6126 25.1986 38.7043 25.153 38.9335 25.1074C39.3461 25.0619 40.0337 25.3353 39.6669 25.8367C39.2544 26.2925 38.7501 25.9279 38.6584 25.5632Z" fill="url(#paint31_radial_560_3370)"/>
<path d="M40.6755 21.5979C39.667 21.0965 38.796 20.3217 38.6126 19.3645C38.2459 17.4958 39.5294 13.4848 41.959 13.029C42.7841 12.8923 43.9302 13.7583 44.1594 14.5331C44.3886 15.3991 44.4803 16.1284 43.976 18.1795C43.701 19.3189 43.4259 20.1393 43.1509 20.7319C42.6466 21.9625 41.088 21.8258 40.6755 21.5979Z" fill="url(#paint32_radial_560_3370)"/>
<path d="M20.551 17.2222C21.422 19.0454 20.4135 21.5522 17.9839 22.555C16.0128 23.3754 14.5459 22.2815 13.9958 21.142C13.4457 20.0026 13.0331 18.4984 12.7581 17.2222C12.4372 15.627 12.5747 14.8521 13.079 14.3052C13.2623 14.0773 13.5374 13.9406 13.8124 13.8494C16.1503 12.8011 19.68 15.3991 20.551 17.2222Z" fill="url(#paint33_radial_560_3370)"/>
<path d="M14.4088 19.091C14.7296 18.7264 15.0047 18.4529 15.3256 18.6808C15.6006 18.9087 15.5089 19.2733 16.1049 19.2278C16.5174 19.1822 16.6091 18.772 16.6091 18.1794C16.6091 17.7692 16.8383 17.4958 17.1134 17.4958C17.3884 17.4958 17.6635 17.8148 17.7093 18.1794C17.801 19.091 18.672 18.8175 18.7178 18.4529C18.9012 17.5413 18.4886 16.8576 18.1219 16.9488C17.801 17.04 17.5259 16.8576 17.4801 16.4019C17.4801 16.174 17.6635 15.9916 17.5259 15.7637C17.3426 15.4447 16.8383 15.3535 16.7008 15.5359C16.4258 15.9005 15.9674 16.2651 15.7381 15.7637C15.5089 15.2624 15.7381 14.9433 15.1881 14.9433C14.638 14.9433 14.2254 15.627 14.4546 16.1284C14.6838 16.6753 14.7755 17.2679 14.4088 17.359C14.042 17.4502 13.8587 17.5869 13.8587 18.1339C13.767 18.7264 14.0879 19.4101 14.4088 19.091ZM15.1881 16.8576C15.4631 16.493 15.6006 16.5386 15.784 16.6753C16.1507 16.9944 16.3799 17.8148 15.6923 17.906C15.0505 17.9971 14.9589 17.2223 15.1881 16.8576Z" fill="url(#paint34_radial_560_3370)"/>
<path d="M14.5002 19.866C14.9127 20.1394 15.692 19.8204 15.5545 20.2306C15.417 20.6864 14.9127 20.7775 14.5002 20.4129C14.1335 20.0938 14.2251 19.6836 14.5002 19.866Z" fill="url(#paint35_radial_560_3370)"/>
<path d="M16.884 19.0455C17.3424 19.2278 17.9383 18.9087 17.7549 19.3645C17.6174 19.8203 16.9756 19.8203 16.7006 19.5468C16.3797 19.1822 16.6089 18.9543 16.884 19.0455Z" fill="url(#paint36_radial_560_3370)"/>
<path d="M44.526 9.83853C44.0217 9.65622 43.8384 8.88137 43.5633 9.246C43.2883 9.65622 43.5175 10.112 44.0676 10.1576C44.6177 10.2487 44.8469 9.92969 44.526 9.83853Z" fill="url(#paint37_radial_560_3370)"/>
<path d="M43.6549 7.51395C43.2424 7.28605 43.1049 6.60237 42.8756 7.01258C42.6006 7.42279 42.9673 7.92416 43.3799 7.92416C43.8842 7.96974 43.93 7.65068 43.6549 7.51395Z" fill="url(#paint38_radial_560_3370)"/>
<path d="M43.609 5.2806C43.4256 5.32617 42.6922 5.82754 43.1048 6.32891C43.5173 6.83028 43.9299 6.42007 44.1591 6.28333C44.4341 6.1466 45.351 6.37449 44.5717 7.0126C43.7924 7.6507 43.884 8.56228 44.5717 8.5167C45.2593 8.42554 45.4426 8.15207 45.351 7.6507C45.2134 7.19491 45.1218 7.05817 45.626 6.73912C46.1303 6.46565 45.901 5.50849 45.1676 5.64523C43.7924 6.00986 44.2508 5.14386 43.609 5.2806Z" fill="url(#paint39_radial_560_3370)"/>
<path d="M41.2255 18.772C41.5464 19.1366 42.3716 18.9999 42.0965 19.3645C41.8673 19.7292 41.3631 19.7292 41.088 19.2734C40.813 18.9087 40.9963 18.5441 41.2255 18.772Z" fill="url(#paint40_radial_560_3370)"/>
<path d="M42.0046 15.1712C41.9588 14.8978 42.0046 14.3508 42.463 14.3052C42.9215 14.2596 43.059 14.6699 43.1507 14.9433C43.334 15.627 43.1507 15.9005 42.7839 15.9461C42.4172 15.9916 41.913 16.9488 42.5089 17.2223C43.1048 17.4958 43.1507 16.8121 43.4257 16.9944C43.7008 17.1767 43.5632 18.4073 43.059 18.5441C42.5089 18.6352 42.3714 18.2706 42.2338 17.8604C42.0505 17.4502 41.5921 17.6781 41.2712 17.906C40.9961 18.1339 40.4919 17.6325 40.8128 17.04C41.1337 16.4474 41.4545 16.8121 41.8213 16.3107C42.188 15.7182 42.0963 15.5359 42.0046 15.1712Z" fill="url(#paint41_radial_560_3370)"/>
<path opacity="0.67" d="M34.2576 19.1366C34.2576 19.1366 33.6158 19.091 33.9367 17.5869C34.3493 15.4903 33.7992 13.3936 33.7992 13.3936C33.7992 13.3936 31.2779 13.2569 29.6276 14.3052C28.2066 15.2168 28.0232 14.6243 28.0232 14.6243C28.0232 14.6243 26.4188 15.8549 25.9604 17.1767C25.6853 17.9971 25.5936 17.8604 25.4103 17.7692C25.0436 18.9543 26.2354 20.7319 26.9689 21.8713C26.1896 21.0965 24.2184 20.504 23.2558 20.5495C23.2558 20.7319 23.2558 20.9142 22.5681 20.9597C21.468 21.0509 20.1386 22.1904 20.1386 22.1904C20.1386 22.1904 20.5511 22.4639 19.5885 23.3754C18.4883 24.4237 18.1216 26.3836 18.1216 26.3836C18.1216 26.3836 19.6802 27.2041 21.3304 27.2496C22.5223 27.2952 22.4765 27.751 22.4765 27.751C23.4391 27.5687 23.9434 27.3408 24.9977 26.566C25.1352 26.4748 25.1811 26.885 25.1811 26.885C25.1811 26.885 25.777 26.2013 26.2354 25.2897C26.2813 25.5176 26.3271 25.6544 26.3271 25.6544C26.3271 25.6544 26.4646 25.4721 26.5105 25.5632C26.8772 26.4292 27.1522 26.7483 27.6106 27.2041C27.6106 27.2041 27.7023 26.885 28.3899 27.3864C29.3526 28.0245 30.4069 28.2068 30.4069 28.2068C30.4069 28.2068 30.7278 26.9762 30.3611 25.9734C30.0861 25.1074 30.3611 25.1074 30.3611 25.1074C30.3611 25.1074 29.9027 23.968 29.3526 23.4666C29.2151 23.3754 29.1692 23.2843 29.1234 23.2387C30.7737 23.0564 32.3781 22.236 32.3781 22.236C32.3781 22.236 31.8738 22.0536 32.0572 21.9169C33.3408 20.823 33.7075 20.2305 34.2576 19.1366Z" fill="url(#paint42_radial_560_3370)"/>
<path d="M26.5565 20.4584C25.823 19.3645 24.677 17.0399 25.0437 15.7637C25.2271 15.8093 25.5021 15.8549 25.7772 15.0345C26.1897 13.7127 27.9775 12.4365 27.9775 12.4365C27.9775 12.4365 28.1609 13.029 29.582 12.1174C31.2322 11.0691 33.7535 11.2058 33.7535 11.2058C33.7535 11.2058 34.3494 13.348 33.891 15.3991C33.5701 16.9032 34.2119 16.9488 34.2119 16.9488C33.7077 18.0427 33.2951 18.6352 32.0115 19.7291C31.8282 19.8658 32.3324 20.0481 32.3324 20.0481C32.3324 20.0481 29.4444 21.5523 27.3816 20.9597C26.7857 21.0965 26.5565 20.4584 26.5565 20.4584Z" fill="url(#paint43_linear_560_3370)"/>
<path d="M26.8773 20.1393C26.1897 19.1366 25.8229 17.8604 26.1438 16.6753C26.3272 16.7209 26.6022 16.7209 26.8773 15.9461C27.2899 14.7154 28.6651 13.576 28.6651 13.576C28.6651 13.576 28.986 13.895 30.2695 13.0746C31.7823 12.1174 33.4784 11.6161 33.4784 11.6161C33.4784 11.6161 34.0285 13.576 33.6159 15.4903C33.3409 16.8576 33.8909 16.9032 33.8909 16.9032C33.3867 17.906 33.02 18.4529 31.8739 19.4556C31.5072 19.7747 31.9656 19.9114 31.9656 19.9114C31.9656 19.9114 29.5361 21.0965 27.6566 20.5951C27.0607 20.6863 26.8773 20.1393 26.8773 20.1393Z" fill="url(#paint44_linear_560_3370)"/>
<path d="M28.2527 17.9972C28.4819 16.6754 30.0405 16.6298 30.0405 15.855C30.0405 15.0801 30.4989 14.3509 31.5074 13.5304C32.195 12.9835 32.9743 12.0719 33.4328 11.525C33.1119 11.525 31.049 11.4794 29.6738 12.391C28.3903 13.2114 28.2069 12.71 28.2069 12.71C28.2069 12.71 26.5566 13.8951 26.1899 15.1257C25.9607 15.855 25.6856 15.9006 25.5023 15.855C25.1356 17.04 26.2357 19.1367 26.8775 20.1394C26.8775 20.1394 26.9233 20.3217 27.0609 20.4129C27.4734 19.319 28.0235 19.2734 28.2527 17.9972Z" fill="url(#paint45_linear_560_3370)"/>
<path d="M33.02 16.8577C32.4699 16.8121 31.6906 16.5842 31.1864 16.8121C30.6821 17.04 30.3154 16.4475 29.857 16.7209C29.3528 16.9944 28.5735 17.4958 28.8027 17.8604C29.0319 18.225 29.7195 17.7693 30.3613 17.9972C31.003 18.225 32.1949 17.6325 32.6075 17.6325C33.02 17.6325 33.8452 16.9488 33.02 16.8577Z" fill="url(#paint46_linear_560_3370)"/>
<path d="M33.295 15.4447C33.1575 15.6726 32.9742 16.0828 32.3324 16.2651C31.6906 16.4018 31.1864 16.6753 30.8196 16.4474C30.4529 16.2651 30.2237 15.9005 30.4071 15.3991C30.5904 14.9433 30.7738 14.4419 31.4614 14.5331C32.1949 14.6243 32.149 14.5787 32.6991 14.5787C33.2034 14.6243 33.8451 14.3052 33.295 15.4447Z" fill="url(#paint47_linear_560_3370)"/>
<path d="M33.2036 12.2086C33.0661 12.5277 32.1493 13.3025 31.7367 13.6671C31.3241 14.0318 31.4617 14.2597 31.7367 14.2597C32.0117 14.3052 32.6994 14.1685 33.1119 14.0318C33.5245 13.895 33.387 13.7583 33.2495 13.6216C33.0661 13.4848 33.0661 13.3937 33.2495 13.029C33.4328 12.71 33.2036 12.2086 33.2036 12.2086Z" fill="url(#paint48_linear_560_3370)"/>
<path d="M31.0032 18.8175C30.5906 18.6808 29.9947 18.5896 29.5821 18.7264C29.1696 18.8631 28.2528 18.9998 27.886 19.5012C27.4735 20.0026 27.5651 20.1849 28.0236 19.957C28.482 19.7747 29.3988 19.8658 29.7655 19.8203C30.1781 19.7291 30.8198 19.1366 31.1407 19.091C31.4616 19.091 31.645 18.9998 31.0032 18.8175Z" fill="url(#paint49_linear_560_3370)"/>
<path d="M32.7451 12.1631C32.7451 12.1631 31.8282 13.0746 31.4157 13.3937C31.0031 13.7127 31.0948 13.4393 30.9573 12.8923C30.8197 12.2998 31.2323 12.0719 31.2323 12.0719C31.2323 12.0719 31.6449 12.1175 31.7824 12.2542C31.9199 12.3454 32.2408 12.0263 32.7451 12.1631Z" fill="url(#paint50_linear_560_3370)"/>
<path d="M30.4072 12.4365C30.4072 12.8467 30.6364 13.7127 30.4072 14.2597C30.178 14.8066 29.9946 15.3536 29.9488 15.6726C29.9029 15.9917 29.4904 15.1713 29.4445 14.4876C29.3987 13.8039 29.8571 13.576 29.4904 13.6672C29.1236 13.7127 29.0778 13.4848 29.3528 13.1202C29.6737 12.6644 30.4072 12.4365 30.4072 12.4365Z" fill="url(#paint51_linear_560_3370)"/>
<path d="M28.8487 13.576C28.9404 13.9406 28.9863 14.3052 29.0321 14.8978C29.0779 15.4447 29.6739 16.0828 29.628 16.2651C29.5822 16.4474 28.8946 16.5842 28.6654 16.8577C28.4362 17.1767 28.3445 17.6325 27.9778 16.9944C27.5652 16.3107 27.8402 15.5359 27.5193 15.2168C27.1985 14.9433 27.6569 13.4392 28.1153 13.029C28.5737 13.2569 28.8029 13.3025 28.8487 13.576Z" fill="url(#paint52_linear_560_3370)"/>
<path d="M26.8317 14.3964C26.74 14.7611 27.4276 15.308 27.1984 16.2652C26.9692 17.2223 27.4276 17.6325 27.611 17.9516C27.7943 18.2706 27.7027 18.8632 27.3818 19.2278C27.015 19.638 27.1984 18.772 26.6942 18.1339C26.1899 17.4502 26.0524 16.6754 26.2357 15.8094C26.3274 14.9434 26.8317 14.3964 26.8317 14.3964Z" fill="url(#paint53_linear_560_3370)"/>
<path d="M26.6023 20.3672C25.9147 19.6379 24.3103 18.2706 23.2101 18.3617C23.2101 18.544 23.2101 18.7264 22.5225 18.7719C21.4223 18.8631 20.0929 20.0026 20.0929 20.0026C20.0929 20.0026 20.5055 20.276 19.5428 21.1876C18.4427 22.2359 18.0759 24.1958 18.0759 24.1958C18.0759 24.1958 19.6345 25.0163 21.2848 25.0618C22.4767 25.1074 22.4308 25.5632 22.4308 25.5632C23.3935 25.3809 23.8977 25.153 24.9521 24.3782C25.0896 24.287 25.1354 24.6972 25.1354 24.6972C25.1354 24.6972 26.8315 22.7829 26.7399 21.0965C27.0149 20.6407 26.6023 20.3672 26.6023 20.3672Z" fill="url(#paint54_linear_560_3370)"/>
<path d="M26.2355 20.5495C25.5937 19.8658 24.6769 19.3189 23.6684 19.3645C23.6684 19.5012 23.6226 19.7291 22.9808 19.7747C21.9723 19.8658 20.7805 20.7318 20.7805 20.7318C20.7805 20.7318 20.9638 21.0053 20.0928 21.8713C19.0843 22.8285 18.3967 24.0591 18.3967 24.0591C18.3967 24.0591 19.8178 24.8339 21.3764 24.8795C22.4766 24.9251 22.4307 25.3809 22.4307 25.3809C23.3017 25.1986 23.806 25.0163 24.7686 24.287C25.0895 24.0591 25.0895 24.4237 25.0895 24.4237C25.0895 24.4237 26.4647 22.7829 26.4189 21.2332C26.6481 20.823 26.2355 20.5495 26.2355 20.5495Z" fill="url(#paint55_linear_560_3370)"/>
<path d="M24.3559 21.2333C23.2557 21.1877 22.9806 22.3728 22.3847 22.236C21.7888 22.0993 21.1012 22.3272 20.3219 22.9197C19.7718 23.3299 18.9466 23.7857 18.4424 24.0136C18.4882 23.7401 18.855 22.1905 19.7718 21.2789C20.6427 20.4585 20.276 20.2306 20.276 20.2306C20.276 20.2306 21.4679 19.1822 22.4764 19.1367C23.1182 19.0911 23.164 18.9088 23.164 18.772C24.1267 18.7265 25.5477 19.9115 26.1895 20.5952C26.1895 20.5952 26.2812 20.6863 26.3729 20.7775C25.5477 20.8231 25.3644 21.2789 24.3559 21.2333Z" fill="url(#paint56_linear_560_3370)"/>
<path d="M22.6141 24.6517C22.6599 24.1959 22.6599 23.6033 22.8892 23.2387C23.1642 22.8741 22.7516 22.5094 23.0725 22.1904C23.3476 21.8713 23.8977 21.3244 24.1727 21.5979C24.4019 21.8258 23.9435 22.2816 23.9893 22.8285C24.0352 23.3755 23.3934 24.1503 23.3017 24.4693C23.21 24.7884 22.5224 25.2898 22.6141 24.6517Z" fill="url(#paint57_linear_560_3370)"/>
<path d="M21.4682 24.6061C21.6974 24.5605 22.0183 24.4694 22.2475 24.0136C22.4767 23.5578 22.7518 23.1931 22.6601 22.8741C22.5684 22.555 22.3392 22.3271 21.9266 22.3727C21.5141 22.4183 21.1015 22.4639 21.0557 23.0108C21.0098 23.5578 20.964 23.5578 20.8723 23.968C20.8723 24.3782 20.5056 24.7884 21.4682 24.6061Z" fill="url(#paint58_linear_560_3370)"/>
<path d="M18.9927 23.968C19.2677 23.9224 20.047 23.3755 20.3679 23.102C20.6888 22.8285 20.8722 23.0108 20.8263 23.2387C20.7805 23.4666 20.5971 23.968 20.4137 24.2415C20.2304 24.515 20.1387 24.4238 20.0929 24.2415C20.047 24.0592 19.9553 24.0592 19.6344 24.1047C19.3136 24.1959 18.9927 23.968 18.9927 23.968Z" fill="url(#paint59_linear_560_3370)"/>
<path d="M24.4933 23.4666C24.4475 23.1476 24.4933 22.6462 24.6767 22.3727C24.8601 22.0537 25.1351 21.4156 25.5935 21.1877C26.0519 20.9598 26.1436 21.051 25.9144 21.37C25.6852 21.6891 25.5935 22.4183 25.456 22.6918C25.3185 22.9653 24.7225 23.3755 24.6767 23.649C24.6309 23.8768 24.5392 24.0136 24.4933 23.4666Z" fill="url(#paint60_linear_560_3370)"/>
<path d="M19.0386 23.5578C19.0386 23.5578 19.9096 23.0108 20.2304 22.7374C20.5513 22.4639 20.3221 22.5095 19.9096 22.2816C19.497 22.0537 19.2219 22.3272 19.2219 22.3272C19.2219 22.3272 19.1761 22.6462 19.2678 22.7829C19.3136 22.9653 19.0386 23.1932 19.0386 23.5578Z" fill="url(#paint61_linear_560_3370)"/>
<path d="M19.6804 21.8258C20.0013 21.917 20.6431 22.236 21.1015 22.1449C21.5599 22.0537 22.0183 22.0537 22.2934 22.0537C22.5684 22.0537 21.9725 21.6435 21.4682 21.4612C20.964 21.2789 20.6889 21.6435 20.8264 21.37C20.9181 21.0965 20.7806 21.051 20.4139 21.1877C20.0013 21.3244 19.6804 21.8258 19.6804 21.8258Z" fill="url(#paint62_linear_560_3370)"/>
<path d="M20.8263 20.8686C21.1014 21.0053 21.3764 21.0965 21.789 21.2788C22.2015 21.4156 22.6141 21.9625 22.7516 21.9625C22.8892 21.9625 23.1184 21.4611 23.3934 21.3244C23.6685 21.2332 24.081 21.2332 23.6226 20.823C23.1642 20.4128 22.5224 20.4584 22.3391 20.1393C22.1557 19.8659 20.918 19.9115 20.5513 20.2305C20.643 20.5951 20.643 20.7775 20.8263 20.8686Z" fill="url(#paint63_linear_560_3370)"/>
<path d="M21.835 19.4557C22.1558 19.4557 22.4309 20.0482 23.2102 20.0938C23.9895 20.0938 24.2187 20.5496 24.4479 20.7319C24.6771 20.9142 25.1355 20.9598 25.5022 20.7775C25.869 20.5952 25.1813 20.5496 24.7688 20.0482C24.3562 19.5468 23.7603 19.3189 23.0268 19.2734C22.3392 19.1822 21.835 19.4557 21.835 19.4557Z" fill="url(#paint64_linear_560_3370)"/>
<path d="M26.6481 20.504C27.2441 20.3672 28.4818 20.2761 29.0777 20.7319C29.0319 20.823 28.986 20.9142 29.3527 21.2332C29.9487 21.7346 30.3612 22.8741 30.3612 22.8741C30.3612 22.8741 30.0862 22.8741 30.3612 23.7401C30.6821 24.7428 30.4071 25.9735 30.4071 25.9735C30.4071 25.9735 29.3069 25.8367 28.3901 25.153C27.7025 24.6972 27.6108 24.9707 27.6108 24.9707C27.1524 24.4693 26.8773 24.1503 26.5106 23.3299C26.4648 23.2387 26.3272 23.421 26.3272 23.421C26.3272 23.421 25.9147 21.689 26.3731 20.7775C26.3272 20.504 26.6481 20.504 26.6481 20.504Z" fill="url(#paint65_linear_560_3370)"/>
<path d="M26.7859 20.7318C27.336 20.5951 27.9778 20.6863 28.5279 21.0965C28.482 21.1876 28.482 21.3244 28.8029 21.5978C29.353 22.0536 29.7656 22.9652 29.7656 22.9652C29.7656 22.9652 29.5822 23.0564 29.8573 23.8768C30.1781 24.8339 30.224 25.7455 30.224 25.7455C30.224 25.7455 29.2155 25.6088 28.3445 25.0163C27.7027 24.6061 27.6569 24.8795 27.6569 24.8795C27.1985 24.4237 27.0151 24.1503 26.6484 23.3754C26.5567 23.1475 26.4192 23.3298 26.4192 23.3298C26.4192 23.3298 26.0983 21.8713 26.5109 21.0509C26.5109 20.7318 26.7859 20.7318 26.7859 20.7318Z" fill="url(#paint66_linear_560_3370)"/>
<path d="M27.6569 21.8714C28.2528 22.2816 28.1153 23.0564 28.482 23.1932C28.8487 23.3299 29.1696 23.7401 29.4447 24.3782C29.628 24.834 29.9948 25.4265 30.224 25.7456C30.2698 25.5633 30.499 24.5605 30.1781 23.6945C29.9031 22.8741 30.1781 22.9197 30.1781 22.9197C30.1781 22.9197 29.7656 21.8714 29.2155 21.4156C28.8946 21.1421 28.8946 21.0054 28.9404 20.9142C28.3903 20.504 27.2902 20.5952 26.7401 20.7319C26.7401 20.7319 26.6484 20.7319 26.6025 20.7775C27.1068 21.1877 27.1068 21.4612 27.6569 21.8714Z" fill="url(#paint67_linear_560_3370)"/>
<path d="M27.7484 24.4238C27.6567 24.3326 27.4733 24.1503 27.4275 23.7856C27.4275 23.421 27.5192 22.8285 27.6567 22.6918C27.7942 22.555 27.8859 22.7373 28.0234 22.9652C28.3443 23.4666 28.7569 23.4666 28.6194 23.7856C28.4818 24.1047 28.4818 24.1959 28.3901 24.4693C28.3443 24.6516 28.3443 24.8795 28.0693 24.6972C28.0693 24.6972 27.8401 24.5149 27.7484 24.4238Z" fill="url(#paint68_linear_560_3370)"/>
<path d="M29.949 25.4721C29.8114 25.3353 29.5364 24.7428 29.3989 24.4693C29.2613 24.1958 28.9863 23.7401 28.9405 23.8768C28.8946 24.0135 28.5737 24.6061 28.5737 24.834C28.6196 25.0618 28.8488 25.1074 28.9405 25.153C29.1238 25.1986 29.2613 25.3353 29.5822 25.4265C29.7656 25.5176 29.949 25.4721 29.949 25.4721Z" fill="url(#paint69_linear_560_3370)"/>
<path d="M27.2441 23.6945C27.3358 23.5122 27.29 23.1476 27.3358 22.8741C27.4275 22.6006 27.7025 22.1448 27.4275 21.9169C27.1525 21.689 26.7399 21.0965 26.6482 21.37C26.5565 21.7346 26.4648 22.1904 26.4648 22.3727C26.4648 22.6006 26.7399 22.9197 26.7399 23.102C26.8316 23.3299 27.0608 23.968 27.2441 23.6945Z" fill="url(#paint70_linear_560_3370)"/>
<path d="M30.1324 25.3809C30.1324 25.3809 29.4906 24.1503 29.3531 23.8768C29.2156 23.6034 29.4448 23.6489 29.7198 23.7401C29.9949 23.7857 30.1324 23.8768 30.1324 23.8768C30.1324 23.8768 30.2699 24.4238 30.1783 24.6973C30.0407 24.9707 30.2241 25.153 30.1324 25.3809Z" fill="url(#paint71_linear_560_3370)"/>
<path d="M29.9488 23.6034C29.7654 23.5578 29.2611 23.5578 29.1695 23.4666C28.8944 23.1932 28.5735 23.0564 28.5277 23.0108C28.436 22.9653 28.3902 22.5551 28.2985 22.3727C28.2068 22.1904 28.161 22.1448 28.5277 22.0993C28.8944 22.0537 29.0778 22.2816 29.3528 22.236C29.5362 22.1904 29.9488 22.5095 30.0863 22.8285C29.7196 23.0108 30.0863 23.6034 29.9488 23.6034Z" fill="url(#paint72_linear_560_3370)"/>
<path d="M29.7195 22.1904C29.261 21.9169 29.261 22.0993 28.7568 21.9169C28.4817 21.8258 28.2984 21.9169 28.115 21.9169C27.9317 21.9169 27.2899 21.4156 27.1524 21.1421C27.0148 20.8686 27.3816 21.1421 27.7483 21.0509C28.115 20.9598 28.5276 21.0509 28.9402 21.3244C29.3069 21.5523 29.7195 22.1904 29.7195 22.1904Z" fill="url(#paint73_linear_560_3370)"/>
</g>
<defs>
<filter id="filter0_d_560_3370" x="-0.5" y="0.480011" width="56.3557" height="56.08" filterUnits="userSpaceOnUse" color-interpolation-filters="sRGB">
<feFlood flood-opacity="0" result="BackgroundImageFix"/>
<feColorMatrix in="SourceAlpha" type="matrix" values="0 0 0 0 0 0 0 0 0 0 0 0 0 0 0 0 0 0 127 0" result="hardAlpha"/>
<feOffset dx="2" dy="3"/>
<feGaussianBlur stdDeviation="3"/>
<feComposite in2="hardAlpha" operator="out"/>
<feColorMatrix type="matrix" values="0 0 0 0 0 0 0 0 0 0 0 0 0 0 0 0 0 0 0.1 0"/>
<feBlend mode="normal" in2="BackgroundImageFix" result="effect1_dropShadow_560_3370"/>
<feBlend mode="normal" in="SourceGraphic" in2="effect1_dropShadow_560_3370" result="shape"/>
</filter>
<radialGradient id="paint0_radial_560_3370" cx="0" cy="0" r="1" gradientUnits="userSpaceOnUse" gradientTransform="translate(43.1222 8.12146) rotate(-135.164) scale(41.0751 41.0745)">
<stop offset="0.7624" stop-color="#DBC1C3"/>
<stop offset="0.8074" stop-color="#E8D6D4"/>
<stop offset="0.8684" stop-color="#F6ECE7"/>
<stop offset="0.9057" stop-color="#FCF5EF"/>
<stop offset="0.9324" stop-color="#F5EAE6"/>
<stop offset="0.9794" stop-color="#E3CFCE"/>
<stop offset="1" stop-color="#DBC1C3"/>
</radialGradient>
<linearGradient id="paint1_linear_560_3370" x1="40.6774" y1="10.5787" x2="8.17245" y2="43.2704" gradientUnits="userSpaceOnUse">
<stop stop-color="#861811"/>
<stop offset="1" stop-color="#370F13"/>
</linearGradient>
<radialGradient id="paint2_radial_560_3370" cx="0" cy="0" r="1" gradientUnits="userSpaceOnUse" gradientTransform="translate(35.423 14.5309) scale(6.22521 6.18964)">
<stop stop-color="#370F13"/>
<stop offset="1" stop-color="#861811"/>
</radialGradient>
<radialGradient id="paint3_radial_560_3370" cx="0" cy="0" r="1" gradientUnits="userSpaceOnUse" gradientTransform="translate(32.8366 23.3559) scale(6.33529 6.29909)">
<stop stop-color="#370F13"/>
<stop offset="1" stop-color="#861811"/>
</radialGradient>
<radialGradient id="paint4_radial_560_3370" cx="0" cy="0" r="1" gradientUnits="userSpaceOnUse" gradientTransform="translate(24.0294 28.3997) scale(11.7187 11.6517)">
<stop stop-color="#370F13"/>
<stop offset="1" stop-color="#861811"/>
</radialGradient>
<radialGradient id="paint5_radial_560_3370" cx="0" cy="0" r="1" gradientUnits="userSpaceOnUse" gradientTransform="translate(35.2311 35.2425) scale(8.19984 8.15299)">
<stop stop-color="#370F13"/>
<stop offset="1" stop-color="#861811"/>
</radialGradient>
<radialGradient id="paint6_radial_560_3370" cx="0" cy="0" r="1" gradientUnits="userSpaceOnUse" gradientTransform="translate(26.123 15.7898) scale(8.73786 8.68792)">
<stop stop-color="#370F13"/>
<stop offset="1" stop-color="#861811"/>
</radialGradient>
<radialGradient id="paint7_radial_560_3370" cx="0" cy="0" r="1" gradientUnits="userSpaceOnUse" gradientTransform="translate(17.6151 21.5631) scale(8.33332 8.2857)">
<stop stop-color="#370F13"/>
<stop offset="1" stop-color="#861811"/>
</radialGradient>
<radialGradient id="paint8_radial_560_3370" cx="0" cy="0" r="1" gradientUnits="userSpaceOnUse" gradientTransform="translate(43.4965 10.6225) scale(4.01157 3.98865)">
<stop stop-color="#370F13"/>
<stop offset="1" stop-color="#861811"/>
</radialGradient>
<radialGradient id="paint9_radial_560_3370" cx="0" cy="0" r="1" gradientUnits="userSpaceOnUse" gradientTransform="translate(34.8427 11.5511) scale(4.59327 4.56702)">
<stop stop-color="#E7421F"/>
<stop offset="0.2519" stop-color="#DD3A1D"/>
<stop offset="0.6673" stop-color="#C12719"/>
<stop offset="0.9074" stop-color="#AF1917"/>
</radialGradient>
<radialGradient id="paint10_radial_560_3370" cx="0" cy="0" r="1" gradientUnits="userSpaceOnUse" gradientTransform="translate(34.4194 9.17283) scale(4.07545 4.05217)">
<stop offset="0.092649" stop-color="#EF7D53"/>
<stop offset="0.4284" stop-color="#EC6339"/>
<stop offset="0.7841" stop-color="#E94C25"/>
<stop offset="1" stop-color="#E7421F"/>
</radialGradient>
<radialGradient id="paint11_radial_560_3370" cx="0" cy="0" r="1" gradientUnits="userSpaceOnUse" gradientTransform="translate(36.0972 12.681) scale(0.943573 0.938177)">
<stop offset="0.092649" stop-color="#EF7D53"/>
<stop offset="0.1242" stop-color="#EF7A50"/>
<stop offset="0.5103" stop-color="#EA572D"/>
<stop offset="0.8154" stop-color="#E7401B"/>
<stop offset="1" stop-color="#E63714"/>
</radialGradient>
<radialGradient id="paint12_radial_560_3370" cx="0" cy="0" r="1" gradientUnits="userSpaceOnUse" gradientTransform="translate(33.8966 12.3758) scale(0.954049 0.9486)">
<stop offset="0.092649" stop-color="#EF7D53"/>
<stop offset="0.4284" stop-color="#EC6339"/>
<stop offset="0.7841" stop-color="#E94C25"/>
<stop offset="1" stop-color="#E7421F"/>
</radialGradient>
<radialGradient id="paint13_radial_560_3370" cx="0" cy="0" r="1" gradientUnits="userSpaceOnUse" gradientTransform="translate(43.4602 8.54812) rotate(60.0084) scale(3.89721 3.90844)">
<stop stop-color="#E7421F"/>
<stop offset="0.2519" stop-color="#DD3A1D"/>
<stop offset="0.6673" stop-color="#C12719"/>
<stop offset="0.9074" stop-color="#AF1917"/>
</radialGradient>
<radialGradient id="paint14_radial_560_3370" cx="0" cy="0" r="1" gradientUnits="userSpaceOnUse" gradientTransform="translate(23.8534 26.1705) scale(4.83641 4.80877)">
<stop stop-color="#E7421F"/>
<stop offset="0.2519" stop-color="#DD3A1D"/>
<stop offset="0.6673" stop-color="#C12719"/>
<stop offset="0.9074" stop-color="#AF1917"/>
</radialGradient>
<radialGradient id="paint15_radial_560_3370" cx="0" cy="0" r="1" gradientUnits="userSpaceOnUse" gradientTransform="translate(23.408 23.6665) scale(4.29119 4.26667)">
<stop offset="0.092649" stop-color="#EF7D53"/>
<stop offset="0.4284" stop-color="#EC6339"/>
<stop offset="0.7841" stop-color="#E94C25"/>
<stop offset="1" stop-color="#E7421F"/>
</radialGradient>
<radialGradient id="paint16_radial_560_3370" cx="0" cy="0" r="1" gradientUnits="userSpaceOnUse" gradientTransform="translate(25.1742 27.3603) scale(0.993689 0.988007)">
<stop offset="0.092649" stop-color="#EF7D53"/>
<stop offset="0.1242" stop-color="#EF7A50"/>
<stop offset="0.5103" stop-color="#EA572D"/>
<stop offset="0.8154" stop-color="#E7401B"/>
<stop offset="1" stop-color="#E63714"/>
</radialGradient>
<radialGradient id="paint17_radial_560_3370" cx="0" cy="0" r="1" gradientUnits="userSpaceOnUse" gradientTransform="translate(22.8575 27.0392) scale(1.00443 0.998686)">
<stop offset="0.092649" stop-color="#EF7D53"/>
<stop offset="0.4284" stop-color="#EC6339"/>
<stop offset="0.7841" stop-color="#E94C25"/>
<stop offset="1" stop-color="#E7421F"/>
</radialGradient>
<radialGradient id="paint18_radial_560_3370" cx="0" cy="0" r="1" gradientUnits="userSpaceOnUse" gradientTransform="translate(34.1895 33.5892) rotate(76.2168) scale(4.81039 4.8349)">
<stop stop-color="#E7421F"/>
<stop offset="0.2519" stop-color="#DD3A1D"/>
<stop offset="0.6673" stop-color="#C12719"/>
<stop offset="0.9074" stop-color="#AF1917"/>
</radialGradient>
<radialGradient id="paint19_radial_560_3370" cx="0" cy="0" r="1" gradientUnits="userSpaceOnUse" gradientTransform="translate(34.5445 30.1547) rotate(35.0636) scale(4.28345 4.27517)">
<stop offset="0.092649" stop-color="#EF7D53"/>
<stop offset="0.4284" stop-color="#EC6339"/>
<stop offset="0.7841" stop-color="#E94C25"/>
<stop offset="1" stop-color="#E7421F"/>
</radialGradient>
<radialGradient id="paint20_radial_560_3370" cx="0" cy="0" r="1" gradientUnits="userSpaceOnUse" gradientTransform="translate(33.8454 34.1854) rotate(35.0637) scale(0.991939 0.990024)">
<stop offset="0.092649" stop-color="#EF7D53"/>
<stop offset="0.1242" stop-color="#EF7A50"/>
<stop offset="0.5103" stop-color="#EA572D"/>
<stop offset="0.8154" stop-color="#E7401B"/>
<stop offset="1" stop-color="#E63714"/>
</radialGradient>
<radialGradient id="paint21_radial_560_3370" cx="0" cy="0" r="1" gradientUnits="userSpaceOnUse" gradientTransform="translate(32.1386 32.5944) rotate(35.0636) scale(1.00266 1.00072)">
<stop offset="0.092649" stop-color="#EF7D53"/>
<stop offset="0.4284" stop-color="#EC6339"/>
<stop offset="0.7841" stop-color="#E94C25"/>
<stop offset="1" stop-color="#E7421F"/>
</radialGradient>
<radialGradient id="paint22_radial_560_3370" cx="0" cy="0" r="1" gradientUnits="userSpaceOnUse" gradientTransform="translate(31.8241 21.2351) rotate(-48.819) scale(4.30635 4.3097)">
<stop stop-color="#E7421F"/>
<stop offset="0.2519" stop-color="#DD3A1D"/>
<stop offset="0.6673" stop-color="#C12719"/>
<stop offset="0.9074" stop-color="#AF1917"/>
</radialGradient>
<radialGradient id="paint23_radial_560_3370" cx="0" cy="0" r="1" gradientUnits="userSpaceOnUse" gradientTransform="translate(25.0975 13.5201) rotate(35.6013) scale(4.37263 4.36463)">
<stop stop-color="#E7421F"/>
<stop offset="0.2519" stop-color="#DD3A1D"/>
<stop offset="0.6673" stop-color="#C12719"/>
<stop offset="0.9074" stop-color="#AF1917"/>
</radialGradient>
<radialGradient id="paint24_radial_560_3370" cx="0" cy="0" r="1" gradientUnits="userSpaceOnUse" gradientTransform="translate(25.4097 11.1249) rotate(16.5421) scale(3.88504 3.86645)">
<stop offset="0.092649" stop-color="#EF7D53"/>
<stop offset="0.4284" stop-color="#EC6339"/>
<stop offset="0.7841" stop-color="#E94C25"/>
<stop offset="1" stop-color="#E7421F"/>
</radialGradient>
<radialGradient id="paint25_radial_560_3370" cx="0" cy="0" r="1" gradientUnits="userSpaceOnUse" gradientTransform="translate(25.9796 14.7858) rotate(16.5422) scale(0.899928 0.895624)">
<stop offset="0.092649" stop-color="#EF7D53"/>
<stop offset="0.1242" stop-color="#EF7A50"/>
<stop offset="0.5103" stop-color="#EA572D"/>
<stop offset="0.8154" stop-color="#E7401B"/>
<stop offset="1" stop-color="#E63714"/>
</radialGradient>
<radialGradient id="paint26_radial_560_3370" cx="0" cy="0" r="1" gradientUnits="userSpaceOnUse" gradientTransform="translate(24.0523 13.91) rotate(16.5421) scale(0.9093 0.90495)">
<stop offset="0.092649" stop-color="#EF7D53"/>
<stop offset="0.4284" stop-color="#EC6339"/>
<stop offset="0.7841" stop-color="#E94C25"/>
<stop offset="1" stop-color="#E7421F"/>
</radialGradient>
<radialGradient id="paint27_radial_560_3370" cx="0" cy="0" r="1" gradientUnits="userSpaceOnUse" gradientTransform="translate(31.1722 19.0729) rotate(147.833) scale(3.87278 3.86323)">
<stop offset="0.092649" stop-color="#EF7D53"/>
<stop offset="0.4284" stop-color="#EC6339"/>
<stop offset="0.7841" stop-color="#E94C25"/>
<stop offset="1" stop-color="#E7421F"/>
</radialGradient>
<radialGradient id="paint28_radial_560_3370" cx="0" cy="0" r="1" gradientUnits="userSpaceOnUse" gradientTransform="translate(31.6175 22.7435) rotate(147.833) scale(0.897051 0.894839)">
<stop offset="0.092649" stop-color="#EF7D53"/>
<stop offset="0.1242" stop-color="#EF7A50"/>
<stop offset="0.5103" stop-color="#EA572D"/>
<stop offset="0.8154" stop-color="#E7401B"/>
<stop offset="1" stop-color="#E63714"/>
</radialGradient>
<radialGradient id="paint29_radial_560_3370" cx="0" cy="0" r="1" gradientUnits="userSpaceOnUse" gradientTransform="translate(33.2321 21.3847) rotate(147.833) scale(0.906586 0.90435)">
<stop offset="0.092649" stop-color="#EF7D53"/>
<stop offset="0.4284" stop-color="#EC6339"/>
<stop offset="0.7841" stop-color="#E94C25"/>
<stop offset="1" stop-color="#E7421F"/>
</radialGradient>
<radialGradient id="paint30_radial_560_3370" cx="0" cy="0" r="1" gradientUnits="userSpaceOnUse" gradientTransform="translate(38.6472 25.9331) rotate(-71.016) scale(3.42006 3.43557)">
<stop stop-color="#E7421F"/>
<stop offset="0.2519" stop-color="#DD3A1D"/>
<stop offset="0.6673" stop-color="#C12719"/>
<stop offset="0.9074" stop-color="#AF1917"/>
</radialGradient>
<radialGradient id="paint31_radial_560_3370" cx="0" cy="0" r="1" gradientUnits="userSpaceOnUse" gradientTransform="translate(38.118 24.6655) rotate(128.403) scale(3.40169 3.25162)">
<stop offset="0.092649" stop-color="#EF7D53"/>
<stop offset="0.4284" stop-color="#EC6339"/>
<stop offset="0.7841" stop-color="#E94C25"/>
<stop offset="1" stop-color="#E7421F"/>
</radialGradient>
<radialGradient id="paint32_radial_560_3370" cx="0" cy="0" r="1" gradientUnits="userSpaceOnUse" gradientTransform="translate(39.8755 15.9607) scale(5.82648 5.79318)">
<stop stop-color="#E7421F"/>
<stop offset="0.2519" stop-color="#DD3A1D"/>
<stop offset="0.6673" stop-color="#C12719"/>
<stop offset="0.9074" stop-color="#AF1917"/>
</radialGradient>
<radialGradient id="paint33_radial_560_3370" cx="0" cy="0" r="1" gradientUnits="userSpaceOnUse" gradientTransform="translate(16.7098 17.9222) rotate(-24.6294) scale(4.35099 4.33479)">
<stop stop-color="#E7421F"/>
<stop offset="0.2519" stop-color="#DD3A1D"/>
<stop offset="0.6673" stop-color="#C12719"/>
<stop offset="0.9074" stop-color="#AF1917"/>
</radialGradient>
<radialGradient id="paint34_radial_560_3370" cx="0" cy="0" r="1" gradientUnits="userSpaceOnUse" gradientTransform="translate(16.189 15.8026) rotate(171.951) scale(4.2904 4.26685)">
<stop offset="0.092649" stop-color="#EF7D53"/>
<stop offset="0.4284" stop-color="#EC6339"/>
<stop offset="0.7841" stop-color="#E94C25"/>
<stop offset="1" stop-color="#E7421F"/>
</radialGradient>
<radialGradient id="paint35_radial_560_3370" cx="0" cy="0" r="1" gradientUnits="userSpaceOnUse" gradientTransform="translate(14.9631 19.7068) rotate(171.951) scale(0.993747 0.988292)">
<stop offset="0.092649" stop-color="#EF7D53"/>
<stop offset="0.1242" stop-color="#EF7A50"/>
<stop offset="0.5103" stop-color="#EA572D"/>
<stop offset="0.8154" stop-color="#E7401B"/>
<stop offset="1" stop-color="#E63714"/>
</radialGradient>
<radialGradient id="paint36_radial_560_3370" cx="0" cy="0" r="1" gradientUnits="userSpaceOnUse" gradientTransform="translate(17.2119 19.0646) rotate(171.951) scale(1.00457 0.999058)">
<stop offset="0.092649" stop-color="#EF7D53"/>
<stop offset="0.4284" stop-color="#EC6339"/>
<stop offset="0.7841" stop-color="#E94C25"/>
<stop offset="1" stop-color="#E7421F"/>
</radialGradient>
<radialGradient id="paint37_radial_560_3370" cx="0" cy="0" r="1" gradientUnits="userSpaceOnUse" gradientTransform="translate(44.3573 9.44017) rotate(60.0084) scale(0.989303 0.992157)">
<stop offset="0.092649" stop-color="#EF7D53"/>
<stop offset="0.1242" stop-color="#EF7A50"/>
<stop offset="0.5103" stop-color="#EA572D"/>
<stop offset="0.8154" stop-color="#E7401B"/>
<stop offset="1" stop-color="#E63714"/>
</radialGradient>
<radialGradient id="paint38_radial_560_3370" cx="0" cy="0" r="1" gradientUnits="userSpaceOnUse" gradientTransform="translate(43.3936 7.3179) rotate(60.0084) scale(1.00025 1.00314)">
<stop offset="0.092649" stop-color="#EF7D53"/>
<stop offset="0.4284" stop-color="#EC6339"/>
<stop offset="0.7841" stop-color="#E94C25"/>
<stop offset="1" stop-color="#E7421F"/>
</radialGradient>
<radialGradient id="paint39_radial_560_3370" cx="0" cy="0" r="1" gradientUnits="userSpaceOnUse" gradientTransform="translate(44.294 6.00404) scale(2.96142 2.94449)">
<stop offset="0.092649" stop-color="#EF7D53"/>
<stop offset="0.4284" stop-color="#EC6339"/>
<stop offset="0.7841" stop-color="#E94C25"/>
<stop offset="1" stop-color="#E7421F"/>
</radialGradient>
<radialGradient id="paint40_radial_560_3370" cx="0" cy="0" r="1" gradientUnits="userSpaceOnUse" gradientTransform="translate(41.6043 18.9825) rotate(-173.793) scale(0.950379 0.945077)">
<stop offset="0.092649" stop-color="#EF7D53"/>
<stop offset="0.1242" stop-color="#EF7A50"/>
<stop offset="0.5103" stop-color="#EA572D"/>
<stop offset="0.8154" stop-color="#E7401B"/>
<stop offset="1" stop-color="#E63714"/>
</radialGradient>
<radialGradient id="paint41_radial_560_3370" cx="0" cy="0" r="1" gradientUnits="userSpaceOnUse" gradientTransform="translate(40.777 12.7483) scale(7.21421 7.17298)">
<stop offset="0.092649" stop-color="#EF7D53"/>
<stop offset="0.4284" stop-color="#EC6339"/>
<stop offset="0.7841" stop-color="#E94C25"/>
<stop offset="1" stop-color="#E7421F"/>
</radialGradient>
<radialGradient id="paint42_radial_560_3370" cx="0" cy="0" r="1" gradientUnits="userSpaceOnUse" gradientTransform="translate(25.2154 20.6076) scale(11.5531 11.4871)">
<stop offset="0.4971" stop-color="#1C080E"/>
<stop offset="0.5357" stop-color="#240D12"/>
<stop offset="0.7534" stop-color="#521A1A"/>
<stop offset="0.914" stop-color="#701917"/>
<stop offset="0.9992" stop-color="#7C1715"/>
</radialGradient>
<linearGradient id="paint43_linear_560_3370" x1="28.1534" y1="10.2668" x2="30.5328" y2="19.9052" gradientUnits="userSpaceOnUse">
<stop stop-color="#6BAE2E"/>
<stop offset="0.3621" stop-color="#5DA130"/>
<stop offset="1" stop-color="#3D8433"/>
</linearGradient>
<linearGradient id="paint44_linear_560_3370" x1="32.931" y1="19.1422" x2="29.2343" y2="14.063" gradientUnits="userSpaceOnUse">
<stop stop-color="#6BAE2E"/>
<stop offset="0.3621" stop-color="#5DA130"/>
<stop offset="1" stop-color="#3D8433"/>
</linearGradient>
<linearGradient id="paint45_linear_560_3370" x1="25.2369" y1="8.35362" x2="29.0256" y2="15.1823" gradientUnits="userSpaceOnUse">
<stop stop-color="#6BAE2E"/>
<stop offset="0.3621" stop-color="#5DA130"/>
<stop offset="1" stop-color="#3D8433"/>
</linearGradient>
<linearGradient id="paint46_linear_560_3370" x1="31.0562" y1="17.7662" x2="31.1943" y2="16.0652" gradientUnits="userSpaceOnUse">
<stop stop-color="#6BAE2E"/>
<stop offset="0.5042" stop-color="#7CB62E"/>
<stop offset="1" stop-color="#91C02E"/>
</linearGradient>
<linearGradient id="paint47_linear_560_3370" x1="32.1066" y1="16.0782" x2="31.7487" y2="14.0933" gradientUnits="userSpaceOnUse">
<stop stop-color="#6BAE2E"/>
<stop offset="0.5042" stop-color="#7CB62E"/>
<stop offset="1" stop-color="#91C02E"/>
</linearGradient>
<linearGradient id="paint48_linear_560_3370" x1="32.7393" y1="14.2123" x2="32.1526" y2="12.1745" gradientUnits="userSpaceOnUse">
<stop stop-color="#6BAE2E"/>
<stop offset="0.5042" stop-color="#7CB62E"/>
<stop offset="1" stop-color="#91C02E"/>
</linearGradient>
<linearGradient id="paint49_linear_560_3370" x1="29.5809" y1="19.7663" x2="29.283" y2="17.9721" gradientUnits="userSpaceOnUse">
<stop stop-color="#6BAE2E"/>
<stop offset="0.5042" stop-color="#7CB62E"/>
<stop offset="1" stop-color="#91C02E"/>
</linearGradient>
<linearGradient id="paint50_linear_560_3370" x1="31.0238" y1="10.5241" x2="31.9359" y2="13.6173" gradientUnits="userSpaceOnUse">
<stop offset="0.2331" stop-color="#6BAE2E"/>
<stop offset="0.5108" stop-color="#5DA130"/>
<stop offset="1" stop-color="#3D8433"/>
</linearGradient>
<linearGradient id="paint51_linear_560_3370" x1="31.377" y1="11.2523" x2="29.1669" y2="15.4792" gradientUnits="userSpaceOnUse">
<stop offset="0.2331" stop-color="#6BAE2E"/>
<stop offset="0.5108" stop-color="#5DA130"/>
<stop offset="1" stop-color="#3D8433"/>
</linearGradient>
<linearGradient id="paint52_linear_560_3370" x1="30.1712" y1="13.0614" x2="27.6003" y2="16.5178" gradientUnits="userSpaceOnUse">
<stop offset="0.2331" stop-color="#6BAE2E"/>
<stop offset="0.5108" stop-color="#5DA130"/>
<stop offset="1" stop-color="#3D8433"/>
</linearGradient>
<linearGradient id="paint53_linear_560_3370" x1="29.4635" y1="13.7023" x2="26.0086" y2="18.6904" gradientUnits="userSpaceOnUse">
<stop offset="0.2331" stop-color="#6BAE2E"/>
<stop offset="0.5108" stop-color="#5DA130"/>
<stop offset="1" stop-color="#3D8433"/>
</linearGradient>
<linearGradient id="paint54_linear_560_3370" x1="18.4031" y1="19.7296" x2="25.393" y2="23.3569" gradientUnits="userSpaceOnUse">
<stop stop-color="#6BAE2E"/>
<stop offset="0.3621" stop-color="#5DA130"/>
<stop offset="1" stop-color="#3D8433"/>
</linearGradient>
<linearGradient id="paint55_linear_560_3370" x1="24.3922" y1="24.9997" x2="21.1823" y2="21.2128" gradientUnits="userSpaceOnUse">
<stop stop-color="#6BAE2E"/>
<stop offset="0.3621" stop-color="#5DA130"/>
<stop offset="1" stop-color="#3D8433"/>
</linearGradient>
<linearGradient id="paint56_linear_560_3370" x1="17.456" y1="17.1522" x2="21.9996" y2="21.3407" gradientUnits="userSpaceOnUse">
<stop stop-color="#6BAE2E"/>
<stop offset="0.3621" stop-color="#5DA130"/>
<stop offset="1" stop-color="#3D8433"/>
</linearGradient>
<linearGradient id="paint57_linear_560_3370" x1="23.6706" y1="23.3159" x2="22.3305" y2="23.1102" gradientUnits="userSpaceOnUse">
<stop stop-color="#6BAE2E"/>
<stop offset="0.5042" stop-color="#7CB62E"/>
<stop offset="1" stop-color="#91C02E"/>
</linearGradient>
<linearGradient id="paint58_linear_560_3370" x1="22.174" y1="23.8109" x2="20.7092" y2="23.1663" gradientUnits="userSpaceOnUse">
<stop stop-color="#6BAE2E"/>
<stop offset="0.5042" stop-color="#7CB62E"/>
<stop offset="1" stop-color="#91C02E"/>
</linearGradient>
<linearGradient id="paint59_linear_560_3370" x1="20.6162" y1="23.9535" x2="19.1549" y2="23.122" gradientUnits="userSpaceOnUse">
<stop stop-color="#6BAE2E"/>
<stop offset="0.5042" stop-color="#7CB62E"/>
<stop offset="1" stop-color="#91C02E"/>
</linearGradient>
<linearGradient id="paint60_linear_560_3370" x1="25.4852" y1="22.5535" x2="24.156" y2="21.9906" gradientUnits="userSpaceOnUse">
<stop stop-color="#6BAE2E"/>
<stop offset="0.5042" stop-color="#7CB62E"/>
<stop offset="1" stop-color="#91C02E"/>
</linearGradient>
<linearGradient id="paint61_linear_560_3370" x1="18.0785" y1="21.9701" x2="20.2927" y2="23.249" gradientUnits="userSpaceOnUse">
<stop offset="0.2331" stop-color="#6BAE2E"/>
<stop offset="0.5108" stop-color="#5DA130"/>
<stop offset="1" stop-color="#3D8433"/>
</linearGradient>
<linearGradient id="paint62_linear_560_3370" x1="18.577" y1="22.373" x2="22.2405" y2="21.4278" gradientUnits="userSpaceOnUse">
<stop offset="0.2331" stop-color="#6BAE2E"/>
<stop offset="0.5108" stop-color="#5DA130"/>
<stop offset="1" stop-color="#3D8433"/>
</linearGradient>
<linearGradient id="paint63_linear_560_3370" x1="20.1954" y1="21.7813" x2="23.3226" y2="20.4172" gradientUnits="userSpaceOnUse">
<stop offset="0.2331" stop-color="#6BAE2E"/>
<stop offset="0.5108" stop-color="#5DA130"/>
<stop offset="1" stop-color="#3D8433"/>
</linearGradient>
<linearGradient id="paint64_linear_560_3370" x1="20.82" y1="21.3579" x2="25.2894" y2="19.5863" gradientUnits="userSpaceOnUse">
<stop offset="0.2331" stop-color="#6BAE2E"/>
<stop offset="0.5108" stop-color="#5DA130"/>
<stop offset="1" stop-color="#3D8433"/>
</linearGradient>
<linearGradient id="paint65_linear_560_3370" x1="31.4936" y1="23.2996" x2="26.4937" y2="23.1862" gradientUnits="userSpaceOnUse">
<stop stop-color="#6BAE2E"/>
<stop offset="0.3621" stop-color="#5DA130"/>
<stop offset="1" stop-color="#3D8433"/>
</linearGradient>
<linearGradient id="paint66_linear_560_3370" x1="26.641" y1="23.9061" x2="29.3504" y2="22.8773" gradientUnits="userSpaceOnUse">
<stop stop-color="#6BAE2E"/>
<stop offset="0.3621" stop-color="#5DA130"/>
<stop offset="1" stop-color="#3D8433"/>
</linearGradient>
<linearGradient id="paint67_linear_560_3370" x1="32.6305" y1="22.2963" x2="29.0163" y2="23.1954" gradientUnits="userSpaceOnUse">
<stop stop-color="#6BAE2E"/>
<stop offset="0.3621" stop-color="#5DA130"/>
<stop offset="1" stop-color="#3D8433"/>
</linearGradient>
<linearGradient id="paint68_linear_560_3370" x1="27.6179" y1="23.6802" x2="28.9014" y2="23.7945" gradientUnits="userSpaceOnUse">
<stop stop-color="#6BAE2E"/>
<stop offset="0.5042" stop-color="#7CB62E"/>
<stop offset="1" stop-color="#91C02E"/>
</linearGradient>
<linearGradient id="paint69_linear_560_3370" x1="28.5347" y1="24.6663" x2="30.1861" y2="24.6387" gradientUnits="userSpaceOnUse">
<stop stop-color="#6BAE2E"/>
<stop offset="0.5042" stop-color="#7CB62E"/>
<stop offset="1" stop-color="#91C02E"/>
</linearGradient>
<linearGradient id="paint70_linear_560_3370" x1="26.5408" y1="22.4581" x2="28.2536" y2="22.6357" gradientUnits="userSpaceOnUse">
<stop stop-color="#6BAE2E"/>
<stop offset="0.5042" stop-color="#7CB62E"/>
<stop offset="1" stop-color="#91C02E"/>
</linearGradient>
<linearGradient id="paint71_linear_560_3370" x1="31.132" y1="24.5234" x2="29.1155" y2="24.5705" gradientUnits="userSpaceOnUse">
<stop offset="0.2331" stop-color="#6BAE2E"/>
<stop offset="0.5108" stop-color="#5DA130"/>
<stop offset="1" stop-color="#3D8433"/>
</linearGradient>
<linearGradient id="paint72_linear_560_3370" x1="30.2228" y1="24.261" x2="28.7113" y2="22.0173" gradientUnits="userSpaceOnUse">
<stop offset="0.2331" stop-color="#6BAE2E"/>
<stop offset="0.5108" stop-color="#5DA130"/>
<stop offset="1" stop-color="#3D8433"/>
</linearGradient>
<linearGradient id="paint73_linear_560_3370" x1="29.9287" y1="23.6586" x2="27.6665" y2="20.5522" gradientUnits="userSpaceOnUse">
<stop offset="0.2331" stop-color="#6BAE2E"/>
<stop offset="0.5108" stop-color="#5DA130"/>
<stop offset="1" stop-color="#3D8433"/>
</linearGradient>
</defs>
</svg>
