<svg width="51" height="55" viewBox="0 0 51 55" fill="none" xmlns="http://www.w3.org/2000/svg">
<g filter="url(#filter0_d_1969_8532)">
<path d="M8.68844 45.4058C7.89602 46.1982 6.60551 46.1982 5.81309 45.4058L3.59431 43.187C2.8019 42.3946 2.8019 41.1041 3.59431 40.3116L16.7938 27.1122C17.5862 26.3198 18.8767 26.3198 19.6691 27.1122L21.8879 29.331C22.6803 30.1234 22.6803 31.4139 21.8879 32.2063L8.68844 45.4058Z" fill="url(#paint0_radial_1969_8532)"/>
<path d="M8.30331 44.0021C7.78258 44.5228 6.96752 44.5228 6.44679 44.0021L5.02043 42.5757C4.4997 42.055 4.4997 41.2399 5.02043 40.7192L5.74493 39.9947C6.26566 39.4739 7.08072 39.4739 7.60145 39.9947L9.02781 41.421C9.54854 41.9418 9.54854 42.7568 9.02781 43.2776L8.30331 44.0021Z" fill="url(#paint1_linear_1969_8532)"/>
<path d="M45.9999 24.2595C45.9999 36.0099 36.4683 45.5189 24.7405 45.5189C13.0127 45.5189 3.481 36.0099 3.481 24.2595C3.45836 12.5317 12.99 3 24.7405 3C36.4909 3 45.9999 12.5317 45.9999 24.2595Z" fill="url(#paint2_radial_1969_8532)"/>
<path d="M45.3205 24.2594C45.3205 35.625 36.1058 44.8623 24.7176 44.8623C13.3294 44.8623 4.11475 35.6476 4.11475 24.2594C4.11475 12.8939 13.3294 3.65656 24.7176 3.65656C36.1058 3.65656 45.3205 12.8939 45.3205 24.2594Z" fill="white"/>
<path d="M24.7408 42.7342C34.9441 42.7342 43.2155 34.4628 43.2155 24.2595C43.2155 14.0562 34.9441 5.78479 24.7408 5.78479C14.5375 5.78479 6.26611 14.0562 6.26611 24.2595C6.26611 34.4628 14.5375 42.7342 24.7408 42.7342Z" fill="url(#paint3_radial_1969_8532)"/>
<path d="M41.0869 24.2594C41.0869 33.293 33.7513 40.6285 24.7177 40.6285C15.6842 40.6285 8.34863 33.293 8.34863 24.2594C8.34863 15.2259 15.6842 7.89032 24.7177 7.89032C33.7513 7.89032 41.0869 15.2259 41.0869 24.2594Z" fill="url(#paint4_radial_1969_8532)"/>
<path d="M35.8341 20.4558C36.6039 20.2068 37.2831 19.8672 37.102 19.3691C35.2907 14.3655 30.4909 10.7657 24.8535 10.7657C17.6538 10.7657 11.8125 16.6069 11.8125 23.8066C11.8125 25.6405 12.1974 27.3612 12.8766 28.946C12.9219 29.0592 12.9672 29.1498 13.0124 29.1951C14.0539 30.6214 17.4047 28.2215 22.8158 25.2556C28.2043 22.2897 34.1134 21.0219 35.8341 20.4558Z" fill="url(#paint5_linear_1969_8532)"/>
<path d="M20.5521 39.2701C20.5068 39.1569 25.1708 40.3115 30.6045 38.0475C36.0382 35.7834 38.506 31.3912 38.574 31.527C38.6192 31.6402 37.4872 36.123 30.9441 38.8399C24.6047 41.4662 20.5974 39.3833 20.5521 39.2701Z" fill="url(#paint6_linear_1969_8532)"/>
<path d="M31.9407 29.9649C31.9407 31.029 31.0803 31.8893 30.0162 31.8893C28.9521 31.8893 28.0918 31.029 28.0918 29.9649C28.0918 28.9007 28.9521 28.0404 30.0162 28.0404C31.0803 28.0404 31.9407 28.9007 31.9407 29.9649Z" fill="url(#paint7_radial_1969_8532)"/>
<path d="M30.4005 28.7649C30.31 28.7422 30.2194 28.7196 30.1062 28.7196C29.5402 28.7196 28.9968 29.1045 28.9062 29.6026C29.2006 29.8516 29.5402 29.9422 29.5402 29.9422C29.744 29.7384 30.0156 29.6026 30.31 29.6026C30.4458 29.3762 30.4684 28.946 30.4005 28.7649Z" fill="url(#paint8_linear_1969_8532)"/>
<path d="M24.1743 29.8969C24.1743 30.5082 23.6762 31.0063 23.065 31.0063C22.4537 31.0063 21.9556 30.5082 21.9556 29.8969C21.9556 29.2856 22.4537 28.7875 23.065 28.7875C23.6762 28.7875 24.1743 29.2856 24.1743 29.8969Z" fill="url(#paint9_radial_1969_8532)"/>
<path d="M23.3144 29.1951C23.2692 29.1724 23.2012 29.1724 23.156 29.1724C22.839 29.1724 22.522 29.3988 22.4541 29.6932C22.6126 29.829 22.8163 29.8743 22.8163 29.8743C22.9296 29.7611 23.088 29.6932 23.2692 29.6932C23.3371 29.5573 23.3371 29.3083 23.3144 29.1951Z" fill="url(#paint10_linear_1969_8532)"/>
<path d="M29.0426 25.8895C29.0426 26.4102 28.635 26.8178 28.1143 26.8178C27.5936 26.8178 27.186 26.4102 27.186 25.8895C27.186 25.3688 27.5936 24.9612 28.1143 24.9612C28.635 24.9612 29.0426 25.3688 29.0426 25.8895Z" fill="url(#paint11_radial_1969_8532)"/>
<path d="M28.2953 25.3009C28.25 25.3009 28.2047 25.2783 28.1595 25.2783C27.8878 25.2783 27.6161 25.4594 27.5708 25.7084C27.7066 25.8216 27.8878 25.8669 27.8878 25.8669C27.9783 25.7764 28.1142 25.7084 28.2727 25.7084C28.3179 25.5952 28.3406 25.3915 28.2953 25.3009Z" fill="url(#paint12_linear_1969_8532)"/>
<path d="M30.8989 17.8521C30.8989 18.6219 30.2876 19.2332 29.5178 19.2332C28.748 19.2332 28.1367 18.6219 28.1367 17.8521C28.1367 17.0823 28.748 16.471 29.5178 16.471C30.2876 16.471 30.8989 17.1049 30.8989 17.8521Z" fill="url(#paint13_radial_1969_8532)"/>
<path d="M29.7897 16.9918C29.7218 16.9692 29.6538 16.9692 29.5859 16.9692C29.1784 16.9692 28.7935 17.2635 28.7256 17.6031C28.9294 17.7842 29.1784 17.8522 29.1784 17.8522C29.3142 17.6937 29.518 17.6031 29.7444 17.6031C29.835 17.422 29.835 17.1277 29.7897 16.9918Z" fill="url(#paint14_linear_1969_8532)"/>
<path d="M24.4012 18.5766C24.4012 19.0068 24.039 19.369 23.6088 19.369C23.1787 19.369 22.8164 19.0068 22.8164 18.5766C22.8164 18.1464 23.1787 17.7842 23.6088 17.7842C24.039 17.7842 24.4012 18.1464 24.4012 18.5766Z" fill="url(#paint15_radial_1969_8532)"/>
<path d="M23.7671 18.0785C23.7218 18.0785 23.6991 18.0559 23.6539 18.0559C23.4274 18.0559 23.201 18.2144 23.1558 18.4182C23.269 18.5314 23.4274 18.554 23.4274 18.554C23.518 18.4634 23.6312 18.4182 23.7444 18.4182C23.7897 18.3276 23.7897 18.1691 23.7671 18.0785Z" fill="url(#paint16_linear_1969_8532)"/>
</g>
<defs>
<filter id="filter0_d_1969_8532" x="-1" y="0" width="55" height="55.0001" filterUnits="userSpaceOnUse" color-interpolation-filters="sRGB">
<feFlood flood-opacity="0" result="BackgroundImageFix"/>
<feColorMatrix in="SourceAlpha" type="matrix" values="0 0 0 0 0 0 0 0 0 0 0 0 0 0 0 0 0 0 127 0" result="hardAlpha"/>
<feOffset dx="2" dy="3"/>
<feGaussianBlur stdDeviation="3"/>
<feComposite in2="hardAlpha" operator="out"/>
<feColorMatrix type="matrix" values="0 0 0 0 0 0 0 0 0 0 0 0 0 0 0 0 0 0 0.1 0"/>
<feBlend mode="normal" in2="BackgroundImageFix" result="effect1_dropShadow_1969_8532"/>
<feBlend mode="normal" in="SourceGraphic" in2="effect1_dropShadow_1969_8532" result="shape"/>
</filter>
<radialGradient id="paint0_radial_1969_8532" cx="0" cy="0" r="1" gradientUnits="userSpaceOnUse" gradientTransform="translate(15.9098 33.4478) rotate(45) scale(15.7683)">
<stop offset="0.4699" stop-color="#67513D"/>
<stop offset="0.4753" stop-color="#695440"/>
<stop offset="0.5806" stop-color="#968779"/>
<stop offset="0.6313" stop-color="#A79B8F"/>
<stop offset="0.7148" stop-color="#BBB2A8"/>
<stop offset="0.8265" stop-color="#D0CAC3"/>
<stop offset="0.9252" stop-color="#DDD9D4"/>
<stop offset="1" stop-color="#E2DEDA"/>
</radialGradient>
<linearGradient id="paint1_linear_1969_8532" x1="8.64396" y1="41.1907" x2="6.13109" y2="42.4132" gradientUnits="userSpaceOnUse">
<stop stop-color="white"/>
<stop offset="0.3673" stop-color="#F3F2F0"/>
<stop offset="1" stop-color="#E2DEDA"/>
</linearGradient>
<radialGradient id="paint2_radial_1969_8532" cx="0" cy="0" r="1" gradientUnits="userSpaceOnUse" gradientTransform="translate(24.729 24.2644) scale(21.2645)">
<stop offset="0.799" stop-color="#ECE8E2"/>
<stop offset="0.874" stop-color="#E6E2DC"/>
<stop offset="0.9693" stop-color="#D7D3CD"/>
<stop offset="1" stop-color="#D0CCC6"/>
</radialGradient>
<radialGradient id="paint3_radial_1969_8532" cx="0" cy="0" r="1" gradientUnits="userSpaceOnUse" gradientTransform="translate(24.7295 24.2644) scale(19.069)">
<stop offset="0.8285" stop-color="#67513D"/>
<stop offset="0.8318" stop-color="#695440"/>
<stop offset="0.8965" stop-color="#968779"/>
<stop offset="0.9276" stop-color="#A79B8F"/>
<stop offset="0.9422" stop-color="#ACA195"/>
<stop offset="0.9624" stop-color="#BAB1A7"/>
<stop offset="0.9857" stop-color="#D1CBC4"/>
<stop offset="1" stop-color="#E2DEDA"/>
</radialGradient>
<radialGradient id="paint4_radial_1969_8532" cx="0" cy="0" r="1" gradientUnits="userSpaceOnUse" gradientTransform="translate(24.7294 24.2644) scale(16.3681)">
<stop offset="0.9195" stop-color="#511F0C"/>
<stop offset="0.9373" stop-color="#5B2611"/>
<stop offset="0.9671" stop-color="#75371F"/>
<stop offset="1" stop-color="#995033"/>
</radialGradient>
<linearGradient id="paint5_linear_1969_8532" x1="26.4053" y1="29.4724" x2="20.0649" y2="6.92866" gradientUnits="userSpaceOnUse">
<stop stop-color="#511F0C"/>
<stop offset="0.9772" stop-color="#C47648"/>
</linearGradient>
<linearGradient id="paint6_linear_1969_8532" x1="30.9023" y1="38.9961" x2="29.2887" y2="34.6934" gradientUnits="userSpaceOnUse">
<stop offset="0.1886" stop-color="#BB805E"/>
<stop offset="1" stop-color="#773920"/>
</linearGradient>
<radialGradient id="paint7_radial_1969_8532" cx="0" cy="0" r="1" gradientUnits="userSpaceOnUse" gradientTransform="translate(30.016 29.9626) scale(1.92125)">
<stop offset="0.5309" stop-color="#471703"/>
<stop offset="0.7126" stop-color="#4E1C08"/>
<stop offset="0.9585" stop-color="#602914"/>
</radialGradient>
<linearGradient id="paint8_linear_1969_8532" x1="29.9195" y1="29.9731" x2="29.5623" y2="28.9015" gradientUnits="userSpaceOnUse">
<stop stop-color="#511F0C"/>
<stop offset="1" stop-color="#95522F"/>
</linearGradient>
<radialGradient id="paint9_radial_1969_8532" cx="0" cy="0" r="1" gradientUnits="userSpaceOnUse" gradientTransform="translate(23.0777 29.8883) scale(1.10162)">
<stop offset="0.5309" stop-color="#471703"/>
<stop offset="0.7126" stop-color="#4E1C08"/>
<stop offset="0.9585" stop-color="#602914"/>
</radialGradient>
<linearGradient id="paint10_linear_1969_8532" x1="23.023" y1="29.8943" x2="22.8182" y2="29.28" gradientUnits="userSpaceOnUse">
<stop stop-color="#511F0C"/>
<stop offset="1" stop-color="#95522F"/>
</linearGradient>
<radialGradient id="paint11_radial_1969_8532" cx="0" cy="0" r="1" gradientUnits="userSpaceOnUse" gradientTransform="translate(28.112 25.8912) scale(0.934352)">
<stop offset="0.5309" stop-color="#471703"/>
<stop offset="0.7126" stop-color="#4E1C08"/>
<stop offset="0.9585" stop-color="#602914"/>
</radialGradient>
<linearGradient id="paint12_linear_1969_8532" x1="28.0653" y1="25.8961" x2="27.8916" y2="25.375" gradientUnits="userSpaceOnUse">
<stop stop-color="#511F0C"/>
<stop offset="1" stop-color="#95522F"/>
</linearGradient>
<radialGradient id="paint13_radial_1969_8532" cx="0" cy="0" r="1" gradientUnits="userSpaceOnUse" gradientTransform="translate(29.5144 17.8589) scale(1.38021)">
<stop offset="0.5309" stop-color="#733117"/>
<stop offset="0.6551" stop-color="#7A381C"/>
<stop offset="0.8371" stop-color="#8E4A29"/>
<stop offset="0.9602" stop-color="#9F5A35"/>
</radialGradient>
<linearGradient id="paint14_linear_1969_8532" x1="29.4457" y1="17.8664" x2="29.1891" y2="17.0966" gradientUnits="userSpaceOnUse">
<stop stop-color="#844627"/>
<stop offset="1" stop-color="#B97954"/>
</linearGradient>
<radialGradient id="paint15_radial_1969_8532" cx="0" cy="0" r="1" gradientUnits="userSpaceOnUse" gradientTransform="translate(23.6055 18.5785) scale(0.791536)">
<stop offset="0.5309" stop-color="#733117"/>
<stop offset="0.6551" stop-color="#7A381C"/>
<stop offset="0.8371" stop-color="#8E4A29"/>
<stop offset="0.9602" stop-color="#9F5A35"/>
</radialGradient>
<linearGradient id="paint16_linear_1969_8532" x1="23.566" y1="18.583" x2="23.4188" y2="18.1413" gradientUnits="userSpaceOnUse">
<stop stop-color="#844627"/>
<stop offset="1" stop-color="#B97954"/>
</linearGradient>
</defs>
</svg>
