<svg width="62" height="58" viewBox="0 0 62 58" fill="none" xmlns="http://www.w3.org/2000/svg">
<g clipPath="url(#clip0_560_3294)">
<g filter="url(#filter0_d_560_3294)">
<path d="M52.508 25.8241C52.508 37.9572 42.6152 47.7815 30.3976 47.7815C18.1799 47.7815 8.28711 37.9572 8.28711 25.8241C8.28711 13.691 18.1799 3.86667 30.3976 3.86667C42.6152 3.86667 52.508 13.691 52.508 25.8241Z" fill="url(#paint0_linear_560_3294)"/>
<path d="M30.3973 41.936C39.3577 41.936 46.6216 34.7225 46.6216 25.8241C46.6216 16.9257 39.3577 9.71216 30.3973 9.71216C21.4369 9.71216 14.1731 16.9257 14.1731 25.8241C14.1731 34.7225 21.4369 41.936 30.3973 41.936Z" fill="url(#paint1_linear_560_3294)"/>
<path d="M48.4518 21.0101C49.9852 20.5189 50.5788 19.6347 50.6282 18.7014C47.7099 10.3998 39.7956 4.45609 30.4469 4.45609C18.6249 4.45609 9.07837 13.9857 9.07837 25.6767C9.07837 29.2626 9.96872 32.7011 11.601 35.6484C13.728 36.8764 18.9712 33.2906 27.0833 28.8205C35.9869 23.9574 45.6324 21.8943 48.4518 21.0101Z" fill="white"/>
<path d="M30.3973 41.6904C39.3577 41.6904 46.6216 34.4769 46.6216 25.5785C46.6216 16.6801 39.3577 9.46655 30.3973 9.46655C21.4369 9.46655 14.1731 16.6801 14.1731 25.5785C14.1731 34.4769 21.4369 41.6904 30.3973 41.6904Z" fill="url(#paint2_linear_560_3294)"/>
<path d="M44.8901 25.8241C44.8901 33.7818 38.4103 40.2168 30.3971 40.2168C22.384 40.2168 15.9536 33.7818 15.9536 25.8241C15.9536 17.8664 22.4334 11.4314 30.4466 11.4314C38.4598 11.4314 44.8901 17.9155 44.8901 25.8241Z" fill="url(#paint3_linear_560_3294)"/>
<path d="M42.1205 22.6803C43.1098 22.3365 43.5055 21.7961 43.5055 21.2067C41.6259 15.8033 36.4321 11.9227 30.3481 11.9227C22.6316 11.9227 16.3992 18.112 16.3992 25.7259C16.3992 28.0837 16.9927 30.2942 18.0315 32.21C19.4165 32.9959 22.8295 30.6381 28.1716 27.7399C33.9589 24.6452 40.2903 23.2698 42.1205 22.6803Z" fill="white"/>
<path d="M38.6086 16.4909C40.4882 15.5085 42.6646 15.1155 43.4561 16.098C44.2475 17.0804 45.2368 18.4558 45.2368 19.4383C45.2368 20.4207 45.6325 22.0417 46.8691 22.0417C48.1057 22.0417 49.5401 21.2558 50.0348 22.582C50.5294 23.9575 49.6391 24.596 48.2541 25.2346C46.8691 25.8732 46.5723 26.8556 47.2153 27.8872C47.8584 28.9188 51.9144 28.624 52.0628 29.41C52.2112 30.1959 51.2714 35.5993 47.8584 39.5782C44.4453 43.5079 41.527 44.8342 41.0323 44.9816C40.5377 45.1289 39.3505 46.2587 35.3439 45.1289C31.3868 43.9991 22.8295 41.8378 21.3951 41.4448C19.9111 41.0518 19.6143 40.8062 19.8617 40.315C20.109 39.8238 20.6036 38.5466 20.6036 38.5466C20.6036 38.5466 22.2854 38.1536 22.2359 37.0238C22.137 35.894 21.1972 36.4835 20.9993 35.7467C20.8509 35.0098 20.5047 33.9783 21.1477 33.6344C21.7908 33.2906 21.6424 32.1608 21.6918 31.4731C21.7908 30.7363 22.3349 27.4451 22.3349 27.4451C22.3349 27.4451 35.0966 18.3084 38.6086 16.4909Z" fill="url(#paint4_radial_560_3294)"/>
<path d="M22.384 26.7574C26.5364 26.7574 29.9026 23.4145 29.9026 19.2909C29.9026 15.1673 26.5364 11.8244 22.384 11.8244C18.2316 11.8244 14.8655 15.1673 14.8655 19.2909C14.8655 23.4145 18.2316 26.7574 22.384 26.7574Z" fill="url(#paint5_radial_560_3294)"/>
<path d="M39.6963 13.3963C39.6963 13.3963 39.8447 12.4138 39.9436 12.3156C40.0425 12.2174 39.9931 12.1682 40.5372 12.3156C41.0813 12.463 41.7738 12.6103 42.12 12.7577C42.4663 12.8559 42.4663 12.7577 42.7136 13.3963C42.9115 13.9857 43.5545 15.1155 43.2082 15.2629C42.8125 15.4594 41.3781 15.6068 40.834 15.4103C40.2899 15.1647 39.6963 13.3963 39.6963 13.3963Z" fill="#FCC239"/>
<path d="M39.3009 15.5577C39.3009 15.5577 40.587 15.0173 41.0816 15.0173C41.5762 15.0173 43.2085 15.2138 43.2085 15.2138C43.2085 15.2138 36.6298 22.533 27.5284 28.4767C26.9843 28.5258 26.737 28.6241 26.7865 28.182C26.8359 27.6907 39.3009 15.5577 39.3009 15.5577Z" fill="#C26416"/>
<path d="M26.1433 26.5118C28.5176 24.3995 37.6685 15.2629 39.9438 12.3156C40.4879 13.8384 41.0815 15.0173 41.0815 15.0173C41.0815 15.0173 30.5456 25.4311 26.7863 28.1819C26.1928 27.5433 26.1433 26.5118 26.1433 26.5118Z" fill="#DF9912"/>
<path d="M48.7485 34.0765L50.0841 32.4064L51.5185 32.9959L51.8153 36.0414L50.6282 36.4344L48.7485 34.0765Z" fill="#E59004"/>
<path d="M28.2704 36.2378C28.2704 36.2378 45.9291 33.7818 50.0841 32.4555C50.6777 35.1572 50.5787 36.4835 50.5787 36.4835C50.5787 36.4835 35.3932 38.2027 28.0726 38.7431C27.7263 36.7782 28.2704 36.2378 28.2704 36.2378Z" fill="#F2B60E"/>
<path d="M36.8274 14.6243C36.8274 14.6243 37.1242 13.5436 37.2231 13.4945C37.322 13.3962 37.2726 13.3471 37.8661 13.5436C38.4597 13.7892 39.2017 13.9857 39.5479 14.1331C39.8942 14.2804 39.9436 14.1822 40.1415 14.8699C40.3393 15.5576 40.9329 16.7856 40.4877 16.9821C40.0426 17.1295 38.4597 17.1786 37.9156 16.8839C37.322 16.5891 36.8274 14.6243 36.8274 14.6243Z" fill="#FCC239"/>
<path d="M36.2343 16.933C36.2343 16.933 37.7182 16.4418 38.2129 16.5401C38.7075 16.5892 40.4882 16.9822 40.4882 16.9822C40.4882 16.9822 32.6729 24.3013 22.1865 29.9994C21.5929 29.9994 21.3456 30.0977 21.3951 29.6064C21.494 29.0661 36.2343 16.933 36.2343 16.933Z" fill="#AD5E17"/>
<path d="M20.8506 27.6907C23.6206 25.5784 34.4533 16.4418 37.2232 13.4454C37.6684 15.1646 38.2125 16.54 38.2125 16.54C38.2125 16.54 25.7476 26.9539 21.3947 29.5573C20.8012 28.8696 20.8506 27.6907 20.8506 27.6907Z" fill="#D98B16"/>
<path d="M45.7809 35.7467C45.7809 35.7467 46.6218 35.059 46.7702 35.059C46.9186 35.059 46.9186 34.9608 47.2154 35.5011C47.5617 36.0415 48.0068 36.68 48.2047 37.0239C48.4025 37.3677 48.5015 37.3186 48.2047 37.9572C47.9574 38.5958 47.6606 39.9712 47.2154 39.8238C46.7702 39.6765 45.4842 38.7923 45.1874 38.2028C44.9401 37.6134 45.7809 35.7467 45.7809 35.7467Z" fill="#FCC239"/>
<path d="M43.8517 37.2204C43.8517 37.2204 45.3356 37.7116 45.6819 38.1046C46.0281 38.4484 47.2647 39.8238 47.2647 39.8238C47.2647 39.8238 36.531 40.9536 24.7585 39.2344C24.3134 38.8905 24.0166 38.7923 24.3628 38.4484C24.7091 38.0554 43.8517 37.2204 43.8517 37.2204Z" fill="#AD5E17"/>
<path d="M25.055 36.5818C28.5669 36.5818 42.7137 35.7958 46.7697 35.059C46.0772 36.68 45.6815 38.1046 45.6815 38.1046C45.6815 38.1046 29.4078 38.8905 24.3625 38.3993C24.313 37.466 25.055 36.5818 25.055 36.5818Z" fill="#D98B16"/>
<path d="M44.6926 16.9821C44.6926 16.9821 45.1873 15.9997 45.2862 15.9506C45.4346 15.9015 45.3851 15.8032 45.8798 16.1471C46.4239 16.4909 47.1164 16.8839 47.4132 17.0804C47.7099 17.326 47.8089 17.2277 47.8089 17.9154C47.8583 18.6032 48.1551 19.9786 47.7099 20.0277C47.2648 20.1259 45.6819 19.8312 45.1873 19.4382C44.7421 19.0452 44.6926 16.9821 44.6926 16.9821Z" fill="#FCC239"/>
<path d="M43.6044 19.1435C43.6044 19.1435 45.1378 18.9961 45.6324 19.1435C46.1271 19.2908 47.7594 20.0277 47.7594 20.0277C47.7594 20.0277 38.6085 25.5784 27.1823 29.0169C26.5888 28.8696 26.3414 28.9187 26.4898 28.4275C26.6382 27.9363 43.6044 19.1435 43.6044 19.1435Z" fill="#C26416"/>
<path d="M26.3413 26.5118C29.507 25.0381 41.972 18.3085 45.2861 15.9506C45.3355 17.719 45.6323 19.1435 45.6323 19.1435C45.6323 19.1435 31.2877 26.7574 26.4897 28.4275C26.0445 27.5925 26.3413 26.5118 26.3413 26.5118Z" fill="#DF9912"/>
<path d="M50.1829 26.3645C50.1829 26.3645 50.7765 25.4311 50.9249 25.4311C51.0733 25.382 51.0238 25.2838 51.5185 25.6767C52.0131 26.0697 52.6561 26.5118 52.9529 26.8065C53.2497 27.0522 53.2992 26.9539 53.2497 27.6907C53.2002 28.3784 53.3981 29.7539 52.9034 29.803C52.4583 29.803 50.9249 29.3609 50.4797 28.9188C50.0345 28.3784 50.1829 26.3645 50.1829 26.3645Z" fill="#FCC239"/>
<path d="M48.8474 28.3784C48.8474 28.3784 50.3808 28.3784 50.8754 28.624C51.3206 28.8696 52.9035 29.7538 52.9035 29.7538C52.9035 29.7538 43.159 34.2239 31.3866 36.287C30.8425 36.0905 30.5457 36.0905 30.793 35.6484C30.9909 35.2063 48.8474 28.3784 48.8474 28.3784Z" fill="#AD5E17"/>
<path d="M30.8428 33.7327C34.1569 32.6029 47.3143 27.396 50.9252 25.382C50.7768 27.1504 50.8757 28.6241 50.8757 28.6241C50.8757 28.6241 35.7397 34.5187 30.7933 35.6485C30.3976 34.7643 30.8428 33.7327 30.8428 33.7327Z" fill="#D98B16"/>
<path d="M45.8303 24.4486L46.5228 23.3188L47.8583 24.0557L48.5508 27.003C48.5508 27.003 46.8196 27.2977 45.9292 27.0521C45.6819 26.1679 45.8303 24.4486 45.8303 24.4486Z" fill="#F1B30F"/>
<path d="M45.138 26.0697L47.2155 26.8065L48.551 27.003C48.551 27.003 39.4991 32.1117 25.4018 31.3749C25.105 31.2275 24.8577 30.3924 25.2039 30.1468C25.5502 29.9012 45.138 26.0697 45.138 26.0697Z" fill="#AD5417"/>
<path d="M46.523 23.2698L47.2155 26.7574C47.2155 26.7574 36.0861 31.2766 25.1545 30.9328C24.6104 29.3118 24.8083 28.5258 24.8083 28.5258C24.8083 28.5258 38.5098 26.7574 46.523 23.2698Z" fill="#E59914"/>
<path d="M40.3401 21.9435C40.3401 21.9435 40.6369 20.8628 40.7358 20.8137C40.8347 20.7154 40.7853 20.6663 41.3788 20.8628C41.9724 21.1084 42.7144 21.3049 43.0606 21.4523C43.4069 21.5996 43.4563 21.5014 43.6542 22.1891C43.852 22.8768 44.4456 24.1048 44.0004 24.3013C43.5553 24.4487 41.9724 24.4978 41.4283 24.2031C40.8347 23.9575 40.3401 21.9435 40.3401 21.9435Z" fill="#FCC239"/>
<path d="M39.697 24.3014C39.697 24.3014 41.1809 23.8101 41.6755 23.9084C42.1702 23.9575 43.9509 24.3505 43.9509 24.3505C43.9509 24.3505 36.1355 31.6696 25.6491 37.3677C25.0556 37.3677 24.8083 37.466 24.8577 36.9748C24.9566 36.3853 39.697 24.3014 39.697 24.3014Z" fill="#AD5E17"/>
<path d="M24.3629 35.059C27.1329 32.9468 37.9655 23.8101 40.7355 20.8137C41.1807 22.533 41.7248 23.9084 41.7248 23.9084C41.7248 23.9084 29.2598 34.2731 24.907 36.9256C24.264 36.1888 24.3629 35.059 24.3629 35.059Z" fill="#D98B16"/>
<path d="M45.7808 30.7854C45.7808 30.7854 46.5722 30.0485 46.7206 29.9994C46.869 29.9994 46.869 29.9012 47.2152 30.3924C47.6109 30.8836 48.1056 31.4731 48.3529 31.8169C48.5508 32.1608 48.6497 32.0625 48.4518 32.7502C48.254 33.4379 48.1056 34.8133 47.6604 34.7151C47.2152 34.6169 45.8302 33.8309 45.484 33.2906C45.1377 32.7011 45.7808 30.7854 45.7808 30.7854Z" fill="#FCC239"/>
<path d="M44 32.4555C44 32.4555 45.4839 32.8485 45.9291 33.1432C46.3248 33.4871 47.6603 34.7151 47.6603 34.7151C47.6603 34.7151 37.1245 36.8274 25.2036 36.1888C24.709 35.8941 24.4122 35.7958 24.7584 35.4028C25.0552 34.9607 44 32.4555 44 32.4555Z" fill="#AD5E17"/>
<path d="M25.2536 33.4871C28.7161 33.1432 42.7639 31.0801 46.721 29.9994C46.1769 31.6696 45.9296 33.1432 45.9296 33.1432C45.9296 33.1432 29.8043 35.4519 24.7589 35.4028C24.5611 34.4204 25.2536 33.4871 25.2536 33.4871Z" fill="#D98B16"/>
<path d="M38.5591 19.8312L39.1032 17.7681L40.5871 17.719L42.1205 20.3715L41.2301 21.2557L38.5591 19.8312Z" fill="#E59004"/>
<path d="M20.7026 29.9994C20.7026 29.9994 35.8386 20.6172 39.1033 17.719C40.7356 19.9786 41.2302 21.2066 41.2302 21.2066C41.2302 21.2066 28.0233 28.9679 21.5435 32.4064C20.4553 30.7363 20.7026 29.9994 20.7026 29.9994Z" fill="#F2B60E"/>
<path d="M39.9441 40.9536L41.7248 39.7256L42.9119 40.6589L42.3184 43.7044L41.0818 43.7535L39.9441 40.9536Z" fill="#FFD10C"/>
<path d="M19.7134 37.2694C19.7134 37.2694 37.372 39.8729 41.7249 39.7747C41.4776 42.5255 41.0819 43.8026 41.0819 43.8026C41.0819 43.8026 25.9953 41.1992 18.823 39.6764C19.0209 37.6133 19.7134 37.2694 19.7134 37.2694Z" fill="#F2B60E"/>
<path d="M40.9829 25.4802L42.4174 24.0066L43.7034 24.6451L43.7529 27.6416L42.5658 27.8872L40.9829 25.4802Z" fill="#FFD10C"/>
<path d="M21.0981 25.775C21.0981 25.775 38.2622 24.8908 42.4172 23.9575C42.7139 26.61 42.5656 27.8872 42.5656 27.8872C42.5656 27.8872 27.8252 28.2802 20.7024 28.1819C20.554 26.2662 21.0981 25.775 21.0981 25.775Z" fill="#F2B60E"/>
<path d="M42.9119 27.1995L43.9011 25.2838L45.3851 25.5294L46.3744 28.4767L45.2861 29.1153L42.9119 27.1995Z" fill="#FFD10C"/>
<path d="M23.423 33.7326C23.423 33.7326 40.1419 27.5433 43.9012 25.3328C45.0389 27.8872 45.2862 29.1643 45.2862 29.1643C45.2862 29.1643 30.7932 34.1256 23.7693 36.2379C23.0273 34.3712 23.423 33.7326 23.423 33.7326Z" fill="#F2B60E"/>
<path d="M40.6362 27.6907C40.6362 27.6907 41.3781 26.9047 41.5265 26.8556C41.6749 26.8556 41.6254 26.7573 42.0706 27.1994C42.4663 27.6907 43.0599 28.231 43.3072 28.5257C43.5545 28.8205 43.6535 28.7713 43.4556 29.4099C43.3072 30.0976 43.2578 31.473 42.8126 31.4239C42.3674 31.3748 40.9329 30.6871 40.5372 30.1467C40.1415 29.7046 40.6362 27.6907 40.6362 27.6907Z" fill="#FCC239"/>
<path d="M39.004 29.459C39.004 29.459 40.5374 29.7047 40.9331 30.0485C41.3783 30.3432 42.7633 31.473 42.7633 31.473C42.7633 31.473 32.4253 34.3221 20.5044 34.5186C20.0098 34.2239 19.713 34.2239 20.0098 33.7818C20.2571 33.3397 39.004 29.459 39.004 29.459Z" fill="#AD5E17"/>
<path d="M20.355 31.8657C23.8175 31.2763 37.6675 28.2307 41.5257 26.8553C41.0805 28.5746 40.9321 30.0482 40.9321 30.0482C40.9321 30.0482 25.0047 33.4868 19.9593 33.7815C19.7615 32.8482 20.355 31.8657 20.355 31.8657Z" fill="#D98B16"/>
<path d="M40.6362 34.0275L41.3287 32.9468L42.5653 33.6836L43.1589 36.4344C43.1589 36.4344 41.5266 36.68 40.6857 36.4344C40.4384 35.6485 40.6362 34.0275 40.6362 34.0275Z" fill="#F1B30F"/>
<path d="M39.9438 35.5502L41.8729 36.2379L43.1095 36.4344C43.1095 36.4344 34.5522 41.0027 21.3947 40.0694C21.1474 39.922 20.9001 39.1361 21.2463 38.9396C21.5431 38.7431 39.9438 35.5502 39.9438 35.5502Z" fill="#AD5417"/>
<path d="M41.3288 32.9958L41.8729 36.2379C41.8729 36.2379 31.3865 40.2659 21.1474 39.7255C20.6527 38.2028 20.8506 37.5151 20.8506 37.5151C20.8506 37.5151 33.7113 36.0414 41.3288 32.9958Z" fill="#E59914"/>
<path d="M21.2959 23.4171C25.4483 23.4171 28.8144 20.0743 28.8144 15.9506C28.8144 11.827 25.4483 8.48413 21.2959 8.48413C17.1435 8.48413 13.7773 11.827 13.7773 15.9506C13.7773 20.0743 17.1435 23.4171 21.2959 23.4171Z" fill="url(#paint6_linear_560_3294)"/>
<path d="M21.2959 22.926C25.1751 22.926 28.3198 19.803 28.3198 15.9507C28.3198 12.0983 25.1751 8.9754 21.2959 8.9754C17.4167 8.9754 14.272 12.0983 14.272 15.9507C14.272 19.803 17.4167 22.926 21.2959 22.926Z" fill="url(#paint7_linear_560_3294)"/>
<path d="M21.2959 21.9435C24.6287 21.9435 27.3305 19.2604 27.3305 15.9506C27.3305 12.6409 24.6287 9.95779 21.2959 9.95779C17.963 9.95779 15.2612 12.6409 15.2612 15.9506C15.2612 19.2604 17.963 21.9435 21.2959 21.9435Z" fill="url(#paint8_radial_560_3294)"/>
<path d="M20.95 14.084C21.9887 13.8384 20.95 15.8032 22.3844 15.5576C23.2253 15.4103 23.6705 15.4594 23.1264 16.0489C22.5823 16.6383 21.7908 17.4243 20.95 17.5225C20.1091 17.6207 19.5155 17.1295 19.466 16.3927C19.3671 15.4103 19.9607 14.3296 20.95 14.084Z" fill="#E74310"/>
<path d="M22.7799 13.3472C23.0272 13.691 23.4229 14.2313 23.8681 13.6419C24.3132 13.0524 23.1261 12.8559 23.225 12.2174C23.2745 11.5788 21.3949 11.3823 20.6529 11.8735C19.8615 12.3647 18.5259 12.3647 19.169 12.9051C19.7625 13.4454 20.3561 13.0033 21.0981 12.8559C21.7411 12.6103 22.3841 12.8068 22.7799 13.3472Z" fill="#E74310"/>
<path d="M17.5369 14.0349C16.8939 14.4279 16.7949 15.2138 17.0917 15.9507C17.3885 16.6875 17.6853 16.1471 18.0315 15.1156C18.4273 14.084 18.3778 13.4946 17.5369 14.0349Z" fill="#E74310"/>
<path d="M18.2788 17.8663C18.1799 18.5049 18.1799 19.2909 18.823 19.4874C19.466 19.6838 19.3671 19.2417 19.1692 18.8488C18.9713 18.4067 19.6638 18.0137 19.1692 17.5225C18.724 17.0313 18.3283 17.5225 18.2788 17.8663Z" fill="#E74310"/>
<path d="M22.5324 19.2417C22.4335 19.6347 21.1969 20.8136 22.2357 20.4206C23.2744 20.0768 22.4335 19.6347 23.1755 19.0944C24.0164 18.6031 22.7303 18.6031 22.5324 19.2417Z" fill="#E74310"/>
</g>
</g>
<defs>
<filter id="filter0_d_560_3294" x="4.28711" y="0.866669" width="56.9792" height="55.9149" filterUnits="userSpaceOnUse" color-interpolation-filters="sRGB">
<feFlood flood-opacity="0" result="BackgroundImageFix"/>
<feColorMatrix in="SourceAlpha" type="matrix" values="0 0 0 0 0 0 0 0 0 0 0 0 0 0 0 0 0 0 127 0" result="hardAlpha"/>
<feOffset dx="2" dy="3"/>
<feGaussianBlur stdDeviation="3"/>
<feComposite in2="hardAlpha" operator="out"/>
<feColorMatrix type="matrix" values="0 0 0 0 0 0 0 0 0 0 0 0 0 0 0 0 0 0 0.1 0"/>
<feBlend mode="normal" in2="BackgroundImageFix" result="effect1_dropShadow_560_3294"/>
<feBlend mode="normal" in="SourceGraphic" in2="effect1_dropShadow_560_3294" result="shape"/>
</filter>
<linearGradient id="paint0_linear_560_3294" x1="9.47544" y1="-6.46609" x2="31.566" y2="28.1008" gradientUnits="userSpaceOnUse">
<stop stop-color="#DCD7D2"/>
<stop offset="0.8583" stop-color="#F6F4F2"/>
<stop offset="1" stop-color="#FBFAF8"/>
</linearGradient>
<linearGradient id="paint1_linear_560_3294" x1="23.7264" y1="14.2545" x2="34.0554" y2="32.4123" gradientUnits="userSpaceOnUse">
<stop stop-color="#DBCFC2"/>
<stop offset="0.5424" stop-color="#EDE7E1"/>
<stop offset="1" stop-color="white"/>
</linearGradient>
<linearGradient id="paint2_linear_560_3294" x1="23.7264" y1="14.0154" x2="34.0554" y2="32.1732" gradientUnits="userSpaceOnUse">
<stop stop-color="#D6CFC7"/>
<stop offset="0.5965" stop-color="#EDEAE7"/>
<stop offset="1" stop-color="white"/>
</linearGradient>
<linearGradient id="paint3_linear_560_3294" x1="5.24097" y1="0.842249" x2="37.5185" y2="33.3448" gradientUnits="userSpaceOnUse">
<stop stop-color="#DCD7D2"/>
<stop offset="0.8583" stop-color="#F6F4F2"/>
<stop offset="1" stop-color="#FBFAF8"/>
</linearGradient>
<radialGradient id="paint4_radial_560_3294" cx="0" cy="0" r="1" gradientUnits="userSpaceOnUse" gradientTransform="translate(33.3656 30.5926) scale(20.3117 20.1711)">
<stop offset="0.5444" stop-color="#7A6850"/>
<stop offset="0.5473" stop-color="#7B6951"/>
<stop offset="0.8577" stop-color="#BEB4A7"/>
<stop offset="1" stop-color="#DCD7D2"/>
</radialGradient>
<radialGradient id="paint5_radial_560_3294" cx="0" cy="0" r="1" gradientUnits="userSpaceOnUse" gradientTransform="translate(21.578 17.9007) scale(9.00679 8.94445)">
<stop offset="0.5444" stop-color="#7A6850"/>
<stop offset="0.5473" stop-color="#7B6951"/>
<stop offset="0.8577" stop-color="#BEB4A7"/>
<stop offset="1" stop-color="#DCD7D2"/>
</radialGradient>
<linearGradient id="paint6_linear_560_3294" x1="21.2861" y1="21.9303" x2="21.2861" y2="2.97355" gradientUnits="userSpaceOnUse">
<stop stop-color="#DCD7D2"/>
<stop offset="0.8583" stop-color="#F6F4F2"/>
<stop offset="1" stop-color="#FBFAF8"/>
</linearGradient>
<linearGradient id="paint7_linear_560_3294" x1="20.4668" y1="13.0931" x2="23.3032" y2="23.0901" gradientUnits="userSpaceOnUse">
<stop stop-color="#B2A495"/>
<stop offset="0.3631" stop-color="#CAC0B6"/>
<stop offset="1" stop-color="white"/>
</linearGradient>
<radialGradient id="paint8_radial_560_3294" cx="0" cy="0" r="1" gradientUnits="userSpaceOnUse" gradientTransform="translate(21.2861 15.941) scale(6.03991 5.9981)">
<stop stop-color="#941914"/>
<stop offset="0.2522" stop-color="#9B1A15"/>
<stop offset="0.6345" stop-color="#AC1E16"/>
<stop offset="1" stop-color="#C32418"/>
</radialGradient>
<clipPath id="clip0_560_3294">
<rect width="61" height="58" fill="white" transform="translate(0.5)"/>
</clipPath>
</defs>
</svg>
