<svg width="42" height="38" viewBox="0 0 42 38" fill="none" xmlns="http://www.w3.org/2000/svg">
<g clipPath="url(#clip0_4785_16710)">
<path d="M41.9164 13.9058C41.5876 10.9754 40.4913 8.3872 38.5357 6.17976C36.307 3.66548 33.4842 2.10813 30.326 1.12361C27.786 0.32783 25.1737 0.0640413 22.5252 0.00995903C18.2279 -0.0794423 14.0228 0.451447 9.97438 1.96686C7.16145 3.0198 4.62586 4.51424 2.64167 6.85413C1.02144 8.76467 0.0107134 10.9324 0.004136 13.493C-0.00463387 16.334 -0.00463387 19.175 0.004136 22.0159C0.00461818 23.0098 0.185932 23.9951 0.539099 24.9231C1.38649 27.1571 3.07249 28.5146 5.17726 29.4352C7.19872 30.3181 9.35282 30.6989 11.5014 31.0687C13.3738 31.3909 15.0269 32.1017 16.372 33.4836C16.7064 33.828 17.0758 34.137 17.4299 34.4615C18.8319 35.7451 20.4028 36.7363 22.2292 37.2892C24.6771 38.0309 27.1743 38.1612 29.6934 37.8411C32.1786 37.5276 34.4489 36.6369 36.409 35.0332C39.3688 32.605 40.932 29.3811 41.6709 25.6814C41.7969 25.0556 41.7805 24.4077 41.9997 23.7985V15.8517V14.1961C41.8616 14.1321 41.9274 14.004 41.9164 13.9058ZM4.12817 8.91147C5.68263 6.8751 7.77753 5.58044 10.0851 4.61358C13.2938 3.26814 16.6526 2.61032 20.1222 2.51651C20.2538 2.51651 20.3864 2.51651 20.6155 2.51651C15.1946 6.93139 9.56439 10.705 2.62194 12.0582C2.88601 10.9098 3.40051 9.83491 4.12817 8.91147ZM3.10209 14.504C8.49447 13.4213 13.2971 11.0295 17.75 7.83865C19.9337 6.27247 22.0198 4.58157 24.0423 2.809C24.1739 2.69862 24.2901 2.57832 24.5017 2.59598C28.0721 2.89508 31.4978 3.68314 34.4664 5.82215C37.7255 8.16977 39.7229 11.3672 39.4784 15.451C39.2087 19.9641 37.2695 23.7179 33.174 26.0037C31.3531 27.0202 29.3437 27.3281 27.2795 27.2928C25.4642 27.2851 23.6839 27.0864 21.9924 26.3624C20.9115 25.8988 19.9775 25.2134 19.1082 24.4287C18.3047 23.7024 17.5285 22.9475 16.6702 22.2819C15.3415 21.2533 13.7958 20.8096 12.1921 20.484C10.5477 20.1529 8.87047 19.9906 7.24147 19.5712C4.91855 18.9719 3.43206 17.4741 2.70306 15.1905C2.52438 14.6321 2.54301 14.6166 3.10209 14.504ZM9.60276 28.1714C8.27631 27.9087 6.95645 27.6195 5.75059 26.9683C4.57762 26.3326 3.55045 25.5335 2.93437 24.2962C2.64274 23.7164 2.48533 23.0775 2.47395 22.4276C2.45641 21.5115 2.47395 20.5944 2.47395 19.5911C3.21764 20.3752 4.1061 21.0058 5.08957 21.4475C6.04658 21.8691 7.05621 22.0987 8.0757 22.2908C8.22405 22.3042 8.36187 22.3736 8.46158 22.485C10.0577 24.3934 11.5486 26.3767 12.7369 28.5798C12.7676 28.6383 12.7939 28.7001 12.8399 28.8005C11.7284 28.5853 10.665 28.3767 9.60276 28.1714ZM33.5357 33.9858C31.4902 35.2595 29.2177 35.6116 26.8487 35.5056C25.4532 35.4438 24.0708 35.3125 22.7334 34.8743C21.4783 34.4626 20.4007 33.7485 19.4151 32.8876C18.3529 31.956 17.3323 30.9726 16.1736 30.1625C16.0856 30.0992 16.019 30.0102 15.9828 29.9075C14.8164 27.0688 13.9548 25.5589 12.077 23.0579C12.4661 23.0126 12.807 23.1682 13.1524 23.2609C14.3801 23.6097 15.3799 24.3393 16.2996 25.2002C17.2863 26.1284 18.2729 27.0677 19.4294 27.795C21.0803 28.8336 22.8891 29.4042 24.8097 29.6261C27.16 29.8976 29.4983 29.8899 31.796 29.2122C35.0365 28.2556 37.5662 26.3444 39.3852 23.4784C39.4894 23.5347 39.4137 23.6528 39.4685 23.7267C39.0169 28.0456 37.3112 31.6338 33.5357 33.9858Z" fill="#b92b1a"/>
<path d="M23.3715 20.4685C24.6015 21.5071 26.0452 21.9111 27.6183 21.9365C29.1465 21.9144 30.5584 21.5369 31.7753 20.5579C34.0105 18.7566 34.0236 15.6629 31.8005 13.855C29.4699 11.9599 25.7109 11.9787 23.3978 13.8948C21.2744 15.6563 21.2635 18.686 23.3715 20.4685ZM25.2899 15.5735C25.9902 15.1382 26.7999 14.9149 27.6227 14.93C28.4601 14.9093 29.2848 15.1398 29.9917 15.5923C31.3313 16.4752 31.351 17.867 30.0366 18.7721C28.7222 19.6771 26.5923 19.6959 25.2625 18.8041C23.8999 17.8913 23.912 16.4741 25.2899 15.5735Z" fill="#b92b1a"/>
</g>
<defs>
<clipPath id="clip0_4785_16710">
<rect width="42" height="38" fill="white"/>
</clipPath>
</defs>
</svg>
