<svg width="59" height="58" viewBox="0 0 59 58" fill="none" xmlns="http://www.w3.org/2000/svg">
<g clipPath="url(#clip0_560_2971)">
<g filter="url(#filter0_d_560_2971)">
<path d="M17.1326 12.9302C10.6687 12.9302 5.39673 18.1564 5.39673 24.6203C5.39673 31.0842 10.6229 36.3103 17.0868 36.3103C23.5507 36.3103 28.7769 31.0842 28.7769 24.6203C28.8227 18.1564 23.5966 12.9302 17.1326 12.9302ZM17.1326 34.7058C11.5856 34.7058 7.04709 30.2132 7.04709 24.6203C7.04709 19.0732 11.5397 14.5347 17.1326 14.5347C22.6797 14.5347 27.2182 19.0274 27.2182 24.6203C27.1724 30.2132 22.6797 34.7058 17.1326 34.7058Z" fill="#C8518B"/>
<path d="M17.1325 14.2596C11.4021 14.2596 6.72607 18.8898 6.72607 24.6203C6.72607 30.3507 11.3563 34.9809 17.0867 34.9809C22.8171 34.9809 27.4473 30.3507 27.4473 24.6203C27.4931 18.8898 22.863 14.2596 17.1325 14.2596ZM17.1325 33.8806C12.0439 33.8806 7.87216 29.7547 7.87216 24.6203C7.87216 19.5316 11.9981 15.4057 17.1325 15.4057C22.2212 15.4057 26.3929 19.5316 26.3929 24.6661C26.3929 29.7547 22.2212 33.8806 17.1325 33.8806Z" fill="white"/>
<path d="M17.1326 13.2511C10.852 13.2511 5.76343 18.3397 5.76343 24.6203C5.76343 30.9467 10.852 36.0353 17.1326 36.0353C23.4131 36.0353 28.5018 30.9467 28.5018 24.6661C28.5018 18.3397 23.4131 13.2511 17.1326 13.2511ZM17.1326 34.2933C11.8148 34.2933 7.50548 29.984 7.50548 24.6661C7.50548 19.3483 11.8148 15.039 17.1326 15.039C22.4504 15.039 26.7597 19.3483 26.7597 24.6661C26.7597 29.984 22.4504 34.2933 17.1326 34.2933Z" fill="url(#paint0_radial_560_2971)"/>
<path d="M24.6048 32.0928C24.5131 32.1845 24.5131 32.2762 24.6048 32.3678C24.6965 32.4595 24.7882 32.4595 24.8799 32.3678C24.9716 32.2762 24.9716 32.1845 24.8799 32.0928C24.7882 32.0469 24.6507 32.0469 24.6048 32.0928ZM17.1324 13.7096C17.0407 13.7096 16.949 13.8013 16.949 13.8929C16.949 13.9846 17.0407 14.0763 17.1324 14.0763C17.224 14.0763 17.3157 13.9846 17.3157 13.8929C17.3157 13.8013 17.224 13.7096 17.1324 13.7096ZM17.1324 35.2101C17.0407 35.2101 16.949 35.3018 16.949 35.3935C16.949 35.4852 17.0407 35.5769 17.1324 35.5769C17.224 35.5769 17.3157 35.4852 17.3157 35.3935C17.3157 35.3018 17.224 35.2101 17.1324 35.2101ZM9.38482 32.0928C9.29313 32.1845 9.29313 32.2762 9.38482 32.3678C9.47651 32.4595 9.56819 32.4595 9.65988 32.3678C9.75157 32.2762 9.75157 32.1845 9.65988 32.0928C9.56819 32.0469 9.47651 32.0469 9.38482 32.0928ZM9.38482 16.9186C9.29313 17.0103 9.29313 17.102 9.38482 17.1937C9.47651 17.2854 9.56819 17.2854 9.65988 17.1937C9.75157 17.102 9.75157 17.0103 9.65988 16.9186C9.56819 16.8269 9.47651 16.8269 9.38482 16.9186ZM24.6048 16.9186C24.5131 17.0103 24.5131 17.102 24.6048 17.1937C24.6965 17.2854 24.7882 17.2854 24.8799 17.1937C24.9716 17.102 24.9716 17.0103 24.8799 16.9186C24.7882 16.8269 24.6507 16.8269 24.6048 16.9186ZM6.35915 24.4369C6.26747 24.4369 6.17578 24.5286 6.17578 24.6203C6.17578 24.712 6.26747 24.8037 6.35915 24.8037C6.45084 24.8037 6.54253 24.712 6.54253 24.6203C6.54253 24.5286 6.49668 24.4369 6.35915 24.4369ZM27.8597 24.4369C27.768 24.4369 27.6763 24.5286 27.6763 24.6203C27.6763 24.712 27.768 24.8037 27.8597 24.8037C27.9514 24.8037 28.0431 24.712 28.0431 24.6203C28.0431 24.5286 27.9514 24.4369 27.8597 24.4369ZM7.36771 28.6545C7.27602 28.7004 7.23018 28.7921 7.27602 28.8837C7.32187 28.9754 7.41355 29.0213 7.50524 28.9754C7.59693 28.9296 7.64277 28.8379 7.59693 28.7462C7.55108 28.6545 7.4594 28.6087 7.36771 28.6545ZM7.4594 20.8153C7.50524 20.7236 7.4594 20.6319 7.36771 20.5861C7.27602 20.5402 7.18434 20.5861 7.13849 20.6778C7.09265 20.7695 7.13849 20.8611 7.23018 20.907C7.32187 20.9528 7.4594 20.907 7.4594 20.8153ZM26.9887 28.3795C26.897 28.3336 26.8053 28.3795 26.7595 28.4711C26.7136 28.5628 26.7595 28.6545 26.8512 28.7004C26.9428 28.7462 27.0345 28.7004 27.0804 28.6087C27.1262 28.517 27.0804 28.4253 26.9887 28.3795ZM21.2124 34.1557C21.1207 34.2016 21.0749 34.2933 21.1207 34.3849C21.1666 34.4766 21.2583 34.5225 21.35 34.4766C21.4416 34.4308 21.4875 34.3391 21.4416 34.2474C21.4416 34.2016 21.3041 34.1557 21.2124 34.1557ZM13.0981 14.8556C13.0523 14.764 12.9606 14.7181 12.8689 14.764C12.7772 14.8098 12.7314 14.9015 12.7772 14.9932C12.8231 15.0849 12.9148 15.1307 13.0065 15.0849C13.0981 15.0849 13.144 14.9473 13.0981 14.8556ZM26.897 20.6319C26.9887 20.5861 27.0345 20.4944 26.9887 20.4027C26.9428 20.311 26.8512 20.2652 26.7595 20.311C26.6678 20.3569 26.6219 20.4485 26.6678 20.5402C26.7136 20.6319 26.8053 20.6778 26.897 20.6319ZM13.2815 34.2933C13.1898 34.2474 13.0981 34.2933 13.0523 34.3849C13.0064 34.4766 13.0523 34.5683 13.144 34.6142C13.2357 34.66 13.3274 34.6142 13.3732 34.5225C13.419 34.4308 13.3732 34.3391 13.2815 34.2933ZM21.2124 14.9015C21.2583 14.8098 21.2124 14.7181 21.1207 14.6723C21.029 14.6264 20.9374 14.6723 20.8915 14.764C20.8457 14.8557 20.8915 14.9473 20.9832 14.9932C21.0749 15.039 21.1666 14.9932 21.2124 14.9015Z" fill="#DE94B3"/>
<path d="M20.8917 6.3288C14.4278 6.3288 9.20166 11.5549 9.20166 18.0189C9.20166 24.4828 14.4278 29.7089 20.8917 29.7089C27.3557 29.7089 32.5818 24.4828 32.5818 18.0189C32.6276 11.6008 27.3557 6.3288 20.8917 6.3288ZM20.8917 28.1044C15.3447 28.1044 10.8062 23.6118 10.8062 18.0189C10.8062 12.4718 15.2988 7.93332 20.8917 7.93332C26.4388 7.93332 30.9773 12.426 30.9773 18.0189C30.9773 23.6118 26.4846 28.1044 20.8917 28.1044Z" fill="#C8518B"/>
<path d="M20.8916 7.65823C15.1612 7.65823 10.531 12.2884 10.531 18.0188C10.531 23.7493 15.1612 28.3795 20.8916 28.3795C26.622 28.3795 31.2522 23.7493 31.2522 18.0188C31.2981 12.3343 26.622 7.65823 20.8916 7.65823ZM20.8916 27.2792C15.803 27.2792 11.6312 23.1533 11.6312 18.0188C11.6312 12.9302 15.7572 8.75848 20.8916 8.75848C25.9802 8.75848 30.152 12.8844 30.152 18.0188C30.152 23.1533 26.0261 27.2792 20.8916 27.2792Z" fill="white"/>
<path d="M20.8916 6.64966C14.6111 6.64966 9.52246 11.7383 9.52246 18.0188C9.52246 24.2994 14.6111 29.388 20.8916 29.388C27.1722 29.388 32.2608 24.2994 32.2608 18.0188C32.2608 11.7841 27.1722 6.64966 20.8916 6.64966ZM20.8916 27.6918C15.5738 27.6918 11.2645 23.3825 11.2645 18.0647C11.2645 12.7468 15.5738 8.43755 20.8916 8.43755C26.2095 8.43755 30.5188 12.7468 30.5188 18.0647C30.5646 23.3825 26.2095 27.6918 20.8916 27.6918Z" fill="url(#paint1_radial_560_2971)"/>
<path d="M28.3642 25.5371C28.2725 25.6288 28.2725 25.7205 28.3642 25.8122C28.4559 25.9039 28.5475 25.9039 28.6392 25.8122C28.7309 25.7205 28.7309 25.6288 28.6392 25.5371C28.5475 25.4455 28.4559 25.4455 28.3642 25.5371ZM20.8917 7.10809C20.8 7.10809 20.7083 7.19978 20.7083 7.29147C20.7083 7.38315 20.8 7.47484 20.8917 7.47484C20.9834 7.47484 21.0751 7.38315 21.0751 7.29147C21.0751 7.19978 20.9834 7.10809 20.8917 7.10809ZM20.8917 28.6087C20.8 28.6087 20.7083 28.7003 20.7083 28.792C20.7083 28.8837 20.8 28.9754 20.8917 28.9754C20.9834 28.9754 21.0751 28.8837 21.0751 28.792C21.0751 28.7003 20.9834 28.6087 20.8917 28.6087ZM13.19 25.5371C13.0983 25.6288 13.0983 25.7205 13.19 25.8122C13.2817 25.9039 13.3734 25.9039 13.4651 25.8122C13.5567 25.7205 13.5567 25.6288 13.4651 25.5371C13.3734 25.4455 13.2358 25.4455 13.19 25.5371ZM13.19 10.3171C13.0983 10.4088 13.0983 10.5005 13.19 10.5922C13.2817 10.6839 13.3734 10.6839 13.4651 10.5922C13.5567 10.5005 13.5567 10.4088 13.4651 10.3171C13.3734 10.2713 13.2358 10.2713 13.19 10.3171ZM28.3642 10.3171C28.2725 10.4088 28.2725 10.5005 28.3642 10.5922C28.4559 10.6839 28.5475 10.6839 28.6392 10.5922C28.7309 10.5005 28.7309 10.4088 28.6392 10.3171C28.5475 10.2713 28.4559 10.2713 28.3642 10.3171ZM10.1643 17.8813C10.0726 17.8813 9.98096 17.973 9.98096 18.0647C9.98096 18.1564 10.0726 18.248 10.1643 18.248C10.256 18.248 10.3477 18.1564 10.3477 18.0647C10.3477 17.973 10.256 17.8813 10.1643 17.8813ZM31.6649 17.8813C31.5732 17.8813 31.4815 17.973 31.4815 18.0647C31.4815 18.1564 31.5732 18.248 31.6649 18.248C31.7566 18.248 31.8483 18.1564 31.8483 18.0647C31.8483 17.973 31.7566 17.8813 31.6649 17.8813ZM11.127 22.053C11.0354 22.0989 10.9895 22.1906 11.0354 22.2823C11.0812 22.374 11.1729 22.4198 11.2646 22.374C11.3563 22.3281 11.4021 22.2364 11.3563 22.1447C11.3104 22.053 11.2187 22.0072 11.127 22.053ZM11.2646 14.2138C11.3104 14.1221 11.2646 14.0304 11.1729 13.9846C11.0812 13.9388 10.9895 13.9846 10.9437 14.0763C10.8978 14.168 10.9437 14.2597 11.0354 14.3055C11.127 14.3514 11.2187 14.3055 11.2646 14.2138ZM30.7939 21.778C30.7022 21.7321 30.6105 21.778 30.5647 21.8697C30.5188 21.9614 30.5647 22.053 30.6563 22.0989C30.748 22.1447 30.8397 22.0989 30.8856 22.0072C30.9314 21.9155 30.8856 21.8238 30.7939 21.778ZM25.0176 27.6001C24.9259 27.6459 24.8801 27.7376 24.9259 27.8293C24.9718 27.921 25.0634 27.9668 25.1551 27.921C25.2468 27.8752 25.2927 27.7835 25.2468 27.6918C25.201 27.6001 25.1093 27.5543 25.0176 27.6001ZM16.9033 8.30002C16.8575 8.20834 16.7658 8.16249 16.6741 8.20834C16.5824 8.25418 16.5366 8.34587 16.5824 8.43755C16.6283 8.52924 16.7199 8.57508 16.8116 8.52924C16.9033 8.4834 16.9492 8.39171 16.9033 8.30002ZM30.6563 14.0304C30.748 13.9846 30.7939 13.8929 30.748 13.8012C30.7022 13.7095 30.6105 13.6637 30.5188 13.7095C30.4271 13.7554 30.3813 13.8471 30.4271 13.9388C30.473 14.0304 30.5647 14.0763 30.6563 14.0304ZM17.0408 27.6918C16.9492 27.6459 16.8575 27.6918 16.8116 27.7835C16.7658 27.8752 16.8116 27.9668 16.9033 28.0127C16.995 28.0585 17.0867 28.0127 17.1325 27.921C17.1784 27.8293 17.1325 27.7376 17.0408 27.6918ZM24.9718 8.30002C25.0176 8.20834 24.9718 8.11665 24.8801 8.07081C24.7884 8.02496 24.6967 8.0708 24.6509 8.16249C24.605 8.25418 24.6508 8.34587 24.7425 8.39171C24.8342 8.43755 24.9259 8.39171 24.9718 8.30002Z" fill="#DE94B3"/>
<path d="M43.2176 38.0983C43.2176 44.608 37.9456 49.88 31.4358 49.88C24.926 49.88 19.6541 44.608 19.6541 38.0983C19.6541 31.5885 24.926 26.3165 31.4358 26.3165C37.9456 26.3165 43.2176 31.5885 43.2176 38.0983Z" fill="#EF7C46"/>
<path d="M43.0801 38.0983C43.0801 44.5163 37.8998 49.6967 31.4817 49.6967C25.0636 49.6967 19.8833 44.5163 19.8833 38.0983C19.8833 31.6802 25.0636 26.4999 31.4817 26.4999C37.8539 26.4999 43.0801 31.6802 43.0801 38.0983Z" fill="#E6301B"/>
<path d="M42.759 38.0983C42.759 44.333 37.7162 49.4216 31.4356 49.4216C25.2009 49.4216 20.1123 44.3788 20.1123 38.0983C20.1123 31.8636 25.1551 26.7749 31.4356 26.7749C37.7162 26.7749 42.759 31.8636 42.759 38.0983Z" fill="url(#paint2_radial_560_2971)"/>
<path d="M34.3698 28.7921C33.5905 28.6087 32.8111 28.6087 32.7653 29.1588C32.7195 29.7089 32.4444 31.9094 32.261 33.9724C32.3527 34.66 32.7195 34.9351 32.9028 34.3391C33.1321 33.6056 33.5905 32.4137 33.7739 33.0555C33.9572 33.6973 34.3698 34.1557 34.9199 34.1099C35.4242 34.0641 35.3325 34.3391 35.3325 34.7517C35.3784 35.1184 35.3784 35.4394 35.5618 35.8061C35.7451 36.127 36.066 36.3104 36.3411 36.5396C36.662 36.7688 36.9829 36.8147 36.662 37.2272C36.3411 37.6398 36.5245 38.2358 36.9829 38.7401C37.4413 39.2444 36.1577 39.0151 35.4242 38.8318C34.8283 38.6942 34.8741 39.1527 35.3784 39.5653C37.258 40.4363 39.3668 41.3073 39.871 41.5365C40.4212 41.7657 40.7879 40.9864 41.0171 40.1612C41.1547 39.5194 41.2005 38.8776 41.2005 38.2358C41.2005 33.7431 38.3124 30.0298 34.3698 28.7921ZM38.5416 43.6912C38.0831 43.3244 36.2494 41.9491 34.5532 40.803C33.9572 40.6197 33.5905 40.803 34.0031 41.2156C34.5074 41.7657 35.3325 42.7743 34.6907 42.6368C34.0489 42.4992 33.453 42.6368 33.2237 43.0952C32.9945 43.5536 32.8111 43.3244 32.4902 43.141C32.1693 43.0035 31.8484 42.8201 31.4817 42.8201C31.1149 42.8201 30.794 43.0035 30.4731 43.141C30.1522 43.3244 29.923 43.5536 29.7396 43.0952C29.5104 42.6368 28.9145 42.4992 28.2726 42.6368C27.6308 42.7743 28.4102 41.7657 28.9603 41.2156C29.3729 40.7572 28.9603 40.5738 28.3643 40.803C26.6681 41.995 24.8344 43.3703 24.376 43.6912C23.9634 44.0121 24.2843 44.6539 24.8344 45.2498C26.5764 46.9002 28.9145 47.8629 31.4817 47.8629C34.0031 47.8629 36.2952 46.9002 38.0373 45.3415C38.5874 44.6997 39 44.0121 38.5416 43.6912ZM27.4933 38.7401C26.7598 38.9235 25.4762 39.1527 25.9346 38.6484C26.3931 38.1441 26.5306 37.5482 26.2555 37.1356C25.9346 36.723 26.2555 36.6771 26.5764 36.4479C26.8515 36.2645 27.1724 36.0353 27.3558 35.7144C27.5392 35.3935 27.5392 35.0268 27.585 34.66C27.6308 34.2933 27.4933 33.9724 27.9976 34.0182C28.5019 34.0641 28.9145 33.6056 29.1437 32.9638C29.327 32.322 29.8313 33.5139 30.0605 34.2474C30.2439 34.8434 30.6107 34.5225 30.7024 33.8807C30.519 31.8636 30.2439 29.6631 30.1981 29.0671C30.1522 28.517 29.3729 28.517 28.5936 28.7004C24.5593 30.0298 21.717 33.7431 21.717 38.0983C21.717 38.8318 21.8087 39.5194 21.9463 40.2071C22.1755 40.9864 22.5422 41.6282 23.0465 41.399C23.5966 41.1698 25.7054 40.2988 27.585 39.4277C28.0434 39.061 28.0893 38.6026 27.4933 38.7401Z" fill="#F18B6C"/>
<path d="M34.278 29.113C33.4987 28.9296 32.811 28.9296 32.7194 29.4797C32.6735 30.0298 32.3985 32.1386 32.2151 34.1099C32.3068 34.7517 32.6735 35.0726 32.8569 34.4766C33.0403 33.789 33.5445 32.5971 33.7279 33.2389C33.9113 33.8348 34.3239 34.2933 34.8282 34.2474C35.3324 34.2016 35.1949 34.4766 35.2407 34.8434C35.2407 35.1643 35.2866 35.531 35.4241 35.8519C35.6075 36.1729 35.8826 36.3562 36.1576 36.5396C36.4785 36.7688 36.7536 36.7688 36.4785 37.1814C36.2035 37.594 36.341 38.1441 36.7994 38.6484C37.212 39.1527 35.9742 38.9235 35.2866 38.7401C34.7365 38.6026 34.7823 39.061 35.2407 39.4277C37.0286 40.2529 39.0916 41.1239 39.5959 41.3073C40.1001 41.5365 40.4669 40.803 40.6961 39.9779C40.8336 39.3819 40.8795 38.7401 40.8795 38.0983C40.8795 33.8807 38.083 30.3049 34.278 29.113ZM38.3123 43.5078C37.8538 43.1869 36.0659 41.8574 34.4614 40.7114C33.9113 40.528 33.4987 40.7114 33.9113 41.1239C34.4156 41.6282 35.1949 42.6368 34.5531 42.4992C33.9113 42.3617 33.3612 42.4992 33.1319 42.9577C32.9027 43.4161 32.7194 43.1869 32.3985 43.0035C32.0775 42.866 31.8025 42.7285 31.4357 42.6826C31.069 42.6826 30.7939 42.866 30.473 43.0035C30.1521 43.1869 29.9688 43.4161 29.7395 42.9577C29.5103 42.4992 28.9602 42.3617 28.3184 42.4992C27.6766 42.6368 28.4559 41.6741 28.9602 41.1239C29.3728 40.7114 28.9602 40.528 28.3642 40.7572C26.7139 41.9033 24.9718 43.2327 24.5134 43.5536C24.1008 43.8746 24.4675 44.4705 24.9718 45.0665C26.668 46.6252 28.9144 47.5879 31.3899 47.5879C33.8196 47.5879 36.0201 46.671 37.7163 45.1582C38.3581 44.4705 38.7707 43.8287 38.3123 43.5078ZM27.6307 38.7401C26.9431 38.9235 25.7053 39.1068 26.1179 38.6484C26.5305 38.1441 26.7139 37.594 26.4388 37.1814C26.1637 36.7688 26.4388 36.723 26.7597 36.5396C27.0348 36.3562 27.3098 36.1729 27.4932 35.8519C27.6307 35.531 27.6766 35.2101 27.6766 34.8434C27.7224 34.4766 27.5849 34.2016 28.0892 34.2474C28.5934 34.2933 29.006 33.8348 29.1894 33.2389C29.3728 32.6429 29.8312 33.789 30.0604 34.4766C30.2438 35.0726 30.6106 34.7517 30.7022 34.1099C30.5189 32.1386 30.2438 30.0298 30.198 29.4797C30.1521 28.9754 29.4186 28.9754 28.6393 29.113C24.7884 30.3049 22.0378 33.8807 22.0378 38.0983C22.0378 38.7859 22.1295 39.4736 22.2671 40.1612C22.4963 40.8947 22.863 41.5365 23.3215 41.3073C23.8257 41.0781 25.8887 40.2071 27.7224 39.3819C28.1809 39.0151 28.2267 38.5567 27.6307 38.7401Z" fill="url(#paint3_radial_560_2971)"/>
<path d="M32.6735 43.6453C32.4902 43.6911 32.0776 44.5163 32.1234 44.9748C32.1693 45.3874 32.5818 45.7083 32.9944 45.6166C33.407 45.5707 33.6821 45.1581 33.5904 44.7455C33.4987 44.2871 32.9486 43.5995 32.6735 43.6453ZM27.0348 43.141C26.7597 43.4619 26.7597 43.9662 27.0806 44.1954C27.4015 44.4705 27.86 44.4246 28.135 44.1037C28.4101 43.7828 28.5018 42.8201 28.3642 42.6826C28.2267 42.5451 27.3557 42.8201 27.0348 43.141ZM30.2438 43.6453C29.9688 43.5995 29.3728 44.2871 29.327 44.7455C29.2811 45.1581 29.5562 45.5707 29.9229 45.6166C30.3355 45.6624 30.7023 45.3874 30.7939 44.9748C30.8856 44.5622 30.4272 43.6911 30.2438 43.6453ZM34.5073 42.6826C34.3697 42.8201 34.4614 43.737 34.7365 44.1037C35.0115 44.4246 35.5158 44.4705 35.7909 44.1954C36.1118 43.9204 36.1118 43.4619 35.8367 43.141C35.6075 42.8201 34.7365 42.5451 34.5073 42.6826ZM25.1552 35.256C24.7426 35.1184 24.33 35.3018 24.1467 35.6685C24.0091 36.0353 24.1925 36.4937 24.6051 36.6313C25.0177 36.7688 25.8887 36.5854 25.9804 36.3562C26.0721 36.2187 25.522 35.4393 25.1552 35.256ZM26.7139 32.9638C26.393 32.6887 25.8887 32.7346 25.6595 33.0555C25.3844 33.3764 25.4761 33.8348 25.797 34.1099C26.1179 34.3849 27.0806 34.4308 27.2182 34.2932C27.3557 34.1099 27.0348 33.2388 26.7139 32.9638ZM28.2726 31.2676C27.9058 31.4051 27.6766 31.8635 27.86 32.2303C27.9975 32.6429 28.7768 33.193 28.9602 33.1013C29.1894 33.0096 29.3728 32.0928 29.2353 31.726C29.0977 31.3593 28.6393 31.13 28.2726 31.2676ZM24.6051 37.9607C24.1925 38.0524 23.9174 38.4192 24.0091 38.8317C24.1008 39.2443 24.5134 39.4736 24.926 39.4277C25.3386 39.336 26.0262 38.7401 25.9804 38.465C25.8887 38.2816 25.0177 37.9149 24.6051 37.9607ZM38.2664 36.6771C38.679 36.5396 38.8624 36.0811 38.7249 35.7144C38.5873 35.3476 38.1289 35.1643 37.7163 35.3018C37.3037 35.4393 36.7994 36.2645 36.8453 36.402C36.9828 36.6313 37.8538 36.8146 38.2664 36.6771ZM35.0574 32.2761C35.1949 31.8635 35.0115 31.451 34.6448 31.3134C34.278 31.1759 33.8196 31.4051 33.6821 31.7719C33.5446 32.1844 33.7279 33.0555 33.9571 33.1472C34.1405 33.2388 34.9199 32.6887 35.0574 32.2761ZM38.3123 37.9607C37.8997 37.869 37.0287 38.2816 36.9828 38.465C36.937 38.7401 37.6246 39.336 38.0372 39.4277C38.4498 39.5194 38.8624 39.2443 38.9541 38.8317C38.9999 38.465 38.7249 38.0524 38.3123 37.9607ZM37.2579 33.0555C36.9828 32.7346 36.5244 32.6887 36.2035 32.9638C35.8826 33.2388 35.5617 34.1099 35.6992 34.2932C35.7909 34.4308 36.7536 34.3849 37.1203 34.1099C37.4412 33.8807 37.5329 33.3764 37.2579 33.0555Z" fill="#E86A0A"/>
<path d="M34.4155 31.451C34.3697 31.451 34.3238 31.451 34.278 31.451C34.0946 31.451 33.9571 31.5426 33.9112 31.726C33.8196 31.9094 33.9112 32.3678 34.0029 32.597C34.2321 32.4595 34.5531 32.1845 34.6447 32.0011C34.7364 31.726 34.5989 31.4968 34.4155 31.451ZM34.7364 42.8201C34.7364 43.0494 34.8281 43.5078 34.9198 43.6453C35.0115 43.737 35.1032 43.7828 35.2407 43.7828C35.2865 43.7828 35.3782 43.7828 35.4699 43.6912C35.5616 43.6453 35.6075 43.5536 35.6075 43.4161C35.6075 43.3244 35.5616 43.1869 35.5158 43.0952C35.3782 43.0035 35.0115 42.866 34.7364 42.8201ZM32.6735 43.8745C32.5359 44.1037 32.3526 44.5163 32.3984 44.6997C32.4443 44.9289 32.6276 45.0665 32.8568 45.0665C32.9485 45.0665 33.0402 44.9748 33.0861 44.9289C33.1319 44.8372 33.1778 44.7456 33.1778 44.608C33.1319 44.3788 32.8568 44.0121 32.6735 43.8745ZM36.616 32.9638C36.5243 32.9638 36.4326 33.0096 36.3409 33.0555C36.1576 33.193 36.02 33.6056 35.9742 33.8348H36.02C36.3409 33.8348 36.7077 33.7431 36.7994 33.6514C36.8911 33.5598 36.9369 33.4681 36.9369 33.3764C36.9369 33.2847 36.9369 33.193 36.8452 33.1013C36.8452 33.0096 36.7077 32.9638 36.616 32.9638ZM38.4039 38.3275C38.3581 38.2358 38.2664 38.1899 38.1288 38.1441H38.083C37.8538 38.1441 37.487 38.2816 37.3037 38.3733C37.4412 38.5567 37.7621 38.8318 37.9913 38.8776C38.2205 38.9234 38.4497 38.7859 38.4497 38.6025C38.4956 38.5108 38.4497 38.3733 38.4039 38.3275ZM38.083 36.127C38.1747 36.0811 38.2664 35.9895 38.3122 35.8978C38.3581 35.8061 38.3581 35.7144 38.3122 35.6227C38.2664 35.4852 38.1288 35.3935 37.9455 35.3935C37.8996 35.3935 37.8538 35.3935 37.8079 35.4393C37.6246 35.4852 37.3495 35.8519 37.212 36.0811C37.3495 36.127 37.5787 36.1728 37.8079 36.1728C37.9455 36.1728 38.0372 36.127 38.083 36.127ZM26.3929 33.0555C26.3012 33.0096 26.2095 32.9638 26.1179 32.9638C25.9803 32.9638 25.8886 33.0096 25.8428 33.1013C25.797 33.193 25.7511 33.2847 25.7511 33.3764C25.7511 33.4681 25.8428 33.5598 25.9345 33.6514C26.0262 33.7431 26.3929 33.8348 26.7138 33.8348C26.7597 33.8348 26.7597 33.8348 26.7597 33.8348C26.7597 33.5598 26.5763 33.193 26.3929 33.0555ZM24.9259 35.3935C24.8801 35.3935 24.8342 35.3477 24.7884 35.3477C24.605 35.3477 24.4675 35.4393 24.4217 35.5769C24.3758 35.6686 24.3758 35.7602 24.4217 35.8519C24.4675 35.9436 24.5592 36.0353 24.6509 36.0811C24.6967 36.0811 24.7426 36.127 24.9259 36.127C25.1552 36.127 25.3844 36.0811 25.5219 36.0353C25.3844 35.8519 25.1093 35.4852 24.9259 35.3935ZM29.602 44.608C29.602 44.6997 29.602 44.8372 29.6936 44.9289C29.7395 45.0206 29.8312 45.0665 29.9229 45.0665C30.1062 45.1123 30.3355 44.9289 30.3813 44.6997C30.4271 44.5163 30.2438 44.1037 30.1062 43.8745C29.9229 44.0121 29.6478 44.3788 29.602 44.608ZM28.41 31.4051C28.3642 31.4051 28.3183 31.4051 28.2725 31.4051C28.0891 31.4968 27.9974 31.726 28.0433 31.9094C28.0891 32.0928 28.4559 32.3678 28.6851 32.5054C28.7768 32.2761 28.8226 31.8636 28.7768 31.6343C28.7309 31.5427 28.5934 31.4051 28.41 31.4051ZM27.1264 43.4619C27.1264 43.5536 27.1723 43.6453 27.2639 43.737C27.3556 43.8287 27.4473 43.8287 27.4932 43.8287C27.6307 43.8287 27.7224 43.7828 27.8141 43.6912C27.9516 43.5536 27.9974 43.0952 27.9974 42.866C27.7224 42.9118 27.3556 43.0952 27.2181 43.2327C27.1723 43.2327 27.1264 43.3703 27.1264 43.4619ZM24.605 38.1441C24.5133 38.1441 24.3758 38.2358 24.33 38.3275C24.2841 38.4192 24.2383 38.5108 24.2841 38.6025C24.33 38.7859 24.4675 38.9234 24.6967 38.9234C24.7426 38.9234 24.7426 38.9234 24.7884 38.9234C25.0176 38.8776 25.3385 38.6025 25.4761 38.4192C25.2927 38.3275 24.9259 38.1899 24.6967 38.1899C24.605 38.1441 24.605 38.1441 24.605 38.1441Z" fill="#FAB515"/>
<path opacity="0.67" d="M31.4358 26.3165C24.926 26.3165 19.6541 31.5885 19.6541 38.0983C19.6541 39.932 20.0666 41.674 20.846 43.2327C21.8087 43.7828 23.8716 44.2871 29.1895 43.8287C36.5703 43.2327 41.8423 42.27 43.2176 39.061C43.2634 38.7401 43.2634 38.4192 43.2634 38.0983C43.2176 31.5885 37.9456 26.3165 31.4358 26.3165Z" fill="url(#paint4_linear_560_2971)"/>
<path d="M14.4738 46.946C15.2989 45.3415 14.107 43.2786 15.3906 41.9491C16.7201 40.528 21.6712 37.2731 21.6712 37.2731L18.0954 34.9809L15.8032 31.4051C15.8032 31.4051 12.5483 36.3562 11.1272 37.6857C9.79773 38.9693 7.73478 37.8232 6.13026 38.6025C4.43405 39.4277 3.05875 41.5824 4.75495 43.7828C5.71766 45.2498 6.95544 44.8372 8.05568 45.0206C8.14737 46.075 7.68893 47.2669 9.29345 48.3213C11.5856 50.0176 13.511 48.7798 14.4738 46.946Z" fill="#E2CBB3"/>
<path d="M44.7305 8.52925C44.7305 8.52925 44.5471 8.34588 44.5013 8.30003C37.9915 1.79027 27.31 1.88196 20.6627 8.52925C17.2703 11.9675 14.9323 14.9932 14.3822 23.9326C14.153 27.646 13.8321 30.6258 13.1903 33.1013C12.8693 34.3391 13.9237 33.789 16.6285 36.4937C19.3333 39.1985 18.7831 40.2529 20.0209 39.932C22.4506 39.2902 25.4763 38.9693 29.1896 38.7401C38.1291 38.2358 41.1547 35.8519 44.593 32.4595C51.1944 25.7205 51.2861 15.039 44.7305 8.52925Z" fill="url(#paint5_radial_560_2971)"/>
<path d="M13.7862 36.8605C12.5485 37.7315 11.3565 39.7028 9.66034 39.5194C7.45986 39.2444 5.71781 39.5653 5.3969 40.7572C4.93847 42.4534 5.85534 43.1411 7.04727 43.2786C8.46841 43.4161 9.9354 43.3244 10.8064 42.5909C12.4109 41.2615 15.1616 39.2444 15.9867 38.3733C16.3535 37.9149 14.8865 36.0812 13.7862 36.8605ZM11.219 43.9204C10.7606 44.4705 9.43112 45.2957 9.56865 46.3042C9.70619 47.3128 10.7606 47.7712 11.3107 47.5879C11.8608 47.3586 12.8235 46.671 12.8235 45.0665C12.7777 43.4161 12.09 42.9118 11.219 43.9204Z" fill="#FFF0DD"/>
<path d="M43.7678 24.3453C43.7678 25.583 38.2666 25.6747 31.4359 25.6747C24.6052 25.6747 19.104 25.7206 19.104 24.3453C19.104 22.9241 24.6052 23.0158 31.4359 23.0158C38.2666 22.97 43.7678 22.8783 43.7678 24.3453Z" fill="url(#paint6_linear_560_2971)"/>
<path d="M41.6589 12.9302C41.6589 14.168 37.9914 14.2597 33.4071 14.2597C28.8686 14.2597 25.1553 14.3055 25.1553 12.9302C25.1553 11.5091 28.8227 11.6008 33.4071 11.6008C37.9914 11.5549 41.6589 11.4632 41.6589 12.9302Z" fill="url(#paint7_linear_560_2971)"/>
<path d="M43.7678 18.6148C43.7678 19.8526 38.2666 19.9443 31.4359 19.9443C24.6511 19.9443 19.104 19.9901 19.104 18.6148C19.104 17.1937 24.6052 17.2854 31.4359 17.2854C38.2666 17.2854 43.7678 17.1478 43.7678 18.6148Z" fill="url(#paint8_linear_560_2971)"/>
<path d="M36.7078 30.0298C36.7078 31.2676 33.132 31.3592 28.6852 31.3592C24.2842 31.3592 20.6626 31.4051 20.6626 30.0298C20.6626 28.6086 24.2384 28.7003 28.6852 28.7003C33.132 28.7003 36.7078 28.5628 36.7078 30.0298Z" fill="url(#paint9_linear_560_2971)"/>
<path d="M26.714 11.1423C27.6309 11.0507 30.519 10.9131 31.8484 10.9131H38.4499C39.4585 10.9131 38.5874 9.35444 37.2121 8.66679C35.8368 7.97914 32.857 7.10812 29.5563 7.97914C26.3472 8.80432 25.2012 10.2255 24.8344 10.9131C24.376 11.6008 25.7513 11.1882 26.714 11.1423ZM41.2922 15.1766C41.063 14.4431 39.2292 14.7181 37.5789 14.764C34.92 14.9015 29.7855 14.7181 28.1351 14.6723C26.5306 14.6264 25.1553 14.0763 24.5135 13.3887C24.0551 12.8844 24.651 11.3716 23.2757 12.2426C21.9921 13.0219 21.1669 14.7181 20.6627 15.7267C20.2042 16.7811 20.4793 16.9645 21.3961 16.8728C22.3589 16.7352 24.9261 16.6435 28.6853 16.6435C32.4444 16.6435 38.5874 16.6435 39.9169 16.506C41.2922 16.3685 41.5214 15.9101 41.2922 15.1766ZM39.9627 20.4027C39.2751 20.5402 33.6822 20.4944 30.9316 20.4944C28.181 20.4944 22.7715 20.4027 21.5337 20.311C20.2959 20.1735 19.7458 19.9443 19.6083 20.5402C19.2874 21.7322 19.379 23.0158 19.8375 22.8324C20.2959 22.6949 23.1382 22.3281 31.8026 22.3281C40.467 22.3281 39.6877 22.6032 40.2378 21.778C40.8338 20.9528 40.6504 20.311 39.9627 20.4027ZM35.9285 26.2707C35.1033 26.3165 29.2354 26.2248 27.0349 26.2707C24.8344 26.3165 21.8546 26.0873 21.0752 25.9039C20.2959 25.7664 19.6083 25.4913 19.5166 26.0415C19.4249 26.5457 19.4249 28.6087 19.2874 29.1588C19.1498 29.7089 19.7916 29.388 20.4793 28.9296C21.1669 28.4712 22.6798 28.1961 25.1553 28.1961C27.6309 28.1961 31.8484 28.0586 32.7653 28.0586C33.6822 28.0586 34.4157 27.9669 35.5159 27.3709C36.5245 26.8208 36.7537 26.2248 35.9285 26.2707ZM25.0636 32.0928C23.0924 32.0469 20.8002 31.6802 19.8375 31.4051C18.8748 31.1301 19.104 31.8636 18.5539 32.6887C18.1413 33.3306 17.9579 33.8348 19.104 34.4766C20.2501 35.0726 22.7715 33.3306 24.8344 32.9638C26.8515 32.6429 27.0349 32.1386 25.0636 32.0928Z" fill="url(#paint10_linear_560_2971)"/>
<path d="M30.7482 20.4027C30.2898 20.4027 29.9231 20.7694 29.9231 21.2279C29.9231 21.6863 30.2898 22.053 30.7482 22.053C31.2067 22.053 31.5734 21.6863 31.5734 21.2279C31.5734 20.7694 31.2067 20.4027 30.7482 20.4027ZM33.9573 16.7811C33.9573 16.3226 33.5905 15.9559 33.1321 15.9559C32.6737 15.9559 32.3069 16.3226 32.3069 16.7811C32.3069 17.2395 32.6737 17.6062 33.1321 17.6062C33.5905 17.6062 33.9573 17.2395 33.9573 16.7811ZM35.1034 18.7982C34.6449 18.7982 34.2782 19.1649 34.2782 19.6233C34.2782 20.0818 34.6449 20.4485 35.1034 20.4485C35.5618 20.4485 35.9286 20.0818 35.9286 19.6233C35.8827 19.1191 35.516 18.7982 35.1034 18.7982ZM34.4157 23.9326C33.9573 23.9326 33.5905 24.2994 33.5905 24.7578C33.5905 25.2162 33.9573 25.583 34.4157 25.583C34.8742 25.583 35.2409 25.2162 35.2409 24.7578C35.2409 24.2994 34.8742 23.9326 34.4157 23.9326ZM25.843 23.4742C25.3846 23.4742 25.0178 23.8409 25.0178 24.2994C25.0178 24.7578 25.3846 25.1246 25.843 25.1246C26.3014 25.1246 26.6682 24.7578 26.6682 24.2994C26.6223 23.8409 26.2556 23.4742 25.843 23.4742ZM27.9976 26.6374C27.5392 26.6374 27.1725 27.0041 27.1725 27.4626C27.1725 27.921 27.5392 28.2877 27.9976 28.2877C28.4561 28.2877 28.8228 27.921 28.8228 27.4626C28.8228 27.0041 28.4561 26.6374 27.9976 26.6374ZM28.181 19.2566C28.181 18.7982 27.8143 18.4314 27.3558 18.4314C26.8974 18.4314 26.5307 18.7982 26.5307 19.2566C26.5307 19.715 26.8974 20.0818 27.3558 20.0818C27.8143 20.0359 28.181 19.6692 28.181 19.2566ZM24.9261 14.6723C24.9261 14.2138 24.5594 13.8471 24.101 13.8471C23.6425 13.8471 23.2758 14.2138 23.2758 14.6723C23.2758 15.1307 23.6425 15.4974 24.101 15.4974C24.5594 15.4974 24.9261 15.1307 24.9261 14.6723ZM29.0062 12.7468C28.5478 12.7468 28.181 13.1136 28.181 13.572C28.181 14.0304 28.5478 14.3972 29.0062 14.3972C29.4646 14.3972 29.8314 14.0304 29.8314 13.572C29.8314 13.1136 29.4646 12.7468 29.0062 12.7468ZM31.115 9.21689C30.6566 9.21689 30.2898 9.58364 30.2898 10.0421C30.2898 10.5005 30.6566 10.8673 31.115 10.8673C31.5734 10.8673 31.9402 10.5005 31.9402 10.0421C31.8943 9.58364 31.5276 9.21689 31.115 9.21689ZM38.1749 11.6466C38.1749 11.1882 37.8081 10.8214 37.3497 10.8214C36.8913 10.8214 36.5245 11.1882 36.5245 11.6466C36.5245 12.105 36.8913 12.4718 37.3497 12.4718C37.8081 12.4718 38.1749 12.105 38.1749 11.6466ZM38.3124 19.1191C38.7708 19.1191 39.1376 18.7523 39.1376 18.2939C39.1376 17.8355 38.7708 17.4687 38.3124 17.4687C37.854 17.4687 37.4872 17.8355 37.4872 18.2939C37.4872 18.7523 37.854 19.1191 38.3124 19.1191ZM39.2751 24.116C39.2751 23.6576 38.9084 23.2908 38.4499 23.2908C37.9915 23.2908 37.6248 23.6576 37.6248 24.116C37.6248 24.5744 37.9915 24.9412 38.4499 24.9412C38.9084 24.9412 39.2751 24.5744 39.2751 24.116ZM38.9084 29.7547C38.4499 29.7547 38.0832 30.1215 38.0832 30.5799C38.0832 31.0384 38.4499 31.4051 38.9084 31.4051C39.3668 31.4051 39.7336 31.0384 39.7336 30.5799C39.7336 30.1215 39.3668 29.7547 38.9084 29.7547ZM24.6511 32.1386C24.1926 32.1386 23.8259 32.5053 23.8259 32.9638C23.8259 33.4222 24.1926 33.789 24.6511 33.789C25.1095 33.789 25.4763 33.4222 25.4763 32.9638C25.4763 32.5053 25.1095 32.1386 24.6511 32.1386ZM30.5649 28.4253C30.1064 28.4253 29.7397 28.792 29.7397 29.2505C29.7397 29.7089 30.1064 30.0756 30.5649 30.0756C31.0233 30.0756 31.3901 29.7089 31.3901 29.2505C31.3442 28.792 31.0233 28.4253 30.5649 28.4253ZM19.3332 26.8666C18.8748 26.8666 18.5081 27.2334 18.5081 27.6918C18.5081 28.1502 18.8748 28.517 19.3332 28.517C19.7917 28.517 20.1584 28.1502 20.1584 27.6918C20.1126 27.2334 19.7458 26.8666 19.3332 26.8666ZM20.0209 18.7523C19.5625 18.7523 19.1957 19.1191 19.1957 19.5775C19.1957 20.0359 19.5625 20.4027 20.0209 20.4027C20.4793 20.4027 20.8461 20.0359 20.8461 19.5775C20.8002 19.1191 20.4793 18.7523 20.0209 18.7523ZM42.3466 14.8556C41.8882 14.8556 41.5215 15.2224 41.5215 15.6808C41.5215 16.1392 41.8882 16.506 42.3466 16.506C42.8051 16.506 43.1718 16.1392 43.1718 15.6808C43.1718 15.2224 42.8051 14.8556 42.3466 14.8556ZM41.934 24.5286C41.4756 24.5286 41.1089 24.8953 41.1089 25.3538C41.1089 25.8122 41.4756 26.179 41.934 26.179C42.3925 26.179 42.7592 25.8122 42.7592 25.3538C42.7592 24.8953 42.3925 24.5286 41.934 24.5286Z" fill="#FECC52"/>
<path d="M31.39 15.314C32.4903 15.314 34.1406 13.7095 34.2323 12.976C34.2782 12.4717 32.8112 13.1136 32.7653 12.4717C32.7195 12.0133 32.6736 11.1881 32.4903 10.6838C32.4444 10.5005 32.3069 10.4546 32.1694 10.638C31.8026 11.0048 31.4359 11.7841 31.2067 12.1508C30.8858 12.701 29.8314 11.4632 29.648 12.0133C29.4188 12.701 30.2898 14.9014 31.3442 15.314C31.3442 15.314 31.39 15.314 31.39 15.314ZM25.7054 18.5689C25.2929 18.2939 25.2012 19.8984 24.6052 19.6692C24.1468 19.4858 23.4133 19.1649 22.8632 19.119C22.6798 19.0732 22.5881 19.1649 22.6798 19.3483C22.8632 19.8525 23.3674 20.4943 23.5966 20.9069C23.9176 21.4112 22.3589 21.8238 22.7715 22.2364C23.2757 22.7407 25.6138 22.9699 26.4848 22.2364L26.5306 22.1905C26.9891 21.2278 26.3014 18.9815 25.7054 18.5689ZM36.0202 21.0903C35.5159 20.9069 34.6908 20.8611 34.2323 20.7694C33.5905 20.6777 34.324 19.2566 33.7739 19.3024C33.0404 19.3941 31.39 21.0445 31.39 22.1447V22.1905C31.8026 23.1991 33.9573 24.116 34.6449 23.8868C35.1492 23.7492 33.9573 22.649 34.5074 22.3281C34.92 22.0989 35.6535 21.7321 36.0661 21.3654C36.2494 21.2737 36.2036 21.1362 36.0202 21.0903ZM44.8221 20.2651C44.8221 20.2651 44.7763 20.2193 44.8221 20.2651C43.9053 19.8984 42.1174 20.6777 41.8423 21.2278C41.6131 21.5946 42.9884 21.5487 42.8509 22.053C42.7592 22.4198 42.53 23.1074 42.53 23.5659C42.53 23.7492 42.5758 23.7951 42.7592 23.7034C43.1718 23.52 43.6761 23.0616 43.997 22.7865C44.4096 22.4656 44.868 23.7492 45.1431 23.3825C45.5098 22.8782 45.464 20.9069 44.8221 20.2651ZM31.8026 30.4882C31.8026 30.4882 31.7568 30.4882 31.8026 30.4882C31.0691 31.13 30.9316 33.0554 31.2983 33.6056C31.5276 33.9723 32.1235 32.7345 32.4903 33.1013C32.7653 33.3763 33.2696 33.8806 33.6822 34.064C33.8197 34.1557 33.9114 34.1098 33.9114 33.9265C33.9114 33.468 33.728 32.8262 33.6822 32.4136C33.5905 31.9094 34.92 32.0927 34.7366 31.6343C34.4615 31.0842 32.6736 30.1673 31.8026 30.4882ZM21.1669 30.3507C21.3503 30.0298 21.7629 29.4338 21.9004 29.0212C21.9463 28.8378 21.9004 28.792 21.7171 28.8378C21.3045 28.9295 20.6627 29.2046 20.2959 29.388C19.7916 29.6172 19.7458 28.2419 19.3332 28.5169C18.8289 28.8837 18.3247 30.7633 18.7831 31.5884L18.8289 31.6343C19.5624 32.1844 21.4879 31.9094 21.9463 31.4968C22.2213 31.0842 20.8919 30.8091 21.1669 30.3507Z" fill="#515F23"/>
<path d="M32.2611 31.2676C32.0777 31.5426 31.9402 32.0928 31.8944 32.597C32.0319 32.5053 32.2153 32.4595 32.3986 32.4595C32.6279 32.4595 32.8571 32.5512 33.0404 32.6887C33.0404 32.6887 33.0404 32.6887 33.0404 32.6429C32.9488 32.1844 33.1321 31.8635 33.5906 31.6343C33.2238 31.451 32.7195 31.2676 32.307 31.2676C32.307 31.2676 32.2611 31.2676 32.2611 31.2676ZM33.2697 13.6179C32.3528 13.572 32.2153 12.9302 32.1694 12.701C32.1694 12.6093 32.1694 12.5176 32.1236 12.4259C32.1236 12.3801 32.1236 12.3342 32.1236 12.2426C32.0777 12.2884 32.0777 12.3342 32.0319 12.3801C31.9861 12.4718 31.9402 12.5635 31.8944 12.6093C31.711 12.9302 31.3901 13.1136 31.0233 13.1136C30.84 13.1136 30.6566 13.0677 30.5191 13.0219C30.7024 13.6637 31.1609 14.4889 31.5735 14.7639C32.1236 14.6723 32.8112 14.1221 33.2697 13.6179ZM44.5013 20.9986C44.4555 20.9986 44.4096 20.9986 44.3638 20.9986C43.997 20.9986 43.5386 21.1362 43.1718 21.3196C43.5844 21.5946 43.722 21.9614 43.6303 22.374V22.4198C43.8137 22.2823 43.997 22.1906 44.2262 22.1906C44.4555 22.1906 44.6388 22.2823 44.8222 22.374C44.7764 21.8697 44.6847 21.2737 44.5013 20.9986ZM24.7886 20.5402C24.6511 20.5402 24.5594 20.5402 24.4219 20.4944C24.3302 20.4485 24.2385 20.4485 24.1468 20.4027C24.101 20.4027 24.0551 20.3568 24.0093 20.3568C24.0551 20.4027 24.0551 20.4485 24.101 20.4944C24.1468 20.5861 24.1927 20.6319 24.2385 20.7236C24.6053 21.3196 24.2844 21.8238 23.9635 22.0989C24.1927 22.1447 24.4677 22.1447 24.7428 22.1447C25.3388 22.1447 25.7513 22.0072 25.9806 21.9155C26.1181 21.4571 25.9347 20.5402 25.7055 19.9442C25.568 20.2193 25.2471 20.5402 24.7886 20.5402ZM20.6627 30.1215C20.5252 30.1673 20.3877 30.1673 20.296 30.1673C19.9751 30.1673 19.7 29.984 19.5625 29.8006C19.425 30.259 19.3791 30.855 19.4708 31.1759C19.6083 31.2217 19.8834 31.3134 20.2501 31.3134C20.4794 31.3134 20.6627 31.3134 20.8461 31.2676C20.4794 30.9008 20.4335 30.5341 20.6627 30.1215ZM34.2324 21.6405C33.5447 21.5488 33.3614 20.9986 33.3614 20.5402C32.8571 20.9528 32.2611 21.6863 32.1694 22.1906C32.3986 22.6032 33.2238 23.0616 33.8656 23.2908C33.7281 22.8782 33.6823 22.2823 34.2782 21.9155C34.3699 21.8697 34.4158 21.8238 34.5074 21.778C34.5533 21.7321 34.5991 21.7321 34.645 21.6863C34.5991 21.6863 34.5074 21.6863 34.4616 21.6863C34.4158 21.6405 34.3241 21.6405 34.2324 21.6405Z" fill="#6A7A27"/>
</g>
</g>
<defs>
<filter id="filter0_d_560_2971" x="-0.0200195" y="0.480011" width="57.616" height="58.4" filterUnits="userSpaceOnUse" color-interpolation-filters="sRGB">
<feFlood flood-opacity="0" result="BackgroundImageFix"/>
<feColorMatrix in="SourceAlpha" type="matrix" values="0 0 0 0 0 0 0 0 0 0 0 0 0 0 0 0 0 0 127 0" result="hardAlpha"/>
<feOffset dx="2" dy="3"/>
<feGaussianBlur stdDeviation="3"/>
<feComposite in2="hardAlpha" operator="out"/>
<feColorMatrix type="matrix" values="0 0 0 0 0 0 0 0 0 0 0 0 0 0 0 0 0 0 0.1 0"/>
<feBlend mode="normal" in2="BackgroundImageFix" result="effect1_dropShadow_560_2971"/>
<feBlend mode="normal" in="SourceGraphic" in2="effect1_dropShadow_560_2971" result="shape"/>
</filter>
<radialGradient id="paint0_radial_560_2971" cx="0" cy="0" r="1" gradientUnits="userSpaceOnUse" gradientTransform="translate(17.1226 24.6417) scale(11.5683)">
<stop offset="0.8185" stop-color="#FDECF4"/>
<stop offset="0.8538" stop-color="#FBE7F0"/>
<stop offset="0.9015" stop-color="#F6DAE5"/>
<stop offset="0.9562" stop-color="#EEC2D1"/>
<stop offset="1" stop-color="#E6AABE"/>
</radialGradient>
<radialGradient id="paint1_radial_560_2971" cx="0" cy="0" r="1" gradientUnits="userSpaceOnUse" gradientTransform="translate(20.9027 18.0518) scale(11.5683)">
<stop offset="0.8185" stop-color="#FDECF4"/>
<stop offset="0.8538" stop-color="#FBE7F0"/>
<stop offset="0.9015" stop-color="#F6DAE5"/>
<stop offset="0.9562" stop-color="#EEC2D1"/>
<stop offset="1" stop-color="#E6AABE"/>
</radialGradient>
<radialGradient id="paint2_radial_560_2971" cx="0" cy="0" r="1" gradientUnits="userSpaceOnUse" gradientTransform="translate(31.4555 38.1021) scale(11.3098)">
<stop stop-color="#F49E78"/>
<stop offset="0.1263" stop-color="#F8B690"/>
<stop offset="0.2471" stop-color="#F7AF88"/>
<stop offset="0.4422" stop-color="#F49A73"/>
<stop offset="0.4847" stop-color="#F3956D"/>
<stop offset="0.6139" stop-color="#EF7A54"/>
<stop offset="0.7259" stop-color="#ED6845"/>
<stop offset="0.8063" stop-color="#EC6240"/>
<stop offset="0.8674" stop-color="#ED6A48"/>
<stop offset="0.9676" stop-color="#F0815E"/>
<stop offset="0.9954" stop-color="#F18866"/>
</radialGradient>
<radialGradient id="paint3_radial_560_2971" cx="0" cy="0" r="1" gradientUnits="userSpaceOnUse" gradientTransform="translate(31.4555 38.2689) scale(9.34001)">
<stop offset="0.2795" stop-color="#BA1818"/>
<stop offset="0.4525" stop-color="#BE1917"/>
<stop offset="0.6368" stop-color="#CA1B16"/>
<stop offset="0.8258" stop-color="#DE1F14"/>
<stop offset="0.866" stop-color="#E32013"/>
<stop offset="0.9508" stop-color="#E5321C"/>
<stop offset="0.9977" stop-color="#E73D23"/>
</radialGradient>
<linearGradient id="paint4_linear_560_2971" x1="33.0933" y1="46.2895" x2="31.5338" y2="38.4921" gradientUnits="userSpaceOnUse">
<stop offset="0.0880683" stop-color="#EC6042"/>
<stop offset="0.2481" stop-color="#C84933"/>
<stop offset="0.5695" stop-color="#8D291E"/>
<stop offset="0.8061" stop-color="#6D1913"/>
<stop offset="0.9307" stop-color="#61130F"/>
</linearGradient>
<radialGradient id="paint5_radial_560_2971" cx="0" cy="0" r="1" gradientUnits="userSpaceOnUse" gradientTransform="translate(30.6971 22.2112) rotate(45) scale(19.8942)">
<stop offset="0.0270979" stop-color="#F6A96E"/>
<stop offset="0.1432" stop-color="#F5A567"/>
<stop offset="0.3075" stop-color="#F19B56"/>
<stop offset="0.4995" stop-color="#EA893A"/>
<stop offset="0.6431" stop-color="#E47922"/>
<stop offset="0.7442" stop-color="#D76C20"/>
<stop offset="0.922" stop-color="#B74D1A"/>
<stop offset="1" stop-color="#A93E17"/>
</radialGradient>
<linearGradient id="paint6_linear_560_2971" x1="31.4432" y1="21.1898" x2="31.4432" y2="25.1576" gradientUnits="userSpaceOnUse">
<stop stop-color="#8D2B13"/>
<stop offset="0.1909" stop-color="#943015"/>
<stop offset="0.4811" stop-color="#A94219"/>
<stop offset="0.8326" stop-color="#CE641F"/>
<stop offset="1" stop-color="#E47922"/>
</linearGradient>
<linearGradient id="paint7_linear_560_2971" x1="33.4366" y1="9.77519" x2="33.4366" y2="13.7432" gradientUnits="userSpaceOnUse">
<stop stop-color="#8D2B13"/>
<stop offset="0.1909" stop-color="#943015"/>
<stop offset="0.4811" stop-color="#A94219"/>
<stop offset="0.8326" stop-color="#CE641F"/>
<stop offset="1" stop-color="#E47922"/>
</linearGradient>
<linearGradient id="paint8_linear_560_2971" x1="31.4432" y1="15.4826" x2="31.4432" y2="19.45" gradientUnits="userSpaceOnUse">
<stop stop-color="#8D2B13"/>
<stop offset="0.1909" stop-color="#943015"/>
<stop offset="0.4811" stop-color="#A94219"/>
<stop offset="0.8326" stop-color="#CE641F"/>
<stop offset="1" stop-color="#E47922"/>
</linearGradient>
<linearGradient id="paint9_linear_560_2971" x1="28.6906" y1="26.8972" x2="28.6906" y2="30.8647" gradientUnits="userSpaceOnUse">
<stop stop-color="#8D2B13"/>
<stop offset="0.1909" stop-color="#943015"/>
<stop offset="0.4811" stop-color="#A94219"/>
<stop offset="0.8326" stop-color="#CE641F"/>
<stop offset="1" stop-color="#E47922"/>
</linearGradient>
<linearGradient id="paint10_linear_560_2971" x1="31.3627" y1="39.8973" x2="27.8741" y2="5.70843" gradientUnits="userSpaceOnUse">
<stop stop-color="#F59A3B"/>
<stop offset="0.1995" stop-color="#F6A043"/>
<stop offset="0.5026" stop-color="#F8B05A"/>
<stop offset="0.87" stop-color="#FCCA7F"/>
<stop offset="1" stop-color="#FED48D"/>
</linearGradient>
<clipPath id="clip0_560_2971">
<rect width="58" height="58" fill="white" transform="translate(0.5)"/>
</clipPath>
</defs>
</svg>
