<svg width="55" height="60" viewBox="0 0 55 60" fill="none" xmlns="http://www.w3.org/2000/svg">
<g clipPath="url(#clip0_560_2920)" filter="url(#filter0_d_560_2920)">
<g filter="url(#filter1_d_560_2920)">
<path d="M46.0775 9.55212C45.846 9.32131 43.4848 10.0137 42.883 10.6138L40.0588 13.4297L42.1885 15.5531L45.0127 12.7373C45.6145 12.1372 46.3553 9.78293 46.0775 9.55212Z" fill="#8892A1"/>
<path d="M45.4758 9.8291C44.5498 10.1984 43.7628 10.5215 43.485 10.7523L40.4757 13.7528C40.4294 13.799 40.4294 13.799 40.3831 13.8452C40.6608 14.1221 40.9849 14.4453 41.309 14.7684C41.309 14.7222 41.3553 14.7222 41.3553 14.6761L44.3646 11.6756C44.6887 11.4448 45.7999 9.69061 45.4758 9.8291Z" fill="#DBEBFA"/>
<path d="M42.0497 27.786C40.7997 28.8477 38.9015 29.9094 37.3274 29.8633C34.2718 29.7248 31.4013 26.9551 29.0864 23.3083C25.6141 17.7689 25.1975 10.8909 28.855 7.79803C29.4568 7.29025 30.6606 6.78247 31.4013 6.55166C34.9662 5.35146 39.4571 7.52106 42.3738 12.1372C45.8461 17.7228 45.7072 24.7393 42.0497 27.786Z" fill="#327A32"/>
<path d="M40.8921 28.5245C37.1883 31.6173 31.4011 29.5862 27.8825 24.0007C24.3639 18.4151 24.5491 11.3986 28.2066 8.30574C31.9104 5.21291 37.6975 7.24402 41.2162 12.8296C44.6885 18.369 44.5496 25.4317 40.8921 28.5245Z" fill="#5CA431"/>
<path d="M40.5679 28.0629C37.0493 31.0172 31.4936 29.0785 28.1602 23.7699C24.8267 18.4151 24.9656 11.7217 28.4842 8.76736C32.0028 5.81302 37.5585 7.75181 40.892 13.0604C44.2254 18.369 44.0865 25.1086 40.5679 28.0629Z" fill="#B9D265"/>
<path d="M29.6879 13.9375C30.1045 11.1217 37.5584 11.4448 39.2714 14.1683C40.9844 16.8918 38.9011 24.8778 36.4936 24.7855C34.0861 24.6932 29.3175 16.7534 29.6879 13.9375Z" fill="#FBF6C4"/>
<path d="M38.4382 14.6761C38.5308 14.5837 38.5308 14.4914 38.5308 14.3991C38.4845 14.2606 38.3456 14.3068 38.1604 14.3068C37.6049 14.3068 35.6141 14.7222 35.1974 14.8146C34.7344 14.9069 35.2437 16.4764 35.3826 16.8457C35.5678 17.215 35.7993 16.8918 36.1696 16.5687C36.1233 16.5687 38.2993 14.8146 38.4382 14.6761ZM35.8456 17.6304C36.077 17.9535 37.1882 18.9691 37.4197 18.5075C37.6512 18.0459 38.6234 16.0609 38.8086 15.4147C38.8549 15.23 38.9012 15.0915 38.8549 14.9992C38.8086 14.9069 38.716 14.9069 38.6234 14.9992C38.4382 15.0915 36.3085 16.8918 36.3085 16.8918C35.9382 17.1688 35.6141 17.3534 35.8456 17.6304ZM37.7901 18.646C37.6975 18.8768 37.7901 19.1076 38.0678 19.3845C38.3456 19.6154 38.7623 19.9385 38.9475 19.9385C39.1327 19.9385 39.3642 19.6615 39.5031 18.5075C39.642 17.3534 39.642 16.5225 39.5031 15.8301C39.4568 15.5993 39.2716 15.3685 39.179 15.5993C39.0401 15.8301 37.8827 18.369 37.7901 18.646ZM34.6881 13.8913C34.7807 14.2606 34.9659 14.4453 35.1974 14.4453C35.4289 14.4453 37.8826 13.9375 38.1604 13.8913C38.3919 13.8452 38.2993 13.5682 38.1141 13.4759C37.6049 13.1066 36.9104 12.8296 35.8919 12.645C34.8733 12.4142 34.5955 12.5988 34.5492 12.7834C34.4566 12.9681 34.5492 13.522 34.6881 13.8913ZM30.6602 15.1838C31.0769 15.8301 32.7899 17.9074 33.2066 18.369C33.6233 18.8306 34.364 17.8612 34.5029 17.5842C34.6418 17.3073 34.2252 17.1226 33.7622 16.7995C33.7622 16.7995 30.938 14.8607 30.7528 14.7684C30.6139 14.6761 30.5214 14.7222 30.5214 14.7684C30.4288 14.8146 30.5214 14.953 30.6602 15.1838ZM32.9288 18.4613C32.7436 18.2305 30.6139 15.5531 30.3825 15.3223C30.1973 15.0915 30.0584 15.2762 30.1047 15.507C30.2436 16.1994 30.5214 17.0303 31.1232 18.2305C31.7251 19.4307 32.0492 19.7077 32.2344 19.7077C32.4196 19.7077 32.6973 19.3845 32.8825 19.1537C33.114 18.9229 33.114 18.6921 32.9288 18.4613ZM34.6881 16.7533C34.7344 16.384 34.6418 14.8607 34.1326 14.7222C33.6233 14.5837 31.4936 14.076 30.938 14.0298C30.7528 14.0298 30.6139 14.0298 30.6139 14.1221C30.6139 14.2145 30.6602 14.3068 30.7991 14.3991C30.9843 14.5837 33.8085 16.4302 33.8085 16.4302C34.3177 16.7995 34.6418 17.1226 34.6881 16.7533ZM34.3177 13.8452C34.2714 13.4759 34.2252 12.9219 34.0863 12.6911C33.9474 12.4603 33.6233 12.3218 32.651 12.4603C31.7251 12.5988 31.1232 12.8296 30.7065 13.1989C30.5677 13.2912 30.5677 13.5682 30.7991 13.6144C31.0769 13.6605 33.7622 14.3068 33.9937 14.3068C34.2252 14.3991 34.3177 14.2145 34.3177 13.8452ZM35.5678 23.6314C35.4289 23.3083 33.9474 20.1231 33.8085 19.8462C33.6696 19.5692 33.4844 19.523 33.2066 19.6615C32.9751 19.8 32.6047 20.0308 32.5584 20.2155C32.5121 20.4001 32.6047 20.8617 33.4381 21.8773C34.2252 22.8928 34.827 23.5391 35.3363 23.8622C35.4752 24.0469 35.7067 23.9545 35.5678 23.6314ZM37.3734 23.9545C37.7901 23.6314 38.1604 23.0775 38.6234 22.1081C39.0401 21.1387 39.0401 20.6771 38.9012 20.4924C38.7623 20.3078 38.3456 20.0308 38.0215 19.8923C37.7438 19.7538 37.5586 19.8 37.5123 20.0308C37.466 20.3078 37.0956 23.4006 37.0493 23.7237C37.003 24.0007 37.2345 24.093 37.3734 23.9545ZM36.1233 23.4929C36.1233 23.216 35.4289 19.523 35.4289 19.523C35.3363 18.8768 35.29 18.4152 35.0122 18.4613C34.7344 18.5075 33.6696 19.0153 33.9474 19.6154C34.2252 20.2155 35.3363 22.7543 35.753 23.4468C35.8919 23.6776 35.9845 23.8161 36.077 23.8161C36.1233 23.7237 36.1696 23.6776 36.1233 23.4929ZM37.2345 19.7077C37.2808 19.1076 36.0308 18.5075 35.753 18.4613C35.4752 18.4152 35.6141 18.8768 35.7067 19.523C35.7067 19.523 36.3085 23.216 36.4011 23.4929C36.4474 23.6776 36.4937 23.7699 36.5863 23.7699C36.6789 23.8161 36.7252 23.6314 36.7715 23.4468C36.9104 22.8005 37.1882 20.3078 37.2345 19.7077Z" fill="#ACCB4C"/>
<path d="M39.2716 15.9224C39.2253 15.8763 38.9938 16.2917 38.9012 16.661C38.8086 17.0303 38.9012 17.2611 38.9938 17.3073C39.0864 17.3534 39.2253 17.2611 39.2716 16.8918C39.4104 16.5225 39.3178 15.9686 39.2716 15.9224ZM38.6234 15.4146C38.5771 15.3685 38.2067 15.5531 37.9752 15.8301C37.7437 16.1071 37.7437 16.2917 37.8363 16.384C37.9289 16.4764 38.0678 16.4764 38.2993 16.1994C38.4845 15.9224 38.6697 15.4608 38.6234 15.4146ZM37.0493 13.3374C36.7252 13.2912 36.5863 13.3835 36.6326 13.522C36.6326 13.6605 36.7715 13.799 37.1419 13.799C37.466 13.8452 37.8826 13.7067 37.8826 13.6143C37.8363 13.5682 37.4197 13.3374 37.0493 13.3374ZM38.0678 14.5837C38.0215 14.5376 37.6048 14.5376 37.3271 14.6761C37.0493 14.8145 37.003 14.9992 37.0493 15.1377C37.0956 15.2762 37.2808 15.3223 37.5585 15.1377C37.8363 14.9992 38.1141 14.6299 38.0678 14.5837ZM31.0306 16.4764C30.7991 16.0609 30.4287 15.6455 30.3824 15.6455C30.3361 15.6916 30.5213 16.2456 30.7065 16.661C30.938 17.0765 31.0769 17.1688 31.1695 17.1226C31.2621 17.0765 31.2621 16.8918 31.0306 16.4764ZM32.2806 13.3374C32.2343 13.1989 32.0954 13.1066 31.7714 13.1066C31.4473 13.1066 31.0306 13.3374 31.0769 13.3835C31.0769 13.4297 31.5399 13.6143 31.9103 13.6143C32.188 13.6143 32.3269 13.4759 32.2806 13.3374ZM31.5399 16.0147C31.864 16.2917 32.0029 16.3379 32.0491 16.1994C32.0954 16.1071 32.0029 15.8763 31.6788 15.5993C31.3547 15.3223 30.8917 15.0915 30.8917 15.1377C30.8917 15.23 31.2158 15.7378 31.5399 16.0147ZM32.4195 14.9992C32.4195 14.8607 32.3269 14.6761 31.9566 14.5376C31.5862 14.3529 31.1232 14.3068 31.1232 14.3529C31.1232 14.3991 31.5399 14.8145 31.864 14.9992C32.2806 15.1377 32.4195 15.1377 32.4195 14.9992ZM37.79 22.7543C37.8826 22.385 37.8826 22.2004 37.7437 22.1081C37.6511 22.0158 37.5122 22.1081 37.3734 22.4774C37.2808 22.8467 37.2808 23.4006 37.3271 23.4468C37.3734 23.4929 37.6974 23.1236 37.79 22.7543ZM36.7252 22.0619C36.6789 21.6003 36.5863 21.4157 36.4474 21.4157C36.3548 21.4157 36.2622 21.5541 36.3085 21.9696C36.3548 22.4312 36.54 22.9851 36.5863 22.9851C36.6789 23.0313 36.7715 22.5235 36.7252 22.0619ZM35.7066 22.0158C35.5678 21.5541 35.4289 21.4157 35.3363 21.4618C35.2437 21.4618 35.1974 21.6465 35.3363 22.1081C35.4752 22.5697 35.7992 23.0775 35.8455 23.0775C35.8918 23.0313 35.8455 22.4312 35.7066 22.0158ZM34.827 22.4774C34.5492 22.1081 34.4103 22.0158 34.3177 22.1081C34.2251 22.2004 34.2714 22.385 34.5492 22.7543C34.827 23.1236 35.2437 23.4929 35.29 23.4468C35.29 23.4006 35.0585 22.8467 34.827 22.4774Z" fill="#CFDD7E"/>
<path d="M13.0212 20.0309C13.8083 18.5998 15.1046 16.1533 15.7065 16.2456C16.262 16.3379 16.0305 15.9225 16.262 15.4609C16.4935 14.9992 17.1417 13.9837 17.975 13.1066C19.688 11.3063 44.9202 23.0314 45.8924 24.0008C46.8647 24.9701 46.7721 25.6626 46.5869 25.9857C46.4017 26.3088 46.6332 26.8166 46.2165 27.9245C45.7998 29.0324 45.1054 29.9556 44.5035 30.8327C43.9479 31.7097 43.7627 32.356 43.2998 32.5406C42.8368 32.6791 43.4386 32.8638 42.9757 33.6485C42.5127 34.4333 42.3275 35.495 41.3553 36.1412C40.383 36.7875 35.7996 40.4343 34.8273 41.1267C33.8551 41.8653 33.068 42.3269 31.4476 41.3575C29.7346 40.4343 19.8732 32.1252 18.2065 30.925C16.5398 29.7248 13.6694 23.3545 13.2527 22.4774C12.836 21.5542 12.2805 21.3234 13.0212 20.0309Z" fill="#632211"/>
<path d="M45.8461 23.9545C44.8738 22.9852 44.2257 22.5235 44.5498 21.8773C44.8738 21.231 44.8738 21.0002 42.6979 19.6154C40.5219 18.2305 29.1327 7.05941 28.1604 5.99769C27.1882 4.93598 26.4474 4.93598 25.6141 5.67456C24.7807 6.41315 24.5955 6.2285 24.5955 6.78244C24.5955 7.33638 24.4567 8.16729 24.04 7.89032C23.6233 7.65951 22.9288 8.53658 23.0677 8.95203C23.2066 9.36749 22.6511 8.53658 21.6788 9.50597C20.7066 10.4754 20.151 10.937 20.4751 11.3524C20.7992 11.7679 20.2436 11.9064 19.7343 11.6756C19.2713 11.4448 18.7621 12.1372 17.975 13.0604L17.9287 13.1066C17.9287 13.2912 17.975 13.4759 18.1139 13.7528C18.5769 14.8607 28.253 22.6159 30.6142 24.6931C32.8365 26.6781 36.7718 30.648 37.8829 31.4789C38.9941 32.2636 39.2718 31.3866 39.92 31.5712C40.5682 31.7097 40.6608 31.2481 42.096 30.1402C43.5312 29.0323 42.883 29.0323 42.559 28.2014C42.2349 27.4167 43.8553 28.2014 44.3183 28.2014C44.7812 28.2014 45.4294 26.9089 46.5405 25.9395C46.7257 25.6625 46.8183 24.9239 45.8461 23.9545Z" fill="#9D4329"/>
<path d="M25.5215 8.21342C26.3086 8.30575 30.8921 9.22898 30.105 8.62888C29.3179 8.02878 28.4383 6.87474 27.9753 6.36696C27.466 5.81302 26.9568 5.07444 26.0771 5.81302C25.6604 6.18231 24.8271 6.3208 24.8271 7.05938C24.7808 7.84413 24.6882 8.1211 25.5215 8.21342ZM24.8271 12.1372C26.6327 12.2756 31.1235 12.2295 32.3273 12.1833C33.531 12.1372 33.8088 11.9525 33.1143 11.4909C32.4662 10.9831 31.7254 10.1522 30.5217 9.69059C29.3179 9.22898 27.5123 9.09049 26.4475 8.90585C25.3827 8.7212 24.3641 8.25958 23.7159 8.49039C23.253 8.67504 23.2067 9.09049 24.04 9.3213C24.8271 9.59827 25.0123 9.9214 24.1789 9.82908C23.3456 9.73676 22.6511 9.3213 22.0955 9.78292C21.4937 10.2445 20.9381 11.1216 21.077 11.3986C21.1696 11.6294 23.0215 11.9987 24.8271 12.1372ZM38.1608 17.2611C39.4571 17.1688 37.9756 15.9224 37.0496 15.1377C36.1237 14.3529 35.6144 14.2606 31.6328 13.9836C27.6049 13.7067 26.4938 12.9681 24.5956 12.7373C22.6974 12.5065 20.7066 12.2756 19.9196 12.2295C18.438 12.1833 19.8733 13.1527 19.1325 13.3374C18.3917 13.522 18.2528 13.6143 18.9473 14.2606C19.6418 14.9069 22.6048 15.3223 26.9568 16.1994C31.3087 17.0764 36.8644 17.3534 38.1608 17.2611ZM28.1142 12.5065C26.9105 12.4603 25.3827 12.5526 26.9568 12.8757C28.5309 13.1989 33.2069 13.799 34.457 13.8451C35.707 13.8913 35.9848 13.8451 35.3366 13.3835C34.7347 12.9219 34.3644 12.368 33.6236 12.5065C32.4662 12.6911 29.3179 12.5526 28.1142 12.5065ZM41.5405 19.3845C40.2904 18.4613 39.8275 17.5381 39.4108 17.7227C38.9478 17.9535 37.9293 17.9997 34.7347 17.6765C31.5402 17.3534 28.8087 17.1226 26.1697 16.7533C23.2067 16.3379 19.0399 15.0453 21.54 16.4763C22.6511 17.1226 23.9474 19.5692 25.7067 19.6153C27.466 19.6615 34.8736 19.9846 37.42 20.1231C40.0127 20.2616 42.7905 20.3078 41.5405 19.3845ZM30.7995 22.385C33.2532 22.2927 38.5311 22.2927 40.1515 22.3389C41.8183 22.385 42.9757 22.8005 43.4387 22.2465C43.9479 21.6926 44.3646 21.3233 43.9479 20.9079C43.485 20.4924 43.2998 20.4001 42.7442 20.4924C41.9108 20.6309 39.133 20.7232 36.8644 20.5386C34.5958 20.4001 30.568 20.4001 29.1327 20.4462C27.6975 20.4924 25.3364 20.0769 26.4938 20.8617C27.6512 21.6464 28.3457 22.4774 30.7995 22.385ZM46.2628 25.3394C45.7535 24.9701 44.5498 24.7393 45.3369 24.6008C46.0776 24.4623 45.5683 24.1392 45.1054 23.816C44.6424 23.4467 44.5035 23.0313 43.7627 23.0775C42.6053 23.1236 38.5774 22.8466 37.42 22.9851C36.2626 23.1236 32.5125 22.8466 31.0772 22.9851C29.642 23.1236 30.0587 23.5391 30.9383 24.1853C31.818 24.8316 31.818 25.1086 33.531 24.9239C35.244 24.7393 37.7441 24.9701 40.383 24.7854C43.022 24.6008 44.9665 25.2009 42.6979 25.1547C40.4293 25.1086 38.0219 25.4779 36.5866 25.4779C35.1514 25.4779 32.3273 25.4317 32.7439 26.1241C33.2069 26.8165 34.3644 28.1552 34.9199 28.0167C35.5218 27.8783 41.1701 27.3243 42.4201 27.4166C43.6702 27.5551 44.2257 27.7398 44.735 27.2782C45.2443 26.8627 46.7721 25.7087 46.2628 25.3394ZM41.4479 27.8321C40.6145 27.7398 37.3737 28.2014 36.5866 28.4322C35.7996 28.663 35.5218 28.8938 36.0311 29.4478C36.5866 30.0479 38.2533 31.525 38.8552 31.2942C39.4571 31.0634 40.0127 31.2019 40.7534 30.648C41.4942 30.0479 42.6053 29.4016 42.4201 28.9861C42.2349 28.5707 42.1423 27.9244 41.4479 27.8321Z" fill="url(#paint0_linear_560_2920)"/>
<path d="M26.9567 7.52102C28.0215 7.6595 28.7623 7.79799 28.2993 7.42869C27.8363 7.0594 27.6974 6.55162 27.0955 6.04385C26.4474 5.53607 25.7066 6.27465 25.3825 6.64395C24.9196 7.10556 25.8918 7.38253 26.9567 7.52102ZM22.4195 11.3524C24.1788 11.6294 27.8363 11.4909 29.503 11.4448C32.1883 11.3986 32.6049 11.2601 31.9568 10.937C31.3086 10.66 31.0308 10.7062 29.7345 10.4754C28.4845 10.2445 27.1418 10.2907 24.827 10.1061C22.5121 9.92142 22.2343 9.96758 21.9102 10.2445C21.3084 10.8908 21.3084 11.1678 22.4195 11.3524ZM34.7809 14.7684C31.679 14.2144 28.3456 14.1221 26.4937 13.522C24.6418 12.8758 23.0677 12.9219 21.6324 12.7373C20.1972 12.5526 19.225 12.2295 19.5028 12.8296C19.7342 13.3374 19.9657 13.8913 21.7713 14.1221C23.5769 14.3529 26.8178 15.3685 29.8271 15.4608C32.7901 15.5531 37.8366 15.3223 34.7809 14.7684ZM34.7809 18.646C36.9569 18.5998 38.2069 18.3228 36.355 18.1382C34.5031 17.9997 29.1326 17.4458 26.7252 17.0765C24.3177 16.7072 21.2621 15.8763 22.7899 16.9841C23.3454 17.3996 23.7621 18.0459 25.2899 18.2305C26.8641 18.4613 32.5586 18.6921 34.7809 18.646ZM36.5865 20.7694C34.2254 20.4924 29.966 20.5847 28.6697 20.6309C27.0492 20.7232 26.4937 20.5847 27.4196 21.0002C28.3456 21.4156 28.6697 21.4618 30.4753 21.3233C32.2809 21.1387 36.8643 21.4156 39.457 21.231C42.0959 21.0925 38.9477 21.0464 36.5865 20.7694Z" fill="url(#paint1_linear_560_2920)"/>
<path d="M45.707 27.4166C45.3829 27.7398 44.6422 28.5707 44.3181 28.8477C44.0403 29.0785 43.994 29.2631 43.6236 29.9555C43.2995 30.648 43.068 31.1557 43.5773 30.8788C44.0866 30.6018 44.5959 30.1402 44.781 29.6786C45.0125 29.1708 46.4941 26.5857 45.707 27.4166ZM43.8088 31.2481C43.2532 31.5712 43.1606 31.0172 42.6977 31.525C42.281 32.0328 41.6791 33.3715 42.0958 33.0022C42.5125 32.6329 42.8366 32.2174 43.2069 32.1713C43.6699 32.1251 44.2718 30.8788 43.8088 31.2481ZM41.1235 32.956C41.4939 33.0945 41.7717 32.9099 42.0032 32.1251C42.2347 31.3404 42.6977 31.0634 42.8829 30.6941C43.068 30.371 43.4847 29.6786 42.9292 30.0479C42.5125 30.3248 42.0032 30.6941 41.7254 31.0172C41.4476 31.3404 41.1698 31.3865 41.2161 31.9405C41.2624 32.4944 40.7069 32.7714 41.1235 32.956ZM38.2994 34.5255C38.9476 34.3409 38.8087 33.5561 39.3179 33.4638C39.8735 33.3715 39.2254 34.2486 39.5957 33.9716C39.9661 33.6946 40.3365 33.4638 40.4754 32.956C40.6143 32.4021 40.8458 31.5712 40.3365 32.0328C39.9661 32.3098 39.9198 31.8943 39.4105 32.1251C38.9013 32.3559 38.4846 32.7252 38.2068 33.3715C37.929 34.0639 37.6975 34.7563 38.2994 34.5255ZM40.3365 34.2024C40.8921 34.0178 41.0773 34.1101 40.568 34.4332C40.0124 34.7102 40.105 34.7102 40.0587 34.9871C40.0124 35.2641 40.0124 35.3564 40.4754 35.0795C40.9847 34.8025 41.818 34.4332 41.5865 34.2486C41.355 34.0178 41.4476 33.9716 41.6328 33.6946C41.818 33.4638 41.9106 33.0484 41.5865 33.233C41.1235 33.51 41.4013 32.8637 40.7532 33.3715C40.1976 33.8331 39.7809 34.3409 40.3365 34.2024ZM42.6514 32.956C42.2347 33.233 42.2347 33.2792 42.0032 33.5561C41.7717 33.8331 42.1884 33.8793 42.0032 34.1562C41.818 34.4332 42.1421 34.387 42.3736 34.2486C42.6051 34.1101 42.6514 33.8331 42.8366 33.51C42.9755 33.1868 43.1143 32.6329 42.6514 32.956ZM42.0495 34.5717C41.8643 34.6179 41.8643 34.5255 41.5865 34.664C40.8921 35.0333 40.7995 35.3103 40.3828 35.5872C39.9198 35.8642 40.0124 36.3258 40.4754 36.095C40.9847 35.8642 41.4013 35.4026 41.6791 35.2641C41.9569 35.1256 42.0495 35.1718 42.1421 34.8487C42.281 34.5255 42.2347 34.5255 42.0495 34.5717ZM41.6791 35.4026C41.4013 35.4949 41.2624 35.7719 40.9847 36.0027C40.7069 36.2335 40.2902 36.5566 40.7069 36.372C41.1235 36.2335 41.4939 35.8642 41.6328 35.7719C41.7717 35.6334 42.1421 35.1718 41.6791 35.4026ZM39.3642 35.3564C39.7346 35.2641 39.8735 35.6796 39.9198 35.218C39.9198 34.7563 39.9661 34.2947 39.7346 34.387C38.9939 34.664 38.6235 34.941 38.2068 35.0795C37.7438 35.218 37.6049 35.9104 37.9753 35.8181C38.2994 35.7257 38.6235 35.6796 38.2994 35.9104C37.9753 36.1412 37.9753 36.2797 37.8364 36.5105C37.6975 36.7413 38.1142 36.8336 38.4846 36.649C38.855 36.4182 39.7809 36.372 39.6883 36.0489C39.5957 35.6796 38.9476 35.4026 39.3642 35.3564ZM39.8735 36.3258C39.5494 36.372 39.3642 36.6028 39.1791 36.7874C38.9939 37.0183 38.7161 37.2029 38.8087 36.9721C38.9013 36.7413 38.7624 36.7874 38.5309 36.8798C38.2994 36.9721 38.5309 37.3414 38.3457 37.6645C38.1605 38.0338 38.4846 38.08 38.855 37.803C39.2254 37.526 39.5494 37.1567 39.7346 37.0644C39.9198 36.9259 40.105 36.7874 40.105 36.649C40.1976 36.4182 40.1976 36.3258 39.8735 36.3258ZM37.142 37.1106C36.6327 37.2491 36.216 37.8492 35.9845 38.4954C35.7067 39.1417 35.9845 39.511 36.3086 39.4187C36.6327 39.3725 36.679 39.0494 36.9105 38.5877C37.0957 38.08 37.2809 38.2646 37.142 38.6339C37.0031 39.0032 37.4198 38.8186 37.6975 38.6339C37.9753 38.4031 38.1605 38.3569 38.0679 38.1261C37.9753 37.8953 38.0679 37.4799 38.1605 37.2491C38.2994 36.8336 37.6512 36.9721 37.142 37.1106ZM36.9105 36.8798C37.2346 36.7413 37.3735 36.7413 37.4661 36.372C37.5586 35.9565 37.3272 35.5872 37.4661 35.3103C37.6975 34.8487 36.5864 35.3564 36.4475 35.7719C36.3086 36.1412 36.1234 37.1567 36.1234 37.5722C36.0308 37.9415 36.5864 37.0644 36.9105 36.8798ZM36.6327 35.1256C37.0494 34.8948 37.6975 34.941 37.6049 34.5717C37.5123 34.2486 37.3272 33.0484 37.6049 33.3715C37.8827 33.6946 38.0679 32.9099 38.0679 32.9099C38.2068 32.5867 38.5772 32.4021 38.2068 32.4021C37.7438 32.4021 37.3735 32.4483 37.0494 33.0022C36.8179 33.5561 36.216 35.3564 36.6327 35.1256Z" fill="#822E1C"/>
<path d="M17.7895 16.1532C18.7154 16.3841 20.4747 16.7533 19.7803 16.1532C19.1321 15.5531 18.5302 15.1377 18.1599 14.6761C17.4191 13.799 17.2802 14.4453 16.8172 15.1839C16.4006 15.8763 16.8172 15.9224 17.7895 16.1532ZM23.3452 19.4307C22.4192 18.5536 21.2155 17.215 20.6136 17.2611C20.0118 17.3073 17.0024 16.4302 16.0302 16.661C14.8727 16.938 15.382 17.7689 16.1228 18.2767C16.9098 18.7845 18.0673 19.7538 19.2247 20.2616C20.3821 20.7694 21.6322 21.0002 23.7156 21.0464C25.7989 21.0925 24.2711 20.3078 23.3452 19.4307ZM28.299 23.7237C26.9101 22.662 26.6323 21.8311 25.5212 21.8311C24.0396 21.8311 20.2432 20.9079 21.9562 22.0158C23.6693 23.1236 25.9378 24.1392 27.3731 24.4623C28.8546 24.7855 29.6879 24.7855 28.299 23.7237ZM30.7528 25.8933C29.8268 25.0163 29.6416 25.2932 28.0212 25.1086C26.4008 24.9239 29.4564 26.4473 31.725 27.2782C34.0399 28.1091 31.8639 26.9551 30.7528 25.8933Z" fill="#7A2717"/>
<path d="M24.2713 17.4458C23.5769 18.092 22.7898 18.7845 22.6046 19.7539C22.049 22.3851 23.5306 26.078 26.2158 29.0323C29.9196 33.0484 34.4568 35.0333 37.0494 32.6329C37.2346 32.4945 37.9291 31.7097 38.068 31.5251C40.1051 28.9862 39.1328 24.1854 35.6605 20.4001C32.003 16.4302 26.9103 15.0915 24.2713 17.4458ZM36.679 30.9711C34.4568 33.0022 30.0585 31.8482 26.864 28.4322C23.7158 24.9701 22.975 20.5386 25.1973 18.4613C27.4196 16.4302 31.2159 18.1382 34.3642 21.6003C37.5587 25.0624 38.9476 28.94 36.679 30.9711Z" fill="#EC8CA1"/>
<path d="M23.5768 18.1382C20.9842 20.4924 21.8175 25.7087 25.5213 29.7248C29.2251 33.7408 34.3178 35.0795 36.9105 32.6791C39.5031 30.3249 38.6698 25.1086 34.966 21.0925C31.3085 17.1226 26.2158 15.784 23.5768 18.1382ZM35.9845 31.7097C33.7623 33.7408 29.364 32.5868 26.1695 29.1708C23.0212 25.7087 22.2805 21.2772 24.5028 19.1999C26.725 17.1688 31.1233 18.3228 34.3178 21.7388C37.466 25.2009 38.2531 29.6324 35.9845 31.7097Z" fill="#C8518B"/>
<path d="M23.7618 18.369C21.2155 20.6771 22.0488 25.7087 25.66 29.6324C29.2249 33.5562 34.1788 34.8487 36.7251 32.5406C39.2715 30.2325 38.4381 25.2009 34.8269 21.2772C31.262 17.3534 26.3082 16.0609 23.7618 18.369ZM35.2899 31.1096C33.3454 32.8637 29.4564 31.802 26.6323 28.7553C23.8081 25.6625 23.1137 21.7388 25.0582 19.9385C27.0027 18.1843 30.8917 19.2461 33.7158 22.2927C36.5399 25.3856 37.2344 29.3093 35.2899 31.1096Z" fill="#FCE5EE"/>
<path d="M37.5123 27.3244C37.5123 27.4167 37.6049 27.4628 37.6512 27.4628C37.6975 27.4628 37.7901 27.4167 37.7438 27.3705C37.7438 27.2782 37.6512 27.232 37.6049 27.232C37.5586 27.232 37.5123 27.2782 37.5123 27.3244ZM24.0397 18.646C23.9934 18.6921 23.9934 18.7845 24.086 18.8306C24.1323 18.8768 24.2249 18.9229 24.2712 18.8768C24.3175 18.8306 24.3175 18.7383 24.2249 18.6921C24.1323 18.5998 24.086 18.5998 24.0397 18.646ZM36.2623 31.9867C36.216 32.0328 36.216 32.1252 36.3086 32.1713C36.3549 32.2175 36.4475 32.2636 36.4938 32.2175C36.5401 32.1713 36.5401 32.079 36.4475 32.0328C36.4012 31.9867 36.3086 31.9405 36.2623 31.9867ZM31.401 32.9099C31.401 33.0022 31.4936 33.0484 31.5399 33.0484C31.6325 33.0484 31.6788 33.0022 31.6325 32.9561C31.6325 32.8637 31.5399 32.8176 31.4936 32.8176C31.401 32.8176 31.3547 32.8637 31.401 32.9099ZM22.7434 23.4468C22.7434 23.5391 22.836 23.5853 22.8823 23.5853C22.9749 23.5853 23.0212 23.5391 22.9749 23.4929C22.9749 23.4006 22.8823 23.3545 22.836 23.3545C22.7897 23.3545 22.7434 23.4006 22.7434 23.4468ZM28.8547 17.8612C28.8547 17.9535 28.9473 17.9997 28.9936 17.9997C29.0862 17.9997 29.1325 17.9535 29.0862 17.9074C29.0862 17.8151 28.9936 17.7689 28.9473 17.7689C28.901 17.7689 28.8547 17.8151 28.8547 17.8612ZM25.799 29.2631C25.7527 29.3093 25.7527 29.4016 25.8453 29.4478C25.8916 29.4939 25.9842 29.5401 26.0305 29.4939C26.0768 29.4478 26.0768 29.3555 25.9842 29.3093C25.9379 29.2631 25.8453 29.217 25.799 29.2631ZM34.503 21.3695C34.4567 21.4157 34.4567 21.508 34.5493 21.5542C34.5956 21.6003 34.6882 21.6465 34.7344 21.6003C34.7807 21.5542 34.7807 21.4618 34.6882 21.4157C34.5956 21.3695 34.5493 21.3233 34.503 21.3695ZM28.5769 31.5251C28.5769 31.5712 28.6232 31.6635 28.6695 31.7097C28.7158 31.7559 28.8084 31.7559 28.8084 31.6635C28.8084 31.6174 28.7621 31.5251 28.7158 31.4789C28.6695 31.4327 28.6232 31.4327 28.5769 31.5251ZM24.1786 26.5858C24.1323 26.4934 24.086 26.4473 23.9934 26.4934C23.9471 26.4934 23.9008 26.5858 23.9471 26.6319C23.9934 26.7243 24.0397 26.7704 24.1323 26.7243C24.1786 26.7243 24.2249 26.6319 24.1786 26.5858ZM36.3549 24.1392C36.3086 24.1392 36.2623 24.2315 36.3086 24.2777C36.3549 24.37 36.4012 24.4162 36.4938 24.37C36.5401 24.37 36.5863 24.2777 36.54 24.2315C36.4938 24.1854 36.4475 24.1392 36.3549 24.1392ZM37.3271 29.8632C37.3271 29.9094 37.3734 30.0017 37.4197 30.0479C37.466 30.094 37.5586 30.094 37.5586 30.0017C37.5586 29.9556 37.5123 29.8632 37.466 29.8171C37.4197 29.7709 37.3734 29.8171 37.3271 29.8632ZM23.0675 20.8156C23.0212 20.7694 22.9286 20.7694 22.9286 20.8617C22.9286 20.9079 22.9749 21.0002 23.0212 21.0464C23.0675 21.0925 23.1601 21.0925 23.1601 21.0002C23.2064 20.9541 23.1601 20.8617 23.0675 20.8156ZM31.9103 19.3384C31.9103 19.2922 31.864 19.1999 31.8177 19.1538C31.7714 19.1076 31.6788 19.1076 31.6788 19.1999C31.6788 19.2461 31.7251 19.3384 31.7714 19.3846C31.8177 19.4307 31.9103 19.3846 31.9103 19.3384ZM34.1789 32.8176C34.1326 32.8176 34.0863 32.9099 34.1326 32.9561C34.1789 33.0484 34.2252 33.0946 34.3178 33.0484C34.3641 33.0484 34.4104 32.9561 34.3641 32.9099C34.3178 32.8637 34.2715 32.8176 34.1789 32.8176ZM26.3546 17.8612C26.3083 17.7689 26.262 17.7227 26.1694 17.7689C26.1231 17.7689 26.0768 17.8612 26.1231 17.9074C26.1694 17.9997 26.2157 18.0459 26.3083 17.9997C26.3546 17.9997 26.4009 17.9535 26.3546 17.8612Z" fill="#F5B2D1"/>
<path d="M25.9847 24.5085C25.3365 25.1086 24.6421 25.7548 24.4569 26.6319C23.9476 29.0785 25.3365 32.4944 27.7903 35.218C31.2163 38.957 35.3831 40.7573 37.8368 38.5416C37.9757 38.4031 38.6702 37.6645 38.7628 37.526C40.661 35.1718 39.735 30.7403 36.5405 27.232C33.1608 23.5852 28.4385 22.3389 25.9847 24.5085ZM37.4665 37.0644C35.3831 38.957 31.3089 37.8953 28.3922 34.7102C25.4754 31.525 24.781 27.3705 26.8643 25.4779C28.9477 23.5852 32.42 25.2009 35.3368 28.386C38.2998 31.5712 39.5498 35.1718 37.4665 37.0644Z" fill="#EC8CA1"/>
<path d="M25.3364 25.1547C22.9289 27.3705 23.716 32.1713 27.142 35.8642C30.568 39.6033 35.2903 40.8035 37.6978 38.6339C40.1053 36.4182 39.3182 31.6174 35.8922 27.9244C32.5125 24.1853 27.7901 22.9851 25.3364 25.1547ZM36.8181 37.7107C34.7348 39.6033 30.6606 38.5416 27.7438 35.3564C24.8271 32.1713 24.1326 28.0168 26.216 26.1241C28.2994 24.2315 32.3736 25.2932 35.2903 28.4784C38.2071 31.7097 38.9015 35.8181 36.8181 37.7107Z" fill="#C8518B"/>
<path d="M25.5214 25.3856C23.1602 27.509 23.9473 32.1713 27.2807 35.8181C30.6141 39.4187 35.1976 40.6189 37.5124 38.4954C39.8736 36.372 39.0866 31.7097 35.7531 28.0629C32.466 24.4162 27.8826 23.216 25.5214 25.3856ZM36.1698 37.1568C34.3642 38.8186 30.7993 37.803 28.1604 34.941C25.5214 32.079 24.8732 28.4322 26.6788 26.7704C28.4844 25.1086 32.0493 26.1241 34.6883 28.9862C37.3273 31.8943 37.9754 35.5411 36.1698 37.1568Z" fill="#FCE5EE"/>
<path d="M38.2534 33.6946C38.2534 33.7408 38.346 33.8331 38.3923 33.8331C38.4386 33.8331 38.4849 33.787 38.4849 33.7408C38.4849 33.6946 38.3923 33.6023 38.346 33.6023C38.2997 33.5561 38.2534 33.6023 38.2534 33.6946ZM25.7531 25.6164C25.7068 25.6625 25.7068 25.7087 25.7993 25.801C25.8456 25.8472 25.9382 25.8933 25.9845 25.8472C26.0308 25.801 26.0308 25.7548 25.9382 25.6625C25.8919 25.6164 25.7993 25.5702 25.7531 25.6164ZM37.0959 37.9877C37.0496 38.0338 37.0496 38.08 37.1422 38.1723C37.1885 38.2185 37.2811 38.2646 37.3274 38.2185C37.3737 38.1723 37.3737 38.1261 37.2811 38.0338C37.1885 37.9877 37.1422 37.9415 37.0959 37.9877ZM32.5588 38.8647C32.5588 38.9109 32.6514 39.0032 32.6977 39.0032C32.744 39.0032 32.7903 39.0032 32.7903 38.9109C32.7903 38.8647 32.6977 38.7724 32.6514 38.7724C32.6051 38.7262 32.5588 38.7724 32.5588 38.8647ZM24.5493 30.094C24.5493 30.1402 24.6419 30.2325 24.6882 30.2325C24.7345 30.2325 24.7808 30.2325 24.7808 30.1402C24.7808 30.094 24.6882 30.0017 24.6419 30.0017C24.5956 30.0017 24.5493 30.0479 24.5493 30.094ZM30.2439 24.9239C30.2439 24.9701 30.3365 25.0624 30.3828 25.0624C30.4291 25.0624 30.4754 25.0624 30.4754 24.9701C30.4754 24.9239 30.3828 24.8316 30.3365 24.8316C30.2902 24.8316 30.2439 24.8778 30.2439 24.9239ZM27.4198 35.4488C27.3735 35.4949 27.3735 35.5411 27.4661 35.6334C27.5124 35.6796 27.6049 35.7257 27.6512 35.6796C27.6975 35.6334 27.6975 35.5873 27.605 35.4949C27.5124 35.4488 27.4661 35.4488 27.4198 35.4488ZM35.4292 28.1552C35.3829 28.2014 35.3829 28.2476 35.4755 28.3399C35.5218 28.386 35.6144 28.4322 35.6607 28.386C35.707 28.3399 35.707 28.2937 35.6144 28.2014C35.5681 28.1552 35.4755 28.1091 35.4292 28.1552ZM29.9661 37.526C29.9661 37.5722 30.0124 37.6645 30.0587 37.7107C30.105 37.7568 30.1976 37.7569 30.1976 37.6645C30.1976 37.6184 30.1513 37.526 30.105 37.4799C30.0587 37.4799 30.0124 37.4799 29.9661 37.526ZM25.8919 33.0022C25.8456 32.956 25.7993 32.9099 25.7531 32.9099C25.7068 32.9099 25.6605 33.0022 25.7068 33.0484C25.7531 33.0945 25.7993 33.1407 25.8456 33.1407C25.9382 33.0945 25.9382 33.0484 25.8919 33.0022ZM37.1885 30.6941C37.1422 30.6941 37.0959 30.7864 37.1422 30.8326C37.1885 30.8788 37.2348 30.9249 37.2811 30.9249C37.3274 30.9249 37.3274 30.8326 37.3274 30.7864C37.3274 30.7403 37.2348 30.6941 37.1885 30.6941ZM38.0682 36.0027C38.0682 36.0489 38.1145 36.1412 38.1608 36.1874C38.2071 36.2335 38.2997 36.2335 38.2997 36.1412C38.2997 36.095 38.2534 36.0027 38.2071 35.9565C38.1608 35.9565 38.1145 35.9565 38.0682 36.0027ZM24.8734 27.6475C24.8271 27.6013 24.7345 27.6013 24.7345 27.6936C24.7345 27.7398 24.7808 27.8321 24.8271 27.8783C24.8734 27.9244 24.966 27.9244 24.966 27.8321C24.966 27.7859 24.9197 27.6936 24.8734 27.6475ZM33.0681 26.2626C33.0681 26.2165 33.0218 26.1241 32.9755 26.078C32.9292 26.0318 32.8366 26.0318 32.8366 26.1241C32.8366 26.1703 32.8829 26.2626 32.9292 26.3088C32.9755 26.3549 33.0681 26.3549 33.0681 26.2626ZM35.1514 38.7724C35.1051 38.7724 35.1051 38.8647 35.1051 38.9109C35.1514 38.9571 35.1977 39.0032 35.244 39.0032C35.2903 39.0032 35.3366 38.9109 35.2903 38.8647C35.2903 38.8186 35.244 38.7724 35.1514 38.7724ZM27.929 24.9239C27.8827 24.8778 27.8364 24.8316 27.7901 24.8316C27.7438 24.8316 27.7438 24.9239 27.7438 24.9701C27.7901 25.0163 27.8364 25.0624 27.8827 25.0624C27.929 25.0624 27.929 24.9701 27.929 24.9239Z" fill="#F5B2D1"/>
<path d="M14.4563 16.4302C15.4285 11.5371 21.8639 9.8291 26.8177 14.1221C31.8178 18.4613 34.9198 25.9395 33.9938 30.8326C33.7623 31.2942 32.466 32.5406 32.3271 32.4021C27.2807 28.2014 19.6879 20.954 14.4563 16.4302Z" fill="#E73D2E"/>
<path d="M14.2246 16.7995C15.1969 11.9064 20.0118 11.3986 25.0119 15.7378C30.012 20.0308 33.2992 27.5551 32.3269 32.4483C27.3731 28.1552 19.6414 21.508 14.2246 16.7995Z" fill="#E31913"/>
<path d="M14.6875 17.1688C15.6134 12.5065 20.1969 12.0448 24.9655 16.1532C29.7342 20.2616 32.8361 27.4167 31.9565 32.079C27.1878 28.0168 19.8265 21.6465 14.6875 17.1688Z" fill="#EE6F4B"/>
<path d="M16.4932 18.5998C17.2339 14.8607 20.8914 14.4914 24.6878 17.7689C28.4842 21.0464 30.9843 26.7242 30.2435 30.4633C26.4471 27.1858 20.6136 22.1081 16.4932 18.5998Z" fill="#E52913"/>
<path d="M22.8824 20.0308C22.8824 19.523 22.5583 18.8767 22.0953 18.5536C21.6323 18.2305 21.262 18.4151 21.262 18.9229C21.262 19.4307 21.7249 20.7232 22.0027 20.9078C22.2342 21.0463 22.8824 20.5385 22.8824 20.0308ZM25.7991 22.8466C25.938 22.4773 25.7528 21.7849 25.3361 21.3694C24.9195 20.9078 24.4565 20.8617 24.2713 21.2771C24.1324 21.6464 24.4102 22.9389 24.5954 23.1697C24.8732 23.4006 25.6602 23.2159 25.7991 22.8466ZM28.0677 25.4317C27.7899 24.8777 27.2806 24.4623 26.9102 24.5546C26.5399 24.6469 26.2621 25.5701 26.401 25.801C26.5862 26.1702 27.5584 26.678 27.9288 26.5857C28.2529 26.5395 28.3455 26.0318 28.0677 25.4317ZM19.9193 18.5536C19.6878 17.9535 19.1786 17.4457 18.8082 17.4457C18.4378 17.4457 18.2989 17.9073 18.5304 18.5074C18.7619 19.1075 19.6415 20.2154 19.873 20.2154C20.0582 20.2154 20.1508 19.1537 19.9193 18.5536Z" fill="#E86A0A"/>
<path d="M25.6138 22.385C25.6601 22.2927 25.6601 22.1542 25.6138 22.0619C25.5675 21.9234 25.4749 21.7387 25.3823 21.6464C25.2897 21.5541 25.1508 21.4618 25.0582 21.4618C24.9656 21.4618 24.873 21.5079 24.8267 21.6003C24.7804 21.7387 24.8267 22.1542 24.9193 22.6158C24.9193 22.662 24.9193 22.662 24.9193 22.7081C25.1971 22.7081 25.5212 22.6158 25.6138 22.385ZM22.6971 19.7076C22.6971 19.6615 22.6971 19.5692 22.6508 19.523C22.6045 19.2922 22.4656 19.0614 22.2804 18.9691C22.1878 18.8767 22.0952 18.8767 22.0026 18.9229C21.91 18.9229 21.8637 19.0152 21.8637 19.1537C21.8637 19.1999 21.8637 19.2922 21.91 19.4768C22.0026 19.8 22.1415 20.1231 22.2341 20.3077C22.4193 20.2154 22.6508 19.9384 22.6971 19.7076ZM27.975 25.6163C27.975 25.5702 27.9287 25.524 27.9287 25.4317C27.7898 25.1547 27.512 24.9239 27.3268 24.9701C27.1416 25.0162 27.0027 25.3855 26.9564 25.6625C27.1879 25.8471 27.6509 26.0318 27.8361 25.9856C27.975 26.0318 28.0676 25.8471 27.975 25.6163ZM19.7803 18.4613C19.734 18.3228 19.6414 18.1381 19.5025 18.0458C19.4099 17.9535 19.271 17.8612 19.1785 17.8612C18.9933 17.8612 18.947 18.0458 18.9933 18.3228C18.9933 18.369 18.9933 18.4151 19.0396 18.4613C19.1322 18.7382 19.5488 19.2922 19.7803 19.523C19.8266 19.2922 19.8266 18.8306 19.7803 18.5074C19.7803 18.5074 19.7803 18.5074 19.7803 18.4613Z" fill="#FAB515"/>
<path d="M25.9379 26.4011C25.7064 25.9395 25.3823 25.2932 25.5675 24.7854C25.7064 24.2777 25.1508 24.2315 24.5026 23.5852C23.9008 22.939 23.623 22.2927 23.4378 21.7849C23.2989 21.3233 23.0211 21.8773 22.2341 21.508C21.447 21.1387 20.8914 19.8923 20.7988 20.2616C20.66 20.5847 20.2896 21.0002 19.6414 20.7232C18.9932 20.4462 19.5951 21.1387 20.2433 21.6926C20.8914 22.2465 24.9193 25.7548 25.3823 26.1241C25.799 26.4934 26.1231 26.8165 25.9379 26.4011Z" fill="#F6A984"/>
<path d="M25.7991 25.9396C30.4288 27.1859 35.2438 28.34 35.1512 29.3094C35.0586 30.2788 35.8919 29.7248 35.7993 31.0635C35.7067 32.4022 35.2901 38.2647 35.3827 40.2035C35.4752 42.1423 35.6141 42.2808 35.1512 42.7885C34.6882 43.2963 34.2715 43.5733 34.1789 44.3119C34.0863 45.0505 34.1789 45.6044 33.2067 46.1583C32.2344 46.7123 32.9752 47.0354 32.0029 47.4509C31.0307 47.8663 30.9381 48.6511 30.4751 49.0665C30.0121 49.482 29.4103 49.2973 28.8547 49.8051C28.2991 50.2667 27.651 50.1282 26.2621 49.7128C24.8731 49.2973 14.3173 43.204 12.0487 41.5883C9.73386 39.9727 9.96535 39.3264 8.9931 38.4032C8.02085 37.5261 8.20604 37.203 7.78937 35.7258C7.37269 34.2487 7.2338 34.0178 7.69677 34.0178C8.15975 34.0178 7.37269 33.6024 7.1412 32.7253C6.90971 31.8482 7.69677 32.2637 7.1412 31.1097C6.58563 30.0018 6.16895 28.4323 5.84487 27.0013C5.52079 25.5703 4.78003 24.9702 5.4282 24.0931C6.12266 23.2622 19.2248 24.1854 25.7991 25.9396Z" fill="#632211"/>
<path d="M33.9012 28.8477C34.7346 28.8477 34.8735 28.6631 34.3179 28.2476C33.0216 27.2321 30.3826 25.9395 27.3733 24.3701C23.0676 22.2005 20.4286 20.1694 18.5767 19.0615C15.7063 17.3073 13.9007 15.5994 12.3266 15.5532C11.4006 15.507 10.8451 16.1995 10.058 17.4458C9.68763 18.0459 10.2432 18.5999 9.68763 18.5537C9.13206 18.5075 8.57649 19.4308 8.80798 20.0309C9.03947 20.631 8.34501 19.8001 7.69684 20.7233C7.04868 21.6004 7.04868 21.785 7.28016 22.2466C7.51165 22.7082 7.28016 22.7082 6.72459 22.6621C6.12273 22.5236 6.12273 23.2622 5.47456 24.1392C5.24307 24.4624 5.19678 24.7393 5.19678 25.0163C5.42826 25.201 5.89124 25.2471 6.49311 25.3394C7.51165 25.5241 7.51165 26.355 8.71538 26.9089C9.91912 27.4629 11.3543 28.1553 12.9285 28.6169C14.5489 29.0785 13.8081 29.3093 14.9655 30.0018C16.0767 30.648 19.2712 32.2637 20.8453 33.1408C22.4657 34.0178 24.6417 35.1719 25.0584 35.0795C25.4751 35.0334 26.5862 33.8793 27.0955 33.4177C27.5585 32.9561 27.5122 32.5868 27.9288 32.5868C28.3455 32.5868 28.7622 32.3098 29.5955 31.6174C30.4289 30.9712 30.0585 30.7865 30.9845 30.3711C31.8641 29.9556 32.7901 29.6786 32.6049 29.1709C32.4197 28.7554 33.0679 28.8477 33.9012 28.8477Z" fill="#9D4329"/>
<path d="M13.623 19.0615C16.7249 19.6616 19.1787 19.9847 17.9287 19.2C16.6786 18.4152 14.1786 16.6611 13.7156 16.3841C13.2526 16.1072 12.1878 15.6917 11.4933 16.3841C11.4933 16.3841 10.6137 17.2612 10.4748 17.8151C10.3822 18.4614 10.5211 18.4614 13.623 19.0615ZM11.4933 20.6771C13.2526 21.1388 20.2898 22.2466 22.1417 22.5236C23.9936 22.8006 22.2343 22.2005 21.0769 21.4157C19.9195 20.631 19.4102 20.5848 17.8361 20.3079C16.262 20.0309 11.3544 18.923 10.4748 18.8768C9.87291 18.8307 9.64142 18.8307 9.31734 19.3846C8.99325 19.8924 9.78031 20.2155 11.4933 20.6771ZM30.9846 26.8166C29.4104 25.9857 27.8826 25.3856 25.8455 24.8779C23.7621 24.4162 21.1695 24.2316 17.5583 22.8929C13.9008 21.5542 10.4748 20.5848 9.27104 20.7233C7.88211 20.8618 7.51174 21.9235 8.2062 22.2928C8.90066 22.6621 12.7433 23.493 16.7712 24.7855C20.7528 26.0781 30.6142 28.2476 32.1883 28.2476C33.7161 28.2476 32.5587 27.6937 30.9846 26.8166ZM17.8824 22.5236C19.1787 22.9391 22.9288 23.8623 25.0585 24.2316C27.1882 24.6009 25.9844 23.9085 24.827 23.4468C23.6696 22.9852 20.1046 22.5698 18.8083 22.339C15.5212 21.8312 16.6323 22.1082 17.8824 22.5236ZM29.5956 28.5246C28.0678 28.34 23.3918 27.1859 20.5213 26.355C17.6509 25.5241 8.62287 23.3084 7.69693 23.216C6.308 23.0314 6.16911 23.8161 5.89132 24.5086C5.61354 25.201 8.02101 24.9702 10.4285 25.478C12.8359 25.9857 22.0491 27.9707 24.1788 28.4785C26.3085 29.0324 25.5214 29.1247 22.3732 28.4785C19.225 27.8322 10.66 26.1242 8.85436 25.8011C7.04876 25.478 9.03955 26.8166 11.0766 27.5091C13.16 28.1553 14.549 28.7093 17.512 29.3094C20.475 29.9095 26.6789 31.6636 27.7437 32.0791C28.8549 32.4945 29.3641 31.1558 29.7345 30.8789C30.1049 30.5557 31.3549 29.7248 31.9105 29.3555C32.5124 29.0324 31.1234 28.7093 29.5956 28.5246ZM23.5307 31.3866C21.3547 30.7865 17.6509 30.1864 15.9379 29.5863C13.623 28.7554 15.9379 30.2326 17.6509 31.0173C19.3639 31.8021 23.114 33.9717 24.3177 34.5718C25.5214 35.1719 26.9104 33.2331 27.1882 32.7715C27.4659 32.3099 25.7066 31.9867 23.5307 31.3866Z" fill="url(#paint2_linear_560_2920)"/>
<path d="M29.6418 33.51C30.3826 34.064 31.1697 34.2486 31.4937 34.6179C31.8178 34.9872 32.2345 34.4333 32.6975 34.2025C33.1605 34.0178 32.8364 33.7408 32.2345 33.6947C31.6789 33.6024 30.9845 32.9099 31.9104 33.0946C32.8364 33.2331 33.3456 33.6947 33.8086 33.2792C34.2716 32.8638 34.0864 32.8176 33.8549 31.9405C33.6234 31.0635 33.0679 29.5863 32.4197 30.0479C32.003 30.3711 31.2623 30.5095 31.4937 31.0173C31.7252 31.4789 32.0493 32.0329 31.54 31.6636C31.0308 31.2943 30.8919 30.9712 30.4289 31.2943C29.9659 31.6174 29.4567 32.2637 29.0863 32.4483C28.7622 32.6791 28.9011 32.9561 29.6418 33.51ZM34.179 31.7559C34.4568 32.5406 35.0124 32.6791 35.1975 31.7559C35.3364 30.8327 35.5679 30.6019 35.1975 30.3711C34.8272 30.1864 34.4105 30.0018 34.4105 29.5863C34.4105 29.1709 33.2993 29.4017 33.5308 29.771C33.8549 30.3711 33.9012 31.0173 34.179 31.7559ZM28.3455 35.772C28.6233 35.6335 28.7622 35.495 28.5307 34.8949C28.3455 34.2948 28.8085 34.5256 28.9474 34.9872C29.0863 35.4488 29.4104 35.1257 29.6418 34.8949C29.8733 34.6641 30.3826 34.2025 30.0122 34.1101C29.6418 34.0178 29.3178 33.6024 28.4381 33.1869C27.9751 32.9561 28.0677 33.51 27.6048 33.9255C27.1418 34.3409 27.1881 35.1257 27.2807 35.8643C27.327 36.6029 28.0677 35.9566 28.3455 35.772ZM26.7251 36.1874C26.5862 35.495 26.7714 35.1257 26.864 34.6641C26.9566 33.9255 26.4473 34.5256 25.7529 35.0334C25.0584 35.5411 25.4288 36.1413 25.614 36.7414C25.7992 37.3415 25.7992 37.1106 26.3084 36.926C26.7714 36.7875 26.864 36.8798 26.7251 36.1874ZM27.0029 39.0494C27.2807 38.8648 27.1418 38.2185 27.0492 37.6184C26.9103 37.0183 26.4473 37.2953 25.938 37.6646C25.7066 37.8031 26.0769 38.7725 26.3084 39.4187C26.5399 40.065 26.7251 39.2341 27.0029 39.0494ZM28.6696 36.3259C28.3455 36.3259 28.0214 36.5567 27.5585 36.7414C27.0955 36.8798 27.4196 37.4338 27.4196 38.1724C27.4196 38.9109 27.5122 38.8648 27.9288 38.8648C28.3918 38.8648 28.4844 39.2802 29.1326 39.0956C29.7807 38.9571 30.1048 38.8186 29.6881 38.2185C29.2715 37.6184 29.5492 37.7569 30.1048 38.08C30.6141 38.4032 30.7067 38.2647 30.8919 37.6184C31.0771 36.926 31.0308 36.8798 30.4289 36.6952C29.8733 36.5105 30.1048 36.1413 30.5678 36.2336C31.0308 36.3721 31.1234 36.3721 31.3549 35.772C31.54 35.218 31.216 35.0334 30.7067 34.7564C30.2437 34.4794 30.0585 35.1719 29.5492 35.5412C29.04 35.9566 29.4567 36.0951 29.5492 36.9722C29.6418 37.8492 28.9937 36.3259 28.6696 36.3259ZM27.8362 42.3269C28.3455 42.1884 28.6696 42.1423 28.7622 41.2652C28.8548 40.3881 28.8548 40.4804 28.2992 40.5266C27.7436 40.6189 27.0492 40.3881 27.8362 40.1111C28.6233 39.8342 28.577 40.065 28.577 39.6495C28.577 39.1879 27.9288 38.9109 27.3733 39.1418C26.9566 39.2802 26.4473 39.8342 26.5862 40.2496C26.7251 40.6651 26.7714 41.6806 27.0029 42.0499C27.1418 42.5115 27.327 42.4654 27.8362 42.3269ZM34.9198 33.2331C34.7809 33.6024 34.5494 34.064 34.4568 33.6947C34.3642 33.2792 34.3179 33.4177 33.9475 33.5562C33.5308 33.6947 33.5308 33.9255 33.5771 34.3871C33.6234 34.8487 33.6697 35.218 33.3456 34.941C33.0216 34.6641 33.4382 34.4794 33.1605 34.3871C32.8827 34.2948 32.4197 34.941 31.8178 35.0334C31.4011 35.1257 31.8641 35.1719 31.6789 36.0489C31.4937 36.8798 32.1419 36.2336 32.6049 36.1874C33.0679 36.0951 33.5308 35.9104 33.9938 35.6796C34.4568 35.4488 33.7623 35.218 34.2253 34.7564C34.6883 34.2948 34.3642 35.4488 34.8735 35.4488C35.3827 35.4488 35.2438 35.3103 35.2438 34.941C35.2438 34.5256 35.3827 33.7408 35.4753 33.1869C35.5216 32.633 35.0586 32.8638 34.9198 33.2331ZM32.929 36.6029C32.0956 36.8798 31.4937 36.7414 31.4011 37.1568C31.216 37.7107 30.8919 38.3108 31.2623 38.5417C31.6789 38.7263 32.3734 39.2802 32.6975 38.6801C33.0216 38.08 33.4845 37.4799 33.3456 38.2647C33.2067 39.0494 33.5771 38.9109 33.9012 38.7263C34.2253 38.5878 34.1327 38.1262 34.0401 37.3876C33.9012 36.6952 33.7623 36.3259 32.929 36.6029ZM34.642 37.9877C34.9198 38.1262 35.1049 38.08 35.1049 37.203C35.1049 36.3259 35.2438 35.7258 34.7809 35.772C34.3179 35.8643 34.2716 35.9566 34.0864 36.2336C33.8549 36.7414 34.3642 37.8031 34.642 37.9877ZM31.216 39.0033C30.753 38.8648 30.7067 38.6801 30.4289 38.8648C30.1974 39.0033 29.5492 39.6034 29.1789 39.6495C28.8085 39.7419 29.04 40.6651 29.3178 40.6189C29.5955 40.5728 30.5215 40.5266 30.0122 40.7574C29.503 40.9882 29.503 40.9421 29.3178 41.3575C29.1789 41.773 29.4567 41.6806 30.1048 41.7268C30.753 41.773 31.1697 41.773 31.216 40.9882C31.3086 40.2035 31.0771 39.8803 31.3549 39.511C31.6789 39.1418 31.6326 39.1418 31.216 39.0033ZM33.253 39.511C32.7901 39.511 32.7901 39.1418 32.466 39.3726C32.1882 39.6034 31.4937 39.6034 31.6326 40.2035C31.7715 40.8036 31.5863 41.4037 32.0493 41.5422C32.5123 41.6806 32.5123 41.3575 32.7901 40.9421C33.0679 40.5266 33.253 40.4343 33.1605 40.9882C33.0679 41.5422 33.2993 41.6806 33.6234 41.6806C33.9012 41.6806 34.5031 41.5422 34.2253 41.1267C33.8549 40.6651 33.716 39.511 33.253 39.511ZM34.7809 40.6651C35.1975 40.2035 35.0123 40.0188 35.1049 39.2802C35.1975 38.5417 35.1049 38.4493 34.8735 38.357C34.642 38.2647 34.5031 38.634 34.4568 39.1418C34.4105 39.6495 34.2253 39.0033 34.2253 39.0033C33.8086 39.1418 33.9475 39.7419 34.179 40.2035C34.4105 40.6651 34.3642 41.1267 34.7809 40.6651ZM27.9288 45.0966C27.9751 44.3118 28.114 44.635 28.3918 45.2351C28.6696 45.8352 28.7159 45.2351 29.1789 45.0504C29.6418 44.8658 29.1326 43.6194 29.2252 42.8808C29.3178 42.0961 29.0863 42.0961 28.7622 42.4654C28.4381 42.8347 27.8362 42.7885 27.1418 43.0193C26.7714 43.1578 27.2807 44.2195 27.2807 45.1889C27.3733 46.1583 27.8825 45.8813 27.9288 45.0966ZM31.9567 41.8191C31.7252 41.7268 31.4937 41.6806 31.3086 41.8191C30.9382 42.0961 30.7067 42.2346 30.6604 42.8347C30.6141 43.4348 30.3363 43.4348 30.29 42.8808C30.2437 42.3269 30.1974 42.0961 29.9196 42.0961C29.6418 42.0961 29.6881 42.8808 29.7807 43.6656C29.8733 44.4503 29.7807 44.7273 30.2437 44.7273C30.7067 44.7273 31.216 44.5888 30.9382 44.3119C30.6604 44.0349 30.4752 43.7117 31.1697 43.8964C31.8641 44.081 31.9567 44.3118 31.7252 43.7579C31.54 43.204 31.7252 43.2963 31.8641 42.6962C32.0956 42.0961 32.2345 41.9114 31.9567 41.8191ZM33.3919 41.9576C32.929 41.8653 32.6049 42.0499 32.3734 42.4654C32.1882 42.927 31.9104 43.4348 32.0956 43.7579C32.2808 44.081 32.6049 44.081 33.2067 44.1734C33.8086 44.2657 33.8549 44.081 33.9938 43.7579C34.1327 43.4348 33.8549 43.2963 33.3919 43.2963C32.929 43.2963 32.929 42.927 33.4382 42.9732C33.9475 43.0193 34.2253 42.9732 34.2253 42.6962C34.179 42.4654 34.4568 42.2346 33.3919 41.9576ZM34.9661 41.0805C34.5494 41.3113 34.5031 41.6806 34.5031 42.0961C34.5494 42.5115 34.179 43.204 34.6883 42.8347C35.1975 42.4654 35.3364 42.0499 35.2438 41.6806C35.1975 41.3113 35.2438 40.9421 34.9661 41.0805ZM32.5123 44.4965C31.8641 44.358 31.6326 44.7735 31.1697 45.0043C30.7067 45.2351 31.3548 46.2506 31.7252 46.7584C32.0956 47.2662 32.1882 47.1277 32.3271 46.7123C32.466 46.2968 32.2808 46.1583 32.1882 45.6967C32.0956 45.2351 32.466 45.2351 32.6512 45.5582C32.7901 45.8813 32.8364 45.8813 33.3919 45.5582C33.9012 45.2351 33.8549 44.9581 33.8549 44.635C33.8086 44.4042 32.929 44.635 32.5123 44.4965ZM28.6696 48.3279C29.1326 48.2817 28.8085 48.1433 29.04 47.5893C29.2252 47.0815 29.4104 46.2968 29.503 46.8969C29.5955 47.497 29.6418 47.7278 30.0585 47.497C30.5215 47.2662 30.4289 46.5738 30.7067 46.3891C30.9845 46.2506 31.1697 46.2506 30.9382 45.9275C30.753 45.6044 30.7993 45.0504 30.4752 45.0504C30.0122 45.0504 30.0122 45.0966 29.3641 45.4659C28.7159 45.8352 28.7622 45.9737 28.9011 46.5738C29.04 47.1277 28.7159 46.7584 28.4381 46.4353C28.2066 46.1122 28.2529 46.1122 27.9288 46.2968C27.6048 46.4814 27.8825 47.0354 27.9751 47.6816C27.9751 48.3741 28.1603 48.3741 28.6696 48.3279ZM30.9845 46.6199C30.6141 46.8046 30.5215 47.22 30.4752 47.5432C30.3826 47.8663 30.0585 47.8663 29.7807 47.9125C29.503 47.9586 29.5955 48.6049 29.6881 48.8357C29.7807 49.0665 29.8733 49.0203 30.2437 48.9742C30.6141 48.8818 30.6604 47.8663 31.1234 47.7278C31.5863 47.5893 31.7715 47.1739 31.5863 46.9892C31.4011 46.8046 31.2623 46.4814 30.9845 46.6199ZM28.9937 48.6049C28.7159 48.5587 28.2066 48.3741 28.114 48.6972C28.0214 49.0203 27.9751 49.8051 28.2992 49.8051C28.6233 49.8051 28.9474 49.0665 29.2715 49.1588C29.5955 49.2511 29.5955 48.9742 29.4104 48.6972C29.2715 48.3741 29.2252 48.651 28.9937 48.6049Z" fill="#822E1C"/>
<path d="M16.3543 31.2482C16.9098 31.7098 18.7617 33.787 20.3821 35.5412C22.0025 37.2953 25.2434 39.3264 25.7526 39.6957C26.2619 40.065 25.9378 39.2803 25.6137 38.357C25.2434 37.4338 24.5026 37.3877 23.2526 36.2798C22.0488 35.1719 24.0859 36.5106 24.873 37.0184C25.66 37.48 24.873 36.2336 24.7804 35.772C24.6415 35.2642 24.6415 35.3104 23.947 34.9872C23.2063 34.618 19.5025 33.0023 17.9747 32.0329C16.4931 31.0635 15.7524 30.7865 16.3543 31.2482ZM10.5671 28.8939C11.7245 29.9095 13.206 31.9406 14.132 32.8177C15.5672 34.1563 18.1136 35.1719 19.5951 35.8643C21.0766 36.5567 19.2247 35.0796 18.2987 33.9717C17.3728 32.91 14.3172 29.7248 13.2986 29.1247C11.5393 28.1092 12.5579 29.0786 13.669 30.5096C14.7801 31.9406 12.9745 30.3249 12.0486 29.494C11.1226 28.6631 10.3356 27.8784 9.03925 27.3244C7.74292 26.8628 9.40963 27.8784 10.5671 28.8939ZM25.7063 40.1573C25.1045 39.7419 22.1877 37.8954 21.3544 37.0645C20.8914 36.6029 20.3358 36.4183 19.4562 36.1874C18.6228 35.9105 16.4005 34.8488 15.1042 33.9717C13.8079 33.0946 16.0765 35.6797 18.2062 37.1568C20.3358 38.634 21.6785 40.2958 23.2526 42.05C24.8267 43.8041 26.1693 45.2813 26.8175 45.8814C27.4656 46.5276 26.8175 44.5427 26.6323 43.7579C26.4471 43.0194 26.8638 43.5733 25.1045 41.5422C23.3452 39.5111 24.8267 40.7113 25.5674 41.2191C26.3082 41.773 26.586 42.4654 26.4471 41.6807C26.2619 40.8036 26.2619 40.5266 25.7063 40.1573ZM27.4656 47.3586C27.2342 46.4353 27.2342 46.8969 26.123 45.9275C25.0119 44.9582 22.3729 41.8192 20.984 40.342C19.5951 38.8648 18.2987 37.6185 16.2154 36.0028C14.132 34.3872 14.2709 33.5101 12.2801 31.3405C11.2152 30.1864 8.2522 27.6937 7.51144 26.9551C5.47435 24.8317 5.61324 25.5703 5.89103 26.355C6.16881 27.1398 6.02992 27.0936 7.27995 27.9707C8.52998 28.8478 9.13185 29.8172 10.5208 31.3405C11.9097 32.8638 7.83552 29.4017 7.09476 28.8939C6.354 28.34 6.77068 29.771 7.09476 30.5557C7.41884 31.2943 8.99295 32.0791 11.3078 33.8332C13.6227 35.5873 16.0302 38.2647 17.8358 39.3264C19.6877 40.3882 24.1322 45.6967 25.0119 46.5738C25.8915 47.4509 26.4471 47.9587 27.2342 48.6511C28.1138 49.2512 27.6971 48.2818 27.4656 47.3586ZM17.6506 39.6957C16.5394 38.911 14.4561 37.1568 13.2986 35.9105C12.1412 34.6641 8.85406 32.8177 8.29849 32.4484C7.55773 31.9406 7.46514 32.2637 7.51144 32.7715C7.55773 33.2793 7.88182 33.4639 8.29849 33.7409C8.76147 34.064 10.4282 35.0796 11.0763 35.9566C11.7708 36.8337 13.4838 38.0339 14.5487 39.5572C15.5672 41.1267 15.9376 43.6195 16.4005 43.9426C16.8635 44.2657 18.1599 44.7735 19.0395 45.4659C19.9192 46.1584 18.2987 43.6656 17.7895 42.927C17.2802 42.1885 16.4005 40.7574 17.3265 41.7268C18.2524 42.6501 20.2895 46.0199 20.7525 46.3892C21.2155 46.7585 22.1877 47.0816 22.8359 47.5894C23.4841 48.1433 21.7248 45.2813 20.984 44.2196C20.2432 43.204 18.7617 40.4805 17.6506 39.6957ZM26.9101 48.8819C25.4286 47.6817 23.4841 45.4198 22.4192 44.0811C21.3544 42.7424 18.4839 40.0189 19.734 41.5884C20.2432 42.2346 22.4192 45.7429 22.9285 46.6661C23.4378 47.5894 24.0859 48.2818 25.336 48.8357C26.586 49.3897 28.3916 50.1282 26.9101 48.8819ZM14.0394 39.4188C13.4838 38.634 11.6782 37.0184 10.9374 36.2798C10.1967 35.5412 9.13185 35.1719 8.39109 34.618C7.83552 34.2025 7.74292 34.3871 7.88182 34.8026C8.02071 35.2181 9.13185 35.7258 9.9189 36.9722C10.6597 38.1724 11.4004 40.7113 11.9097 41.1729C12.419 41.6345 12.6505 41.4037 12.4653 40.6651C12.2801 39.9265 12.6042 40.3882 13.1597 41.3575C13.7153 42.2808 14.2709 42.6962 14.8727 43.1117C15.4746 43.5271 15.5672 43.3425 15.2431 42.6962C14.8727 42.05 14.5487 40.2035 14.0394 39.4188ZM8.34479 35.8643C7.69663 35.4027 8.29849 36.5567 8.39109 37.0184C8.48368 37.5261 8.71517 37.8493 9.22444 38.2186C9.78001 38.5879 10.0578 39.5111 10.5671 40.1112C11.0763 40.7113 10.3356 38.634 9.87261 37.8031C9.50223 36.926 9.03925 36.3259 8.34479 35.8643Z" fill="#973722"/>
<path d="M11.6322 20.0309C12.8822 20.3079 16.8175 20.8157 19.0861 21.0465C21.3547 21.3234 19.1787 20.6772 17.1416 20.2617C15.1508 19.8463 11.2618 19.0615 10.5211 19.0154C9.82661 18.9692 9.8266 18.923 9.54882 19.3847C9.27104 19.8001 10.3822 19.754 11.6322 20.0309ZM14.9656 18.5538C17.2342 18.8307 16.4008 18.6461 15.9842 18.3229C15.5675 17.9998 14.5952 17.0766 13.3452 16.4765C12.0952 15.8764 11.4933 16.8919 11.1692 17.2612C10.6137 17.9537 12.697 18.2768 14.9656 18.5538ZM18.0213 23.5392C14.873 22.6621 13.2063 21.9235 11.4933 21.3696C9.78031 20.8618 8.94695 21.0926 8.53028 21.3696C8.0673 21.6466 8.43768 21.9235 9.50252 22.1082C10.5674 22.2467 14.3638 23.3084 16.4008 23.8162C18.4379 24.2778 23.0677 25.3395 25.614 25.478C28.1604 25.6165 21.1695 24.4163 18.0213 23.5392ZM20.012 26.7705C22.0491 27.1398 20.5213 26.5859 17.975 25.8934C15.4286 25.201 9.50252 23.9085 8.021 23.5854C6.53949 23.3084 6.67838 23.77 6.44689 24.0931C6.2154 24.4624 7.09505 24.324 8.80806 24.4624C10.5674 24.6932 17.975 26.4012 20.012 26.7705ZM10.0581 26.2166C7.37284 25.7088 9.54882 26.7244 10.8914 27.0936C12.1878 27.4629 19.9195 28.8939 22.0028 29.0786C24.0862 29.2632 21.0769 28.5708 19.0861 28.2015C17.0953 27.7861 10.7989 26.3551 10.0581 26.2166Z" fill="url(#paint3_linear_560_2920)"/>
<path d="M27.7435 28.5247C28.8084 28.7555 31.8177 29.0325 31.401 29.3094C30.9844 29.5864 29.5954 30.0942 27.8824 29.4017C26.2157 28.7093 23.7157 27.7399 25.1509 27.9707C26.5398 28.2477 26.8176 28.34 27.7435 28.5247Z" fill="#F39977"/>
<path d="M21.9102 31.8944C23.438 32.2175 26.54 32.7253 26.2622 33.2793C25.9381 33.8332 25.5677 34.6641 23.901 33.8794C22.188 33.0946 18.6694 31.202 21.9102 31.8944Z" fill="#F39977"/>
<path d="M21.1695 34.941C22.5121 35.6335 24.0399 36.0489 23.7621 35.5412C23.5306 35.0795 23.2066 34.9872 22.0954 34.4333C20.9843 33.9255 19.6417 33.3254 18.8546 32.8638C16.1231 31.2943 19.8269 34.2486 21.1695 34.941ZM17.8824 34.3409C19.8269 35.6796 17.6509 33.6024 16.8638 32.7715C16.0768 31.9405 14.4101 30.3249 13.7619 29.8633C13.1137 29.4017 13.623 29.9556 14.2712 31.1096C14.9193 32.2637 15.9379 33.0023 17.8824 34.3409ZM12.2341 33.6485C14.0397 34.6641 11.2618 32.5868 10.4285 31.9405C9.59511 31.2943 8.29878 29.9556 7.65062 29.5401C6.67837 28.8939 7.14135 29.6786 7.78951 30.4634C8.43768 31.202 10.4285 32.633 12.2341 33.6485ZM9.7803 29.1709C8.85435 28.3399 7.04875 26.7243 6.58578 26.3088C6.1691 25.8934 6.2617 26.078 6.2617 26.5396C6.30799 27.0013 6.67837 27.1859 7.69692 27.9707C8.71546 28.7554 10.7988 30.925 11.3544 31.6174C11.91 32.2637 13.8545 34.941 14.9656 35.495C16.0768 36.0489 13.8082 34.1563 12.6507 32.4483C11.5396 30.6942 10.66 30.0018 9.7803 29.1709ZM9.8266 33.6024C9.27103 33.2792 8.66916 32.8176 8.0673 32.7253C7.46543 32.633 8.90065 33.6485 9.8729 34.2025C10.8451 34.7564 12.4656 36.4182 13.9934 37.4338C15.5212 38.4493 13.623 36.6029 12.8359 35.772C12.0489 34.9411 10.66 34.064 9.8266 33.6024ZM23.1603 39.6034C21.9565 37.9877 20.8917 37.0183 20.2898 36.7875C19.6417 36.5567 17.975 35.8643 17.0953 35.4488C15.799 34.8487 17.2805 36.0951 18.0675 36.4182C18.8083 36.7413 19.7806 37.3876 20.6602 38.0339C21.5399 38.6801 23.6232 41.1267 24.827 42.1884C26.0307 43.2501 24.364 41.1729 23.1603 39.6034Z" fill="#B94329"/>
<path d="M11.3542 50.2667C9.78004 50.2667 8.25223 49.6666 7.04849 48.5125C4.91881 46.3891 4.68732 43.0193 6.44662 40.6189C6.77071 40.2034 8.06704 38.9109 9.73375 38.5878C10.5671 38.4493 11.3542 38.9571 11.493 39.788C11.6319 40.6189 11.1227 41.4036 10.2893 41.5421C9.68745 41.6806 9.03928 42.2345 8.85409 42.4192C7.97444 43.6194 8.11333 45.3274 9.17818 46.3891C10.3819 47.5893 12.3264 47.5893 13.5301 46.3891C14.3635 45.5582 14.6413 44.358 14.2709 43.2501V43.2039C14.0394 42.4654 13.2987 40.2496 15.1505 38.4031L16.308 37.2491C16.9099 36.649 17.6043 36.926 18.2062 37.4799C18.808 38.08 19.0395 38.7724 18.4377 39.3725L17.2339 40.4804C16.771 40.942 16.8173 41.4036 17.095 42.2346V42.3269C17.7895 44.4965 17.2339 46.8507 15.6135 48.5125C14.4561 49.6666 12.882 50.2667 11.3542 50.2667Z" fill="#8892A1"/>
<path d="M11.354 48.928C10.0114 48.928 8.66874 48.4202 7.6502 47.4047C5.84459 45.6044 5.61311 42.6962 7.14092 40.6189C7.37241 40.342 8.43725 39.1879 9.87247 38.911C10.2429 38.8648 10.5669 39.0494 10.6132 39.4187C10.6595 39.788 10.4743 40.1112 10.104 40.1573C9.13171 40.342 8.25206 41.219 8.15947 41.3575C7.00203 42.927 7.18722 45.0966 8.52985 46.4815C10.0577 48.0048 12.5577 48.0048 14.0855 46.4815C15.1504 45.4197 15.5208 43.8964 15.0578 42.4654V42.4192C14.8263 41.6807 14.2707 39.9265 15.706 38.4955L16.7708 37.4338C17.0023 37.203 17.3264 37.2491 17.6041 37.5261C17.8356 37.7569 18.0208 38.0339 17.7893 38.2647L16.6319 39.4187C15.7985 40.2496 16.03 41.219 16.3078 42.05V42.0961C16.9097 43.9887 16.4467 46.0198 15.0115 47.4047C14.0392 48.4202 12.6966 48.928 11.354 48.928Z" fill="#DBEBFA"/>
</g>
</g>
<defs>
<filter id="filter0_d_560_2920" x="-4" y="-3" width="65" height="70" filterUnits="userSpaceOnUse" color-interpolation-filters="sRGB">
<feFlood flood-opacity="0" result="BackgroundImageFix"/>
<feColorMatrix in="SourceAlpha" type="matrix" values="0 0 0 0 0 0 0 0 0 0 0 0 0 0 0 0 0 0 127 0" result="hardAlpha"/>
<feOffset dx="2" dy="3"/>
<feGaussianBlur stdDeviation="3"/>
<feComposite in2="hardAlpha" operator="out"/>
<feColorMatrix type="matrix" values="0 0 0 0 0 0 0 0 0 0 0 0 0 0 0 0 0 0 0.1 0"/>
<feBlend mode="normal" in2="BackgroundImageFix" result="effect1_dropShadow_560_2920"/>
<feBlend mode="normal" in="SourceGraphic" in2="effect1_dropShadow_560_2920" result="shape"/>
</filter>
<filter id="filter1_d_560_2920" x="1.17065" y="2.15555" width="53.5349" height="57.1111" filterUnits="userSpaceOnUse" color-interpolation-filters="sRGB">
<feFlood flood-opacity="0" result="BackgroundImageFix"/>
<feColorMatrix in="SourceAlpha" type="matrix" values="0 0 0 0 0 0 0 0 0 0 0 0 0 0 0 0 0 0 127 0" result="hardAlpha"/>
<feOffset dx="2" dy="3"/>
<feGaussianBlur stdDeviation="3"/>
<feComposite in2="hardAlpha" operator="out"/>
<feColorMatrix type="matrix" values="0 0 0 0 0 0 0 0 0 0 0 0 0 0 0 0 0 0 0.1 0"/>
<feBlend mode="normal" in2="BackgroundImageFix" result="effect1_dropShadow_560_2920"/>
<feBlend mode="normal" in="SourceGraphic" in2="effect1_dropShadow_560_2920" result="shape"/>
</filter>
<linearGradient id="paint0_linear_560_2920" x1="44.0809" y1="15.6047" x2="30.3828" y2="19.0286" gradientUnits="userSpaceOnUse">
<stop stop-color="#DC7F54"/>
<stop offset="1" stop-color="#C26143"/>
</linearGradient>
<linearGradient id="paint1_linear_560_2920" x1="19.4579" y1="13.6575" x2="40.4597" y2="13.6575" gradientUnits="userSpaceOnUse">
<stop stop-color="#F39977"/>
<stop offset="1" stop-color="#D0714C"/>
</linearGradient>
<linearGradient id="paint2_linear_560_2920" x1="28.1543" y1="24.9154" x2="14.9275" y2="25.5588" gradientUnits="userSpaceOnUse">
<stop stop-color="#DC7F54"/>
<stop offset="1" stop-color="#C26143"/>
</linearGradient>
<linearGradient id="paint3_linear_560_2920" x1="11.3832" y1="18.5609" x2="22.0788" y2="32.3662" gradientUnits="userSpaceOnUse">
<stop stop-color="#F39977"/>
<stop offset="1" stop-color="#D0714C"/>
</linearGradient>
<clipPath id="clip0_560_2920">
<rect width="53" height="58" fill="white"/>
</clipPath>
</defs>
</svg>
