<svg width="57" height="57" viewBox="0 0 57 57" fill="none" xmlns="http://www.w3.org/2000/svg">
<g filter="url(#filter0_d_3157_213)">
<path d="M26.5 48C38.9264 48 49 37.9264 49 25.5C49 13.0736 38.9264 3 26.5 3C14.0736 3 4 13.0736 4 25.5C4 37.9264 14.0736 48 26.5 48Z" fill="#A75E00"/>
<path d="M48.521 25.5C48.521 37.6725 38.6728 47.5208 26.5003 47.5208C14.3277 47.5208 4.47949 37.6725 4.47949 25.5C4.47949 13.3515 14.3517 3.47925 26.5003 3.47925C38.6488 3.47925 48.521 13.3515 48.521 25.5Z" fill="url(#paint0_radial_3157_213)"/>
<path d="M43.6564 25.5001C43.6564 34.9649 35.9647 42.6566 26.4998 42.6566C17.035 42.6566 9.34326 34.9649 9.34326 25.5001C9.34326 16.0352 17.035 8.34351 26.4998 8.34351C35.9886 8.34351 43.6564 16.0352 43.6564 25.5001Z" fill="url(#paint1_radial_3157_213)"/>
<path d="M37.3546 41.5782C36.7316 42.2731 36.3482 43.1357 35.3898 42.992C34.4313 42.8482 33.4249 43.4472 32.8498 43.9025C32.2748 44.3817 31.3882 45.0766 31.0767 44.5974C30.7652 44.1182 27.9137 44.9329 28.4649 45.484C29.2316 46.2507 30.5495 45.9632 30.885 45.5798C31.2204 45.1964 32.2029 45.3642 33.0176 45.436C33.8323 45.5079 34.8626 45.0527 35.2939 44.4057C35.7252 43.7587 36.4441 43.3993 37.1629 43.3035C37.8818 43.2076 38.4808 42.4648 38.6725 41.5063C38.8403 40.5239 37.9537 40.8833 37.3546 41.5782ZM39.607 40.5958C39.4633 41.6022 40.0144 41.0031 40.5415 40.7396C41.0687 40.476 41.8834 39.8769 41.6917 38.6549C41.476 37.4568 39.7268 39.5894 39.607 40.5958ZM25.877 45.2204C24.8466 45.46 25.6374 44.813 24.2955 44.9329C23.8403 44.9808 21.3962 44.8849 22.4265 45.3642C23.4569 45.8194 23.5048 46.107 24.7029 45.7955C25.9249 45.46 25.5895 46.8737 27.2188 45.7955C28.2971 45.0766 26.9073 44.9808 25.877 45.2204ZM45.0463 31.3945C44.8546 32.4728 44.9026 33.8146 44.4473 33.599C43.968 33.4073 43.369 34.4137 43.2971 35.5399C43.2492 36.2827 43.7045 37.8881 44.1118 36.6182C44.5192 35.3482 44.5911 33.599 44.9744 34.198C45.3818 34.7971 46.1246 33.5271 46.0527 32.329C45.9808 31.1309 45.238 30.3402 45.0463 31.3945ZM46.6038 27.2491C46.1725 25.6437 45.9808 28.3753 45.9329 29.1421C45.861 29.9568 46.1246 30.7475 46.6278 29.9808C47.131 29.214 47.0351 28.8546 46.6038 27.2491Z" fill="#FFC961"/>
<path d="M12.1469 9.8052C11.7395 9.99689 10.9967 10.5001 10.8529 11.2669C10.5893 12.6566 9.559 12.0816 9.70277 13.6391C9.89446 15.6998 10.0862 12.3931 11.9791 11.5304C12.5063 11.2908 13.0574 10.4282 13.1293 9.925C13.2491 8.89465 12.698 9.51766 12.1469 9.8052ZM6.73152 18.4554C6.1804 19.1263 6.22832 19.4617 6.44398 21.0193C6.65963 22.5768 7.13887 20.0368 7.28264 19.318C7.45037 18.5512 7.28264 17.7844 6.73152 18.4554ZM7.66602 16.1311C7.45037 16.8499 7.35452 18.8387 8.09733 17.1854C8.31299 16.7062 9.53503 15.58 9.39126 14.4058C9.17561 12.7525 7.95356 15.0768 7.66602 16.1311ZM22.1628 4.77325C21.8034 5.1806 21.1564 5.25248 20.2938 5.1806C19.4552 5.10871 18.329 5.51606 17.8977 6.18699C17.4663 6.85791 17.1309 6.66622 16.3881 6.78603C15.6453 6.88187 13.92 7.88826 13.7044 8.89465C13.4887 9.90104 14.7826 9.66143 15.4296 8.94258C16.0766 8.22373 16.4839 7.33715 17.4663 7.48092C18.4727 7.62469 19.5031 7.02564 20.1021 6.52245C20.7012 6.04322 21.6117 5.3004 21.9472 5.8036C22.2826 6.28283 25.2299 5.46814 24.6548 4.89306C23.8881 4.07836 22.5223 4.3659 22.1628 4.77325ZM30.9328 5.01286C29.8785 4.53363 29.8306 4.24609 28.5606 4.58155C27.2906 4.91702 27.6261 3.47932 25.9488 4.58155C24.8465 5.3004 26.3322 5.56398 27.3625 5.15663C29.5909 4.29401 28.2491 5.58794 29.6628 5.44417C30.1181 5.39625 31.9871 5.51606 30.9328 5.01286ZM32.6341 5.22852C31.8913 4.94098 31.6516 5.54002 32.2507 5.92341C32.5143 6.09114 33.305 6.18699 33.7123 6.21095C35.0302 6.25887 33.2092 5.44417 32.6341 5.22852Z" fill="#FFC961"/>
<path d="M43.1771 21.4504C42.9135 21.4983 42.6499 21.6421 42.4103 21.8577L41.1883 23.0798L37.618 19.5334L39.9902 17.1612C40.3736 16.7779 40.6132 16.2986 40.6611 15.8194C39.9183 14.7651 39.0796 13.7827 38.1451 12.8961C37.5461 12.8721 36.9231 13.0878 36.4199 13.591L34.0477 15.9632L31.3161 13.2315L30.4534 12.3689L31.6755 11.1469C32.3225 10.4999 32.3225 9.42163 31.3161 9.08617C29.6627 8.51109 27.9375 8.65486 26.8832 9.08617C25.8288 8.63089 24.1036 8.51109 22.4503 9.08617C21.4439 9.42163 21.4439 10.4999 22.0908 11.1469L23.3129 12.3689L19.7426 15.9632L17.3704 13.591C16.5317 12.7523 15.2378 12.6565 14.495 13.3993L13.6084 14.2858C12.8656 15.0287 12.9614 16.2986 13.8001 17.1612L16.1723 19.5334L12.602 23.1037L11.38 21.8817C10.9487 21.4504 10.3017 21.3066 9.82246 21.5942C9.53492 22.8641 9.36719 24.182 9.36719 25.5239C9.36719 27.7763 9.7985 29.9328 10.6132 31.9216C10.9007 31.8737 11.1643 31.7299 11.38 31.5143L12.602 30.2922L13.4646 31.1549L16.1963 33.8865L13.8241 36.2587C13.6803 36.4025 13.5605 36.5462 13.4646 36.69C14.5429 37.96 15.8129 39.0622 17.2027 39.9727C17.2506 39.9248 17.3225 39.8769 17.3704 39.829L19.7426 37.4568L23.3129 41.0271L22.1627 42.1772C23.5525 42.5366 24.9902 42.7283 26.4998 42.7283C28.2011 42.7283 29.8544 42.4648 31.4359 42.0095L30.4534 41.0271L31.3161 40.1644L34.0477 37.4328L36.2761 39.6612C37.6659 38.7028 38.9119 37.5287 39.9662 36.2108L37.618 33.8625L41.1883 30.2922L42.4103 31.5143C42.4582 31.5622 42.4822 31.5862 42.5301 31.6341C43.249 29.7411 43.6563 27.6804 43.6563 25.5478C43.6563 24.1101 43.4886 22.7443 43.1771 21.4504ZM23.5285 19.3178L26.8832 15.9392L30.4774 19.5334L26.8832 23.1037L23.3129 19.5334L23.5285 19.3178ZM16.1723 26.674L19.7426 23.1037L23.3129 26.674L19.7426 30.2443L16.1723 26.674ZM26.8832 37.4088L23.5046 34.0303L23.2889 33.8146L26.8592 30.2443L30.4295 33.8146L26.8832 37.4088ZM34.2394 30.0287L34.0237 30.2443L30.4534 26.674L34.0237 23.1037L34.2394 23.3194L37.618 26.698L34.2394 30.0287Z" fill="#570022"/>
<path d="M39.7987 13.1118L38.9121 12.2252C38.1693 11.4824 36.8994 11.5783 36.0367 12.4169L32.5863 15.8674L36.1566 19.4377L39.607 15.9872C40.4457 15.1486 40.5176 13.8546 39.7987 13.1118ZM13.4169 35.0128C12.5783 35.8514 12.4824 37.1454 13.2252 37.8882L14.1118 38.7748C14.8546 39.5176 16.1246 39.4217 16.9872 38.5831L20.3179 35.2524L16.7476 31.6821L13.4169 35.0128Z" fill="url(#paint2_linear_3157_213)"/>
<path d="M33.856 22.1453L42.0269 30.3162C42.6739 30.9632 43.7522 30.9632 44.0876 29.9568C44.8305 27.8003 44.3752 25.5479 43.6084 24.7571L30.9327 12.0814L27.2666 8.39131C26.4758 7.60058 24.2234 7.16927 22.0669 7.91208C21.0605 8.24754 21.0605 9.32581 21.7074 9.97278L33.856 22.1453Z" fill="url(#paint3_linear_3157_213)"/>
<path d="M30.9332 43.0879C31.9396 42.7524 31.9396 41.6741 31.2927 41.0272L23.1217 32.8563L10.9732 20.7077C10.3262 20.0607 9.24794 20.0607 8.91247 21.0671C8.16966 23.2237 8.62493 25.4761 9.39171 26.2668L13.0578 29.9329L25.7336 42.6086C26.5243 43.3994 28.7767 43.8307 30.9332 43.0879Z" fill="url(#paint4_linear_3157_213)"/>
<path d="M23.1453 18.1439L31.3162 9.97293C31.9632 9.32597 31.9632 8.24769 30.9568 7.91223C28.8003 7.16942 26.5479 7.62469 25.7571 8.39146L13.0574 21.0911L9.39131 24.7333C8.60058 25.5241 8.16927 27.7764 8.91208 29.933C9.24754 30.9394 10.3258 30.9394 10.9728 30.2924L23.1453 18.1439Z" fill="url(#paint5_linear_3157_213)"/>
<path d="M44.0877 21.0671C43.7522 20.0607 42.6739 20.0607 42.027 20.7077L33.856 28.8786L21.6835 41.0511C21.0366 41.6981 21.0366 42.7764 22.0429 43.1118C24.1995 43.8547 26.4519 43.3994 27.2426 42.6326L30.9088 38.9665L43.5845 26.2908C44.3992 25.4761 44.8305 23.2237 44.0877 21.0671Z" fill="url(#paint6_linear_3157_213)"/>
<path d="M38.8882 38.7987L39.7748 37.9121C40.5176 37.1693 40.4217 35.8994 39.5831 35.0367L16.9872 12.4169C16.1486 11.5783 14.8546 11.4824 14.1118 12.2252L13.2252 13.1118C12.4824 13.8546 12.5783 15.1246 13.4169 15.9872L36.0128 38.5831C36.8754 39.4457 38.1454 39.5176 38.8882 38.7987Z" fill="url(#paint7_linear_3157_213)"/>
<path d="M19.3595 29.0942L22.9298 32.6645L33.6646 21.9297L30.0943 18.3594L19.3595 29.0942Z" fill="url(#paint8_linear_3157_213)"/>
<path d="M17.4184 14.5015C18.7842 15.8673 20.4136 17.2331 19.6468 18.0718C18.88 18.9105 17.6101 17.7843 15.8848 15.9871C14.1356 14.1421 15.2139 12.297 17.4184 14.5015Z" fill="url(#paint9_linear_3157_213)"/>
<path d="M32.2509 29.3339C33.6167 30.6997 35.2461 32.0655 34.4793 32.9042C33.7125 33.7429 32.4426 32.6167 30.7173 30.8195C28.9681 28.9984 30.0464 27.1534 32.2509 29.3339Z" fill="url(#paint10_linear_3157_213)"/>
<path d="M32.4667 15.0286C33.8325 16.3944 35.4619 17.7602 34.6951 18.5989C33.9284 19.4376 32.6584 18.3114 30.9332 16.5142C29.184 14.6692 30.2622 12.8241 32.4667 15.0286Z" fill="url(#paint11_linear_3157_213)"/>
<path d="M18.1132 29.3816C19.479 30.7475 21.1084 32.1133 20.3416 32.9519C19.5749 33.7906 18.3049 32.6644 16.5796 30.8673C14.8304 29.0222 15.9087 27.1772 18.1132 29.3816Z" fill="url(#paint12_linear_3157_213)"/>
<path d="M28.7284 20.9713C27.8658 21.8339 26.0927 23.6071 24.9904 24.7093C23.8882 25.8116 21.7316 27.7285 24.3674 26.4825C27.0032 25.2365 28.2732 23.3675 29.0399 22.1694C29.8067 20.9713 30.4776 19.2221 28.7284 20.9713Z" fill="url(#paint13_radial_3157_213)"/>
<path d="M28.7284 35.0366C27.8658 35.8993 26.0927 37.6724 24.9904 38.7747C23.8882 39.8769 21.7316 41.8178 24.3674 40.5478C27.0032 39.2779 28.2732 37.4328 29.0399 36.2347C29.8067 35.0366 30.4776 33.3114 28.7284 35.0366Z" fill="url(#paint14_radial_3157_213)"/>
<path d="M40.829 22.9361C39.9664 23.7987 38.1932 25.5718 37.091 26.6741C35.9888 27.7763 33.8322 29.6932 36.468 28.4472C39.1038 27.2012 40.3738 25.3322 41.1405 24.1341C41.9073 22.9361 42.5782 21.2108 40.829 22.9361Z" fill="url(#paint15_radial_3157_213)"/>
<path d="M25.853 9.51754C24.9904 10.3802 24.0559 11.3147 22.9537 12.4169C21.8514 13.5191 21.0128 14.5974 22.9776 13.6389C25.6134 12.369 26.2125 11.0511 27.0032 9.853C27.7939 8.65492 27.6022 7.7923 25.853 9.51754Z" fill="url(#paint16_radial_3157_213)"/>
<path d="M13.8242 21.5701C12.9616 22.4328 12.0271 23.3673 10.9249 24.4695C9.82263 25.5717 8.98397 26.65 10.9488 25.6915C13.5607 24.4216 14.1837 23.1276 14.9504 21.9296C15.7172 20.7315 15.5495 19.8209 13.8242 21.5701Z" fill="url(#paint17_radial_3157_213)"/>
</g>
<defs>
<filter id="filter0_d_3157_213" x="0" y="0" width="57" height="57" filterUnits="userSpaceOnUse" color-interpolation-filters="sRGB">
<feFlood flood-opacity="0" result="BackgroundImageFix"/>
<feColorMatrix in="SourceAlpha" type="matrix" values="0 0 0 0 0 0 0 0 0 0 0 0 0 0 0 0 0 0 127 0" result="hardAlpha"/>
<feOffset dx="2" dy="3"/>
<feGaussianBlur stdDeviation="3"/>
<feComposite in2="hardAlpha" operator="out"/>
<feColorMatrix type="matrix" values="0 0 0 0 0 0 0 0 0 0 0 0 0 0 0 0 0 0 0.1 0"/>
<feBlend mode="normal" in2="BackgroundImageFix" result="effect1_dropShadow_3157_213"/>
<feBlend mode="normal" in="SourceGraphic" in2="effect1_dropShadow_3157_213" result="shape"/>
</filter>
<radialGradient id="paint0_radial_3157_213" cx="0" cy="0" r="1" gradientUnits="userSpaceOnUse" gradientTransform="translate(26.5055 25.5055) scale(22.8491)">
<stop offset="0.7762" stop-color="#CF7516"/>
<stop offset="0.9057" stop-color="#FFB346"/>
<stop offset="0.9303" stop-color="#F6A83D"/>
<stop offset="0.9735" stop-color="#DF8A26"/>
<stop offset="1" stop-color="#CF7516"/>
</radialGradient>
<radialGradient id="paint1_radial_3157_213" cx="0" cy="0" r="1" gradientUnits="userSpaceOnUse" gradientTransform="translate(26.5051 25.5055) scale(17.5719)">
<stop stop-color="#C23260"/>
<stop offset="0.846" stop-color="#841B54"/>
<stop offset="0.9049" stop-color="#79174B"/>
<stop offset="1" stop-color="#5E0E34"/>
</radialGradient>
<linearGradient id="paint2_linear_3157_213" x1="24.7012" y1="23.7015" x2="28.46" y2="27.4603" gradientUnits="userSpaceOnUse">
<stop stop-color="#FFB346"/>
<stop offset="0.6099" stop-color="#E38F2A"/>
<stop offset="1" stop-color="#CF7516"/>
</linearGradient>
<linearGradient id="paint3_linear_3157_213" x1="35.4572" y1="16.5533" x2="31.6982" y2="20.3122" gradientUnits="userSpaceOnUse">
<stop stop-color="#FFB346"/>
<stop offset="0.6099" stop-color="#E38F2A"/>
<stop offset="1" stop-color="#CF7516"/>
</linearGradient>
<linearGradient id="paint4_linear_3157_213" x1="21.162" y1="30.849" x2="17.403" y2="34.608" gradientUnits="userSpaceOnUse">
<stop stop-color="#FFB346"/>
<stop offset="0.6099" stop-color="#E38F2A"/>
<stop offset="1" stop-color="#CF7516"/>
</linearGradient>
<linearGradient id="paint5_linear_3157_213" x1="17.5531" y1="16.5533" x2="21.3122" y2="20.3124" gradientUnits="userSpaceOnUse">
<stop stop-color="#FFB346"/>
<stop offset="0.6099" stop-color="#E38F2A"/>
<stop offset="1" stop-color="#CF7516"/>
</linearGradient>
<linearGradient id="paint6_linear_3157_213" x1="31.8487" y1="30.8491" x2="35.6077" y2="34.6081" gradientUnits="userSpaceOnUse">
<stop stop-color="#FFB346"/>
<stop offset="0.6099" stop-color="#E38F2A"/>
<stop offset="1" stop-color="#CF7516"/>
</linearGradient>
<linearGradient id="paint7_linear_3157_213" x1="28.3094" y1="23.7013" x2="24.5505" y2="27.4602" gradientUnits="userSpaceOnUse">
<stop stop-color="#FFB346"/>
<stop offset="0.6099" stop-color="#E38F2A"/>
<stop offset="1" stop-color="#CF7516"/>
</linearGradient>
<linearGradient id="paint8_linear_3157_213" x1="24.7014" y1="23.7013" x2="28.4602" y2="27.4601" gradientUnits="userSpaceOnUse">
<stop stop-color="#FFB346"/>
<stop offset="0.6099" stop-color="#E38F2A"/>
<stop offset="1" stop-color="#CF7516"/>
</linearGradient>
<linearGradient id="paint9_linear_3157_213" x1="17.8691" y1="14.4051" x2="16.9433" y2="17.4716" gradientUnits="userSpaceOnUse">
<stop stop-color="#FFC961"/>
<stop offset="0.9992" stop-color="#F4A53B"/>
</linearGradient>
<linearGradient id="paint10_linear_3157_213" x1="32.7137" y1="29.2496" x2="31.7879" y2="32.3161" gradientUnits="userSpaceOnUse">
<stop stop-color="#FFC961"/>
<stop offset="0.9992" stop-color="#F4A53B"/>
</linearGradient>
<linearGradient id="paint11_linear_3157_213" x1="32.9234" y1="14.9292" x2="31.9977" y2="17.9958" gradientUnits="userSpaceOnUse">
<stop stop-color="#FFC961"/>
<stop offset="0.9992" stop-color="#F4A53B"/>
</linearGradient>
<linearGradient id="paint12_linear_3157_213" x1="18.5677" y1="29.2845" x2="17.6419" y2="32.351" gradientUnits="userSpaceOnUse">
<stop stop-color="#FFC961"/>
<stop offset="0.9992" stop-color="#F4A53B"/>
</linearGradient>
<radialGradient id="paint13_radial_3157_213" cx="0" cy="0" r="1" gradientUnits="userSpaceOnUse" gradientTransform="translate(23.8199 21.0304) scale(6.27141)">
<stop offset="0.5478" stop-color="#FFC961"/>
<stop offset="0.9992" stop-color="#F4A53B"/>
</radialGradient>
<radialGradient id="paint14_radial_3157_213" cx="0" cy="0" r="1" gradientUnits="userSpaceOnUse" gradientTransform="translate(23.8199 35.1077) scale(6.27141)">
<stop offset="0.5478" stop-color="#FFC961"/>
<stop offset="0.9992" stop-color="#F4A53B"/>
</radialGradient>
<radialGradient id="paint15_radial_3157_213" cx="0" cy="0" r="1" gradientUnits="userSpaceOnUse" gradientTransform="translate(35.9205 23.0072) scale(6.27141)">
<stop offset="0.5478" stop-color="#FFC961"/>
<stop offset="0.9992" stop-color="#F4A53B"/>
</radialGradient>
<radialGradient id="paint16_radial_3157_213" cx="0" cy="0" r="1" gradientUnits="userSpaceOnUse" gradientTransform="translate(22.3923 9.2122) scale(5.21039)">
<stop offset="0.5478" stop-color="#FFC961"/>
<stop offset="0.9992" stop-color="#F4A53B"/>
</radialGradient>
<radialGradient id="paint17_radial_3157_213" cx="0" cy="0" r="1" gradientUnits="userSpaceOnUse" gradientTransform="translate(10.3515 21.2528) scale(5.21039)">
<stop offset="0.5478" stop-color="#FFC961"/>
<stop offset="0.9992" stop-color="#F4A53B"/>
</radialGradient>
</defs>
</svg>
