<svg width="53" height="58" viewBox="0 0 53 58" fill="none" xmlns="http://www.w3.org/2000/svg">
<g clipPath="url(#clip0_560_2561)">
<g filter="url(#filter0_d_560_2561)">
<path d="M3.51278 20.0108C5.31705 26.8054 8.87933 33.1896 14.2459 38.5249L14.3384 38.6161C19.7049 43.9059 26.2281 47.4628 33.1213 49.1956C35.5733 49.834 36.4523 49.606 37.285 47.0524C40.1533 38.2969 44.6872 23.5221 46.6302 16.4539C48.4808 9.70491 48.342 8.20007 46.9078 6.78643C46.8615 6.74083 46.6765 6.55843 46.6302 6.51282C45.1498 5.05358 43.6231 4.91678 36.7761 6.74083C29.6053 8.61048 14.616 13.125 5.73342 15.9523C3.14267 16.7731 2.91135 17.5939 3.51278 20.0108Z" fill="url(#paint0_radial_560_2561)"/>
<path d="M10.8685 18.0499C12.3489 23.6133 15.2635 28.8574 19.6585 33.1896C19.6585 33.1896 19.7048 33.2352 19.751 33.2808C24.146 37.6129 29.5126 40.5314 35.1105 41.945C37.0998 42.4466 37.84 42.2642 38.4877 40.1665C40.8471 33.0071 44.5482 20.8772 46.1211 15.0859C47.6478 9.5681 47.509 8.33687 46.3525 7.15123C46.3062 7.10563 46.1674 6.96883 46.1211 6.92323C44.9183 5.73759 43.6692 5.64639 38.0713 7.15123C32.1959 8.70168 19.9361 12.3954 12.6265 14.6754C10.5446 15.3595 10.3596 16.0435 10.8685 18.0499Z" fill="url(#paint1_linear_560_2561)"/>
<path d="M27.8474 12.5778C26.5057 13.0794 23.915 13.7634 24.5627 16.3627C25.2104 19.0076 26.8758 20.6948 23.5911 23.2029C20.3064 25.711 19.7513 25.3462 19.9363 27.8998C20.1677 30.4535 20.8616 26.851 22.6196 26.395C24.3776 25.8934 29.9292 24.6165 28.5876 20.6492C27.2459 16.7275 26.6908 15.4507 28.5876 13.581C30.4381 11.757 30.7157 11.4834 27.8474 12.5778Z" fill="url(#paint2_linear_560_2561)"/>
<path d="M39.3205 8.7929C37.3774 9.06651 35.4806 11.3466 36.1746 13.2162C36.8685 15.0859 37.9788 17.3659 35.7582 18.8252C33.5376 20.2844 32.4735 21.7437 36.0358 20.6948C39.5981 19.646 41.7724 18.7796 41.2173 15.7243C40.6621 12.669 38.6265 11.6658 40.9397 9.93294C43.2529 8.15449 41.3561 8.5193 39.3205 8.7929Z" fill="url(#paint3_linear_560_2561)"/>
<path d="M32.7512 26.2582C32.7512 28.5383 32.6587 30.2711 30.2992 30.9551C27.9398 31.6391 26.737 33.6 27.1533 35.5153C27.5697 37.4305 28.495 34.284 32.196 33.5088C35.8971 32.7336 37.2387 30.7271 35.712 27.991C34.1391 25.2094 32.7512 23.7957 32.7512 26.2582Z" fill="url(#paint4_linear_560_2561)"/>
<path d="M13.4593 29.3135C12.164 28.1734 10.591 27.4438 10.8686 25.711C11.1462 23.9325 10.0358 22.1085 9.15684 21.0596C8.27784 20.0108 7.72268 18.6428 8.60168 18.05C9.48068 17.4571 10.3134 15.9523 9.01805 16.1803C7.02873 16.5907 3.32766 17.7763 4.06787 18.3692C4.80809 19.0076 6.47357 19.874 6.33478 21.3332C6.19599 22.8381 7.07499 24.7077 8.27784 25.483C9.48068 26.2582 10.1746 27.5806 10.3597 28.903C10.5447 30.2255 11.9326 31.2743 13.6907 31.6391C15.4487 32.0495 14.7547 30.4079 13.4593 29.3135ZM15.2636 33.4176C13.4131 33.1896 14.5234 34.1472 15.0323 35.1504C15.5412 36.1536 16.6515 37.6129 18.9184 37.2481C21.139 36.8377 17.1604 33.6456 15.2636 33.4176ZM32.3348 43.3586C30.3455 42.9938 27.8472 43.1306 28.2173 42.2642C28.5874 41.3978 26.7369 40.3034 24.6088 40.1666C23.2209 40.0754 20.26 40.8962 22.6195 41.6258C24.9789 42.3554 28.2173 42.4922 27.107 43.2218C25.9967 43.9515 28.3561 45.3195 30.5768 45.1827C32.8437 45.0915 34.3704 43.7235 32.3348 43.3586Z" fill="#FDC963"/>
<path d="M23.8223 24.8902C23.8223 27.079 21.7867 27.079 19.2422 27.079C16.6977 27.079 14.6621 27.0334 14.6621 24.8902C14.6621 22.7013 16.4664 20.6949 19.2422 20.6949C21.9717 20.6949 23.8223 22.7013 23.8223 24.8902Z" fill="#B47A4D"/>
<path d="M23.7297 25.027C23.7297 26.4862 22.8045 27.3071 21.4166 27.7631C20.7689 27.9911 20.0287 26.4406 19.2884 26.4406C18.502 26.4406 17.7618 27.9911 17.1141 27.7631C15.7724 27.2615 14.8472 26.4406 14.8472 25.027C14.8472 22.9293 16.8365 21.1965 19.3347 21.1965C21.7404 21.1965 23.7297 22.8837 23.7297 25.027Z" fill="#EDE1D2"/>
<path d="M19.2422 22.4277C17.2066 22.4277 15.5874 23.7502 15.5874 25.3462C15.5874 26.4406 16.3276 27.0791 17.4379 27.4439C17.4842 27.4439 17.5305 27.4439 17.5767 27.4439C17.5767 28.0367 17.5767 28.5839 17.5305 28.8575C17.4842 29.1311 18.3632 29.4047 19.2422 29.4047C20.1212 29.4047 21.0002 29.1311 20.954 28.8575C20.9077 28.6295 20.9077 28.0367 20.9077 27.4439C20.954 27.4439 20.954 27.4439 21.0002 27.4439C22.1568 27.0791 22.897 26.4406 22.897 25.3462C22.897 23.7502 21.2778 22.4277 19.2422 22.4277Z" fill="url(#paint5_radial_560_2561)"/>
<path d="M16.6052 25.255C16.2814 25.483 16.1426 25.8022 16.1426 26.167C16.1426 26.7598 16.6977 27.307 17.5767 27.6262C17.5305 26.851 17.4842 25.939 17.2992 25.5286C17.1604 25.027 16.8365 25.1182 16.6052 25.255ZM21.8792 25.255C21.6479 25.0726 21.3241 25.027 21.139 25.483C21.0002 25.939 20.9077 26.8054 20.8614 27.5806C21.7404 27.2614 22.2956 26.7142 22.2956 26.1214C22.3419 25.8478 22.2031 25.483 21.8792 25.255Z" fill="url(#paint6_radial_560_2561)"/>
<path d="M26.6907 20.4668C27.2459 18.3236 29.2815 18.8252 31.7797 19.4636C34.2779 20.102 36.2672 20.6036 35.7121 22.7469C35.1569 24.8901 32.8438 26.4406 30.1142 25.7566C27.4309 25.0726 26.1356 22.6101 26.6907 20.4668Z" fill="#B47A4D"/>
<path d="M26.8295 20.3756C27.1996 18.962 28.3562 18.3692 29.8366 18.2324C30.5306 18.1868 30.8544 19.874 31.5946 20.0564C32.3811 20.2388 33.4914 18.9164 34.0929 19.3268C35.2957 20.1476 35.9897 21.1965 35.6196 22.5645C35.0644 24.6622 32.6587 25.8478 30.253 25.2094C27.801 24.6166 26.2744 22.4277 26.8295 20.3756Z" fill="#EDE1D2"/>
<path d="M30.5768 23.9781C32.5662 24.4797 34.5092 23.6133 34.9256 22.0173C35.2032 20.9228 34.6018 20.1476 33.6302 19.5092C33.584 19.4636 33.5377 19.4636 33.4914 19.4636C33.6302 18.8708 33.769 18.3236 33.9078 18.0956C34.0003 17.8219 33.2139 17.3659 32.3811 17.1379C31.5021 16.9099 30.6231 16.9555 30.5768 17.2291C30.5768 17.5027 30.4381 18.05 30.253 18.5972C30.2067 18.5972 30.2067 18.5972 30.1605 18.5972C28.9576 18.6884 28.0324 19.0988 27.7548 20.1932C27.2921 21.7893 28.5875 23.4765 30.5768 23.9781Z" fill="url(#paint7_radial_560_2561)"/>
<path d="M33.8617 21.8805C34.2318 21.7437 34.4631 21.4245 34.5556 21.1053C34.6944 20.5124 34.278 19.8284 33.5378 19.3268C33.3528 20.102 33.214 21.0141 33.2602 21.4701C33.2602 21.9261 33.6304 21.9717 33.8617 21.8805ZM28.6802 20.558C28.8652 20.786 29.1891 20.9229 29.4666 20.5124C29.7442 20.102 30.0218 19.2812 30.2531 18.506C29.3279 18.5972 28.6339 19.0076 28.4951 19.6004C28.4026 19.874 28.4489 20.2388 28.6802 20.558Z" fill="url(#paint8_radial_560_2561)"/>
<path d="M34.9717 26.3494C32.2884 26.3494 30.1603 28.4926 30.1603 31.0919C30.1603 33.7368 32.3347 35.8344 34.9717 35.8344C37.655 35.8344 39.7831 33.6912 39.7831 31.0919C39.7831 28.447 37.655 26.3494 34.9717 26.3494ZM26.2742 11.3009L18.8258 13.4442C18.5945 13.9914 18.502 14.5842 18.502 15.1771C18.502 17.8675 20.6763 20.0108 23.4059 20.0108C26.1354 20.0108 28.3098 17.8675 28.3098 15.1771C28.2635 13.581 27.477 12.1674 26.2742 11.3009ZM45.7973 7.74405C45.6585 7.74405 45.566 7.74405 45.4272 7.74405C42.5126 7.74405 40.1532 10.0697 40.1532 12.9426C40.1532 15.4051 41.9112 17.4571 44.2244 18.0043C44.9646 15.3139 46.2137 10.5257 46.3062 9.6593C46.445 8.83848 46.0749 8.10886 45.7973 7.74405Z" fill="#C05349"/>
<path d="M30.6695 36.3361C27.7549 37.4305 24.4702 35.9713 23.3599 33.0984C22.2496 30.2255 23.73 26.9878 26.6446 25.8934C27.7086 28.7207 29.4667 33.1896 30.6695 36.3361Z" fill="#EE6F4B"/>
<path d="M30.1607 35.2872C27.8475 36.1537 25.2105 35.0136 24.3315 32.688C23.4525 30.3623 24.6091 27.8086 26.9685 26.9422C27.8013 29.2223 29.1892 32.7792 30.1607 35.2872Z" fill="#E52913"/>
<path d="M26.6446 32.5967C26.3671 32.7335 26.2745 33.0527 26.4133 33.3263C26.5521 33.5544 26.8759 33.6456 27.1535 33.5088C27.4311 33.372 27.7087 32.8247 27.6162 32.6423C27.5699 32.5511 26.8759 32.4599 26.6446 32.5967ZM26.0895 30.7727C25.8119 30.8183 25.6268 31.0919 25.6731 31.3655C25.7194 31.6391 25.9969 31.8215 26.3208 31.7759C26.5984 31.7303 27.061 31.2287 27.061 31.0919C27.0147 30.9095 26.3671 30.7271 26.0895 30.7727ZM25.9044 29.2222C25.8119 29.4958 25.9507 29.7694 26.2283 29.9063C26.5058 29.9975 27.1535 29.8151 27.1998 29.7238C27.2461 29.5414 26.8759 29.0398 26.5984 28.9486C26.2745 28.8118 25.9969 28.9486 25.9044 29.2222ZM27.8475 34.1016C27.7087 34.3752 27.8012 34.6944 28.0325 34.8312C28.2638 34.968 28.5877 34.8768 28.7727 34.6032C28.9115 34.3296 28.8653 33.6912 28.7265 33.6456C28.5877 33.5544 27.9863 33.828 27.8475 34.1016Z" fill="#E86A0A"/>
<path d="M25.9971 30.9551C25.9508 30.9551 25.8583 31.0007 25.812 31.0463C25.7657 31.0919 25.7195 31.1831 25.7657 31.2743C25.7657 31.3199 25.812 31.4111 25.9045 31.4567C25.9508 31.5023 26.0433 31.5023 26.1359 31.5023C26.2284 31.5023 26.4134 31.3199 26.5985 31.1375C26.5985 31.1375 26.5985 31.0919 26.6447 31.0919C26.4597 31.0007 26.1359 30.9551 25.9971 30.9551ZM26.5985 32.7792C26.5522 32.7792 26.5522 32.8248 26.506 32.8704C26.4134 32.9616 26.4134 33.0984 26.4597 33.1896C26.506 33.2352 26.5522 33.2808 26.5985 33.3264C26.691 33.3264 26.7373 33.3264 26.8298 33.2808C26.8298 33.2808 26.8761 33.2352 26.9686 33.144C27.0611 33.0072 27.1536 32.8704 27.1999 32.7792C27.0611 32.7336 26.7373 32.7336 26.5985 32.7792ZM26.0433 29.1767C26.0433 29.1767 25.9971 29.2223 25.9971 29.2679C25.9508 29.4047 26.0433 29.5415 26.1821 29.6327C26.3209 29.6783 26.6447 29.6327 26.7835 29.5415C26.691 29.4047 26.506 29.1767 26.3672 29.1311C26.2284 29.0399 26.0896 29.0855 26.0433 29.1767ZM27.9401 34.1928C27.8939 34.284 27.8939 34.3296 27.8939 34.4208C27.8939 34.4664 27.9401 34.5576 28.0326 34.5576C28.1252 34.6032 28.264 34.6032 28.3565 34.4664L28.4028 34.4208C28.4953 34.284 28.4953 34.0104 28.449 33.828C28.3102 33.8736 28.0789 34.0104 27.9401 34.1928C27.9401 34.1472 27.9401 34.1472 27.9401 34.1928Z" fill="#FAB515"/>
<path d="M27.7548 29.6327C27.6622 29.8607 27.5697 30.1343 27.1996 30.2711C26.8295 30.3623 27.1996 30.5903 27.2921 31.0008C27.3846 31.4112 27.2459 31.6848 27.1071 31.9128C26.9683 32.0952 27.4309 32.0496 27.7548 32.4144C28.0786 32.7792 27.8473 33.372 28.0786 33.2808C28.3099 33.2352 28.7725 33.2352 29.0964 33.5088C29.374 33.828 29.3277 33.372 29.1889 33.0072C29.0501 32.5968 28.0786 30.1799 27.9861 29.9063C27.8935 29.6783 27.8473 29.4503 27.7548 29.6327Z" fill="#F6A984"/>
<path d="M38.9506 7.78967C39.9222 10.6626 38.3492 13.7634 35.4346 14.7211C32.52 15.6787 29.3741 14.1282 28.4026 11.2554C31.2709 10.2977 35.8047 8.8385 38.9506 7.78967Z" fill="#EE6F4B"/>
<path d="M37.8865 8.2457C38.673 10.5258 37.4238 12.9882 35.0644 13.7634C32.7513 14.5387 30.253 13.3074 29.4666 10.9818C31.7797 10.2522 35.3883 9.06652 37.8865 8.2457Z" fill="#E52913"/>
<path d="M35.1109 11.5289C35.2497 11.8026 35.5735 11.8938 35.8049 11.757C36.0362 11.6202 36.1287 11.3009 35.9899 11.0729C35.8511 10.7993 35.296 10.4801 35.1572 10.5713C35.0646 10.6169 34.9721 11.2553 35.1109 11.5289ZM33.2604 11.985C33.3066 12.2586 33.5842 12.4866 33.8618 12.441C34.1394 12.3954 34.3244 12.1218 34.2782 11.8482C34.2319 11.5746 33.7693 11.1185 33.6305 11.1185C33.4454 11.1185 33.2141 11.6658 33.2604 11.985ZM31.6874 12.1218C31.965 12.213 32.2426 12.0762 32.3814 11.8026C32.4739 11.5289 32.3351 10.8905 32.2426 10.8449C32.0575 10.7993 31.5486 11.1641 31.4561 11.3921C31.3173 11.7114 31.4098 11.985 31.6874 12.1218ZM36.6376 10.3889C36.8689 10.5257 37.1928 10.4801 37.3778 10.2065C37.5166 9.97851 37.4241 9.6593 37.1928 9.52249C36.9614 9.38569 36.3137 9.38569 36.2212 9.52249C36.1287 9.6593 36.36 10.2521 36.6376 10.3889Z" fill="#E86A0A"/>
<path d="M33.4453 12.0762C33.4453 12.1218 33.4916 12.213 33.5379 12.2586C33.5841 12.3042 33.6767 12.3498 33.7692 12.3042C33.8154 12.3042 33.908 12.2586 33.9542 12.213C34.0005 12.1674 34.0005 12.0762 34.0005 11.985C34.0005 11.8938 33.8617 11.7114 33.6767 11.529C33.6767 11.529 33.6767 11.529 33.6304 11.4834C33.4916 11.6658 33.3991 11.9394 33.4453 12.0762ZM35.2959 11.529C35.2959 11.5746 35.3421 11.5746 35.3421 11.6202C35.4347 11.7114 35.5272 11.7114 35.6197 11.6658C35.666 11.6202 35.7123 11.5746 35.7585 11.529C35.7585 11.4378 35.7585 11.3922 35.7585 11.301C35.7585 11.301 35.7123 11.2554 35.6197 11.1642C35.4809 11.073 35.3421 10.9818 35.2959 10.9362C35.2496 11.1186 35.2034 11.4378 35.2959 11.529ZM31.6411 11.985C31.6411 11.985 31.6873 12.0306 31.7336 12.0306C31.8724 12.0762 32.0112 12.0306 32.1037 11.8482C32.15 11.7114 32.1037 11.4378 32.0574 11.2554C31.9186 11.3466 31.6873 11.529 31.6411 11.6658C31.5485 11.757 31.5948 11.8938 31.6411 11.985ZM36.6838 10.3434C36.73 10.389 36.8226 10.389 36.9151 10.389C36.9614 10.389 37.0539 10.3434 37.0539 10.2978C37.1002 10.2066 37.1002 10.0697 37.0076 9.97855L36.9614 9.93295C36.8226 9.84174 36.545 9.84174 36.3599 9.88734C36.4525 9.97855 36.545 10.2066 36.6838 10.3434Z" fill="#FAB515"/>
<path d="M32.1962 10.2977C32.3813 10.3889 32.7051 10.5257 32.7976 10.8449C32.8902 11.2097 33.1215 10.8449 33.5378 10.7537C33.9542 10.6625 34.2318 10.8449 34.4169 10.9817C34.6019 11.1185 34.5556 10.6625 34.9257 10.3889C35.2959 10.0697 35.851 10.3433 35.8048 10.1153C35.7585 9.88731 35.7585 9.4313 36.0823 9.15769C36.4062 8.88408 35.9898 8.92968 35.5734 9.06649C35.2033 9.20329 32.7051 10.0241 32.4275 10.1153C32.2425 10.1609 32.0112 10.2065 32.1962 10.2977Z" fill="#F6A984"/>
<path d="M38.7654 22.1996C39.2281 22.0628 39.6907 22.1084 39.9683 22.2908C40.7085 23.3853 40.7548 24.2517 40.3384 25.3005C40.8936 25.4829 41.4487 25.6197 41.8651 25.7565C42.4665 24.2517 42.4665 23.0661 41.1249 21.4244C41.0324 21.3332 40.9861 21.1964 40.8936 21.0596C40.8473 20.9228 40.8473 20.786 40.8473 20.6036C40.9861 17.9587 39.8295 17.0923 37.6089 15.9523C37.5163 15.9067 37.1 15.6787 36.8686 15.5875L36.5911 17.2291C36.6836 17.2747 36.8224 17.3203 36.8686 17.3659C38.3953 18.1867 39.2743 18.8252 39.4131 20.33C39.4131 20.3756 39.4131 20.3756 39.4131 20.4212C39.4594 20.786 39.043 21.1964 38.4879 21.3788C38.1178 21.5156 37.3775 21.8348 36.5911 22.0172C36.6836 22.2908 36.7761 22.5645 36.9149 22.8381C37.6089 22.5189 38.3953 22.3364 38.7654 22.1996Z" fill="#759F2C"/>
<path d="M16.0039 15.8155C15.9114 15.7243 15.8188 15.5875 15.7263 15.4507C15.6801 15.3139 15.6338 15.1771 15.5875 15.0403C15.5875 14.8123 15.5413 14.5843 15.495 14.3563L14.0608 14.8123C14.0608 14.8579 14.0608 14.9035 14.1071 14.9035C14.1071 14.9491 14.1071 14.9491 14.1071 14.9947C14.1996 15.3595 13.8295 15.8155 13.3206 16.0891C12.9968 16.2715 12.2566 16.6819 11.5164 16.9555C11.6551 17.1835 11.7939 17.4571 11.9327 17.7308C12.6267 17.3203 13.3669 17.0467 13.6907 16.9099C14.1071 16.6819 14.5697 16.6819 14.8936 16.8187C15.7726 17.822 15.9576 18.6428 15.6801 19.7372C16.2352 19.8284 16.8366 19.9196 17.253 19.9652C17.7156 18.4148 17.5306 17.2291 16.0039 15.8155Z" fill="#759F2C"/>
<path d="M38.0252 38.1601C38.0252 38.1601 38.1178 37.9777 38.0715 37.7497C38.0252 37.8409 37.9327 37.8865 37.8402 37.9321C37.7939 37.9321 37.7939 37.9777 37.7477 37.9777C36.3598 38.5705 35.342 38.1601 33.9078 37.2025C33.8615 37.1569 33.769 37.1113 33.6765 37.0201L32.3811 38.0233C32.5662 38.1601 32.9363 38.3881 33.0288 38.4793C34.6943 39.5737 35.8971 40.1666 37.4701 39.6649L38.0252 38.1601Z" fill="#759F2C"/>
<path d="M21.1391 14.7667C21.1391 15.2683 20.7227 15.6787 20.2138 15.6787C19.7049 15.6787 19.2886 15.2683 19.2886 14.7667C19.2886 14.2651 19.7049 13.8547 20.2138 13.8547C20.7227 13.8547 21.1391 14.2651 21.1391 14.7667Z" fill="#D7948E"/>
<path d="M23.3136 14.7211C23.6968 14.7211 24.0075 14.4148 24.0075 14.037C24.0075 13.6593 23.6968 13.353 23.3136 13.353C22.9303 13.353 22.6196 13.6593 22.6196 14.037C22.6196 14.4148 22.9303 14.7211 23.3136 14.7211Z" fill="#D7948E"/>
<path d="M27.4308 14.6299C27.4308 15.2227 26.9682 15.6787 26.3668 15.6787C25.7654 15.6787 25.3027 15.2227 25.3027 14.6299C25.3027 14.0371 25.7654 13.5811 26.3668 13.5811C26.9682 13.5811 27.4308 14.0371 27.4308 14.6299Z" fill="#D7948E"/>
<path d="M26.0893 17.4115C26.0893 17.8675 25.7192 18.278 25.2103 18.278C24.7477 18.278 24.3313 17.9131 24.3313 17.4115C24.3313 16.9555 24.7014 16.5451 25.2103 16.5451C25.6729 16.5451 26.0893 16.9099 26.0893 17.4115Z" fill="#D7948E"/>
<path d="M22.4344 17.4116C22.9199 17.4116 23.3134 17.0236 23.3134 16.5451C23.3134 16.0666 22.9199 15.6787 22.4344 15.6787C21.949 15.6787 21.5554 16.0666 21.5554 16.5451C21.5554 17.0236 21.949 17.4116 22.4344 17.4116Z" fill="#D7948E"/>
<path d="M34.0927 29.2679C34.0927 29.8151 33.6763 30.2255 33.1212 30.2255C32.566 30.2255 32.1497 29.8151 32.1497 29.2679C32.1497 28.7207 32.566 28.3103 33.1212 28.3103C33.6763 28.3559 34.0927 28.7663 34.0927 29.2679Z" fill="#D7948E"/>
<path d="M36.8225 28.1734C36.8225 28.5838 36.4986 28.8574 36.1285 28.8574C35.7121 28.8574 35.4346 28.5382 35.4346 28.1734C35.4346 27.763 35.7584 27.4894 36.1285 27.4894C36.4986 27.4894 36.8225 27.8086 36.8225 28.1734Z" fill="#D7948E"/>
<path d="M38.5341 30.7727C38.5341 31.2287 38.164 31.5935 37.7014 31.5935C37.2388 31.5935 36.8687 31.2287 36.8687 30.7727C36.8687 30.3167 37.2388 29.9519 37.7014 29.9519C38.164 29.9519 38.5341 30.3167 38.5341 30.7727Z" fill="#D7948E"/>
<path d="M35.0179 32.0495C35.5034 32.0495 35.8969 31.6616 35.8969 31.1831C35.8969 30.7046 35.5034 30.3167 35.0179 30.3167C34.5325 30.3167 34.1389 30.7046 34.1389 31.1831C34.1389 31.6616 34.5325 32.0495 35.0179 32.0495Z" fill="#D7948E"/>
<path d="M32.3811 31.6391C32.3811 32.0039 32.1035 32.2775 31.7334 32.2775C31.3633 32.2775 31.0857 32.0039 31.0857 31.6391C31.0857 31.2743 31.3633 31.0007 31.7334 31.0007C32.1035 31.0007 32.3811 31.3199 32.3811 31.6391Z" fill="#D7948E"/>
<path d="M33.5375 34.1928C33.9718 34.1928 34.3239 33.8457 34.3239 33.4176C34.3239 32.9894 33.9718 32.6424 33.5375 32.6424C33.1031 32.6424 32.751 32.9894 32.751 33.4176C32.751 33.8457 33.1031 34.1928 33.5375 34.1928Z" fill="#D7948E"/>
<path d="M37.5163 33.5088C37.5163 34.0104 37.0999 34.3752 36.6373 34.3752C36.1284 34.3752 35.7583 33.9648 35.7583 33.5088C35.7583 33.0072 36.1747 32.6424 36.6373 32.6424C37.1462 32.6424 37.5163 33.0528 37.5163 33.5088Z" fill="#D7948E"/>
<path d="M43.7617 15.3595C43.7617 15.8155 43.3916 16.1803 42.9289 16.1803C42.4663 16.1803 42.0962 15.8155 42.0962 15.3595C42.0962 14.9035 42.4663 14.5387 42.9289 14.5387C43.3916 14.5843 43.7617 14.9491 43.7617 15.3595Z" fill="#D7948E"/>
<path d="M43.1142 12.8514C43.1142 13.3986 42.6516 13.8546 42.0964 13.8546C41.5412 13.8546 41.0786 13.3986 41.0786 12.8514C41.0786 12.3042 41.5412 11.8482 42.0964 11.8482C42.6516 11.8938 43.1142 12.3042 43.1142 12.8514Z" fill="#D7948E"/>
<path d="M45.2885 11.8482C45.2885 12.2586 44.9647 12.5778 44.5483 12.5778C44.132 12.5778 43.8081 12.2586 43.8081 11.8482C43.8081 11.4378 44.132 11.1186 44.5483 11.1186C44.9184 11.1186 45.2885 11.4378 45.2885 11.8482Z" fill="#D7948E"/>
<path d="M44.5022 9.56811C44.5022 10.0241 44.132 10.3889 43.6694 10.3889C43.2068 10.3889 42.8367 10.0241 42.8367 9.56811C42.8367 9.11209 43.2068 8.74728 43.6694 8.74728C44.132 8.79289 44.5022 9.1577 44.5022 9.56811Z" fill="#D7948E"/>
</g>
</g>
<defs>
<filter id="filter0_d_560_2561" x="-0.763184" y="2.39536" width="56.7644" height="56.1016" filterUnits="userSpaceOnUse" color-interpolation-filters="sRGB">
<feFlood flood-opacity="0" result="BackgroundImageFix"/>
<feColorMatrix in="SourceAlpha" type="matrix" values="0 0 0 0 0 0 0 0 0 0 0 0 0 0 0 0 0 0 127 0" result="hardAlpha"/>
<feOffset dx="2" dy="3"/>
<feGaussianBlur stdDeviation="3"/>
<feComposite in2="hardAlpha" operator="out"/>
<feColorMatrix type="matrix" values="0 0 0 0 0 0 0 0 0 0 0 0 0 0 0 0 0 0 0.1 0"/>
<feBlend mode="normal" in2="BackgroundImageFix" result="effect1_dropShadow_560_2561"/>
<feBlend mode="normal" in="SourceGraphic" in2="effect1_dropShadow_560_2561" result="shape"/>
</filter>
<radialGradient id="paint0_radial_560_2561" cx="0" cy="0" r="1" gradientUnits="userSpaceOnUse" gradientTransform="translate(46.672 7.30256) scale(45.6576 45.0042)">
<stop offset="0.6936" stop-color="#CF7518"/>
<stop offset="0.9057" stop-color="#F9B24B"/>
<stop offset="0.9307" stop-color="#F1A640"/>
<stop offset="0.9746" stop-color="#DC8827"/>
<stop offset="1" stop-color="#CF7518"/>
</radialGradient>
<linearGradient id="paint1_linear_560_2561" x1="24.3385" y1="10.0512" x2="48.2773" y2="38.9914" gradientUnits="userSpaceOnUse">
<stop stop-color="#F9F7CF"/>
<stop offset="1" stop-color="#F2D99A"/>
</linearGradient>
<linearGradient id="paint2_linear_560_2561" x1="18.0103" y1="17.3176" x2="34.0516" y2="24.5347" gradientUnits="userSpaceOnUse">
<stop stop-color="#F9F7CF"/>
<stop offset="1" stop-color="#F2D99A"/>
</linearGradient>
<linearGradient id="paint3_linear_560_2561" x1="29.8728" y1="8.96724" x2="43.6187" y2="19.2891" gradientUnits="userSpaceOnUse">
<stop stop-color="#F9F7CF"/>
<stop offset="1" stop-color="#F2D99A"/>
</linearGradient>
<linearGradient id="paint4_linear_560_2561" x1="19.0178" y1="23.2896" x2="34.4131" y2="33.4088" gradientUnits="userSpaceOnUse">
<stop stop-color="#F9F7CF"/>
<stop offset="1" stop-color="#F2D99A"/>
</linearGradient>
<radialGradient id="paint5_radial_560_2561" cx="0" cy="0" r="1" gradientUnits="userSpaceOnUse" gradientTransform="translate(19.2973 24.9557) scale(3.59946 3.54795)">
<stop stop-color="#C1A486"/>
<stop offset="0.1617" stop-color="#C3A88A"/>
<stop offset="1" stop-color="#E3D1BA"/>
</radialGradient>
<radialGradient id="paint6_radial_560_2561" cx="0" cy="0" r="1" gradientUnits="userSpaceOnUse" gradientTransform="translate(19.2212 28.4281) scale(4.16631 4.10669)">
<stop stop-color="#E3D1BA"/>
<stop offset="0.1261" stop-color="#DFCBB2"/>
<stop offset="0.3015" stop-color="#D2B99C"/>
<stop offset="0.5059" stop-color="#BE9E7B"/>
<stop offset="0.7322" stop-color="#A47B52"/>
<stop offset="0.965" stop-color="#865628"/>
</radialGradient>
<radialGradient id="paint7_radial_560_2561" cx="0" cy="0" r="1" gradientUnits="userSpaceOnUse" gradientTransform="translate(31.0718 21.6254) rotate(-165.899) scale(3.65022 3.60423)">
<stop stop-color="#C1A486"/>
<stop offset="0.1617" stop-color="#C3A88A"/>
<stop offset="1" stop-color="#E3D1BA"/>
</radialGradient>
<radialGradient id="paint8_radial_560_2561" cx="0" cy="0" r="1" gradientUnits="userSpaceOnUse" gradientTransform="translate(32.0303 18.229) rotate(-165.899) scale(4.22482 4.17159)">
<stop stop-color="#E3D1BA"/>
<stop offset="0.1261" stop-color="#DFCBB2"/>
<stop offset="0.3015" stop-color="#D2B99C"/>
<stop offset="0.5059" stop-color="#BE9E7B"/>
<stop offset="0.7322" stop-color="#A47B52"/>
<stop offset="0.965" stop-color="#865628"/>
</radialGradient>
<clipPath id="clip0_560_2561">
<rect width="52" height="58" fill="white" transform="translate(0.5)"/>
</clipPath>
</defs>
</svg>
