<svg width="59" height="58" viewBox="0 0 59 58" fill="none" xmlns="http://www.w3.org/2000/svg">
<g clipPath="url(#clip0_560_2614)">
<g filter="url(#filter0_d_560_2614)">
<path d="M31.9112 50.4522C34.6696 48.355 36.9049 46.584 42.8023 40.7584C48.4618 35.2125 50.4593 32.9289 52.6946 30.086C52.98 29.7131 53.2178 29.2937 53.3129 28.8743C53.408 28.6412 53.408 28.3616 53.4556 28.1286C53.4556 28.082 53.4556 28.0354 53.4556 27.9422C53.4556 27.8956 53.4556 27.849 53.4556 27.7558C53.4556 27.6159 53.408 27.4761 53.3605 27.3363C53.2178 26.9169 53.0275 26.4508 52.6946 26.078C50.5545 23.3749 48.7472 21.1845 42.8023 15.4055C37.1427 9.85958 34.8123 7.90218 31.9112 5.71176C31.5307 5.43214 31.1026 5.19911 30.6746 5.1059C30.4368 5.0127 30.199 5.0127 29.9612 5.0127C29.9137 5.0127 29.9137 5.0127 29.8661 5.0127C29.8185 5.0127 29.8185 5.0127 29.771 5.0127C29.5332 5.0127 29.2954 5.0593 29.0576 5.1059C28.6296 5.19911 28.2015 5.43214 27.821 5.71176C24.9199 7.90218 22.5895 9.85958 16.9299 15.4055C10.985 21.1845 9.17774 23.3749 7.03756 26.078C6.70465 26.4508 6.51441 26.8703 6.37173 27.3363C6.32417 27.4761 6.32417 27.6159 6.27661 27.7558C6.27661 27.8024 6.27661 27.849 6.27661 27.9422C6.27661 27.9888 6.27661 28.0354 6.27661 28.1286C6.27661 28.3616 6.32417 28.6412 6.41929 28.8743C6.56197 29.2937 6.75221 29.7131 7.03756 30.086C9.27286 32.9289 11.2704 35.2125 16.9299 40.7584C22.8749 46.584 25.0626 48.355 27.821 50.4522C28.2015 50.7318 28.6296 50.9648 29.1051 51.1047C29.3429 51.1513 29.5332 51.1979 29.771 51.1979C29.8185 51.1979 29.8185 51.1979 29.8661 51.1979C29.9137 51.1979 29.9137 51.1979 29.9612 51.1979C30.199 51.1979 30.4368 51.1513 30.627 51.1047C31.1026 50.9648 31.5307 50.7318 31.9112 50.4522Z" fill="#8B8F90"/>
<path d="M31.8638 49.8463C34.5747 47.7957 36.7148 46.0714 42.4695 40.4322C47.9864 35.0261 49.8888 32.8357 52.0765 30.0394C52.3619 29.6665 52.5521 29.2937 52.6948 28.8743C52.7899 28.6412 52.7899 28.4082 52.7899 28.1286C52.7899 28.082 52.7899 28.0354 52.7899 27.9422C52.7899 27.8956 52.7899 27.849 52.7899 27.7558C52.7899 27.6159 52.7424 27.4761 52.6948 27.3363C52.5997 26.9169 52.3619 26.4974 52.0765 26.1246C49.9839 23.4681 48.2242 21.3709 42.4695 15.7318C36.9526 10.3256 34.6698 8.46144 31.8638 6.31763C31.4833 6.038 31.0553 5.85158 30.6748 5.71177C30.437 5.66517 30.1992 5.61856 29.9614 5.61856C29.9138 5.61856 29.9138 5.61856 29.8663 5.61856C29.8187 5.61856 29.8187 5.61856 29.7712 5.61856C29.5334 5.61856 29.2956 5.66517 29.0578 5.71177C28.6297 5.85158 28.2017 6.038 27.8688 6.31763C25.0628 8.46144 22.7799 10.3256 17.263 15.7318C11.5083 21.3709 9.74863 23.4681 7.65602 26.1246C7.37066 26.4974 7.13286 26.9169 7.03775 27.3363C6.99019 27.4761 6.99019 27.6159 6.94263 27.7558C6.94263 27.8024 6.94263 27.849 6.94263 27.9422C6.94263 27.9888 6.94263 28.0354 6.94263 28.1286C6.94263 28.3616 6.99019 28.5946 7.03775 28.8743C7.18042 29.2937 7.37066 29.6665 7.65602 30.0394C9.84375 32.7891 11.7461 35.0261 17.263 40.4322C23.0177 46.0714 25.1579 47.7957 27.8688 49.8463C28.2493 50.126 28.6773 50.359 29.1053 50.4522C29.3431 50.4988 29.5334 50.5454 29.7712 50.5454C29.8187 50.5454 29.8187 50.5454 29.8663 50.5454C29.9138 50.5454 29.9138 50.5454 29.9614 50.5454C30.1992 50.5454 30.3894 50.4988 30.6272 50.4522C31.0553 50.3124 31.4833 50.126 31.8638 49.8463Z" fill="url(#paint0_linear_560_2614)"/>
<path d="M31.0552 41.1779C32.6722 39.9662 33.9563 38.8943 37.4282 35.4921C40.7573 32.2298 41.8988 30.9249 43.2304 29.2471C43.4207 29.0141 43.5158 28.7811 43.6109 28.5481C43.6585 28.4082 43.6585 28.2684 43.6585 28.1286C43.6585 28.082 43.6585 28.082 43.6585 28.0354C43.6585 27.9888 43.6585 27.9888 43.6585 27.9422C43.6585 27.849 43.6109 27.7558 43.6109 27.7092C43.5633 27.4295 43.4207 27.1965 43.2304 26.9635C41.9939 25.3789 40.9 24.1206 37.4282 20.7185C34.099 17.4562 32.7673 16.3377 31.0552 15.0327C30.8174 14.8463 30.5796 14.7531 30.3418 14.6599C30.1991 14.6133 30.0565 14.6133 29.9138 14.6133H29.8662H29.8187C29.676 14.6133 29.5333 14.6599 29.3906 14.6599C29.1528 14.7531 28.8675 14.8463 28.6772 15.0327C26.9651 16.291 25.6334 17.4562 22.3043 20.7185C18.8324 24.1206 17.7861 25.3789 16.502 26.9635C16.3118 27.1965 16.2167 27.4295 16.1215 27.7092C16.074 27.8024 16.074 27.8956 16.074 27.9422C16.074 27.9888 16.074 27.9888 16.074 28.0354C16.074 28.082 16.074 28.082 16.074 28.1286C16.074 28.2684 16.1215 28.4082 16.1215 28.5481C16.2167 28.7811 16.3118 29.0607 16.502 29.2471C17.7861 30.9249 18.9751 32.2298 22.3043 35.4921C25.7761 38.8943 27.0602 39.9196 28.6772 41.1779C28.915 41.3643 29.1528 41.4575 29.4382 41.5507C29.5809 41.5973 29.7235 41.5973 29.8187 41.5973H29.8662H29.9138C30.0565 41.5973 30.1991 41.5507 30.2942 41.5507C30.5796 41.4575 30.8174 41.3177 31.0552 41.1779Z" fill="#EAE9E4"/>
<path d="M43.9912 29.4801C43.5156 30.1792 36.8572 37.3097 33.1001 40.339C30.3892 42.576 30.1514 43.0887 30.1514 44.2538C30.1038 47.5161 29.5807 50.4988 30.7696 49.893C31.8635 49.2871 38.5694 43.4149 42.1839 39.8264C45.7984 36.2378 51.1251 30.4122 51.8385 29.2937C52.5519 28.1752 51.2678 28.4082 50.3166 28.4082C47.891 28.548 44.5619 28.6412 43.9912 29.4801Z" fill="white"/>
<path d="M28.3916 14.1472C27.6782 14.6132 20.4016 21.1379 17.3103 24.8196C15.0274 27.4761 14.5043 27.7091 13.3153 27.7091C9.93856 27.8023 6.89476 28.2684 7.51303 27.1499C8.13131 26.078 14.1238 19.5067 17.7859 15.9648C21.448 12.4228 27.3929 7.2031 28.5343 6.50403C29.6757 5.80496 29.4379 7.06328 29.4379 7.99538C29.3428 10.3722 29.2477 13.5879 28.3916 14.1472Z" fill="#ADA498"/>
<path d="M36.8099 34.6066C36.3343 34.094 32.054 31.4375 29.6284 32.9755C27.2029 34.5134 28.487 36.8903 28.8199 36.4242C29.2004 35.9582 29.9614 35.0727 29.9614 35.0727C29.9614 35.0727 31.5308 36.564 31.9113 36.1446C32.2918 35.7251 32.91 35.1659 32.9576 35.1193C33.0052 35.0727 34.1941 35.0261 34.1941 35.0261C34.4319 35.8183 35.5734 36.8437 35.8587 36.564C36.1441 36.2844 37.2855 35.1193 36.8099 34.6066ZM45.7511 30.2258C45.7511 30.2258 44.467 28.5014 44.9426 27.7091C45.4182 26.9169 47.0828 26.4042 47.3206 26.2644C47.5108 26.078 47.2254 25.7051 47.0352 25.5653C46.845 25.4255 44.1341 25.7518 43.9438 26.1246C43.7536 26.4974 42.5171 30.8783 42.9926 30.9715C43.4682 31.0647 44.9426 31.857 45.1804 31.8104C45.4182 31.7171 45.7511 30.2258 45.7511 30.2258ZM32.2442 11.0713C32.1015 10.8849 31.7211 10.6053 31.5308 10.7917C31.3406 10.9781 30.865 12.6559 30.0565 13.1219C29.248 13.5879 27.4883 12.3296 27.4883 12.3296C27.4883 12.3296 25.9664 12.6559 25.9188 12.9355C25.8712 13.1685 26.6798 14.6133 26.7749 15.0793C26.8224 15.5453 31.3406 14.3336 31.7211 14.1472C32.054 13.9142 32.3869 11.2577 32.2442 11.0713ZM23.0177 21.0913C22.4945 20.6252 21.3055 21.7438 21.0202 22.0234C20.7348 22.303 21.7336 23.4215 22.5896 23.6545C22.5896 23.6545 22.5421 24.7731 22.4945 24.8663C22.447 24.9129 21.8763 25.5187 21.4482 25.8916C21.0202 26.2644 22.5421 27.8024 22.5421 27.8024C22.5421 27.8024 21.6385 28.5946 21.1629 28.9209C20.6873 29.2937 23.0652 30.5054 24.6823 28.1286C26.2517 25.7051 23.5408 21.5573 23.0177 21.0913Z" fill="#175D2A"/>
<path d="M45.0376 31.7171C45.5132 31.9967 46.3217 30.6918 46.6071 29.7597C46.8924 28.8276 45.9412 29.7597 45.9888 28.1752C46.0364 26.6372 46.7498 25.7983 47.2254 26.2178C47.7009 26.5906 47.7961 24.2138 46.7498 23.7011C45.751 23.1885 45.6559 21.6039 46.0839 20.9049C46.4644 20.1592 45.751 20.3922 44.7998 19.9728C43.8486 19.5533 44.2291 18.295 44.8474 17.6425C45.1327 17.3163 44.8474 16.3842 43.2304 14.7996C41.8987 13.4947 40.7097 13.0287 40.3768 13.3083C39.6634 13.9142 38.4269 14.287 37.9988 13.3549C37.5708 12.4228 37.761 11.7237 37.0476 12.0966C36.2867 12.4694 34.7172 12.4228 34.1941 11.4441C33.6709 10.4654 31.2454 10.512 31.6259 10.9781C32.0063 11.4441 31.1978 12.1432 29.6284 12.1898C28.0589 12.2364 28.9625 11.3043 28.0113 11.5839C27.0602 11.8636 25.6809 12.6558 26.0138 13.1219C26.2992 13.5879 27.4406 13.7277 27.1077 14.4268C26.7748 15.1259 25.8236 15.6385 25.348 15.0793C24.8724 14.52 23.9688 14.5666 23.9212 15.2657C23.8737 16.0114 23.8261 16.8502 23.0176 17.2697C22.2091 17.6425 20.9725 18.6678 21.1152 19.4601C21.2579 20.2524 21.9713 19.3203 22.0188 21.0447C22.0664 22.769 21.0677 21.6971 20.9725 22.2564C20.7823 22.6758 20.6872 24.074 21.4481 24.54C22.1615 25.0061 22.3518 25.7517 21.6859 25.7517C21.0201 25.7517 20.9725 27.0567 21.6384 27.2897C22.3042 27.5693 22.2566 28.9208 21.7335 28.8742C21.2103 28.8742 21.1152 28.548 20.8774 29.1539C20.6396 29.7131 20.7347 30.319 21.0677 30.5986C21.353 30.8782 20.4969 31.0647 20.4969 31.0647C20.4969 31.0647 20.3543 32.1366 22.5896 34.2804C22.7322 34.4202 23.2078 34.8862 23.3505 35.026C25.5382 37.1699 26.6321 37.0767 26.6321 37.0767C26.6321 37.0767 26.8224 36.2378 27.1077 36.5174C27.3931 36.797 28.0113 36.8902 28.5821 36.7038C29.1528 36.4708 28.8674 36.331 28.8674 35.8649C28.8674 35.3523 30.2466 35.3057 30.4844 35.9581C30.7698 36.6106 32.1015 36.564 32.0539 35.9115C32.0539 35.2591 32.8148 35.4455 33.2904 36.1446C33.766 36.8436 35.2404 36.797 35.7635 36.6572C36.2867 36.564 35.2404 35.5853 37.0001 35.6319C38.7598 35.6785 37.8086 36.3776 38.6171 36.5174C39.4256 36.6572 40.4719 35.4455 40.8524 34.6532C41.2329 33.8609 42.1365 33.8143 42.8974 33.7677C43.6584 33.7211 43.6584 32.8356 43.0877 32.3696C42.517 31.9035 43.0401 30.9714 43.7535 30.6452C44.4193 30.2724 44.562 31.3909 45.0376 31.7171Z" fill="url(#paint1_linear_560_2614)"/>
<path d="M42.8022 33.4415C42.9924 33.4415 43.04 33.3483 43.04 33.3017C43.0876 33.1619 43.04 32.8823 42.8022 32.6958C42.5168 32.4628 42.3742 32.09 42.4693 31.7171C42.5644 31.2045 42.9924 30.6452 43.5632 30.3656C43.9436 30.1792 44.2765 30.2258 44.5619 30.5054C44.7046 30.6452 44.7997 30.8317 44.9424 31.0181C45.0375 31.1579 45.1326 31.3443 45.2277 31.4375C45.4655 31.3443 46.0362 30.5054 46.274 29.7131C46.274 29.6665 46.274 29.6199 46.3216 29.5733C46.2265 29.5267 46.0838 29.4801 45.9887 29.3403C45.7509 29.1073 45.6558 28.7344 45.6558 28.1752C45.7033 27.0101 46.0838 26.1246 46.6545 25.845C46.8448 25.7518 47.035 25.7518 47.2252 25.7984C47.2728 25.3789 47.1777 24.54 46.7972 24.1206C46.7496 24.074 46.7021 24.0274 46.6545 24.0274C46.5118 23.9342 46.3692 23.841 46.2265 23.7011C45.4655 22.9555 45.418 21.5107 45.846 20.7185C45.846 20.6718 45.8936 20.6718 45.8936 20.6252C45.846 20.5786 45.7033 20.5786 45.6082 20.532C45.3704 20.4854 45.0375 20.3922 44.7046 20.2524C44.5619 20.2058 44.4192 20.1126 44.3241 19.9728C43.6583 19.3203 43.9436 18.1086 44.657 17.3629C44.7046 17.2697 44.657 16.524 43.04 14.9861C41.7559 13.7278 40.8523 13.4481 40.662 13.4947C39.8535 14.1472 38.6645 14.4734 37.9987 13.821C37.9036 13.7278 37.8085 13.5879 37.7133 13.4481C37.5707 13.1219 37.4755 12.7957 37.428 12.5626C37.428 12.4694 37.3804 12.3762 37.3329 12.283C37.3329 12.283 37.2853 12.3296 37.2377 12.3296C36.4292 12.7491 35.0025 12.7025 34.1939 11.9568C34.0513 11.817 33.9561 11.6772 33.861 11.5373C33.8135 11.4907 33.8135 11.4441 33.7659 11.3975C33.3379 10.9781 32.4818 10.9315 32.0538 10.9781C32.1013 11.1645 32.1013 11.3509 32.0062 11.5373C31.7208 12.0966 30.8172 12.516 29.6282 12.516C29.0575 12.516 28.677 12.4228 28.4392 12.1898C28.2966 12.05 28.249 11.9568 28.2014 11.8636C28.1539 11.8636 28.1539 11.8636 28.0588 11.9102C27.2027 12.1432 26.3942 12.7025 26.2991 12.9355C26.3942 13.0287 26.5369 13.1219 26.7271 13.2151C26.9173 13.3083 27.1076 13.4481 27.2503 13.5879C27.5356 13.8676 27.5832 14.1938 27.3929 14.5666C27.1076 15.0793 26.5369 15.5453 26.0137 15.6386C25.6332 15.6852 25.2528 15.5919 25.015 15.3123C24.8247 15.0793 24.5394 15.0327 24.3967 15.0793C24.3491 15.0793 24.254 15.1259 24.254 15.3123V15.4521C24.2065 16.1512 24.1113 17.1299 23.1601 17.5959C22.3041 17.9688 21.3529 18.9009 21.448 19.4135C21.448 19.5067 21.4956 19.5067 21.4956 19.5067C21.4956 19.5067 21.5431 19.5067 21.5907 19.5067C21.6858 19.5533 21.876 19.5999 22.0187 19.7398C22.2565 19.9728 22.3516 20.3456 22.3992 21.0447C22.3992 21.6505 22.3041 22.0234 22.0663 22.2564C21.8285 22.4894 21.4956 22.4428 21.3053 22.4428C21.2102 23.0487 21.2578 23.9808 21.6382 24.307C21.6858 24.3536 21.6858 24.3536 21.7334 24.4002C21.876 24.4934 21.9712 24.5866 22.1138 24.6798C22.4943 25.0527 22.637 25.5187 22.4943 25.845C22.4468 25.9848 22.2565 26.2644 21.7809 26.2178C21.7809 26.2178 21.7334 26.2178 21.6858 26.311C21.5907 26.4974 21.6382 26.8703 21.7809 27.0101C21.8285 27.0567 21.8285 27.0567 21.876 27.0567C22.0187 27.1033 22.1138 27.1965 22.209 27.2897C22.637 27.7091 22.6846 28.4548 22.4943 28.8743C22.3516 29.1539 22.1138 29.3403 21.8285 29.3403C21.6382 29.3403 21.4956 29.2937 21.4004 29.2937H21.3529C21.3529 29.3403 21.3053 29.3403 21.3053 29.4335C21.1151 29.8996 21.2102 30.319 21.4004 30.5054C21.5431 30.6452 21.5907 30.8317 21.5431 31.0181C21.448 31.2511 21.2102 31.3909 20.9724 31.4841C21.0675 31.857 21.448 32.789 22.9224 34.1872L23.6833 34.9329C25.1101 36.3776 26.0613 36.7504 26.4418 36.8436C26.5369 36.564 26.6795 36.331 26.9173 36.2844C27.1076 36.2378 27.2978 36.2844 27.4405 36.4242C27.6307 36.6106 28.0588 36.7038 28.5344 36.5174C28.5819 36.5174 28.6295 36.4708 28.677 36.4708V36.4242C28.6295 36.331 28.6295 36.1912 28.6295 36.0048C28.6295 35.7251 28.7722 35.4921 29.1051 35.3523C29.5807 35.1659 30.2941 35.2125 30.7221 35.6319C30.8172 35.7251 30.9123 35.8183 30.9599 35.9582C30.9599 36.0048 31.0075 36.0048 31.0075 36.0514C31.1977 36.2378 31.5306 36.2378 31.7208 36.1446C31.816 36.098 31.816 36.0514 31.816 36.0514C31.816 35.5853 32.1013 35.3989 32.1964 35.3523C32.5294 35.2125 33.005 35.3523 33.3854 35.7251C33.4805 35.8183 33.5757 35.9582 33.6708 36.098C33.6708 36.1446 33.7183 36.1446 33.7659 36.1912C34.1464 36.564 35.0976 36.6106 35.6683 36.5174C35.6683 36.331 35.6207 36.0514 35.8585 35.7717C36.0963 35.5387 36.4768 35.4455 37.0951 35.4455C37.7609 35.4455 38.1889 35.5853 38.4267 35.8183C38.5694 35.9582 38.617 36.098 38.6645 36.2378C38.6645 36.2844 38.6645 36.2844 38.7121 36.331C38.7121 36.331 38.7596 36.331 38.8072 36.3776C39.3304 36.4708 40.2816 35.5387 40.662 34.6998C41.1376 33.7677 42.1364 33.6745 42.8498 33.6279L42.8022 33.4415Z" fill="url(#paint2_radial_560_2614)"/>
<path d="M45.9412 26.2644C45.9412 26.2644 45.2754 27.6159 45.5132 28.4082C45.7034 29.0141 44.1815 27.8023 42.8023 27.2897C41.4706 26.8236 40.0439 26.4042 41.4231 26.311C42.8023 26.2178 44.2291 26.2178 44.8474 26.2178C45.5132 26.2644 46.1315 25.9848 45.9412 26.2644Z" fill="#87BD24"/>
<path d="M43.5158 30.2258C43.5158 30.2258 42.5171 30.5986 42.3744 31.5307C42.2793 32.1832 41.9463 31.5773 39.7586 30.2724C38.5696 29.5733 37.6184 28.9208 38.9977 29.1073C40.1866 29.2471 41.5659 29.4335 42.1841 29.5733C43.2304 29.8063 43.8012 30.0394 43.5158 30.2258Z" fill="#93C12B"/>
<path d="M37.5231 35.2125C37.0951 35.0727 36.3817 35.0727 36.1439 35.2591C35.9061 35.3989 35.9061 35.4921 35.4305 34.4202C34.9549 33.3483 33.3379 31.4375 34.622 32.2298C35.9061 33.0221 37.1427 34.2804 37.5231 34.6998C37.9036 35.1193 38.1414 35.3989 37.5231 35.2125Z" fill="#99C32B"/>
<path d="M29.9137 33.3017C30.1515 34.0007 30.2466 34.7464 30.2942 34.9794C30.3418 35.2125 30.0564 34.9328 29.5808 34.9794C29.1052 35.026 28.7247 35.3057 28.8198 34.7464C28.915 34.1872 28.8674 30.1792 29.9137 33.3017Z" fill="#9FC52F"/>
<path d="M45.4183 22.5826C45.6085 23.4215 45.989 23.5613 45.6561 23.6545C45.2756 23.7477 43.4208 24.0739 41.9464 24.4468C40.5197 24.8196 37.9039 25.7517 40.1867 24.2137C42.4696 22.6758 44.5147 21.7903 44.8951 21.6505C45.2756 21.4641 45.228 21.7903 45.4183 22.5826Z" fill="#93C12B"/>
<path d="M43.8011 19.0407C43.8011 19.4135 43.8962 19.7398 44.0389 19.9262C44.1816 20.1126 44.134 20.2524 43.6584 20.3922C43.1828 20.532 41.4707 21.2777 40.6146 21.6039C39.711 21.9768 38.1415 23.0953 39.5683 21.7438C40.9475 20.3922 43.3255 18.7611 43.5633 18.6678C43.8011 18.528 43.8011 18.7145 43.8011 19.0407Z" fill="#93C12B"/>
<path d="M31.5783 12.1898C31.5783 12.1898 30.1991 12.8422 29.343 12.6092C28.7247 12.4228 29.9613 13.9141 30.4844 15.2657C31.0076 16.5706 31.3881 17.9687 31.4832 16.6172C31.5783 15.2657 31.5783 13.8675 31.5783 13.2617C31.6259 12.6092 31.8637 12.05 31.5783 12.1898Z" fill="#87BD24"/>
<path d="M27.5835 14.5666C27.5835 14.5666 27.203 15.5453 26.2518 15.6851C25.586 15.7783 26.2042 16.1045 27.5359 18.2484C28.2493 19.4135 28.9151 20.3456 28.7249 18.994C28.5822 17.8289 28.392 16.4774 28.2493 15.8715C28.0115 14.8928 27.7261 14.287 27.5835 14.5666Z" fill="#93C12B"/>
<path d="M22.4944 20.4854C22.6371 20.9049 22.6371 21.6039 22.4944 21.837C22.3517 22.07 22.2566 22.07 23.3505 22.536C24.4444 23.0021 26.3943 24.5866 25.5858 23.3283C24.7773 22.07 23.4932 20.8583 23.0651 20.4854C22.542 20.066 22.2566 19.8796 22.4944 20.4854Z" fill="#99C32B"/>
<path d="M24.3967 27.8955C23.6833 27.6625 22.9224 27.5693 22.6846 27.5227C22.4468 27.4761 22.7321 27.7557 22.6846 28.2218C22.637 28.6878 22.3517 29.0606 22.9224 28.9674C23.5406 28.9208 27.5832 28.9208 24.3967 27.8955Z" fill="#9FC52F"/>
<path d="M35.3832 12.749C34.5271 12.5626 34.3844 12.1898 34.2893 12.516C34.1942 12.8422 33.8613 14.7064 33.4808 16.1045C33.1003 17.5027 32.1491 20.0659 33.7186 17.8289C35.288 15.5919 36.1917 13.5879 36.3343 13.2151C36.477 12.8422 36.1441 12.9354 35.3832 12.749Z" fill="#93C12B"/>
<path d="M38.95 14.3336C38.5696 14.3336 38.2366 14.2404 38.0464 14.1006C37.8562 13.9608 37.7135 14.0074 37.5708 14.4734C37.4281 14.9395 36.6672 16.6172 36.3343 17.4561C36.0013 18.295 34.8124 19.8329 36.2391 18.4814C37.6184 17.1299 39.2829 14.7996 39.3781 14.5666C39.4732 14.287 39.2829 14.3336 38.95 14.3336Z" fill="#93C12B"/>
<path d="M39.0927 33.022C38.9976 32.4162 38.094 31.6239 37.4757 31.1113C36.8574 30.6452 38.3317 30.552 39.5683 30.9714C40.8048 31.3909 40.9 31.1579 39.9012 30.8316C38.9025 30.4588 37.6184 30.4588 37.0476 30.4588C36.4294 30.4588 35.8111 30.086 34.6697 29.7131C33.5758 29.3403 31.1503 29.1539 31.721 28.781C32.2917 28.4082 34.0514 27.5693 36.1916 27.9421C38.3317 28.315 39.1878 28.8276 40.2341 28.8742C41.2804 28.9208 42.7072 29.3403 42.0889 29.014C41.4707 28.6878 40.4244 28.5946 39.8536 28.548C39.2829 28.5014 38.0464 28.2684 38.2366 27.9887C38.3793 27.7557 39.6159 27.3363 40.6622 27.3363C41.7085 27.3363 41.8987 27.1499 40.6622 27.1033C39.3781 27.0567 38.7122 27.4295 38.1891 27.6159C37.6659 27.8023 37.4757 27.7557 36.6196 27.6159C35.7635 27.4295 33.5282 27.5227 33.9087 27.2431C34.2892 26.9634 35.4306 26.4508 36.5245 26.2644C37.6184 26.078 39.4256 25.7983 38.4269 25.7983C37.4281 25.7983 36.2867 25.9381 35.4306 26.1246C34.527 26.311 34.4794 26.1712 35.5733 25.2391C36.7147 24.307 38.1891 24.074 39.1878 23.9341C40.1866 23.7943 40.6622 23.4215 41.5182 22.7224C42.3267 22.0234 42.2316 21.8835 41.4707 22.4894C40.7573 23.0953 39.9963 23.5147 39.1878 23.7011C38.3793 23.8409 37.8086 23.8409 38.1891 23.0953C38.5695 22.3496 39.0927 21.6039 39.5683 21.1379C40.0914 20.6718 39.3305 21.0447 38.8073 21.6505C38.2842 22.2564 37.9037 23.1885 37.6184 23.5613C37.3806 23.9341 36.6196 24.074 35.8111 24.5866C34.955 25.0993 34.8599 24.7264 35.3831 24.2138C35.9062 23.7011 36.6672 22.6758 37.5708 22.07C38.4744 21.4641 38.8073 20.9981 39.2354 20.1592C39.6634 19.3203 40.7573 19.0407 41.6609 18.7144C42.5645 18.3882 41.9938 18.4348 41.4231 18.6212C40.8524 18.8076 40.0914 18.9941 40.6622 18.295C41.2329 17.5493 41.2804 17.2697 40.8048 17.9221C40.3292 18.528 40.0914 18.9008 39.711 19.2271C39.3305 19.5533 38.95 19.9728 38.7122 20.5786C38.4744 21.1845 37.7135 21.4641 37.0476 22.07C36.3818 22.6758 35.0977 23.9807 34.8599 23.8875C34.8123 23.8875 34.7648 23.8409 34.7172 23.8409C34.6697 23.7477 34.6697 23.6545 34.7648 23.5147C35.0026 23.2351 36.4294 21.6505 37.0476 21.0447C37.6659 20.4388 37.2854 20.532 36.905 20.9514C36.5245 21.3243 34.7648 23.0953 34.527 23.2817C34.3368 23.4215 34.1941 23.4215 34.1465 23.3283C34.1465 23.2351 34.099 23.1885 34.099 23.0953C34.0514 22.8622 35.3355 21.6039 35.9538 20.9514C36.572 20.299 36.8574 19.5067 37.4757 19.3203C38.094 19.0873 38.522 18.7144 38.8549 18.3416C39.1878 17.9688 39.5683 17.7357 40.1866 17.2697C40.8048 16.8036 40.5195 16.8502 39.8061 17.4095C39.0451 17.9688 39.2829 17.2231 39.4732 16.6638C39.6634 16.1046 39.7585 15.5453 39.3781 16.4308C39.0451 17.3163 38.7122 18.3882 37.9037 18.8076C37.0476 19.2271 36.572 19.5533 35.9538 20.4388C35.3355 21.3243 34.2892 22.07 33.766 22.5826C33.2429 23.0953 32.8624 23.0021 33.3856 22.1632C33.9087 21.3243 34.0038 20.6252 34.4319 20.3922C34.8123 20.1592 35.7635 19.7863 36.3818 19.2271C37.0001 18.7144 37.3806 17.9688 36.905 18.4814C36.4294 18.9941 35.6684 19.5067 34.9075 19.8329C34.1465 20.2058 34.1465 19.6465 34.2892 18.8542C34.4319 18.062 34.8599 17.3163 35.5257 16.6172C36.144 15.9182 36.0013 15.7783 35.2879 16.5706C34.5746 17.3629 34.1941 17.8755 34.0514 18.8542C33.9087 19.8329 33.6709 21.2777 32.7197 22.3962C31.7685 23.5147 31.6259 23.4215 31.8161 22.536C32.0063 21.6505 32.1966 20.5786 32.149 19.5999C32.149 18.6212 31.8637 20.3922 31.6734 21.4641C31.4832 22.536 30.96 23.7011 30.6747 24.0274C30.3893 24.4002 30.4844 22.1632 30.2942 21.3709C30.104 20.532 30.0564 20.3456 30.2942 19.8329C30.4844 19.3203 30.9125 18.6678 30.8174 17.4095C30.7698 16.1512 30.5796 16.3842 30.5796 17.3629C30.5796 18.3882 30.1515 19.5533 29.9137 19.6931C29.6759 19.8329 29.3906 18.6212 29.343 18.1086C29.2955 17.5493 29.2003 16.524 28.8674 15.9182C28.5345 15.3123 28.9625 16.7104 29.0101 17.7357C29.0101 18.761 29.5332 19.6465 29.9613 21.6971C30.3418 23.7943 29.4857 25.5187 29.1052 26.078C28.7247 26.6372 28.5821 24.2604 28.154 23.1885C27.7735 22.1166 27.3931 21.4641 27.3931 20.8582C27.3931 20.2524 27.3931 18.9941 27.0126 18.062C26.6321 17.0833 26.4419 17.1765 26.8699 18.3882C27.298 19.5999 27.2028 21.0447 26.7272 20.4388C26.2516 19.8329 25.4431 18.9941 24.7773 18.8542C24.159 18.761 25.3956 18.9008 26.7748 21.0913C28.154 23.2817 28.6296 26.1712 28.0113 27.1965C27.3931 28.1752 27.2504 27.6625 27.1553 26.7304C27.0602 25.8449 26.2516 24.6798 25.4907 24.2138C24.7297 23.7477 25.6334 24.54 26.3468 25.6585C27.0602 26.7304 26.9175 28.315 25.9187 29.4335C25.1102 30.319 22.542 31.9035 21.5908 32.5094C21.8762 32.9288 22.3042 33.4881 22.97 34.1406L23.731 34.8862C24.3493 35.4921 24.8724 35.9115 25.348 36.1912C25.9187 35.2591 27.5358 32.7424 28.4869 31.9501C29.6284 30.9714 31.2454 30.8316 32.3393 31.5307C33.4331 32.2298 34.2416 33.1152 33.8136 32.3696C33.338 31.6239 32.149 30.8316 31.2454 30.7384C30.3418 30.6452 29.771 30.5054 30.7698 29.8995C31.7685 29.2937 34.7172 29.7597 37.0001 31.1113C39.0451 32.4628 39.1878 33.6745 39.0927 33.022Z" fill="url(#paint3_radial_560_2614)"/>
<path d="M24.2542 35.4921C25.1103 34.3736 25.9663 33.2085 28.8675 30.2724C32.2917 26.7771 29.0101 29.5267 27.8211 30.6918C26.6322 31.857 27.1553 31.0181 29.6284 28.4548C31.0552 26.9635 32.1015 26.0314 31.9588 25.845C31.7686 25.6585 31.2454 26.311 29.3906 27.9888C26.7748 30.3656 25.8236 31.0181 27.0126 29.853C28.2016 28.6878 30.9125 25.5653 27.4407 28.8277C24.492 31.5773 23.303 32.4628 22.114 33.3483C22.3043 33.5813 22.542 33.861 22.8274 34.094L23.5884 34.8397C23.7786 35.0727 24.064 35.3057 24.2542 35.4921Z" fill="#BAD25B"/>
<path d="M20.0687 25.1925C20.7345 25.4721 25.7282 26.1712 27.2501 23.7943C28.8196 21.4175 26.6794 19.7863 26.5367 20.3456C26.3941 20.9049 26.0612 22.0234 26.0612 22.0234C26.0612 22.0234 24.0161 21.3243 23.8259 21.8369C23.6356 22.3496 23.3503 23.0953 23.3027 23.1885C23.2551 23.2351 22.2564 23.7943 22.2564 23.7943C21.7332 23.1419 20.2589 22.7224 20.1162 23.0953C19.9735 23.3749 19.4504 24.8662 20.0687 25.1925ZM13.7433 32.789C13.7433 32.789 15.6456 33.8609 15.503 34.7464C15.4078 35.6785 14.0762 36.797 13.9811 37.0301C13.8859 37.2631 14.314 37.4961 14.5518 37.5427C14.7896 37.5893 17.12 36.1912 17.1675 35.8183C17.2151 35.3989 16.4541 30.8782 16.0261 31.0181C15.5505 31.1579 13.8859 31.0181 13.6957 31.1579C13.4579 31.2977 13.7433 32.789 13.7433 32.789ZM34.0987 44.813C34.2889 44.9528 34.7645 45.046 34.8596 44.7664C34.9548 44.4868 34.717 42.809 35.2401 42.0633C35.7633 41.3177 37.9035 41.7371 37.9035 41.7371C37.9035 41.7371 39.14 40.805 39.0924 40.572C39.0449 40.339 37.7132 39.3603 37.4279 38.9874C37.1901 38.6146 33.5755 41.5041 33.3377 41.8303C33.0999 42.1566 33.9085 44.6732 34.0987 44.813ZM38.3315 31.9501C38.9973 32.1366 39.6156 30.6918 39.7583 30.319C39.9009 29.9461 38.4742 29.3403 37.6657 29.4801C37.6657 29.4801 37.2376 28.4082 37.2852 28.3616C37.3327 28.315 37.5705 27.5227 37.8083 27.0101C38.0461 26.4974 36.0011 25.7051 36.0011 25.7051C36.0011 25.7051 36.4767 24.6332 36.762 24.1206C37.0474 23.6079 34.3365 23.4215 33.9085 26.2178C33.4329 29.0141 37.6181 31.7171 38.3315 31.9501Z" fill="#175D2A"/>
<path d="M13.7909 31.1113C13.2202 31.0181 13.0299 32.556 13.1726 33.5347C13.3153 34.5134 13.7909 33.3017 14.4091 34.6998C15.0274 36.1446 14.6945 37.1699 14.1238 36.9834C13.5531 36.8436 14.4567 39.034 15.5981 39.0806C16.7396 39.1273 17.4529 40.5254 17.4054 41.3643C17.3578 42.2032 17.9285 41.6905 18.9749 41.6905C20.0212 41.7371 20.1638 42.9954 19.926 43.8343C19.7834 44.2538 20.4492 44.9994 22.5894 45.7917C24.3966 46.4442 25.6332 46.3976 25.8234 46.0247C26.2039 45.1859 27.2026 44.347 27.9636 44.9994C28.7721 45.6519 28.8672 46.3976 29.3904 45.7451C29.9135 45.0926 31.3879 44.4868 32.2915 45.1859C33.1951 45.8849 35.3829 44.813 34.8121 44.58C34.2414 44.3004 34.717 43.3217 36.1438 42.6692C37.5706 42.0167 37.095 43.2285 37.8559 42.576C38.6169 41.9701 39.5205 40.6652 39.0449 40.3856C38.5693 40.106 37.4755 40.3856 37.523 39.6399C37.5706 38.8942 38.1889 38.0087 38.8547 38.335C39.5205 38.6612 40.329 38.2884 40.0437 37.5893C39.8059 36.8902 39.4254 36.098 40.0437 35.3989C40.6144 34.6998 41.3278 33.3017 40.8522 32.6492C40.3766 31.9968 40.1388 33.1153 39.3778 31.5773C38.6169 30.0394 39.9486 30.5986 39.8534 30.0394C39.7108 29.5267 39.1876 28.1752 38.3315 28.0354C37.4755 27.8955 36.9999 27.2897 37.6182 27.0567C38.2364 26.8236 37.7133 25.6119 36.9999 25.6119C36.2865 25.6585 35.7633 24.4002 36.2389 24.1672C36.7145 23.9808 36.9523 24.1672 36.9048 23.5613C36.8572 22.9555 36.5243 22.4428 36.1438 22.303C35.7633 22.1632 36.4767 21.6505 36.4767 21.6505C36.4767 21.6505 36.1438 20.6252 33.2427 19.5533C33.0524 19.5067 32.4342 19.2737 32.2439 19.1805C29.3428 18.1086 28.3916 18.6678 28.3916 18.6678C28.3916 18.6678 28.5819 19.5067 28.2014 19.3669C27.8209 19.2271 27.2026 19.3669 26.7746 19.7863C26.3466 20.2058 26.6795 20.2058 26.8697 20.6718C27.1075 21.1379 25.871 21.7437 25.3478 21.2311C24.8247 20.7184 23.6357 21.3243 23.921 21.8835C24.2064 22.4894 23.4454 22.6292 22.6845 22.1632C21.9235 21.6971 20.6394 22.3496 20.2114 22.6758C19.7834 23.0021 21.1626 23.4681 19.5456 24.1206C17.9285 24.773 18.4993 23.7943 17.6907 23.9808C16.8822 24.1672 16.4542 25.7051 16.4066 26.5906C16.4066 27.4761 15.5981 27.8489 14.9323 28.2218C14.2665 28.5946 14.5994 29.3869 15.3128 29.5733C16.0262 29.7597 15.931 30.8316 15.4555 31.4375C14.9799 32.1832 14.3616 31.2045 13.7909 31.1113Z" fill="url(#paint4_linear_560_2614)"/>
<path d="M15.1224 28.6878C14.9797 28.781 14.9321 28.8742 14.9321 28.9208C14.9321 29.0607 15.1224 29.2937 15.4077 29.3869C15.7882 29.4801 16.026 29.7597 16.1211 30.1326C16.2638 30.6452 16.0735 31.3443 15.6931 31.8103C15.4553 32.1366 15.0748 32.2298 14.6943 32.09C14.5041 31.9967 14.3138 31.9035 14.1236 31.7637C13.9809 31.6705 13.7907 31.5307 13.6956 31.5307C13.5053 31.7171 13.3151 32.6958 13.4578 33.5347C13.4578 33.5813 13.4578 33.6279 13.5053 33.6745C13.6005 33.6745 13.7431 33.6745 13.9334 33.7211C14.2187 33.8143 14.5041 34.1406 14.6943 34.6532C15.1699 35.7251 15.1699 36.7038 14.7419 37.1699C14.5992 37.3097 14.4565 37.4029 14.2663 37.4495C14.3614 37.8223 14.837 38.6146 15.3602 38.801C15.4077 38.8476 15.5028 38.8476 15.5504 38.8476C15.7406 38.8476 15.9309 38.8942 16.0735 38.9408C17.0723 39.3137 17.7381 40.572 17.6906 41.5041C17.6906 41.5507 17.6906 41.5973 17.6906 41.5973C17.7857 41.5973 17.8808 41.5507 17.9759 41.5507C18.2137 41.5041 18.5466 41.4575 18.9271 41.4575C19.0698 41.4575 19.26 41.5041 19.4027 41.5507C20.3063 41.8769 20.4966 43.0886 20.2112 44.0673C20.2112 44.1605 20.5917 44.813 22.6843 45.6053C24.3964 46.2578 25.3001 46.1179 25.4428 46.0247C25.8708 45.0926 26.8695 44.347 27.7256 44.6732C27.8683 44.7198 28.011 44.813 28.1536 44.9062C28.439 45.1392 28.6292 45.3723 28.8195 45.6053C28.867 45.6519 28.9622 45.7451 29.0097 45.8383C29.0097 45.8383 29.0573 45.7917 29.0573 45.7451C29.628 45.046 30.9597 44.4868 31.9584 44.8596C32.1486 44.9062 32.2913 44.9994 32.434 45.1392C32.4816 45.1858 32.5291 45.1859 32.6242 45.2325C33.1474 45.4189 34.0035 45.1392 34.3839 44.9062C34.2413 44.7664 34.1937 44.58 34.1937 44.3936C34.1937 43.7411 34.9071 43.042 35.9534 42.5294C36.4765 42.2964 36.857 42.2498 37.1424 42.343C37.2851 42.3896 37.4277 42.4828 37.4753 42.576C37.5229 42.576 37.5229 42.5294 37.5704 42.4828C38.2362 41.9235 38.7594 41.0846 38.7594 40.805C38.6643 40.7584 38.474 40.7118 38.2838 40.7118C38.0936 40.7118 37.8558 40.6652 37.6655 40.572C37.2851 40.4322 37.0948 40.1525 37.0948 39.7331C37.1424 39.1272 37.4753 38.5214 37.9033 38.2418C38.2362 38.0087 38.6167 38.0087 38.9496 38.1486C39.235 38.2884 39.5204 38.2418 39.6155 38.1019C39.663 38.0553 39.7106 37.9621 39.663 37.8223L39.6155 37.6825C39.3777 37.03 39.0448 36.0979 39.7106 35.3057C40.3289 34.6066 40.8045 33.3949 40.5191 32.9754C40.4715 32.9288 40.424 32.8822 40.424 32.8822C40.424 32.8822 40.3764 32.8822 40.3289 32.8822C40.2337 32.8822 40.0435 32.9288 39.8533 32.8356C39.5204 32.7424 39.2826 32.4162 38.9972 31.8103C38.7118 31.2511 38.6643 30.8782 38.7594 30.5986C38.9021 30.2724 39.1874 30.1792 39.3777 30.1326C39.235 29.5733 38.807 28.7344 38.2838 28.548C38.2362 28.548 38.1887 28.5014 38.1887 28.5014C38.046 28.4548 37.8558 28.4548 37.7131 28.3616C37.1899 28.1752 36.857 27.8489 36.857 27.4761C36.857 27.3363 36.9046 27.01 37.3326 26.8236C37.3326 26.8236 37.3802 26.777 37.3802 26.6838C37.3802 26.4508 37.1899 26.1712 36.9521 26.078C36.9046 26.078 36.857 26.078 36.8095 26.078C36.6668 26.078 36.5241 26.078 36.429 26.0314C35.8583 25.8449 35.5254 25.1925 35.5254 24.6798C35.5254 24.3536 35.668 24.1206 35.9058 23.9807C36.0961 23.9341 36.2388 23.8875 36.3339 23.8875H36.3814C36.3814 23.8409 36.3814 23.7943 36.3814 23.7477C36.3814 23.2351 36.0961 22.9088 35.8583 22.8156C35.668 22.7224 35.5254 22.5826 35.5254 22.3962C35.4778 22.1632 35.668 21.9301 35.8583 21.7437C35.6205 21.4175 34.8595 20.765 32.9571 20.066L31.9584 19.6931C30.056 18.9941 29.0573 18.9941 28.6292 19.0873C28.6292 19.3669 28.6292 19.6465 28.439 19.7863C28.2963 19.9261 28.1061 19.9261 27.9158 19.8795C27.678 19.7863 27.25 19.8795 26.8695 20.2524C26.822 20.299 26.822 20.3456 26.7744 20.3456C26.7744 20.3456 26.7744 20.3456 26.822 20.3922C26.8695 20.4854 26.9647 20.5786 27.0598 20.765C27.2025 20.9981 27.1073 21.2777 26.9171 21.5573C26.5842 21.9301 25.8708 22.1632 25.3001 21.9767C25.1574 21.9301 25.0623 21.8835 24.9672 21.7903C24.9196 21.7437 24.9196 21.7437 24.872 21.7437C24.6342 21.6505 24.3013 21.7903 24.1586 21.9301C24.0635 22.0234 24.1111 22.07 24.1111 22.07C24.3489 22.4894 24.1587 22.769 24.0635 22.8622C23.8257 23.1419 23.3501 23.1885 22.827 23.0021C22.6843 22.9554 22.5416 22.8622 22.399 22.8156C22.3514 22.8156 22.3514 22.769 22.3038 22.769C21.8282 22.5826 20.9246 22.9554 20.4015 23.2817C20.4966 23.4215 20.6393 23.7011 20.5441 24.0274C20.449 24.3536 20.1161 24.5866 19.5454 24.8196C18.9271 25.0993 18.4991 25.1459 18.2137 25.006C18.0235 24.9128 17.9284 24.8196 17.8332 24.7264L17.7857 24.6798C17.7857 24.6798 17.7381 24.6798 17.6906 24.6798C17.1674 24.8196 16.7394 26.0314 16.6918 26.9634C16.6918 27.9887 15.7882 28.4548 15.1699 28.8276L15.1224 28.6878Z" fill="url(#paint5_radial_560_2614)"/>
<path d="M15.2178 36.4242C15.2178 36.4242 15.2653 34.8862 14.6946 34.2804C14.2666 33.8143 16.1689 34.2804 17.6433 34.1872C19.0701 34.094 20.5444 33.9075 19.3079 34.56C18.0713 35.2125 16.7872 35.7717 16.2165 36.0047C15.6458 36.2844 15.2178 36.7504 15.2178 36.4242Z" fill="#87BD24"/>
<path d="M15.7886 31.8569C15.7886 31.8569 16.5495 31.1112 16.2642 30.2257C16.0739 29.6199 16.6446 30.0393 19.1653 30.3189C20.5445 30.5054 21.6859 30.6918 20.3543 31.0646C19.2128 31.3908 17.8812 31.8103 17.2629 31.9035C16.2642 32.1365 15.5983 32.1365 15.7886 31.8569Z" fill="#93C12B"/>
<path d="M19.1653 24.9129C19.5933 24.8663 20.2591 24.5866 20.4018 24.3536C20.592 24.1206 20.4969 24.074 21.4005 24.8197C22.3042 25.6119 24.5395 26.7304 23.0651 26.4974C21.5432 26.2644 19.8786 25.6585 19.3555 25.3789C18.8323 25.1459 18.547 24.9595 19.1653 24.9129Z" fill="#99C32B"/>
<path d="M26.9174 23.5613C26.3943 23.0487 26.0138 22.3962 25.8711 22.2098C25.7284 22.0234 26.1089 22.1632 26.5369 21.8835C26.965 21.6039 27.1552 21.2311 27.3454 21.7903C27.4881 22.3962 29.1527 25.9848 26.9174 23.5613Z" fill="#9FC52F"/>
<path d="M17.3104 39.5933C16.7872 38.9408 16.3592 38.8942 16.6446 38.7078C16.9299 38.4748 18.4994 37.4495 19.6408 36.5174C20.7822 35.5853 22.7797 33.6745 21.3529 36.0048C19.9262 38.335 18.4518 39.9195 18.1665 40.2458C17.8811 40.572 17.786 40.2458 17.3104 39.5933Z" fill="#93C12B"/>
<path d="M20.2588 42.1566C20.1161 41.8304 19.8783 41.5507 19.6405 41.4575C19.4503 41.3643 19.4027 41.2245 19.7832 40.8517C20.1637 40.5254 21.4002 39.1739 22.0661 38.5214C22.7319 37.869 23.6831 36.1912 22.9697 38.0088C22.2563 39.8264 20.8295 42.2032 20.6393 42.4362C20.4015 42.6226 20.4015 42.4362 20.2588 42.1566Z" fill="#93C12B"/>
<path d="M34.2414 43.5081C34.2414 43.5081 35.2402 42.343 36.0962 42.2498C36.7621 42.2032 35.0024 41.3177 33.9561 40.2924C32.9573 39.3137 31.9586 38.1952 32.4817 39.4535C32.9573 40.7584 33.528 41.9701 33.8134 42.576C34.0512 43.0887 34.0512 43.7411 34.2414 43.5081Z" fill="#87BD24"/>
<path d="M36.9046 39.6865C36.9046 39.6865 36.8571 38.6612 37.6656 38.1486C38.2363 37.8223 37.5229 37.7757 35.4303 36.331C34.2413 35.5387 33.2901 34.9795 34.051 36.1446C34.6693 37.1233 35.4303 38.2884 35.8107 38.801C36.3815 39.5933 36.8571 40.0128 36.9046 39.6865Z" fill="#93C12B"/>
<path d="M39.0449 32.2764C38.7596 31.9501 38.4742 31.3443 38.5218 31.018C38.5694 30.7384 38.6169 30.7384 37.4279 30.7384C36.2389 30.7384 33.7658 30.1326 35.05 30.9248C36.3341 31.7637 37.9986 32.3696 38.5693 32.5094C39.1401 32.6492 39.5205 32.7424 39.0449 32.2764Z" fill="#99C32B"/>
<path d="M34.1939 26.2644C34.9073 26.1711 35.6682 25.9847 35.906 25.9381C36.1438 25.8915 35.7633 25.7517 35.6207 25.2857C35.478 24.8196 35.5731 24.4002 35.0499 24.6798C34.5743 25.006 30.8647 26.6372 34.1939 26.2644Z" fill="#9FC52F"/>
<path d="M30.5794 44.5334C31.4355 44.347 31.7208 44.6266 31.6733 44.3004C31.6257 43.9275 31.1501 42.1566 30.9123 40.7118C30.6745 39.2671 30.4843 36.564 30.0087 39.2205C29.5331 41.8769 29.5331 44.0674 29.5331 44.4868C29.4855 44.8596 29.7709 44.6732 30.5794 44.5334Z" fill="#93C12B"/>
<path d="M26.6318 44.5334C26.9648 44.3936 27.3452 44.347 27.5355 44.3936C27.7733 44.4402 27.8684 44.347 27.8208 43.8809C27.7733 43.3683 27.7733 41.5507 27.7257 40.6652C27.6781 39.7331 28.1062 37.8689 27.3928 39.6865C26.6794 41.5041 26.1562 44.2538 26.1562 44.5334C26.1563 44.7664 26.2989 44.6732 26.6318 44.5334Z" fill="#93C12B"/>
<path d="M18.6895 27.5227C19.07 28.0354 20.1639 28.4082 20.9724 28.5946C21.7333 28.781 20.4492 29.4335 19.1176 29.5733C17.7859 29.7131 17.8335 29.8996 18.8798 29.8529C19.9261 29.8063 21.1151 29.2937 21.6382 29.0607C22.2089 28.8276 22.9223 28.8742 24.1113 28.781C25.2527 28.6878 27.5356 27.8489 27.1551 28.4082C26.7747 28.9675 25.5381 30.4588 23.4455 30.9715C21.3529 31.4841 20.3066 31.3909 19.3554 31.7637C18.4042 32.1832 16.9298 32.323 17.5957 32.3696C18.2615 32.4162 19.3078 32.09 19.831 31.9035C20.3541 31.7171 21.5907 31.4375 21.5431 31.7637C21.4956 32.0434 20.5444 32.9289 19.6407 33.3483C18.6895 33.7677 18.5469 34.0008 19.7834 33.5813C20.9724 33.1153 21.448 32.5094 21.8285 32.09C22.2089 31.6705 22.3992 31.6705 23.2553 31.4841C24.1113 31.2977 26.1088 30.319 25.9186 30.7384C25.6808 31.1579 24.8247 32.0434 23.9211 32.6958C23.0175 33.3017 21.4956 34.2804 22.3992 33.9075C23.3028 33.5347 24.254 32.9289 25.015 32.3696C25.7283 31.8569 25.871 31.9502 25.2527 33.2551C24.6345 34.56 23.3504 35.3989 22.4943 35.9115C21.6382 36.4242 21.3529 36.9835 20.8773 37.9621C20.4492 38.9408 20.5919 38.9874 20.9724 38.1486C21.3529 37.3097 21.876 36.6106 22.5419 36.1446C23.2077 35.6785 23.7308 35.4921 23.6833 36.2844C23.6357 37.1233 23.493 38.0088 23.2553 38.6612C22.9699 39.2671 23.493 38.6612 23.7308 37.8689C23.9686 37.0767 23.9211 36.098 24.0162 35.6785C24.0638 35.2125 24.682 34.8396 25.2527 34.0474C25.8235 33.2551 26.0613 33.5347 25.8235 34.2338C25.5857 34.8862 25.3003 36.1912 24.7296 37.0767C24.1589 37.9621 24.0638 38.568 24.0162 39.4535C23.9686 40.3856 23.1126 41.0847 22.3992 41.7837C21.6858 42.4828 22.2089 42.2032 22.637 41.7837C23.065 41.3643 23.6833 40.8982 23.4455 41.7837C23.2077 42.6692 23.3028 42.9488 23.493 42.2032C23.6357 41.4575 23.7308 41.0381 23.9686 40.572C24.1589 40.106 24.3491 39.5933 24.3016 38.9408C24.254 38.2884 24.8247 37.6825 25.2052 36.8902C25.5857 36.098 26.2039 34.3736 26.4417 34.327C26.4893 34.327 26.5369 34.327 26.632 34.2804C26.7271 34.327 26.7747 34.4202 26.7271 34.6066C26.632 34.9795 26.0137 36.9368 25.6808 37.7757C25.3954 38.568 25.6808 38.335 25.871 37.8223C26.0613 37.3097 26.9173 34.9795 27.06 34.7464C27.2027 34.56 27.2978 34.4668 27.3929 34.56C27.4405 34.6532 27.488 34.6998 27.5356 34.7464C27.6783 34.9328 27.0124 36.6106 26.7271 37.4495C26.4417 38.2884 26.4893 39.1273 26.0137 39.5933C25.5381 40.0594 25.3479 40.572 25.1576 41.0381C25.015 41.5041 24.7772 41.8769 24.3967 42.576C24.0162 43.2751 24.254 43.0887 24.7296 42.2964C25.1576 41.5041 25.3003 42.2498 25.3479 42.809C25.3954 43.4149 25.5857 43.9275 25.4905 42.9488C25.443 41.9701 25.2527 40.8982 25.871 40.1526C26.4417 39.4069 26.7747 38.9408 26.9649 37.8689C27.1551 36.8436 27.821 35.6785 28.0588 35.0261C28.2966 34.3736 28.7246 34.2804 28.5819 35.2591C28.4392 36.2378 28.6295 36.8902 28.3917 37.3097C28.1539 37.6825 27.4405 38.4282 27.1076 39.1273C26.7747 39.8729 26.7271 40.6652 26.9173 40.0127C27.1551 39.3603 27.6307 38.568 28.1539 37.9621C28.677 37.3097 28.9148 37.8223 29.1051 38.6146C29.2953 39.4069 29.2002 40.2458 28.9624 41.1313C28.677 42.0167 28.8673 42.0634 29.2002 41.0381C29.5331 40.0128 29.6758 39.4069 29.3904 38.4748C29.1051 37.5427 28.7246 36.098 29.1051 34.6998C29.4855 33.3017 29.6758 33.3017 29.866 34.1872C30.0563 35.0727 30.3416 36.1446 30.7696 37.0301C31.1977 37.9155 30.7221 36.1912 30.4367 35.1659C30.1989 34.094 30.1514 32.8356 30.2465 32.4162C30.3416 31.9502 31.1977 34.0008 31.7208 34.6998C32.244 35.3523 32.3391 35.5387 32.3867 36.098C32.4342 36.6572 32.3391 37.4029 32.9098 38.5214C33.4805 39.6399 33.5757 39.3603 33.1476 38.4282C32.7196 37.4961 32.6245 36.2378 32.7671 36.0048C32.9574 35.7717 33.6708 36.7504 33.9561 37.2165C34.2415 37.6825 34.7646 38.6146 35.2878 39.0341C35.8109 39.4535 34.8598 38.335 34.3842 37.4029C33.9086 36.4708 33.1001 35.9115 31.8635 34.1406C30.627 32.4162 30.7221 30.4588 30.8172 29.8063C30.9123 29.1539 32.0538 31.2511 32.8623 32.0434C33.6708 32.8822 34.289 33.3017 34.5268 33.8143C34.7646 34.3736 35.3354 35.4921 36.0487 36.2378C36.8097 36.9835 36.9524 36.797 36.0487 35.8649C35.1451 34.8862 34.622 33.5813 35.3354 33.9542C36.0487 34.327 37.1426 34.7464 37.7609 34.6066C38.3792 34.4668 37.1902 34.793 35.0024 33.3949C32.8147 31.9502 31.1977 29.4801 31.2928 28.3616C31.4355 27.1965 31.816 27.6625 32.244 28.4082C32.7196 29.1539 33.9561 29.9462 34.8122 30.0394C35.6683 30.1326 34.5268 29.8063 33.433 29.0607C32.3391 28.3616 31.7684 26.8703 32.244 25.4255C32.6245 24.2604 34.2415 21.7904 34.9073 20.9049C34.4793 20.6252 33.8134 20.299 32.9574 19.9728L31.9586 19.5999C31.1026 19.2737 30.4367 19.1339 29.9611 19.0407C29.8185 20.1126 29.3904 23.0953 28.8673 24.1672C28.249 25.5187 26.8222 26.2644 25.4905 26.1246C24.3491 25.9382 23.2553 25.4721 23.9686 25.9848C24.682 26.4974 26.1088 26.7304 27.0124 26.4508C27.8685 26.1712 28.4392 26.078 27.7734 27.0101C27.1076 27.9422 24.2064 28.7344 21.5907 28.4082C18.9749 28.0354 18.3091 27.0101 18.6895 27.5227Z" fill="url(#paint6_radial_560_2614)"/>
<path d="M31.1501 19.3203C30.8647 20.6718 30.5318 22.07 29.1526 25.9381C27.488 30.4588 29.3428 26.6838 29.9611 25.1459C30.5794 23.6079 30.4367 24.5866 29.2477 27.8955C28.5819 29.8063 28.0112 31.1112 28.2014 31.2045C28.4392 31.2977 28.677 30.5054 29.6757 28.2218C31.055 24.9594 31.6732 24.0273 31.055 25.5653C30.4367 27.1033 29.2953 31.0646 31.1025 26.6838C32.6244 22.9554 33.3378 21.6971 34.0512 20.4388C33.7659 20.299 33.4329 20.1592 33.0525 20.0194L32.0537 19.6465C31.7208 19.5067 31.4354 19.4135 31.1501 19.3203Z" fill="#BAD25B"/>
<path d="M26.9175 32.4628C27.3931 35.6785 25.1102 38.6612 21.8286 39.0807C18.547 39.5467 15.5032 37.3097 15.0752 34.094C18.2617 33.6279 23.3505 32.9288 26.9175 32.4628Z" fill="#E6301B"/>
<path d="M26.6321 32.5106C27.0602 35.5865 24.8724 38.3828 21.7811 38.8488C18.6421 39.2683 15.741 37.1244 15.313 34.0485C18.4044 33.6291 23.2554 32.9766 26.6321 32.5106Z" fill="#EE6F4B"/>
<path d="M25.443 32.7424C25.776 35.1659 24.0638 37.4495 21.5432 37.7757C19.0701 38.102 16.7397 36.4242 16.4067 33.9542C18.9274 33.6745 22.7797 33.1153 25.443 32.7424Z" fill="#E52913"/>
<path d="M22.0187 35.5387C22.1138 35.8183 22.3992 36.0048 22.6845 35.9116C22.9699 35.8183 23.1126 35.5387 23.0174 35.2591C22.9223 34.9795 22.4467 34.56 22.2565 34.6066C22.1614 34.6532 21.9236 35.2591 22.0187 35.5387ZM20.0688 35.6319C20.0688 35.9116 20.3066 36.1912 20.5919 36.1912C20.8773 36.1912 21.1151 35.9582 21.1151 35.6785C21.1151 35.3989 20.7346 34.8396 20.5919 34.8396C20.4017 34.8396 20.0688 35.3523 20.0688 35.6319ZM18.4517 35.4921C18.6895 35.6319 19.0225 35.5853 19.1651 35.3057C19.3078 35.0727 19.3078 34.3736 19.1651 34.327C19.0225 34.2338 18.4042 34.5134 18.2615 34.7464C18.1664 35.0261 18.2139 35.3523 18.4517 35.4921ZM23.7784 34.6998C24.0162 34.8863 24.3491 34.8863 24.5394 34.6532C24.7296 34.4202 24.682 34.094 24.4918 33.9076C24.254 33.7211 23.6357 33.5813 23.493 33.7211C23.3979 33.8609 23.5406 34.5134 23.7784 34.6998Z" fill="#E86A0A"/>
<path d="M20.2591 35.7717C20.2591 35.8183 20.2591 35.9115 20.3067 35.9582C20.3542 36.0048 20.4494 36.0514 20.4969 36.0514C20.5445 36.0514 20.6396 36.0048 20.6871 35.9582C20.7347 35.9115 20.7823 35.8183 20.7823 35.7717C20.7823 35.6785 20.6871 35.4455 20.5445 35.2591C20.5445 35.2591 20.5445 35.2125 20.4969 35.2125C20.4018 35.3989 20.2591 35.6319 20.2591 35.7717ZM22.2091 35.5853C22.2091 35.6319 22.2566 35.6319 22.2566 35.6785C22.3517 35.7717 22.4468 35.8183 22.542 35.7717C22.5895 35.7717 22.6846 35.7251 22.6846 35.6319C22.7322 35.5853 22.7322 35.4921 22.6846 35.3989C22.6846 35.3989 22.6371 35.3057 22.5895 35.2591C22.4944 35.1193 22.3517 35.0261 22.3042 34.9795C22.2091 35.1659 22.1615 35.4921 22.2091 35.5853ZM18.4519 35.3523L18.4994 35.3989C18.6421 35.4921 18.7848 35.4455 18.8799 35.3057C18.975 35.2125 18.975 34.8862 18.9275 34.6998C18.7848 34.7464 18.4994 34.8862 18.4043 35.0261C18.4043 35.1193 18.4043 35.2591 18.4519 35.3523ZM23.8736 34.6532C23.9212 34.6998 24.0163 34.7464 24.0639 34.7464C24.159 34.7464 24.2065 34.6998 24.2541 34.6532C24.3492 34.56 24.3492 34.4202 24.2541 34.327L24.2065 34.2804C24.1114 34.1872 23.7785 34.094 23.6358 34.094C23.6834 34.2338 23.731 34.4668 23.8736 34.6532C23.8736 34.6532 23.8736 34.6066 23.8736 34.6532Z" fill="#FAB515"/>
<path d="M19.3079 33.7677C19.4981 33.9075 19.7835 34.0474 19.7835 34.4202C19.7835 34.793 20.1164 34.4668 20.5444 34.4668C20.9725 34.4668 21.2103 34.6998 21.4005 34.8396C21.5908 35.026 21.5908 34.56 22.0188 34.327C22.4944 34.094 22.97 34.4668 22.97 34.1872C22.97 33.9541 23.0651 33.4881 23.4456 33.3017C23.8261 33.0687 23.398 33.0687 22.97 33.1153C22.5419 33.1619 19.8786 33.5347 19.5933 33.5813C19.3555 33.6745 19.1177 33.6745 19.3079 33.7677Z" fill="#F6A984"/>
<path d="M28.5344 16.6638C29.01 19.8796 26.7272 22.8623 23.4456 23.2817C20.164 23.7477 17.1202 21.5107 16.6921 18.295C19.9262 17.829 24.9675 17.1299 28.5344 16.6638Z" fill="#E6301B"/>
<path d="M28.2491 16.7116C28.6771 19.7875 26.4894 22.5838 23.398 23.0499C20.2591 23.4693 17.4055 21.3255 16.9299 18.2962C20.0213 17.8302 24.8724 17.1777 28.2491 16.7116Z" fill="#EE6F4B"/>
<path d="M27.1078 16.9435C27.4407 19.367 25.7286 21.6506 23.208 21.9768C20.7349 22.303 18.4044 20.6253 18.0715 18.1552C20.5446 17.8756 24.3969 17.3163 27.1078 16.9435Z" fill="#E52913"/>
<path d="M23.6832 19.7398C23.7783 20.0194 24.0637 20.2058 24.349 20.1126C24.6344 20.0194 24.7771 19.7398 24.682 19.4601C24.5868 19.1805 24.1112 18.7611 23.921 18.8077C23.7783 18.8543 23.5881 19.4601 23.6832 19.7398ZM21.6857 19.833C21.6857 20.1126 21.9235 20.3922 22.2089 20.3922C22.4942 20.3922 22.732 20.1592 22.732 19.8796C22.732 19.6 22.3515 19.0407 22.2089 19.0407C22.0662 19.0407 21.6857 19.5533 21.6857 19.833ZM20.0687 19.6932C20.3065 19.833 20.6394 19.7864 20.7821 19.5067C20.9248 19.2737 20.9248 18.5747 20.7821 18.528C20.6394 18.4348 20.0211 18.7145 19.8784 18.9475C19.7833 19.2271 19.8309 19.5533 20.0687 19.6932ZM25.3953 18.9009C25.6331 19.0873 25.9661 19.0873 26.1563 18.8543C26.3465 18.6213 26.299 18.295 26.1087 18.1086C25.8709 17.9222 25.2527 17.7824 25.11 17.9222C25.0149 18.062 25.1575 18.7145 25.3953 18.9009Z" fill="#E86A0A"/>
<path d="M21.8761 19.9728C21.8761 20.0194 21.8761 20.1126 21.9236 20.1592C21.9712 20.2058 22.0663 20.2524 22.1139 20.2524C22.1614 20.2524 22.2565 20.2058 22.3041 20.1592C22.3517 20.1126 22.3992 20.0194 22.3992 19.9728C22.3992 19.8796 22.3041 19.6465 22.1614 19.4601C22.1614 19.4601 22.1614 19.4135 22.1139 19.4135C22.0187 19.5999 21.8761 19.833 21.8761 19.9728ZM23.826 19.7864C23.826 19.833 23.8736 19.833 23.8736 19.8796C23.9687 19.9728 24.0638 20.0194 24.1589 19.9728C24.2065 19.9728 24.3016 19.9262 24.3016 19.833C24.3491 19.7864 24.3491 19.6932 24.3016 19.5999C24.3016 19.5999 24.254 19.5067 24.2065 19.4601C24.1114 19.3203 23.9687 19.2271 23.9211 19.1805C23.8736 19.3669 23.7784 19.6932 23.826 19.7864ZM20.0688 19.5533L20.1164 19.5999C20.259 19.6932 20.4017 19.6465 20.4968 19.5067C20.592 19.4135 20.592 19.0873 20.5444 18.9009C20.4017 18.9475 20.1164 19.0873 20.0212 19.2271C20.0212 19.3669 20.0212 19.4601 20.0688 19.5533ZM25.4906 18.8543C25.5381 18.9009 25.6333 18.9475 25.6808 18.9475C25.7759 18.9475 25.8235 18.9009 25.8711 18.8543C25.9662 18.7611 25.9662 18.6212 25.8711 18.528L25.8235 18.4814C25.7284 18.3882 25.3955 18.295 25.2528 18.295C25.3003 18.4348 25.3955 18.6678 25.4906 18.8543Z" fill="#FAB515"/>
<path d="M20.9725 17.9688C21.1627 18.1086 21.448 18.2484 21.448 18.6213C21.448 18.9941 21.781 18.6679 22.209 18.6679C22.637 18.6679 22.8748 18.9009 23.0651 19.0407C23.2553 19.2271 23.2553 18.7611 23.6833 18.5281C24.1589 18.295 24.6345 18.6679 24.6345 18.3882C24.6345 18.1552 24.7296 17.6892 25.1101 17.5028C25.4906 17.2697 25.0626 17.2697 24.6345 17.3163C24.2065 17.3629 21.5432 17.7358 21.2578 17.7824C21.02 17.8756 20.7822 17.8756 20.9725 17.9688Z" fill="#F6A984"/>
<path d="M41.0425 25.4721C38.8072 26.6838 37.9035 29.2005 38.9974 31.1579C40.0913 33.0686 42.7546 33.6745 44.9899 32.4628C47.2252 31.2511 48.1288 28.7344 47.035 26.777C45.9887 24.8662 43.2778 24.2604 41.0425 25.4721ZM44.4192 31.4375C42.8497 32.2764 40.9474 31.8569 40.1864 30.5054C39.4254 29.1539 40.0913 27.3363 41.6607 26.4974C43.2302 25.6585 45.1326 26.078 45.8935 27.4295C46.6545 28.781 45.9887 30.5986 44.4192 31.4375Z" fill="#BFCB7F"/>
<path d="M41.3755 26.0314C39.1402 27.2431 38.2366 29.7597 39.3304 31.7171C40.4243 33.6745 43.0876 34.2338 45.3229 33.022C47.5582 31.8103 48.4618 29.2937 47.368 27.3363C46.3217 25.4255 43.6108 24.8196 41.3755 26.0314ZM44.7522 31.9967C43.1827 32.8356 41.2804 32.4162 40.5194 31.0647C39.7585 29.7131 40.4243 27.8955 41.9938 27.0567C43.5632 26.2178 45.4656 26.6372 46.2265 27.9887C46.9875 29.3403 46.3217 31.1579 44.7522 31.9967Z" fill="#EBF1E2"/>
<path d="M37.7135 33.3017C35.9538 36.0514 32.2442 36.8437 29.4382 35.1193C26.6322 33.3949 25.7761 29.8064 27.5358 27.0567C30.3418 28.7811 34.6697 31.4375 37.7135 33.3017Z" fill="#E6301B"/>
<path d="M37.4281 33.1619C35.7635 35.7718 32.1966 36.564 29.5332 34.8863C26.8699 33.2551 26.0614 29.7598 27.7735 27.1499C30.4369 28.8277 34.527 31.3909 37.4281 33.1619Z" fill="#EE6F4B"/>
<path d="M36.3821 32.6493C35.0504 34.7465 32.2444 35.3523 30.1042 34.0474C27.9641 32.7425 27.3458 29.9928 28.6774 27.8956C30.8176 29.1539 34.0992 31.2045 36.3821 32.6493Z" fill="#E52913"/>
<path d="M31.9113 32.6027C31.7686 32.8823 31.9113 33.2085 32.1966 33.3017C32.482 33.3949 32.7673 33.3017 32.91 33.0221C33.0527 32.7425 32.9576 32.1366 32.7673 32.0434C32.6246 31.9968 32.0539 32.323 31.9113 32.6027ZM30.3418 31.4375C30.1516 31.6706 30.1516 31.9968 30.3894 32.1832C30.6271 32.3696 30.9601 32.323 31.1503 32.1366C31.3405 31.9036 31.4357 31.2511 31.3405 31.1579C31.1979 31.0181 30.5796 31.2045 30.3418 31.4375ZM29.2479 30.2724C29.343 30.5521 29.6284 30.6919 29.9138 30.5987C30.1991 30.5055 30.6271 29.9928 30.5796 29.853C30.532 29.6666 29.9138 29.5268 29.6284 29.62C29.2955 29.7132 29.1528 30.0394 29.2479 30.2724ZM33.8136 33.0687C33.8612 33.3483 34.1465 33.5814 34.4319 33.5347C34.7173 33.4881 34.9075 33.2085 34.8599 32.9289C34.8124 32.6493 34.3843 32.1366 34.2417 32.1832C34.099 32.1832 33.7661 32.7425 33.8136 33.0687Z" fill="#E86A0A"/>
<path d="M30.3893 31.624C30.3418 31.6706 30.2942 31.7172 30.2942 31.8104C30.2942 31.9036 30.3418 31.9502 30.3893 31.9968C30.4369 32.0434 30.532 32.0434 30.5796 32.0434C30.6747 32.0434 30.7222 31.9968 30.7698 31.9502C30.8174 31.9036 30.9125 31.6706 30.9125 31.3909V31.3443C30.7698 31.4376 30.4844 31.5308 30.3893 31.624ZM32.0063 32.7425C32.0063 32.7891 31.9588 32.8357 31.9588 32.8357C31.9588 32.9289 32.0063 33.0687 32.1015 33.1153C32.149 33.1619 32.2441 33.1619 32.2917 33.1153C32.3393 33.0687 32.4344 33.0221 32.4344 32.9755C32.4344 32.9755 32.4819 32.8823 32.4819 32.7891C32.4819 32.6027 32.4819 32.4629 32.4344 32.3696C32.3393 32.4162 32.0539 32.6027 32.0063 32.7425ZM29.343 30.1792C29.343 30.2258 29.343 30.2258 29.343 30.2724C29.3906 30.4123 29.5333 30.5055 29.6759 30.4589C29.8186 30.4123 30.0088 30.1792 30.104 30.0394C29.9613 29.9928 29.6284 29.8996 29.4857 29.9462C29.4381 29.9928 29.343 30.086 29.343 30.1792ZM33.9087 33.0687C33.9087 33.1619 33.9563 33.2085 34.0038 33.2551C34.0514 33.3017 34.1465 33.3017 34.1941 33.3017C34.3368 33.3017 34.4319 33.1619 34.4319 33.0221V32.9755C34.4319 32.8357 34.2416 32.6027 34.099 32.4629C34.0514 32.6027 33.9563 32.8823 33.9087 33.0687Z" fill="#FAB515"/>
<path d="M31.0552 29.5267C31.1027 29.7597 31.1978 30.0394 31.0076 30.3656C30.7698 30.6452 31.1978 30.6452 31.5307 30.8782C31.8637 31.1579 31.9112 31.4841 31.9112 31.7171C31.9112 31.9502 32.2441 31.6239 32.7197 31.7171C33.1953 31.8103 33.3856 32.4162 33.5282 32.2298C33.6709 32.0434 34.0514 31.7637 34.4794 31.8569C34.9075 31.9035 34.5745 31.6239 34.2416 31.3909C33.8612 31.1579 31.6259 29.7597 31.3881 29.6199C31.1503 29.4801 30.96 29.3403 31.0552 29.5267Z" fill="#F6A984"/>
<path d="M48.2715 32.6026C46.0838 35.0261 42.279 35.2591 39.8059 33.1153C37.3328 30.9715 37.095 27.2431 39.2828 24.8197C41.7559 26.9169 45.6082 30.2724 48.2715 32.6026Z" fill="#E6301B"/>
<path d="M48.0338 32.4162C45.9412 34.7465 42.3267 34.9329 39.9487 32.8823C37.5707 30.8317 37.3805 27.2897 39.4731 24.9595C41.8511 27.0101 45.4656 30.1792 48.0338 32.4162Z" fill="#EE6F4B"/>
<path d="M47.0825 31.7172C45.4179 33.5814 42.5168 33.7212 40.662 32.09C38.7596 30.4589 38.6169 27.616 40.2815 25.7984C42.1363 27.4296 45.085 29.9462 47.0825 31.7172Z" fill="#E52913"/>
<path d="M42.7072 30.9715C42.5645 31.2045 42.612 31.5308 42.8498 31.7172C43.0876 31.857 43.4205 31.8104 43.5632 31.5308C43.7059 31.2977 43.7535 30.6453 43.5632 30.5521C43.5157 30.4588 42.8498 30.7385 42.7072 30.9715ZM41.3279 29.5734C41.0901 29.7598 41.0426 30.086 41.2328 30.319C41.423 30.5521 41.756 30.5521 41.9938 30.3656C42.2316 30.1792 42.4218 29.5268 42.3267 29.4335C42.2316 29.2937 41.5657 29.3869 41.3279 29.5734ZM40.4243 28.2684C40.4719 28.5481 40.7572 28.7345 41.0426 28.6879C41.3279 28.6413 41.8511 28.1752 41.8035 28.082C41.756 27.8956 41.1853 27.6626 40.8999 27.6626C40.6145 27.7558 40.3767 27.9888 40.4243 28.2684ZM44.4669 31.7172C44.4669 31.9968 44.7046 32.2764 44.99 32.2764C45.2754 32.2764 45.5132 32.0434 45.5132 31.7638C45.5132 31.4841 45.1802 30.9249 44.99 30.9249C44.8949 30.8783 44.5144 31.4375 44.4669 31.7172Z" fill="#E86A0A"/>
<path d="M41.3754 29.8064C41.3278 29.853 41.2802 29.8996 41.2802 29.9928C41.2802 30.086 41.2802 30.1326 41.3278 30.2258C41.3754 30.2724 41.4229 30.319 41.518 30.319C41.6132 30.319 41.6607 30.319 41.7083 30.2724C41.8034 30.2258 41.8985 29.9928 41.9461 29.7598V29.7132C41.7558 29.62 41.4705 29.7132 41.3754 29.8064ZM42.7546 31.1113C42.7546 31.1579 42.707 31.1579 42.707 31.2045C42.6595 31.2977 42.707 31.4375 42.8021 31.4841C42.8497 31.5308 42.9448 31.5307 42.9924 31.5307C43.0875 31.5307 43.1351 31.4841 43.1826 31.3909C43.1826 31.3909 43.2302 31.3443 43.2302 31.2045C43.2777 31.0647 43.2777 30.8783 43.2302 30.7851C43.1351 30.8783 42.8497 31.0181 42.7546 31.1113ZM40.5193 28.1752C40.5193 28.2218 40.5193 28.2218 40.5193 28.2684C40.5193 28.4082 40.662 28.5015 40.8522 28.5015C40.9949 28.5015 41.2327 28.2684 41.3754 28.1752C41.2327 28.082 40.9473 27.9888 40.8046 27.9888C40.662 27.9888 40.5668 28.082 40.5193 28.1752ZM44.6094 31.7638C44.6094 31.857 44.657 31.9036 44.7045 31.9502C44.7521 31.9968 44.7996 32.0434 44.8948 32.0434C45.0374 32.0434 45.1326 31.9502 45.1801 31.8104V31.7638C45.1801 31.624 45.0374 31.3443 44.9423 31.2045C44.7996 31.3443 44.657 31.5774 44.6094 31.7638C44.6094 31.7638 44.6094 31.7172 44.6094 31.7638Z" fill="#FAB515"/>
<path d="M42.3266 27.8024C42.3741 28.0354 42.4217 28.3616 42.1363 28.5946C41.851 28.8277 42.279 28.8743 42.5644 29.2005C42.8497 29.5267 42.8497 29.853 42.8022 30.086C42.7546 30.319 43.1351 30.0394 43.6107 30.2258C44.0863 30.4122 44.1338 31.0181 44.3241 30.8317C44.5143 30.6452 44.9423 30.4588 45.3228 30.5986C45.7509 30.7384 45.4655 30.4122 45.1326 30.1326C44.7997 29.853 42.8022 28.1286 42.6119 27.9422C42.4217 27.7558 42.279 27.6159 42.3266 27.8024Z" fill="#F6A984"/>
<path d="M34.0514 32.044C33.9087 31.9974 32.8148 31.811 32.6721 31.7644C30.7222 31.0653 30.6271 28.7817 31.2454 26.2184C31.8636 23.7018 32.9099 21.7444 34.955 21.9308C35.0977 21.9308 36.2391 22.257 36.3818 22.257C38.5695 22.7697 39.8061 25.3329 39.1402 28.036C38.522 30.7857 36.2391 32.5567 34.0514 32.044Z" fill="#1B642D"/>
<path d="M32.7197 31.7171C30.6747 31.2511 29.5333 28.6878 30.1991 25.9848C30.8649 23.2817 33.0527 21.4641 35.0977 21.9768C37.1428 22.4428 38.2842 25.0061 37.6184 27.7091C36.9525 30.4122 34.7648 32.1832 32.7197 31.7171Z" fill="#3FAB35"/>
<path d="M32.7672 31.3909C30.8648 30.9714 29.8185 28.548 30.3892 26.0313C31.0075 23.5147 33.0525 21.8369 34.9549 22.2564C36.8573 22.6758 37.9036 25.0993 37.3329 27.6159C36.7146 30.1792 34.7171 31.8569 32.7672 31.3909Z" fill="#9EC75B"/>
<path d="M32.9576 31.4375C31.0552 31.018 30.0089 28.5946 30.5796 26.0779C31.1979 23.5613 33.2429 21.8835 35.1453 22.303C37.0477 22.7224 38.094 25.1459 37.5233 27.6625C36.905 30.2258 34.86 31.9035 32.9576 31.4375Z" fill="#B7D05A"/>
<path d="M35.0026 28.0353C35.1453 27.8023 35.2879 27.5227 35.3831 27.1965C35.6684 26.0313 35.1928 24.9594 34.3843 24.773C34.2892 24.773 34.1941 24.7264 34.1465 24.7264C34.0514 25.3789 33.9563 26.4042 34.099 26.6372C34.1465 26.9168 34.5745 27.5693 35.0026 28.0353ZM33.5758 24.8196C33.0051 25.0526 32.5295 25.6585 32.2917 26.4974C32.1966 26.8702 32.1966 27.2431 32.2441 27.5693C32.8148 27.1032 33.2904 26.777 33.338 26.3576C33.3856 26.0779 33.5282 25.3789 33.5758 24.8196ZM34.7172 28.3616C34.5745 28.0353 34.0514 27.4761 33.766 27.1498C33.4807 26.8702 32.7197 27.5693 32.3392 27.8955C32.5295 28.4082 32.8624 28.781 33.2904 28.8742C33.8136 29.014 34.3367 28.8276 34.7172 28.3616Z" fill="#CCDA64"/>
<path d="M37.0952 30.1326C35.4307 28.2684 32.6722 27.8956 31.0076 29.3403C29.2955 30.7851 29.2955 33.4881 30.9601 35.3523C32.6247 37.2165 35.3831 37.5893 37.0477 36.1446C38.7598 34.7465 38.7598 32.0434 37.0952 30.1326ZM31.8637 34.6066C30.6747 33.3017 30.7223 31.3909 31.9113 30.3656C33.1003 29.3403 35.0502 29.5733 36.1916 30.9249C37.3806 32.2298 37.333 34.1406 36.1441 35.1659C34.9551 36.1912 33.0051 35.9582 31.8637 34.6066Z" fill="#BFCB7F"/>
<path d="M36.6197 30.552C34.9551 28.6878 32.1966 28.315 30.5321 29.7598C28.8199 31.2045 28.8199 33.9076 30.4845 35.7717C32.1491 37.6359 34.9075 38.0088 36.5721 36.564C38.2367 35.1659 38.2842 32.4628 36.6197 30.552ZM31.3406 35.0261C30.1516 33.7211 30.1991 31.8104 31.3881 30.7851C32.5771 29.7598 34.5271 29.9928 35.6685 31.3443C36.8575 32.6492 36.8099 34.56 35.6209 35.5853C34.4319 36.6106 32.5296 36.3776 31.3406 35.0261Z" fill="#EBF1E2"/>
<path d="M33.2903 46.4442C30.199 45.2325 28.7246 41.8303 29.9612 38.801C31.1977 35.7717 34.6695 34.327 37.7609 35.5387C36.5244 38.5214 34.622 43.1818 33.2903 46.4442Z" fill="#E6301B"/>
<path d="M33.3855 46.1646C30.4368 44.9995 29.01 41.7371 30.199 38.8942C31.388 36.0048 34.7171 34.6066 37.6182 35.7717C36.4768 38.6146 34.6696 43.0887 33.3855 46.1646Z" fill="#EE6F4B"/>
<path d="M33.7658 45.0926C31.4354 44.1605 30.294 41.5973 31.2452 39.2671C32.1964 36.9834 34.8121 35.8649 37.1901 36.797C36.1914 39.0806 34.7646 42.6226 33.7658 45.0926Z" fill="#E52913"/>
<path d="M33.0049 40.7584C32.7195 40.7118 32.4342 40.8516 32.3391 41.1313C32.2915 41.4109 32.4817 41.6905 32.7671 41.7371C33.0525 41.7837 33.6707 41.5973 33.7183 41.4109C33.7183 41.3177 33.2903 40.8516 33.0049 40.7584ZM33.861 39.034C33.6232 38.8942 33.2903 38.9408 33.1 39.2205C32.9573 39.4535 33.0525 39.7797 33.2903 39.9195C33.5281 40.0593 34.2415 40.0127 34.289 39.9195C34.4317 39.7797 34.1463 39.2205 33.861 39.034ZM34.8122 37.7757C34.5744 37.9155 34.4792 38.2418 34.6219 38.4748C34.7646 38.7544 35.3829 39.034 35.478 38.9874C35.6207 38.8942 35.6682 38.2884 35.5731 38.0087C35.3829 37.7291 35.05 37.6359 34.8122 37.7757ZM32.8622 42.6692C32.5769 42.7624 32.4342 43.042 32.5293 43.3217C32.6244 43.6013 32.9098 43.7411 33.1951 43.6479C33.4805 43.5547 33.9085 43.0886 33.8134 42.9022C33.8134 42.7624 33.1476 42.576 32.8622 42.6692Z" fill="#E86A0A"/>
<path d="M33.6707 39.1273C33.6232 39.0807 33.528 39.0806 33.4805 39.0806C33.3854 39.0806 33.3378 39.1273 33.2902 39.2205C33.2427 39.2671 33.2427 39.3603 33.2427 39.4069C33.2427 39.5001 33.2902 39.5467 33.3854 39.5933C33.4805 39.6399 33.7183 39.6865 33.9561 39.6399H34.0036C33.9561 39.4535 33.7658 39.2205 33.6707 39.1273ZM32.8622 40.8982C32.8147 40.8982 32.7671 40.8982 32.7671 40.8982C32.672 40.8982 32.5769 40.9914 32.5293 41.0846C32.5293 41.1313 32.5293 41.2245 32.5769 41.2711C32.6244 41.3177 32.672 41.3643 32.7671 41.4109C32.7671 41.4109 32.8622 41.4109 32.9573 41.4109C33.1 41.4109 33.2902 41.3177 33.3378 41.2711C33.1951 41.1313 33.0049 40.8982 32.8622 40.8982ZM34.9073 37.8223C34.8597 37.8223 34.8597 37.8223 34.8121 37.8689C34.6695 37.9155 34.6219 38.102 34.717 38.2418C34.7646 38.3816 35.0499 38.5214 35.2402 38.568C35.2877 38.4282 35.2877 38.102 35.1926 37.9621C35.1451 37.8689 35.0499 37.8223 34.9073 37.8223ZM32.8622 42.7624C32.7671 42.809 32.7195 42.8556 32.672 42.9022C32.6244 42.9488 32.6244 43.042 32.672 43.0886C32.7195 43.1819 32.8147 43.2751 32.9573 43.2751H33.0049C33.1476 43.2285 33.3378 42.9954 33.4329 42.8556C33.3378 42.809 33.0525 42.7624 32.8622 42.7624Z" fill="#FAB515"/>
<path d="M35.8586 39.3603C35.6684 39.4535 35.383 39.5933 35.0501 39.4535C34.7172 39.3137 34.8123 39.6865 34.622 40.0594C34.4318 40.4322 34.0989 40.5254 33.8611 40.572C33.6233 40.6186 34.0038 40.8516 34.0038 41.3643C34.0038 41.8769 33.4331 42.11 33.6233 42.2498C33.8611 42.3896 34.194 42.6692 34.194 43.0887C34.194 43.5081 34.4318 43.1353 34.622 42.7624C34.7647 42.3896 35.7635 39.9196 35.9062 39.6865C35.9537 39.4535 36.0964 39.2671 35.8586 39.3603Z" fill="#F6A984"/>
<path d="M35.2881 19.6466C35.2881 19.7864 35.3356 20.9981 35.3356 21.1379C35.0978 23.3283 32.6248 23.9808 29.7236 23.9808C26.8701 23.9808 24.4445 23.3749 24.1592 21.2311C24.1592 21.0913 24.1592 19.833 24.1592 19.6466C24.1592 17.2697 26.6323 15.3123 29.7236 15.3123C32.815 15.359 35.2881 17.2697 35.2881 19.6466Z" fill="#1B642D"/>
<path d="M35.2881 21.1379C35.2881 23.3749 32.815 25.1925 29.7236 25.1925C26.6323 25.1925 24.1592 23.3749 24.1592 21.1379C24.1592 18.9009 26.6323 17.0833 29.7236 17.0833C32.815 17.0833 35.2881 18.9009 35.2881 21.1379Z" fill="#3FAB35"/>
<path d="M34.9553 21.1379C34.9553 23.2351 32.6249 24.9129 29.7237 24.9129C26.8702 24.9129 24.4922 23.2351 24.4922 21.1379C24.4922 19.0407 26.8226 17.3629 29.7237 17.3629C32.6249 17.3629 34.9553 19.0407 34.9553 21.1379Z" fill="#9EC75B"/>
<path d="M29.7237 24.7265C32.613 24.7265 34.9553 23.0364 34.9553 20.9515C34.9553 18.8667 32.613 17.1765 29.7237 17.1765C26.8344 17.1765 24.4922 18.8667 24.4922 20.9515C24.4922 23.0364 26.8344 24.7265 29.7237 24.7265Z" fill="#9EC75B"/>
<path d="M30.7224 19.6932C30.4371 19.6 30.0566 19.5534 29.7237 19.5534C28.392 19.5534 27.3457 20.2991 27.3457 21.2311C27.3457 21.3244 27.3457 21.4176 27.3933 21.5108C28.1542 21.4176 29.2481 21.3244 29.4859 21.0913C29.7237 20.8583 30.3419 20.2524 30.7224 19.6932ZM27.6311 21.9768C28.0115 22.4895 28.82 22.8623 29.7237 22.8623C30.1517 22.8623 30.5797 22.7691 30.9127 22.6293C30.2944 22.1632 29.8188 21.7438 29.2956 21.7904C29.0103 21.837 28.2493 21.8836 27.6311 21.9768ZM31.198 19.8796C30.8651 20.1126 30.3895 20.7651 30.1517 21.1845C29.9139 21.5574 30.8651 22.1632 31.2931 22.4429C31.8163 22.1166 32.1016 21.6972 32.1016 21.1845C32.1016 20.6719 31.7212 20.2058 31.198 19.8796Z" fill="#BDD470"/>
<path d="M13.6959 33.8143C15.6458 35.4455 18.3567 35.3989 19.831 33.7211C21.3054 32.0433 20.9249 29.3869 19.0225 27.7557C17.0726 26.1245 14.3617 26.1712 12.8874 27.8489C11.413 29.5267 11.7935 32.1832 13.6959 33.8143ZM18.2616 28.6878C19.6408 29.8529 19.8786 31.7171 18.8323 32.8822C17.786 34.0473 15.8361 34.0939 14.5044 32.9288C13.1252 31.7637 12.8874 29.8995 13.9337 28.7344C14.9324 27.5227 16.8824 27.5227 18.2616 28.6878Z" fill="#BFCB7F"/>
<path d="M14.1241 33.3483C16.074 34.9794 18.7849 34.9328 20.2593 33.2551C21.7336 31.5773 21.3531 28.9208 19.4508 27.2897C17.5008 25.6585 14.7899 25.7051 13.3156 27.3829C11.8412 29.0607 12.2217 31.7171 14.1241 33.3483ZM18.6898 28.1752C20.069 29.3403 20.3068 31.2045 19.2605 32.3696C18.2142 33.5347 16.2643 33.5813 14.9326 32.4162C13.5534 31.2511 13.3156 29.3869 14.3619 28.2218C15.3606 27.0567 17.3106 27.01 18.6898 28.1752Z" fill="#EBF1E2"/>
<path d="M32.244 38.2884C32.1965 38.1485 31.816 36.9368 31.816 36.8436C31.4831 34.6066 33.7659 33.3483 36.6671 32.6492C39.5206 31.9501 42.0413 31.9501 42.9449 34.0007C42.9925 34.1405 43.2778 35.3989 43.3254 35.5853C43.9437 37.9621 41.9462 40.5254 38.9024 41.2711C35.811 41.9701 32.8148 40.6652 32.244 38.2884Z" fill="#1B642D"/>
<path d="M31.8636 36.797C31.2929 34.56 33.2904 32.1365 36.3818 31.3909C39.4256 30.6452 42.3742 31.8103 42.9925 34.0473C43.5632 36.2844 41.5657 38.7078 38.4744 39.4535C35.383 40.2457 32.4343 39.034 31.8636 36.797Z" fill="#3FAB35"/>
<path d="M32.1966 36.7038C31.6734 34.6066 33.5282 32.3695 36.4294 31.6705C39.2829 30.9714 42.0414 32.0899 42.5645 34.1405C43.0877 36.2377 41.2329 38.4748 38.3793 39.1738C35.5257 39.9195 32.7673 38.801 32.1966 36.7038Z" fill="#9EC75B"/>
<path d="M32.2439 36.8902C31.7208 34.793 33.5756 32.556 36.4767 31.8569C39.3303 31.1578 42.0887 32.2764 42.6119 34.327C43.1351 36.4242 41.2802 38.6612 38.4267 39.3603C35.5255 40.1059 32.8147 38.9874 32.2439 36.8902Z" fill="#B7D05A"/>
<path d="M36.7624 37.1233C37.0953 37.1699 37.4282 37.1233 37.8087 37.03C39.0928 36.7038 39.9964 35.7251 39.7586 34.793C39.7586 34.6998 39.7111 34.6066 39.6635 34.5134C38.9501 34.793 37.9038 35.1659 37.666 35.4455C37.4758 35.7251 37.0002 36.5174 36.7624 37.1233ZM39.2831 34.0939C38.7599 33.6745 37.8563 33.4881 36.9526 33.7211C36.5246 33.8143 36.1441 34.0007 35.8588 34.2338C36.6197 34.56 37.1904 34.8396 37.666 34.6532C37.9514 34.56 38.6648 34.327 39.2831 34.0939ZM36.2868 37.03C36.5722 36.7504 36.8575 35.9581 37.0002 35.4921C37.1429 35.0726 36.049 34.6998 35.5259 34.5134C35.0978 34.9328 34.9076 35.4455 35.0503 35.9581C35.1454 36.4708 35.621 36.8902 36.2868 37.03Z" fill="#CCDA64"/>
<path d="M19.4505 35.7258C19.3079 35.6792 18.214 35.4928 18.0713 35.4462C16.1214 34.7471 16.0263 32.4635 16.6445 29.9003C17.2628 27.3836 18.3091 25.4262 20.3542 25.6126C20.4968 25.6126 21.6383 25.9389 21.7809 25.9389C23.9687 26.4515 25.2052 29.0148 24.5394 31.7178C23.9211 34.4675 21.5907 36.2385 19.4505 35.7258Z" fill="#1B642D"/>
<path d="M18.0713 35.3989C16.0262 34.9329 14.8848 32.3696 15.5507 29.6665C16.2165 26.9635 18.4042 25.1459 20.4493 25.6585C22.4943 26.1246 23.6358 28.6878 22.9699 31.3909C22.3041 34.094 20.1164 35.865 18.0713 35.3989Z" fill="#3FAB35"/>
<path d="M18.1666 35.0727C16.2642 34.6532 15.2179 32.2298 15.7886 29.7131C16.4069 27.1965 18.4519 25.5187 20.3543 25.9382C22.2567 26.3576 23.303 28.781 22.7323 31.2977C22.114 33.8609 20.0689 35.5387 18.1666 35.0727Z" fill="#9EC75B"/>
<path d="M18.3091 35.1193C16.4068 34.6998 15.3605 32.2764 15.9312 29.7597C16.5494 27.2431 18.5945 25.5653 20.4969 25.9848C22.3993 26.4042 23.4456 28.8276 22.8749 31.3443C22.2566 33.8609 20.2115 35.5853 18.3091 35.1193Z" fill="#B7D05A"/>
<path d="M20.3541 31.7171C20.4968 31.4841 20.6395 31.2045 20.7346 30.8782C21.02 29.7131 20.5444 28.6412 19.7359 28.4548C19.6407 28.4548 19.5456 28.4082 19.4981 28.4082C19.403 29.0607 19.3078 30.086 19.4505 30.319C19.4981 30.5986 19.9737 31.2511 20.3541 31.7171ZM18.9274 28.5014C18.3566 28.7344 17.881 29.3403 17.6433 30.1792C17.5481 30.552 17.5481 30.9249 17.5957 31.2511C18.1664 30.785 18.642 30.4588 18.6896 30.0394C18.7847 29.7597 18.8798 29.0607 18.9274 28.5014ZM20.0688 32.0434C19.9261 31.7171 19.403 31.1579 19.1176 30.8316C18.8322 30.552 18.0713 31.2511 17.6908 31.5773C17.881 32.09 18.214 32.4628 18.642 32.556C19.1652 32.6958 19.6883 32.5094 20.0688 32.0434Z" fill="#CCDA64"/>
<path d="M35.9062 16.6172C33.6709 17.8289 32.7673 20.3456 33.8612 22.303C34.955 24.2138 37.6184 24.8196 39.8537 23.6079C42.089 22.3962 42.9926 19.8795 41.8987 17.9221C40.8049 15.9648 38.094 15.4055 35.9062 16.6172ZM39.2354 22.5826C37.6659 23.4215 35.7636 23.002 35.0026 21.6505C34.2417 20.299 34.9075 18.4814 36.477 17.6425C38.0464 16.8036 39.9488 17.2231 40.7097 18.5746C41.4707 19.9261 40.8049 21.6971 39.2354 22.5826Z" fill="#BFCB7F"/>
<path d="M36.1916 17.1765C33.9563 18.3882 33.0527 20.9049 34.1466 22.8623C35.2405 24.8197 37.9038 25.3789 40.1391 24.1672C42.3744 22.9555 43.278 20.4388 42.1841 18.4814C41.1378 16.5706 38.4269 15.9648 36.1916 17.1765ZM39.5684 23.1419C37.9989 23.9808 36.0965 23.5613 35.3356 22.2098C34.5746 20.8583 35.2405 19.0407 36.8099 18.2018C38.3794 17.3629 40.2818 17.7824 41.0427 19.1339C41.8037 20.4854 41.1378 22.303 39.5684 23.1419Z" fill="#EBF1E2"/>
<path d="M22.6846 41.0847C24.6346 42.7158 27.3455 42.6692 28.8198 40.9915C30.2942 39.3137 29.9137 36.6572 28.0113 35.0261C26.0614 33.3949 23.3505 33.4415 21.8761 35.1193C20.4018 36.797 20.7823 39.4535 22.6846 41.0847ZM27.2504 35.9116C28.6296 37.0767 28.8674 38.9409 27.8211 40.106C26.7748 41.2711 24.8248 41.3177 23.4932 40.1526C22.1139 38.9875 21.8761 37.1233 22.9224 35.9582C23.9212 34.793 25.8711 34.793 27.2504 35.9116Z" fill="#BFCB7F"/>
<path d="M23.1602 40.6186C25.1101 42.2498 27.821 42.2032 29.2953 40.5254C30.7697 38.8477 30.3892 36.1912 28.4868 34.56C26.5369 32.9289 23.826 32.9755 22.3517 34.6532C20.8298 36.2844 21.2102 38.9875 23.1602 40.6186ZM27.6783 35.4455C29.0576 36.6106 29.2953 38.4748 28.249 39.6399C27.2027 40.805 25.2528 40.8517 23.9211 39.6865C22.5419 38.5214 22.3041 36.6572 23.3504 35.4921C24.3967 34.327 26.2991 34.2804 27.6783 35.4455Z" fill="#EBF1E2"/>
<path d="M40.2817 22.0234C40.2817 23.7944 38.8074 25.2391 37.0001 25.2391C35.1928 25.2391 33.7185 23.7944 33.7185 22.0234C33.7185 20.2524 35.1928 18.8077 37.0001 18.8077C38.8074 18.8077 40.2817 20.2524 40.2817 22.0234Z" fill="url(#paint7_radial_560_2614)"/>
<path d="M38.2366 21.7438C38.2366 22.1632 37.9037 22.5361 37.4281 22.5361C37.0001 22.5361 36.6196 22.2098 36.6196 21.7438C36.6196 21.3243 36.9525 20.9515 37.4281 20.9515C37.9037 20.9515 38.2366 21.3243 38.2366 21.7438Z" fill="#220B0C"/>
<path d="M37.8085 19.4601C37.6658 19.4135 37.5231 19.4135 37.428 19.4135C36.6195 19.4135 35.9061 19.9262 35.7634 20.6253C36.1439 20.9515 36.6195 21.0913 36.6195 21.0913C36.9049 20.8117 37.2853 20.6253 37.7134 20.6253C37.9036 20.299 37.9036 19.7398 37.8085 19.4601Z" fill="#CBBCCC"/>
<path d="M37.5708 23.7012C38.2842 23.7944 39.1403 23.3283 39.3305 22.7225C38.9976 22.4428 38.6171 22.3496 38.6171 22.3496C38.3793 22.5827 38.094 22.8157 37.7135 22.8157C37.5708 23.0953 37.5233 23.5148 37.5708 23.7012Z" fill="#9B7792"/>
<path d="M24.0163 22.7225C24.0163 24.4934 22.542 25.9382 20.7347 25.9382C18.9275 25.9382 17.4531 24.4934 17.4531 22.7225C17.4531 20.9515 18.9275 19.5067 20.7347 19.5067C22.5895 19.5067 24.0163 20.9515 24.0163 22.7225Z" fill="url(#paint8_radial_560_2614)"/>
<path d="M22.0189 22.4429C22.0189 22.8623 21.686 23.2351 21.2104 23.2351C20.7823 23.2351 20.4019 22.9089 20.4019 22.4429C20.4019 22.0234 20.7348 21.6506 21.2104 21.6506C21.686 21.6506 22.0189 22.0234 22.0189 22.4429Z" fill="#220B0C"/>
<path d="M21.591 20.1592C21.4483 20.1126 21.3056 20.1126 21.2105 20.1126C20.402 20.1126 19.6886 20.6253 19.5459 21.3243C19.9264 21.6506 20.402 21.7904 20.402 21.7904C20.6873 21.5108 21.0678 21.3243 21.4958 21.3243C21.6861 20.9981 21.6861 20.4388 21.591 20.1592Z" fill="#CBBCCC"/>
<path d="M21.3531 24.4002C22.0665 24.4935 22.9225 24.0274 23.1128 23.4215C22.7799 23.1419 22.3994 23.0487 22.3994 23.0487C22.1616 23.2817 21.8762 23.5148 21.4958 23.5148C21.3055 23.7944 21.3055 24.2138 21.3531 24.4002Z" fill="#9B7792"/>
<path d="M28.7722 41.4109C28.7722 43.1819 27.2978 44.6266 25.4906 44.6266C23.6833 44.6266 22.209 43.1819 22.209 41.4109C22.209 39.6399 23.6833 38.1952 25.4906 38.1952C27.2978 38.2418 28.7722 39.6865 28.7722 41.4109Z" fill="url(#paint9_radial_560_2614)"/>
<path d="M26.7747 41.1313C26.7747 41.5507 26.4418 41.9236 25.9662 41.9236C25.5382 41.9236 25.1577 41.5973 25.1577 41.1313C25.1577 40.7119 25.4906 40.339 25.9662 40.339C26.3943 40.3856 26.7747 40.7119 26.7747 41.1313Z" fill="#220B0C"/>
<path d="M26.3468 38.8943C26.2041 38.8477 26.0615 38.8477 25.9663 38.8477C25.1578 38.8477 24.4444 39.3603 24.3018 40.0594C24.6822 40.3856 25.1578 40.5255 25.1578 40.5255C25.4432 40.2458 25.8237 40.0594 26.2517 40.0594C26.3944 39.6866 26.3944 39.1273 26.3468 38.8943Z" fill="#CBBCCC"/>
<path d="M26.0613 43.1353C26.7747 43.2285 27.6308 42.7624 27.821 42.1566C27.4881 41.8769 27.1076 41.7837 27.1076 41.7837C26.8698 42.0167 26.5844 42.2498 26.204 42.2498C26.0613 42.5294 26.0137 42.9022 26.0613 43.1353Z" fill="#9B7792"/>
<path d="M40.6621 32.8357C40.6621 34.6066 39.1877 36.0514 37.3805 36.0514C35.5732 36.0514 34.0989 34.6066 34.0989 32.8357C34.0989 31.0647 35.5732 29.6199 37.3805 29.6199C39.1877 29.6665 40.6621 31.0647 40.6621 32.8357Z" fill="url(#paint10_radial_560_2614)"/>
<path d="M38.6646 32.556C38.6646 32.9755 38.3317 33.3483 37.8561 33.3483C37.4281 33.3483 37.0476 33.0221 37.0476 32.556C37.0476 32.1366 37.3805 31.7638 37.8561 31.7638C38.2842 31.8104 38.6646 32.1366 38.6646 32.556Z" fill="#220B0C"/>
<path d="M38.2367 30.319C38.094 30.2724 37.9513 30.2724 37.8562 30.2724C37.0477 30.2724 36.3343 30.785 36.1917 31.4841C36.5721 31.8103 37.0477 31.9501 37.0477 31.9501C37.3331 31.6705 37.7136 31.4841 38.1416 31.4841C38.2843 31.1113 38.2843 30.552 38.2367 30.319Z" fill="#CBBCCC"/>
<path d="M37.9512 34.56C38.6646 34.6532 39.5206 34.1872 39.7109 33.5813C39.378 33.3017 38.9975 33.2085 38.9975 33.2085C38.7597 33.4415 38.4743 33.6745 38.0939 33.6745C37.9512 33.9541 37.9512 34.327 37.9512 34.56Z" fill="#9B7792"/>
<path d="M27.3454 32.09C27.3454 33.8609 25.8711 35.3057 24.0638 35.3057C22.2566 35.3057 20.7822 33.8609 20.7822 32.09C20.7822 30.319 22.2566 28.8742 24.0638 28.8742C25.8711 28.8742 27.3454 30.319 27.3454 32.09Z" fill="url(#paint11_radial_560_2614)"/>
<path d="M25.348 31.8103C25.348 32.2298 25.0151 32.6026 24.5395 32.6026C24.1114 32.6026 23.731 32.2764 23.731 31.8103C23.731 31.3909 24.0639 31.0181 24.5395 31.0181C24.9675 31.0181 25.348 31.3443 25.348 31.8103Z" fill="#220B0C"/>
<path d="M24.9201 29.5267C24.7774 29.4801 24.6347 29.4801 24.5396 29.4801C23.7311 29.4801 23.0177 29.9928 22.875 30.6918C23.2555 31.0181 23.7311 31.1579 23.7311 31.1579C24.0164 30.8782 24.3969 30.6918 24.8249 30.6918C24.9676 30.3656 24.9676 29.8063 24.9201 29.5267Z" fill="#CBBCCC"/>
<path d="M24.6345 33.7677C25.3479 33.8609 26.204 33.3949 26.3942 32.789C26.0613 32.5094 25.6808 32.4162 25.6808 32.4162C25.443 32.6492 25.1577 32.8822 24.7772 32.8822C24.6345 33.1619 24.6345 33.5347 24.6345 33.7677Z" fill="#9B7792"/>
<path d="M32.2918 36.8437H26.4895V40.4322H32.2918V36.8437Z" fill="#DAD4A8"/>
<path d="M32.2918 33.9542H26.4895V37.5427H32.2918V33.9542Z" fill="white"/>
<path d="M18.2047 25.3906L13.072 28.0424L14.8022 31.2581L19.9349 28.6063L18.2047 25.3906Z" fill="#DAD4A8"/>
<path d="M16.8385 22.816L11.7058 25.4679L13.436 28.6835L18.5687 26.0317L16.8385 22.816Z" fill="white"/>
<path d="M39.8537 23.8876L37.1428 24.8197L38.522 28.3616L41.9939 30.1326L42.8024 26.544L39.8537 23.8876Z" fill="#EBF1CF"/>
<path d="M45.7512 26.9635L41.994 30.1326L40.6624 25.9382L44.5147 23.0953L45.7512 26.9635Z" fill="#D5D0A8"/>
<path d="M44.5145 23.1419L40.7573 26.2644L37.1428 24.8197L40.9 21.6505L44.5145 23.1419Z" fill="white"/>
<path d="M27.3931 17.8756C25.3956 16.3376 22.6371 16.4774 21.2579 18.2484C19.8787 19.9728 20.3543 22.6292 22.3518 24.1672C24.3493 25.7051 27.1077 25.5653 28.4869 23.7944C29.9137 22.07 29.3906 19.4135 27.3931 17.8756ZM23.1127 23.2351C21.6859 22.1632 21.353 20.299 22.3518 19.0407C23.3505 17.829 25.2529 17.6891 26.6797 18.8077C28.1065 19.8796 28.4394 21.7437 27.4406 23.0021C26.4419 24.2138 24.492 24.3536 23.1127 23.2351Z" fill="#BFCB7F"/>
<path d="M26.9651 18.3882C24.9676 16.8503 22.2092 16.9901 20.8299 18.7611C19.4507 20.532 19.9263 23.1419 21.9714 24.6798C23.9689 26.2178 26.7273 26.078 28.1065 24.307C29.4857 22.5826 29.0102 19.9262 26.9651 18.3882ZM22.6847 23.7478C21.258 22.6759 20.925 20.8117 21.9238 19.5533C22.9225 18.3416 24.8249 18.2018 26.2517 19.3203C27.6785 20.3922 28.0114 22.2564 27.0127 23.5147C26.0615 24.7265 24.1115 24.8197 22.6847 23.7478Z" fill="#EBF1E2"/>
<path d="M33.9086 25.8449C30.5795 25.9382 27.821 23.3749 27.7259 20.1592C27.6308 16.8969 30.2466 14.1938 33.5282 14.1006C33.6233 17.3163 33.766 22.3496 33.9086 25.8449Z" fill="#E6301B"/>
<path d="M33.861 25.5653C30.722 25.6585 28.0587 23.2351 27.9636 20.1126C27.8685 17.0367 30.3416 14.4268 33.528 14.3336C33.6232 17.4561 33.7658 22.2098 33.861 25.5653Z" fill="#EE6F4B"/>
<path d="M33.7661 24.4002C31.2454 24.4934 29.1528 22.536 29.0577 20.0659C28.9626 17.5959 30.9601 15.5453 33.4807 15.4521C33.5759 17.9221 33.671 21.7437 33.7661 24.4002Z" fill="#E52913"/>
<path d="M31.2929 20.7651C31.0076 20.8117 30.8173 21.0913 30.8649 21.3709C30.9124 21.6505 31.1978 21.837 31.4832 21.7904C31.7685 21.7438 32.2441 21.3243 32.2441 21.1379C32.1965 20.9981 31.5783 20.7185 31.2929 20.7651ZM31.388 18.8543C31.1027 18.8077 30.8173 18.9941 30.7698 19.2737C30.7222 19.5533 30.96 19.833 31.2454 19.833C31.5307 19.8796 32.149 19.5533 32.149 19.4135C32.1965 19.2737 31.721 18.9009 31.388 18.8543ZM31.721 17.3163C31.5307 17.5493 31.5783 17.8756 31.8161 18.062C32.0539 18.2484 32.7197 18.295 32.8148 18.2018C32.9099 18.062 32.7197 17.4561 32.4819 17.2697C32.2441 17.0367 31.9112 17.0833 31.721 17.3163ZM31.9587 22.5826C31.721 22.7691 31.721 23.0953 31.9112 23.3283C32.1014 23.5147 32.4343 23.5613 32.6721 23.3283C32.9099 23.1419 33.0526 22.536 32.9575 22.3962C32.8624 22.303 32.1965 22.3496 31.9587 22.5826Z" fill="#E86A0A"/>
<path d="M31.2453 18.9941C31.1977 18.9941 31.1026 18.9941 31.055 19.0407C31.0075 19.0873 30.9599 19.1339 30.9124 19.2271C30.9124 19.2737 30.9124 19.3669 30.9599 19.4135C31.0075 19.4601 31.055 19.5067 31.1502 19.5067C31.2453 19.5067 31.4831 19.4601 31.6733 19.3203C31.6733 19.3203 31.7209 19.3203 31.7209 19.2737C31.6257 19.1805 31.3879 19.0407 31.2453 18.9941ZM31.1977 20.9049C31.1502 20.9049 31.1026 20.9049 31.1026 20.9515C31.0075 20.9981 30.9599 21.1379 30.9599 21.2311C30.9599 21.2777 31.0075 21.3709 31.055 21.3709C31.1026 21.4175 31.1977 21.4175 31.2928 21.4175C31.2928 21.4175 31.3879 21.4175 31.4831 21.3243C31.6257 21.2311 31.7209 21.1379 31.816 21.0447C31.6257 20.9981 31.3404 20.9049 31.1977 20.9049ZM31.8635 17.3163C31.816 17.3163 31.816 17.3629 31.816 17.3629C31.7209 17.4561 31.7684 17.6426 31.8635 17.7358C31.9587 17.829 32.2916 17.8756 32.4818 17.8756C32.4343 17.7358 32.3391 17.4561 32.1965 17.3629C32.1013 17.2697 31.9587 17.2697 31.8635 17.3163ZM32.0062 22.6759C31.9587 22.7225 31.9111 22.8157 31.9111 22.8623C31.9111 22.9555 31.9111 23.0021 31.9587 23.0487C32.0538 23.1419 32.1965 23.1419 32.2916 23.0953C32.2916 23.0953 32.3391 23.0953 32.3391 23.0487C32.4343 22.9555 32.5294 22.6759 32.5769 22.4894C32.4343 22.4894 32.1965 22.536 32.0062 22.6759C32.0062 22.6759 32.0062 22.6292 32.0062 22.6759Z" fill="#FAB515"/>
<path d="M33.3854 18.3416C33.2427 18.528 33.0525 18.7611 32.672 18.7611C32.2916 18.7611 32.5769 19.0873 32.5294 19.5067C32.4818 19.9262 32.244 20.1592 32.0538 20.299C31.8635 20.4388 32.2916 20.532 32.4818 20.9981C32.672 21.4641 32.244 21.9302 32.5294 21.9302C32.7672 21.9302 33.1952 22.1166 33.3854 22.4894C33.5757 22.8623 33.6232 22.4428 33.6232 22.0234C33.6232 21.6039 33.5281 18.9941 33.5281 18.7145C33.4805 18.3882 33.5281 18.1552 33.3854 18.3416Z" fill="#F6A984"/>
<path d="M26.014 23.7011L23.3031 22.9088L22.2568 26.5906L23.969 30.0393L26.8225 27.6159L26.014 23.7011Z" fill="#EBF1CF"/>
<path d="M28.9152 29.6665L23.969 29.9927L25.4433 25.8449H30.2468L28.9152 29.6665Z" fill="#D5D0A8"/>
<path d="M30.2469 25.8449L25.3483 26.1712L23.3032 22.9088L28.2018 22.5826L30.2469 25.8449Z" fill="white"/>
</g>
</g>
<defs>
<filter id="filter0_d_560_2614" x="2.27661" y="2.0127" width="59.179" height="58.1852" filterUnits="userSpaceOnUse" color-interpolation-filters="sRGB">
<feFlood flood-opacity="0" result="BackgroundImageFix"/>
<feColorMatrix in="SourceAlpha" type="matrix" values="0 0 0 0 0 0 0 0 0 0 0 0 0 0 0 0 0 0 127 0" result="hardAlpha"/>
<feOffset dx="2" dy="3"/>
<feGaussianBlur stdDeviation="3"/>
<feComposite in2="hardAlpha" operator="out"/>
<feColorMatrix type="matrix" values="0 0 0 0 0 0 0 0 0 0 0 0 0 0 0 0 0 0 0.1 0"/>
<feBlend mode="normal" in2="BackgroundImageFix" result="effect1_dropShadow_560_2614"/>
<feBlend mode="normal" in="SourceGraphic" in2="effect1_dropShadow_560_2614" result="shape"/>
</filter>
<linearGradient id="paint0_linear_560_2614" x1="24.6943" y1="23.0127" x2="41.8915" y2="40.5622" gradientUnits="userSpaceOnUse">
<stop stop-color="#D0C9BD"/>
<stop offset="0.7811" stop-color="#E6E2DC"/>
<stop offset="1" stop-color="#EDEAE7"/>
</linearGradient>
<linearGradient id="paint1_linear_560_2614" x1="28.0369" y1="13.7444" x2="36.905" y2="34.5526" gradientUnits="userSpaceOnUse">
<stop stop-color="#B7D04C"/>
<stop offset="0.1651" stop-color="#B1CB4A"/>
<stop offset="0.4038" stop-color="#9DC044"/>
<stop offset="0.6872" stop-color="#7AAE3C"/>
<stop offset="1" stop-color="#429735"/>
</linearGradient>
<radialGradient id="paint2_radial_560_2614" cx="0" cy="0" r="1" gradientUnits="userSpaceOnUse" gradientTransform="translate(32.6635 25.2398) rotate(44.419) scale(15.4442 15.441)">
<stop stop-color="#B7D04C"/>
<stop offset="0.1468" stop-color="#B1CD46"/>
<stop offset="0.3587" stop-color="#9FC535"/>
<stop offset="0.5246" stop-color="#8ABD24"/>
<stop offset="0.9689" stop-color="#429735"/>
</radialGradient>
<radialGradient id="paint3_radial_560_2614" cx="0" cy="0" r="1" gradientUnits="userSpaceOnUse" gradientTransform="translate(24.1374 33.1119) rotate(44.419) scale(19.1601 19.1562)">
<stop offset="0.1471" stop-color="#DEE8B0"/>
<stop offset="0.2724" stop-color="#DCE7AA"/>
<stop offset="0.4538" stop-color="#D6E299"/>
<stop offset="0.6692" stop-color="#CCDB7C"/>
<stop offset="0.9089" stop-color="#BCD250"/>
<stop offset="1" stop-color="#B5CE3D"/>
</radialGradient>
<linearGradient id="paint4_linear_560_2614" x1="36.8217" y1="40.6483" x2="20.0928" y2="25.1611" gradientUnits="userSpaceOnUse">
<stop stop-color="#B7D04C"/>
<stop offset="0.1651" stop-color="#B1CB4A"/>
<stop offset="0.4038" stop-color="#9DC044"/>
<stop offset="0.6872" stop-color="#7AAE3C"/>
<stop offset="1" stop-color="#429735"/>
</linearGradient>
<radialGradient id="paint5_radial_560_2614" cx="0" cy="0" r="1" gradientUnits="userSpaceOnUse" gradientTransform="translate(27.9953 32.0815) rotate(-159.662) scale(15.5601 15.324)">
<stop stop-color="#B7D04C"/>
<stop offset="0.1468" stop-color="#B1CD46"/>
<stop offset="0.3587" stop-color="#9FC535"/>
<stop offset="0.5246" stop-color="#8ABD24"/>
<stop offset="0.9689" stop-color="#429735"/>
</radialGradient>
<radialGradient id="paint6_radial_560_2614" cx="0" cy="0" r="1" gradientUnits="userSpaceOnUse" gradientTransform="translate(32.4637 21.4706) rotate(-159.662) scale(19.3038 19.0109)">
<stop offset="0.1471" stop-color="#DEE8B0"/>
<stop offset="0.2724" stop-color="#DCE7AA"/>
<stop offset="0.4538" stop-color="#D6E299"/>
<stop offset="0.6692" stop-color="#CCDB7C"/>
<stop offset="0.9089" stop-color="#BCD250"/>
<stop offset="1" stop-color="#B5CE3D"/>
</radialGradient>
<radialGradient id="paint7_radial_560_2614" cx="0" cy="0" r="1" gradientUnits="userSpaceOnUse" gradientTransform="translate(36.988 22.0223) scale(3.63288 3.55994)">
<stop stop-color="#5D3743"/>
<stop offset="0.1998" stop-color="#5A3541"/>
<stop offset="0.3908" stop-color="#51313B"/>
<stop offset="0.5781" stop-color="#422831"/>
<stop offset="0.7633" stop-color="#2E1C23"/>
<stop offset="0.9452" stop-color="#160B0E"/>
<stop offset="0.9978" stop-color="#0C0506"/>
</radialGradient>
<radialGradient id="paint8_radial_560_2614" cx="0" cy="0" r="1" gradientUnits="userSpaceOnUse" gradientTransform="translate(20.7655 22.7189) scale(3.63288 3.55994)">
<stop stop-color="#5D3743"/>
<stop offset="0.1998" stop-color="#5A3541"/>
<stop offset="0.3908" stop-color="#51313B"/>
<stop offset="0.5781" stop-color="#422831"/>
<stop offset="0.7633" stop-color="#2E1C23"/>
<stop offset="0.9452" stop-color="#160B0E"/>
<stop offset="0.9978" stop-color="#0C0506"/>
</radialGradient>
<radialGradient id="paint9_radial_560_2614" cx="0" cy="0" r="1" gradientUnits="userSpaceOnUse" gradientTransform="translate(25.4869 41.4335) scale(3.63288 3.55994)">
<stop stop-color="#5D3743"/>
<stop offset="0.1998" stop-color="#5A3541"/>
<stop offset="0.3908" stop-color="#51313B"/>
<stop offset="0.5781" stop-color="#422831"/>
<stop offset="0.7633" stop-color="#2E1C23"/>
<stop offset="0.9452" stop-color="#160B0E"/>
<stop offset="0.9978" stop-color="#0C0506"/>
</radialGradient>
<radialGradient id="paint10_radial_560_2614" cx="0" cy="0" r="1" gradientUnits="userSpaceOnUse" gradientTransform="translate(37.3884 32.8548) scale(3.63279 3.55985)">
<stop stop-color="#5D3743"/>
<stop offset="0.1998" stop-color="#5A3541"/>
<stop offset="0.3908" stop-color="#51313B"/>
<stop offset="0.5781" stop-color="#422831"/>
<stop offset="0.7633" stop-color="#2E1C23"/>
<stop offset="0.9452" stop-color="#160B0E"/>
<stop offset="0.9978" stop-color="#0C0506"/>
</radialGradient>
<radialGradient id="paint11_radial_560_2614" cx="0" cy="0" r="1" gradientUnits="userSpaceOnUse" gradientTransform="translate(24.0726 32.0735) scale(3.63279 3.55985)">
<stop stop-color="#5D3743"/>
<stop offset="0.1998" stop-color="#5A3541"/>
<stop offset="0.3908" stop-color="#51313B"/>
<stop offset="0.5781" stop-color="#422831"/>
<stop offset="0.7633" stop-color="#2E1C23"/>
<stop offset="0.9452" stop-color="#160B0E"/>
<stop offset="0.9978" stop-color="#0C0506"/>
</radialGradient>
<clipPath id="clip0_560_2614">
<rect width="59" height="58" fill="white"/>
</clipPath>
</defs>
</svg>
