<?xml version="1.0" encoding="UTF-8"?>
<svg id="_Слой_1" data-name="Слой 1" xmlns="http://www.w3.org/2000/svg" xmlns:xlink="http://www.w3.org/1999/xlink" viewBox="0 0 566.93 566.93">
  <defs>
    <style>
      .cls-1 {
        fill: #d0cfe2;
      }

      .cls-2, .cls-3, .cls-4 {
        fill: #fff;
      }

      .cls-5, .cls-3 {
        opacity: .5;
      }

      .cls-5, .cls-6, .cls-7 {
        fill: #ff8b4a;
      }

      .cls-8 {
        fill: url(#_Безымянный_градиент_9);
      }

      .cls-9, .cls-10 {
        opacity: .6;
      }

      .cls-11, .cls-4 {
        opacity: .2;
      }

      .cls-11, .cls-12, .cls-13 {
        fill: #590000;
      }

      .cls-14 {
        fill: #c61700;
      }

      .cls-15 {
        fill: #8992a5;
      }

      .cls-16 {
        fill: #e6dded;
      }

      .cls-10, .cls-17 {
        fill: #dbd3e2;
      }

      .cls-18 {
        opacity: .8;
      }

      .cls-19 {
        fill: #20223a;
      }

      .cls-19, .cls-13 {
        opacity: .3;
      }

      .cls-20 {
        fill: #ebe8f7;
      }

      .cls-17 {
        opacity: .4;
      }

      .cls-6, .cls-21, .cls-12 {
        opacity: .25;
      }

      .cls-22 {
        fill: #a01300;
      }

      .cls-7 {
        opacity: .33;
      }

      .cls-21 {
        fill: #42435b;
      }

      .cls-23 {
        fill: #c3cadb;
      }

      .cls-24 {
        fill: #fefefe;
      }
    </style>
    <radialGradient id="_Безымянный_градиент_9" data-name="Безымянный градиент 9" cx="272.73" cy="324.37" fx="272.73" fy="324.37" r="233.09" gradientTransform="translate(0 199.13) scale(1 .61)" gradientUnits="userSpaceOnUse">
      <stop offset="0" stop-color="#000"/>
      <stop offset="1" stop-color="#fff" stop-opacity="0"/>
    </radialGradient>
  </defs>
  <ellipse class="cls-8" cx="272.73" cy="397.27" rx="233.09" ry="142.38"/>
  <g>
    <path class="cls-1" d="m566.88,233.5c.01-.33.05-.66.05-.99,0-42.51-126.91-76.96-283.46-76.96S0,190,0,232.51c-.03,2.4-.25,36.5,17.6,63.15,3.67,5.48,10.57,11.3,20.41,17.09,1.07,3.64,2.69,7.71,4.54,11.97.66,1.52,1.19,2.69,1.72,3.86.17.37.33.73.5,1.11.09.2.17.39.27.59,36.18,81.37,111.82,121.19,109.6,119.93.2.5.4,1,.61,1.49,1.54,3.64,4.45,10.08,12.02,16.96,3.37,3.06,7.67,6.21,13.19,9.24-2.74-1.45-5.19-2.95-7.36-4.49,16.46,13.62,48.08,26.94,110.34,26.94,43.73,0,71.62-4.54,89.91-11.58,11.27-4.34,18.88-9.62,24.33-15.38,0,0,8.67-9.16,13.95-21.69.21-.5.41-.99.6-1.49,57.11-32.39,92.13-82.42,109.61-119.93.5-1.07.9-1.97,1.31-2.88,1.32-.49,2.61-.98,3.89-1.48-1.27.49-2.57.98-3.89,1.48.18-.4.37-.81.55-1.21.1-.22.2-.45.3-.67,2-4.55,3.73-8.89,5.2-12.94,9.67-5.73,16.48-11.48,20.11-16.91,17.48-26.1,17.63-59.34,17.59-62.85,0,.23-.03.46-.04.69Z"/>
    <g>
      <path class="cls-22" d="m519.71,295.97c-14.66,41.06-56.43,110.83-134.71,145.87-29.4,13.16-63.94,19.59-104.13,19.59s-74.56-6.4-103.91-19.5c-78.41-35.01-120.24-104.87-134.92-145.97-5.44-20.9-5.44-39.54-5.44-48.45l483.11,6.3c4.96,16.94,0,42.15,0,42.15Z"/>
      <path class="cls-14" d="m36.64,253.35c-6.98-17.8,11.94-61.39,80.08-74.93,237.62-7.9,264.11-7.13,323.54-3.53,58.31,3.53,79.13,43.4,80.61,83.97-53.43,114.81-440.05,107.22-484.23-5.5Z"/>
      <path class="cls-11" d="m481.51,189.89c-5.85.53-8.83,8.22-9.44,13.17-.86,6.97.45,14.02-.34,20.98-1.6,13.95-9.61,26.84-20.36,35.66-13.7,11.23-31.39,16.56-48.98,18.68-43.36,5.23-86.73-7.56-130.35-9.8-39.33-2.02-78.71,4.56-118.04,2.67-18.39-.88-37.05-3.73-53.51-11.97-16.47-8.24-30.59-22.51-35.34-40.3-.72-2.7-1.7-5.98-4.43-6.61-1.81-.42-3.62.58-5.15,1.64-11.41,7.92-21,22.77-15.32,36.81,43.52,107.44,424.36,114.68,476.99,5.24-.17-4.63-.62-9.25-1.38-13.82-1.7-10.26-4.97-20.32-10.22-29.34-2.63-4.52-5.75-8.76-9.33-12.59-2.86-3.07-7.91-9.09-12.1-10.18-.96-.25-1.86-.32-2.7-.25Z"/>
      <path class="cls-13" d="m94.05,196.8c.02,6.48,3.12,11.32,5.29,16.87,2.57,6.59,6.6,13.14,11.34,18.38,5.07,5.61,11.44,9.87,18.32,12.95,15.44,6.92,32.93,6.67,49.44,5.19,8.15-.73,16.27-1.82,24.4-2.67,9-.94,18.04-1.63,27.07-2.35,19.62-1.58,39.14-2.47,58.79-.88,19.2,1.55,38.27,3.82,57.57,3.56,11.97-.16,25.09.34,36.82-1.37,12.6-1.84,24.83-6,36.89-9.96,8.16-2.68,16.45-5.42,23.51-10.32,8.13-5.65,14.22-13.95,18.08-23.06,2.16-5.1,3.67-10.75,2.52-16.17-2.46-11.52-14.34-11.5-23.82-12.08-59.43-3.6-85.92-4.37-323.54,3.53-7.63,1.52-16.93,2.92-20.99,10.65-1.24,2.36-1.66,5.06-1.67,7.73Z"/>
      <path class="cls-14" d="m190.18,145.1c-90.16,11.34-110.47,57.43-73.92,84.38,36.55,26.94,97.08-4.96,163.07,5.67,65.99,10.64,195.96-4.96,181.33-56.72-14.62-51.76-108.03-39.71-108.03-39.71l-162.46,6.38Z"/>
      <path class="cls-11" d="m456.98,178.19c-3.22-10.98-10.94-19.59-20.65-25.39-9.16-5.47-20.38-11.63-29.58-3.47-1.43,1.27-2.77,2.7-3.51,4.45-1.37,3.23-.49,6.98.96,10.17,1.45,3.19,3.47,6.15,4.47,9.51,1.98,6.62-.33,13.97-4.57,19.43-4.24,5.46-10.21,9.29-16.29,12.59-7.18,3.89-14.8,7.21-22.87,8.49-6.92,1.1-13.98.68-20.96.19-23.26-1.62-46.52-3.91-69.86-3.5-22.08.39-43.41,6.49-64.98,11.01-15.97,3.35-31.95,5.24-48.29,4.66-14.16-.5-29.73-2.23-42.13-9.65-2.86-1.71-5.62-3.57-7.93-6-1.8-1.89-2.93-4.23-4.61-6.21-1.21-1.42-3.42-2.59-5.16-2.25,1.1,8.77,6.77,17.24,16.75,24.31,36,25.52,95.62-4.7,160.62,5.37,65,10.08,193-4.7,178.6-53.74Z"/>
      <path class="cls-13" d="m190.39,170.95c7.35,5.98,14.95,11.61,23.59,15.61,10.07,4.65,20.89,7.52,31.86,9.06,22.43,3.15,45.42,1.1,67.51-3.43,10.61-2.18,21.05-5.02,31.36-8.34,11.14-3.58,21.47-7.38,29.89-15.88,3.04-3.07,6.38-6.82,7.24-11.19.43-2.18.14-4.43-.15-6.63-.54-4.05-1.34-8.56-4.67-10.94-1.32-.95-2.92-1.44-4.52-1.75-6.56-1.27-13.28.99-19.88,1.25-.25,0-162.46,6.38-162.46,6.38-5.25.66-9.12,2.02-10.23,7.97-1.57,8.37,4.72,13.22,10.45,17.88Z"/>
      <path class="cls-14" d="m286.01,72.31c-.98,5.74-13.23,12.01-7.68,29.68,5.56,17.68,23.91,20.8,50.58,18.77,26.68-2.03,55.92,6.26,48.44,35.18-7.48,28.92-124.56,50.19-176.56,18.36-46.47-28.44,1.11-77.15,26.59-93.61,34.12-22.03,59.38-12.78,58.63-8.39Z"/>
      <path class="cls-11" d="m277.69,78.92c1.39-1.95,2.88-3.84,4.34-5.73.36-.47.69-1.23.2-1.57-.18-.12-.41-.13-.63-.12-3.79.15-6.44,3.62-8.82,6.57-3.5,4.34-7.57,8.2-11.02,12.57-4.83,6.13-10.1,16.19-6.46,24.01,3.18,6.84,11.37,10.35,18.47,11.17,5.99.69,14.03.46,19.74-1.73,5.72-2.2-.21-3.28-3.21-4.37-2.75-1-5.44-2.25-7.85-3.92-4.25-2.94-7.48-7.05-9.01-12.02-2.01-6.51-2.34-12.85.73-19.09,1-2.02,2.21-3.92,3.52-5.76Z"/>
      <path class="cls-11" d="m367.06,133.37c-1.28,1-1.3,4.45-1.71,6.81-1.65,9.38-9.24,15.4-17.26,19.53-9.25,4.76-19.3,8.24-29.31,11-11.15,3.07-22.65,5.05-34.23,5.31-18.23.41-37.91-3.71-52.94-14.53-6.49-4.67-12.07-10.85-14.86-18.44-3.1-8.45-2.64-18.11.66-26.42,3.71-9.33,10.5-16.57,17.5-23.54,3.59-3.58,7.55-7.64,8.94-12.67,1.96-7.07-12.36,2.34-13.87,3.33-24.78,16.23-71.5,60.82-26.48,88.59,50.37,31.08,162.29,9.33,171.42-18.56,2.09-6.39,1.19-14.24-4.02-19-1.92-1.75-3.09-2-3.83-1.42Z"/>
      <path class="cls-6" d="m351.45,133.58c-5.54-4.88-14.51-4.9-21.38-4.23-15.83,1.56-30.45,7.94-46.46,8.66-8.82.4-18.13-.5-25.47-5.41-3.19-2.14-5.88-4.96-9.11-7.04-3.23-2.08-7.32-3.38-10.91-2.02-4.69,1.77-6.77,7.34-6.95,12.34-.34,9.68,4.69,19.38,12.8,24.68,2.67,1.75,5.62,3.02,8.55,4.29,25.35,10.99,55.57,5.72,80.46-4.42,8.11-3.3,30.86-15.96,18.48-26.87Z"/>
      <path class="cls-7" d="m264.76,70.37c-.85.24-1.67.55-2.47.91-3.21,1.44-6,3.67-8.62,6.01-2.21,1.97-4.36,4.07-5.98,6.54-1.69,2.58-2.78,5.49-3.83,8.39-1,2.76-2.01,5.68-1.93,8.66.06,2.13,1.94,4.71,4.22,2.59,1.81-1.68,3.12-4.74,4.69-6.72,3.45-4.35,6.97-8.88,10.76-12.92,3.24-3.45,7.59-5.57,11.23-8.54,1.17-.95,2.36-2.49,1.64-3.81-.37-.69-1.16-1.03-1.91-1.25-2.54-.75-5.25-.59-7.81.14Z"/>
      <path class="cls-6" d="m218.92,198.33c-9.69.54-19.48,1.71-29.17.65-8.62-.94-17.51-3.65-24.07-9.56-3.36-3.03-6.79-7.39-6.76-12.16.03-4.26,3.03-7.88,2.41-12.23-1.75-12.33-17.94-3.87-23.84-.78-5.21,2.73-10.1,6.04-14.32,10.16-2.39,2.34-4.63,4.92-5.97,7.98-3.76,8.57.6,19.04,7.94,24.86,7.34,5.81,16.92,7.89,26.22,9,21.41,2.58,43.3.94,64.1-4.72,3.54-.96,20.32-3.81,16.72-11.1-1.94-3.93-9.85-2.29-13.25-2.1Z"/>
      <path class="cls-6" d="m385.17,200.54c.79-.5,1.56-1.01,2.33-1.53,5.22-3.55,10.24-7.69,13.4-13.16,3.16-5.47,4.17-12.5,1.26-18.11-1.23-2.38-3.08-4.38-4.61-6.59-1.53-2.21-2.77-4.8-2.52-7.47.13-1.33.62-2.6.74-3.92.13-1.33-.22-2.84-1.35-3.54-1.03-.64-2.44-.4-3.43.31-.99.71-1.65,1.79-2.2,2.87-2.28,4.53-3.18,9.61-4.72,14.45-2.97,9.37-10.1,14.86-18.54,19.38-7.84,4.2-16.53,6.55-25.19,8.58-9.15,2.15-18.38,3.98-27.65,5.5-2.9.47-5.81.92-8.61,1.8-.39.12-.8.27-1.04.61-.29.4-.23.96-.09,1.44,1.04,3.53,5.54,5.28,8.72,6.11,4.8,1.27,9.74,1.97,14.69,2.3,9.89.65,19.81-.17,29.67-1.05,7.89-.71,15.94-1.47,23.17-4.71,2.07-.93,4.06-2.05,5.98-3.26Z"/>
      <path class="cls-6" d="m442.35,232.03c-16.2,10.64-36.26,15.86-55.69,18.98-19.17,3.08-38.59,4.61-58,4.59-18.32-.01-36.63-1.4-54.74-4.16-8.61-1.31-16.63-2.92-25.46-3.05-9.06-.13-18.12.42-27.14,1.22-21.62,1.93-43.25,5.3-64.93,4.09-9.59-.54-19.21-1.99-28.19-5.41-10.63-4.04-20.29-10.92-26.94-20.16-2.46-4.92-5.52-9.05-7.15-14.45-1.51-5.01-1.79-10.36-3.01-15.52-.26-1.08-.53-2.19-1.19-3.08-1.2-1.61-3.47-2.13-5.45-1.77-1.98.36-3.74,1.44-5.45,2.51-3.01,1.9-6,3.86-8.69,6.19-1.78,1.54-3.5,3.37-4.03,5.67-.56,2.42.28,4.92,1.22,7.21,3.77,9.16,9.41,17.54,16.44,24.51,10.37,10.27,24.81,17.88,38.85,21.77,14.67,4.06,30.1,4.8,45.23,3.89,30.6-1.84,60.59-9.01,91.39-6.12,31.59,2.97,62.37,11.55,94.02,14.4,15.41,1.39,30.97,1.73,46.38.18,16.1-1.62,32.28-5.01,44.98-15.77,10.12-8.57,17.25-20.6,19.9-33.6.33-1.62.59-3.32.1-4.89-.49-1.57-1.94-2.97-3.59-2.85-1.52.11-2.65,1.37-3.65,2.51-4.49,5.1-9.63,9.42-15.22,13.09Z"/>
      <path class="cls-12" d="m269.3,90.97c.67-2.4.4-3.86-1.8-2.17-1.37,1.06-2.24,3.5-2.95,5.01-1.43,3.07-3.02,6.51-3.66,9.85-1.2,6.29.49,12.33,6.64,15.18,1.42.66,2.95,1.05,4.47,1.41,2.34.56,4.73,1.07,7.12.9.61-.04,1.31-.2,1.55-.76.36-.81-.54-1.57-1.27-2.07-1.28-.87-2.47-1.92-3.57-3.12-5.71-6.25-8.74-16.43-6.55-24.25Z"/>
      <path class="cls-12" d="m262.29,184.05c2.37.12,9.01.75,10.6-1.69,1.78-2.74-4.75-2.74-6.48-2.98-16.87-2.29-33.01-9.68-45.76-20.95-9.36-8.27-13.39-19.36-10.95-31.79,1.08-5.52,3.26-10.75,5.99-15.65,1.34-2.41,2.95-4.65,4.31-7.04,1.09-1.9,3.08-4.47,3-6.77-.02-.59-.45-1.21-1.04-1.23-.32-.01-.62.15-.91.32-10.91,6.32-20.47,19.14-25.53,30.57-5.72,12.92-2.96,27.49,7.2,37.37,5.37,5.22,12.28,8.57,19.28,11.24,12.87,4.91,26.52,7.91,40.29,8.61Z"/>
      <path class="cls-12" d="m265.97,181.35c-.21,0-.21.33,0,.33s.21-.33,0-.33Z"/>
      <path class="cls-12" d="m371.4,140.12c-.17-.38-.39-.74-.66-1.06-.3-.36-.71-.68-1.19-.68-.98,0-1.38,1.24-1.54,2.2-1.38,7.98-6.19,13.77-12.55,18.54-12.55,9.42-28.02,14.12-43.45,16.98-2.79.52-5.7.92-8.37,1.91-1.89.7-2.54,2.42-.25,3.25,1.15.42,2.44.4,3.65.47,9.46.56,18.82-1.95,27.85-4.85,6.76-2.17,13.47-4.62,19.71-8.03,5.88-3.22,12.84-7.68,15.75-13.95,1.82-3.92,2.37-8.21,1.67-12.5-.13-.78-.3-1.57-.63-2.29Z"/>
      <path class="cls-12" d="m448.48,178.19c-.12-4.61-1.29-9.18-4.04-12.63-4.44-5.56-10.63-10.82-18.11-11-1.82-.47-3.66-.59-4.97.05-2.18.08-4.14,1.24-5.35,3.45-2.97,5.42.57,11.9.59,17.61.03,6.13-1.36,12.27-4.07,17.78-3.67,7.46-9.75,13.72-17.11,17.6-9.67,5.1-21.18,6.24-31.94,6.87-12.5.73-25.16-.45-37.63-1.26-22.26-1.45-44.59-2.75-66.76.16-21.92,2.87-43.3,8.24-65.07,11.87-12.22,2.04-24.66,3.34-37.07,2.77-6.21-.29-12.39-1.06-18.44-2.49-4.41-1.04-9-3.76-13.49-4.18-3.56-.33-2.85,2.06-.25,3.32,2.6,1.26,5.11,2.47,7.89,3.32,5.35,1.64,10.93,2.4,16.47,3.07,11.02,1.33,22.17.97,33.16-.42,16.39-2.07,32.49-5.79,49-7.32,11.82-1.1,23.7-1.46,35.57-1.09,11.64.37,22.74,2.61,34.32,3.58,6.36.54,12.75.78,19.14.75,5.86-.03,11.64.7,17.56.64,22.54-.22,44.41-4.88,66.1-10.69,11.55-3.1,23.46-6.66,32.36-14.63,5.24-4.69,9.22-10.84,11.02-17.64.77-2.92,1.21-6.21,1.12-9.48Z"/>
      <path class="cls-12" d="m500.97,216.12c-2.9-7.49-8.96-12.93-15.35-4.41-3.79,5.06-3.06,12.97-4.79,18.8-1.93,6.49-4.64,12.69-8.25,18.43-7.17,11.39-17.47,20.46-29.04,27.19-23.32,13.57-51.66,18.58-78.4,17.38-11.87-.54-23.81-4.01-35.41-6.58-12.76-2.82-25.61-5.39-38.63-6.69-17.95-1.79-36.15-1.5-54.07.52-17.54,1.98-34.87,5.89-52.53,6.71-17.41.81-34.82-1.39-51.49-6.5-15.72-4.82-31.05-12.14-43.55-22.96-5.84-5.05-11.3-10.52-16.16-16.52-4.9-6.04-8.68-12.79-13.53-18.8-.66-.82-1.68-1-2.63-.77-.51-.84-1.53-1.33-2.61-.68-11.7,7.13-16.2,28.52-3.61,37,3.32,4.69,7.42,8.76,11.29,11.64,13.62,10.12,29.47,17.68,45.09,24.14,32.18,13.29,66.64,20.07,101.17,23.62,35.55,3.65,71.54,4.03,107.24,2.84,37.07-1.23,74.46-5.08,110.16-15.54,10.28-3.01,21.06-6.03,30.72-10.72,8.39-4.08,15.62-5.02,24.7-7.29,8.23-2.05,15.31-7.29,21.43-13.16,2.64-2.54,5.22-5.31,6.53-8.74,1.69-4.41,1.09-9.33.32-13.99-1.87-11.32-4.56-22.51-8.06-33.43-.16-.51-.34-1.02-.53-1.51Z"/>
      <path class="cls-7" d="m147.49,165.67c-9.57-1.71-19.88,11.61-20.69,19.96-.82,8.45,5.56,16.39,12.66,20.13,6.72,3.54,14.53,4.41,22.13,4.47,6,.05,12-.37,17.93-1.25,2.37-.35,5.61-.34,7.8-1.05,2.2-.7,1.47-3.16-.46-3.97-.88-.37-1.85-.45-2.79-.53-8.92-.8-20.21-1.82-27.01-8.33-5.67-5.43-11.32-15.3-6.32-23.09,1.68-2.62-.36-5.83-3.25-6.34Z"/>
      <path class="cls-7" d="m338.84,135.15c-3.49-.99-7.87,1.13-11.17,2.24-3.88,1.31-7.76,2.62-11.63,3.93-4.85,1.64-9.7,3.28-14.7,4.35-15.77,3.38-32.38.94-47.51-4.62-3.64-1.34-7.36-2.88-11.24-2.72-.5.02-1.04.09-1.38.45-.3.32-.37.78-.4,1.22-.3,4.73,2.7,9.06,6.13,12.33,9.98,9.55,24.28,13.57,38.08,13.48,13.81-.09,27.31-3.91,40.41-8.27,6.92-2.3,17.77-7.33,18.75-15.74.36-3.14-2.45-5.84-5.32-6.67Z"/>
      <path class="cls-7" d="m381.44,179.35c-.23.23-.46.46-.7.68-2.53,2.35-5.35,4.39-8.33,6.14-10.57,6.22-22.61,8.43-34.35,11.23-1.1.26-2.42.85-2.45,1.98-.02.58.34,1.12.8,1.48.62.5,1.4.74,2.17.94,11.64,3.08,23.76.27,34.99-3.13,1.93-.59,3.87-1.18,5.74-1.94,5.04-2.03,10.29-6.26,12.77-11.17,1.95-3.87,2.53-8.42,1.61-12.65-.29-1.35-.93-2.87-2.26-3.22-1.02-.27-2.08.26-2.94.88-3.14,2.26-4.36,6.03-7.06,8.77Z"/>
      <path class="cls-24" d="m267.26,72.39c-3.37.32-6.21,1.59-8.74,3.85-1.43,1.27-5.3,4.86-3.85,7.06,1.51,2.3,4.21-1.02,5.4-2,2.6-2.14,5.47-4,8.22-5.94,1.28-.9.63-3.13-1.02-2.97Z"/>
      <path class="cls-7" d="m131.12,254.41c-10.7-2.94-20.68-8.6-28.76-16.15-8.27-7.73-14.19-20.3-18.12-30.71-1.07-2.82-2.67-6.2-5.68-6.32-.96-.04-1.9.3-2.74.76-5.96,3.25-4.67,10.22-1.85,15.22,3.63,6.45,8.01,12.47,13.01,17.92,2.44,2.66,4.93,5.2,7.53,7.57,6.21,5.66,13.06,10.31,21.43,13.05,4.7,1.54,9.56,2.98,14.49,3.55,1.77.21,5.11.78,6.67-.44,3.06-2.39-4.18-3.95-5.98-4.45Z"/>
      <path class="cls-7" d="m446.09,238.76c-8.74,3.17-16.53,8.16-25.43,11.08-4.7,1.54-9.34,3.25-14.07,4.68-5.33,1.61-10.9,2.74-16.15,4.48-1.56.51-1.14,2.53.37,2.72,5.71.69,12.01.69,17.78.59,5.66-.1,11.23-.44,16.7-2.04,9.54-2.79,20.05-7.41,24.41-16.82,1.05-2.26-.73-5.72-3.6-4.68Z"/>
      <path class="cls-5" d="m152.27,196.2c-1.82-2.72-4.55-4.15-6.73-6.64-3.51-4.01-3.35-8.58-4.58-13.29-.42-1.63-1.92-3.16-3.6-1.78-4.87,4.04-4.62,10.79-2.24,15.77,2.61,5.46,6.58,10.31,13.84,10.9,2.97.24,4.65-2.96,3.3-4.97Z"/>
      <path class="cls-24" d="m301.54,151.24c-3.43-.27-6.87.84-10.23,1.35-2.09.32-2.6,3.71-.41,4.32,4.05,1.13,8.44,1.42,12.05-1.07,1.9-1.3.73-4.44-1.41-4.61Z"/>
      <path class="cls-24" d="m333.65,141.42c-3.74-.85-7.95,2.23-11.36,3.58-4.22,1.67-8.57,3.09-12.85,4.63-2.57.93-.95,4.26,1.31,4.17,4.99-.21,9.57-1.25,14.27-2.89,3.76-1.3,8.84-2.6,10.44-6.58.58-1.44-.49-2.61-1.81-2.91Z"/>
      <path class="cls-24" d="m378.99,187.15c-1.38.11-2.35.88-3.52,1.56-1.11.65-2.13,1.26-3.37,1.65-1.53.48-1.26,2.76.38,2.81,2.87.08,7.22-.55,8.28-3.7.36-1.07-.61-2.42-1.77-2.32Z"/>
    </g>
    <g class="cls-9">
      <path class="cls-16" d="m470.97,174.8l-11.46-2.53c.07.52,1.48,5.21,1.53,5.73,1.36.46,10.07,2.92,11.08,3.48,47.71,12.11,77.2,28.78,77.2,47.19,0,37-119.02,66.99-265.86,66.99S17.59,265.67,17.59,228.67c0-19.89,34.42-37.75,89.05-50.02,1.37-2.33,3.01-4.46,4.84-6.44.03-.3.06-.6.09-.9C43.76,185.38,0,207.55,0,232.51,0,275.01,126.91,309.46,283.46,309.46s283.46-34.45,283.46-76.95c0-22.98-37.12-43.61-95.96-57.71Z"/>
    </g>
    <path class="cls-17" d="m549.33,295.66c-18.46,27.59-118.41,63.48-265.86,63.48s-247.41-35.89-265.87-63.48C-.87,268.07.01,232.51.01,232.51c0,42.5,126.9,76.95,283.46,76.95s282.86-34.3,283.45-76.66c.04,3.51-.11,36.75-17.59,62.85Z"/>
    <path class="cls-17" d="m529.21,312.57c-15.08,41.8-58.06,112.85-138.61,148.53-30.25,13.39-65.79,19.95-107.15,19.95s-76.71-6.52-106.92-19.85c-80.67-35.65-123.72-106.79-138.83-148.63,1.92,1.14,3.96,2.28,6.11,3.41,42.04,22.21,126.97,43.16,239.64,43.16s190.28-19.2,234-40.31c4.3-2.07,8.22-4.17,11.75-6.26Z"/>
    <path class="cls-10" d="m412.26,450.19c-.2.5-.4,1-.61,1.5-5.29,12.52-11.51,25.93-38.28,34.74-18.29,6.02-46.18,9.89-89.91,9.89-70.58,0-101.78-14.62-116.17-27.68-7.58-6.89-10.48-13.32-12.02-16.96-.21-.49-.41-.99-.61-1.49,6.96,3.95,14.24,7.64,21.87,11.01,30.21,13.33,65.67,19.85,106.92,19.85s76.9-6.56,107.15-19.95c7.55-3.35,14.76-7,21.66-10.92Z"/>
    <path class="cls-23" d="m373.36,486.52c11.27-3.71,18.88-8.23,24.33-13.14-5.45,5.77-13.06,11.05-24.33,15.38-18.29,7.04-46.18,11.57-89.91,11.57-62.26,0-93.88-13.31-110.34-26.94,16.46,11.65,48.08,23.02,110.34,23.02,43.73,0,71.62-3.88,89.91-9.9Z"/>
    <path class="cls-19" d="m514.7,330.64c1.66-1.35,3.18-2.87,4.48-4.57,1.78-2.33,2.44-4.62,3.44-7.26.22-.57.78-3.22,1.28-3.46-20.33,10.02-99.32,43.79-240.43,43.79s-215.82-31.98-238.68-42.94c1.08,2.38,1.98,4.84,3.54,7.04,1.88,2.66,3.95,5.33,6.37,7.52,3.59,3.24,7.98,5.31,12.36,7.31,41.94,12.03,129.17,28.14,216.41,28.14,10.72,0,21.44-.24,32.15-.7,20.22-.86,40.4-2.46,60.51-4.69,18.36-2.04,36.67-4.6,54.88-7.71,15.26-2.6,30.46-5.57,45.53-9.07,6.06-1.41,12.1-2.9,18.1-4.52,2.93-.8,5.66-1.25,8.51-2.41,3.23-1.32,6.39-2.83,9.28-4.79.78-.53,1.55-1.09,2.28-1.69Z"/>
    <path class="cls-21" d="m412.26,450.19c-.2.5-.4,1-.61,1.5-.72,1.72-1.46,3.45-2.27,5.18-5.11,10.93-12.9,21.96-36.01,29.57-8.01-5.22-18.92-8.21-30.19-5.38-95.77,18.2-146.08-12.22-175.89-12.4-4.35-3.95-7.16-7.76-9.06-10.96-1.41-2.39-2.31-4.45-2.97-6-.21-.49-.41-.99-.61-1.49,6.96,3.95,14.24,7.64,21.87,11.01,30.21,13.33,65.67,19.85,106.92,19.85s76.9-6.56,107.15-19.95c7.55-3.35,14.76-7,21.66-10.92Z"/>
    <path class="cls-16" d="m283.46,309.46c-138.15,0-253.22-26.34-278.07-61.95,24.85,41.11,139.87,72.2,278.02,72.2s253.16-31.09,278.02-72.2c-24.85,35.6-139.82,61.95-277.97,61.95Z"/>
    <g class="cls-18">
      <path class="cls-15" d="m549.33,295.51c-18.46,27.59-118.41,63.48-265.86,63.48s-247.41-35.89-265.87-63.48c-.15-.22-.3-.44-.44-.67,27.3,26.13,123.59,59.63,249.32,59.63,288.26,0,289.97-94.73,293.59-105.22,4.41-5.35,6.77-10.9,6.85-16.59.04,3.51-.11,36.75-17.59,62.85Z"/>
    </g>
    <path class="cls-4" d="m530.29,270.37c-25.56,24.66-111.73,89.69-300.35,77.61C-1.85,333.13,5.42,247.53,5.42,247.53c4.85,6.66,12.86,13.01,23.61,18.94,46.2,25.47,142.78,42.99,254.44,42.99,55.74,0,107.74-4.37,151.57-11.92,39.4-6.79,72.21-16.13,95.25-27.18Z"/>
    <path class="cls-4" d="m435.05,297.55c-42.91,24.85-112.28,48.12-217.11,40.3-123.03-9.18-170.57-44.37-188.9-71.38,15.21,8.39,35.9,15.91,60.79,22.23,50.67,12.88,118.78,20.76,193.65,20.76,30.82,0,60.48-1.34,88.26-3.81,22.47-1.99,43.7-4.73,63.31-8.11Z"/>
    <path class="cls-4" d="m371.74,305.66c-33.62,15.32-82.47,27.19-150.64,22.1-71.81-5.36-110.47-22.14-131.27-39.05,50.67,12.88,118.78,20.76,193.65,20.76,30.82,0,60.48-1.34,88.26-3.81Z"/>
    <path class="cls-4" d="m322.95,431.72c-.99-.92-2.06-1.76-3.17-2.49-5.41-3.53-11.87-5.02-18.2-6.29-30.36-6.07-61.32-8.38-91.96-12.79-30.64-4.41-61.38-11.07-88.95-25.14-8.78-4.48-17.47-9.78-27.23-11.15-2.53-.35-5.29-.38-7.4,1.05-11.66,7.93,48.05,54.25,55.96,59.4,15.06,9.81,31.71,17.4,48.72,23.14,20.05,6.76,41.39,11.69,62.44,13.95,19.88,2.14,40.13.25,58.49-8.03,7.35-3.31,17.06-9.11,17.49-18.17.24-5.12-2.37-9.96-6.17-13.5Z"/>
    <path class="cls-4" d="m283.27,445.18c-.65-.57-1.36-1.09-2.11-1.55-3.62-2.24-8.06-3.4-12.41-4.42-20.87-4.88-42.32-7.7-63.46-11.67-21.14-3.97-42.26-9.21-60.88-18.44-5.93-2.94-11.76-6.34-18.5-7.58-1.74-.32-3.67-.47-5.19.23-8.43,3.88,31.29,32.76,36.58,36.03,10.09,6.24,21.37,11.31,32.98,15.36,13.68,4.77,28.33,8.58,42.88,10.87,13.75,2.17,27.9,2.1,41-1.64,5.24-1.5,12.23-4.27,12.88-9.33.37-2.86-1.26-5.7-3.76-7.87Z"/>
    <path class="cls-19" d="m412.26,450.19c-.2.5-.4,1-.61,1.5-.72,1.72-1.46,3.45-2.27,5.18-80.09,39.07-191.29,29.04-251.14.82-1.41-2.39-2.31-4.45-2.97-6-.21-.49-.41-.99-.61-1.49,6.96,3.95,14.24,7.64,21.87,11.01,30.21,13.33,65.67,19.85,106.92,19.85s76.9-6.56,107.15-19.95c7.55-3.35,14.76-7,21.66-10.92Z"/>
    <path class="cls-21" d="m283.46,359.14c-112.67,0-197.6-20.95-239.64-43.16,5.02,12.97,14.71,34.81,36.67,43.01,15.42,5.75,49.8,10.87,65.97,13.56,16.97,2.83,33.95,5.65,50.92,8.48,17.31,2.88,34.65,5.57,52,8.27,18.6,2.89,38.14,4.01,55.4,12.21,16.48,7.83,28.67,22.08,40.48,35.53,6.15,7,10.62,9.69,19.82,11.95,18.82,4.62,40.83-1.45,56.36-12.49,16.82-11.96,32.47-23.42,46.23-38.95,11.36-12.81,21.44-26.75,30.79-41.09,4.84-7.43,9.73-15.03,13.53-23.06,2.04-4.32,3.49-8.73,4.8-13.18.24-.45.47-.91.69-1.37-43.72,21.11-126.15,40.31-234,40.31Z"/>
    <path class="cls-21" d="m355.35,396.19c7.81,4.38,15.91,8.23,24.6,10.5,3.41.89,6.87,1.49,10.36,1.84,23.44-2.94,45.97-14.95,62.46-31.41,12.42-12.39,22.64-27.68,28.81-44.33-46.84,14.92-114.91,26.36-198.13,26.36-94.35,0-169.24-14.69-215.79-32.51,6.74,10.11,19.3,15.78,30.31,19.73,18.13,6.51,37.55,9.82,56.58,12.4,39.91,5.41,80.25,6.88,120.13,12.44,19.19,2.67,38.94,5.8,57.1,12.77,8.36,3.2,15.78,7.86,23.55,12.22Z"/>
    <path class="cls-2" d="m279.82,314.5c-4.77-.65-9.05-1.39-13.92-1.51-5.22-.14-10.43-.36-15.65-.49-10.76-.27-21.5-.81-32.24-1.51-10.4-.68-20.84-1.39-31.18-2.75-5.18-.68-10.35-1.43-15.54-2-5.55-.61-10.94-.48-16.47-.79-.64-.04-.76.95-.15,1.11,5.1,1.27,9.85,2.87,15.09,3.68,5.03.77,10.06,1.34,15.12,1.82,10.72,1.02,21.41,2.25,32.14,3.14,10.41.86,20.83,1.45,31.26,1.94,5.54.26,11.08.32,16.63.35,5.25.02,9.77-.63,14.9-1.34.8-.11.81-1.52,0-1.63Z"/>
    <path class="cls-2" d="m325.56,312.22c-6.8-2.07-15.48.69-22.35,1.5-1.14.13-1.66,1.96-.3,2.21,7.1,1.31,16.48,3.34,23.05-.62,1.26-.76.98-2.66-.4-3.08Z"/>
    <path class="cls-2" d="m236.23,446.8c.08-.51,0-1.04-.26-1.56-.93-1.78-3.47-2.85-5.81-3.07-25.63-2.42-53.37-13.51-58.43-15.8-1.76-.79-2.95-1.76-4.76-.4-4.57,3.42,35.79,28.19,64.67,24.53,2.28-.29,4.33-1.94,4.6-3.69Z"/>
    <path class="cls-2" d="m296.57,492.15c-8.17-.98-16.37-.59-24.58-.83-7.88-.23-15.75-.78-23.58-1.66-8.27-.93-16.56-2.16-24.69-3.93-8.07-1.76-15.75-4.36-23.99-5.47-1.5-.2-2.86,1.94-1.16,2.74,7.79,3.65,15.68,5.05,24.07,6.61,7.93,1.48,15.86,2.84,23.88,3.77,16.15,1.87,34.26,3.93,50.22.06.78-.19.51-1.21-.17-1.29Z"/>
    <path class="cls-4" d="m541.06,273.29c-3.24,3.87-7.35,7.24-10.99,10.75-3.69,3.56-7.62,6.95-11.65,10.11-4.06,3.18-8.37,6.05-12.82,8.63-4.23,2.45-9.15,4.44-12.78,7.74-.95.87-.22,2.61,1.06,2.56,9.95-.38,20.59-8.38,28.25-14.12,4.13-3.1,7.95-6.46,11.51-10.2,4.02-4.23,6.66-8.76,9.92-13.54,1.01-1.48-1.33-3.32-2.5-1.93Z"/>
    <path class="cls-3" d="m58.35,307.43c-3.67-2.67-7.97-4.5-11.78-7-4.38-2.88-8.31-6.31-12.13-9.87-6.79-6.32-14.72-12.63-19.2-20.9-.7-1.28-2.47-.36-2.23.94,1.97,10.73,9.46,18.18,17.14,25.42,6.94,6.55,16.78,16.19,27.17,15.25,2.1-.19,2.73-2.61,1.04-3.84Z"/>
    <path class="cls-4" d="m477.3,352.64c-11.42,14.85-23.86,29.02-37.84,41.52-6.88,6.14-14.15,11.83-21.78,17-7.44,5.05-15.83,9.26-22.82,14.88-1.38,1.11.13,3.22,1.64,2.82,8.81-2.32,17.39-7.96,24.88-12.98,7.86-5.27,15.39-11.06,22.51-17.29,14.47-12.68,26.97-27.43,36.33-44.25,1.09-1.96-1.63-3.37-2.91-1.7Z"/>
    <g>
      <path class="cls-20" d="m472.11,181.36c.96.55,1.87.96,2.76,1.41,2.89,1.35,5.7,2.82,8.42,4.44,1.66.9,3.26,1.89,4.76,3.06.98.68,1.94,1.38,2.89,2.1,33.32,11.03,53.16,24.78,53.16,39.7,0,8.1-5.8,15.96-16.43,23.12,13.94-8.14,21.65-17.21,21.65-26.64,0-18.42-29.49-35.09-77.21-47.2Z"/>
      <path class="cls-20" d="m17.59,228.56c0,9.44,7.7,18.5,21.66,26.64-10.66-7.16-16.44-15.01-16.44-23.12,0-15.16,20.42-29.12,54.68-40.24,7.62-4.54,15.87-7.84,24.51-9.88.48-.33.96-.65,1.44-.98,1.03-.68,2.04-1.4,3.05-2.1-54.46,11.91-88.91,29.77-88.91,49.68Z"/>
    </g>
  </g>
</svg>