<svg width="42" height="38" viewBox="0 0 42 38" fill="none" xmlns="http://www.w3.org/2000/svg">
<path d="M41.9313 18.2436C41.7415 16.2 40.8276 14.57 39.1176 13.5149C36.7377 12.0537 34.3661 12.1983 32.0991 13.8314C31.4431 14.3083 30.7642 14.751 30.065 15.1576C27.5318 16.615 24.6969 17.4292 21.7961 17.5325C19.2673 17.6402 16.7436 17.2192 14.3775 16.2949C12.6665 15.6324 11.1453 14.6343 9.63838 13.5898C6.2625 11.2487 1.57464 12.9431 0.317015 16.9121C0.192894 17.3046 0.214436 17.7329 0.00927734 18.099V19.4442C0.0913407 20.4285 0.32317 21.3686 0.867865 22.1957C1.07302 22.5122 1.0484 22.758 0.851452 23.0682C0.32317 23.9027 0.00517455 24.8122 0.0513352 25.8282L0.00927734 25.8429V27.2746C0.10365 27.6966 0.0944182 28.1292 0.248287 28.5406C0.770415 29.9343 1.71722 30.9799 2.89483 31.7806C5.79577 33.7535 8.81057 35.4943 12.1629 36.5736C14.9684 37.4809 17.8478 37.8966 20.7816 37.9916C21.793 38.0253 22.7983 37.9146 23.8056 37.8365C25.9999 37.6516 28.1646 37.1954 30.2527 36.4776C32.3412 35.7771 34.3066 34.7896 36.2023 33.6681C37.4199 32.9454 38.6816 32.2765 39.7751 31.3618C41.1209 30.2371 41.918 28.7843 41.9539 26.957L41.9672 26.9634L41.997 26.938V25.8429C41.8944 25.4399 41.9457 25.0137 41.8287 24.6085C41.6604 24.0013 41.4012 23.4247 41.0604 22.8994C40.9445 22.7232 40.8932 22.5534 41.0286 22.3603C41.5877 21.5627 41.9518 20.6902 41.997 19.6963V18.2626C41.9941 18.2567 41.99 18.2514 41.9851 18.2472C41.9801 18.243 41.9744 18.2399 41.9682 18.2382C41.962 18.2364 41.9556 18.2359 41.9492 18.2369C41.9429 18.2378 41.9368 18.2401 41.9313 18.2436ZM38.0754 29.3783C34.5025 31.8703 30.7307 33.9455 26.4337 34.817C23.0231 35.5247 19.5121 35.5516 16.0916 34.8961C12.7701 34.2547 9.6907 32.9865 6.81027 31.1888C5.75063 30.5283 4.65611 29.9227 3.70213 29.0924C2.21986 27.8084 2.20755 26.0328 2.93689 24.5674C3.0569 24.3258 3.14204 24.3237 3.35951 24.4524C4.77203 25.2964 6.15274 26.2016 7.60937 26.9697C8.12226 27.2377 8.63516 27.4845 9.15831 27.7283C9.24562 27.7626 9.32441 27.8165 9.38898 27.886C9.45356 27.9556 9.50231 28.039 9.5317 28.1302C9.67634 28.5522 9.83944 28.9679 10.0189 29.3762C10.259 29.9248 10.7185 30.2202 11.2448 30.1844C11.771 30.1485 12.1844 29.8056 12.3454 29.2137C12.3998 29.0122 12.448 28.9827 12.6378 29.0386C13.8671 29.4115 15.1184 29.7029 16.384 29.9111C16.582 29.9428 16.6763 30.0514 16.7461 30.2435C16.9451 30.7942 17.1564 31.3386 17.3862 31.8777C17.6816 32.5803 18.3494 32.881 18.9936 32.6162C19.6378 32.3514 19.9107 31.6509 19.6675 30.9419C19.4357 30.2624 19.4347 30.2677 20.1199 30.2814C20.5979 30.292 21.077 30.2814 21.556 30.2814V30.3152C22.2741 30.2635 23.0024 30.2308 23.7225 30.1517C24.0128 30.119 24.1256 30.2107 24.2169 30.4798C24.3759 30.9545 24.5698 31.4188 24.7647 31.8798C25.0612 32.5793 25.733 32.8779 26.3752 32.6099C26.9907 32.3514 27.2861 31.6604 27.0502 30.9714C26.9373 30.6423 26.7999 30.3215 26.6655 30.0008C26.5886 29.8151 26.6193 29.7444 26.8317 29.7022C28.3971 29.3887 29.933 28.9358 31.4221 28.3486C31.6816 28.2431 31.7503 28.3349 31.8242 28.5596C31.9193 28.8511 32.0313 29.1365 32.1596 29.4142C32.4776 30.082 33.1485 30.3542 33.765 30.0852C34.3815 29.8162 34.6585 29.1262 34.4174 28.4351C34.3076 28.1186 34.1825 27.8095 34.0481 27.5035C33.9691 27.3221 33.9722 27.2176 34.1733 27.1153C35.7263 26.324 37.2024 25.3945 38.6601 24.4345C38.8714 24.2952 38.9422 24.3585 39.0519 24.5537C39.9382 26.1278 39.5453 28.3518 38.0754 29.3783ZM38.2662 21.5806C37.2794 22.4616 36.1264 23.0766 35.0195 23.7666C31.974 25.6768 28.5896 26.9452 25.0632 27.4983C22.8583 27.8424 20.6198 27.8959 18.4017 27.6576C14.1478 27.2113 10.2385 25.7459 6.59178 23.4892C5.76294 22.9754 4.90538 22.5069 4.10321 21.9551C2.91945 21.1354 2.38706 19.9506 2.51016 18.4894C2.63633 16.9849 3.41183 15.9352 4.7669 15.356C5.4924 15.0479 6.29255 14.9772 7.05852 15.1534C7.18992 15.1716 7.3135 15.2282 7.41458 15.3165C7.51567 15.4047 7.59003 15.521 7.62886 15.6514C8.38692 17.6433 9.16754 19.6278 9.93996 21.6133C10.2251 22.3445 10.7329 22.7063 11.3258 22.6124C12.1649 22.4784 12.5988 21.6629 12.2716 20.7978C11.8613 19.7185 11.4325 18.6455 10.9791 17.485C11.4089 17.7055 11.771 17.907 12.1444 18.08C13.1065 18.5452 14.1042 18.9281 15.1274 19.2247C15.2316 19.248 15.3279 19.2994 15.4065 19.3735C15.4851 19.4477 15.5431 19.542 15.5746 19.6467C16.1504 21.1554 16.7348 22.6634 17.3277 24.1707C17.6016 24.8723 18.1053 25.2194 18.6951 25.1361C19.5321 25.0168 19.9753 24.196 19.6491 23.3309C19.2757 22.3402 18.8787 21.3591 18.4981 20.3705C18.4489 20.2439 18.3617 20.1247 18.3874 19.9485C18.9003 19.9865 19.4131 20.0213 19.926 20.0635C20.8537 20.1323 21.7854 20.1203 22.7111 20.0276C23.0188 19.9981 23.1286 20.1162 23.2311 20.3895C23.7122 21.6682 24.2118 22.9384 24.7134 24.2076C24.9781 24.8797 25.4817 25.2194 26.0613 25.1403C26.8819 25.0274 27.3466 24.2129 27.0348 23.3794C26.6101 22.2442 26.1694 21.1153 25.7125 19.9928C25.5946 19.7016 25.5874 19.5866 25.9444 19.5033C27.4212 19.1632 28.8519 18.6381 30.2045 17.9397C30.4691 17.8036 30.5891 17.7952 30.7122 18.1307C31.1461 19.3218 31.619 20.4982 32.0837 21.6766C32.3556 22.3677 32.8777 22.7127 33.4675 22.6124C34.2707 22.4763 34.7139 21.6798 34.4112 20.8632C34.044 19.8704 33.646 18.8892 33.2613 17.9028C33.1044 17.4998 32.9536 17.0967 32.7925 16.6948C32.7525 16.5893 32.6818 16.5017 32.811 16.4025C33.7578 15.6714 34.7159 15.0036 35.991 15.0658C37.4537 15.1376 38.818 16.1135 39.2858 17.4924C39.8438 19.1256 39.4981 20.4781 38.2662 21.5806Z" fill="#b92b1a"/>
<path d="M20.3024 12.348C21.1076 12.9452 22.1631 12.4778 22.275 11.4797C22.3293 10.9944 22.1252 10.6104 21.7508 10.3192C21.2533 9.93202 20.9691 9.43827 20.9845 8.77782C21.0009 8.05724 21.4143 7.60991 21.9354 7.20478C22.4551 6.80392 22.8762 6.28329 23.1648 5.68471C23.4534 5.08613 23.6015 4.42629 23.5972 3.75817C23.593 3.09005 23.4364 2.43227 23.1401 1.83766C22.8438 1.24306 22.4161 0.7282 21.8913 0.334433C21.2543 -0.146659 20.5465 -0.087577 20.1054 0.473698C19.6643 1.03497 19.7659 1.80092 20.3834 2.32105C20.6398 2.53733 20.8686 2.76838 20.9989 3.09017C21.3333 3.9268 21.1014 4.6917 20.29 5.32261C19.1473 6.20777 18.5462 7.37042 18.5195 8.83479C18.5585 10.3108 19.1442 11.4861 20.3024 12.348Z" fill="#b92b1a"/>
<path d="M26.4808 12.3691C26.6571 12.5046 26.8657 12.5886 27.0845 12.6121C27.3034 12.6356 27.5244 12.5979 27.7241 12.5029C27.9238 12.4079 28.0948 12.2591 28.219 12.0723C28.3433 11.8855 28.4161 11.6676 28.4298 11.4418C28.4698 10.9143 28.2021 10.5418 27.8144 10.2359C27.2338 9.7801 27.0501 9.15974 27.1743 8.44233C27.2768 7.86522 27.6872 7.5139 28.119 7.17629C30.3593 5.42283 30.2732 1.89587 27.9518 0.256359C27.816 0.14929 27.6596 0.0732121 27.493 0.0331898C27.3264 -0.00683255 27.1534 -0.00987874 26.9855 0.0242551C26.5055 0.129758 26.1649 0.42622 26.0397 0.910478C25.967 1.13963 25.9635 1.38606 26.0296 1.61733C26.0957 1.84859 26.2283 2.05384 26.4101 2.20605C26.7004 2.46242 27.005 2.69981 27.1517 3.08278C27.4153 3.77382 27.3569 4.66532 26.3885 5.37852C25.2601 6.20777 24.7175 7.37358 24.6724 8.78521C24.6867 10.3002 25.2858 11.5009 26.4808 12.3691Z" fill="#b92b1a"/>
<path d="M14.162 12.3544C14.9641 12.923 15.993 12.4926 16.1294 11.5177C16.2023 10.9965 15.9725 10.5977 15.5735 10.2886C14.9857 9.83178 14.7426 9.22408 14.8687 8.48134C14.9713 7.90319 15.3622 7.54131 15.792 7.20265C16.3115 6.80124 16.7322 6.28009 17.0203 5.68109C17.3084 5.08208 17.4559 4.42192 17.4509 3.75365C17.4459 3.08537 17.2886 2.42762 16.9916 1.83324C16.6945 1.23885 16.2661 0.724413 15.7407 0.331251C15.1026 -0.149842 14.3969 -0.0907619 13.9558 0.477898C13.5147 1.04656 13.6183 1.79879 14.2389 2.3242C14.5048 2.52296 14.7167 2.78848 14.8544 3.09542C15.1867 3.93945 14.957 4.6959 14.1363 5.32681C12.9895 6.20987 12.4048 7.37989 12.374 8.53198C12.3822 10.2443 13.0531 11.5684 14.162 12.3544Z" fill="#b92b1a"/>
</svg>
