<?xml version="1.0" encoding="UTF-8"?><svg id="a" xmlns="http://www.w3.org/2000/svg" viewBox="0 0 200 200"><defs><style>.b{fill:#37511b;}.c{fill:#a7c136;}.d{fill:#fcb424;}.e{fill:#fcca4c;}.f{fill:#6fa833;}.g{fill:#eab51f;}.h{fill:#edb106;}.i{fill:#fed95c;}.j{fill:#eef69d;}.k{fill:#f98e79;}.l{fill:#f99528;}.m{fill:#fcb517;}.n{fill:#aaffd8;}.o{fill:#e01326;}.p{fill:#e8b401;}.q,.r{fill:#020202;}.s{fill:#ff9602;}.t{fill:#253511;}.u{fill:#591135;}.v{fill:#96ad0e;}.w{fill:#bed040;}.x{fill:#de1e13;}.r{stroke:#020202;stroke-width:2px;}.r,.y{stroke-miterlimit:10;}.z{fill:#c9da55;}.aa{fill:#ea8018;}.ab{fill:#aec93f;}.ac{fill:#fccf10;}.ad{fill:#97b52f;}.ae{fill:#82193f;}.af{fill:#cc620a;}.ag{fill:#ef3b24;}.ah{fill:#59990e;}.ai{fill:#755a10;}.aj{fill:#f4b006;}.ak{fill:#c3b428;}.al{fill:#bc2469;}.am{fill:#d9e077;}.an{fill:#80a001;}.ao{fill:#699136;}.ap{fill:#d66109;}.aq{fill:#446821;}.ar{fill:#af9e23;}.y{fill:none;stroke:#fff;stroke-width:2.86px;}.as{fill:#e5720a;}.at{fill:#cb100a;}.au{fill:#ef7e20;}.av{fill:#e86a03;}.aw{fill:#fb7b10;}.ax{fill:#e5ab05;}.ay{fill:#d66203;}.az{fill:#917913;}.ba{fill:#6e8903;}.bb{fill:#9e2053;}.bc{fill:#aa0707;}.bd{fill:#db9d03;}.be{fill:#f9a846;}.bf{fill:#90d647;}.bg{fill:#5b822e;}.bh{fill:#809e01;}.bi{fill:#95b027;}.bj{fill:#fcf532;}.bk{fill:#b70808;}.bl{fill:#6b8e00;}.bm{fill:#dbd459;}</style></defs><g><g><g><path class="s" d="m25.71,91.61c.21-.57.43-1.17.35-1.77-.12-.95-1-1.62-1.92-1.79-.92-.17-1.88.04-2.8.25-.79,3.53-1.58,7.06-2.37,10.59-.23,1.05-.47,2.11-.85,3.12-.68,1.83-1.82,3.46-2.6,5.24-2.03,4.6-1.94,8.95-.75,13.72.82,3.28,2.37,7.06,4.02,9.97,5.81,10.28,17.31,16.65,28.97,18.18,11.66,1.53,22.76.96,33.11-5.19,4.35-2.58,5.25-3.37,5.84-3.89,1.04-.93,1-2.88,1.21-4.26.12-.79-.59-.95-1.25-1.37-.58-.37-2.36,2.75-3.02,3.02-3.01,1.21-6.32,1.11-9.46.68-8.2-1.12-15.91-4.26-23.52-7.38-3.11-1.28-6.23-2.55-9.2-4.14-6.33-3.39-12.03-8.43-15.41-14.93-1.21-2.33-3.06-5.22-3.16-7.95-.15-3.89,1.48-8.45,2.81-12.1Z"/><path class="bj" d="m28.36,91.53c.22-.55.45-1.12.38-1.69-.11-.9-1.24-.99-2.15-1.14-.91-.15-1.62-.47-2.54-.25-.83,3.36-1.66,6.73-2.49,10.09-.25,1-.66,3.56-1.09,5.37-1.49,6.34.07,10.97,3.98,16.93,6.02,9.17,13.79,17.4,30.17,20.35,11.82,2.13,18.41,3.31,29.77-.52.73-.25,1.47-.51,2.06-1.01,1.05-.9,1.35-2.33,1.59-3.64.13-.76.2-1.69-.45-2.07-.58-.34-1.35-.03-2.01.24-3.01,1.2-6.54.09-9.67-.27-8.16-.94-15.01-2.18-22.56-5.03-3.09-1.17-6.1-2.5-8.78-4.34-7.64-5.24-9.69-7.97-14.77-13.83-1.63-1.88-4.31-5.06-4.38-7.66-.1-3.69,1.59-8.05,2.96-11.53Z"/><path class="q" d="m86.77,134.15c-.19.18-.26.52-.33.83-.31,1.49-.62,2.99-.93,4.48-.03.16-.07.32-.04.48.05.31.29.46.5.55.15.06.31.12.46.03.1-.06.16-.19.23-.31.43-.79.82-1.64,1.07-2.58.23-.84.42-2.11.25-3.01-.14-.72-.75-.92-1.2-.48Z"/><path class="q" d="m25.93,91.11c-1-.21-1.73-.99-2.65-1.4-.69-.3-1.56-.45-1.91-1.09-.05-.08-.08-.18-.04-.28.03-.07.09-.12.15-.17.77-.59,1.72-.86,2.64-1.12.16-.04.32-.09.47-.07.12.02.23.07.33.13,1.15.59,2.29,1.18,3.44,1.77.32.16.65.34.82.65.75,1.38-2.5,1.74-3.25,1.58Z"/></g><g><path class="s" d="m24.39,91.16c.45-.44.92-.89,1.13-1.47.34-.93-.11-1.93-.81-2.5-.71-.57-1.63-.79-2.53-1.01-2.33,2.9-4.66,5.8-7,8.7-.69.86-1.39,1.73-2.19,2.49-1.44,1.38-3.18,2.38-4.69,3.67-3.9,3.34-5.87,7.39-7.07,12.31C.39,116.74-.05,120.92,0,124.33c.18,12.05,7.08,23.02,16.4,29.6,9.31,6.58,19.12,10.99,30.91,9.91,4.95-.45,6.1-.78,6.84-1,1.33-.39,2.21-2.21,3.04-3.38.48-.68-.07-1.14-.43-1.81-.33-.6-3.32,1.49-4.01,1.44-3.15-.22-5.95-1.78-8.45-3.57-6.53-4.67-11.68-10.98-16.77-17.24-2.08-2.56-4.16-5.12-5.97-7.9-3.85-5.94-6.4-13.1-6.26-20.59.05-2.68-.18-6.16,1.01-8.73,1.7-3.65,5.24-7.13,8.09-9.89Z"/><path class="bj" d="m26.7,92.26c.44-.41.91-.84,1.11-1.39.33-.88-.6-1.46-1.32-2-.72-.55-1.17-1.15-2.07-1.36-2.29,2.73-4.58,5.46-6.87,8.19-.68.81-1.37,1.63-2.16,2.35-1.42,1.29-1.97,2.21-3.18,3.7-4.25,5.18-6,8.61-6.92,15.89-1.13,8.87,1.67,22.46,18.42,34.37,9.52,6.77,16.57,8.87,28.13,10.38.74.1,1.51.19,2.24-.01,1.33-.36,2.26-1.55,3.07-2.65.47-.64.96-1.47.58-2.11-.33-.57-1.15-.62-1.83-.67-3.15-.23-5.67-2.82-8.19-4.54-6.58-4.48-11.88-8.67-17.04-14.64-2.11-2.44-10.41-10.62-12.49-24.33-.38-2.49-.59-9.44.56-11.86,1.65-3.44,5.14-6.72,7.95-9.31Z"/><path class="s" d="m20.93,143.93c4.09,4.27,9.25,8.35,15.44,12.21,3.4,2.12,13.34,4.73,18.12,5.39.24.03.47-.13.52-.36.05-.23-.1-.45-.34-.48-4.71-.65-14.47-3.2-17.79-5.27-29.69-18.51-27.06-36.63-26.2-42.58l.03-.19c.62-4.3,3.32-8.22,4.76-10.33.22-.31.4-.58.54-.8,2.6-4,5.22-7.5,9.05-12.08.16-.19.13-.45-.05-.6-.18-.14-.46-.1-.62.09-3.85,4.61-6.49,8.14-9.12,12.17-.14.21-.32.47-.53.78-1.38,2.01-4.27,6.2-4.91,10.7l-.03.19c-.43,2.94-1.31,9.06,1.69,16.85,1.91,4.96,5.07,9.74,9.44,14.31Z"/><path class="q" d="m56.46,157.26c-.34.1-.44.47-.74.64-1.52.86-1.8,2.5-2.7,3.75-.09.13-.19.27-.2.42-.02.3.31.52.61.68.21.11.44.22.69.19.16-.02.31-.11.44-.2.88-.57,1.73-1.2,2.38-1.97.59-.69,1.25-1.77,1.23-2.66-.01-.71-.89-1.11-1.7-.87Z"/><path class="q" d="m24.81,90.81c-.76-.64-1.02-1.68-1.63-2.46-.45-.59-1.13-1.1-1.13-1.85,0-.1.02-.21.09-.28.06-.05.14-.07.21-.09.93-.2,1.88-.03,2.8.14.15.03.31.06.44.15.1.07.16.17.23.26.71,1.05,1.42,2.1,2.13,3.16.2.29.4.61.4.96,0,1.6-2.96.49-3.53.02Z"/></g></g><path class="q" d="m74.09,143.73c.02-.22.04-.44.06-.65.3-.16.62-.32.93-.3.32.02.64.26.66.64.02.36-.22.7-.5.86-.28.15-.59.16-.89.17-.17,0-.34,0-.48-.09-.14-.1-.22-.32-.13-.5l.35-.12Z"/><path class="q" d="m71.46,142.92c-.1.06-.17-.1-.18-.23-.04-.36-.09-.75.04-1.1.13-.35.5-.62.76-.44.46.32-.03,1.41.38,1.82-.44.4-1.06.48-1.52.18l.52-.23Z"/><path class="q" d="m76.79,142.1c-.09.31-.08.67.09.91.17.23.53.26.7,0,.17-.25.1-.63-.09-.82s-.46-.23-.72-.25v.16Z"/><path class="q" d="m72.25,144.65c-.19.04-.33.26-.38.49-.04.23,0,.45.03.67.02.14.05.29.14.38.13.13.34.08.48-.05.14-.13.23-.33.32-.52.11-.25.21-.58.06-.76-.05-.06-.12-.09-.19-.12-.17-.07-.36-.14-.54-.06l.09-.02Z"/><path class="q" d="m76.47,144.42c.02-.06.04-.12.06-.18-.03.3-.33.58-.23.84.06.16.24.18.4.18.04,0,.08,0,.11-.02.04-.02.07-.07.1-.12.08-.12.15-.25.19-.39.04-.14.02-.31-.06-.4-.11-.12-.28-.09-.43-.05l-.14.14Z"/><path class="q" d="m78.69,142.9c-.27.42-.45.93-.5,1.44.13.12.33.1.5.03.17-.07.33-.18.5-.23.06-.02.12-.03.18-.06.19-.11.24-.44.15-.65-.09-.21-.27-.34-.45-.45-.13-.08-.32-.14-.4.02,0-.07.01-.13.02-.2v.11Z"/><path class="q" d="m81.04,142.06c-.07.19-.14.38-.21.57-.04.1-.07.21-.05.31.03.13.14.2.25.2.11,0,.22-.05.33-.1.12-.06.24-.13.33-.25.08-.12.09-.32-.01-.4-.05-.04-.11-.04-.16-.08-.07-.05-.1-.17-.16-.24-.14-.18-.47,0-.47.25l.16-.26Z"/><path class="q" d="m78.68,141.31c-.07.1-.15.2-.18.31-.04.12-.03.26.04.34.05.05.12.07.19.08.19.03.38.06.57.08.08-.13.05-.31-.02-.44-.12-.23-.35-.37-.59-.36h-.01Z"/><path class="q" d="m68.78,143.98c-.04.37-.05.75-.03,1.12,0,.04,0,.09.02.13.04.07.12.1.2.1.29-.01.52-.31.6-.62.06-.24.03-.51-.12-.68-.15-.17-.44-.19-.6,0l-.08-.03Z"/><path class="q" d="m74.21,140.84c-.19-.08-.41.07-.53.29-.11.21-.13.47-.12.72,0,.04,0,.07.02.1.07.13.24-.03.37-.06.11-.03.25.05.34-.04.05-.05.07-.14.08-.21.02-.15.04-.29.02-.43-.02-.14-.11-.27-.23-.29l.04-.07Z"/><path class="q" d="m82.67,142.09c-.08.06-.04.22.04.25.08.03.18,0,.26-.05.22-.11.45-.23.67-.34.08-.04.19-.13.16-.23-.38-.1-.82.05-1.14.37h0Z"/><path class="q" d="m46.79,160.25c.07-.15.15-.31.22-.46.25-.04.51-.07.73.02.22.09.37.35.28.64-.08.27-.34.45-.58.5-.24.04-.45-.03-.66-.11-.12-.04-.24-.08-.31-.19-.07-.11-.07-.29.04-.4h.28Z"/><path class="q" d="m44.56,158.42c-.1,0-.13-.13-.11-.23.05-.28.11-.58.32-.8.21-.21.62-.28.81-.06.34.39-.39,1.02-.12,1.46-.51.15-1.09,0-1.43-.38h.53Z"/><path class="q" d="m49.78,159.33c-.19.27-.31.62-.24.9.07.28.39.42.65.24.24-.18.31-.57.21-.82-.11-.25-.34-.38-.57-.48l-.05.16Z"/><path class="q" d="m40.96,161.48c-.19.27-.31.62-.24.9.07.28.39.42.65.24.24-.18.31-.57.21-.82-.11-.25-.34-.38-.57-.48l-.05.16Z"/><path class="q" d="m44.27,160.52c-.19-.03-.4.14-.52.34-.12.2-.17.43-.22.66-.03.14-.06.29-.01.41.07.17.28.19.46.11.18-.08.33-.24.47-.39.19-.2.4-.48.33-.71-.03-.08-.08-.13-.13-.18-.13-.13-.28-.26-.47-.24h.09Z"/><path class="q" d="m48.1,162.08s.08-.1.12-.15c-.13.28-.51.45-.51.73,0,.18.16.26.3.31.03.01.07.03.11.02.05,0,.09-.04.14-.08.11-.09.23-.19.31-.31.08-.13.13-.29.09-.41-.06-.15-.23-.18-.38-.2l-.18.09Z"/><path class="q" d="m51.61,161.31c-.4.31-.74.74-.97,1.22.08.16.27.2.45.19.18-.01.36-.06.54-.06.06,0,.12.01.18,0,.21-.04.37-.34.37-.58,0-.24-.13-.42-.25-.59-.09-.12-.24-.24-.38-.12.03-.06.06-.12.09-.18l-.03.11Z"/><path class="q" d="m53.68,160.73c-.13.16-.26.32-.39.48-.07.08-.14.17-.16.28-.02.13.06.24.16.28.1.04.22.03.34,0,.13-.02.27-.04.39-.13s.2-.28.13-.39c-.03-.05-.09-.08-.12-.13-.05-.08-.03-.2-.06-.29-.07-.22-.43-.16-.52.08l.24-.19Z"/><path class="q" d="m51.79,159.21c-.1.07-.2.14-.28.24-.08.1-.12.24-.09.34.03.07.09.11.15.14.16.1.32.19.49.27.12-.1.16-.29.14-.43-.03-.26-.19-.48-.41-.55v-.02Z"/><path class="q" d="m34.93,159.84c-.1.07-.2.14-.28.24-.08.1-.12.24-.09.34.03.07.09.11.15.14.16.1.32.19.49.27.12-.1.16-.29.14-.43-.03-.26-.19-.48-.41-.55v-.02Z"/><path class="q" d="m10.73,107.69c-.1.07-.2.14-.28.24-.08.1-.12.24-.09.34.03.07.09.11.15.14.16.1.32.19.49.27.12-.1.16-.29.14-.43-.03-.26-.19-.48-.41-.55v-.02Z"/><path class="q" d="m15.08,98.17c-.1.07-.2.14-.28.24-.08.1-.12.24-.09.34.03.07.09.11.15.14.16.1.32.19.49.27.12-.1.16-.29.14-.43-.03-.26-.19-.48-.41-.55v-.02Z"/><path class="q" d="m41.78,158.43c-.17.34-.31.7-.43,1.06-.01.04-.03.09-.02.13,0,.08.08.14.15.16.27.08.59-.12.77-.4.14-.21.21-.48.14-.7-.08-.21-.34-.33-.55-.2l-.06-.06Z"/><path class="q" d="m47.87,157.25c-.14-.14-.41-.07-.58.1-.18.17-.29.41-.36.65-.01.04-.02.07-.02.11.02.15.23.05.36.06.11.01.21.13.32.08.07-.03.11-.11.15-.18.07-.13.15-.27.17-.41.03-.14,0-.3-.11-.35l.06-.06Z"/><path class="q" d="m13.56,104.04c-.12-.11-.23-.22-.35-.34.07-.24.14-.49.32-.66.18-.17.5-.23.73-.07.22.15.29.45.23.67-.06.23-.22.4-.38.57-.09.09-.18.19-.31.22-.13.03-.31-.02-.37-.16l.12-.25Z"/><path class="q" d="m10.09,105.3c-.04.1-.18.08-.27.03-.25-.13-.51-.27-.63-.53-.12-.25-.01-.65.28-.76.52-.2.82.65,1.36.54-.07.51-.47,1-.96,1.2l.22-.48Z"/><path class="q" d="m13.93,101.05c.18.25.47.47.77.48.3.01.57-.23.5-.52-.07-.28-.42-.45-.7-.43-.28.02-.51.2-.7.38l.14.09Z"/><path class="q" d="m12.76,106.41c-.1.16-.03.4.11.57.14.17.35.28.54.39.12.07.26.14.39.13.19-.01.3-.2.3-.38,0-.19-.09-.37-.18-.55-.11-.23-.3-.51-.55-.51-.08,0-.16.04-.23.07-.18.08-.36.18-.43.36l.05-.08Z"/><path class="q" d="m15.86,103.38c-.03-.05-.06-.1-.09-.15.21.2.22.6.49.68.17.05.31-.07.42-.18.03-.03.05-.06.06-.09.01-.05,0-.1-.02-.15-.04-.13-.09-.26-.17-.38-.09-.11-.22-.21-.36-.2-.17,0-.27.15-.35.29v.18Z"/><path class="q" d="m7.72,106.77s-.04-.06-.06-.1c.13.13.14.38.31.43.11.03.2-.04.27-.12.02-.02.03-.04.04-.06,0-.03,0-.06-.01-.09-.03-.08-.05-.17-.11-.24-.05-.07-.14-.13-.23-.13-.11,0-.17.1-.22.18v.12Z"/><path class="q" d="m17.2,97.47s-.04-.07-.07-.11c.15.14.15.42.35.48.12.04.22-.05.3-.13.02-.02.04-.04.05-.07,0-.03,0-.07-.01-.1-.03-.09-.06-.18-.12-.26-.06-.08-.16-.14-.25-.14-.12,0-.19.11-.25.2v.13Z"/><path class="q" d="m16.6,99.95c.13.45.4.89.77,1.24.19-.03.31-.18.37-.35.06-.17.09-.35.17-.51.03-.06.06-.11.08-.17.05-.21-.17-.44-.4-.5-.23-.06-.46,0-.67.05-.15.04-.34.15-.27.31-.05-.04-.09-.09-.14-.13l.09.06Z"/><path class="q" d="m11.12,102.17c-.19.09-.24.35-.15.56.09.21.28.38.47.52.03.02.06.04.1.05.15.03.14-.2.21-.31.06-.1.22-.15.21-.27,0-.07-.06-.13-.11-.19-.1-.1-.2-.21-.32-.28-.13-.07-.29-.08-.38,0l-.03-.07Z"/><path class="q" d="m39.13,157.77c-.14-.14-.41-.07-.58.1-.18.17-.29.41-.36.65-.01.04-.02.07-.02.11.02.15.23.05.36.06.11.01.21.13.32.08.07-.03.11-.11.15-.18.07-.13.15-.27.17-.41.03-.14,0-.3-.11-.35l.06-.06Z"/><path class="q" d="m38.6,160.45c-.14-.14-.41-.07-.58.1-.18.17-.29.41-.36.65-.01.04-.02.07-.02.11.02.15.23.05.36.06.11.01.21.13.32.08.07-.03.11-.11.15-.18.07-.13.15-.27.17-.41.03-.14,0-.3-.11-.35l.06-.06Z"/><path class="q" d="m55.16,161.3c-.09.03-.11.2-.05.26.06.06.17.05.26.04.25-.03.49-.07.74-.1.09-.01.22-.06.22-.16-.32-.22-.77-.23-1.17-.02h0Z"/></g><g><path class="b" d="m31.29,112.16c-.86-2.02-2.28-3.87-4.25-4.85-1.32-.65-2.9-.94-3.82-2.09-.14-.17-.26-.37-.28-.59-.07-.74.94-1.07,1.67-.97,2.22.29,4,1.95,5.49,3.63,2.62,2.95,4.9,6.2,6.78,9.68.14.26.28.54.24.83-.06.42-.46.69-.84.88-.62.32-1.28.58-1.95.77-.35.1-.73.18-1.07.05-1.07-.42-1.45-6.09-1.97-7.33Z"/><path class="ao" d="m32.92,107.15c-1.36-1.05-3-1.69-4.37-2.74,1.63-.08,3.23.64,4.48,1.68,1.25,1.05,2.2,2.41,3.05,3.8,1.59,2.58,2.91,5.33,3.94,8.18.31.85-2.18.72-2.65.18-.66-.76-.35-2.66-.48-3.57-.4-2.87-1.63-5.73-3.98-7.54Z"/><path class="b" d="m23.12,109.88c1.22,1.03,2.06,3.07,3.05,4.71.96,1.58,2.1,2.84,3.31,3.65-.84-.3-1.45-1.79-1.81-3.15-.6-2.25-.92-4.63-.92-6.92,1.49,3.61,3.18,7.49,5.56,9.04.34.22.76.5.87,1.08.1.54-.14.97-.4,1.21-1.47,1.31-4.34.02-6.05-1.28-1.88-1.43-3.41-5.14-3.6-8.33Z"/><path class="aq" d="m35.74,104.65c1.51.18,2.53,1.59,3.3,2.9,1.45,2.48,2.7,5.09,3.73,7.78.08.2.15.41.12.61-.07.44-.58.65-1.01.75-2.62.56-1.65-3.17-2.08-4.91-.66-2.69-2.07-5.2-4.05-7.13Z"/><path class="at" d="m65.25,130.79c2.49,14.71-7.41,28.66-22.12,31.16-14.71,2.49-28.66-7.41-31.16-22.12-1.59-9.39.84-14.55,7.27-18.82,5.13-3.4,10.52-1.47,18.32-4.06,2.03-.67,6.65-2.71,8.67-3.05,8.62-1.46,16.88,4.29,19.02,16.89Z"/><path class="x" d="m53.3,118.12c1.95,2.39,3.71,5.72,4.31,8.74,1.18,6.01,1.22,17.01-8.46,22.98-25.53,15.73-38.75-11.81-34.22-23.03,1.49-3.68,5.4-5.99,9.29-6.78,4.09-.83,7.24.86,11.39.42,3.37-.36,12.45-8.76,17.69-2.33Z"/><path class="ag" d="m33.62,123.72c1.59-.19,3.14-.65,4.72-.85,1.59-.2,3.28-.12,4.66.69,1.38.81,2.33,2.5,1.88,4.04-.42,1.46-1.92,2.37-3.41,2.72-1.48.36-3.37-.33-4.52.67-3.84,3.32-10.15,22.93-18.89,4.7-1.6-3.35-.3-7.38,2.34-9.77,3.6-3.25,8.85-1.68,13.19-2.2Z"/><path class="k" d="m28.22,126.9c.86-.1,1.69-.35,2.55-.46.86-.11,1.77-.07,2.52.37.74.44,1.26,1.35,1.02,2.18-.23.79-1.04,1.28-1.84,1.47-.8.19-1.64.17-2.44.36-3.18.75-5.49,12.21-10.19,2.54-.87-1.8-.16-3.98,1.26-5.27,1.94-1.75,4.77-.9,7.12-1.19Z"/></g><g><path class="o" d="m117.14,150.45c1.18.91,2.36,1.82,3.64,2.59,3.01,1.8,6.45,2.73,9.84,3.65,8.32,2.24,51.94,12.58,63.69-32.86,2.98-11.54-1-23.58-4.75-35.07-.64-1.96-3-2.76-4.72-1.61-.68.45-1.32.91-1.96,1.38-2.2,1.62-4.26,3.34-6.89,5.27-.89.66-1.34,1.74-1.21,2.84.21,1.83-.09,4.02-.6,5.54-.34.99-1.1,2.11-1.97,2.81-1.11.89-1.81,2.2-1.82,3.61,0,1.05-.1,1.02-.16,2.38-.12,2.69-2.04,4.62-4.36,6.03-2.53,1.54-6.45,1.39-9.07-.52-.9-.66-1.46-1.21-1.93-1.82-1.19-1.54-3.5-1.58-4.8-.13-.67.74-1.51,1.33-2.47,1.65-1.69.56-3.67.13-5.01-.98-1.1-.91-2.67-1.01-3.84-.18-3.32,2.33-8.99,5.89-9.79,6.47-1,.73-2,1.48-2.99,2.22-3.11,2.35-6.17,4.76-9.19,7.23-2.37,1.95-10.17,6.63-10.39,9.84-.22,3.2,8.38,7.84,10.75,9.67Z"/><path class="b" d="m107.62,144.73c2.73,2.62,18.11,15.23,31.15,17.7,18.78,3.56,37.53-6.7,42.34-9.76,1.79-1.14,17.9-10.77,18.87-38.26.37-10.51-3.9-23.06-7.44-32.97-.15.12-.38.3-.66.51-1.66,1.25-5.23,3.82-6.66,4.76,1.65,3.21,2.88,6.02,4.01,9.86,1.1,3.77,13.26,37.09-20.54,51.89-2.36,1.03-20.32,10.58-36.2,3.53-8.72-3.87-15.17-9.97-22.86-15.6-1.69,1.52-2.94,2.5-3.72,3.27-1.63,1.61-1.18,2.29,1.71,5.07Z"/><path class="f" d="m105.91,139.65c.43.54,1.07,1.18,1.91,2.01,2.69,2.63,17.83,15.29,30.62,17.83,18.43,3.65,36.77-6.52,41.46-9.55,1.75-1.13,17.5-10.68,18.32-38.14.28-9.42-3.11-20.51-6.35-29.86-1.66,1.25-5.23,3.82-6.66,4.76,1.65,3.21,2.88,6.02,4.01,9.86,1.1,3.77,13.26,37.09-20.54,51.89-2.36,1.03-20.32,10.58-36.2,3.53-8.72-3.87-15.17-9.97-22.86-15.6-1.69,1.52-2.94,2.5-3.72,3.27Z"/><path class="bf" d="m153.14,155.15c7.02-1.05,14.06-3.8,20.98-8.21,3.02-1.93,11.02-7.06,15.54-17.02,5.37-11.81,4.24-26.51-3.37-43.69l-2.15.93c11.58,26.13,7.78,45.59-11.29,57.82-15.05,9.57-30.08,10.93-44.67,4.05-10.96-5.17-17.56-13.3-17.63-13.38l-1.84,1.44c.28.35,6.95,8.59,18.38,14,6.74,3.19,13.72,4.71,20.75,4.52,1.77-.05,3.54-.21,5.31-.47Z"/><path class="r" d="m124.14,134.64c-.35.5-.7,1.02-.83,1.61-.21.97.25,2.01,1.02,2.65.77.64,1.8.91,2.81.91.18,0,.36-.01.51-.11.18-.12.25-.34.3-.55.44-1.68.49-3.89-.31-5.49-1.31-2.64-2.34-.71-3.5.97Z"/><path class="n" d="m125.13,134.99c-.02.13-.04.26,0,.39.07.22.31.35.54.37.23.02.46-.04.69-.11.08-.02.16-.05.22-.11.04-.05.06-.11.08-.16.15-.48.64-1.97-.26-2.09-.67-.09-1.18,1.22-1.27,1.71Z"/><path class="r" d="m139.73,122.85c-.15.12-.26.28-.34.45l-1.34,3.04c-.08.18-.15.37-.19.56-.23,1.15.5,1.43,1.15,1.65.28.1.57.2.85.29.12.04.24.08.36.08.22,0,.41-.15.56-.31.76-.76,1.1-1.87,1.02-2.93-.05-.69-.87-3.77-2.08-2.83Z"/><path class="r" d="m138.24,144.98c0,.19.03.39.11.57.31.7,1.1,1.04,1.85,1.22.45.11.95.18,1.37-.02.4-.18.67-.58.79-1,.12-.42.12-.86.11-1.3-.03-1.09.12-6.31-1.88-5.2-.69.38-.52.9-.75,1.57-.47,1.4-1.61,2.64-1.6,4.16Z"/><path class="ag" d="m125.96,123.71c1.87,1.39,4.83.89,7.13-.04,2.62-1.06,5.5-2.48,8.12-1.43,3.61,1.46,4.05,6.41,6.6,9.35,2.65,3.06,7.33,3.53,11.26,2.54,3.93-.99,7.46-3.14,11.24-4.6.95-.37,1.95-.7,2.71-1.38.79-.7,1.24-1.69,1.7-2.63,3.17-6.39,8.06-12.07,9.59-19.04,1.3-5.92,0-12.05-1.46-17.96-2.2,1.62-4.26,3.34-6.89,5.27-.89.66-1.34,1.74-1.21,2.84.21,1.83-.09,4.02-.6,5.54-.34.99-1.1,2.11-1.97,2.81-1.11.89-1.81,2.2-1.82,3.61,0,1.05-.1,1.02-.16,2.38-.12,2.69-2.04,4.62-4.36,6.03-2.53,1.54-6.45,1.39-9.07-.52-.9-.66-1.46-1.21-1.93-1.82-1.19-1.54-3.5-1.58-4.8-.13-.67.74-1.51,1.33-2.47,1.65-1.69.56-3.67.13-5.01-.98-1.1-.91-2.67-1.01-3.84-.18-3.32,2.33-8.99,5.89-9.79,6.47-1,.73-2,1.48-2.99,2.22Z"/><path class="r" d="m155.68,144.6c0,.52.08,1.13.53,1.4.28.17.63.16.96.14.34-.02.68-.04,1.02-.06.91-.05,1.99-.19,2.08-1.47.01-.18,0-.36-.04-.54-.36-2.03-1.14-4.2-2.88-5.38-1.55-1.05-1.42.74-1.51,1.76-.13,1.38-.18,2.76-.16,4.15Z"/><path class="r" d="m171.19,136.04c-.17-.27-.35-.54-.49-.82-.47-.91-.64-1.94-.76-2.95-.08-.66.52-1.23,1.18-1.11,2.35.43,4.61,2.46,4.74,3.16.14.76-.07,1.1-.5,1.75-.42.65-.52.78-1.09,1.31-1.52,1.41-2.36-.19-3.09-1.33Z"/><path class="r" d="m180.57,107.73c-.05.22,0,.46.11.65.18.3.41.56.69.77.25.19.52.33.8.48.69.36,1.38.73,2.07,1.09.13.07.26.14.41.13.2-.01.35-.17.46-.33,2.22-3.17-4.04-4.84-4.54-2.79Z"/><path class="r" d="m153.7,127.87c-.05.41-.07.86.18,1.18.32.41.92.43,1.44.41.79-.02,1.69-.09,2.05-.94.12-.27.14-.57.1-.87-.12-.88-.69-1.57-1.04-2.35-.34-.76-.89-2.38-1.9-1.35-.72.73-.71,2.94-.83,3.92Z"/><path class="r" d="m181.28,123.38c.25.29.51.59.83.8.33.21.74.32,1.11.2.34-.11.59-.39.77-.69.44-.7.64-1.57.44-2.37-.05-.2-.13-.4-.26-.56-.18-.2-.44-.31-.69-.42-.91-.37-3.88-2.19-4.68-1.16-.88,1.14,1.86,3.46,2.48,4.2Z"/><path class="n" d="m140.84,140.31c-.16.37-.32.74-.47,1.11-.08.19-.16.39-.16.6,0,.29.23.62.61.48.15-.05.27-.17.35-.31.28-.46.52-1.11.22-1.6-.15-.24-.57-.35-.67-.09l.12-.19Z"/><path class="n" d="m140.15,123.53c-.33.2-.53.56-.66.91-.12.31-.2.66-.02.96.09.15.24.26.42.27.38.02.57-.38.58-.73,0-.31-.08-.63,0-.93.02-.07.05-.14.02-.21-.02-.07-.13-.1-.16-.04l-.17-.25Z"/><path class="n" d="m154.74,124.62c-.06-.06-.14.06-.14.14,0,.58-.02,1.16-.03,1.74.32.15.71-.06.88-.37.16-.31.15-.68.1-1.02-.04-.25-.11-.52-.33-.65-.22-.12-.58.09-.47.32v-.16Z"/><path class="n" d="m157.09,139.45c-.1.02-.2.05-.3.07-.12.85-.14,1.71-.06,2.56,0,.04,0,.08.03.11.02.02.04.04.06.05.19.07.4.08.57-.04,1.21-.83.6-2.13-.34-2.42l.03-.33Z"/><path class="n" d="m171.13,132.26c-.06.03-.13.06-.19.1.01.59.04,1.22.47,1.65.28.28.7.39,1.04.19.51-.3.38-1-.02-1.35-.34-.3-.82-.4-1.27-.49l-.04-.1Z"/><path class="n" d="m179.47,119.65c-.06.31.12.63.33.86.21.24.48.44.65.71.1.15.18.32.38.36.24.04.47-.15.5-.39.06-.4-.24-.7-.55-.92-.39-.28-.84-.48-1.3-.61v-.02Z"/><path class="n" d="m181.44,107.8c0-.13-.2-.2-.29-.11-.07.26.18.48.41.63.34.23.68.46,1.01.68.08.05.16.1.25.1.24,0,.28-.35.2-.56-.24-.61-.95-.99-1.6-.86l.02.12Z"/></g><g><path class="b" d="m186.93,137.87c.31-1.19.95-2.33,1.97-3.03.68-.47,1.53-.76,1.95-1.47.06-.11.12-.23.11-.35-.02-.42-.61-.52-1.01-.41-1.21.34-2.06,1.41-2.75,2.46-1.22,1.85-2.22,3.84-2.98,5.92-.06.15-.11.32-.07.48.07.23.31.34.54.42.37.13.75.22,1.14.27.2.03.42.04.6-.06.56-.32.31-3.5.5-4.22Z"/><path class="ao" d="m185.62,135.22c.67-.69,1.53-1.18,2.2-1.87-.91.09-1.74.61-2.35,1.3-.61.68-1.03,1.51-1.39,2.36-.67,1.56-1.19,3.19-1.53,4.86-.1.5,1.27.23,1.49-.11.31-.47-.02-1.5-.02-2.02-.01-1.63.44-3.31,1.6-4.5Z"/><path class="b" d="m191.28,135.95c-.59.67-.89,1.87-1.31,2.86-.4.95-.94,1.75-1.54,2.29.44-.24.66-1.11.75-1.89.15-1.3.14-2.65-.05-3.91-.54,2.12-1.16,4.41-2.36,5.46-.17.15-.38.34-.4.67-.01.31.16.53.32.64.92.61,2.41-.34,3.26-1.2.93-.95,1.48-3.13,1.33-4.91Z"/><path class="aq" d="m183.85,134.06c-.82.22-1.28,1.09-1.6,1.88-.61,1.5-1.09,3.04-1.44,4.62-.03.12-.05.24-.01.35.08.24.37.31.62.33,1.5.1.66-1.89.76-2.89.15-1.55.73-3.05,1.68-4.28Z"/><path class="at" d="m197.42,155.52c-2.64,7.94-11.22,12.24-19.16,9.59-7.94-2.64-12.24-11.22-9.59-19.16,1.69-5.07,4.25-6.98,8.56-7.4,3.43-.33,5.6,2.05,10.14,2.82,1.18.2,4.01.41,5.1.77,4.65,1.55,7.23,6.57,4.97,13.38Z"/><path class="x" d="m194.84,146.09c.33,1.7.33,3.81-.17,5.46-1,3.28-3.88,8.74-10.24,9.15-16.79,1.06-16.07-16.06-10.87-20.42,1.71-1.43,4.25-1.54,6.39-.91,2.24.67,3.36,2.33,5.53,3.21,1.76.71,8.48-1.06,9.37,3.51Z"/><path class="ag" d="m183.63,143.68c.84.32,1.72.51,2.56.82.84.32,1.66.8,2.13,1.57.47.76.49,1.85-.13,2.5-.6.61-15.88,8.27-15.4-3.06.09-2.08,1.8-3.73,3.73-4.22,2.64-.66,4.82,1.5,7.11,2.39Z"/><path class="k" d="m179.21,143.53c.37.15.77.22,1.14.36.37.14.73.38.92.77.19.39.17.97-.13,1.33-.29.34-7.4,4.76-6.89-1.18.1-1.1.92-2.03,1.81-2.34,1.21-.43,2.14.66,3.15,1.06Z"/></g><g><path class="l" d="m160.17,124c-.83,2.3-2.34,4.26-3.65,5.65-1.33,1.41-2.46,2.23-2.46,2.23,0,0-2.13,13.32-15.32,10.99-.46.44-.93.84-1.42,1.22-6.84,5.28-16.05,4.67-16.05,4.67,0,0,1.35-2.8-.22-.17-2.91,4.26-6.2,6.47-9.39,7.48-3.69,1.17-7.24.74-9.86.07-2.41-.61-4.05-1.43-4.3-1.39-.5.2-1,.39-1.48.57-.02,0-.04.01-.06.02-15.81,5.79-19.33-1.4-19.59-.59-1.96.73-3.86,1.13-5.7,1.25-16.06,1.06-27.22-18.83-27.62-19.14-1.13-.31-2.17-.74-3.14-1.31-.42-.24-.81-.5-1.2-.78-3.79-2.79-6.15-7.6-7.37-13.35-1.38-6.56-1.28-14.33-.09-21.74,1.01-6.31,2.81-12.35,5.14-17.14.23-.61.47-1.2.73-1.78,8.17-18.63,28.91-20.26,28.91-20.26.01-.19.04-.38.07-.56.77-4.71,6.1-5.76,11.19-5.74,5.04.02,9.86,1.09,9.8.7,1.2-.97,2.33-1.77,3.4-2.43,5.83-3.59,9.76-2.85,12.01-1.81,1.45.67,2.21,1.47,2.32,1.32,2.24-1.32,4.28-2.17,6.1-2.67,7.64-2.1,11.66,1.81,11.9,2.14.25-.12.49-.22.73-.32h0c7.83-3.35,10.31.28,10.88,1.48.11.22.15.36.15.36,0,0,.36,0,1.02.03,2.08.12,7.11.67,12.9,3.2,28.46,18.38,13.92,61.52,11.66,67.83Z"/><path class="av" d="m83.42,68.1c-8.62-1.02-45.4-1.32-40.37,68.76-5.62-3.21-6.54-1.47-9.04-7.53,4.52-.49,3.07-13.63,5.52-24.03,3.26-13.82,12.46-41.62,43.89-37.2Z"/><path class="au" d="m135.28,111.96c.94,1.02,2.17,1.99,3.53,1.84,2.33-.26,3-3.34,2.94-5.72-.32-12.27-4.36-24.47-11.46-34.51,1.27-.58,2.62.63,3.52,1.74,6.67,8.23,12.49,17.16,17.32,26.61.72,1.4,2.18,3.08,3.49,2.25.42-.26.66-.73.86-1.19,2.24-5.19.88-11.18.21-16.84-.68-5.73-.61-11.53.2-17.22,6.7,6.56,9.52,16.35,9.57,25.72.05,9.37-2.37,18.53-4.77,27.55-.62,2.32-1.26,4.69-2.59,6.68-1.33,1.99-3.5,3.55-5.88,3.5,1.06-.1,1.3,1.51,1,2.55-.98,3.37-3.1,6.47-6.15,8.14-3.05,1.67-7.05,1.7-9.93-.33-2.02-.26-3.12,2.36-4.97,3.18-2.08.92-4.58-.81-5.4-2.98s-.46-4.57-.18-6.86c.86-6.9.93-13.92.24-20.86-.36-3.61-.93-7.2-1.71-10.75-.56-2.57-2.68-6.95-1.81-9.27,5.66,3.37,7.55,12.01,11.97,16.78Z"/><path class="y" d="m85.19,68.38c-.58-.1-1.15-.19-1.72-.27,1.01.12,1.63.25,1.72.27Z"/><path class="as" d="m76.37,154.75c-19.06,7.12-32.87-17.55-33.32-17.89-1.61-.44-3.06-1.15-4.33-2.09,1.07-6.77,4.64-27.19,4.64-27.19,0,0,1.37,31.52,10.89,30.76,2.39-.19.65-1.88.54-4.31-.64-13.11.44-36.83,14.12-53.32-3.69,6.93-22.49,60.07,7.47,74.04Z"/><path class="as" d="m88.71,70.68s-25.04,27.59-9.91,62.29c5.59,10.82,16.33,22.66,16.33,22.66l2.37-.89s-39.19-34.48-8.79-84.06Z"/><path class="as" d="m95.96,155.33c-15.81,5.79-19.33-1.4-19.59-.59-1.96.73-3.86,1.13-5.7,1.25-1.74-1.99-6.15-4.77-7.25-7.22-2.52-5.6-4.03-8.05-5.29-14.07-1.17-5.58.86-14.6,2.1-20.17-.95,8.91,1.43,18.38,6.04,26.06.68,1.13,1.45,2.27,2.57,2.96,1.12.69,2.68.8,3.64-.06,1.15,2.01,2.5,4.01,4.49,5.17,1.99,1.16,4.76,1.22,6.33-.44,1.06-1.12,1.38-2.79,1.2-4.34-.17-1.55-.79-3.01-1.39-4.45,4.28,5.3,8.57,10.59,12.85,15.89Z"/><path class="d" d="m83.51,66.13c-4.07-1.5-8.54-1.04-12.8-.42-3.75.55-7.5,1.21-11.11,2.37-3.34,1.07-6.53,2.61-9.48,4.52-5.34,3.46-9.9,8.14-13.27,13.58-1.69,2.72-3.07,5.62-4.11,8.66-.42,1.23-.55,3.57-1.27,4.58-.07.1-.14.18-.21.26,1.01-6.31,2.81-12.35,5.14-17.14,7.59-20.3,29.64-22.04,29.64-22.04.01-.19,8.2,1.42,10.37,2.41,2.37,1.08,4.73,2.15,7.1,3.23Z"/><path class="d" d="m86.32,133.19c-2.11-12.4-1.79-23.9,1.06-36.09.84-3.59,3.83-9.52,6.96-11.4,2.84-1.7,4.95-.5,7.85,1.17,2.9,1.67,5.06,4.4,6.85,7.25,8.26,13.19,14.93,28.15,14.72,43.67,2.2-4.8,3.31-9.25,3.72-14.55,1.07-13.77-4.8-25.15-8.42-36.46-2.06-6.44-6.59-12.18-12.31-15.71-5.72-3.53-13.76-3.85-18.57.75-2.57,2.46-3.91,5.92-5.15,9.28-2.4,6.5-4.72,13.06-6.05,19.88-1.33,6.82-1.64,13.95-.03,20.74,1.06,4.49,2.94,8.73,5.15,12.76,1.11,2.03,2.31,4.02,3.55,5.98.92,1.47,1.88,3.67,3.2,4.74.45-1.16-.18-2.8-.53-3.98-.81-2.67-1.52-5.31-1.99-8.06Z"/><path class="d" d="m88.74,69.03c-.04,1.07-.98,1.84-1.82,2.49-12.09,9.3-19.31,24.14-21.49,39.42-.26,1.81-.53,3.79-1.88,4.99-1.21-8.47-.63-17.18,1.65-25.38,2.07-7.43,4.95-12.53,11.14-17.01,1.82-1.32,3.79-2.45,5.89-3.26.5-.19,6.53-1.65,6.51-1.26Z"/><path class="d" d="m50.79,93.84c1.42-3.26,2.91-6.51,4.92-9.42,3.39-4.91,8.19-8.71,13.51-11.36,5.31-2.65,11.13-4.17,17.02-5-.62-.13-1.25-.11-1.88-.09-7.5.24-15.38.78-21.65,4.88-1.7,1.11-3.24,2.46-4.69,3.9-4.35,4.33-7.85,9.52-10.32,15.17-1.24,2.83-2.22,5.77-2.93,8.79-.36,1.54-2.21,7.75-.51,8.58,1.52-1.82,2.25-5.23,3.17-7.5,1.09-2.66,2.2-5.32,3.34-7.95Z"/><path class="d" d="m123.1,64.7c1.88.66,3.67,1.55,5.46,2.45,2.9,1.45,5.8,2.9,8.69,4.35.8.4,1.96.71,2.4-.06.38-.65-.15-1.45-.67-2-5.47-5.87-13-9.96-20.91-10.39-6.88-.38-15.73,2.41-19.63,8.53,1.68,0,3.91-1.63,5.55-2.22,2.03-.73,4.13-1.28,6.27-1.62,4.27-.67,8.71-.46,12.83.98Z"/><path class="d" d="m113.91,54.78c5.39-1.95,11.22-2.57,16.96-2.26,2.04.11,4.11.34,6.01,1.13,2.09.87,6.08,2.63,7.71,4.07,6.95,6.13,10.83,13.57,11.87,22.79-.58.22-1.13-.37-1.48-.9-4.66-7.02-8.76-14.96-15.96-19.27-3.29-1.97-7.01-3.03-10.74-3.82-3.02-.64-6.12-1.12-9.17-.71-2.84.38-5.51,1.51-8.14,2.65-3.65,1.58-6.95,3.41-10.28,5.54,2.4-4.47,8.68-7.59,13.21-9.22Z"/><path class="ay" d="m147.33,100.87c1.14,9.36,2.88,18.05,0,26.96-.97,3.03-5.03,11.13-10,16.26-6.84,5.28-16.05,4.67-16.05,4.67,0,0,1.35-2.8-.22-.17-6.27,9.21-14.36,8.79-19.25,7.55,2.5-1.07,5.29-1.46,7.78-2.76,2.59-1.35,4.98-3.08,7.08-5.12,4.13-4.01,7.15-9.21,8.35-14.91,1.11-5.29.78-10.8.22-16.2-.97-9.56-2.6-19.06-4.85-28.41,3.58,6.9,9.68,25.5,10.45,33.22,1,9.93-.89,9.74-2.26,19.13,1.38.71,3.09.44,4.41-.34,1.33-.77,2.34-1.99,3.26-3.22,9.4-12.48,12.89-29.37,9.26-44.78.84,2.64,1.48,5.36,1.82,8.12Z"/><path class="aa" d="m134.45,52.58c-3.52-1.07-7.23-1.44-10.87-1.02-.02-.16-.03-.31-.02-.46h0c7.83-3.35,10.31.28,10.88,1.48Z"/><path class="aa" d="m160.17,124c-.83,2.3-2.34,4.26-3.65,5.65.77-2.67,1.53-5.34,2.22-8.04,1.19-4.7,2.16-9.49,2.48-14.36.76-11.53-2.13-23.1-6.58-33.82-1.83-4.39-3.95-8.73-7.04-12.33-3.19-3.73-7.39-6.53-11.98-8.13,2.08.12,7.11.67,12.9,3.2,28.46,18.38,13.92,61.52,11.66,67.83Z"/><path class="as" d="m98.81,126.11c-.86-5.52-1.64-11.06-2.35-16.61.27,2.09,1.15,4.23,1.53,6.34.42,2.33.72,4.68,1.1,7.01.37,2.25.79,4.51,1.44,6.7.48,1.63,1.57,3.38,1.82,4.99-2.7-1.51-3.12-5.75-3.54-8.44Z"/><path class="aa" d="m110.93,49.29c-4.32,3.8-8.64,7.59-12.97,11.39-1.01.89-2.04,1.79-3.24,2.41,2.46-2.35,4.71-4.9,6.75-7.63,1.41-1.89,1.28-3.28,1.03-4.81,1.45.67,2.21,1.47,2.32,1.32,2.24-1.32,4.28-2.17,6.1-2.67Z"/><path class="as" d="m91.5,61.08c.43,2.39.96,4.96-.07,7.14-2.7-3.88-5.81-7.46-9.27-10.67-.77-.71-4.62-2.58-4.83-3.25,0-.04-.02-.07-.02-.11,5.04.02,9.86,1.09,9.8.7,1.2-.97,2.33-1.77,3.4-2.43.15,2.89.49,5.77,1,8.62Z"/><path class="af" d="m80.71,58.74l3.6,4.03c.28.31.44.72.39,1.13-.11.84-.94.97-1.63,1.02-3.1.23-6.2.46-9.3.69,3.02.41,6.03.88,9.03,1.39,1.08.18,1.3,1.66.32,2.14-1.02.5-2,1.09-2.91,1.78l6.48-2.01c.38-.12.81-.03,1.08.27.33.38.15.81-.02,1.18-1.05,2.22-2.1,4.43-3.15,6.65,2.99-5.74,9.56-9.7,15.91-8.47,2.79.54,5.33,1.97,7.81,3.38-1.32-2.15-3.55-3.71-6.01-4.17-.75-.14-1.41-.66-1.61-1.41-.49-1.85,2.06-2.15,2.77-3.6l-4.33.75c-.57-.68-.17-1.71.25-2.48.89-1.64,1.79-3.27,2.68-4.91-2.67.69-4.15,4.48-7.37,2.99-.8-.37-1.74-.28-2.35.35-1.5,1.53-.82,4.31-3.89,3.3-1.33-.44-2.66-1.38-3.91-2.02-1.04-.54-3.05-1.11-3.83-1.98Z"/><path class="as" d="m104.81,148.84c8.58-.49,16.61-6.13,20.02-14.08-1.35,5.91-2.93,12.23-7.44,16.2-3.86,3.4-9.19,4.44-14.27,5.17-1.87.27-3.81.5-5.61-.08-1.71-.55-3.13-1.77-4.44-3.03-4.76-4.6-9.31-10.4-11.75-16.62,3.57,1.15,6.21,6.62,9.63,8.76,4.14,2.58,9.03,3.96,13.86,3.68Z"/><path class="as" d="m39.91,135.55c-.42-.24-.81-.5-1.2-.78-3.79-2.79-6.15-7.6-7.37-13.35-1.38-6.56-1.28-14.33-.09-21.74,1.01-6.31,2.81-12.35,5.14-17.14.23-.61.47-1.2.73-1.78-2.1,7.84-3.67,15.65-3.49,24.1.22,10.49,2.31,20.89,6.28,30.7Z"/><path class="e" d="m84.54,91.4c-.29.78-.94,1.72-1.69,1.38-.52-.24-.61-.93-.59-1.51.11-3.72,1.7-7.21,3.43-10.48,1.27-2.39,3.57-6.84,6.49-7.56,2.84-.7,4.4.67,3.15,2.93-1.3,2.33-5.36,4.02-7.02,6.71-1.62,2.64-2.69,5.62-3.76,8.53Z"/><path class="e" d="m70.32,63.58l-.05.2c-2.53-.56-5.17-.63-7.71-.22-1.49.24-3.1.76-3.87,2.07-.11.19-.2.41-.14.62.12.45.73.48,1.18.41,3.8-.56,7.61-1.12,11.41-1.68.27-.57-.19-1.36-.82-1.4Z"/><path class="e" d="m67.1,93.71c-.14.46-.51,1.02-.94.81-.19-.09-.28-.31-.34-.52-.48-1.67.1-3.42.68-5.05.34-.95,2.5-8.59,3.63-5.16.63,1.92-2.41,7.92-3.03,9.92Z"/><g><path class="bg" d="m98.11,67.86c-.5.74-1.31,1.2-2.13,1.55-.48.2-.97.38-1.47.52-.22.06-.44.12-.67.17-.66.15-1.34.24-2.02.28-.83.05-1.67.01-2.5-.11-.3-.04-.6-.09-.9-.16-.06-.01-.12-.03-.18-.04-.59-.15-1.21-.41-1.48-.96-.13-.27-.17-.57-.2-.87-.9-7.71-4.53-15.09-10.1-20.48-1.52-1.47-3.27-2.79-5.22-3.61-1.47-.62-3.81-.33-5-1.28,1.54-.37,2.99-.93,4.12-1.86.05-.04.11-.09.16-.13.23-.2.44-.41.63-.64.57-.68,1.01-1.53,1.25-2.56,2.61-.3,5.12,1.06,7.43,2.37,3.14,1.79,6.33,3.62,8.86,6.22,1.5,1.54,2.73,3.32,3.86,5.15,2.19,3.54,4.01,7.3,5.44,11.22.62,1.71,1.13,3.75.12,5.23Z"/><path class="b" d="m98.4,67.33c-.08.18-.17.36-.29.53-.5.74-1.31,1.2-2.13,1.55-.48.2-.97.38-1.47.52-1.3-2.25-1.9-4.07-2.44-5.73-2.98-9.18-10.26-18.98-19.23-22.27-.77-.29-1.62-.6-2.32-1.05.79-.7,1.42-1.6,1.77-2.77.04-.14.08-.28.11-.42,2.61-.3,5.12,1.06,7.43,2.37,3.14,1.79,6.33,3.62,8.86,6.22,1.5,1.54,2.73,3.32,3.86,5.15,2.19,3.54,4.01,7.3,5.44,11.22.55,1.52,1.02,3.29.41,4.7Z"/><path class="ad" d="m89.32,70.27c-.3-.04-.6-.09-.9-.16-.06-.01-.12-.03-.18-.04-2.2-8.91-5.33-18.09-12.15-24.05-1.97-1.73-5.12-2.25-6.78-4.12,5.19,1.28,10.16,6.15,12.96,10.7,1.46,2.39,2.55,5,3.63,7.59,1.36,3.28,2.73,6.6,3.42,10.08Z"/><path class="ad" d="m93.84,70.1c-.66.15-1.34.24-2.02.28-.45-.76-.73-1.72-.93-2.59-1.44-5.98-3.86-11.79-7.52-16.67-3.71-4.94-8.02-7.32-13.01-10.11-.31-.17-.62-.34-.93-.52.53-.27,1.12-.33,1.72-.25,1.41.18,2.9,1.1,3.96,1.82,8.41,5.72,14.94,14.51,18.15,24.43.38,1.16.69,2.44.58,3.62Z"/><path class="bg" d="m98.4,67.33c-2.87-9.3-8.83-17.5-16.19-23.82-1.91-1.64-3.95-3.19-6.26-4.18-.62-.26-2.49-.58-3.66-1.23.04-.14.08-.28.11-.42,2.61-.3,5.12,1.06,7.43,2.37,3.14,1.79,6.33,3.62,8.86,6.22,1.5,1.54,2.73,3.32,3.86,5.15,2.19,3.54,4.01,7.3,5.44,11.22.55,1.52,1.02,3.29.41,4.7Z"/><path class="ab" d="m68.44,39.59c-1.11.82-2.16,1.98-1.8,3.11,1.54-.15,2.99-.82,4.17-1.68.82-.59,3.06-2.05,2.15-2.87-.98-.88-3.8.89-4.52,1.43Z"/></g></g><g><path class="ad" d="m137.99,124.94c2-1.05,1.23-.76,3.22-1.79,2.87-1.47,5.42-7.3,5.38-9.2-.04-1.89.18-4.21,1.68-5.5.49-.43,1.07-.68,1.56-1.11,1.11-.98,1.5-2.63,1.67-4.07.17-1.45.25-2.98,1.04-4.3,1.71-2.85,5.71-2.99,7.29-5.92.33-.61.51-1.28.8-1.91,1.15-2.52,3.82-3.93,6.12-4.13,1.51-.13,3,.14,4.15.99,1.14.85,1.91,2.3,1.9,3.99,0,1.07-.31,2.19-.29,3.25.03,1.37.6,2.65.2,4.05-.29,1.02-1.04,1.91-1.29,2.93-.19.75-.09,1.47-.02,2.19.2,2.04-.04,4.54-1.61,6.1-.7.7-1.57,1.11-2.23,1.86-1.3,1.49-1.47,4.01-3.04,5.06-1.4.93-3.05.04-4.42,1.06-.92.68-1.33,1.95-1.81,3.05-.48,1.1-1.39,2.32-2.36,2.23-.37-.03-.67-.26-1.01-.37-1.83-.62-4.19,1.96-6.09,1.49-.75-.19-1.28-.83-2-1.1-1.15-.43-2.57.15-3.87.73-1.9.85-4.1,2.23-6.03,2.69-.67.16-1.17-.08-.92-1.02.24-.91,1.29-.87,1.97-1.22Z"/><path class="c" d="m165.99,91.31c1.16-.1,2.31.11,3.19.77.88.65,1.47,1.77,1.46,3.08,0,.82-.24,1.69-.22,2.51.02,1.06.46,2.04.16,3.13-.22.78-.8,1.48-.99,2.26-.14.58-.07,1.14-.01,1.69.15,1.57-.03,3.5-1.23,4.7-.54.54-1.21.85-1.71,1.43-1,1.15-1.13,3.09-2.34,3.9-1.07.72-2.35.03-3.4.81-.71.53-1.02,1.5-1.39,2.35-.37.85-1.07,1.78-1.82,1.72-.29-.03-.52-.2-.78-.29-1.03-.35-2.29.62-3.46,1.02-2.17.82-4.32-.81-4.75-1.5-.72-1.16,2.02-2.42,1.55-3.8.29-.96.28-2.04.25-3.01-.03-1.46.13-3.25,1.29-4.24.38-.33.83-.52,1.2-.86.85-.76,1.15-2.02,1.28-3.14.13-1.12.19-2.3.8-3.31,1.32-2.2,4.39-2.3,5.6-4.56.25-.47.39-.99.61-1.47.88-1.94,2.93-3.03,4.71-3.18Z"/><path class="w" d="m164.03,95.99c1.14-.14,2.26,0,3.12.54s1.42,1.51,1.39,2.67c-.02.73-.26,1.51-.25,2.24,0,.94.42,1.79.11,2.77-.23.71-.8,1.35-1.01,2.05-.15.52-.08,1.01-.04,1.5.13,1.39-.08,3.11-1.28,4.23-.53.5-1.2.81-1.7,1.35-1,1.07-1.15,2.8-2.34,3.57-1.06.69-2.3.13-3.34.87-.7.5-1.02,1.38-1.4,2.15-.38.77-1.08,1.63-1.81,1.61-.28,0-.5-.15-.76-.22-1.01-.27-2.25.66-3.4,1.07-2.14.83-4.23-.52-4.64-1.12-.69-1,2.02-2.24,1.57-3.44.3-.87.3-1.82.29-2.68-.01-1.3.18-2.89,1.32-3.83.38-.31.82-.5,1.19-.81.85-.71,1.16-1.85,1.3-2.85.14-1,.22-2.05.83-2.98,1.32-2.01,4.33-2.24,5.55-4.3.25-.43.4-.89.62-1.33.89-1.76,2.92-2.82,4.66-3.04Z"/><path class="z" d="m162.47,101.17c.74-.12,1.45-.07,2,.22.54.29.9.84.87,1.52-.02.43-.18.89-.18,1.31,0,.55.26,1.03.05,1.61-.15.42-.53.81-.66,1.23-.1.31-.06.59-.04.88.07.81-.08,1.82-.86,2.51-.35.31-.78.51-1.1.84-.65.65-.76,1.67-1.54,2.15-.69.43-1.48.14-2.15.61-.46.31-.67.84-.92,1.3-.25.46-.71.98-1.17.99-.18,0-.32-.08-.49-.11-.65-.13-1.8,1.98-2.54,2.25-.41-.05-4.65,2.04-4.91,1.71-.43-.56,1.52-3.87,1.24-4.56.2-.52,2.3-2.33,2.3-2.83,0-.76.14-1.69.88-2.27.25-.19.53-.32.77-.51.55-.44.76-1.11.86-1.7.1-.59.16-1.2.56-1.76.87-1.21,2.8-1.43,3.61-2.67.17-.26.26-.53.41-.8.59-1.06,1.9-1.73,3.02-1.91Z"/><path class="j" d="m161.49,97.34c-.07.38-.08.76-.05,1.13.06.73.25,1.39.5,2.01.25.63.54,1.25.75,1.96.1.35.19.73.23,1.15,0,.03,0,.05,0,.08.54-.73,1.05-1.49,1.47-2.3.47-.89.8-1.87,1.17-2.86.18-.49.37-.99.6-1.48.22-.49.48-.96.78-1.39.15-.22.31-.42.48-.62.17-.19.35-.37.54-.53.19-.16.39-.29.59-.4.2-.11.41-.18.62-.23-.21.07-.41.16-.61.29-.19.13-.38.27-.56.44-.17.17-.34.35-.49.55-.15.2-.3.41-.43.62-.26.44-.48.9-.67,1.37-.19.48-.35.97-.5,1.46-.15.49-.3,1-.46,1.5-.08.25-.17.51-.27.76-.1.25-.2.5-.32.75-.45.99-1.01,1.92-1.61,2.79-.13.19-.27.38-.41.57,0,0,0,0,0,0-.05.19-.17.35-.32.42-.38.51-.76,1-1.15,1.49-.4.51-.8,1.01-1.21,1.51.33-.06.65-.09.96-.09.78-.01,1.51.1,2.23.16.72.06,1.46.05,2.21-.14.74-.19,1.52-.57,2.15-1.27-.29.38-.63.7-1,.96-.37.26-.75.45-1.14.6-.78.3-1.57.42-2.33.45-.76.03-1.5.03-2.23.14-.73.11-1.45.34-2.08.78-.02.01-.03.02-.05.03-.02.01-.05.02-.07.03-1.1,1.32-2.22,2.61-3.37,3.87-1.88,2.05-3.84,4.02-5.89,5.83.28,0,.55-.01.83-.01.73,0,1.44,0,2.15-.09.71-.09,1.42-.27,2.12-.62.7-.35,1.38-.85,2.04-1.4.66-.55,1.31-1.15,1.97-1.73.66-.58,1.34-1.15,2.05-1.61.71-.46,1.47-.79,2.2-.9-.74.16-1.48.54-2.16,1.04-.69.5-1.33,1.1-1.97,1.71-.63.62-1.26,1.26-1.92,1.86-.66.6-1.35,1.17-2.1,1.61-.75.44-1.54.7-2.3.84-.76.15-1.51.2-2.24.26-.73.06-1.45.12-2.15.29,0,0-.01,0-.02,0-.46.38-.93.75-1.41,1.11-3.12,2.39-6.5,4.28-9.94,5.36h-.03s-.04.02-.07.03c-.69.17-1.23-.35-1.22-1.17.01-.82.57-1.62,1.26-1.79,3.12-.78,6.27-2.33,9.3-4.39.04-.03.09-.06.13-.09.57-.83,1.15-1.64,1.66-2.48.52-.87.97-1.81,1.14-2.79.09-.49.11-.98.05-1.44-.03-.23-.08-.45-.16-.66-.08-.2-.18-.39-.3-.56.14.15.26.32.35.51.09.2.16.41.22.64.1.46.11.97.06,1.49-.05.52-.19,1.04-.36,1.55-.18.51-.4,1-.64,1.48-.24.47-.5.92-.76,1.36,1.4-1.03,2.77-2.15,4.12-3.35.35-.47.68-.95.98-1.47.68-1.18,1.2-2.5,1.38-3.82l.05-.49.02-.49c0-.32-.02-.64-.05-.96-.06-.64-.17-1.29-.19-1.98,0-.34,0-.7.06-1.06.06-.36.15-.72.29-1.07.14-.35.32-.68.55-.97.23-.29.51-.52.8-.65.03-.01.06,0,.07.04,0,.04-.01.08-.05.1h0c-.27.14-.51.36-.71.63-.2.27-.35.59-.46.91-.11.32-.19.66-.23.99-.04.33-.03.65,0,.97.05.64.18,1.26.28,1.91.1.64.15,1.35.08,2.07-.11,1.24-.51,2.5-1.05,3.67.48-.45.95-.91,1.42-1.38,1.4-1.39,2.77-2.84,4.11-4.32.67-.74,1.34-1.5,2-2.26.41-.47.81-.93,1.2-1.41.16-.64.14-1.32.03-1.99-.12-.68-.33-1.35-.52-2.04-.19-.7-.32-1.45-.31-2.24,0-.4.06-.8.17-1.2.11-.4.28-.79.51-1.12-.2.36-.33.74-.4,1.13Z"/></g><g><path class="x" d="m72.14,112.95c.41,1.65.55,3.32.67,4.97.46,6.4.51,12.75.31,19.03-.04,1.27-.1,2.55-.47,3.67-.26.77-.69,1.46-1.28,1.87-.26.19-.56.32-.88.38-.72.13-1.58-.09-2.15.36-.3.23-.47.6-.68.94-.8,1.28-2.18,1.96-3.66,1.91-.5-.02-1.01-.12-1.51-.32-.9-.35-1.78-.96-2.68-1.08-.92-.12-1.73.27-2.55.58-.33.13-.68.24-1.05.21-.86-.08-1.64-.93-2.31-1.72-1.98-2.37-3.9-4.87-5.65-7.49-2.86-4.28-5.25-8.89-6.69-13.81-.52-1.76-1.87-4.49-1.71-6.2.15-1.56.54-2.73,1.39-3.63h0c.2-.21.42-.4.66-.58.76-.56,1.83-.96,2.88-1.39,1.05-.43,2.09-.9,2.78-1.57.34-.34.71-.66,1.09-.96,1.19-.93,2.56-1.56,4.11-1.24.56.12,1.12.35,1.68.41,1.79.18,3.13-1.53,4.7-2.04.29-.1.6-.15.91-.15.23,0,.48.04.73.13.83.27,1.59,1,2.42,1.25.01,0,.02,0,.03,0,1.07.3,2.06-.22,3.12-.2.2,0,.4.03.6.07,1.14.24,2.29,1.07,3.14,2.15,1.01,1.28,1.66,2.87,2.05,4.45Z"/><path class="at" d="m72.14,112.95c.41,1.65.55,3.32.67,4.97.46,6.4.51,12.75.31,19.03-.04,1.27-.1,2.55-.47,3.67-.37,1.12-1.12,2.06-2.17,2.25-.72.13-1.58-.09-2.15.36-.3.23-.64.5-.68.94q0,.06.05-.06c-.22-9.32-1.19-16.37-5.84-24.96-2.02-3.72-4.14-4.22-5.24-4.64-2.69-1.03-2.71.84-1.06-2.72.96-2.06,2.08-3.99,3.48-5.59.33-.38.66-.75,1-1.11.23,0,.48.04.73.13.83.27,1.59,1,2.42,1.25,1.09.32,2.08-.21,3.16-.19,1.34.03,2.74.95,3.75,2.22,1.01,1.28,1.66,2.87,2.05,4.45Z"/><path class="bc" d="m62.78,113.91c1.82,1.72,3.03,4.24,3.7,6.75.67,2.51.85,5.05,1.03,7.57.25,3.53.5,7.06.75,10.6,1.42-6.49.3-13.89-1.2-21-.32-1.5-.69-3.08-1.59-4.32-1.11-1.53-2.84-2.25-4.39-2.28-1.38-.03-2.91.33-4.07,1,1.93-.45,3.93-.04,5.77,1.7Z"/><path class="at" d="m66.96,106.34c-.29.16-.66.2-1,.22-3.25.13-3.64.22-5.24,1.68-.63.58-1.58,2.26-2.48,2.3-1.03.05-2.06-.64-1.33-1.79.74-1.17,1.48-2.35,2.23-3.52.29-.1.6-.15.91-.15.23,0,.48.04.73.13.83.27,1.59,1,2.42,1.25,1.09.32,2.08-.21,3.16-.19.2,0,.4.03.6.07Z"/><path class="bc" d="m72.14,112.95c.41,1.65.55,3.32.67,4.97.46,6.4.51,12.75.31,19.03-.04,1.27-.1,2.55-.47,3.67-.26.77-.69,1.46-1.28,1.87.22-.73.26-1.61.27-2.44.08-5.34.06-10.7-.16-16.1-.16-3.9-.45-7.91-1.77-11.76-.4-1.15-.94-2.35-1.83-3.07-1.06-.85-2.35-.81-3.45-.55-1.91.45-3.6,1.41-5.29,2.37,1.15-1.66,3.28-3.09,4.78-4.36,1.07.3,1.36-.33,2.43-.31.2,0,.4.03.6.07,1.14.24,2.29,1.07,3.14,2.15,1.01,1.28,1.66,2.87,2.05,4.45Z"/><path class="ag" d="m45.6,111.64c0,.12-.09.2-.18.25-1,.71-2.7,2.34-2.88,3.77-.37,2.88.29,3.61.95,6.66.38,1.74,1.07,4.5,1.55,6.22.62,2.22,2.25,5.58,3.2,7.71-2.86-4.28-5.25-8.89-6.69-13.81-.52-1.76-1.87-4.49-1.71-6.2.15-1.56.54-2.73,1.39-3.63h0c.2-.21.42-.4.66-.58.76-.56,1.83-.96,2.88-1.39.26.21.49.45.71.74.06.08.12.17.12.26Z"/><path class="bc" d="m50.09,113.39c-2.87-.87-6.33-2.22-8.85-.78.2-.21.42-.4.66-.58,1.53-1.12,4.27-1.61,5.66-2.96.34-.34.71-.66,1.09-.96,1.28.68,2.62,2.02,3.35,3.34.98,1.79-.68,2.32-1.91,1.94Z"/><path class="an" d="m59.8,111.9c.06.21.14.48,0,.6-.07.06-.17.06-.27.05-.5-.03-1-.07-1.5-.11-.07,0-.14,0-.21-.02-.95-.07-2.07-.04-2.44.9,0,0,0,0,0,0-.1.25-.14.55-.32.72-.01.01-.03.03-.05.04-.12.09-.28.11-.43.13-.79.07-1.62-.14-2.43-.2-.16-.01-.33-.02-.49-.01-.65.02-1.27.19-1.68.68.14-.32.28-.64.28-1.02,0-.38-.16-.82-.47-1.02.75-.32,1.28-1.14,1.36-2.12,1.39.35,2.53-.03,3.64-.67.62-.35,1.88-1.3,2.66-.83.15.09.26.26.39.4.54.56,1.78.46,2.38.27-.17.69-.64,1.44-.41,2.21Z"/><path class="bg" d="m58,111.04c-.09.43-.08.92.03,1.4-.07,0-.14,0-.21-.02-.95-.07-2.07-.04-2.44.9-.11.09-.2.22-.25.38-.04.12-.07.26-.12.38-.12.09-.28.11-.43.13-.79.07-1.62-.14-2.43-.2-.16-.01-.33-.02-.49-.01,0-.03,0-.07,0-.1,0-.28-.12-.61-.33-.75.51-.23.85-.82.89-1.54.95.27,1.71,0,2.46-.45.41-.25,1.26-.93,1.79-.58.1.07.18.19.27.29.37.42.87.32,1.28.18Z"/><path class="v" d="m55.9,112.34c-.1.24-.32.25-.51.33-.34.15-.55.6-.84.9-.09.1-.27.26-.48.36-.28.14-.59.18-.79-.16-.32-.55-.4-1.65-.48-2.23-.1-.79-.25-1.6-.44-2.41-.14-.61-.32-1.22-.55-1.79-.21-.5-.46-.96-.71-1.41-.59-1.05-1.23-2.11-1.96-2.8-.93-.88-1.92-1.08-2.77-.93-.85.15-1.6.62-2.4.95-.16.07-.36.12-.53-.1-.21-.25-.25-.68-.26-1.03-.04-1.11-.04-2.2,0-3.27,0-.04,0-.08.02-.11.53-1.39,1.94.15,2.84.24,1.15.11,2.36.72,3.57,1.33.57.29,1.14.58,1.69,1.09.17.16.33.33.49.52.83.99,1.51,2.4,2.06,3.81.65,1.69,1.14,3.45,1.78,5.13.2.53.43,1.19.28,1.56Z"/><path class="bh" d="m56.19,110.73c-.12-.31-.23-.62-.34-.93-.25-.76-.49-1.52-.74-2.28-.64-1.99-1.37-4.13-2.51-5.53-.1-.15-.21-.29-.32-.42.03.04.05.09.07.14-.55-.59-1.13-.96-1.71-1.33-.6-.38-1.21-.76-1.81-1.09-.6-.33-1.2-.61-1.76-.61-.49,0-.93.21-1.45.06-.57-.17-1.65-.79-2.11-.54-.27.14-.28.3-.32.79-.02.27.04.66.06.96.02.32.23.68.43.77.17.08.42-.09.57-.12.19-.04.38-.08.57-.11.78-.15,1.57-.27,2.37-.33.72-.05,1.47-.03,2.26.42,1.38.79,2.73,2.65,3.74,4.69,1.01,2.06.94,4.56,1.14,6.17.05.39.09.78.14,1.18.04.33.03.83.13,1.16.02.07.05.13.08.18.21-.11.45.27.54.18.28-.3.43-1.15.82-1.34.18-.09.28-.35.53-.36.73-.02-.16-1.16-.37-1.7Z"/><path class="ba" d="m44.47,103.49c.83-.6,1.24-.82,1.94-1.2.39-.21.88-.06,1.37.19,1.02.53,2.07,1.54,2.94,2.89.87,1.35,1.56,3.05,1.87,4.73.24,1.24.18,2.49.43,3.88.08,0,.36-.04.44-.04-.02-1.63-.24-3.51-.7-5.25-.46-1.73-1.16-3.45-2.05-4.85-.26-.41-.54-.79-.83-1.07-.27-.25-.55-.4-.83-.52-.45-.2-.94-1.07-1.38-1.17-.93-.22-1.81.42-2.61.74-.33.14-.64.35-.95.56-.25.17-1.03.31-.6,1.02.32.54.68.29.96.09Z"/><path class="at" d="m47.65,114.79c-1.15,1.21-1.28,3.34-1.15,5.34.51,7.68,4.05,15.34,8.25,22.11-1.74-3.94-2.99-8.06-4.24-12.16-.59-1.94-1.19-3.92-1.33-5.88-.24-3.4.64-7.15,2.71-9.04,1.79-1.63,3.29-.48,3.18-1.1-.11-.61-2,.02-2.42-.01-1.8-.14-3.67-.66-5.01.75Z"/><path class="at" d="m56.24,132.06c.18.77.36,1.55.57,2.32.44,1.64,1.26,4.87,1.84,6.45-.13.18-.72-1.9-.89-2.32-1.88-4.58-3.38-10.38-3.53-14.84.91,2.88,1.35,5.5,2.01,8.4Z"/><path class="ag" d="m57.56,118.96c-1.55.66-3.18,1.23-4.98,1.01-.46-.06-.95-.18-1.38-.57-.43-.39-.76-1.14-.62-1.65.15-.59.76-.59,1.28-.51,1.45.23,2.92.67,4.35.76,1.56.1,2.54-.51,3.78-1.23.39,1.17-1.89,1.96-2.43,2.19Z"/><path class="ag" d="m44.51,114.19c-.3.1-.52.35-.73.6-.09.1-.18.23-.14.39.03.1.1.17.16.25.26.28.53.57.85.69.2.08.4.09.6.1.19,0,.39,0,.56-.07.17-.08.31-.24.32-.47.04-.84-1.03-1.69-1.63-1.48Z"/></g><g><g><path class="aq" d="m150.35,143.71c-5.38,5.98-12.93,8.78-20.23,10.79-1.56.43-3.13.84-4.72,1.09-3.14.51-6.29.43-9.42.35-.65-.02-1.33-.04-1.96-.19-.42-.1-.81-.26-1.17-.5-1.44-1-1.78-3.11-1.96-5.01-.52-5.51-.73-11.08-.62-16.66.01-.59.03-1.22.28-1.76.03-.06.05-.11.09-.17,1.11-1.93,4.93-1.7,6.63-1.97,2.79-.43,5.57-.94,8.36-1.37,1.59-.25,3.17-.47,4.76-.64,5.78-.62,11.7-.53,17.03,1.53,1.19.46,2.36,1.03,3.26,1.96.5.52.91,1.13,1.23,1.79.54,1.13.84,2.43.98,3.73,0,.02,0,.04,0,.06.09.9.11,1.82-.08,2.72-.35,1.63-1.38,3.04-2.48,4.26Z"/><path class="b" d="m150.35,143.71c-5.38,5.98-12.93,8.78-20.23,10.79-1.56.43-3.13.84-4.72,1.09-3.14.51-6.29.43-9.42.35-.65-.02-1.33-.04-1.96-.19.93-1.35,1.88-2.69,2.86-4,.28-.38.58-.77.99-.96.41-.19.86-.15,1.28-.11,9.43.82,19.32-1.95,27.59-7.72,1.3-.91,2.57-1.9,3.71-3.04.57-.57,1.1-1.18,1.58-1.83.16-.21.55-.99.88-1.35.09.9.11,1.82-.08,2.72-.35,1.63-1.38,3.04-2.48,4.26Z"/><path class="bg" d="m151.92,132.94c-3.49-.59-7.09-.48-10.66-.38-2.36.07-4.71.14-7.07.28-4.15.25-8.24.8-12.34,1.8-1.54.37-2.66.07-4.12-.39-2.12-.67-4.24-1.34-6.36-2.01-.29-.09-.6-.21-.81-.42.03-.06.05-.11.09-.17,1.11-1.93,4.93-1.7,6.63-1.97,2.79-.43,5.57-.94,8.36-1.37,1.59-.25,3.17-.47,4.76-.64,5.78-.62,11.7-.53,17.03,1.53,1.19.46,2.36,1.03,3.26,1.96.5.52.91,1.13,1.23,1.79Z"/><path class="aq" d="m141.07,129.04c.87-.04,1.76-.05,2.58.15.29.07.25.54-.05.59-.69.13-1.39.16-2.09.19-6.03.26-12.1.64-18.04,2.21-1.05.28-2.1.59-3.16.61-.52,0-2.01-.04-2.25-.66-.31-.81.7-.81,1.12-.83,1.77-.1,3.53-.27,5.3-.47,3.56-.4,7.11-.93,10.67-1.32,1.97-.21,3.94-.39,5.91-.47Z"/><path class="b" d="m136.54,137.3c1.68-.3,3.38-.65,5.06-.7.48-.01.55.73.09.89-6.23,2.26-12.61,3.85-18.98,5.43-.14.03-.29.07-.41,0-.09-.06-.14-.18-.18-.29-.31-.85-.68-2.65-.19-3.56.43-.81,1.29-.15,1.98-.15,2.61.03,5.41-.56,8.02-.91,1.54-.21,3.08-.44,4.61-.71Z"/><path class="b" d="m106.79,136.23c.52-1.71,1.14-3.57,2.53-4.58.56-.41,1.2-.64,1.84-.83,2.1-.63,4.39-.87,6.27.1.71.37,1.34.9,1.96,1.42.81.69,1.64,1.39,2.24,2.31,1.17,1.78,1.37,4.14,1.53,6.39.16,2.25.31,4.58-.39,6.77-.28.87-.68,1.69-1.13,2.47-1.63,2.87-4.1,5.5-7.09,6.03-.85.15-1.7.12-2.54.05-1.17-.1-1.77-.82-2.71-1.55-1.33-1.04-2.46-2.4-2.92-4.14-.67-2.56-1.36-5.19-1.28-7.93.06-2.2,1.05-4.41,1.68-6.51Z"/><path class="z" d="m107.27,136.75c.48-1.59,1.05-3.3,2.32-4.24.51-.38,1.1-.59,1.68-.77,1.91-.59,4-.82,5.7.07.65.34,1.21.83,1.78,1.31.74.64,1.49,1.28,2.03,2.13,1.06,1.64,1.23,3.82,1.37,5.9.14,2.08.27,4.23-.38,6.26-.25.8-.62,1.56-1.03,2.29-1.49,2.66-3.75,5.1-6.48,5.59-.77.14-1.55.12-2.32.05-1.07-.09-1.61-.75-2.46-1.42-1.21-.95-2.23-2.21-2.64-3.81-.6-2.36-1.22-4.8-1.13-7.33.07-2.03.97-4.08,1.56-6.02Z"/><path class="am" d="m108.62,137.97c.38-1.25.82-2.6,1.83-3.34.4-.3.87-.47,1.32-.61,1.5-.46,3.15-.65,4.49.06.51.27.96.65,1.4,1.03.58.5,1.17,1.01,1.6,1.67.83,1.29.97,3.01,1.08,4.64.11,1.64.21,3.33-.3,4.93-.2.63-.49,1.23-.81,1.8-1.17,2.1-2.95,4.02-5.1,4.41-.61.11-1.22.09-1.82.04-.84-.07-1.27-.59-1.93-1.12-.95-.75-1.76-1.74-2.08-3-.47-1.86-.96-3.78-.89-5.77.05-1.6.76-3.21,1.23-4.74Z"/><path class="ad" d="m117.84,142.37c0-.11-.01-.22-.08-.3-.07-.08-.17-.09-.27-.12-.14-.05-.27-.13-.42-.13-.23,0-.44.22-.52.47-.07.25-.04.51.01.75.08.35.56,2.02.94,1.77.46-.3.34-1.97.32-2.43Z"/><path class="ad" d="m115.74,143.12c-.06-.08-.13-.16-.23-.18-.1-.02-.2.04-.29.07-.14.05-.3.07-.43.16-.2.15-.26.45-.19.69.07.24.23.42.41.57.25.22,1.55,1.22,1.74.78.23-.53-.75-1.75-1.01-2.09Z"/><path class="ad" d="m114.45,145.25c-.1-.02-.2-.04-.29.01-.09.05-.14.16-.2.25-.09.14-.21.25-.27.41-.08.24.03.51.22.65.19.13.43.16.66.16.34,0,1.97-.12,1.89-.58-.1-.55-1.6-.81-2.01-.9Z"/><path class="ad" d="m111.88,146.34c.08.06.17.12.27.1.1-.01.18-.1.27-.16.13-.09.28-.16.38-.28.16-.2.14-.5.01-.71-.13-.2-.34-.32-.55-.42-.3-.13-1.83-.67-1.9-.2-.09.57,1.18,1.41,1.52,1.66Z"/><path class="ad" d="m112.49,144.22c.1,0,.21-.02.28-.09.08-.07.11-.19.15-.29.06-.15.15-.3.17-.46.03-.25-.15-.48-.36-.56-.22-.08-.46-.04-.69.02-.33.09-1.92.63-1.73,1.05.22.5,1.76.35,2.18.33Z"/><path class="ad" d="m111.68,142.14c.09-.06.18-.13.21-.23.04-.1,0-.22,0-.33-.02-.16,0-.33-.05-.47-.09-.23-.35-.32-.58-.27-.23.05-.43.22-.61.39-.26.26-1.44,1.57-1.08,1.82.43.3,1.74-.67,2.11-.92Z"/><path class="ad" d="m111.96,139.42c-.08.07-.17.14-.2.25-.03.11,0,.22.03.32.03.16.02.33.09.47.11.22.38.29.6.21.23-.07.42-.25.58-.44.24-.28,1.32-1.69.95-1.9-.45-.25-1.7.82-2.05,1.1Z"/><path class="ad" d="m113.48,141.09c-.04.1-.09.21-.06.31.02.11.11.18.17.25.1.11.17.26.29.34.2.12.47.03.64-.15.17-.18.26-.44.32-.69.09-.36.41-2.13-.02-2.1-.52.04-1.15,1.61-1.34,2.04Z"/><path class="ad" d="m115.59,141.05c0,.11.02.22.09.3.07.08.18.09.27.12.14.04.27.12.42.12.23,0,.44-.23.51-.48.07-.25.03-.51-.03-.75-.09-.35-.6-2-.98-1.74-.45.31-.3,1.97-.27,2.43Z"/><path class="b" d="m147.44,138.03c-5.81,2.62-11.9,4.18-17.92,5.97-.27.08-.58.22-.64.51-.09.48.55.6.98.52,6.74-1.23,13.43-2.98,20.01-5.22.19-.06.39-.13.58-.07.57.18.35,1.13.03,1.71.31.24.79.09,1.08-.23.29-.32.42-.75.54-1.17.27-.99,1.66-5.27.27-5.21-.66.03-1.54,1.27-2.11,1.66-.89.62-1.85,1.09-2.82,1.53Z"/></g><g><path class="b" d="m103.71,164.18c-.84-.28-1.66-.63-2.37-1.17-.76-.57-1.37-1.34-1.95-2.12-1.48-1.97-2.9-4.15-3.17-6.74-.12-1.17,0-2.38.13-3.57.06-.6.13-1.2.22-1.8.07-.49.39-1.28.28-1.72-.83.49-1.61,1.46-2.25,2.21-.57.67-1.11,1.4-1.41,2.25-.27.76-.32,1.57-.38,2.37-.11,1.64-.22,3.3,0,4.91.21,1.61.78,3.18,1.85,4.26.77.78,1.78,1.27,2.5,2.11.33.38.6.83.94,1.2,1.41,1.56,3.72,1.56,5.67,2.2.89.29,1.79.73,2.73.57.76-.13,1.43-.65,2.07-1.14,1.3-1.01,2.65-2.07,3.49-3.55-2.78.84-5.7.63-8.36-.26Z"/><path class="aq" d="m114.45,159.63c.21-.7.4-1.4.44-2.12.08-1.67-.7-3.19-1.61-4.47-.67-.95-1.42-1.82-2.2-2.65-1.52-1.62-3.21-3.1-5.18-4-1.81-.83-3.83-1.15-5.84-.94l1.02-.03c-.58.08-1.16.16-1.74.23-.31.04-.62.08-.91.21-.27.12-.52.3-.76.5-2.46,2.03-3.86,5.52-3.51,8.72.06.52.16,1.05.08,1.58-.04.31-.14.61-.19.91-.18,1.15.42,2.23,1.16,3,.73.78,1.63,1.38,2.28,2.24.28.37.51.78.81,1.13.66.79,1.59,1.23,2.5,1.66,1.3.61,2.62,1.23,4.03,1.47,2.02.35,4.2-.11,6.05-1.27.55-.34,1.07-.75,1.5-1.27.53-.65.87-1.45,1.18-2.25.34-.87.64-1.75.91-2.65Z"/><path class="z" d="m113.39,159.26c.19-.63.36-1.27.4-1.92.08-1.51-.62-2.88-1.42-4.03-.6-.85-1.26-1.64-1.96-2.39-1.36-1.45-2.86-2.79-4.62-3.6-1.61-.74-3.42-1.03-5.22-.83l.91-.03c-.52.07-1.03.14-1.55.22-.28.04-.55.08-.82.19-.25.11-.47.27-.68.45-2.2,1.84-3.47,4.99-3.17,7.89.05.47.14.95.07,1.43-.04.28-.13.55-.17.83-.16,1.04.37,2.01,1.02,2.71.65.7,1.45,1.24,2.03,2.01.25.33.45.7.72,1.02.59.71,1.42,1.11,2.23,1.49,1.16.55,2.33,1.1,3.6,1.31,1.81.31,3.76-.11,5.41-1.17.49-.31.96-.68,1.34-1.15.48-.59.78-1.32,1.06-2.04.3-.79.58-1.59.82-2.39Z"/><path class="am" d="m110.79,158.34c.14-.45.26-.91.29-1.38.05-1.09-.45-2.07-1.02-2.9-.43-.61-.91-1.18-1.41-1.72-.98-1.05-2.06-2-3.32-2.59-1.16-.53-2.46-.74-3.75-.59l.65-.02c-.37.05-.74.1-1.12.16-.2.03-.4.06-.59.14-.18.08-.34.2-.49.32-1.59,1.32-2.5,3.59-2.28,5.67.04.34.1.68.05,1.03-.03.2-.09.39-.12.59-.12.75.27,1.45.74,1.95.47.5,1.04.89,1.46,1.45.18.24.33.51.52.73.42.51,1.02.8,1.6,1.07.83.39,1.68.79,2.59.94,1.3.22,2.7-.08,3.9-.84.35-.22.69-.49.96-.83.34-.43.56-.95.76-1.47.22-.57.42-1.14.59-1.72Z"/><g><path class="ad" d="m100.85,157.55c.05.08.1.17.18.2.09.03.18,0,.28-.03.14-.03.28-.02.41-.09.2-.11.29-.38.25-.61-.03-.23-.16-.42-.31-.59-.2-.24-1.27-1.33-1.5-.95-.27.46.49,1.71.68,2.07Z"/><path class="ad" d="m102.08,155.95c.08.04.17.07.26.04.09-.03.15-.12.22-.2.1-.11.23-.19.3-.33.11-.21.04-.48-.11-.63-.15-.16-.36-.22-.57-.26-.3-.06-1.79-.23-1.78.21.01.52,1.32,1.02,1.68,1.18Z"/><path class="ad" d="m102.55,153.95c.09-.02.19-.04.25-.11.07-.08.08-.19.11-.28.04-.15.12-.29.12-.44,0-.23-.18-.42-.39-.47-.21-.05-.43.01-.63.09-.3.12-1.72.78-1.51,1.15.25.43,1.66.13,2.05.06Z"/></g><g><path class="ad" d="m106.79,158.31c.06-.08.11-.17.11-.27,0-.1-.06-.18-.11-.27-.07-.13-.1-.27-.2-.37-.15-.15-.41-.13-.6,0-.18.13-.31.35-.41.56-.14.31-.75,1.87-.35,1.93.47.08,1.31-1.23,1.55-1.59Z"/><path class="ad" d="m105.05,157.75c0-.1,0-.21-.05-.28-.05-.08-.15-.1-.24-.14-.12-.06-.24-.15-.37-.16-.21-.02-.42.16-.51.38s-.08.47-.05.69c.04.33.35,1.92.72,1.73.44-.24.47-1.79.49-2.22Z"/><path class="ad" d="m103.21,158.13c-.04-.09-.09-.18-.17-.21-.08-.04-.18,0-.28.01-.14.02-.28,0-.41.07-.2.1-.3.36-.28.6.02.23.14.43.27.61.19.25,1.19,1.41,1.44,1.04.29-.44-.39-1.75-.57-2.11Z"/></g><g><path class="ad" d="m104.6,152.38c-.09,0-.19,0-.26.07-.07.07-.1.17-.14.27-.06.14-.15.27-.17.42-.03.23.12.45.32.53.2.08.42.05.63,0,.31-.07,1.79-.53,1.62-.92-.19-.47-1.61-.38-2-.37Z"/><path class="ad" d="m105.1,154.29c-.08.06-.16.13-.19.22-.03.1,0,.2.02.3.02.15.01.3.08.43.1.2.34.27.55.21.21-.06.39-.23.54-.4.22-.25,1.25-1.54.9-1.74-.41-.24-1.58.73-1.91.98Z"/><path class="ad" d="m106.37,155.68c-.04.09-.08.19-.06.29.02.1.09.16.15.24.09.11.15.24.27.32.18.12.43.04.59-.13.16-.17.25-.4.31-.63.09-.33.42-1.96.02-1.95-.48.02-1.09,1.47-1.27,1.86Z"/></g></g><g><path class="b" d="m92.08,160.44c-1.79,1.83-4.35,3.02-7.1,3.64-.87.19-1.76.34-2.68.3-.98-.04-1.95-.28-2.91-.53-2.43-.64-4.94-1.46-6.74-3.07-.81-.73-1.44-1.59-2.06-2.45-.31-.43.11-1.6-.18-2.04-.23-.36.26-1.47-.09-1.72-.39.7-1,2.41-1.08,3.2-.07.71-.71,1.59-.44,2.29.24.63.42,1.52.86,2.08.91,1.15,1.83,2.31,2.99,3.29s2.59,1.78,4.13,2.01c1.12.17,2.25.04,3.36.27.51.1,1,.28,1.51.38,2.12.4,4.04-.65,6.05-1.11.92-.21,1.93-.32,2.61-.87.55-.44.8-1.09,1.03-1.71.47-1.27.94-2.59.74-3.97Z"/><path class="aq" d="m92.24,159.85c.04-.65-.16-1.31-.38-1.96-.24-.7-.51-1.4-.82-2.09-.24-.54-.5-1.08-.89-1.55-.91-1.11-2.39-1.74-3.84-2.17-1.07-.32-2.16-.56-3.26-.75-2.13-.38-4.3-.6-6.38-.33-1.9.25-3.67.91-5.12,1.92l.19-.12c-.41.3-.23.26-.64.56-.22.16-.44.32-.6.53-.15.19-.24.42-.31.65-.76,2.36.16,5.21,2.28,7.12.35.31.73.61.98.98.14.22.24.45.38.67.53.82,1.62,1.25,2.64,1.43,1.03.18,2.07.18,3.08.45.43.12.85.28,1.29.38.97.22,1.96.1,2.92-.01,1.37-.17,2.76-.34,4.01-.8,1.79-.65,3.23-1.89,4.01-3.43.23-.46.41-.95.44-1.46Z"/><path class="z" d="m91.09,159.68c.03-.59-.15-1.18-.34-1.77-.22-.64-.46-1.27-.74-1.89-.21-.49-.45-.97-.8-1.4-.81-1-2.15-1.58-3.44-1.97-.96-.29-1.93-.51-2.91-.69-1.9-.35-3.85-.56-5.7-.32-1.69.22-3.27.82-4.57,1.72l-.4.4c-.19.14-.39.29-.53.48-.13.17-.21.38-.27.58-.67,2.13.16,4.71,2.07,6.43.31.28.65.55.88.89.13.2.21.41.34.61.47.74,1.45,1.13,2.37,1.3.92.17,1.85.17,2.75.42.39.11.76.25,1.15.35.87.2,1.75.1,2.6,0,1.22-.15,2.46-.3,3.58-.71,1.59-.58,2.88-1.7,3.57-3.09.2-.41.36-.85.38-1.32Z"/><path class="am" d="m88.22,159.19c.02-.42-.1-.85-.25-1.27-.16-.46-.33-.91-.53-1.36-.15-.35-.32-.7-.57-1.01-.59-.72-1.54-1.14-2.48-1.42-.69-.21-1.39-.36-2.1-.49-1.37-.25-2.77-.4-4.1-.23-1.22.16-2.36.59-3.29,1.24l.5-.3c-.26.19-.52.39-.79.58-.14.1-.28.21-.38.34-.09.13-.15.27-.2.42-.48,1.53.12,3.39,1.49,4.63.22.2.47.39.63.64.09.14.15.29.25.44.34.53,1.04.81,1.7.93.66.12,1.33.12,1.98.3.28.08.55.18.83.25.63.15,1.26.07,1.87,0,.88-.11,1.77-.22,2.58-.51,1.15-.42,2.07-1.22,2.57-2.22.15-.3.26-.61.28-.95Z"/><g><path class="ad" d="m79.18,160.33c.08.03.18.07.26.05.09-.02.14-.08.2-.14.09-.08.21-.14.26-.23.09-.15,0-.37-.15-.5-.16-.13-.37-.2-.58-.24-.3-.07-1.76-.31-1.72.04.05.41,1.37.89,1.73,1.03Z"/><path class="ad" d="m79.22,158.77c.09-.01.18-.03.23-.09.05-.06.05-.14.06-.22.02-.11.07-.22.04-.34-.03-.18-.24-.33-.45-.36-.21-.04-.41.01-.6.08-.27.09-1.54.62-1.28.9.31.33,1.63.09,1.99.03Z"/><path class="ad" d="m78.44,157.29c.06-.05.13-.11.13-.18,0-.08-.04-.15-.08-.23-.05-.11-.07-.23-.16-.33-.13-.15-.38-.19-.57-.14-.19.06-.33.19-.44.33-.17.2-.9,1.25-.52,1.39.44.17,1.38-.63,1.64-.84Z"/></g><g><path class="ad" d="m84.28,158.26c0-.08-.01-.16-.07-.22-.06-.06-.16-.09-.24-.13-.12-.05-.24-.13-.37-.15-.21-.03-.4.1-.47.26-.07.17-.04.36,0,.54.07.26.49,1.52.84,1.39.41-.15.32-1.36.3-1.69Z"/><path class="ad" d="m82.59,158.65c-.05-.07-.12-.14-.2-.16-.09-.03-.18,0-.27.01-.13.02-.27,0-.38.06-.18.08-.24.29-.18.47.06.18.21.33.36.47.23.19,1.38,1.09,1.56.8.21-.34-.67-1.35-.9-1.64Z"/><path class="ad" d="m81.37,159.69c-.08-.04-.17-.07-.26-.06-.09.01-.15.08-.21.13-.09.07-.22.12-.28.22-.1.15-.03.37.12.51.15.14.36.22.56.27.3.08,1.75.39,1.73.05-.03-.41-1.32-.95-1.67-1.11Z"/></g><g><path class="ad" d="m79.14,155.4c-.07.04-.14.09-.16.16-.02.07.02.16.04.23.04.11.04.24.11.34.11.16.36.23.56.2s.36-.15.5-.27c.2-.18,1.09-1.11.74-1.29-.42-.22-1.48.45-1.78.63Z"/><path class="ad" d="m80.63,156.4c-.03.07-.05.15-.02.22.03.08.12.13.19.18.1.08.19.19.31.25.19.09.43.03.55-.11.13-.13.17-.31.19-.49.03-.26.09-1.53-.3-1.51-.46.02-.82,1.15-.93,1.45Z"/><path class="ad" d="m82.43,156.75c.02.08.05.16.12.21.07.05.17.06.26.09.13.03.26.09.39.09.21,0,.36-.16.39-.34.03-.18-.04-.36-.12-.54-.12-.25-.8-1.44-1.11-1.26-.37.22,0,1.41.08,1.74Z"/></g></g><g><path class="b" d="m108.37,147.41c-2.33,1.94-5.17,3.01-8.01,3.35-.89.11-1.8.15-2.67-.03-.92-.19-1.77-.61-2.61-1.06-2.11-1.12-4.24-2.47-5.42-4.67-.53-1-.85-2.13-1.16-3.24-.16-.56-.31-1.13-.44-1.7-.1-.47-.09-1.31-.35-1.66-.61.79-1,1.99-1.34,2.94-.3.84-.55,1.73-.53,2.61.02.79.26,1.54.49,2.28.49,1.52.98,3.05,1.76,4.39.78,1.35,1.88,2.51,3.28,3.02,1.01.37,2.14.37,3.13.81.45.2.86.48,1.32.67,1.9.78,4.08-.2,6.16-.46.95-.12,1.95-.11,2.79-.67.67-.45,1.12-1.19,1.55-1.91.87-1.46,1.77-2.98,2.03-4.67Z"/><path class="aq" d="m109,144.85c0-.92-.02-1.84-.09-2.76-.05-.71-.12-1.43-.35-2.08-.53-1.53-1.81-2.55-3.13-3.3-.97-.56-2-1.02-3.04-1.42-2.02-.79-4.15-1.39-6.34-1.36-2.01.03-4.04.61-5.87,1.67l.95-.46c-.52.32-1.04.63-1.56.95-.28.17-.56.34-.79.58-.22.22-.39.49-.54.77-1.6,2.86-1.68,6.58-.19,9.3.24.44.53.87.65,1.37.07.29.08.6.15.9.25,1.1,1.2,1.81,2.17,2.19.97.38,2.04.53,2.96,1.02.4.21.76.48,1.17.67.91.42,1.95.42,2.96.41,1.45-.01,2.92-.02,4.35-.42,2.04-.56,3.94-1.9,5.28-3.73.4-.54.75-1.13.96-1.78.27-.81.3-1.67.31-2.52Z"/><path class="z" d="m107.85,144.71c0-.83-.02-1.67-.08-2.49-.05-.64-.11-1.29-.31-1.89-.47-1.38-1.62-2.3-2.79-2.99-.87-.51-1.78-.92-2.71-1.29-1.81-.72-3.7-1.27-5.66-1.24-1.79.03-3.61.55-5.23,1.5l.85-.42c-.46.29-.93.57-1.39.86-.25.15-.5.31-.7.52-.19.2-.35.45-.48.7-1.43,2.59-1.49,5.95-.17,8.41.22.4.47.79.58,1.24.06.27.07.55.13.81.22,1,1.07,1.64,1.94,1.98.87.34,1.82.48,2.65.93.35.19.68.43,1.05.6.81.38,1.74.38,2.64.38,1.29,0,2.6-.02,3.88-.37,1.82-.5,3.52-1.71,4.71-3.36.35-.49.67-1.02.86-1.61.24-.73.27-1.51.27-2.28Z"/><path class="am" d="m105.04,144.31c0-.6-.02-1.2-.06-1.79-.03-.46-.08-.93-.23-1.36-.34-1-1.16-1.66-2.01-2.15-.63-.36-1.28-.66-1.95-.93-1.3-.52-2.66-.91-4.07-.89-1.29.02-2.59.39-3.77,1.08l.61-.3c-.33.21-.67.41-1,.62-.18.11-.36.22-.51.37-.14.14-.25.32-.35.5-1.03,1.86-1.08,4.28-.12,6.05.16.29.34.57.42.9.04.19.05.39.1.58.16.72.77,1.18,1.4,1.43.63.25,1.31.35,1.9.67.25.14.49.31.75.43.58.27,1.25.28,1.9.27.93,0,1.87-.01,2.79-.27,1.31-.36,2.53-1.23,3.39-2.42.25-.35.48-.74.62-1.16.17-.53.19-1.09.2-1.64Z"/><g><path class="ad" d="m95.28,146.06c.07.05.15.11.25.1.09-.01.17-.09.25-.14.12-.09.26-.14.35-.26.15-.18.13-.46.02-.65-.11-.19-.31-.3-.5-.39-.28-.13-1.68-.65-1.76-.21-.09.52,1.08,1.32,1.39,1.55Z"/><path class="ad" d="m95.87,144.1c.09,0,.19-.01.26-.08.07-.07.1-.17.14-.27.06-.14.15-.27.16-.42.03-.23-.13-.45-.33-.52-.2-.08-.42-.04-.63.01-.31.08-1.78.56-1.61.95.2.46,1.62.35,2.01.33Z"/><path class="ad" d="m95.6,142.12c.08-.05.17-.11.2-.21.04-.1.01-.2,0-.3-.01-.15,0-.31-.04-.44-.08-.21-.32-.3-.53-.26-.21.04-.4.19-.57.36-.24.23-1.35,1.44-1.02,1.67.39.28,1.62-.59,1.96-.82Z"/></g><g><path class="ad" d="m101.18,144.2c.02-.1.05-.2,0-.29-.04-.09-.13-.14-.2-.19-.11-.08-.2-.2-.33-.25-.2-.07-.44.06-.56.26-.13.2-.17.44-.18.68-.02.34-.04,1.99.36,1.88.47-.13.8-1.67.9-2.08Z"/><path class="ad" d="m99.33,144.44c-.03-.09-.07-.19-.15-.23-.08-.05-.18-.03-.27-.02-.14,0-.28-.03-.41.01-.21.07-.34.33-.34.56,0,.23.09.45.2.64.16.28,1.02,1.57,1.3,1.23.34-.4-.2-1.8-.33-2.19Z"/><path class="ad" d="m97.73,145.58c-.07-.06-.15-.12-.24-.11-.09,0-.17.08-.26.13-.12.08-.26.12-.36.23-.16.17-.16.46-.05.65.1.2.29.32.48.42.27.14,1.64.75,1.74.32.12-.52-1-1.39-1.3-1.64Z"/></g><g><path class="ad" d="m96.98,139.84c-.09.04-.18.09-.22.18-.05.09-.04.2-.04.3,0,.15-.04.3-.01.45.05.22.28.35.49.33.21-.01.42-.13.6-.27.26-.2,1.5-1.24,1.21-1.52-.35-.34-1.66.35-2.03.53Z"/><path class="ad" d="m98.14,141.33c-.05.09-.1.18-.1.28,0,.1.08.18.13.26.08.12.12.26.23.35.16.14.42.09.6-.05.18-.15.29-.37.37-.59.12-.32.63-1.91.23-1.95-.48-.04-1.24,1.33-1.45,1.7Z"/><path class="ad" d="m99.83,142.03c0,.1,0,.21.04.29.05.08.15.11.23.15.12.06.23.15.37.17.21.03.42-.15.52-.37.09-.22.09-.46.06-.69-.04-.33-.31-1.94-.68-1.75-.45.23-.51,1.78-.54,2.21Z"/></g></g></g><g><path class="ac" d="m60.52,122.68c1.19,1.38,2.14,2.94,3.05,4.5,3.54,6.05,6.67,12.29,9.51,18.61.57,1.28,1.14,2.58,1.32,3.91.12.92.04,1.86-.33,2.63-.16.35-.39.66-.67.91-.63.57-1.56.87-1.91,1.67-.17.41-.17.89-.21,1.34-.16,1.75-1.16,3.27-2.61,4.11-.49.29-1.03.49-1.61.61-1.04.2-2.18.13-3.11.56-.94.44-1.54,1.33-2.18,2.13-.26.33-.54.65-.91.84-.87.45-2.03.08-3.06-.3-3.06-1.14-6.12-2.43-9.08-3.96-4.83-2.49-9.37-5.59-13.14-9.58-1.35-1.43-3.98-3.3-4.65-5.08-.61-1.63-.79-3.03-.41-4.43h0c.09-.32.21-.65.36-.98.47-1.01,1.3-2.06,2.1-3.12.81-1.07,1.58-2.16,1.93-3.25.17-.54.36-1.08.59-1.61.7-1.64,1.72-3.1,3.36-3.73.6-.23,1.25-.33,1.82-.61,1.81-.91,2.29-3.42,3.55-4.88.24-.28.5-.51.81-.7.23-.14.48-.25.76-.32.94-.24,2.02.02,2.94-.24.01,0,.03,0,.04-.01,1.18-.35,1.88-1.47,2.92-2.1.2-.12.4-.22.62-.3,1.22-.46,2.72-.34,4.07.21,1.59.65,2.98,1.82,4.13,3.15Z"/><path class="g" d="m60.52,122.68c1.19,1.38,2.14,2.94,3.05,4.5,3.54,6.05,6.67,12.29,9.51,18.61.57,1.28,1.14,2.58,1.32,3.91.18,1.33-.09,2.72-1,3.54-.63.57-1.56.87-1.91,1.67-.17.41-.37.88-.21,1.34q.02.07.02-.09c-4.73-9.07-9.07-15.44-17.72-21.1-3.75-2.45-6.04-1.65-7.3-1.4-3.1.62-2.21,2.48-2.34-2.04-.07-2.62.08-5.21.65-7.64.13-.57.28-1.14.43-1.71.23-.14.48-.25.76-.32.94-.24,2.02.02,2.94-.24,1.21-.34,1.91-1.48,2.95-2.11,1.3-.79,3.1-.73,4.69-.09,1.59.65,2.98,1.82,4.13,3.15Z"/><path class="bd" d="m51.94,129.33c2.59.59,4.97,2.34,6.83,4.42,1.86,2.07,3.27,4.47,4.66,6.85,1.95,3.34,3.9,6.67,5.86,10.01-1.77-7.28-6.43-13.91-11.33-20.02-1.03-1.29-2.15-2.62-3.63-3.3-1.81-.83-3.83-.49-5.34.42-1.35.81-2.65,2.1-3.44,3.46,1.65-1.62,3.78-2.43,6.39-1.83Z"/><path class="bd" d="m52.32,119.31c-.2.33-.54.6-.86.83-3.08,2.1-3.41,2.44-4.24,4.85-.33.96-.43,3.19-1.28,3.78-.97.68-2.29.62-2.15-.96.15-1.61.3-3.22.45-4.83.24-.28.5-.51.81-.7.23-.14.48-.25.76-.32.94-.24,2.02.02,2.94-.24,1.21-.34,1.91-1.48,2.95-2.11.2-.12.4-.22.62-.3Z"/><path class="ax" d="m60.52,122.68c1.19,1.38,2.14,2.94,3.05,4.5,3.54,6.05,6.67,12.29,9.51,18.61.57,1.28,1.14,2.58,1.32,3.91.12.92.04,1.86-.33,2.63-.14-.86-.53-1.75-.92-2.57-2.51-5.32-5.12-10.61-7.94-15.8-2.04-3.76-4.26-7.54-7.4-10.53-.94-.9-2.04-1.75-3.25-1.92-1.44-.19-2.66.63-3.6,1.56-1.63,1.6-2.8,3.59-3.96,5.56.31-2.34,1.67-5.05,2.51-7.22,1.18-.35,1.16-1.16,2.19-1.79.2-.12.4-.22.62-.3,1.22-.46,2.72-.34,4.07.21,1.59.65,2.98,1.82,4.13,3.15Z"/><path class="aj" d="m34.27,137.53c.06.12,0,.25-.05.36-.62,1.31-1.47,3.96-.96,5.48,1.04,3.07,2.02,3.4,4.14,6,1.21,1.49,3.2,3.79,4.5,5.21,1.67,1.82,4.88,4.14,6.82,5.67-4.83-2.49-9.37-5.59-13.14-9.58-1.35-1.43-3.98-3.3-4.65-5.08-.61-1.63-.79-3.03-.41-4.43h0c.09-.32.21-.65.36-.98.47-1.01,1.3-2.06,2.1-3.12.35.05.69.15,1.04.3.09.04.19.09.24.18Z"/><path class="h" d="m39.44,136.54c-3.19.88-7.19,1.66-8.92,4.61.09-.32.21-.65.36-.97.94-2.03,3.35-4.19,4.03-6.37.17-.54.36-1.08.59-1.61,1.57-.11,3.51.39,4.85,1.26,1.81,1.17.46,2.7-.91,3.08Z"/><path class="an" d="m48.09,129.15c.17.17.36.39.3.59-.04.11-.14.17-.24.22-.5.27-1,.54-1.5.81-.07.04-.14.08-.21.11-.95.51-2.01,1.22-1.93,2.37,0,0,0,0,0,0,.02.31.13.63.04.91,0,.02-.02.04-.03.06-.07.16-.21.28-.35.39-.73.55-1.63.85-2.44,1.28-.16.09-.32.18-.48.29-.61.41-1.13.96-1.3,1.7-.02-.39-.04-.8-.22-1.18-.18-.38-.55-.72-.95-.72.57-.78.68-1.9.29-2.92,1.51-.5,2.42-1.57,3.19-2.88.43-.72,1.19-2.43,2.17-2.44.19,0,.38.1.56.16.79.23,1.44-.37,1.92-.93.17.79.58,1.56,1.18,2.18Z"/><path class="ba" d="m45.95,129.4c.12.48.37.96.71,1.37-.07.04-.14.08-.21.11-.95.51-2.01,1.22-1.93,2.37-.06.16-.08.34-.06.53.02.15.06.3.07.45-.07.16-.21.28-.35.39-.73.55-1.63.85-2.44,1.28-.16.09-.32.18-.48.29-.01-.03-.03-.07-.05-.1-.14-.27-.41-.52-.69-.54.38-.53.42-1.33.11-2.06,1.04-.31,1.65-1.04,2.15-1.94.28-.5.76-1.69,1.44-1.67.13,0,.27.08.4.13.56.19,1-.22,1.32-.6Z"/><path class="v" d="m45.24,131.88c-.05.28-.3.47-.48.69-.34.41-.46.96-.7,1.43-.08.15-.24.44-.44.69-.27.34-.62.63-.93.5-.5-.21-.89-1.08-1.12-1.51-.32-.59-.7-1.16-1.12-1.69-.32-.4-.67-.78-1.09-1.08-.36-.26-.76-.44-1.17-.62-.94-.42-1.93-.8-2.93-.8-1.27,0-2.43.62-3.34,1.43-.91.81-1.63,1.81-2.43,2.73-.16.19-.37.38-.62.34-.3-.05-.46-.38-.56-.66-.33-.91-.62-1.83-.87-2.76,0-.04-.02-.07-.01-.11.02-.07.09-.1.15-.12,1.15-.43,2.05-1.3,3.08-1.95,1.31-.82,2.83-1.28,4.34-1.73.71-.21,1.43-.43,2.18-.43.23,0,.46.02.69.05,1.19.18,2.32.82,3.3,1.58,1.17.91,2.18,2,3.34,2.92.37.29.79.66.73,1.1Z"/><path class="bh" d="m44.71,130.55c-.21-.17-.42-.34-.62-.52-.47-.45-.95-.89-1.42-1.34-1.24-1.17-2.62-2.4-4.26-2.67-.15-.04-.31-.07-.47-.1.04.02.08.04.12.06-.77-.06-1.52.09-2.26.25-.78.16-1.55.33-2.31.53-.75.2-1.5.45-2.13.89-.55.39-.99.93-1.61,1.21-.68.31-1.57.31-2.02.89-.26.34-.31.81-.23,1.25.05.25.13.49.23.73.1.25.12.45.36.37.21-.07.45-.41.61-.56.2-.19.41-.37.61-.55.83-.75,1.68-1.49,2.57-2.18.79-.62,1.64-1.21,2.63-1.46,1.75-.44,3.75.05,5.41.98,1.67.94,2.25,3.1,2.89,4.32.15.3.31.59.46.89.13.25.25.68.45.88.04.04.09.07.13.09.2-.26.57-.13.65-.28.23-.48.09-1.54.47-2.01.18-.22.42-.55.46-.84.06-.44-.35-.52-.72-.82Z"/><path class="ba" d="m30.56,133.99c.87-.7.74-2.13,1.42-3.02.38-.49.97-.76,1.58-.94,1.29-.37,2.72-.36,4.05.09,1.33.45,2.54,1.34,3.34,2.5.59.86.81,1.86,1.46,2.83.08-.06.4-.32.48-.38-.45-1.36-1.15-2.67-2.12-3.77-.96-1.1-2.2-1.99-3.57-2.47-.4-.14-.81-.24-1.21-.23-.37,0-.72.1-1.06.22-.55.19-1.08.44-1.6.7-1.1.56-2.16,1.22-2.97,2.13-.34.38-.63.81-.92,1.23-.23.34-1.07,1.09-.4,1.35.5.2,1.14.06,1.52-.25Z"/><path class="bi" d="m29.38,129.91s.07-.06.09-.11c.02-.04,0-.11-.04-.13-.04-.02-.09-.01-.13,0-.07.03-.13.06-.19.09-.38.21-.76.42-1.14.63-.1.05-.2.11-.26.21-.07.12-.05.28-.03.43.07.49.56-.13.7-.26.33-.3.66-.58,1-.87Z"/><path class="m" d="m37.76,139.4c-.53,1.89.38,4.09,1.47,5.98,4.21,7.28,11.33,12.69,18.67,16.82-3.58-2.84-6.79-6.15-9.98-9.44-1.51-1.56-3.04-3.15-4.13-5-1.88-3.21-2.84-7.45-1.76-10.59.94-2.7,2.95-2.48,2.54-3.02-.4-.54-1.93,1.24-2.35,1.46-1.81.96-3.86,1.59-4.47,3.79Z"/><path class="p" d="m54.42,151.24c.54.66,1.1,1.31,1.67,1.94,1.22,1.36,3.57,4.04,4.9,5.25-.04.26-1.62-1.44-1.99-1.75-4.03-3.38-8.28-8.2-10.59-12.51,2.27,2.3,3.96,4.61,6,7.07Z"/><path class="i" d="m49.35,137.5c-1.18,1.6-2.48,3.15-4.32,4.03-.47.22-1,.4-1.61.27-.61-.13-1.28-.66-1.4-1.26-.13-.67.45-1.05.99-1.29,1.51-.65,3.15-1.12,4.57-1.9,1.56-.85,2.21-2.05,3.05-3.51.94.92-.88,3.09-1.29,3.64Z"/><path class="i" d="m34.45,140.72c-.24.28-.33.66-.41,1.03-.03.15-.06.34.06.47.07.08.18.11.28.14.38.12.79.24,1.16.17.23-.04.43-.15.62-.27.19-.11.38-.24.51-.42.13-.18.18-.43.08-.66-.37-.86-1.81-1.04-2.29-.47Z"/></g><g><path class="aq" d="m120.47,161.78c-2.36-1.68-4.01-2.65-6.74-3.9-.44-.2-.2-.9.29-.85.91.09,1.83.11,2.73.25,6.39,1.01,7.59-.59,7.61-.89.19-2.84-11.64-1.9-15.65-1.82-1.44.03-2.88.07-4.32.12-2.14,1.21-4.5,1.78-6.94,2.02.05,0,.11,0,.16,0,2.07.06,3.18,2.09,3.69,3.8.45,1.47,1.1,3.21,2.59,3.89.32.15.69-.17.64-.52l-.77-5.01c-.02-.14-.04-.29-.04-.43,0-.42.52-.65.78-.35,1.88,2.18,3.76,4.37,5.64,6.55.5.58,1.19,1.21,1.95,1.33.32.05.62-.29.52-.61-.89-2.81-3.13-5-5.22-7.46-1.96-2.3,11.76,6.37,13.59,5.35.41-.23.5-.76-.49-1.46Z"/><path class="bl" d="m109.77,160.49c-1.68-2.53,10.9,7.71,12.8,6.9.43-.18.57-.71-.33-1.52-2.15-1.96-3.66-3.11-6.22-4.67-.41-.25-.1-.93.38-.82.88.2,1.79.32,2.66.56,6.18,1.73,7.53.26,7.59-.04.49-2.83-11.26-3.21-15.22-3.59-2.7-.25-5.39-.46-8.09-.65-.5-.03-.49-.77,0-.88,1.66-.38,3.32-.78,4.97-1.21,3.2-.82,6.47-1.73,9.29-3.6.24-.16.29-.49.12-.69-.71-.82-2.32-.55-3.52-.09-.71.28-1.43.56-2.14.85-.46.19-.78-.38-.41-.73,1.95-1.81,3.71-3.85,5.2-6.06.25-.37-.09-.82-.49-.65-2.74,1.15-5.28,2.92-7.38,5.12-.34.36-.88.04-.71-.42.58-1.58.92-3.22,1-4.86.02-.34-.34-.54-.64-.36-.53.32-.92,1.02-1.19,1.64-1.03,2.4-2.06,4.8-3.09,7.21-.18.41-.76.39-.83-.03-.01-.09-.02-.18-.03-.27-.13-1.64-.25-3.28-.38-4.91-.03-.38-.48-.51-.75-.22-.94,1-1.11,2.7-1.17,4.13-.08,1.73-.56,3.9-2.2,4.42-.69.22-1.4.07-2.09-.03-1.58-.21-3.22-.09-4.81.37-.52.15-1,.46-1.3.92-.06.1-.12.19-.15.27-.04.1-.12.19-.22.24-.64.32-.78.8.11,1.52.33.27.74.44,1.17.5,2.04.27,4.12.17,6.05-.31.81-.2,1.64-.46,2.49-.34,2.04.3,2.9,2.46,3.23,4.22.28,1.53.74,3.34,2.13,4.2.3.18.7-.09.68-.45l-.22-5.11c0-.14,0-.29.01-.44.05-.42.58-.59.8-.26,1.62,2.4,3.23,4.81,4.84,7.21.43.63,1.04,1.35,1.78,1.55.31.09.64-.23.57-.55-.58-2.92-2.54-5.37-4.34-8.07Z"/><path class="aw" d="m80.75,145.5c3.7-.67,7.69-1.31,10.97.41,3.58,1.88,5.4,6.19,5.9,10.41.29,2.41.22,4.96-.75,7.23-1.45,3.39-4.72,5.68-8.11,6.67-3.39.99-6.93.88-10.4.71-21.38-1.04-42.59-3.94-63.36-8.67-1.34-.3-4.07-1.23-3.33-3.31.54-1.52,3.34-1.51,4.56-1.73,5.18-.95,10.36-1.89,15.53-2.83,10.45-1.9,20.91-3.81,31.36-5.71,5.87-1.07,11.75-2.14,17.62-3.21Z"/><path class="ap" d="m97.76,158.84c0,.41-.02.82-.06,1.22-.1,1.2-.37,2.38-.84,3.5-1.45,3.39-4.72,5.68-8.11,6.67-3.39,1-6.93.88-10.4.71-21.38-1.04-42.59-3.94-63.36-8.67-1.09-.25-3.11-.91-3.41-2.27,2.48.93,5.15,1.46,7.81,1.93,22.15,3.92,45.07,4.75,67.96,2.46,2.11-.21,4.25-.46,6.26-1.28,1.3-.53,3.29-1.62,4.09-3.05l.06-1.22Z"/><path class="be" d="m91.18,148.7c-1.26-.46-2.67-.44-4.04-.41-6.83.18-13.79.71-20.42,3.02-.87.3-1.94.97-1.77,1.86.15.78,1.13.93,1.92.91,6.87-.21,13.76-2.34,20.63-2.38,1.15,0,2.3.05,3.44.16.46.04,2.86.69,3.15.41.9-.87-2.33-3.35-2.9-3.56Z"/><path class="be" d="m59.91,151.98c-3.02.51-6.05,1.02-9.04,1.86-.63.18-1.37.48-1.57,1.11-.15.5.13.99.54,1.21.41.23.92.24,1.42.24,3.26-.03,6.57-.76,9.77-1.91,2.66-.96.74-2.83-1.12-2.52Z"/><path class="ap" d="m93.55,160.63c.34.7.76,1.4.76,2.21,0,.35-.21.82-.55.79-.98-2.23-2.35-5.94-1.7-8.52.54.52.38,1.88.54,2.67.2.99.52,1.95.96,2.85Z"/><path class="ap" d="m78.49,164c.34.7.76,1.4.76,2.21,0,.35-.21.82-.55.79-.98-2.23-2.35-5.94-1.7-8.52.54.52.38,1.88.54,2.67.2.99.52,1.95.96,2.85Z"/><path class="be" d="m68.05,160.11c.19.6.45,1.2.36,1.85-.04.28-.25.63-.51.57-.53-1.88-1.21-4.99-.44-6.98.36.47.1,1.54.14,2.19.05.81.21,1.61.45,2.37Z"/><path class="ap" d="m43.45,159.63c.19.6.45,1.2.36,1.85-.04.28-.25.63-.51.57-.53-1.88-1.21-4.99-.44-6.98.36.47.1,1.54.14,2.19.05.81.21,1.61.45,2.37Z"/><path class="aw" d="m85.87,154.33c.25.57.59,1.13.42,1.85-.07.32-.39.77-.78.81-.67-1.83-1.49-4.92-.26-7.35.5.37.06,1.63.09,2.3.04.86.21,1.66.53,2.39Z"/><path class="be" d="m87.03,164.84c.25.57.59,1.13.42,1.85-.07.32-.4.77-.78.81-.67-1.83-1.49-4.92-.26-7.35.5.37.06,1.63.09,2.3.04.86.21,1.66.53,2.39Z"/><path class="aw" d="m72.25,150.99c.13.41.31.83.25,1.27-.03.19-.17.43-.35.39-.37-1.3-.84-3.44-.3-4.81.25.33.07,1.06.1,1.51.04.56.14,1.11.31,1.64Z"/><path class="aw" d="m60.53,155.42c.13.41.31.83.25,1.27-.03.19-.17.43-.35.39-.37-1.3-.84-3.44-.3-4.81.25.33.07,1.06.1,1.51.04.56.14,1.11.31,1.64Z"/><path class="ap" d="m56.71,164.72c.31.63.69,1.26.68,1.99,0,.32-.19.73-.5.71-.88-2.01-2.11-5.35-1.53-7.67.48.47.34,1.7.48,2.41.18.9.47,1.76.87,2.56Z"/></g><g><path class="az" d="m120.61,125.07c1.07-1.71.21-4.21-1.92-5.58-2.14-1.37-4.74-1.1-5.81.61-1.07,1.71-.21,4.21,1.92,5.58,2.14,1.37,4.74,1.1,5.81-.61Z"/><path class="ar" d="m119.73,124.13c.89-1.42.16-3.51-1.65-4.67-1.8-1.16-3.99-.94-4.88.48-.89,1.42-.16,3.51,1.65,4.67,1.8,1.16,3.99.94,4.88-.48Z"/><path class="ak" d="m118.63,123.91c.69-1.09.12-2.7-1.27-3.59-1.39-.89-3.06-.72-3.75.37-.69,1.09-.12,2.7,1.27,3.59,1.39.89,3.06.72,3.75-.37Z"/><path class="bm" d="m116.1,120.82c.29.15.61.33.69.65.05.19,0,.39-.05.57-.02.1-.06.2-.13.26-.08.07-.2.07-.31.06-.53-.06-1.35-.5-1.45-1.11-.13-.82.8-.66,1.24-.44Z"/><path class="ai" d="m119.9,125.36c-.22-.12-.31-.4-.28-.66.03-.26.17-.5.31-.71.07-.11.16-.22.27-.28.11-.07.26-.08.36,0,.13.11.11.33.06.5-.11.42-.45,1.15-.71,1.13v.02Z"/><path class="az" d="m134.69,125.37c-1.6-1.23-4.17-.6-5.73,1.4-1.56,2-1.53,4.62.07,5.85,1.6,1.23,4.17.6,5.73-1.4,1.56-2,1.53-4.62-.07-5.85Z"/><path class="ar" d="m133.67,126.16c-1.33-1.02-3.48-.48-4.8,1.21-1.32,1.69-1.31,3.89.03,4.91,1.33,1.02,3.48.48,4.8-1.21,1.32-1.69,1.31-3.89-.03-4.91Z"/><path class="ak" d="m133.09,126.16c-1.02-.78-2.67-.37-3.69.93-1.01,1.3-1,2.98.02,3.77,1.02.78,2.67.37,3.69-.93,1.01-1.3,1-2.98-.02-3.77Z"/><path class="bm" d="m129.85,127.42c.17-.28.38-.58.71-.63.19-.03.38.03.57.1.09.03.19.07.25.15.06.09.05.21.03.31-.11.53-.62,1.3-1.24,1.34-.83.06-.59-.86-.32-1.28Z"/><path class="ai" d="m134.91,126.1c-.14.21-.43.27-.68.22-.25-.05-.48-.21-.68-.38-.1-.08-.2-.18-.26-.29-.05-.12-.05-.27.04-.35.12-.12.33-.08.5-.01.41.15,1.1.56,1.06.82h.02Z"/><path class="u" d="m130.57,121.65c-.8-1.85-3.35-2.56-5.69-1.58-2.34.98-3.59,3.28-2.79,5.14.8,1.85,3.35,2.56,5.69,1.58,2.34-.98,3.59-3.28,2.79-5.14Z"/><path class="ae" d="m129.3,121.85c-.66-1.54-2.81-2.12-4.78-1.29-1.98.83-3.04,2.75-2.37,4.29.66,1.54,2.81,2.12,4.78,1.29,1.98-.83,3.04-2.75,2.37-4.29Z"/><path class="bb" d="m128.49,122.63c-.51-1.18-2.15-1.63-3.67-.99-1.52.64-2.33,2.11-1.82,3.3.51,1.18,2.15,1.63,3.67.99,1.52-.64,2.33-2.11,1.82-3.3Z"/><path class="al" d="m124.5,122.96c.29-.16.62-.32.93-.2.18.07.32.22.45.36.06.07.13.16.14.26,0,.11-.06.21-.12.29-.35.41-1.18.83-1.74.57-.75-.35-.09-1.03.34-1.27Z"/><path class="q" d="m130.41,122.4c-.22.11-.51.03-.7-.14-.2-.17-.31-.42-.41-.66-.05-.12-.09-.25-.08-.38,0-.13.08-.26.2-.29.17-.05.33.1.44.23.28.33.69,1.03.52,1.23h.02Z"/><ellipse class="u" cx="111.37" cy="127.96" rx="2.76" ry="3.48" transform="translate(-45.53 192.45) rotate(-71.31)"/><ellipse class="ae" cx="111.06" cy="127.61" rx="2.3" ry="2.93" transform="translate(-45.34 192.11) rotate(-71.38)"/><path class="bb" d="m113.01,128.56c.29-.93-.44-1.99-1.62-2.37-1.19-.38-2.38.07-2.67,1-.29.93.44,1.99,1.62,2.37,1.19.38,2.38-.07,2.67-1Z"/><path class="al" d="m110.55,126.79c.24.05.51.12.63.34.07.13.08.28.08.43,0,.07,0,.16-.04.22-.05.07-.13.09-.21.1-.4.06-1.08-.1-1.28-.53-.26-.57.45-.64.82-.56Z"/><path class="q" d="m114.22,129.37c-.18-.04-.31-.23-.33-.43s.02-.39.09-.58c.03-.09.07-.19.14-.26.07-.07.17-.11.26-.07.12.06.14.22.14.35,0,.33-.11.93-.3.96v.02Z"/><path class="u" d="m122.67,115.37c-1.42-.57-3.16.41-3.89,2.19-.73,1.78-.17,3.68,1.24,4.24,1.42.57,3.16-.41,3.89-2.19.73-1.78.17-3.68-1.24-4.24Z"/><path class="ae" d="m122.09,116.15c-1.18-.47-2.63.36-3.25,1.86-.62,1.5-.16,3.1,1.02,3.57,1.18.47,2.63-.36,3.25-1.86.62-1.5.16-3.1-1.02-3.57Z"/><path class="bb" d="m122.07,117c-.91-.36-2.02.28-2.5,1.43-.47,1.15-.12,2.38.78,2.74.91.36,2.02-.28,2.5-1.43.47-1.15.12-2.38-.78-2.74Z"/><path class="al" d="m120.11,119.31c.07-.24.16-.5.39-.6.13-.06.29-.05.43-.04.07,0,.15.01.21.06.06.05.08.14.09.22.03.41-.19,1.07-.63,1.23-.59.21-.6-.5-.49-.87Z"/><path class="q" d="m122.98,115.86c-.06.18-.26.29-.45.3-.2.01-.39-.06-.57-.14-.09-.04-.18-.09-.25-.16s-.09-.18-.05-.26c.06-.11.23-.12.36-.11.33.03.92.18.94.38h.02Z"/><ellipse class="az" cx="121.34" cy="129.42" rx="5.6" ry="4.27" transform="translate(-4.64 4.51) rotate(-2.09)"/><ellipse class="ar" cx="120.8" cy="128.94" rx="4.73" ry="3.55" transform="translate(-4.62 4.49) rotate(-2.09)"/><path class="ak" d="m124.23,128.34c.05,1.5-1.52,2.78-3.53,2.86-2,.07-3.67-1.09-3.73-2.59-.05-1.5,1.52-2.78,3.53-2.86s3.67,1.09,3.73,2.59Z"/><path class="bm" d="m119.57,128.28c.4.02.84.03,1.13-.25.16-.16.24-.39.3-.6.03-.11.06-.23.02-.34-.05-.12-.17-.19-.29-.24-.6-.26-1.73-.3-2.21.26-.64.74.44,1.14,1.04,1.18Z"/><path class="ai" d="m126.36,128.5c-.3-.01-.58.22-.7.5-.13.28-.13.6-.1.9.01.15.03.31.11.44.08.13.23.23.38.21.21-.03.31-.26.37-.47.14-.49.22-1.43-.06-1.56v-.02Z"/></g><g><g><path class="b" d="m173.89,138.11c-.52-.23-1.11-.32-1.62-.14-.34.12-.66.36-1.03.31-.06,0-.11-.02-.16-.06-.15-.13-.05-.38.09-.5.42-.36,1.03-.37,1.59-.32.99.08,1.98.28,2.95.61.07.02.15.05.2.12.07.09.05.22.03.33-.04.18-.1.35-.18.51-.04.08-.09.17-.17.21-.26.12-1.39-.91-1.71-1.05Z"/><path class="ao" d="m173.22,136.84c-.42.05-.82.23-1.24.28.26-.32.66-.48,1.06-.51.4-.03.82.06,1.22.17.75.2,1.49.49,2.19.85.21.11-.23.55-.41.53-.25-.02-.56-.45-.75-.6-.61-.48-1.35-.8-2.08-.71Z"/><path class="b" d="m172.11,139.19c.4-.03.92.21,1.39.34.46.13.88.16,1.24.09-.2.1-.58-.08-.89-.27-.52-.32-1.02-.72-1.45-1.17.93.42,1.94.85,2.62.71.1-.02.22-.05.35.05.12.08.16.21.16.31,0,.53-.72.81-1.25.88-.58.07-1.53-.36-2.17-.94Z"/><path class="t" d="m173.22,135.83c.28-.25.72-.17,1.09-.06.71.21,1.41.48,2.08.81.05.02.1.05.13.1.07.1.03.23-.03.33-.33.6-.87-.31-1.27-.56-.62-.4-1.32-.62-2.01-.62Z"/><path class="at" d="m177.93,147.25c3.62,1.33,7.33-.66,8.28-4.44.95-3.78-1.21-7.92-4.83-9.25-2.31-.85-3.65-.44-4.87,1.07-.97,1.2-.6,2.72-1.43,4.66-.21.51-.83,1.64-.96,2.15-.56,2.21.69,4.66,3.79,5.8Z"/><path class="x" d="m175.03,143.52c.55.62,1.34,1.24,2.09,1.54,1.47.58,4.22,1.09,5.93-1.2,4.51-6.04-2.08-10.79-4.99-10.1-.95.23-1.62,1.16-1.9,2.15-.3,1.04.05,1.95-.15,3.03-.16.88-2.47,2.9-.98,4.57Z"/><path class="ag" d="m176.88,138.56c-.08.41-.23.8-.32,1.21-.09.41-.1.86.07,1.26.17.4.57.73.97.68.38-.05,6.98-3.59,2.63-6.73-.8-.58-1.84-.41-2.49.18-.89.8-.62,2.26-.85,3.39Z"/><path class="k" d="m177.9,136.85c-.04.18-.11.35-.14.54-.04.18-.04.39.06.57.1.19.32.35.53.34.2,0,3.59-1.41,1.25-2.95-.44-.29-.99-.25-1.32,0-.46.33-.28,1-.37,1.5Z"/></g><path class="at" d="m163.57,137.96c.88-.18,1.79-.27,2.68-.15,2.18.3,3.97,1.81,5.64,3.26.61.53,1.23,1.08,1.62,1.79.36.65.5,1.41.56,2.15.3,4.05-2.16,8.21-5.84,9.76-3.69,1.55-8.3.3-10.65-2.95-.46-.64-.84-1.35-1.02-2.12-.53-2.34.49-5.76,1.39-7.95.89-2.16,3.53-3.37,5.62-3.79Z"/><path class="x" d="m170.68,142.82c.39.45.76.93.97,1.49.3.81.22,1.7.05,2.54-.47,2.19-1.69,4.26-3.57,5.49-.41.27-.86.5-1.35.57-.45.06-.91-.02-1.36-.11-1.02-.22-2.03-.54-2.87-1.16-1.36-.99-2.09-2.66-2.24-4.32-.14-1.66.25-3.32.81-4.89.63-1.79,1.62-3.12,3.63-2.9,2.36.26,4.39,1.53,5.93,3.3Z"/><path class="ag" d="m170.46,145.89c-.26.74-.62,1.48-1.26,1.93-.65.44-1.64.47-2.16-.12-.21-.24-.32-.56-.43-.86-.27-.78-.54-1.56-.81-2.34-.28-.82-.57-1.68-.47-2.54.05-.44.28-.93.71-1.04.71-.17,1.21.65,1.69,1,.5.36,1.01.46,1.55.71,1.43.68,1.66,1.85,1.17,3.25Z"/><path class="bk" d="m161.78,140.71c-.13-.93.36-1.91,1.18-2.35-1.65.13-3.22.98-4.25,2.28-.57.71-.97,1.55-1.29,2.4-.81,2.1-1.2,4.44-.66,6.62.54,2.19,2.13,4.19,4.28,4.81-.66-.19-.31-3.59-.22-4.1.23-1.25.73-2.28,1.43-3.32.57-.86.97-1.73.9-2.81-.08-1.33-1.19-2.24-1.37-3.52Z"/><path class="bk" d="m143.7,135.44c1.99-.92,4.32-1.13,6.55-.77,1.87.31,3.78,1.08,4.91,2.55.62.8.96,1.75,1.23,2.7.56,1.98.79,4.07.39,6.05-.4,1.99-1.48,3.87-3.19,5.05-2.81,1.93-6.82,1.65-10.08.28-1.86-.78-3.62-1.92-4.7-3.56-2.78-4.22.73-10.37,4.89-12.31Z"/><path class="x" d="m148.57,135.32c1.53.12,3,.8,4.18,1.79,2.47,2.1,3.56,5.65,2.69,8.74-.62,2.18-2.28,4.14-4.49,4.68-1.59.39-3.31.01-4.76-.78-1.44-.79-2.64-1.96-3.69-3.22-.41-.49-.83-1.07-.76-1.71.12-1.14,1.58-1.53,2.37-2.36,1.07-1.12.8-2.95.16-4.37-.99-2.17,2.73-2.89,4.31-2.77Z"/><path class="ag" d="m152.87,139.63c.57.73.87,1.63,1.16,2.51.1.32.21.64.22.98,0,.37-.11.73-.23,1.08-.25.72-.55,1.45-1.09,1.99-.66.66-1.64.96-2.59.89-.94-.07-1.84-.47-2.59-1.05-.53-.41-1.02-.95-1.12-1.6-.06-.42.04-.85.15-1.27.32-1.25.45-4.07,1.67-4.81,1.35-.82,3.56.18,4.42,1.28Z"/><path class="bk" d="m136.42,135.07c2.16.02,4.29-.77,6.01-2.05,2.1-1.58,3.63-3.95,3.96-6.55.34-2.6-.59-5.38-2.57-7.13-.72-.63-1.55-1.13-2.39-1.59-.69-.38-1.39-.74-2.15-.96-1.85-.53-3.83-.13-5.71.27-.96.2-1.93.41-2.77.92-.85.51-1.49,1.29-1.99,2.14-1.38,2.34-1.66,5.22-1.19,7.9.71,4.06,4.65,7.03,8.8,7.07Z"/><path class="x" d="m141.03,118.7c-.59-.29-1.26-.33-1.92-.38-2.1-.14-4.21-.28-6.31-.42.23.06.46.11.69.17-1.66.57-2.55,2.33-3.08,3.99-.37,1.15-.64,2.37-.45,3.57.29,1.81,1.63,3.33,3.23,4.24,1.61.9,3.47,1.26,5.3,1.46.55.06,1.11.1,1.66.02.97-.14,1.84-.68,2.56-1.33,1.47-1.33,2.42-3.26,2.43-5.24.02-2.73-1.72-4.91-4.13-6.08Z"/><path class="b" d="m161.82,144.57c-.35-.43-.63-.92-1.05-1.3-.26-.23-2.05-.9-2.08-1.05-.05-.21.12-.41.32-.48.2-.07.42-.04.63,0,1.3.22,3.22.49,2.9,2.24-.37,2.05-2.91.44-3.82-.41-.12-.11-.25-.24-.42-.27-.17-.02-.36.12-.31.28.02.05.05.09.09.13.61.68,1.22,1.35,1.83,2.03.2.22.4.44.65.59.56.33,1.44.24,1.85-.28.54-.69.09-.76-.34-1.2-.09-.09-.17-.18-.24-.27Z"/><path class="b" d="m143.77,144.01c.82-.29,1.76-.5,2.6-.41.22.18.41.41.59.64.91,1.14,1.91,2.31,3.27,2.86-.1-.47-.44-.84-.73-1.21-.86-1.09-1.25-2.24-1.7-3.5.03-.14.08-.27.14-.39.33-.63.84-.67,1.52-.93.78-.29,1.55-.61,2.3-.95.27-.12,1.86-1.11,2.07-1.01-.77-.36-1.67-.22-2.5-.08-.99.17-1.98.34-2.98.52-.21.04-.44.07-.62-.05-.15-.1-.21-.28-.27-.45-.25-.75-.5-1.5-.76-2.26.05,1.31-.02,2.62-.21,3.91-1.93-1.26-4.2-2-6.51-2.14,1.51.98,3.11,1.83,4.77,2.53-2.42,1.31-5.03,2.83-5.99,5.4,1.55-1.02,3.23-1.86,4.99-2.47Z"/><path class="b" d="m146.33,124.04c-.65.24-1.36.19-2.05.17-4.62-.1-9.15,1.43-13.77,1.26.35.01,1.3-.78,1.65-.95.61-.31,1.25-.57,1.9-.79,1.25-.43,2.56-.7,3.88-.81,2.9-.23,5.59.49,8.39,1.12Z"/><path class="b" d="m141.1,127.09c.01.06.02.11.04.17.13.67.2,1.37.1,2.04-.06.41-.84,1.53-.8,1.76-.18-1.25-.53-2.47-1.02-3.63-.24-.56-.61-1.18-1.22-1.23-.53-.04-.98.38-1.33.77-.99,1.1-1.92,2.25-2.8,3.44,1.29-1.91,2.21-4.06,2.67-6.32.13-.61.22-1.25.09-1.86-.19-.86-.79-1.56-1.38-2.21-1.29-1.45-2.58-2.91-3.87-4.36,2.05,1.47,4.1,2.93,6.15,4.4.31.22.7.45,1.04.28.21-.1.32-.32.42-.52.78-1.54,1.73-3,2.82-4.35-.44,1.6-.92,3.19-1.42,4.77-.31.98-.65,1.89-.53,2.92.16,1.34.75,2.6,1.04,3.91Z"/><path class="b" d="m146.76,141.15c.45-.68-.02-1.58-.49-2.25-1.26-1.78-2.65-3.48-4.16-5.07.68-.33,1.49-.19,2.24-.04,3.17.62,6.34,1.25,9.5,1.89.34.07.7.14.97.36.3.24.45.62.59.98.68,1.75,1.54,3.43,2.56,5.01.97,1.51,2.38,3.07,4.18,2.99-.01-.31-.02-.62-.03-.92-1.6-.33-2.96-1.47-3.82-2.85-.85-1.39-1.25-3.01-1.42-4.62-.02-.15-.03-.32.05-.45.08-.14.25-.21.41-.27.61-.23,1.23-.45,1.84-.68,2.65,1.76,6.07,1.72,9.21,2.29,2.16.39,4.17,1.3,6.29,1.75-.72-.97-2.6-1.25-3.7-1.56-1.73-.5-3.49-.88-5.27-1.14-1.92-.28-4.02-.5-5.46-1.77,1.11-.48,2.16-1.06,3-1.91,1.95-1.95,2.67-5.11,5.13-6.38-.19-.4-.38-.8-.57-1.2-1.19.6-1.83,1.88-2.51,3.01-1.84,3.04-4.9,5.69-8.49,5.77-1.19.02-2.36-.23-3.52-.49-1.94-.43-3.89-.85-5.83-1.28.35-.73,1.21-1.03,1.94-1.37,2.22-1.02,3.88-2.92,5.46-4.77.35-.41,1.58-1.9.84-2.45-.69-.51-1.56,1.18-1.86,1.55-1.36,1.69-3.05,3.1-4.8,4.37-1.39,1.01-2.9,1.97-4.61,2.21-1.17.16-2.35-.02-3.52-.2-2.13-.33-4.26-.66-6.39-1,.25-.61.82-1.01,1.32-1.44,1.77-1.52,2.93-3.71,3.2-6.01-.08-.44-.76-.49-1.08-.17-.31.31-.37.79-.47,1.23-.31,1.39-1.19,2.59-2.1,3.69-.71.87-1.48,1.73-2.49,2.21-.87.41-1.85.51-2.81.6-1.62.16-3.25.31-4.87.47-.59.06-1.35.3-1.32.89.04.64.94.75,1.58.66,3.67-.49,7.46-.76,11.07.13,3.61.9,7.04,3.13,8.58,6.49.35.76.78,1.71,1.62,1.75Z"/><path class="k" d="m169.05,145.17c.43-.09.76-.41.97-.79v-.03c-.13-.58-.69-1.05-1.28-1.07-.57.18-1.05.8-.8,1.37.18.41.69.62,1.11.53Z"/><path class="k" d="m167.48,143.42c.26.02.38-.15.41-.38v-.03c-.27-.46-.78-.93-1.17-1.07-.32.02-.46.37-.13.85.24.34.64.6.89.63Z"/><path class="k" d="m151.78,141.24c-.03.41.17.8.29,1.2.19.65.16,1.37-.08,2,.11.18.38.19.55.08.17-.11.27-.3.35-.49.33-.77.48-1.68.27-2.51-.2-.79-1.29-1.6-1.38-.29Z"/><g><path class="bk" d="m163.55,122.38c-.55-.99-1.3-1.89-2.27-2.5-.74-.47-1.58-.75-2.42-1.01-1.73-.52-3.54-.96-5.33-.75-2.58.29-4.91,1.95-6.14,4.2-1.24,2.25-1.39,5.03-.56,7.47.26.78.62,1.53,1.12,2.18,1.06,1.4,2.71,2.28,4.42,2.71,1.91.49,3.92.48,5.87.16,2.86-.46,4.9-1.86,5.9-4.59.93-2.54.77-5.5-.57-7.89Z"/><path class="x" d="m161.72,120.84c1.62,1.54,2.36,3.87,1.91,5.98-.33,1.55-1.24,2.9-2.19,4.17-.68.9-1.48,1.84-2.61,2.1-.88.2-1.82-.05-2.69-.33-2.52-.81-5.21-2.1-6.14-4.5-.48-1.23-.41-2.61-.01-3.85,1.5-4.63,7.69-7.4,11.73-3.57Z"/><path class="ag" d="m159.91,121.91c1.26,1.08,1.8,2.49,1.95,3.81.15,1.35-.14,2.77-1.41,3.55-.63.39-1.59.58-2.42.22-.67-.29-1.06-.87-1.19-1.41-.13-.54-.04-1.07,0-1.6.12-1.69-.39-3.29-1.15-4.98-.45-1.01-.02-1.14,1.43-.89,1.03.18,2.06.67,2.79,1.3Z"/><path class="bk" d="m160.5,126.71c.14.1.35-.19.32-.03-1.42-.38-2.91-.34-4.33-.72-.5-.13-1.1-.38-1.14-.89-.04-.51.53-1.02.26-1.46-.15-.25-.49-.3-.72-.49-.24-.2-.33-.52-.4-.83-.37-1.57-.15-2.67-.52-4.25.32-.14,0-.22.13.11.68,1.75,1.51,3.41,2.35,5.08.79,1.56,2.64,2.45,4.05,3.47Z"/><path class="bk" d="m148.18,120.45c2.33,1.27,1.04,2.54,5.24,3.12-2.35.66-4.49,2.04-6.06,3.89.36-.49.98-.68,1.57-.84,1.2-.33,2.42-.63,3.64-.9.45-.1.93-.19,1.36-.03.71.27.99,1.1,1.18,1.82.33,1.23.65,2.46.98,3.69.43-.86.4-1.88.36-2.84-.05-1.1-.09-2.21-.14-3.31-.09-2.21-1.34-2.61-3.27-3.05-2.33-.53-2.47-1.26-4.85-1.55Z"/><g><path class="b" d="m149.06,126.1c1.2-.33,2.42-.63,3.64-.9.45-.1.93-.19,1.36-.03.71.27.99,1.1,1.18,1.82.33,1.23.65,2.46.98,3.69.43-.86.4-1.88.36-2.84-.03-.81-.07-1.63-.1-2.44.05.02.1.03.15.04,1.42.38,2.85.76,4.27,1.14.03-.16-.12-.3-.26-.4-1.41-1.01-3.26-1.91-4.05-3.47-.85-1.67-1.67-3.33-2.35-5.08-.13-.33-.41-.73-.73-.58.37,1.57.75,3.15,1.12,4.72,0,.04.02.08.03.12-.43-.17-.93-.29-1.49-.42-2.33-.53-4.53-1.29-6.91-1.58,2.33,1.27,4.78,2.33,7.3,3.15-2.28.64-4.35,1.95-5.9,3.71.37-.36.9-.52,1.41-.66Z"/><path class="b" d="m147.65,126.76c-.06.06-.11.12-.16.18.05-.06.11-.12.16-.18Z"/></g><path class="k" d="m160.75,124.18c.15-.42-.02-.9-.3-1.25l.02.32c-.21-.72-.99-1.09-1.69-1.38-.36-.15-.85-.27-1.09.03-.16.2-.12.51.02.72.14.22.36.37.56.54.36.29.68.64.95,1.02.13.18.25.37.44.48.39.22.93-.06,1.08-.48Z"/></g><path class="b" d="m150.42,128.95c-1.06.97-2.27,1.97-3.72,2.04.37.37.83.78,1.34.68.21-.04.38-.16.56-.28,1.14-.79,2.28-1.57,3.42-2.36.45-.31.9-.63,1.27-1.03.52-.57.83-1.27,1.11-1.98.16-.43.85-1.68.7-2.05-.38.12-.76.89-1.02,1.21-.38.47-.78.92-1.19,1.36-.79.84-1.62,1.64-2.47,2.42Z"/><g><path class="t" d="m155.76,124.23l-1.02,1.11c.3-.26.59-.53.87-.82.09-.09.18-.21.22-.33-.02.01-.04.03-.07.04Z"/><path class="t" d="m154.89,124c.08-.11.1-.25.24-.27.17-.03.44-.12.56,0,.06.06.12.13.15.21.03.08.02.16,0,.24.14-.09.21-.27.2-.44,0-.19-.09-.38-.18-.55-.13-.24-.31-.49-.57-.51-.18-.01-.36.11-.46.26-.1.15-.15.33-.2.51-.12.45-.61,1.16-.84,1.57-.32.58-.99,1.58-.92,1.58.75-.3,1.76-2.23,2.04-2.6Z"/></g><path class="t" d="m146.77,141.28c.12-.12.23-.27.25-.44-.09.07-.16.18-.25.25-.13.1-.32.13-.46.04-.06-.05-.1-.11-.14-.18-.16-.29-.27-.6-.4-.91-.68-1.64-1.83-3.09-3.27-4.15.35.39.7.79,1.05,1.18.27.31.55.62.76.97.22.38.36.79.51,1.2.19.56.38,1.11.57,1.67.08.24.18.51.41.63.32.18.72-.01.98-.27Z"/><g><path class="b" d="m165.96,127.64c-.55.36-1.01.87-1.18,1.49-.11.41-.1.89-.38,1.22-.04.05-.09.1-.16.11-.22.06-.38-.21-.4-.43-.05-.66.33-1.26.74-1.78.71-.92,1.54-1.76,2.46-2.49.07-.05.14-.11.23-.11.13,0,.23.09.31.19.13.16.25.33.35.52.05.09.1.2.08.3-.06.33-1.73.76-2.06.98Z"/><path class="ao" d="m164.36,127.45c-.23.45-.31.96-.54,1.41-.13-.46-.01-.96.22-1.38.23-.42.58-.77.94-1.09.67-.6,1.41-1.14,2.19-1.59.24-.14.35.59.22.75-.18.23-.77.25-1.04.34-.83.28-1.61.79-2,1.57Z"/><path class="b" d="m165.8,130.11c.23-.41.79-.76,1.21-1.14.41-.36.72-.76.88-1.16-.04.26-.44.52-.82.7-.63.3-1.32.52-2.01.65.98-.63,2.03-1.33,2.34-2.11.04-.11.1-.25.27-.31.15-.06.3-.01.39.05.48.35.28,1.25,0,1.81-.31.62-1.32,1.27-2.26,1.5Z"/><path class="t" d="m163.44,126.78c-.04-.44.31-.82.66-1.11.65-.56,1.35-1.06,2.08-1.51.05-.03.11-.07.18-.07.14,0,.23.13.29.25.33.72-.84.65-1.33.87-.76.34-1.42.89-1.87,1.56Z"/><path class="at" d="m176.94,129.76c3.55-2.67,4.13-7.64,1.29-11.1-2.84-3.46-8.03-4.09-11.58-1.42-2.27,1.7-2.76,3.3-2.17,5.49.48,1.75,2.1,2.41,3.35,4.51.32.55.96,1.9,1.35,2.38,1.67,2.03,4.71,2.43,7.76.14Z"/><path class="x" d="m171.64,130.12c.93-.13,2.01-.49,2.76-1.03,1.49-1.06,3.73-3.42,2.74-6.63-2.62-8.46-11.22-5.15-12.46-1.84-.41,1.09.01,2.36.74,3.3.76.99,1.82,1.25,2.68,2.17.7.75,1.06,4.36,3.55,4.01Z"/><path class="ag" d="m170.52,123.97c.32.36.58.76.9,1.12.32.36.72.68,1.2.78.48.1,1.04-.08,1.25-.5.2-.4,1.23-9.25-4.46-7.06-1.05.4-1.57,1.53-1.45,2.57.16,1.42,1.67,2.12,2.56,3.09Z"/><path class="k" d="m169.61,121.82c.15.16.26.34.4.5.14.16.33.29.57.32s.53-.08.65-.29c.12-.2,1.03-4.47-1.9-3.19-.55.24-.86.8-.85,1.3.01.67.74.94,1.13,1.37Z"/></g><path class="t" d="m162.39,145.16s.1,0,.14-.02c.03-.02.05-.07.06-.1.09-.29.09-.61,0-.91-.09-.07-.26,0-.27.11v-.08c-.04.36-.42.61-.79.63-.37.02-.72-.14-1.06-.29.59.34,1.25.57,1.92.65Z"/><path class="t" d="m138.9,124.63c.09-.35.05-.75-.19-1.02-.37-.41-1.08-.33-1.48.04.13-.41.3-.85.69-1.05.15-.08.32-.1.47-.18.26-.13.43-.38.57-.63.23-.41.4-.85.53-1.3-.19.73-.38,1.46-.57,2.19-.01.04-.02.09,0,.13.02.05.08.06.13.08.41.11.81.22,1.22.33-.18.19-.55-.07-.74.1-.05.05-.08.11-.1.18-.29.99.06,2.04.4,3.02-.19-.54-.9-.82-1.36-.99.14-.3.35-.57.44-.9Z"/></g><g><g><path class="o" d="m151.3,154.83c1.04,3.47,1.14,7.41-.48,10.59-1.5,2.94-4.45,4.96-7.59,5.2-1.06.08-2.13-.03-3.2-.14-5.76-.59-11.53-1.18-17.26-2.11-1.21-.2-2.5-.45-3.41-1.33-.67-.66-1.05-1.59-1.28-2.53-.55-2.31-.25-4.82.82-6.9.59-1.14,1.39-2.13,2.06-3.21.8-1.29,1.41-2.7,2.07-4.08,1.29-2.7,2.8-5.29,4.49-7.73,1.37-1.97,2.9-3.89,4.87-5.15,1.97-1.26,4.47-1.8,6.64-.91,1.3.54,2.39,1.54,3.39,2.59,2.01,2.12,3.55,4.3,4.72,7.01,1.3,2.99,3.19,5.51,4.15,8.71Z"/><path class="ag" d="m148.24,151.72c.83,2.79.92,5.95-.38,8.51-1.2,2.36-3.58,3.99-6.1,4.18-.85.07-1.71-.02-2.57-.11-4.63-.48-9.26-.95-13.86-1.69-.98-.16-2.01-.36-2.74-1.07-.54-.53-.84-1.28-1.02-2.03-.44-1.85-.2-3.88.66-5.54.47-.91,1.12-1.71,1.65-2.58.64-1.04,1.13-2.17,1.66-3.28,1.04-2.17,2.25-4.25,3.61-6.21,1.1-1.59,2.33-3.12,3.91-4.14,1.59-1.02,3.59-1.45,5.33-.73,1.05.43,1.92,1.24,2.72,2.08,1.61,1.7,2.85,3.46,3.8,5.63,1.05,2.4,2.57,4.43,3.33,7Z"/><path class="aq" d="m155.59,147.79c1.72.98,3.07,2.57,4.25,4.24.55.78,1.22,1.67,2.13,1.68-.5-.24-1.07-.03-1.58.16-1.79.64-3.68.96-5.58.95-.73,0-1.47-.06-2.14-.36-.67-.3-1.28-.87-1.48-1.61-.09-.33-.16-.76-.48-.84-.2.78.04,1.63.48,2.29.44.66,1.05,1.17,1.67,1.64,2.45,1.87,5.11,3.43,7.91,4.62-1.58,1.46-3.19,2.95-5.1,3.85-.7.33-1.45.58-2.22.53-1.9-.14-3.26-2.16-3.63-4.15-.37-1.99-.03-4.04-.05-6.07,0-.89-.17-1.92-.89-2.37-.94,1.89-3.1,2.79-5.11,2.75-2.02-.04-3.94-.86-5.82-1.66,1.61-3.07,4.84-5.09,8.15-5.1.22,0,.49-.04.54-.26.04-.17-.08-.33-.2-.44-1.07-1-2.77-.78-3.92-1.67-.46-.36-.8-.87-1.09-1.39-1.74-3.06-2.37-7.03-.88-10.2.61-1.3,1.66-2.49,3.01-2.71-.68,1.27-.5,2.92.1,4.25.6,1.33,1.57,2.43,2.48,3.55.91,1.11,1.81,2.3,2.23,3.71.94-1.27.52-3.25,1.42-4.55.6-.87,2.05-4.71,10.35-3.19-.18,1.67-.82,3.27-1.81,4.57-2.04,2.69-5.42,3.93-7.43,6.65-.21.29-.42.55-.72.72,1.71-.83,3.78-.49,5.4.44Z"/><path class="ah" d="m155.19,150.72c-1.9.4-3.97-.17-5.46-1.5.44.67.88,1.34,1.32,2.01-.77.12-1.06-1.35-1.84-1.35-.22,0-.42.13-.61.24-1.78,1.03-4.08.96-5.83-.16,1.05-.08,2.11-.17,3.16-.25.53-.04,1.07-.09,1.55-.32.48-.23.89-.7.94-1.26.05-.63-.38-1.21-.87-1.57-.5-.36-1.07-.56-1.58-.9-1.24-.83-1.93-2.49-1.68-4.02.52.92,1.1,1.83,1.94,2.43s1.98.81,2.84.28c.49-.3.84-.8,1.16-1.29,1.16-1.76,2.48-3.79,4.49-3.98-.22.02-1.06,1.51-1.24,1.75-.48.61-.99,1.2-1.47,1.81-.8,1.02-1.91,2.33-2.1,3.7-.15,1.09.43,1.78,1.32,2.23,1.4.71,2.75,1,3.96,2.15Z"/><path class="q" d="m143.7,167.69c.27.04.57.21.63.5.04.22-.07.45-.24.59-.17.14-.38.2-.59.25-.92.2-2.12.24-2.98-.22.86-.36,2.22-1.26,3.18-1.12Z"/><path class="q" d="m136.4,140.62c.25.07.51.18.68.39.17.21.24.53.1.77-.21.35-.69.31-1.07.22-.53-.12-2.58-.19-1.95-1.02.38-.5,1.73-.5,2.25-.36Z"/><path class="be" d="m135.67,140.75c.15.04.31.11.41.25.1.14.14.35.05.51-.13.24-.43.22-.66.17-.32-.07-1.58-.09-1.18-.65.24-.34,1.07-.36,1.38-.28Z"/><path class="q" d="m136.29,147.44c.32.05.7.26.65.59-.05.31-.41.4-.7.42-.78.06-1.81.33-2.55.14.37-.93,1.75-1.28,2.61-1.16Z"/><path class="be" d="m135.57,147.69c.19.03.42.16.39.36-.03.19-.25.24-.43.26-.47.04-1.1.2-1.55.09.23-.56,1.06-.77,1.58-.7Z"/><path class="q" d="m136.98,157.01c.22-.12.46-.23.71-.25.25-.01.53.11.63.35.11.26.01.57-.18.77-.19.2-.45.3-.7.38-.5.18-2.51,1.04-2.52.23-.01-.71,1.58-1.23,2.05-1.48Z"/><path class="be" d="m136.37,157.4c.11-.06.22-.11.35-.12.12,0,.26.05.31.17.06.12,0,.28-.09.38-.09.1-.22.14-.34.19-.24.09-1.23.51-1.24.11,0-.35.77-.6,1.01-.72Z"/><path class="q" d="m129.69,155.64c.32-.33.72-.69,1.16-.59.52.12.73.87.5,1.37-.23.51-.74.79-1.24.96-.4.14-1.55.47-1.65-.22-.07-.47.97-1.24,1.24-1.52Z"/><path class="be" d="m129.43,156.05c.22-.23.49-.47.79-.4.35.08.5.59.34.94-.16.34-.5.54-.85.66-.28.09-1.06.32-1.12-.15-.05-.32.66-.85.84-1.04Z"/><path class="q" d="m135.71,164.42c.31-.12.63-.21.96-.15.07.01.14.04.2.08.08.07.11.19.14.3.06.24.12.5.03.73-.15.41-.65.5-1.06.53-.8.06-2.08.24-2.73-.38.66-.44,1.72-.83,2.47-1.12Z"/><path class="be" d="m134.96,164.89c.16-.06.32-.11.49-.08.04,0,.07.02.1.04.04.04.06.1.07.15.03.12.06.26.02.37-.08.21-.33.26-.54.27-.41.03-1.06.12-1.4-.19.33-.23.88-.43,1.26-.57Z"/><path class="q" d="m147.19,163.77c.32-.38.55-.84.68-1.33.06-.21.1-.44.26-.59.2-.18.5-.16.76-.12.06,0,.12.02.17.05.07.04.1.12.13.2.23.63-.07,1.39-.58,1.78-.52.39-1.2.46-1.82.32-.07-.17.11-.34.27-.42.23-.13.46-.25.69-.38l-.56.49Z"/><path class="q" d="m126.79,164.06c.21-.01.43-.01.59.12.17.13.24.46.08.63-.11.12-.27.13-.41.12-.85-.03-1.87.01-2.66-.32.63-.46,1.66-.52,2.4-.56Z"/><path class="be" d="m126.33,164.23c.11,0,.23,0,.33.07.09.07.13.25.05.35-.06.07-.15.07-.23.07-.47-.02-1.03,0-1.46-.17.35-.25.92-.28,1.32-.31Z"/><path class="q" d="m123.14,156.88c.18-.23.48-.48.72-.3.16.12.17.38.14.59-.05.42-.16.87-.48,1.1-.23.17-1.12.49-1.26.1-.11-.29.71-1.28.88-1.5Z"/><path class="be" d="m123.02,157.3c.1-.13.26-.25.38-.16.09.07.09.2.08.31-.02.22-.08.46-.26.59-.12.09-.6.26-.68.05-.06-.15.38-.68.47-.8Z"/><path class="q" d="m127.34,147.77c.08-.15.16-.31.3-.41.14-.09.34-.1.45.03.08.1.08.24.08.36,0,.29,0,.59-.13.85-.14.29-.94.99-1.29.71-.3-.24.43-1.25.59-1.55Z"/><path class="be" d="m127.23,148.29c.04-.07.08-.15.15-.2.07-.05.17-.05.22.02.04.05.04.12.04.18,0,.14,0,.29-.06.42-.07.14-.46.49-.63.35-.15-.12.21-.61.29-.76Z"/><path class="q" d="m142.95,156.96c.33-.3.84-.53,1.17-.22.22.2.24.58.11.86-.13.28-.37.47-.62.63-.26.17-1.47.86-1.71.48-.28-.44.81-1.52,1.06-1.74Z"/><path class="be" d="m142.75,157.42c.19-.17.47-.3.65-.12.12.11.13.32.06.48-.07.15-.21.26-.35.35-.15.09-.82.48-.96.27-.16-.24.45-.85.59-.97Z"/></g><path class="b" d="m152.35,145.96c3.36-2.1,7.2-3.27,11.05-4.16,2.81-.65,5.89-1.13,8.53.21.8.41,1.55,1,1.97,1.82,0,0,0,.02.01.02.4.8-.59,1.54-1.21.92-.78-.78-1.82-1.32-2.87-1.58-1.68-.42-3.41-.24-5.1-.03-3.89.47-7.59,2.05-10.93,3.78-.57.3-.95.91-1.54,1.16-.59.25-1.37.2-1.8-.31-.06-.08-.12-.17-.17-.26-.31-.59.16-1.32.79-1.19.39.08.79-.06,1.27-.36Z"/></g></svg>