<svg width="52" height="56" viewBox="0 0 52 56" fill="none" xmlns="http://www.w3.org/2000/svg">
<g filter="url(#filter0_d_4136_975)">
<path d="M45.0777 7.55209C44.8462 7.32128 42.485 8.01371 41.8832 8.61381L39.059 11.4297L41.1887 13.5531L44.0128 10.7372C44.6147 10.1371 45.3555 7.7829 45.0777 7.55209Z" fill="#8892A1"/>
<path d="M44.476 7.82906C43.55 8.19836 42.763 8.52149 42.4852 8.7523L39.4758 11.7528C39.4295 11.799 39.4295 11.799 39.3832 11.8451C39.661 12.1221 39.9851 12.4452 40.3092 12.7684C40.3092 12.7222 40.3555 12.7222 40.3555 12.676L43.3648 9.67553C43.6889 9.44472 44.8 7.69058 44.476 7.82906Z" fill="#DBEBFA"/>
<path d="M41.0502 25.7859C39.8002 26.8476 37.902 27.9094 36.3279 27.8632C33.2722 27.7247 30.4018 24.955 28.0869 21.3083C24.6146 15.7689 24.1979 8.89079 27.8554 5.79796C28.4573 5.29019 29.661 4.78241 30.4018 4.5516C33.9667 3.3514 38.4576 5.521 41.3743 10.1372C44.8466 15.7227 44.7077 22.7393 41.0502 25.7859Z" fill="#327A32"/>
<path d="M39.8924 26.5245C36.1886 29.6173 30.4015 27.5862 26.8828 22.0006C23.3642 16.4151 23.5494 9.39853 27.2069 6.30571C30.9107 3.21288 36.6979 5.24399 40.2165 10.8295C43.6888 16.3689 43.5499 23.4317 39.8924 26.5245Z" fill="#5CA431"/>
<path d="M39.5686 26.0628C36.05 29.0171 30.4943 27.0784 27.1609 21.7698C23.8275 16.415 23.9664 9.72161 27.485 6.76727C31.0036 3.81293 36.5593 5.75171 39.8927 11.0603C43.2261 16.3689 43.0872 23.1085 39.5686 26.0628Z" fill="#B9D265"/>
<path d="M28.6884 11.9375C29.1051 9.12165 36.559 9.44478 38.272 12.1683C39.985 14.8918 37.9016 22.8778 35.4941 22.7855C33.0867 22.6932 28.318 14.7534 28.6884 11.9375Z" fill="#FBF6C4"/>
<path d="M37.4387 12.676C37.5313 12.5837 37.5313 12.4914 37.5313 12.3991C37.485 12.2606 37.3461 12.3067 37.1609 12.3067C36.6054 12.3067 34.6146 12.7222 34.1979 12.8145C33.7349 12.9068 34.2442 14.4763 34.3831 14.8456C34.5683 15.2149 34.7998 14.8918 35.1701 14.5687C35.1238 14.5687 37.2998 12.8145 37.4387 12.676ZM34.846 15.6304C35.0775 15.9535 36.1887 16.9691 36.4202 16.5074C36.6517 16.0458 37.6239 14.0609 37.8091 13.4146C37.8554 13.23 37.9017 13.0915 37.8554 12.9992C37.8091 12.9068 37.7165 12.9068 37.6239 12.9992C37.4387 13.0915 35.309 14.8918 35.309 14.8918C34.9386 15.1688 34.6146 15.3534 34.846 15.6304ZM36.7905 16.6459C36.698 16.8767 36.7905 17.1075 37.0683 17.3845C37.3461 17.6153 37.7628 17.9385 37.948 17.9385C38.1332 17.9385 38.3647 17.6615 38.5036 16.5074C38.6424 15.3534 38.6424 14.5225 38.5036 13.8301C38.4573 13.5993 38.2721 13.3685 38.1795 13.5993C38.0406 13.8301 36.8831 16.369 36.7905 16.6459ZM33.6886 11.8913C33.7812 12.2606 33.9664 12.4452 34.1979 12.4452C34.4294 12.4452 36.8831 11.9375 37.1609 11.8913C37.3924 11.8451 37.2998 11.5682 37.1146 11.4758C36.6054 11.1065 35.9109 10.8296 34.8924 10.6449C33.8738 10.4141 33.596 10.5988 33.5497 10.7834C33.4571 10.9681 33.5497 11.522 33.6886 11.8913ZM29.6607 13.1838C30.0774 13.8301 31.7904 15.9073 32.2071 16.369C32.6238 16.8306 33.3645 15.8612 33.5034 15.5842C33.6423 15.3072 33.2256 15.1226 32.7627 14.7995C32.7627 14.7995 29.9385 12.8607 29.7533 12.7684C29.6144 12.676 29.5218 12.7222 29.5218 12.7684C29.4292 12.8145 29.5218 12.953 29.6607 13.1838ZM31.9293 16.4613C31.7441 16.2305 29.6144 13.5531 29.383 13.3223C29.1978 13.0915 29.0589 13.2761 29.1052 13.5069C29.2441 14.1994 29.5218 15.0303 30.1237 16.2305C30.7256 17.4307 31.0497 17.7076 31.2348 17.7076C31.42 17.7076 31.6978 17.3845 31.883 17.1537C32.1145 16.9229 32.1145 16.6921 31.9293 16.4613ZM33.6886 14.7533C33.7349 14.384 33.6423 12.8607 33.133 12.7222C32.6238 12.5837 30.4941 12.0759 29.9385 12.0298C29.7533 12.0298 29.6144 12.0298 29.6144 12.1221C29.6144 12.2144 29.6607 12.3067 29.7996 12.3991C29.9848 12.5837 32.809 14.4302 32.809 14.4302C33.3182 14.7995 33.6423 15.1226 33.6886 14.7533ZM33.3182 11.8451C33.2719 11.4758 33.2256 10.9219 33.0867 10.6911C32.9479 10.4603 32.6238 10.3218 31.6515 10.4603C30.7256 10.5988 30.1237 10.8296 29.707 11.1989C29.5681 11.2912 29.5681 11.5682 29.7996 11.6143C30.0774 11.6605 32.7627 12.3067 32.9942 12.3067C33.2256 12.3991 33.3182 12.2144 33.3182 11.8451ZM34.5683 21.6314C34.4294 21.3083 32.9479 18.1231 32.809 17.8461C32.6701 17.5692 32.4849 17.523 32.2071 17.6615C31.9756 17.8 31.6052 18.0308 31.5589 18.2154C31.5126 18.4001 31.6052 18.8617 32.4386 19.8772C33.2256 20.8928 33.8275 21.5391 34.3368 21.8622C34.4757 22.0468 34.7072 21.9545 34.5683 21.6314ZM36.3739 21.9545C36.7905 21.6314 37.1609 21.0774 37.6239 20.1081C38.0406 19.1387 38.0406 18.677 37.9017 18.4924C37.7628 18.3078 37.3461 18.0308 37.022 17.8923C36.7442 17.7538 36.5591 17.8 36.5128 18.0308C36.4665 18.3078 36.0961 21.4006 36.0498 21.7237C36.0035 22.0007 36.235 22.093 36.3739 21.9545ZM35.1238 21.4929C35.1238 21.2159 34.4294 17.523 34.4294 17.523C34.3368 16.8767 34.2905 16.4151 34.0127 16.4613C33.7349 16.5074 32.6701 17.0152 32.9479 17.6153C33.2256 18.2154 34.3368 20.7543 34.7535 21.4467C34.8923 21.6775 34.9849 21.816 35.0775 21.816C35.1238 21.7237 35.1701 21.6775 35.1238 21.4929ZM36.235 17.7076C36.2813 17.1075 35.0312 16.5074 34.7535 16.4613C34.4757 16.4151 34.6146 16.8767 34.7072 17.523C34.7072 17.523 35.309 21.2159 35.4016 21.4929C35.4479 21.6775 35.4942 21.7699 35.5868 21.7699C35.6794 21.816 35.7257 21.6314 35.772 21.4467C35.9109 20.8005 36.1887 18.3078 36.235 17.7076Z" fill="#ACCB4C"/>
<path d="M38.2723 13.9223C38.226 13.8761 37.9945 14.2916 37.9019 14.6609C37.8093 15.0302 37.9019 15.261 37.9945 15.3071C38.0871 15.3533 38.226 15.261 38.2723 14.8917C38.4112 14.5224 38.3186 13.9685 38.2723 13.9223ZM37.6241 13.4145C37.5778 13.3684 37.2074 13.553 36.976 13.83C36.7445 14.1069 36.7445 14.2916 36.8371 14.3839C36.9297 14.4762 37.0685 14.4762 37.3 14.1993C37.4852 13.9223 37.6704 13.4607 37.6241 13.4145ZM36.05 11.3373C35.7259 11.2911 35.587 11.3834 35.6333 11.5219C35.6333 11.6604 35.7722 11.7989 36.1426 11.7989C36.4667 11.845 36.8834 11.7065 36.8834 11.6142C36.8371 11.5681 36.4204 11.3373 36.05 11.3373ZM37.0685 12.5836C37.0223 12.5375 36.6056 12.5375 36.3278 12.6759C36.05 12.8144 36.0037 12.9991 36.05 13.1376C36.0963 13.276 36.2815 13.3222 36.5593 13.1376C36.8371 12.9991 37.1148 12.6298 37.0685 12.5836ZM30.0313 14.4762C29.7998 14.0608 29.4295 13.6453 29.3832 13.6453C29.3369 13.6915 29.5221 14.2454 29.7073 14.6609C29.9387 15.0763 30.0776 15.1687 30.1702 15.1225C30.2628 15.0763 30.2628 14.8917 30.0313 14.4762ZM31.2814 11.3373C31.2351 11.1988 31.0962 11.1064 30.7721 11.1064C30.448 11.1064 30.0313 11.3373 30.0776 11.3834C30.0776 11.4296 30.5406 11.6142 30.911 11.6142C31.1888 11.6142 31.3277 11.4757 31.2814 11.3373ZM30.5406 14.0146C30.8647 14.2916 31.0036 14.3378 31.0499 14.1993C31.0962 14.1069 31.0036 13.8761 30.6795 13.5992C30.3554 13.3222 29.8924 13.0914 29.8924 13.1376C29.8924 13.2299 30.2165 13.7377 30.5406 14.0146ZM31.4203 12.9991C31.4203 12.8606 31.3277 12.6759 30.9573 12.5375C30.5869 12.3528 30.1239 12.3066 30.1239 12.3528C30.1239 12.399 30.5406 12.8144 30.8647 12.9991C31.2814 13.1376 31.4203 13.1376 31.4203 12.9991ZM36.7908 20.7542C36.8834 20.3849 36.8834 20.2003 36.7445 20.108C36.6519 20.0156 36.513 20.108 36.3741 20.4772C36.2815 20.8465 36.2815 21.4005 36.3278 21.4466C36.3741 21.4928 36.6982 21.1235 36.7908 20.7542ZM35.7259 20.0618C35.6796 19.6002 35.587 19.4155 35.4481 19.4155C35.3555 19.4155 35.2629 19.554 35.3092 19.9695C35.3555 20.4311 35.5407 20.985 35.587 20.985C35.6796 21.0312 35.7722 20.5234 35.7259 20.0618ZM34.7074 20.0156C34.5685 19.554 34.4296 19.4155 34.337 19.4617C34.2444 19.4617 34.1981 19.6463 34.337 20.108C34.4759 20.5696 34.8 21.0773 34.8463 21.0773C34.8926 21.0312 34.8463 20.4311 34.7074 20.0156ZM33.8277 20.4772C33.5499 20.108 33.4111 20.0156 33.3185 20.108C33.2259 20.2003 33.2722 20.3849 33.5499 20.7542C33.8277 21.1235 34.2444 21.4928 34.2907 21.4466C34.2907 21.4005 34.0592 20.8465 33.8277 20.4772Z" fill="#CFDD7E"/>
<path d="M12.0212 18.0308C12.8082 16.5998 14.1045 14.1532 14.7064 14.2455C15.262 14.3379 15.0305 13.9224 15.262 13.4608C15.4935 12.9992 16.1416 11.9836 16.975 11.1066C18.688 9.30625 43.9201 21.0313 44.8924 22.0007C45.8646 22.9701 45.772 23.6625 45.5868 23.9856C45.4016 24.3088 45.6331 24.8165 45.2164 25.9244C44.7998 27.0323 44.1053 27.9555 43.5034 28.8326C42.9479 29.7097 42.7627 30.3559 42.2997 30.5406C41.8367 30.6791 42.4386 30.8637 41.9756 31.6485C41.5126 32.4332 41.3274 33.4949 40.3552 34.1412C39.383 34.7874 34.7995 38.4342 33.8273 39.1266C32.855 39.8652 32.068 40.3268 30.4475 39.3574C28.7345 38.4342 18.8732 30.1251 17.2065 28.9249C15.5398 27.7247 12.6693 21.3544 12.2526 20.4774C11.836 19.5541 11.2804 19.3233 12.0212 18.0308Z" fill="#632211"/>
<path d="M44.846 21.9545C43.8738 20.9851 43.2256 20.5235 43.5497 19.8772C43.8738 19.231 43.8738 19.0002 41.6978 17.6153C39.5218 16.2305 28.1326 5.05938 27.1604 3.99766C26.1881 2.93595 25.4474 2.93595 24.614 3.67453C23.7807 4.41312 23.5955 4.22847 23.5955 4.78241C23.5955 5.33635 23.4566 6.16726 23.0399 5.89029C22.6232 5.65948 21.9288 6.53655 22.0677 6.952C22.2066 7.36746 21.651 6.53655 20.6787 7.50594C19.7065 8.47534 19.1509 8.93695 19.475 9.35241C19.7991 9.76786 19.2435 9.90635 18.7343 9.67554C18.2713 9.44473 17.762 10.1372 16.9749 11.0604L16.9286 11.1065C16.9286 11.2912 16.9749 11.4758 17.1138 11.7528C17.5768 12.8607 27.253 20.6158 29.6142 22.6931C31.8364 24.6781 35.7717 28.6479 36.8829 29.4789C37.994 30.2636 38.2718 29.3865 38.9199 29.5712C39.5681 29.7097 39.6607 29.248 41.0959 28.1402C42.5311 27.0323 41.883 27.0323 41.5589 26.2014C41.2348 25.4166 42.8552 26.2014 43.3182 26.2014C43.7812 26.2014 44.4293 24.9089 45.5405 23.9395C45.7257 23.6625 45.8183 22.9239 44.846 21.9545Z" fill="#9D4329"/>
<path d="M24.5213 6.21336C25.3084 6.30569 29.8918 7.22892 29.1047 6.62882C28.3177 6.02872 27.438 4.87468 26.9751 4.3669C26.4658 3.81296 25.9565 3.07437 25.0769 3.81296C24.6602 4.18225 23.8268 4.32074 23.8268 5.05932C23.7805 5.84407 23.6879 6.12104 24.5213 6.21336ZM23.8268 10.1371C25.6324 10.2756 30.1233 10.2294 31.327 10.1833C32.5308 10.1371 32.8085 9.95245 32.1141 9.49083C31.4659 8.98306 30.7252 8.15215 29.5214 7.69053C28.3177 7.22892 26.5121 7.09043 25.4473 6.90579C24.3824 6.72114 23.3639 6.25952 22.7157 6.49033C22.2527 6.67498 22.2064 7.09043 23.0398 7.32124C23.8268 7.59821 24.012 7.92134 23.1787 7.82902C22.3453 7.73669 21.6509 7.32124 21.0953 7.78286C20.4934 8.24447 19.9379 9.12154 20.0767 9.39851C20.1693 9.62932 22.0212 9.99861 23.8268 10.1371ZM37.1605 15.261C38.4568 15.1687 36.9753 13.9223 36.0494 13.1376C35.1234 12.3529 34.6141 12.2605 30.6326 11.9836C26.6047 11.7066 25.4935 10.968 23.5954 10.7372C21.6972 10.5064 19.7064 10.2756 18.9193 10.2294C17.4378 10.1833 18.873 11.1527 18.1323 11.3373C17.3915 11.5219 17.2526 11.6143 17.9471 12.2605C18.6415 12.9068 21.6046 13.3222 25.9565 14.1993C30.3085 15.0764 35.8642 15.3534 37.1605 15.261ZM27.114 10.5064C25.9102 10.4602 24.3824 10.5526 25.9565 10.8757C27.5306 11.1988 32.2067 11.7989 33.4567 11.8451C34.7067 11.8912 34.9845 11.8451 34.3364 11.3835C33.7345 10.9218 33.3641 10.3679 32.6234 10.5064C31.4659 10.691 28.3177 10.5526 27.114 10.5064ZM40.5402 17.3845C39.2902 16.4612 38.8272 15.538 38.4105 15.7226C37.9476 15.9535 36.929 15.9996 33.7345 15.6765C30.54 15.3534 27.8084 15.1225 25.1695 14.7533C22.2064 14.3378 18.0397 13.0453 20.5397 14.4763C21.6509 15.1225 22.9472 17.5691 24.7065 17.6153C26.4658 17.6614 33.8734 17.9846 36.4197 18.1231C39.0124 18.2615 41.7903 18.3077 40.5402 17.3845ZM29.7992 20.385C32.253 20.2926 37.5309 20.2926 39.1513 20.3388C40.818 20.385 41.9754 20.8004 42.4384 20.2465C42.9477 19.6925 43.3644 19.3233 42.9477 18.9078C42.4847 18.4923 42.2995 18.4 41.744 18.4923C40.9106 18.6308 38.1328 18.7232 35.8642 18.5385C33.5956 18.4 29.5677 18.4 28.1325 18.4462C26.6973 18.4923 24.3361 18.0769 25.4935 18.8616C26.651 19.6464 27.3454 20.4773 29.7992 20.385ZM45.2626 23.3393C44.7533 22.97 43.5496 22.7392 44.3366 22.6007C45.0774 22.4622 44.5681 22.1391 44.1051 21.816C43.6422 21.4467 43.5033 21.0312 42.7625 21.0774C41.6051 21.1236 37.5772 20.8466 36.4197 20.9851C35.2623 21.1236 31.5122 20.8466 30.077 20.9851C28.6418 21.1236 29.0585 21.539 29.9381 22.1853C30.8178 22.8315 30.8178 23.1085 32.5308 22.9239C34.2438 22.7392 36.7438 22.97 39.3828 22.7854C42.0217 22.6007 43.9662 23.2008 41.6977 23.1547C39.4291 23.1085 37.0216 23.4778 35.5864 23.4778C34.1512 23.4778 31.327 23.4316 31.7437 24.1241C32.2067 24.8165 33.3641 26.1552 33.9197 26.0167C34.5216 25.8782 40.1698 25.3243 41.4199 25.4166C42.6699 25.5551 43.2255 25.7397 43.7347 25.2781C44.244 24.8626 45.7718 23.7086 45.2626 23.3393ZM40.4476 25.832C39.6143 25.7397 36.3735 26.2013 35.5864 26.4321C34.7993 26.6629 34.5216 26.8938 35.0308 27.4477C35.5864 28.0478 37.2531 29.525 37.855 29.2942C38.4568 29.0633 39.0124 29.2018 39.7532 28.6479C40.4939 28.0478 41.6051 27.4015 41.4199 26.9861C41.2347 26.5706 41.1421 25.9244 40.4476 25.832Z" fill="url(#paint0_linear_4136_975)"/>
<path d="M25.9564 5.52108C27.0212 5.65956 27.762 5.79805 27.299 5.42875C26.8361 5.05946 26.6972 4.55168 26.0953 4.04391C25.4471 3.53613 24.7064 4.27471 24.3823 4.64401C23.9193 5.10562 24.8916 5.38259 25.9564 5.52108ZM21.4193 9.35249C23.1786 9.62946 26.8361 9.49097 28.5028 9.44481C31.188 9.39865 31.6047 9.26017 30.9565 8.93703C30.3084 8.66006 30.0306 8.70623 28.7343 8.47542C27.4842 8.24461 26.1416 8.29077 23.8267 8.10613C21.5119 7.92148 21.2341 7.96764 20.91 8.24461C20.3081 8.89087 20.3081 9.16784 21.4193 9.35249ZM33.7807 12.7684C30.6787 12.2145 27.3453 12.1222 25.4934 11.5221C23.6415 10.8758 22.0674 10.922 20.6322 10.7373C19.197 10.5527 18.2247 10.2296 18.5025 10.8297C18.734 11.3374 18.9655 11.8914 20.7711 12.1222C22.5767 12.353 25.8175 13.3685 28.8268 13.4609C31.7899 13.5532 36.8363 13.3224 33.7807 12.7684ZM33.7807 16.646C35.9567 16.5999 37.2067 16.3229 35.3548 16.1382C33.5029 15.9998 28.1324 15.4458 25.7249 15.0765C23.3175 14.7072 20.2618 13.8763 21.7896 14.9842C22.3452 15.3997 22.7619 16.0459 24.2897 16.2306C25.8638 16.4614 31.5584 16.6922 33.7807 16.646ZM35.5863 18.7694C33.2251 18.4925 28.9657 18.5848 27.6694 18.631C26.049 18.7233 25.4934 18.5848 26.4194 19.0003C27.3453 19.4157 27.6694 19.4619 29.475 19.3234C31.2806 19.1387 35.8641 19.4157 38.4567 19.2311C41.0957 19.0926 37.9475 19.0464 35.5863 18.7694Z" fill="url(#paint1_linear_4136_975)"/>
<path d="M44.707 25.4167C44.3829 25.7398 43.6422 26.5707 43.3181 26.8477C43.0403 27.0785 42.994 27.2632 42.6236 27.9556C42.2995 28.648 42.068 29.1558 42.5773 28.8788C43.0866 28.6019 43.5959 28.1402 43.781 27.6786C44.0125 27.1708 45.4941 24.5858 44.707 25.4167ZM42.8088 29.2481C42.2532 29.5712 42.1606 29.0173 41.6977 29.5251C41.281 30.0329 40.6791 31.3715 41.0958 31.0023C41.5125 30.633 41.8366 30.2175 42.2069 30.1713C42.6699 30.1252 43.2718 28.8788 42.8088 29.2481ZM40.1235 30.9561C40.4939 31.0946 40.7717 30.9099 41.0032 30.1252C41.2347 29.3404 41.6977 29.0635 41.8829 28.6942C42.068 28.371 42.4847 27.6786 41.9292 28.0479C41.5125 28.3249 41.0032 28.6942 40.7254 29.0173C40.4476 29.3404 40.1698 29.3866 40.2161 29.9405C40.2624 30.4945 39.7069 30.7714 40.1235 30.9561ZM37.2994 32.5256C37.9476 32.3409 37.8087 31.5562 38.3179 31.4639C38.8735 31.3715 38.2254 32.2486 38.5957 31.9717C38.9661 31.6947 39.3365 31.4639 39.4754 30.9561C39.6143 30.4022 39.8458 29.5712 39.3365 30.0329C38.9661 30.3098 38.9198 29.8944 38.4105 30.1252C37.9013 30.356 37.4846 30.7253 37.2068 31.3715C36.929 32.064 36.6975 32.7564 37.2994 32.5256ZM39.3365 32.2025C39.8921 32.0178 40.0773 32.1101 39.568 32.4333C39.0124 32.7102 39.105 32.7102 39.0587 32.9872C39.0124 33.2642 39.0124 33.3565 39.4754 33.0795C39.9847 32.8026 40.818 32.4333 40.5865 32.2486C40.355 32.0178 40.4476 31.9716 40.6328 31.6947C40.818 31.4639 40.9106 31.0484 40.5865 31.2331C40.1235 31.51 40.4013 30.8638 39.7532 31.3715C39.1976 31.8332 38.7809 32.3409 39.3365 32.2025ZM41.6514 30.9561C41.2347 31.2331 41.2347 31.2792 41.0032 31.5562C40.7717 31.8332 41.1884 31.8793 41.0032 32.1563C40.818 32.4333 41.1421 32.3871 41.3736 32.2486C41.6051 32.1101 41.6514 31.8332 41.8366 31.51C41.9755 31.1869 42.1143 30.633 41.6514 30.9561ZM41.0495 32.5718C40.8643 32.6179 40.8643 32.5256 40.5865 32.6641C39.8921 33.0334 39.7995 33.3103 39.3828 33.5873C38.9198 33.8643 39.0124 34.3259 39.4754 34.0951C39.9847 33.8643 40.4013 33.4027 40.6791 33.2642C40.9569 33.1257 41.0495 33.1719 41.1421 32.8487C41.281 32.5256 41.2347 32.5256 41.0495 32.5718ZM40.6791 33.4027C40.4013 33.495 40.2624 33.772 39.9847 34.0028C39.7069 34.2336 39.2902 34.5567 39.7069 34.3721C40.1235 34.2336 40.4939 33.8643 40.6328 33.772C40.7717 33.6335 41.1421 33.1719 40.6791 33.4027ZM38.3642 33.3565C38.7346 33.2642 38.8735 33.6796 38.9198 33.218C38.9198 32.7564 38.9661 32.2948 38.7346 32.3871C37.9939 32.6641 37.6235 32.941 37.2068 33.0795C36.7438 33.218 36.6049 33.9104 36.9753 33.8181C37.2994 33.7258 37.6235 33.6796 37.2994 33.9104C36.9753 34.1412 36.9753 34.2797 36.8364 34.5105C36.6975 34.7413 37.1142 34.8337 37.4846 34.649C37.855 34.4182 38.7809 34.3721 38.6883 34.0489C38.5957 33.6796 37.9476 33.4027 38.3642 33.3565ZM38.8735 34.3259C38.5494 34.3721 38.3642 34.6029 38.1791 34.7875C37.9939 35.0183 37.7161 35.203 37.8087 34.9722C37.9013 34.7413 37.7624 34.7875 37.5309 34.8798C37.2994 34.9722 37.5309 35.3414 37.3457 35.6646C37.1605 36.0339 37.4846 36.08 37.855 35.8031C38.2254 35.5261 38.5494 35.1568 38.7346 35.0645C38.9198 34.926 39.105 34.7875 39.105 34.649C39.1976 34.4182 39.1976 34.3259 38.8735 34.3259ZM36.142 35.1106C35.6327 35.2491 35.216 35.8492 34.9845 36.4955C34.7067 37.1417 34.9845 37.511 35.3086 37.4187C35.6327 37.3726 35.679 37.0494 35.9105 36.5878C36.0957 36.08 36.2809 36.2647 36.142 36.634C36.0031 37.0033 36.4198 36.8186 36.6975 36.634C36.9753 36.4032 37.1605 36.357 37.0679 36.1262C36.9753 35.8954 37.0679 35.4799 37.1605 35.2491C37.2994 34.8337 36.6512 34.9722 36.142 35.1106ZM35.9105 34.8798C36.2346 34.7413 36.3735 34.7413 36.4661 34.3721C36.5586 33.9566 36.3272 33.5873 36.4661 33.3103C36.6975 32.8487 35.5864 33.3565 35.4475 33.772C35.3086 34.1412 35.1234 35.1568 35.1234 35.5723C35.0308 35.9415 35.5864 35.0645 35.9105 34.8798ZM35.6327 33.1257C36.0494 32.8949 36.6975 32.941 36.6049 32.5718C36.5123 32.2486 36.3272 31.0484 36.6049 31.3715C36.8827 31.6947 37.0679 30.9099 37.0679 30.9099C37.2068 30.5868 37.5772 30.4022 37.2068 30.4022C36.7438 30.4022 36.3735 30.4483 36.0494 31.0023C35.8179 31.5562 35.216 33.3565 35.6327 33.1257Z" fill="#822E1C"/>
<path d="M16.7897 14.1532C17.7157 14.384 19.475 14.7533 18.7805 14.1532C18.1323 13.5531 17.5305 13.1376 17.1601 12.676C16.4193 11.7989 16.2804 12.4452 15.8175 13.1838C15.4008 13.8762 15.8175 13.9224 16.7897 14.1532ZM22.3454 17.4307C21.4195 16.5536 20.2157 15.2149 19.6139 15.2611C19.012 15.3072 16.0027 14.4302 15.0304 14.661C13.873 14.9379 14.3823 15.7688 15.123 16.2766C15.9101 16.7844 17.0675 17.7538 18.2249 18.2616C19.3824 18.7693 20.6324 19.0002 22.7158 19.0463C24.7992 19.0925 23.2714 18.3077 22.3454 17.4307ZM27.2992 21.7237C25.9103 20.662 25.6325 19.8311 24.5214 19.8311C23.0399 19.8311 19.2435 18.9078 20.9565 20.0157C22.6695 21.1236 24.9381 22.1391 26.3733 22.4623C27.8548 22.7854 28.6882 22.7854 27.2992 21.7237ZM29.753 23.8933C28.8271 23.0162 28.6419 23.2932 27.0215 23.1085C25.401 22.9239 28.4567 24.4472 30.7253 25.2781C33.0401 26.109 30.8641 24.955 29.753 23.8933Z" fill="#7A2717"/>
<path d="M23.2713 15.4458C22.5768 16.0921 21.7897 16.7845 21.6046 17.7539C21.049 20.3851 22.5305 24.078 25.2158 27.0324C28.9196 31.0484 33.4567 33.0334 36.0494 30.633C36.2346 30.4945 36.929 29.7097 37.0679 29.5251C39.105 26.9862 38.1328 22.1854 34.6604 18.4002C31.0029 14.4303 25.9102 13.0916 23.2713 15.4458ZM35.679 28.9712C33.4567 31.0023 29.0584 29.8482 25.8639 26.4323C22.7157 22.9702 21.9749 18.5386 24.1972 16.4614C26.4195 14.4303 30.2159 16.1382 33.3641 19.6004C36.5586 23.0625 37.9476 26.94 35.679 28.9712Z" fill="#EC8CA1"/>
<path d="M22.5768 16.1382C19.9841 18.4924 20.8174 23.7087 24.5212 27.7248C28.225 31.7408 33.3178 33.0795 35.9104 30.6791C38.5031 28.3249 37.6697 23.1086 33.9659 19.0925C30.3084 15.1226 25.2157 13.784 22.5768 16.1382ZM34.9845 29.7097C32.7622 31.7408 28.3639 30.5868 25.1694 27.1708C22.0212 23.7087 21.2804 19.2772 23.5027 17.1999C25.725 15.1688 30.1232 16.3228 33.3178 19.7388C36.466 23.2009 37.253 27.6324 34.9845 29.7097Z" fill="#C8518B"/>
<path d="M22.7618 16.3689C20.2154 18.677 21.0488 23.7086 24.66 27.6324C28.2249 31.5561 33.1787 32.8486 35.7251 30.5405C38.2714 28.2325 37.4381 23.2008 33.8269 19.2771C30.262 15.3534 25.3081 14.0609 22.7618 16.3689ZM34.2898 29.1095C32.3454 30.8637 28.4564 29.802 25.6322 26.7553C22.8081 23.6625 22.1136 19.7387 24.0581 17.9384C26.0026 16.1843 29.8916 17.246 32.7157 20.2927C35.5399 23.3855 36.2343 27.3092 34.2898 29.1095Z" fill="#FCE5EE"/>
<path d="M36.5121 25.3243C36.5121 25.4166 36.6046 25.4628 36.6509 25.4628C36.6972 25.4628 36.7898 25.4166 36.7435 25.3705C36.7435 25.2781 36.6509 25.232 36.6046 25.232C36.5584 25.232 36.5121 25.2781 36.5121 25.3243ZM23.0395 16.6459C22.9932 16.6921 22.9932 16.7844 23.0858 16.8306C23.1321 16.8767 23.2247 16.9229 23.271 16.8767C23.3173 16.8306 23.3173 16.7382 23.2247 16.6921C23.1321 16.5998 23.0858 16.5998 23.0395 16.6459ZM35.262 29.9866C35.2157 30.0328 35.2157 30.1251 35.3083 30.1713C35.3546 30.2174 35.4472 30.2636 35.4935 30.2174C35.5398 30.1713 35.5398 30.0789 35.4472 30.0328C35.4009 29.9866 35.3083 29.9405 35.262 29.9866ZM30.4008 30.9098C30.4008 31.0022 30.4934 31.0483 30.5397 31.0483C30.6323 31.0483 30.6786 31.0022 30.6323 30.956C30.6323 30.8637 30.5397 30.8175 30.4934 30.8175C30.4008 30.8175 30.3545 30.8637 30.4008 30.9098ZM21.7432 21.4467C21.7432 21.539 21.8358 21.5852 21.8821 21.5852C21.9747 21.5852 22.0209 21.539 21.9747 21.4929C21.9747 21.4006 21.8821 21.3544 21.8358 21.3544C21.7895 21.3544 21.7432 21.4006 21.7432 21.4467ZM27.8544 15.8612C27.8544 15.9535 27.947 15.9996 27.9933 15.9996C28.0859 15.9996 28.1322 15.9535 28.0859 15.9073C28.0859 15.815 27.9933 15.7688 27.947 15.7688C27.9007 15.7688 27.8544 15.815 27.8544 15.8612ZM24.7988 27.2631C24.7525 27.3092 24.7525 27.4016 24.8451 27.4477C24.8914 27.4939 24.984 27.54 25.0303 27.4939C25.0766 27.4477 25.0766 27.3554 24.984 27.3092C24.9377 27.2631 24.8451 27.2169 24.7988 27.2631ZM33.5027 19.3694C33.4564 19.4156 33.4564 19.5079 33.549 19.5541C33.5953 19.6003 33.6879 19.6464 33.7342 19.6003C33.7805 19.5541 33.7805 19.4618 33.6879 19.4156C33.5953 19.3694 33.549 19.3233 33.5027 19.3694ZM27.5766 29.525C27.5766 29.5712 27.6229 29.6635 27.6692 29.7096C27.7155 29.7558 27.8081 29.7558 27.8081 29.6635C27.8081 29.6173 27.7618 29.525 27.7155 29.4788C27.6692 29.4327 27.6229 29.4327 27.5766 29.525ZM23.1784 24.5857C23.1321 24.4934 23.0858 24.4472 22.9932 24.4934C22.9469 24.4934 22.9006 24.5857 22.9469 24.6319C22.9932 24.7242 23.0395 24.7704 23.1321 24.7242C23.1784 24.7242 23.2247 24.6319 23.1784 24.5857ZM35.3546 22.1391C35.3083 22.1391 35.262 22.2315 35.3083 22.2776C35.3546 22.37 35.4009 22.4161 35.4935 22.3699C35.5398 22.3699 35.5861 22.2776 35.5398 22.2315C35.4935 22.1853 35.4472 22.1391 35.3546 22.1391ZM36.3269 27.8632C36.3269 27.9093 36.3732 28.0017 36.4195 28.0478C36.4658 28.094 36.5584 28.094 36.5584 28.0017C36.5584 27.9555 36.5121 27.8632 36.4658 27.817C36.4195 27.7709 36.3732 27.817 36.3269 27.8632ZM22.0672 18.8155C22.0209 18.7693 21.9284 18.7693 21.9284 18.8617C21.9284 18.9078 21.9747 19.0002 22.0209 19.0463C22.0672 19.0925 22.1598 19.0925 22.1598 19.0002C22.2061 18.954 22.1598 18.8617 22.0672 18.8155ZM30.9101 17.3383C30.9101 17.2922 30.8638 17.1999 30.8175 17.1537C30.7712 17.1075 30.6786 17.1075 30.6786 17.1999C30.6786 17.246 30.7249 17.3383 30.7712 17.3845C30.8175 17.4307 30.9101 17.3845 30.9101 17.3383ZM33.1786 30.8175C33.1323 30.8175 33.086 30.9098 33.1323 30.956C33.1786 31.0483 33.2249 31.0945 33.3175 31.0483C33.3638 31.0483 33.4101 30.956 33.3638 30.9098C33.3175 30.8637 33.2712 30.8175 33.1786 30.8175ZM25.3544 15.8612C25.3081 15.7688 25.2618 15.7227 25.1692 15.7688C25.1229 15.7688 25.0766 15.8612 25.1229 15.9073C25.1692 15.9997 25.2155 16.0458 25.3081 15.9996C25.3544 15.9996 25.4007 15.9535 25.3544 15.8612Z" fill="#F5B2D1"/>
<path d="M24.9844 22.5085C24.3363 23.1086 23.6418 23.7549 23.4566 24.6319C22.9474 27.0785 24.3363 30.4945 26.79 33.218C30.2161 36.9571 34.3828 38.7574 36.8366 36.5416C36.9755 36.4031 37.67 35.6646 37.7625 35.5261C39.6607 33.1718 38.7348 28.7403 35.5403 25.232C32.1606 21.5853 27.4382 20.3389 24.9844 22.5085ZM36.4662 35.0645C34.3828 36.9571 30.3087 35.8954 27.3919 32.7102C24.4752 29.5251 23.7807 25.3705 25.8641 23.4779C27.9475 21.5853 31.4198 23.2009 34.3365 26.3861C37.2996 29.5712 38.5496 33.1718 36.4662 35.0645Z" fill="#EC8CA1"/>
<path d="M24.3364 23.1548C21.9289 25.3706 22.716 30.1714 26.142 33.8643C29.568 37.6034 34.2903 38.8036 36.6978 36.634C39.1053 34.4182 38.3182 29.6174 34.8922 25.9245C31.5125 22.1854 26.7901 20.9852 24.3364 23.1548ZM35.8181 35.7107C33.7348 37.6034 29.6606 36.5417 26.7438 33.3565C23.8271 30.1714 23.1326 26.0168 25.216 24.1242C27.2994 22.2316 31.3736 23.2933 34.2903 26.4784C37.2071 29.7097 37.9015 33.8181 35.8181 35.7107Z" fill="#C8518B"/>
<path d="M24.5214 23.3856C22.1602 25.509 22.9473 30.1714 26.2807 33.8181C29.6141 37.4187 34.1976 38.6189 36.5124 36.4955C38.8736 34.3721 38.0866 29.7098 34.7531 26.063C31.466 22.4162 26.8826 21.216 24.5214 23.3856ZM35.1698 35.1568C33.3642 36.8186 29.7993 35.8031 27.1604 32.9411C24.5214 30.079 23.8732 26.4323 25.6788 24.7705C27.4844 23.1086 31.0493 24.1242 33.6883 26.9862C36.3273 29.8944 36.9754 33.5412 35.1698 35.1568Z" fill="#FCE5EE"/>
<path d="M37.2534 31.6946C37.2534 31.7407 37.346 31.8331 37.3923 31.8331C37.4386 31.8331 37.4849 31.7869 37.4849 31.7407C37.4849 31.6946 37.3923 31.6022 37.346 31.6022C37.2997 31.5561 37.2534 31.6022 37.2534 31.6946ZM24.7531 23.6163C24.7068 23.6625 24.7068 23.7086 24.7994 23.8009C24.8457 23.8471 24.9383 23.8933 24.9846 23.8471C25.0309 23.8009 25.0309 23.7548 24.9383 23.6625C24.892 23.6163 24.7994 23.5701 24.7531 23.6163ZM36.096 35.9876C36.0497 36.0338 36.0497 36.0799 36.1423 36.1722C36.1886 36.2184 36.2812 36.2646 36.3275 36.2184C36.3738 36.1722 36.3738 36.1261 36.2812 36.0338C36.1886 35.9876 36.1423 35.9414 36.096 35.9876ZM31.5588 36.8647C31.5588 36.9108 31.6514 37.0032 31.6977 37.0032C31.744 37.0032 31.7903 37.0032 31.7903 36.9108C31.7903 36.8647 31.6977 36.7723 31.6514 36.7723C31.6051 36.7262 31.5588 36.7723 31.5588 36.8647ZM23.5494 28.094C23.5494 28.1401 23.642 28.2324 23.6883 28.2324C23.7346 28.2324 23.7809 28.2324 23.7809 28.1401C23.7809 28.094 23.6883 28.0016 23.642 28.0016C23.5957 28.0016 23.5494 28.0478 23.5494 28.094ZM29.244 22.9239C29.244 22.97 29.3366 23.0624 29.3829 23.0624C29.4292 23.0624 29.4755 23.0624 29.4755 22.97C29.4755 22.9239 29.3829 22.8315 29.3366 22.8315C29.2903 22.8315 29.244 22.8777 29.244 22.9239ZM26.4198 33.4487C26.3735 33.4949 26.3735 33.541 26.4661 33.6334C26.5124 33.6795 26.605 33.7257 26.6513 33.6795C26.6976 33.6334 26.6976 33.5872 26.605 33.4949C26.5124 33.4487 26.4661 33.4487 26.4198 33.4487ZM34.4293 26.1552C34.383 26.2013 34.383 26.2475 34.4756 26.3398C34.5219 26.386 34.6145 26.4321 34.6608 26.386C34.7071 26.3398 34.7071 26.2937 34.6145 26.2013C34.5682 26.1552 34.4756 26.109 34.4293 26.1552ZM28.9662 35.526C28.9662 35.5721 29.0125 35.6645 29.0588 35.7106C29.1051 35.7568 29.1977 35.7568 29.1977 35.6645C29.1977 35.6183 29.1514 35.526 29.1051 35.4798C29.0588 35.4798 29.0125 35.4798 28.9662 35.526ZM24.892 31.0021C24.8457 30.956 24.7994 30.9098 24.7531 30.9098C24.7068 30.9098 24.6605 31.0021 24.7068 31.0483C24.7531 31.0945 24.7994 31.1406 24.8457 31.1406C24.9383 31.0945 24.9383 31.0483 24.892 31.0021ZM36.1886 28.6941C36.1423 28.6941 36.096 28.7864 36.1423 28.8325C36.1886 28.8787 36.2349 28.9249 36.2812 28.9249C36.3275 28.9249 36.3275 28.8326 36.3275 28.7864C36.3275 28.7402 36.2349 28.6941 36.1886 28.6941ZM37.0682 34.0026C37.0682 34.0488 37.1145 34.1411 37.1608 34.1873C37.2071 34.2335 37.2997 34.2335 37.2997 34.1411C37.2997 34.095 37.2534 34.0026 37.2071 33.9565C37.1608 33.9565 37.1145 33.9565 37.0682 34.0026ZM23.8735 25.6474C23.8272 25.6012 23.7346 25.6012 23.7346 25.6936C23.7346 25.7397 23.7809 25.832 23.8272 25.8782C23.8735 25.9244 23.9661 25.9244 23.9661 25.832C23.9661 25.7859 23.9198 25.6936 23.8735 25.6474ZM32.0681 24.2626C32.0681 24.2164 32.0218 24.1241 31.9755 24.0779C31.9292 24.0317 31.8366 24.0317 31.8366 24.1241C31.8366 24.1702 31.8829 24.2626 31.9292 24.3087C31.9755 24.3549 32.0681 24.3549 32.0681 24.2626ZM34.1515 36.7723C34.1052 36.7723 34.1052 36.8647 34.1052 36.9108C34.1515 36.957 34.1978 37.0032 34.2441 37.0032C34.2904 37.0032 34.3367 36.9108 34.2904 36.8647C34.2904 36.8185 34.2441 36.7723 34.1515 36.7723ZM26.9291 22.9239C26.8828 22.8777 26.8365 22.8315 26.7902 22.8315C26.7439 22.8315 26.7439 22.9239 26.7439 22.97C26.7902 23.0162 26.8365 23.0624 26.8828 23.0624C26.9291 23.0624 26.9291 22.97 26.9291 22.9239Z" fill="#F5B2D1"/>
<path d="M13.4565 14.4304C14.4288 9.53723 20.8641 7.82925 25.818 12.1223C30.8181 16.4615 33.92 23.9396 32.9941 28.8328C32.7626 29.2944 31.4663 30.5407 31.3274 30.4023C26.2809 26.2016 18.6882 18.9542 13.4565 14.4304Z" fill="#E73D2E"/>
<path d="M13.225 14.7997C14.1972 9.90657 19.0122 9.39879 24.0123 13.738C29.0124 18.031 32.2995 25.5553 31.3273 30.4485C26.3735 26.1554 18.6418 19.5082 13.225 14.7997Z" fill="#E31913"/>
<path d="M13.688 15.169C14.614 10.5066 19.1974 10.045 23.9661 14.1534C28.7347 18.2618 31.8367 25.4168 30.957 30.0792C26.1884 26.0169 18.8271 19.6466 13.688 15.169Z" fill="#EE6F4B"/>
<path d="M15.4937 16.5998C16.2344 12.8607 19.8919 12.4914 23.6883 15.7689C27.4847 19.0464 29.9848 24.7243 29.244 28.4633C25.4476 25.1859 19.6141 20.1081 15.4937 16.5998Z" fill="#E52913"/>
<path d="M21.8831 18.0308C21.8831 17.5231 21.559 16.8768 21.096 16.5537C20.6331 16.2305 20.2627 16.4152 20.2627 16.923C20.2627 17.4307 20.7257 18.7233 21.0034 18.9079C21.2349 19.0464 21.8831 18.5386 21.8831 18.0308ZM24.7998 20.8467C24.9387 20.4774 24.7535 19.785 24.3369 19.3695C23.9202 18.9079 23.4572 18.8618 23.272 19.2772C23.1331 19.6465 23.4109 20.939 23.5961 21.1698C23.8739 21.4006 24.6609 21.216 24.7998 20.8467ZM27.0684 23.4318C26.7906 22.8778 26.2814 22.4624 25.911 22.5547C25.5406 22.647 25.2628 23.5702 25.4017 23.801C25.5869 24.1703 26.5591 24.6781 26.9295 24.5858C27.2536 24.5396 27.3462 24.0319 27.0684 23.4318ZM18.9201 16.5537C18.6886 15.9536 18.1793 15.4458 17.8089 15.4458C17.4385 15.4458 17.2997 15.9074 17.5311 16.5075C17.7626 17.1076 18.6423 18.2155 18.8738 18.2155C19.059 18.2155 19.1516 17.1538 18.9201 16.5537Z" fill="#E86A0A"/>
<path d="M24.6143 20.3852C24.6606 20.2928 24.6606 20.1544 24.6143 20.062C24.568 19.9235 24.4754 19.7389 24.3828 19.6466C24.2902 19.5543 24.1513 19.4619 24.0587 19.4619C23.9661 19.4619 23.8735 19.5081 23.8272 19.6004C23.7809 19.7389 23.8272 20.1544 23.9198 20.616C23.9198 20.6621 23.9198 20.6621 23.9198 20.7083C24.1976 20.7083 24.5217 20.616 24.6143 20.3852ZM21.6975 17.7078C21.6975 17.6616 21.6975 17.5693 21.6512 17.5231C21.605 17.2923 21.4661 17.0615 21.2809 16.9692C21.1883 16.8769 21.0957 16.8769 21.0031 16.923C20.9105 16.923 20.8642 17.0154 20.8642 17.1539C20.8642 17.2 20.8642 17.2923 20.9105 17.477C21.0031 17.8001 21.142 18.1232 21.2346 18.3079C21.4198 18.2156 21.6512 17.9386 21.6975 17.7078ZM26.9755 23.6165C26.9755 23.5703 26.9292 23.5242 26.9292 23.4318C26.7903 23.1549 26.5125 22.9241 26.3273 22.9702C26.1421 23.0164 26.0032 23.3857 25.9569 23.6626C26.1884 23.8473 26.6514 24.0319 26.8366 23.9858C26.9755 24.0319 27.0681 23.8473 26.9755 23.6165ZM18.7808 16.4614C18.7345 16.3229 18.6419 16.1383 18.503 16.046C18.4104 15.9537 18.2715 15.8613 18.1789 15.8613C17.9937 15.8613 17.9475 16.046 17.9937 16.3229C17.9937 16.3691 17.9937 16.4153 18.04 16.4614C18.1326 16.7384 18.5493 17.2923 18.7808 17.5231C18.8271 17.2923 18.8271 16.8307 18.7808 16.5076C18.7808 16.5076 18.7808 16.5076 18.7808 16.4614Z" fill="#FAB515"/>
<path d="M24.9386 24.4012C24.7071 23.9396 24.383 23.2933 24.5682 22.7856C24.7071 22.2778 24.1515 22.2316 23.5034 21.5854C22.9015 20.9391 22.6237 20.2928 22.4385 19.7851C22.2996 19.3234 22.0219 19.8774 21.2348 19.5081C20.4477 19.1388 19.8922 17.8924 19.7996 18.2617C19.6607 18.5849 19.2903 19.0003 18.6421 18.7233C17.994 18.4464 18.5958 19.1388 19.244 19.6927C19.8922 20.2467 23.9201 23.7549 24.383 24.1242C24.7997 24.4935 25.1238 24.8167 24.9386 24.4012Z" fill="#F6A984"/>
<path d="M24.7993 23.9397C29.4291 25.186 34.244 26.3401 34.1514 27.3095C34.0588 28.2788 34.8922 27.7249 34.7996 29.0636C34.707 30.4023 34.2903 36.2648 34.3829 38.2036C34.4755 40.1424 34.6144 40.2809 34.1514 40.7886C33.6884 41.2964 33.2718 41.5734 33.1792 42.312C33.0866 43.0506 33.1792 43.6045 32.2069 44.1584C31.2347 44.7124 31.9754 45.0355 31.0032 45.451C30.0309 45.8664 29.9383 46.6512 29.4754 47.0666C29.0124 47.4821 28.4105 47.2974 27.855 47.8052C27.2994 48.2668 26.6512 48.1283 25.2623 47.7129C23.8734 47.2974 13.3176 41.2041 11.049 39.5884C8.7341 37.9728 8.96559 37.3265 7.99334 36.4033C7.0211 35.5262 7.20629 35.2031 6.78961 33.7259C6.37293 32.2487 6.23404 32.0179 6.69702 32.0179C7.15999 32.0179 6.37293 31.6025 6.14145 30.7254C5.90996 29.8483 6.69702 30.2638 6.14145 29.1098C5.58588 28.0019 5.1692 26.4324 4.84512 25.0014C4.52103 23.5704 3.78028 22.9703 4.42844 22.0932C5.1229 21.2623 18.2251 22.1855 24.7993 23.9397Z" fill="#632211"/>
<path d="M32.9017 26.8477C33.735 26.8477 33.8739 26.6631 33.3184 26.2476C32.022 25.2321 29.3831 23.9395 26.3738 22.3701C22.0681 20.2005 19.4291 18.1694 17.5772 17.0615C14.7068 15.3073 12.9012 13.5994 11.3271 13.5532C10.4011 13.507 9.84556 14.1995 9.0585 15.4458C8.68812 16.0459 9.24369 16.5999 8.68812 16.5537C8.13255 16.5075 7.57698 17.4308 7.80847 18.0309C8.03996 18.631 7.34549 17.8001 6.69733 18.7233C6.04916 19.6004 6.04916 19.785 6.28065 20.2466C6.51214 20.7082 6.28065 20.7082 5.72508 20.6621C5.12321 20.5236 5.12321 21.2622 4.47505 22.1392C4.24356 22.4624 4.19727 22.7393 4.19727 23.0163C4.42875 23.201 4.89173 23.2471 5.49359 23.3394C6.51214 23.5241 6.51214 24.355 7.71587 24.9089C8.91961 25.4629 10.3548 26.1553 11.9289 26.6169C13.5494 27.0785 12.8086 27.3093 13.966 28.0018C15.0772 28.648 18.2717 30.2637 19.8458 31.1408C21.4662 32.0178 23.6422 33.1719 24.0589 33.0795C24.4756 33.0334 25.5867 31.8793 26.096 31.4177C26.5589 30.9561 26.5126 30.5868 26.9293 30.5868C27.346 30.5868 27.7627 30.3098 28.596 29.6174C29.4294 28.9712 29.059 28.7865 29.985 28.3711C30.8646 27.9556 31.7906 27.6786 31.6054 27.1709C31.4202 26.7554 32.0683 26.8477 32.9017 26.8477Z" fill="#9D4329"/>
<path d="M12.6232 17.0614C15.7251 17.6615 18.1789 17.9847 16.9288 17.1999C15.6788 16.4152 13.1788 14.661 12.7158 14.3841C12.2528 14.1071 11.188 13.6916 10.4935 14.3841C10.4935 14.3841 9.61385 15.2611 9.47496 15.8151C9.38236 16.4613 9.52125 16.4613 12.6232 17.0614ZM10.4935 18.6771C12.2528 19.1387 19.29 20.2466 21.1419 20.5235C22.9938 20.8005 21.2345 20.2004 20.0771 19.4157C18.9196 18.6309 18.4104 18.5848 16.8363 18.3078C15.2621 18.0308 10.3546 16.9229 9.47496 16.8768C8.87309 16.8306 8.6416 16.8306 8.31752 17.3846C7.99344 17.8923 8.78049 18.2155 10.4935 18.6771ZM29.9847 24.8166C28.4106 23.9857 26.8828 23.3856 24.8457 22.8778C22.7623 22.4162 20.1697 22.2315 16.5585 20.8928C12.901 19.5542 9.47496 18.5848 8.27122 18.7232C6.8823 18.8617 6.51192 19.9234 7.20638 20.2927C7.90084 20.662 11.7435 21.4929 15.7714 22.7855C19.753 24.078 29.6144 26.2476 31.1885 26.2476C32.7163 26.2476 31.5588 25.6936 29.9847 24.8166ZM16.8826 20.5235C18.1789 20.939 21.929 21.8622 24.0587 22.2315C26.1883 22.6008 24.9846 21.9084 23.8272 21.4468C22.6697 20.9852 19.1048 20.5697 17.8085 20.3389C14.5214 19.8311 15.6325 20.1081 16.8826 20.5235ZM28.5958 26.5246C27.068 26.3399 22.3919 25.1859 19.5215 24.355C16.6511 23.5241 7.62306 21.3083 6.69711 21.216C5.30818 21.0313 5.16929 21.8161 4.89151 22.5085C4.61372 23.2009 7.02119 22.9701 9.42866 23.4779C11.8361 23.9857 21.0493 25.9706 23.179 26.4784C25.3087 27.0323 24.5216 27.1247 21.3734 26.4784C18.2252 25.8321 9.66015 24.1242 7.85454 23.801C6.04894 23.4779 8.03973 24.8166 10.0768 25.509C12.1602 26.1553 13.5491 26.7092 16.5122 27.3093C19.4752 27.9094 25.6791 29.6635 26.7439 30.079C27.8551 30.4944 28.3643 29.1558 28.7347 28.8788C29.1051 28.5557 30.3551 27.7248 30.9107 27.3555C31.5126 27.0323 30.1236 26.7092 28.5958 26.5246ZM22.5308 29.3866C20.3549 28.7865 16.6511 28.1864 14.9381 27.5863C12.6232 26.7554 14.9381 28.2325 16.6511 29.0173C18.3641 29.802 22.1142 31.9716 23.3179 32.5717C24.5216 33.1718 25.9106 31.233 26.1883 30.7714C26.4661 30.3098 24.7068 29.9867 22.5308 29.3866Z" fill="url(#paint2_linear_4136_975)"/>
<path d="M28.6418 31.51C29.3826 32.0639 30.1697 32.2486 30.4937 32.6179C30.8178 32.9872 31.2345 32.4332 31.6975 32.2024C32.1605 32.0178 31.8364 31.7408 31.2345 31.6947C30.6789 31.6023 29.9845 30.9099 30.9104 31.0946C31.8364 31.233 32.3456 31.6947 32.8086 31.2792C33.2716 30.8637 33.0864 30.8176 32.8549 29.9405C32.6234 29.0634 32.0679 27.5863 31.4197 28.0479C31.003 28.371 30.2623 28.5095 30.4937 29.0173C30.7252 29.4789 31.0493 30.0328 30.54 29.6635C30.0308 29.2943 29.8919 28.9711 29.4289 29.2943C28.9659 29.6174 28.4567 30.2636 28.0863 30.4483C27.7622 30.6791 27.9011 30.9561 28.6418 31.51ZM33.179 29.7559C33.4568 30.5406 34.0124 30.6791 34.1975 29.7559C34.3364 28.8326 34.5679 28.6018 34.1975 28.371C33.8272 28.1864 33.4105 28.0017 33.4105 27.5863C33.4105 27.1708 32.2993 27.4016 32.5308 27.7709C32.8549 28.371 32.9012 29.0173 33.179 29.7559ZM27.3455 33.7719C27.6233 33.6334 27.7622 33.495 27.5307 32.8949C27.3455 32.2948 27.8085 32.5256 27.9474 32.9872C28.0863 33.4488 28.4104 33.1257 28.6418 32.8949C28.8733 32.664 29.3826 32.2024 29.0122 32.1101C28.6418 32.0178 28.3178 31.6023 27.4381 31.1869C26.9751 30.9561 27.0677 31.51 26.6048 31.9255C26.1418 32.3409 26.1881 33.1257 26.2807 33.8642C26.327 34.6028 27.0677 33.9566 27.3455 33.7719ZM25.7251 34.1874C25.5862 33.495 25.7714 33.1257 25.864 32.664C25.9566 31.9255 25.4473 32.5256 24.7529 33.0333C24.0584 33.5411 24.4288 34.1412 24.614 34.7413C24.7992 35.3414 24.7992 35.1106 25.3084 34.926C25.7714 34.7875 25.864 34.8798 25.7251 34.1874ZM26.0029 37.0494C26.2807 36.8648 26.1418 36.2185 26.0492 35.6184C25.9103 35.0183 25.4473 35.2953 24.938 35.6646C24.7066 35.803 25.0769 36.7724 25.3084 37.4187C25.5399 38.065 25.7251 37.234 26.0029 37.0494ZM27.6696 34.3259C27.3455 34.3259 27.0214 34.5567 26.5585 34.7413C26.0955 34.8798 26.4196 35.4337 26.4196 36.1723C26.4196 36.9109 26.5122 36.8648 26.9288 36.8648C27.3918 36.8648 27.4844 37.2802 28.1326 37.0956C28.7807 36.9571 29.1048 36.8186 28.6881 36.2185C28.2715 35.6184 28.5492 35.7569 29.1048 36.08C29.6141 36.4031 29.7067 36.2647 29.8919 35.6184C30.0771 34.926 30.0308 34.8798 29.4289 34.6952C28.8733 34.5105 29.1048 34.1412 29.5678 34.2335C30.0308 34.372 30.1234 34.372 30.3549 33.7719C30.54 33.218 30.216 33.0333 29.7067 32.7564C29.2437 32.4794 29.0585 33.1718 28.5492 33.5411C28.04 33.9566 28.4567 34.0951 28.5492 34.9721C28.6418 35.8492 27.9937 34.3259 27.6696 34.3259ZM26.8362 40.3269C27.3455 40.1884 27.6696 40.1422 27.7622 39.2652C27.8548 38.3881 27.8548 38.4804 27.2992 38.5266C26.7436 38.6189 26.0492 38.3881 26.8362 38.1111C27.6233 37.8341 27.577 38.065 27.577 37.6495C27.577 37.1879 26.9288 36.9109 26.3733 37.1417C25.9566 37.2802 25.4473 37.8341 25.5862 38.2496C25.7251 38.6651 25.7714 39.6806 26.0029 40.0499C26.1418 40.5115 26.327 40.4654 26.8362 40.3269ZM33.9198 31.233C33.7809 31.6023 33.5494 32.0639 33.4568 31.6947C33.3642 31.2792 33.3179 31.4177 32.9475 31.5562C32.5308 31.6947 32.5308 31.9255 32.5771 32.3871C32.6234 32.8487 32.6697 33.218 32.3456 32.941C32.0216 32.664 32.4382 32.4794 32.1605 32.3871C31.8827 32.2948 31.4197 32.941 30.8178 33.0333C30.4011 33.1257 30.8641 33.1718 30.6789 34.0489C30.4937 34.8798 31.1419 34.2335 31.6049 34.1874C32.0679 34.0951 32.5308 33.9104 32.9938 33.6796C33.4568 33.4488 32.7623 33.218 33.2253 32.7564C33.6883 32.2948 33.3642 33.4488 33.8735 33.4488C34.3827 33.4488 34.2438 33.3103 34.2438 32.941C34.2438 32.5256 34.3827 31.7408 34.4753 31.1869C34.5216 30.6329 34.0586 30.8637 33.9198 31.233ZM31.929 34.6028C31.0956 34.8798 30.4937 34.7413 30.4011 35.1568C30.216 35.7107 29.8919 36.3108 30.2623 36.5416C30.6789 36.7263 31.3734 37.2802 31.6975 36.6801C32.0216 36.08 32.4845 35.4799 32.3456 36.2647C32.2067 37.0494 32.5771 36.9109 32.9012 36.7263C33.2253 36.5878 33.1327 36.1262 33.0401 35.3876C32.9012 34.6952 32.7623 34.3259 31.929 34.6028ZM33.642 35.9877C33.9198 36.1262 34.1049 36.08 34.1049 35.2029C34.1049 34.3259 34.2438 33.7258 33.7809 33.7719C33.3179 33.8643 33.2716 33.9566 33.0864 34.2335C32.8549 34.7413 33.3642 35.803 33.642 35.9877ZM30.216 37.0032C29.753 36.8648 29.7067 36.6801 29.4289 36.8648C29.1974 37.0032 28.5492 37.6033 28.1789 37.6495C27.8085 37.7418 28.04 38.6651 28.3178 38.6189C28.5955 38.5727 29.5215 38.5266 29.0122 38.7574C28.503 38.9882 28.503 38.942 28.3178 39.3575C28.1789 39.7729 28.4567 39.6806 29.1048 39.7268C29.753 39.7729 30.1697 39.7729 30.216 38.9882C30.3086 38.2034 30.0771 37.8803 30.3549 37.511C30.6789 37.1417 30.6326 37.1417 30.216 37.0032ZM32.253 37.511C31.7901 37.511 31.7901 37.1417 31.466 37.3725C31.1882 37.6033 30.4937 37.6033 30.6326 38.2034C30.7715 38.8035 30.5863 39.4036 31.0493 39.5421C31.5123 39.6806 31.5123 39.3575 31.7901 38.942C32.0679 38.5266 32.253 38.4342 32.1605 38.9882C32.0679 39.5421 32.2993 39.6806 32.6234 39.6806C32.9012 39.6806 33.5031 39.5421 33.2253 39.1267C32.8549 38.6651 32.716 37.511 32.253 37.511ZM33.7809 38.6651C34.1975 38.2034 34.0123 38.0188 34.1049 37.2802C34.1975 36.5416 34.1049 36.4493 33.8735 36.357C33.642 36.2647 33.5031 36.6339 33.4568 37.1417C33.4105 37.6495 33.2253 37.0032 33.2253 37.0032C32.8086 37.1417 32.9475 37.7418 33.179 38.2034C33.4105 38.6651 33.3642 39.1267 33.7809 38.6651ZM26.9288 43.0966C26.9751 42.3118 27.114 42.635 27.3918 43.2351C27.6696 43.8352 27.7159 43.2351 28.1789 43.0504C28.6418 42.8658 28.1326 41.6194 28.2252 40.8808C28.3178 40.0961 28.0863 40.0961 27.7622 40.4654C27.4381 40.8346 26.8362 40.7885 26.1418 41.0193C25.7714 41.1578 26.2807 42.2195 26.2807 43.1889C26.3733 44.1583 26.8825 43.8813 26.9288 43.0966ZM30.9567 39.8191C30.7252 39.7268 30.4937 39.6806 30.3086 39.8191C29.9382 40.0961 29.7067 40.2345 29.6604 40.8346C29.6141 41.4347 29.3363 41.4347 29.29 40.8808C29.2437 40.3269 29.1974 40.0961 28.9196 40.0961C28.6418 40.0961 28.6881 40.8808 28.7807 41.6656C28.8733 42.4503 28.7807 42.7273 29.2437 42.7273C29.7067 42.7273 30.216 42.5888 29.9382 42.3118C29.6604 42.0349 29.4752 41.7117 30.1697 41.8964C30.8641 42.081 30.9567 42.3118 30.7252 41.7579C30.54 41.2039 30.7252 41.2963 30.8641 40.6962C31.0956 40.0961 31.2345 39.9114 30.9567 39.8191ZM32.3919 39.9576C31.929 39.8653 31.6049 40.0499 31.3734 40.4654C31.1882 40.927 30.9104 41.4347 31.0956 41.7579C31.2808 42.081 31.6049 42.081 32.2067 42.1733C32.8086 42.2657 32.8549 42.081 32.9938 41.7579C33.1327 41.4347 32.8549 41.2963 32.3919 41.2963C31.929 41.2963 31.929 40.927 32.4382 40.9731C32.9475 41.0193 33.2253 40.9731 33.2253 40.6962C33.179 40.4654 33.4568 40.2345 32.3919 39.9576ZM33.9661 39.0805C33.5494 39.3113 33.5031 39.6806 33.5031 40.0961C33.5494 40.5115 33.179 41.2039 33.6883 40.8346C34.1975 40.4654 34.3364 40.0499 34.2438 39.6806C34.1975 39.3113 34.2438 38.942 33.9661 39.0805ZM31.5123 42.4965C30.8641 42.358 30.6326 42.7734 30.1697 43.0042C29.7067 43.2351 30.3548 44.2506 30.7252 44.7584C31.0956 45.2662 31.1882 45.1277 31.3271 44.7122C31.466 44.2968 31.2808 44.1583 31.1882 43.6967C31.0956 43.2351 31.466 43.2351 31.6512 43.5582C31.7901 43.8813 31.8364 43.8813 32.3919 43.5582C32.9012 43.2351 32.8549 42.9581 32.8549 42.635C32.8086 42.4041 31.929 42.6349 31.5123 42.4965ZM27.6696 46.3279C28.1326 46.2817 27.8085 46.1432 28.04 45.5893C28.2252 45.0815 28.4104 44.2968 28.503 44.8969C28.5955 45.497 28.6418 45.7278 29.0585 45.497C29.5215 45.2662 29.4289 44.5737 29.7067 44.3891C29.9845 44.2506 30.1697 44.2506 29.9382 43.9275C29.753 43.6043 29.7993 43.0504 29.4752 43.0504C29.0122 43.0504 29.0122 43.0966 28.3641 43.4659C27.7159 43.8352 27.7622 43.9736 27.9011 44.5737C28.04 45.1277 27.7159 44.7584 27.4381 44.4353C27.2066 44.1121 27.2529 44.1121 26.9288 44.2968C26.6048 44.4814 26.8825 45.0354 26.9751 45.6816C26.9751 46.374 27.1603 46.374 27.6696 46.3279ZM29.9845 44.6199C29.6141 44.8045 29.5215 45.22 29.4752 45.5431C29.3826 45.8663 29.0585 45.8663 28.7807 45.9124C28.503 45.9586 28.5955 46.6048 28.6881 46.8357C28.7807 47.0665 28.8733 47.0203 29.2437 46.9741C29.6141 46.8818 29.6604 45.8663 30.1234 45.7278C30.5863 45.5893 30.7715 45.1738 30.5863 44.9892C30.4011 44.8045 30.2623 44.4814 29.9845 44.6199ZM27.9937 46.6048C27.7159 46.5587 27.2066 46.374 27.114 46.6972C27.0214 47.0203 26.9751 47.805 27.2992 47.805C27.6233 47.805 27.9474 47.0665 28.2715 47.1588C28.5955 47.2511 28.5955 46.9741 28.4104 46.6972C28.2715 46.374 28.2252 46.651 27.9937 46.6048Z" fill="#822E1C"/>
<path d="M15.3547 29.2482C15.9103 29.7098 17.7622 31.7871 19.3826 33.5413C21.003 35.2954 24.2439 37.3265 24.7531 37.6958C25.2624 38.0651 24.9383 37.2803 24.6142 36.3571C24.2439 35.4339 23.5031 35.3877 22.2531 34.2798C21.0493 33.172 23.0864 34.5106 23.8735 35.0184C24.6605 35.48 23.8735 34.2337 23.7809 33.7721C23.642 33.2643 23.642 33.3104 22.9475 32.9873C22.2068 32.618 18.503 31.0024 16.9752 30.033C15.4936 29.0636 14.7529 28.7866 15.3547 29.2482ZM9.56756 26.894C10.725 27.9095 12.2065 29.9406 13.1325 30.8177C14.5677 32.1564 17.114 33.172 18.5956 33.8644C20.0771 34.5568 18.2252 33.0796 17.2992 31.9718C16.3733 30.91 13.3177 27.7249 12.2991 27.1248C10.5398 26.1092 11.5583 27.0786 12.6695 28.5096C13.7806 29.9406 11.975 28.325 11.0491 27.4941C10.1231 26.6632 9.33607 25.8784 8.03974 25.3245C6.74341 24.8629 8.41012 25.8784 9.56756 26.894ZM24.7068 38.1574C24.105 37.742 21.1882 35.8955 20.3549 35.0646C19.8919 34.603 19.3363 34.4183 18.4567 34.1875C17.6233 33.9105 15.401 32.8488 14.1047 31.9718C12.8084 31.0947 15.077 33.6797 17.2066 35.1569C19.3363 36.6341 20.6789 38.2959 22.2531 40.05C23.8272 41.8042 25.1698 43.2813 25.818 43.8814C26.4661 44.5277 25.818 42.5428 25.6328 41.758C25.4476 41.0194 25.8643 41.5734 24.105 39.5423C22.3457 37.5111 23.8272 38.7113 24.5679 39.2191C25.3087 39.7731 25.5865 40.4655 25.4476 39.6807C25.2624 38.8037 25.2624 38.5267 24.7068 38.1574ZM26.4661 45.3586C26.2346 44.4354 26.2346 44.897 25.1235 43.9276C24.0124 42.9582 21.3734 39.8192 19.9845 38.3421C18.5956 36.8649 17.2992 35.6185 15.2158 34.0029C13.1325 32.3872 13.2714 31.5101 11.2806 29.3405C10.2157 28.1865 7.25268 25.6938 6.51192 24.9552C4.47484 22.8318 4.61373 23.5703 4.89151 24.3551C5.1693 25.1398 5.03041 25.0937 6.28044 25.9708C7.53047 26.8478 8.13234 27.8172 9.52126 29.3405C10.9102 30.8639 6.83601 27.4018 6.09525 26.894C5.35449 26.34 5.77117 27.7711 6.09525 28.5558C6.41933 29.2944 7.99344 30.0791 10.3083 31.8333C12.6232 33.5874 15.0307 36.2648 16.8363 37.3265C18.6882 38.3882 23.1327 43.6968 24.0124 44.5739C24.892 45.4509 25.4476 45.9587 26.2346 46.6511C27.1143 47.2512 26.6976 46.2818 26.4661 45.3586ZM16.6511 37.6958C15.5399 36.911 13.4565 35.1569 12.2991 33.9105C11.1417 32.6642 7.85455 30.8177 7.29898 30.4484C6.55822 29.9406 6.46563 30.2638 6.51192 30.7716C6.55822 31.2793 6.8823 31.464 7.29898 31.7409C7.76196 32.0641 9.42866 33.0796 10.0768 33.9567C10.7713 34.8338 12.4843 36.034 13.5491 37.5573C14.5677 39.1268 14.9381 41.6195 15.401 41.9427C15.864 42.2658 17.1603 42.7736 18.04 43.466C18.9196 44.1584 17.2992 41.6657 16.79 40.9271C16.2807 40.1885 15.401 38.7575 16.327 39.7269C17.2529 40.6501 19.29 44.0199 19.753 44.3892C20.216 44.7585 21.1882 45.0816 21.8364 45.5894C22.4845 46.1434 20.7252 43.2813 19.9845 42.2196C19.2437 41.2041 17.7622 38.4805 16.6511 37.6958ZM25.9106 46.8819C24.429 45.6817 22.4846 43.4198 21.4197 42.0811C20.3549 40.7425 17.4844 38.0189 18.7345 39.5884C19.2437 40.2347 21.4197 43.743 21.929 44.6662C22.4383 45.5894 23.0864 46.2818 24.3364 46.8358C25.5865 47.3897 27.3921 48.1283 25.9106 46.8819ZM13.0399 37.4188C12.4843 36.6341 10.6787 35.0184 9.93794 34.2798C9.19718 33.5412 8.13234 33.172 7.39158 32.618C6.83601 32.2026 6.74341 32.3872 6.8823 32.8027C7.0212 33.2181 8.13234 33.7259 8.91939 34.9723C9.66015 36.1725 10.4009 38.7113 10.9102 39.173C11.4195 39.6346 11.6509 39.4038 11.4658 38.6652C11.2806 37.9266 11.6046 38.3882 12.1602 39.3576C12.7158 40.2808 13.2714 40.6963 13.8732 41.1117C14.4751 41.5272 14.5677 41.3426 14.2436 40.6963C13.8732 40.05 13.5491 38.2036 13.0399 37.4188ZM7.34528 33.8644C6.69711 33.4028 7.29898 34.5568 7.39158 35.0184C7.48417 35.5262 7.71566 35.8493 8.22493 36.2186C8.7805 36.5879 9.05829 37.5111 9.56756 38.1112C10.0768 38.7113 9.33607 36.6341 8.8731 35.8032C8.50272 34.9261 8.03974 34.326 7.34528 33.8644Z" fill="#973722"/>
<path d="M10.6325 18.031C11.8825 18.308 15.8178 18.8158 18.0863 19.0466C20.3549 19.3235 18.1789 18.6773 16.1418 18.2618C14.1511 17.8464 10.2621 17.0616 9.52131 17.0155C8.82685 16.9693 8.82685 16.9231 8.54906 17.3848C8.27128 17.8002 9.38242 17.754 10.6325 18.031ZM13.9659 16.5538C16.2344 16.8308 15.4011 16.6462 14.9844 16.323C14.5677 15.9999 13.5955 15.0767 12.3455 14.4766C11.0954 13.8765 10.4936 14.892 10.1695 15.2613C9.61391 15.9537 11.6973 16.2769 13.9659 16.5538ZM17.0215 21.5393C13.8733 20.6622 12.2066 19.9236 10.4936 19.3697C8.78055 18.8619 7.9472 19.0927 7.53052 19.3697C7.06755 19.6467 7.43793 19.9236 8.50277 20.1083C9.56761 20.2468 13.364 21.3085 15.4011 21.8163C17.4382 22.2779 22.0679 23.3396 24.6143 23.4781C27.1606 23.6166 20.1697 22.4164 17.0215 21.5393ZM19.0123 24.7706C21.0494 25.1399 19.5216 24.586 16.9752 23.8935C14.4288 23.2011 8.50277 21.9086 7.02125 21.5855C5.53973 21.3085 5.67862 21.7701 5.44713 22.0932C5.21565 22.4625 6.0953 22.324 7.80831 22.4625C9.56761 22.6933 16.9752 24.4013 19.0123 24.7706ZM9.05834 24.2167C6.37308 23.7089 8.54906 24.7244 9.89169 25.0937C11.188 25.463 18.9197 26.894 21.0031 27.0787C23.0865 27.2633 20.0771 26.5709 18.0863 26.2016C16.0956 25.7862 9.7991 24.3552 9.05834 24.2167Z" fill="url(#paint3_linear_4136_975)"/>
<path d="M26.744 26.5247C27.8089 26.7555 30.8182 27.0325 30.4015 27.3095C29.9848 27.5864 28.5959 28.0942 26.8829 27.4018C25.2162 26.7094 22.7161 25.74 24.1514 25.9708C25.5403 26.2477 25.8181 26.3401 26.744 26.5247Z" fill="#F39977"/>
<path d="M20.9102 29.8944C22.438 30.2176 25.54 30.7253 25.2622 31.2793C24.9381 31.8332 24.5677 32.6641 22.901 31.8794C21.188 31.0946 17.6694 29.202 20.9102 29.8944Z" fill="#F39977"/>
<path d="M20.1695 32.941C21.5121 33.6335 23.0399 34.0489 22.7621 33.5412C22.5306 33.0795 22.2066 32.9872 21.0954 32.4333C19.9843 31.9255 18.6417 31.3254 17.8546 30.8638C15.1231 29.2943 18.8269 32.2486 20.1695 32.941ZM16.8824 32.3409C18.8269 33.6796 16.6509 31.6024 15.8638 30.7715C15.0768 29.9405 13.4101 28.3249 12.7619 27.8633C12.1137 27.4017 12.623 27.9556 13.2712 29.1096C13.9193 30.2637 14.9379 31.0023 16.8824 32.3409ZM11.2341 31.6485C13.0397 32.6641 10.2618 30.5868 9.42847 29.9405C8.59511 29.2943 7.29878 27.9556 6.65062 27.5401C5.67837 26.8939 6.14135 27.6786 6.78951 28.4634C7.43768 29.202 9.42847 30.633 11.2341 31.6485ZM8.7803 27.1709C7.85435 26.3399 6.04875 24.7243 5.58578 24.3088C5.1691 23.8934 5.2617 24.078 5.2617 24.5396C5.30799 25.0013 5.67837 25.1859 6.69692 25.9707C7.71546 26.7554 9.79885 28.925 10.3544 29.6174C10.91 30.2637 12.8545 32.941 13.9656 33.495C15.0768 34.0489 12.8082 32.1563 11.6507 30.4483C10.5396 28.6942 9.65996 28.0018 8.7803 27.1709ZM8.8266 31.6024C8.27103 31.2792 7.66916 30.8176 7.0673 30.7253C6.46543 30.633 7.90065 31.6485 8.8729 32.2025C9.84515 32.7564 11.4656 34.4182 12.9934 35.4338C14.5212 36.4493 12.623 34.6029 11.8359 33.772C11.0489 32.9411 9.65996 32.064 8.8266 31.6024ZM22.1603 37.6034C20.9565 35.9877 19.8917 35.0183 19.2898 34.7875C18.6417 34.5567 16.975 33.8643 16.0953 33.4488C14.799 32.8487 16.2805 34.0951 17.0675 34.4182C17.8083 34.7413 18.7806 35.3876 19.6602 36.0339C20.5399 36.6801 22.6232 39.1267 23.827 40.1884C25.0307 41.2501 23.364 39.1729 22.1603 37.6034Z" fill="#B94329"/>
<path d="M10.3546 48.2668C8.78053 48.2668 7.25271 47.6667 6.04898 46.5126C3.9193 44.3892 3.68781 41.0194 5.44711 38.619C5.7712 38.2035 7.06752 36.911 8.73423 36.5879C9.56759 36.4494 10.3546 36.9572 10.4935 37.7881C10.6324 38.619 10.1232 39.4037 9.2898 39.5422C8.68794 39.6807 8.03977 40.2346 7.85458 40.4193C6.97493 41.6195 7.11382 43.3275 8.17866 44.3892C9.3824 45.5894 11.3269 45.5894 12.5306 44.3892C13.364 43.5583 13.6418 42.3581 13.2714 41.2502V41.204C13.0399 40.4655 12.2991 38.2497 14.151 36.4032L15.3085 35.2492C15.9103 34.6491 16.6048 34.9261 17.2067 35.48C17.8085 36.0801 18.04 36.7725 17.4382 37.3726L16.2344 38.4805C15.7714 38.9421 15.8177 39.4037 16.0955 40.2346V40.327C16.79 42.4966 16.2344 44.8508 14.614 46.5126C13.4566 47.6667 11.8825 48.2668 10.3546 48.2668Z" fill="#8892A1"/>
<path d="M10.3547 46.9282C9.0121 46.9282 7.66947 46.4204 6.65093 45.4048C4.84533 43.6045 4.61384 40.6963 6.14166 38.6191C6.37314 38.3421 7.43798 37.1881 8.87321 36.9111C9.24359 36.8649 9.56767 37.0496 9.61397 37.4189C9.66026 37.7882 9.47507 38.1113 9.10469 38.1574C8.13245 38.3421 7.25279 39.2192 7.1602 39.3576C6.00276 40.9271 6.18795 43.0967 7.53058 44.4816C9.0584 46.0049 11.5585 46.0049 13.0863 44.4816C14.1511 43.4199 14.5215 41.8965 14.0585 40.4655V40.4194C13.827 39.6808 13.2715 37.9266 14.7067 36.4956L15.7715 35.4339C16.003 35.2031 16.3271 35.2493 16.6049 35.5262C16.8364 35.757 17.0216 36.034 16.7901 36.2648L15.6326 37.4189C14.7993 38.2498 15.0308 39.2192 15.3086 40.0501V40.0962C15.9104 41.9889 15.4474 44.02 14.0122 45.4048C13.04 46.4204 11.6974 46.9282 10.3547 46.9282Z" fill="#DBEBFA"/>
</g>
<defs>
<filter id="filter0_d_4136_975" x="0.170898" y="0.155518" width="53.5347" height="57.1113" filterUnits="userSpaceOnUse" color-interpolation-filters="sRGB">
<feFlood flood-opacity="0" result="BackgroundImageFix"/>
<feColorMatrix in="SourceAlpha" type="matrix" values="0 0 0 0 0 0 0 0 0 0 0 0 0 0 0 0 0 0 127 0" result="hardAlpha"/>
<feOffset dx="2" dy="3"/>
<feGaussianBlur stdDeviation="3"/>
<feComposite in2="hardAlpha" operator="out"/>
<feColorMatrix type="matrix" values="0 0 0 0 0 0 0 0 0 0 0 0 0 0 0 0 0 0 0.1 0"/>
<feBlend mode="normal" in2="BackgroundImageFix" result="effect1_dropShadow_4136_975"/>
<feBlend mode="normal" in="SourceGraphic" in2="effect1_dropShadow_4136_975" result="shape"/>
</filter>
<linearGradient id="paint0_linear_4136_975" x1="43.0806" y1="13.6046" x2="29.3826" y2="17.0285" gradientUnits="userSpaceOnUse">
<stop stop-color="#DC7F54"/>
<stop offset="1" stop-color="#C26143"/>
</linearGradient>
<linearGradient id="paint1_linear_4136_975" x1="18.4577" y1="11.6575" x2="39.4595" y2="11.6575" gradientUnits="userSpaceOnUse">
<stop stop-color="#F39977"/>
<stop offset="1" stop-color="#D0714C"/>
</linearGradient>
<linearGradient id="paint2_linear_4136_975" x1="27.1545" y1="22.9154" x2="13.9277" y2="23.5587" gradientUnits="userSpaceOnUse">
<stop stop-color="#DC7F54"/>
<stop offset="1" stop-color="#C26143"/>
</linearGradient>
<linearGradient id="paint3_linear_4136_975" x1="10.3835" y1="16.561" x2="21.079" y2="30.3663" gradientUnits="userSpaceOnUse">
<stop stop-color="#F39977"/>
<stop offset="1" stop-color="#D0714C"/>
</linearGradient>
</defs>
</svg>
